G04 #@! TF.FileFunction,Legend,Top*
%FSLAX46Y46*%
G04 Gerber Fmt 4.6, Leading zero omitted, Abs format (unit mm)*
G04 Created by KiCad (PCBNEW 4.0.1-stable) date Thursday, March 10, 2016 'AMt' 12:00:46 AM*
%MOMM*%
G01*
G04 APERTURE LIST*
%ADD10C,0.100000*%
%ADD11C,0.127000*%
%ADD12C,0.200000*%
%ADD13C,0.190500*%
%ADD14C,0.150000*%
G04 APERTURE END LIST*
D10*
D11*
X148190857Y-124054810D02*
X148239238Y-124054810D01*
X148287619Y-124079000D01*
X148311810Y-124103190D01*
X148336000Y-124151571D01*
X148360191Y-124248333D01*
X148360191Y-124369286D01*
X148336000Y-124466048D01*
X148311810Y-124514429D01*
X148287619Y-124538619D01*
X148239238Y-124562810D01*
X148190857Y-124562810D01*
X148142476Y-124538619D01*
X148118286Y-124514429D01*
X148094095Y-124466048D01*
X148069905Y-124369286D01*
X148069905Y-124248333D01*
X148094095Y-124151571D01*
X148118286Y-124103190D01*
X148142476Y-124079000D01*
X148190857Y-124054810D01*
X148577905Y-124514429D02*
X148602096Y-124538619D01*
X148577905Y-124562810D01*
X148553715Y-124538619D01*
X148577905Y-124514429D01*
X148577905Y-124562810D01*
X149085906Y-124562810D02*
X148795620Y-124562810D01*
X148940763Y-124562810D02*
X148940763Y-124054810D01*
X148892382Y-124127381D01*
X148844001Y-124175762D01*
X148795620Y-124199952D01*
X149303620Y-124224143D02*
X149303620Y-124732143D01*
X149545525Y-124490238D02*
X149569716Y-124538619D01*
X149618097Y-124562810D01*
X149303620Y-124490238D02*
X149327811Y-124538619D01*
X149376192Y-124562810D01*
X149472954Y-124562810D01*
X149521335Y-124538619D01*
X149545525Y-124490238D01*
X149545525Y-124224143D01*
X150561522Y-122911810D02*
X150561522Y-122403810D01*
X150730856Y-122766667D01*
X150900189Y-122403810D01*
X150900189Y-122911810D01*
X151117903Y-122766667D02*
X151359808Y-122766667D01*
X151069522Y-122911810D02*
X151238855Y-122403810D01*
X151408189Y-122911810D01*
X151529141Y-122403810D02*
X151867808Y-122911810D01*
X151867808Y-122403810D02*
X151529141Y-122911810D01*
X152327428Y-122911810D02*
X152037142Y-122911810D01*
X152182285Y-122911810D02*
X152182285Y-122403810D01*
X152133904Y-122476381D01*
X152085523Y-122524762D01*
X152037142Y-122548952D01*
X152762857Y-122573143D02*
X152762857Y-122911810D01*
X152641904Y-122379619D02*
X152520952Y-122742476D01*
X152835428Y-122742476D01*
X153246667Y-122403810D02*
X153149905Y-122403810D01*
X153101524Y-122428000D01*
X153077333Y-122452190D01*
X153028952Y-122524762D01*
X153004762Y-122621524D01*
X153004762Y-122815048D01*
X153028952Y-122863429D01*
X153053143Y-122887619D01*
X153101524Y-122911810D01*
X153198286Y-122911810D01*
X153246667Y-122887619D01*
X153270857Y-122863429D01*
X153295048Y-122815048D01*
X153295048Y-122694095D01*
X153270857Y-122645714D01*
X153246667Y-122621524D01*
X153198286Y-122597333D01*
X153101524Y-122597333D01*
X153053143Y-122621524D01*
X153028952Y-122645714D01*
X153004762Y-122694095D01*
X153730477Y-122403810D02*
X153633715Y-122403810D01*
X153585334Y-122428000D01*
X153561143Y-122452190D01*
X153512762Y-122524762D01*
X153488572Y-122621524D01*
X153488572Y-122815048D01*
X153512762Y-122863429D01*
X153536953Y-122887619D01*
X153585334Y-122911810D01*
X153682096Y-122911810D01*
X153730477Y-122887619D01*
X153754667Y-122863429D01*
X153778858Y-122815048D01*
X153778858Y-122694095D01*
X153754667Y-122645714D01*
X153730477Y-122621524D01*
X153682096Y-122597333D01*
X153585334Y-122597333D01*
X153536953Y-122621524D01*
X153512762Y-122645714D01*
X153488572Y-122694095D01*
X154262668Y-122911810D02*
X153972382Y-122911810D01*
X154117525Y-122911810D02*
X154117525Y-122403810D01*
X154069144Y-122476381D01*
X154020763Y-122524762D01*
X153972382Y-122548952D01*
X146805952Y-128080710D02*
X146636619Y-127838805D01*
X146515666Y-128080710D02*
X146515666Y-127572710D01*
X146709190Y-127572710D01*
X146757571Y-127596900D01*
X146781762Y-127621090D01*
X146805952Y-127669471D01*
X146805952Y-127742043D01*
X146781762Y-127790424D01*
X146757571Y-127814614D01*
X146709190Y-127838805D01*
X146515666Y-127838805D01*
X147120428Y-127572710D02*
X147168809Y-127572710D01*
X147217190Y-127596900D01*
X147241381Y-127621090D01*
X147265571Y-127669471D01*
X147289762Y-127766233D01*
X147289762Y-127887186D01*
X147265571Y-127983948D01*
X147241381Y-128032329D01*
X147217190Y-128056519D01*
X147168809Y-128080710D01*
X147120428Y-128080710D01*
X147072047Y-128056519D01*
X147047857Y-128032329D01*
X147023666Y-127983948D01*
X146999476Y-127887186D01*
X146999476Y-127766233D01*
X147023666Y-127669471D01*
X147047857Y-127621090D01*
X147072047Y-127596900D01*
X147120428Y-127572710D01*
X147894524Y-127814614D02*
X148281572Y-127814614D01*
X148281572Y-127959757D02*
X147894524Y-127959757D01*
X148910524Y-128080710D02*
X148910524Y-127572710D01*
X149128239Y-127621090D02*
X149152429Y-127596900D01*
X149200810Y-127572710D01*
X149321763Y-127572710D01*
X149370144Y-127596900D01*
X149394334Y-127621090D01*
X149418525Y-127669471D01*
X149418525Y-127717852D01*
X149394334Y-127790424D01*
X149104048Y-128080710D01*
X149418525Y-128080710D01*
X149926525Y-128032329D02*
X149902335Y-128056519D01*
X149829763Y-128080710D01*
X149781382Y-128080710D01*
X149708811Y-128056519D01*
X149660430Y-128008138D01*
X149636239Y-127959757D01*
X149612049Y-127862995D01*
X149612049Y-127790424D01*
X149636239Y-127693662D01*
X149660430Y-127645281D01*
X149708811Y-127596900D01*
X149781382Y-127572710D01*
X149829763Y-127572710D01*
X149902335Y-127596900D01*
X149926525Y-127621090D01*
X147047857Y-128870529D02*
X147023667Y-128894719D01*
X146951095Y-128918910D01*
X146902714Y-128918910D01*
X146830143Y-128894719D01*
X146781762Y-128846338D01*
X146757571Y-128797957D01*
X146733381Y-128701195D01*
X146733381Y-128628624D01*
X146757571Y-128531862D01*
X146781762Y-128483481D01*
X146830143Y-128435100D01*
X146902714Y-128410910D01*
X146951095Y-128410910D01*
X147023667Y-128435100D01*
X147047857Y-128459290D01*
X147652619Y-128652814D02*
X148039667Y-128652814D01*
X148039667Y-128797957D02*
X147652619Y-128797957D01*
X148644429Y-128894719D02*
X148717000Y-128918910D01*
X148837953Y-128918910D01*
X148886334Y-128894719D01*
X148910524Y-128870529D01*
X148934715Y-128822148D01*
X148934715Y-128773767D01*
X148910524Y-128725386D01*
X148886334Y-128701195D01*
X148837953Y-128677005D01*
X148741191Y-128652814D01*
X148692810Y-128628624D01*
X148668619Y-128604433D01*
X148644429Y-128556052D01*
X148644429Y-128507671D01*
X148668619Y-128459290D01*
X148692810Y-128435100D01*
X148741191Y-128410910D01*
X148862143Y-128410910D01*
X148934715Y-128435100D01*
X149152429Y-128918910D02*
X149152429Y-128410910D01*
X149345953Y-128410910D01*
X149394334Y-128435100D01*
X149418525Y-128459290D01*
X149442715Y-128507671D01*
X149442715Y-128580243D01*
X149418525Y-128628624D01*
X149394334Y-128652814D01*
X149345953Y-128677005D01*
X149152429Y-128677005D01*
X149660429Y-128918910D02*
X149660429Y-128410910D01*
X147991286Y-121859524D02*
X147991286Y-121472476D01*
X148184810Y-121666000D02*
X147797762Y-121666000D01*
X149642286Y-121859524D02*
X149642286Y-121472476D01*
X150603857Y-119712619D02*
X150676428Y-119736810D01*
X150797381Y-119736810D01*
X150845762Y-119712619D01*
X150869952Y-119688429D01*
X150894143Y-119640048D01*
X150894143Y-119591667D01*
X150869952Y-119543286D01*
X150845762Y-119519095D01*
X150797381Y-119494905D01*
X150700619Y-119470714D01*
X150652238Y-119446524D01*
X150628047Y-119422333D01*
X150603857Y-119373952D01*
X150603857Y-119325571D01*
X150628047Y-119277190D01*
X150652238Y-119253000D01*
X150700619Y-119228810D01*
X150821571Y-119228810D01*
X150894143Y-119253000D01*
X151111857Y-119736810D02*
X151111857Y-119228810D01*
X151232810Y-119228810D01*
X151305381Y-119253000D01*
X151353762Y-119301381D01*
X151377953Y-119349762D01*
X151402143Y-119446524D01*
X151402143Y-119519095D01*
X151377953Y-119615857D01*
X151353762Y-119664238D01*
X151305381Y-119712619D01*
X151232810Y-119736810D01*
X151111857Y-119736810D01*
D12*
X149352000Y-134112000D02*
X150114000Y-134112000D01*
D11*
X149321762Y-134825619D02*
X149394333Y-134849810D01*
X149515286Y-134849810D01*
X149563667Y-134825619D01*
X149587857Y-134801429D01*
X149612048Y-134753048D01*
X149612048Y-134704667D01*
X149587857Y-134656286D01*
X149563667Y-134632095D01*
X149515286Y-134607905D01*
X149418524Y-134583714D01*
X149370143Y-134559524D01*
X149345952Y-134535333D01*
X149321762Y-134486952D01*
X149321762Y-134438571D01*
X149345952Y-134390190D01*
X149370143Y-134366000D01*
X149418524Y-134341810D01*
X149539476Y-134341810D01*
X149612048Y-134366000D01*
X149829762Y-134849810D02*
X149829762Y-134341810D01*
X149950715Y-134341810D01*
X150023286Y-134366000D01*
X150071667Y-134414381D01*
X150095858Y-134462762D01*
X150120048Y-134559524D01*
X150120048Y-134632095D01*
X150095858Y-134728857D01*
X150071667Y-134777238D01*
X150023286Y-134825619D01*
X149950715Y-134849810D01*
X149829762Y-134849810D01*
D12*
X149352000Y-136652000D02*
X150114000Y-136652000D01*
D11*
X149636238Y-137341429D02*
X149612048Y-137365619D01*
X149539476Y-137389810D01*
X149491095Y-137389810D01*
X149418524Y-137365619D01*
X149370143Y-137317238D01*
X149345952Y-137268857D01*
X149321762Y-137172095D01*
X149321762Y-137099524D01*
X149345952Y-137002762D01*
X149370143Y-136954381D01*
X149418524Y-136906000D01*
X149491095Y-136881810D01*
X149539476Y-136881810D01*
X149612048Y-136906000D01*
X149636238Y-136930190D01*
X149829762Y-137365619D02*
X149902333Y-137389810D01*
X150023286Y-137389810D01*
X150071667Y-137365619D01*
X150095857Y-137341429D01*
X150120048Y-137293048D01*
X150120048Y-137244667D01*
X150095857Y-137196286D01*
X150071667Y-137172095D01*
X150023286Y-137147905D01*
X149926524Y-137123714D01*
X149878143Y-137099524D01*
X149853952Y-137075333D01*
X149829762Y-137026952D01*
X149829762Y-136978571D01*
X149853952Y-136930190D01*
X149878143Y-136906000D01*
X149926524Y-136881810D01*
X150047476Y-136881810D01*
X150120048Y-136906000D01*
X150700620Y-136857619D02*
X150265191Y-137510762D01*
X150845762Y-137244667D02*
X151087667Y-137244667D01*
X150797381Y-137389810D02*
X150966714Y-136881810D01*
X151136048Y-137389810D01*
X151402143Y-136881810D02*
X151450524Y-136881810D01*
X151498905Y-136906000D01*
X151523096Y-136930190D01*
X151547286Y-136978571D01*
X151571477Y-137075333D01*
X151571477Y-137196286D01*
X151547286Y-137293048D01*
X151523096Y-137341429D01*
X151498905Y-137365619D01*
X151450524Y-137389810D01*
X151402143Y-137389810D01*
X151353762Y-137365619D01*
X151329572Y-137341429D01*
X151305381Y-137293048D01*
X151281191Y-137196286D01*
X151281191Y-137075333D01*
X151305381Y-136978571D01*
X151329572Y-136930190D01*
X151353762Y-136906000D01*
X151402143Y-136881810D01*
X149321762Y-139905619D02*
X149394333Y-139929810D01*
X149515286Y-139929810D01*
X149563667Y-139905619D01*
X149587857Y-139881429D01*
X149612048Y-139833048D01*
X149612048Y-139784667D01*
X149587857Y-139736286D01*
X149563667Y-139712095D01*
X149515286Y-139687905D01*
X149418524Y-139663714D01*
X149370143Y-139639524D01*
X149345952Y-139615333D01*
X149321762Y-139566952D01*
X149321762Y-139518571D01*
X149345952Y-139470190D01*
X149370143Y-139446000D01*
X149418524Y-139421810D01*
X149539476Y-139421810D01*
X149612048Y-139446000D01*
X150120048Y-139881429D02*
X150095858Y-139905619D01*
X150023286Y-139929810D01*
X149974905Y-139929810D01*
X149902334Y-139905619D01*
X149853953Y-139857238D01*
X149829762Y-139808857D01*
X149805572Y-139712095D01*
X149805572Y-139639524D01*
X149829762Y-139542762D01*
X149853953Y-139494381D01*
X149902334Y-139446000D01*
X149974905Y-139421810D01*
X150023286Y-139421810D01*
X150095858Y-139446000D01*
X150120048Y-139470190D01*
X150579667Y-139929810D02*
X150337762Y-139929810D01*
X150337762Y-139421810D01*
X150749000Y-139929810D02*
X150749000Y-139421810D01*
X151039286Y-139929810D02*
X150821572Y-139639524D01*
X151039286Y-139421810D02*
X150749000Y-139712095D01*
X151619858Y-139397619D02*
X151184429Y-140050762D01*
X151765000Y-139905619D02*
X151837571Y-139929810D01*
X151958524Y-139929810D01*
X152006905Y-139905619D01*
X152031095Y-139881429D01*
X152055286Y-139833048D01*
X152055286Y-139784667D01*
X152031095Y-139736286D01*
X152006905Y-139712095D01*
X151958524Y-139687905D01*
X151861762Y-139663714D01*
X151813381Y-139639524D01*
X151789190Y-139615333D01*
X151765000Y-139566952D01*
X151765000Y-139518571D01*
X151789190Y-139470190D01*
X151813381Y-139446000D01*
X151861762Y-139421810D01*
X151982714Y-139421810D01*
X152055286Y-139446000D01*
X152563286Y-139881429D02*
X152539096Y-139905619D01*
X152466524Y-139929810D01*
X152418143Y-139929810D01*
X152345572Y-139905619D01*
X152297191Y-139857238D01*
X152273000Y-139808857D01*
X152248810Y-139712095D01*
X152248810Y-139639524D01*
X152273000Y-139542762D01*
X152297191Y-139494381D01*
X152345572Y-139446000D01*
X152418143Y-139421810D01*
X152466524Y-139421810D01*
X152539096Y-139446000D01*
X152563286Y-139470190D01*
X153022905Y-139929810D02*
X152781000Y-139929810D01*
X152781000Y-139421810D01*
X149345952Y-142469810D02*
X149345952Y-141961810D01*
X149466905Y-141961810D01*
X149539476Y-141986000D01*
X149587857Y-142034381D01*
X149612048Y-142082762D01*
X149636238Y-142179524D01*
X149636238Y-142252095D01*
X149612048Y-142348857D01*
X149587857Y-142397238D01*
X149539476Y-142445619D01*
X149466905Y-142469810D01*
X149345952Y-142469810D01*
X149853952Y-142469810D02*
X149853952Y-141961810D01*
X150095857Y-142469810D02*
X150095857Y-141961810D01*
X150386143Y-142469810D01*
X150386143Y-141961810D01*
X150990905Y-141937619D02*
X150555476Y-142590762D01*
X151136047Y-142445619D02*
X151208618Y-142469810D01*
X151329571Y-142469810D01*
X151377952Y-142445619D01*
X151402142Y-142421429D01*
X151426333Y-142373048D01*
X151426333Y-142324667D01*
X151402142Y-142276286D01*
X151377952Y-142252095D01*
X151329571Y-142227905D01*
X151232809Y-142203714D01*
X151184428Y-142179524D01*
X151160237Y-142155333D01*
X151136047Y-142106952D01*
X151136047Y-142058571D01*
X151160237Y-142010190D01*
X151184428Y-141986000D01*
X151232809Y-141961810D01*
X151353761Y-141961810D01*
X151426333Y-141986000D01*
X151644047Y-142469810D02*
X151644047Y-141961810D01*
X151765000Y-141961810D01*
X151837571Y-141986000D01*
X151885952Y-142034381D01*
X151910143Y-142082762D01*
X151934333Y-142179524D01*
X151934333Y-142252095D01*
X151910143Y-142348857D01*
X151885952Y-142397238D01*
X151837571Y-142445619D01*
X151765000Y-142469810D01*
X151644047Y-142469810D01*
X152127857Y-142324667D02*
X152369762Y-142324667D01*
X152079476Y-142469810D02*
X152248809Y-141961810D01*
X152418143Y-142469810D01*
X149345952Y-145009810D02*
X149345952Y-144501810D01*
X149466905Y-144501810D01*
X149539476Y-144526000D01*
X149587857Y-144574381D01*
X149612048Y-144622762D01*
X149636238Y-144719524D01*
X149636238Y-144792095D01*
X149612048Y-144888857D01*
X149587857Y-144937238D01*
X149539476Y-144985619D01*
X149466905Y-145009810D01*
X149345952Y-145009810D01*
X149950714Y-144501810D02*
X150047476Y-144501810D01*
X150095857Y-144526000D01*
X150144238Y-144574381D01*
X150168429Y-144671143D01*
X150168429Y-144840476D01*
X150144238Y-144937238D01*
X150095857Y-144985619D01*
X150047476Y-145009810D01*
X149950714Y-145009810D01*
X149902333Y-144985619D01*
X149853952Y-144937238D01*
X149829762Y-144840476D01*
X149829762Y-144671143D01*
X149853952Y-144574381D01*
X149902333Y-144526000D01*
X149950714Y-144501810D01*
X150386142Y-144501810D02*
X150386142Y-144913048D01*
X150410333Y-144961429D01*
X150434523Y-144985619D01*
X150482904Y-145009810D01*
X150579666Y-145009810D01*
X150628047Y-144985619D01*
X150652238Y-144961429D01*
X150676428Y-144913048D01*
X150676428Y-144501810D01*
X150845761Y-144501810D02*
X151136047Y-144501810D01*
X150990904Y-145009810D02*
X150990904Y-144501810D01*
X151668238Y-144477619D02*
X151232809Y-145130762D01*
X151813380Y-144864667D02*
X152055285Y-144864667D01*
X151764999Y-145009810D02*
X151934332Y-144501810D01*
X152103666Y-145009810D01*
X152539095Y-145009810D02*
X152248809Y-145009810D01*
X152393952Y-145009810D02*
X152393952Y-144501810D01*
X152345571Y-144574381D01*
X152297190Y-144622762D01*
X152248809Y-144646952D01*
D12*
X152146000Y-146812000D02*
X151130000Y-146812000D01*
D11*
X149321762Y-147525619D02*
X149394333Y-147549810D01*
X149515286Y-147549810D01*
X149563667Y-147525619D01*
X149587857Y-147501429D01*
X149612048Y-147453048D01*
X149612048Y-147404667D01*
X149587857Y-147356286D01*
X149563667Y-147332095D01*
X149515286Y-147307905D01*
X149418524Y-147283714D01*
X149370143Y-147259524D01*
X149345952Y-147235333D01*
X149321762Y-147186952D01*
X149321762Y-147138571D01*
X149345952Y-147090190D01*
X149370143Y-147066000D01*
X149418524Y-147041810D01*
X149539476Y-147041810D01*
X149612048Y-147066000D01*
X149829762Y-147549810D02*
X149829762Y-147041810D01*
X150023286Y-147041810D01*
X150071667Y-147066000D01*
X150095858Y-147090190D01*
X150120048Y-147138571D01*
X150120048Y-147211143D01*
X150095858Y-147259524D01*
X150071667Y-147283714D01*
X150023286Y-147307905D01*
X149829762Y-147307905D01*
X150337762Y-147549810D02*
X150337762Y-147041810D01*
X150942525Y-147017619D02*
X150507096Y-147670762D01*
X151111857Y-147549810D02*
X151111857Y-147041810D01*
X151329572Y-147090190D02*
X151353762Y-147066000D01*
X151402143Y-147041810D01*
X151523096Y-147041810D01*
X151571477Y-147066000D01*
X151595667Y-147090190D01*
X151619858Y-147138571D01*
X151619858Y-147186952D01*
X151595667Y-147259524D01*
X151305381Y-147549810D01*
X151619858Y-147549810D01*
X152127858Y-147501429D02*
X152103668Y-147525619D01*
X152031096Y-147549810D01*
X151982715Y-147549810D01*
X151910144Y-147525619D01*
X151861763Y-147477238D01*
X151837572Y-147428857D01*
X151813382Y-147332095D01*
X151813382Y-147259524D01*
X151837572Y-147162762D01*
X151861763Y-147114381D01*
X151910144Y-147066000D01*
X151982715Y-147041810D01*
X152031096Y-147041810D01*
X152103668Y-147066000D01*
X152127858Y-147090190D01*
X154825094Y-147041810D02*
X154873475Y-147041810D01*
X154921856Y-147066000D01*
X154946047Y-147090190D01*
X154970237Y-147138571D01*
X154994428Y-147235333D01*
X154994428Y-147356286D01*
X154970237Y-147453048D01*
X154946047Y-147501429D01*
X154921856Y-147525619D01*
X154873475Y-147549810D01*
X154825094Y-147549810D01*
X154776713Y-147525619D01*
X154752523Y-147501429D01*
X154728332Y-147453048D01*
X154704142Y-147356286D01*
X154704142Y-147235333D01*
X154728332Y-147138571D01*
X154752523Y-147090190D01*
X154776713Y-147066000D01*
X154825094Y-147041810D01*
X155478238Y-147549810D02*
X155187952Y-147549810D01*
X155333095Y-147549810D02*
X155333095Y-147041810D01*
X155284714Y-147114381D01*
X155236333Y-147162762D01*
X155187952Y-147186952D01*
X154825094Y-144501810D02*
X154873475Y-144501810D01*
X154921856Y-144526000D01*
X154946047Y-144550190D01*
X154970237Y-144598571D01*
X154994428Y-144695333D01*
X154994428Y-144816286D01*
X154970237Y-144913048D01*
X154946047Y-144961429D01*
X154921856Y-144985619D01*
X154873475Y-145009810D01*
X154825094Y-145009810D01*
X154776713Y-144985619D01*
X154752523Y-144961429D01*
X154728332Y-144913048D01*
X154704142Y-144816286D01*
X154704142Y-144695333D01*
X154728332Y-144598571D01*
X154752523Y-144550190D01*
X154776713Y-144526000D01*
X154825094Y-144501810D01*
X155187952Y-144550190D02*
X155212142Y-144526000D01*
X155260523Y-144501810D01*
X155381476Y-144501810D01*
X155429857Y-144526000D01*
X155454047Y-144550190D01*
X155478238Y-144598571D01*
X155478238Y-144646952D01*
X155454047Y-144719524D01*
X155163761Y-145009810D01*
X155478238Y-145009810D01*
X154825094Y-141961810D02*
X154873475Y-141961810D01*
X154921856Y-141986000D01*
X154946047Y-142010190D01*
X154970237Y-142058571D01*
X154994428Y-142155333D01*
X154994428Y-142276286D01*
X154970237Y-142373048D01*
X154946047Y-142421429D01*
X154921856Y-142445619D01*
X154873475Y-142469810D01*
X154825094Y-142469810D01*
X154776713Y-142445619D01*
X154752523Y-142421429D01*
X154728332Y-142373048D01*
X154704142Y-142276286D01*
X154704142Y-142155333D01*
X154728332Y-142058571D01*
X154752523Y-142010190D01*
X154776713Y-141986000D01*
X154825094Y-141961810D01*
X155163761Y-141961810D02*
X155478238Y-141961810D01*
X155308904Y-142155333D01*
X155381476Y-142155333D01*
X155429857Y-142179524D01*
X155454047Y-142203714D01*
X155478238Y-142252095D01*
X155478238Y-142373048D01*
X155454047Y-142421429D01*
X155429857Y-142445619D01*
X155381476Y-142469810D01*
X155236333Y-142469810D01*
X155187952Y-142445619D01*
X155163761Y-142421429D01*
X154825094Y-139421810D02*
X154873475Y-139421810D01*
X154921856Y-139446000D01*
X154946047Y-139470190D01*
X154970237Y-139518571D01*
X154994428Y-139615333D01*
X154994428Y-139736286D01*
X154970237Y-139833048D01*
X154946047Y-139881429D01*
X154921856Y-139905619D01*
X154873475Y-139929810D01*
X154825094Y-139929810D01*
X154776713Y-139905619D01*
X154752523Y-139881429D01*
X154728332Y-139833048D01*
X154704142Y-139736286D01*
X154704142Y-139615333D01*
X154728332Y-139518571D01*
X154752523Y-139470190D01*
X154776713Y-139446000D01*
X154825094Y-139421810D01*
X155429857Y-139591143D02*
X155429857Y-139929810D01*
X155308904Y-139397619D02*
X155187952Y-139760476D01*
X155502428Y-139760476D01*
X154825094Y-136881810D02*
X154873475Y-136881810D01*
X154921856Y-136906000D01*
X154946047Y-136930190D01*
X154970237Y-136978571D01*
X154994428Y-137075333D01*
X154994428Y-137196286D01*
X154970237Y-137293048D01*
X154946047Y-137341429D01*
X154921856Y-137365619D01*
X154873475Y-137389810D01*
X154825094Y-137389810D01*
X154776713Y-137365619D01*
X154752523Y-137341429D01*
X154728332Y-137293048D01*
X154704142Y-137196286D01*
X154704142Y-137075333D01*
X154728332Y-136978571D01*
X154752523Y-136930190D01*
X154776713Y-136906000D01*
X154825094Y-136881810D01*
X155454047Y-136881810D02*
X155212142Y-136881810D01*
X155187952Y-137123714D01*
X155212142Y-137099524D01*
X155260523Y-137075333D01*
X155381476Y-137075333D01*
X155429857Y-137099524D01*
X155454047Y-137123714D01*
X155478238Y-137172095D01*
X155478238Y-137293048D01*
X155454047Y-137341429D01*
X155429857Y-137365619D01*
X155381476Y-137389810D01*
X155260523Y-137389810D01*
X155212142Y-137365619D01*
X155187952Y-137341429D01*
X154825094Y-134341810D02*
X154873475Y-134341810D01*
X154921856Y-134366000D01*
X154946047Y-134390190D01*
X154970237Y-134438571D01*
X154994428Y-134535333D01*
X154994428Y-134656286D01*
X154970237Y-134753048D01*
X154946047Y-134801429D01*
X154921856Y-134825619D01*
X154873475Y-134849810D01*
X154825094Y-134849810D01*
X154776713Y-134825619D01*
X154752523Y-134801429D01*
X154728332Y-134753048D01*
X154704142Y-134656286D01*
X154704142Y-134535333D01*
X154728332Y-134438571D01*
X154752523Y-134390190D01*
X154776713Y-134366000D01*
X154825094Y-134341810D01*
X155429857Y-134341810D02*
X155333095Y-134341810D01*
X155284714Y-134366000D01*
X155260523Y-134390190D01*
X155212142Y-134462762D01*
X155187952Y-134559524D01*
X155187952Y-134753048D01*
X155212142Y-134801429D01*
X155236333Y-134825619D01*
X155284714Y-134849810D01*
X155381476Y-134849810D01*
X155429857Y-134825619D01*
X155454047Y-134801429D01*
X155478238Y-134753048D01*
X155478238Y-134632095D01*
X155454047Y-134583714D01*
X155429857Y-134559524D01*
X155381476Y-134535333D01*
X155284714Y-134535333D01*
X155236333Y-134559524D01*
X155212142Y-134583714D01*
X155187952Y-134632095D01*
X154825094Y-131801810D02*
X154873475Y-131801810D01*
X154921856Y-131826000D01*
X154946047Y-131850190D01*
X154970237Y-131898571D01*
X154994428Y-131995333D01*
X154994428Y-132116286D01*
X154970237Y-132213048D01*
X154946047Y-132261429D01*
X154921856Y-132285619D01*
X154873475Y-132309810D01*
X154825094Y-132309810D01*
X154776713Y-132285619D01*
X154752523Y-132261429D01*
X154728332Y-132213048D01*
X154704142Y-132116286D01*
X154704142Y-131995333D01*
X154728332Y-131898571D01*
X154752523Y-131850190D01*
X154776713Y-131826000D01*
X154825094Y-131801810D01*
X155163761Y-131801810D02*
X155502428Y-131801810D01*
X155284714Y-132309810D01*
X154825094Y-129261810D02*
X154873475Y-129261810D01*
X154921856Y-129286000D01*
X154946047Y-129310190D01*
X154970237Y-129358571D01*
X154994428Y-129455333D01*
X154994428Y-129576286D01*
X154970237Y-129673048D01*
X154946047Y-129721429D01*
X154921856Y-129745619D01*
X154873475Y-129769810D01*
X154825094Y-129769810D01*
X154776713Y-129745619D01*
X154752523Y-129721429D01*
X154728332Y-129673048D01*
X154704142Y-129576286D01*
X154704142Y-129455333D01*
X154728332Y-129358571D01*
X154752523Y-129310190D01*
X154776713Y-129286000D01*
X154825094Y-129261810D01*
X155284714Y-129479524D02*
X155236333Y-129455333D01*
X155212142Y-129431143D01*
X155187952Y-129382762D01*
X155187952Y-129358571D01*
X155212142Y-129310190D01*
X155236333Y-129286000D01*
X155284714Y-129261810D01*
X155381476Y-129261810D01*
X155429857Y-129286000D01*
X155454047Y-129310190D01*
X155478238Y-129358571D01*
X155478238Y-129382762D01*
X155454047Y-129431143D01*
X155429857Y-129455333D01*
X155381476Y-129479524D01*
X155284714Y-129479524D01*
X155236333Y-129503714D01*
X155212142Y-129527905D01*
X155187952Y-129576286D01*
X155187952Y-129673048D01*
X155212142Y-129721429D01*
X155236333Y-129745619D01*
X155284714Y-129769810D01*
X155381476Y-129769810D01*
X155429857Y-129745619D01*
X155454047Y-129721429D01*
X155478238Y-129673048D01*
X155478238Y-129576286D01*
X155454047Y-129527905D01*
X155429857Y-129503714D01*
X155381476Y-129479524D01*
X155236333Y-127084667D02*
X155478238Y-127084667D01*
X155187952Y-127229810D02*
X155357285Y-126721810D01*
X155526619Y-127229810D01*
X155357286Y-124423714D02*
X155429857Y-124447905D01*
X155454048Y-124472095D01*
X155478238Y-124520476D01*
X155478238Y-124593048D01*
X155454048Y-124641429D01*
X155429857Y-124665619D01*
X155381476Y-124689810D01*
X155187952Y-124689810D01*
X155187952Y-124181810D01*
X155357286Y-124181810D01*
X155405667Y-124206000D01*
X155429857Y-124230190D01*
X155454048Y-124278571D01*
X155454048Y-124326952D01*
X155429857Y-124375333D01*
X155405667Y-124399524D01*
X155357286Y-124423714D01*
X155187952Y-124423714D01*
X154994428Y-122149810D02*
X154704142Y-122149810D01*
X154849285Y-122149810D02*
X154849285Y-121641810D01*
X154800904Y-121714381D01*
X154752523Y-121762762D01*
X154704142Y-121786952D01*
X155429857Y-121641810D02*
X155333095Y-121641810D01*
X155284714Y-121666000D01*
X155260523Y-121690190D01*
X155212142Y-121762762D01*
X155187952Y-121859524D01*
X155187952Y-122053048D01*
X155212142Y-122101429D01*
X155236333Y-122125619D01*
X155284714Y-122149810D01*
X155381476Y-122149810D01*
X155429857Y-122125619D01*
X155454047Y-122101429D01*
X155478238Y-122053048D01*
X155478238Y-121932095D01*
X155454047Y-121883714D01*
X155429857Y-121859524D01*
X155381476Y-121835333D01*
X155284714Y-121835333D01*
X155236333Y-121859524D01*
X155212142Y-121883714D01*
X155187952Y-121932095D01*
X154994428Y-119609810D02*
X154704142Y-119609810D01*
X154849285Y-119609810D02*
X154849285Y-119101810D01*
X154800904Y-119174381D01*
X154752523Y-119222762D01*
X154704142Y-119246952D01*
X155454047Y-119101810D02*
X155212142Y-119101810D01*
X155187952Y-119343714D01*
X155212142Y-119319524D01*
X155260523Y-119295333D01*
X155381476Y-119295333D01*
X155429857Y-119319524D01*
X155454047Y-119343714D01*
X155478238Y-119392095D01*
X155478238Y-119513048D01*
X155454047Y-119561429D01*
X155429857Y-119585619D01*
X155381476Y-119609810D01*
X155260523Y-119609810D01*
X155212142Y-119585619D01*
X155187952Y-119561429D01*
X154994428Y-117069810D02*
X154704142Y-117069810D01*
X154849285Y-117069810D02*
X154849285Y-116561810D01*
X154800904Y-116634381D01*
X154752523Y-116682762D01*
X154704142Y-116706952D01*
X155429857Y-116731143D02*
X155429857Y-117069810D01*
X155308904Y-116537619D02*
X155187952Y-116900476D01*
X155502428Y-116900476D01*
X154994428Y-114529810D02*
X154704142Y-114529810D01*
X154849285Y-114529810D02*
X154849285Y-114021810D01*
X154800904Y-114094381D01*
X154752523Y-114142762D01*
X154704142Y-114166952D01*
X155163761Y-114021810D02*
X155478238Y-114021810D01*
X155308904Y-114215333D01*
X155381476Y-114215333D01*
X155429857Y-114239524D01*
X155454047Y-114263714D01*
X155478238Y-114312095D01*
X155478238Y-114433048D01*
X155454047Y-114481429D01*
X155429857Y-114505619D01*
X155381476Y-114529810D01*
X155236333Y-114529810D01*
X155187952Y-114505619D01*
X155163761Y-114481429D01*
X154994428Y-111989810D02*
X154704142Y-111989810D01*
X154849285Y-111989810D02*
X154849285Y-111481810D01*
X154800904Y-111554381D01*
X154752523Y-111602762D01*
X154704142Y-111626952D01*
X155187952Y-111530190D02*
X155212142Y-111506000D01*
X155260523Y-111481810D01*
X155381476Y-111481810D01*
X155429857Y-111506000D01*
X155454047Y-111530190D01*
X155478238Y-111578571D01*
X155478238Y-111626952D01*
X155454047Y-111699524D01*
X155163761Y-111989810D01*
X155478238Y-111989810D01*
X154994428Y-109449810D02*
X154704142Y-109449810D01*
X154849285Y-109449810D02*
X154849285Y-108941810D01*
X154800904Y-109014381D01*
X154752523Y-109062762D01*
X154704142Y-109086952D01*
X155478238Y-109449810D02*
X155187952Y-109449810D01*
X155333095Y-109449810D02*
X155333095Y-108941810D01*
X155284714Y-109014381D01*
X155236333Y-109062762D01*
X155187952Y-109086952D01*
X154994428Y-106909810D02*
X154704142Y-106909810D01*
X154849285Y-106909810D02*
X154849285Y-106401810D01*
X154800904Y-106474381D01*
X154752523Y-106522762D01*
X154704142Y-106546952D01*
X155308904Y-106401810D02*
X155357285Y-106401810D01*
X155405666Y-106426000D01*
X155429857Y-106450190D01*
X155454047Y-106498571D01*
X155478238Y-106595333D01*
X155478238Y-106716286D01*
X155454047Y-106813048D01*
X155429857Y-106861429D01*
X155405666Y-106885619D01*
X155357285Y-106909810D01*
X155308904Y-106909810D01*
X155260523Y-106885619D01*
X155236333Y-106861429D01*
X155212142Y-106813048D01*
X155187952Y-106716286D01*
X155187952Y-106595333D01*
X155212142Y-106498571D01*
X155236333Y-106450190D01*
X155260523Y-106426000D01*
X155308904Y-106401810D01*
X154825094Y-103861810D02*
X154873475Y-103861810D01*
X154921856Y-103886000D01*
X154946047Y-103910190D01*
X154970237Y-103958571D01*
X154994428Y-104055333D01*
X154994428Y-104176286D01*
X154970237Y-104273048D01*
X154946047Y-104321429D01*
X154921856Y-104345619D01*
X154873475Y-104369810D01*
X154825094Y-104369810D01*
X154776713Y-104345619D01*
X154752523Y-104321429D01*
X154728332Y-104273048D01*
X154704142Y-104176286D01*
X154704142Y-104055333D01*
X154728332Y-103958571D01*
X154752523Y-103910190D01*
X154776713Y-103886000D01*
X154825094Y-103861810D01*
X155236333Y-104369810D02*
X155333095Y-104369810D01*
X155381476Y-104345619D01*
X155405666Y-104321429D01*
X155454047Y-104248857D01*
X155478238Y-104152095D01*
X155478238Y-103958571D01*
X155454047Y-103910190D01*
X155429857Y-103886000D01*
X155381476Y-103861810D01*
X155284714Y-103861810D01*
X155236333Y-103886000D01*
X155212142Y-103910190D01*
X155187952Y-103958571D01*
X155187952Y-104079524D01*
X155212142Y-104127905D01*
X155236333Y-104152095D01*
X155284714Y-104176286D01*
X155381476Y-104176286D01*
X155429857Y-104152095D01*
X155454047Y-104127905D01*
X155478238Y-104079524D01*
X149739048Y-107925810D02*
X149448762Y-107925810D01*
X149593905Y-107925810D02*
X149593905Y-107417810D01*
X149545524Y-107490381D01*
X149497143Y-107538762D01*
X149448762Y-107562952D01*
X149956762Y-107877429D02*
X149980953Y-107901619D01*
X149956762Y-107925810D01*
X149932572Y-107901619D01*
X149956762Y-107877429D01*
X149956762Y-107925810D01*
X150416382Y-107417810D02*
X150319620Y-107417810D01*
X150271239Y-107442000D01*
X150247048Y-107466190D01*
X150198667Y-107538762D01*
X150174477Y-107635524D01*
X150174477Y-107829048D01*
X150198667Y-107877429D01*
X150222858Y-107901619D01*
X150271239Y-107925810D01*
X150368001Y-107925810D01*
X150416382Y-107901619D01*
X150440572Y-107877429D01*
X150464763Y-107829048D01*
X150464763Y-107708095D01*
X150440572Y-107659714D01*
X150416382Y-107635524D01*
X150368001Y-107611333D01*
X150271239Y-107611333D01*
X150222858Y-107635524D01*
X150198667Y-107659714D01*
X150174477Y-107708095D01*
X150682477Y-107732286D02*
X151069525Y-107732286D01*
X151553334Y-107417810D02*
X151311429Y-107417810D01*
X151287239Y-107659714D01*
X151311429Y-107635524D01*
X151359810Y-107611333D01*
X151480763Y-107611333D01*
X151529144Y-107635524D01*
X151553334Y-107659714D01*
X151577525Y-107708095D01*
X151577525Y-107829048D01*
X151553334Y-107877429D01*
X151529144Y-107901619D01*
X151480763Y-107925810D01*
X151359810Y-107925810D01*
X151311429Y-107901619D01*
X151287239Y-107877429D01*
X151795239Y-107877429D02*
X151819430Y-107901619D01*
X151795239Y-107925810D01*
X151771049Y-107901619D01*
X151795239Y-107877429D01*
X151795239Y-107925810D01*
X152279049Y-107417810D02*
X152037144Y-107417810D01*
X152012954Y-107659714D01*
X152037144Y-107635524D01*
X152085525Y-107611333D01*
X152206478Y-107611333D01*
X152254859Y-107635524D01*
X152279049Y-107659714D01*
X152303240Y-107708095D01*
X152303240Y-107829048D01*
X152279049Y-107877429D01*
X152254859Y-107901619D01*
X152206478Y-107925810D01*
X152085525Y-107925810D01*
X152037144Y-107901619D01*
X152012954Y-107877429D01*
X152472573Y-107587143D02*
X152593526Y-107925810D01*
X152714478Y-107587143D01*
D13*
X149805571Y-103759000D02*
X149733000Y-103722714D01*
X149624143Y-103722714D01*
X149515286Y-103759000D01*
X149442714Y-103831571D01*
X149406429Y-103904143D01*
X149370143Y-104049286D01*
X149370143Y-104158143D01*
X149406429Y-104303286D01*
X149442714Y-104375857D01*
X149515286Y-104448429D01*
X149624143Y-104484714D01*
X149696714Y-104484714D01*
X149805571Y-104448429D01*
X149841857Y-104412143D01*
X149841857Y-104158143D01*
X149696714Y-104158143D01*
X150168429Y-104484714D02*
X150168429Y-103722714D01*
X150603857Y-104484714D01*
X150603857Y-103722714D01*
X150966715Y-104484714D02*
X150966715Y-103722714D01*
X151148143Y-103722714D01*
X151257000Y-103759000D01*
X151329572Y-103831571D01*
X151365857Y-103904143D01*
X151402143Y-104049286D01*
X151402143Y-104158143D01*
X151365857Y-104303286D01*
X151329572Y-104375857D01*
X151257000Y-104448429D01*
X151148143Y-104484714D01*
X150966715Y-104484714D01*
X149297571Y-106262714D02*
X149551571Y-107024714D01*
X149805571Y-106262714D01*
X150495000Y-106952143D02*
X150458714Y-106988429D01*
X150349857Y-107024714D01*
X150277286Y-107024714D01*
X150168429Y-106988429D01*
X150095857Y-106915857D01*
X150059572Y-106843286D01*
X150023286Y-106698143D01*
X150023286Y-106589286D01*
X150059572Y-106444143D01*
X150095857Y-106371571D01*
X150168429Y-106299000D01*
X150277286Y-106262714D01*
X150349857Y-106262714D01*
X150458714Y-106299000D01*
X150495000Y-106335286D01*
X151257000Y-106952143D02*
X151220714Y-106988429D01*
X151111857Y-107024714D01*
X151039286Y-107024714D01*
X150930429Y-106988429D01*
X150857857Y-106915857D01*
X150821572Y-106843286D01*
X150785286Y-106698143D01*
X150785286Y-106589286D01*
X150821572Y-106444143D01*
X150857857Y-106371571D01*
X150930429Y-106299000D01*
X151039286Y-106262714D01*
X151111857Y-106262714D01*
X151220714Y-106299000D01*
X151257000Y-106335286D01*
D14*
X147280000Y-120050000D02*
X147280000Y-119050000D01*
X148630000Y-119050000D02*
X148630000Y-120050000D01*
X150281000Y-119050000D02*
X150281000Y-120050000D01*
X148931000Y-120050000D02*
X148931000Y-119050000D01*
X150250000Y-123580000D02*
X150875000Y-123580000D01*
X154550000Y-127880000D02*
X153925000Y-127880000D01*
X154550000Y-123580000D02*
X153925000Y-123580000D01*
X150250000Y-127880000D02*
X150250000Y-127255000D01*
X154550000Y-127880000D02*
X154550000Y-127255000D01*
X154550000Y-123580000D02*
X154550000Y-124205000D01*
X150250000Y-123580000D02*
X150250000Y-124205000D01*
X148496000Y-125734000D02*
X148496000Y-126234000D01*
X149446000Y-126234000D02*
X149446000Y-125734000D01*
X150372000Y-129303000D02*
X150872000Y-129303000D01*
X150872000Y-128253000D02*
X150372000Y-128253000D01*
M02*
