G04 #@! TF.FileFunction,Legend,Bot*
%FSLAX46Y46*%
G04 Gerber Fmt 4.6, Leading zero omitted, Abs format (unit mm)*
G04 Created by KiCad (PCBNEW 4.0.1-stable) date Thursday, March 10, 2016 'AMt' 12:00:46 AM*
%MOMM*%
G01*
G04 APERTURE LIST*
%ADD10C,0.100000*%
%ADD11C,0.190500*%
%ADD12C,0.150000*%
G04 APERTURE END LIST*
D10*
D11*
X153198285Y-108258429D02*
X152617714Y-108258429D01*
X152908000Y-108548714D02*
X152908000Y-107968143D01*
X151293286Y-106516714D02*
X151728714Y-106516714D01*
X151511000Y-106516714D02*
X151511000Y-105754714D01*
X151583571Y-105863571D01*
X151656143Y-105936143D01*
X151728714Y-105972429D01*
X150821572Y-105754714D02*
X150749000Y-105754714D01*
X150676429Y-105791000D01*
X150640143Y-105827286D01*
X150603857Y-105899857D01*
X150567572Y-106045000D01*
X150567572Y-106226429D01*
X150603857Y-106371571D01*
X150640143Y-106444143D01*
X150676429Y-106480429D01*
X150749000Y-106516714D01*
X150821572Y-106516714D01*
X150894143Y-106480429D01*
X150930429Y-106444143D01*
X150966714Y-106371571D01*
X151003000Y-106226429D01*
X151003000Y-106045000D01*
X150966714Y-105899857D01*
X150930429Y-105827286D01*
X150894143Y-105791000D01*
X150821572Y-105754714D01*
X150241000Y-106008714D02*
X150241000Y-106770714D01*
X149878143Y-106407857D02*
X149841858Y-106480429D01*
X149769286Y-106516714D01*
X150241000Y-106407857D02*
X150204715Y-106480429D01*
X150132143Y-106516714D01*
X149987000Y-106516714D01*
X149914429Y-106480429D01*
X149878143Y-106407857D01*
X149878143Y-106008714D01*
X151329571Y-132551714D02*
X151583571Y-132188857D01*
X151764999Y-132551714D02*
X151764999Y-131789714D01*
X151474714Y-131789714D01*
X151402142Y-131826000D01*
X151365857Y-131862286D01*
X151329571Y-131934857D01*
X151329571Y-132043714D01*
X151365857Y-132116286D01*
X151402142Y-132152571D01*
X151474714Y-132188857D01*
X151764999Y-132188857D01*
X150857857Y-131789714D02*
X150785285Y-131789714D01*
X150712714Y-131826000D01*
X150676428Y-131862286D01*
X150640142Y-131934857D01*
X150603857Y-132080000D01*
X150603857Y-132261429D01*
X150640142Y-132406571D01*
X150676428Y-132479143D01*
X150712714Y-132515429D01*
X150785285Y-132551714D01*
X150857857Y-132551714D01*
X150930428Y-132515429D01*
X150966714Y-132479143D01*
X151002999Y-132406571D01*
X151039285Y-132261429D01*
X151039285Y-132080000D01*
X151002999Y-131934857D01*
X150966714Y-131862286D01*
X150930428Y-131826000D01*
X150857857Y-131789714D01*
X149696714Y-132152571D02*
X149116143Y-132152571D01*
X149116143Y-132370286D02*
X149696714Y-132370286D01*
X148209000Y-132515429D02*
X148100143Y-132551714D01*
X147918714Y-132551714D01*
X147846143Y-132515429D01*
X147809857Y-132479143D01*
X147773572Y-132406571D01*
X147773572Y-132334000D01*
X147809857Y-132261429D01*
X147846143Y-132225143D01*
X147918714Y-132188857D01*
X148063857Y-132152571D01*
X148136429Y-132116286D01*
X148172714Y-132080000D01*
X148209000Y-132007429D01*
X148209000Y-131934857D01*
X148172714Y-131862286D01*
X148136429Y-131826000D01*
X148063857Y-131789714D01*
X147882429Y-131789714D01*
X147773572Y-131826000D01*
X147447000Y-132551714D02*
X147447000Y-131789714D01*
X147156715Y-131789714D01*
X147084143Y-131826000D01*
X147047858Y-131862286D01*
X147011572Y-131934857D01*
X147011572Y-132043714D01*
X147047858Y-132116286D01*
X147084143Y-132152571D01*
X147156715Y-132188857D01*
X147447000Y-132188857D01*
X146685000Y-132551714D02*
X146685000Y-131789714D01*
X152454429Y-142584715D02*
X152454429Y-143165286D01*
X152454429Y-133059715D02*
X152454429Y-133640286D01*
X152744714Y-133350000D02*
X152164143Y-133350000D01*
X150622000Y-137758715D02*
X150622000Y-138121572D01*
X150839714Y-137686143D02*
X150077714Y-137940143D01*
X150839714Y-138194143D01*
X150077714Y-138593286D02*
X150077714Y-138665858D01*
X150114000Y-138738429D01*
X150150286Y-138774715D01*
X150222857Y-138811001D01*
X150368000Y-138847286D01*
X150549429Y-138847286D01*
X150694571Y-138811001D01*
X150767143Y-138774715D01*
X150803429Y-138738429D01*
X150839714Y-138665858D01*
X150839714Y-138593286D01*
X150803429Y-138520715D01*
X150767143Y-138484429D01*
X150694571Y-138448144D01*
X150549429Y-138411858D01*
X150368000Y-138411858D01*
X150222857Y-138448144D01*
X150150286Y-138484429D01*
X150114000Y-138520715D01*
X150077714Y-138593286D01*
X154432000Y-137758715D02*
X154432000Y-138121572D01*
X154649714Y-137686143D02*
X153887714Y-137940143D01*
X154649714Y-138194143D01*
X154649714Y-138847286D02*
X154649714Y-138411858D01*
X154649714Y-138629572D02*
X153887714Y-138629572D01*
X153996571Y-138557001D01*
X154069143Y-138484429D01*
X154105429Y-138411858D01*
D12*
X152224000Y-105299000D02*
X152224000Y-107299000D01*
X149274000Y-107299000D02*
X149274000Y-105299000D01*
X148590000Y-105410000D02*
X148590000Y-102870000D01*
X148870000Y-108230000D02*
X148870000Y-106680000D01*
X148590000Y-105410000D02*
X146050000Y-105410000D01*
X145770000Y-106680000D02*
X145770000Y-108230000D01*
X145770000Y-108230000D02*
X148870000Y-108230000D01*
X146050000Y-105410000D02*
X146050000Y-102870000D01*
X146050000Y-102870000D02*
X148590000Y-102870000D01*
X146177000Y-135890000D02*
X146177000Y-148590000D01*
X146177000Y-148590000D02*
X148717000Y-148590000D01*
X148717000Y-148590000D02*
X148717000Y-135890000D01*
X145897000Y-133070000D02*
X145897000Y-134620000D01*
X146177000Y-135890000D02*
X148717000Y-135890000D01*
X148997000Y-134620000D02*
X148997000Y-133070000D01*
X148997000Y-133070000D02*
X145897000Y-133070000D01*
X158750000Y-125730000D02*
X158750000Y-123190000D01*
X159030000Y-128550000D02*
X159030000Y-127000000D01*
X158750000Y-125730000D02*
X156210000Y-125730000D01*
X155930000Y-127000000D02*
X155930000Y-128550000D01*
X155930000Y-128550000D02*
X159030000Y-128550000D01*
X156210000Y-125730000D02*
X156210000Y-123190000D01*
X156210000Y-123190000D02*
X158750000Y-123190000D01*
X149090000Y-130135000D02*
X148090000Y-130135000D01*
X148090000Y-131485000D02*
X149090000Y-131485000D01*
X152313000Y-136433000D02*
X152313000Y-135433000D01*
X150963000Y-135433000D02*
X150963000Y-136433000D01*
X153964000Y-136433000D02*
X153964000Y-135433000D01*
X152614000Y-135433000D02*
X152614000Y-136433000D01*
X152313000Y-141046000D02*
X152313000Y-140046000D01*
X150963000Y-140046000D02*
X150963000Y-141046000D01*
X153964000Y-141046000D02*
X153964000Y-140046000D01*
X152614000Y-140046000D02*
X152614000Y-141046000D01*
X158750000Y-146050000D02*
X158750000Y-128270000D01*
X158750000Y-128270000D02*
X156210000Y-128270000D01*
X156210000Y-128270000D02*
X156210000Y-146050000D01*
X159030000Y-148870000D02*
X159030000Y-147320000D01*
X158750000Y-146050000D02*
X156210000Y-146050000D01*
X155930000Y-147320000D02*
X155930000Y-148870000D01*
X155930000Y-148870000D02*
X159030000Y-148870000D01*
X156210000Y-105410000D02*
X156210000Y-123190000D01*
X156210000Y-123190000D02*
X158750000Y-123190000D01*
X158750000Y-123190000D02*
X158750000Y-105410000D01*
X155930000Y-102590000D02*
X155930000Y-104140000D01*
X156210000Y-105410000D02*
X158750000Y-105410000D01*
X159030000Y-104140000D02*
X159030000Y-102590000D01*
X159030000Y-102590000D02*
X155930000Y-102590000D01*
M02*
