G04 #@! TF.FileFunction,Soldermask,Top*
%FSLAX46Y46*%
G04 Gerber Fmt 4.6, Leading zero omitted, Abs format (unit mm)*
G04 Created by KiCad (PCBNEW 4.0.1-stable) date Thursday, March 10, 2016 'AMt' 12:00:46 AM*
%MOMM*%
G01*
G04 APERTURE LIST*
%ADD10C,0.100000*%
G04 APERTURE END LIST*
D10*
G36*
X158559500Y-148247100D02*
X156400500Y-148247100D01*
X156400500Y-146392900D01*
X158559500Y-146392900D01*
X158559500Y-148247100D01*
X158559500Y-148247100D01*
G37*
G36*
X147609776Y-146392936D02*
X147617567Y-146392990D01*
X147797378Y-146413159D01*
X147969847Y-146467870D01*
X148128404Y-146555037D01*
X148267011Y-146671342D01*
X148380387Y-146812354D01*
X148464215Y-146972702D01*
X148515302Y-147146279D01*
X148515305Y-147146315D01*
X148515308Y-147146324D01*
X148531702Y-147326470D01*
X148512794Y-147506372D01*
X148512791Y-147506382D01*
X148512787Y-147506419D01*
X148459282Y-147679266D01*
X148373224Y-147838428D01*
X148257889Y-147977843D01*
X148117672Y-148092201D01*
X147957913Y-148177147D01*
X147784698Y-148229444D01*
X147604623Y-148247100D01*
X147289340Y-148247100D01*
X147284224Y-148247064D01*
X147276433Y-148247010D01*
X147096622Y-148226841D01*
X146924153Y-148172130D01*
X146765596Y-148084963D01*
X146626989Y-147968658D01*
X146513613Y-147827646D01*
X146429785Y-147667298D01*
X146378698Y-147493721D01*
X146378695Y-147493685D01*
X146378692Y-147493676D01*
X146362298Y-147313530D01*
X146381206Y-147133628D01*
X146381209Y-147133618D01*
X146381213Y-147133581D01*
X146434718Y-146960734D01*
X146520776Y-146801572D01*
X146636111Y-146662157D01*
X146776328Y-146547799D01*
X146936087Y-146462853D01*
X147109302Y-146410556D01*
X147289377Y-146392900D01*
X147604660Y-146392900D01*
X147609776Y-146392936D01*
X147609776Y-146392936D01*
G37*
G36*
X157642776Y-143852936D02*
X157650567Y-143852990D01*
X157830378Y-143873159D01*
X158002847Y-143927870D01*
X158161404Y-144015037D01*
X158300011Y-144131342D01*
X158413387Y-144272354D01*
X158497215Y-144432702D01*
X158548302Y-144606279D01*
X158548305Y-144606315D01*
X158548308Y-144606324D01*
X158564702Y-144786470D01*
X158545794Y-144966372D01*
X158545791Y-144966382D01*
X158545787Y-144966419D01*
X158492282Y-145139266D01*
X158406224Y-145298428D01*
X158290889Y-145437843D01*
X158150672Y-145552201D01*
X157990913Y-145637147D01*
X157817698Y-145689444D01*
X157637623Y-145707100D01*
X157322340Y-145707100D01*
X157317224Y-145707064D01*
X157309433Y-145707010D01*
X157129622Y-145686841D01*
X156957153Y-145632130D01*
X156798596Y-145544963D01*
X156659989Y-145428658D01*
X156546613Y-145287646D01*
X156462785Y-145127298D01*
X156411698Y-144953721D01*
X156411695Y-144953685D01*
X156411692Y-144953676D01*
X156395298Y-144773530D01*
X156414206Y-144593628D01*
X156414209Y-144593618D01*
X156414213Y-144593581D01*
X156467718Y-144420734D01*
X156553776Y-144261572D01*
X156669111Y-144122157D01*
X156809328Y-144007799D01*
X156969087Y-143922853D01*
X157142302Y-143870556D01*
X157322377Y-143852900D01*
X157637660Y-143852900D01*
X157642776Y-143852936D01*
X157642776Y-143852936D01*
G37*
G36*
X147609776Y-143852936D02*
X147617567Y-143852990D01*
X147797378Y-143873159D01*
X147969847Y-143927870D01*
X148128404Y-144015037D01*
X148267011Y-144131342D01*
X148380387Y-144272354D01*
X148464215Y-144432702D01*
X148515302Y-144606279D01*
X148515305Y-144606315D01*
X148515308Y-144606324D01*
X148531702Y-144786470D01*
X148512794Y-144966372D01*
X148512791Y-144966382D01*
X148512787Y-144966419D01*
X148459282Y-145139266D01*
X148373224Y-145298428D01*
X148257889Y-145437843D01*
X148117672Y-145552201D01*
X147957913Y-145637147D01*
X147784698Y-145689444D01*
X147604623Y-145707100D01*
X147289340Y-145707100D01*
X147284224Y-145707064D01*
X147276433Y-145707010D01*
X147096622Y-145686841D01*
X146924153Y-145632130D01*
X146765596Y-145544963D01*
X146626989Y-145428658D01*
X146513613Y-145287646D01*
X146429785Y-145127298D01*
X146378698Y-144953721D01*
X146378695Y-144953685D01*
X146378692Y-144953676D01*
X146362298Y-144773530D01*
X146381206Y-144593628D01*
X146381209Y-144593618D01*
X146381213Y-144593581D01*
X146434718Y-144420734D01*
X146520776Y-144261572D01*
X146636111Y-144122157D01*
X146776328Y-144007799D01*
X146936087Y-143922853D01*
X147109302Y-143870556D01*
X147289377Y-143852900D01*
X147604660Y-143852900D01*
X147609776Y-143852936D01*
X147609776Y-143852936D01*
G37*
G36*
X157642776Y-141312936D02*
X157650567Y-141312990D01*
X157830378Y-141333159D01*
X158002847Y-141387870D01*
X158161404Y-141475037D01*
X158300011Y-141591342D01*
X158413387Y-141732354D01*
X158497215Y-141892702D01*
X158548302Y-142066279D01*
X158548305Y-142066315D01*
X158548308Y-142066324D01*
X158564702Y-142246470D01*
X158545794Y-142426372D01*
X158545791Y-142426382D01*
X158545787Y-142426419D01*
X158492282Y-142599266D01*
X158406224Y-142758428D01*
X158290889Y-142897843D01*
X158150672Y-143012201D01*
X157990913Y-143097147D01*
X157817698Y-143149444D01*
X157637623Y-143167100D01*
X157322340Y-143167100D01*
X157317224Y-143167064D01*
X157309433Y-143167010D01*
X157129622Y-143146841D01*
X156957153Y-143092130D01*
X156798596Y-143004963D01*
X156659989Y-142888658D01*
X156546613Y-142747646D01*
X156462785Y-142587298D01*
X156411698Y-142413721D01*
X156411695Y-142413685D01*
X156411692Y-142413676D01*
X156395298Y-142233530D01*
X156414206Y-142053628D01*
X156414209Y-142053618D01*
X156414213Y-142053581D01*
X156467718Y-141880734D01*
X156553776Y-141721572D01*
X156669111Y-141582157D01*
X156809328Y-141467799D01*
X156969087Y-141382853D01*
X157142302Y-141330556D01*
X157322377Y-141312900D01*
X157637660Y-141312900D01*
X157642776Y-141312936D01*
X157642776Y-141312936D01*
G37*
G36*
X147609776Y-141312936D02*
X147617567Y-141312990D01*
X147797378Y-141333159D01*
X147969847Y-141387870D01*
X148128404Y-141475037D01*
X148267011Y-141591342D01*
X148380387Y-141732354D01*
X148464215Y-141892702D01*
X148515302Y-142066279D01*
X148515305Y-142066315D01*
X148515308Y-142066324D01*
X148531702Y-142246470D01*
X148512794Y-142426372D01*
X148512791Y-142426382D01*
X148512787Y-142426419D01*
X148459282Y-142599266D01*
X148373224Y-142758428D01*
X148257889Y-142897843D01*
X148117672Y-143012201D01*
X147957913Y-143097147D01*
X147784698Y-143149444D01*
X147604623Y-143167100D01*
X147289340Y-143167100D01*
X147284224Y-143167064D01*
X147276433Y-143167010D01*
X147096622Y-143146841D01*
X146924153Y-143092130D01*
X146765596Y-143004963D01*
X146626989Y-142888658D01*
X146513613Y-142747646D01*
X146429785Y-142587298D01*
X146378698Y-142413721D01*
X146378695Y-142413685D01*
X146378692Y-142413676D01*
X146362298Y-142233530D01*
X146381206Y-142053628D01*
X146381209Y-142053618D01*
X146381213Y-142053581D01*
X146434718Y-141880734D01*
X146520776Y-141721572D01*
X146636111Y-141582157D01*
X146776328Y-141467799D01*
X146936087Y-141382853D01*
X147109302Y-141330556D01*
X147289377Y-141312900D01*
X147604660Y-141312900D01*
X147609776Y-141312936D01*
X147609776Y-141312936D01*
G37*
G36*
X157642776Y-138772936D02*
X157650567Y-138772990D01*
X157830378Y-138793159D01*
X158002847Y-138847870D01*
X158161404Y-138935037D01*
X158300011Y-139051342D01*
X158413387Y-139192354D01*
X158497215Y-139352702D01*
X158548302Y-139526279D01*
X158548305Y-139526315D01*
X158548308Y-139526324D01*
X158564702Y-139706470D01*
X158545794Y-139886372D01*
X158545791Y-139886382D01*
X158545787Y-139886419D01*
X158492282Y-140059266D01*
X158406224Y-140218428D01*
X158290889Y-140357843D01*
X158150672Y-140472201D01*
X157990913Y-140557147D01*
X157817698Y-140609444D01*
X157637623Y-140627100D01*
X157322340Y-140627100D01*
X157317224Y-140627064D01*
X157309433Y-140627010D01*
X157129622Y-140606841D01*
X156957153Y-140552130D01*
X156798596Y-140464963D01*
X156659989Y-140348658D01*
X156546613Y-140207646D01*
X156462785Y-140047298D01*
X156411698Y-139873721D01*
X156411695Y-139873685D01*
X156411692Y-139873676D01*
X156395298Y-139693530D01*
X156414206Y-139513628D01*
X156414209Y-139513618D01*
X156414213Y-139513581D01*
X156467718Y-139340734D01*
X156553776Y-139181572D01*
X156669111Y-139042157D01*
X156809328Y-138927799D01*
X156969087Y-138842853D01*
X157142302Y-138790556D01*
X157322377Y-138772900D01*
X157637660Y-138772900D01*
X157642776Y-138772936D01*
X157642776Y-138772936D01*
G37*
G36*
X147609776Y-138772936D02*
X147617567Y-138772990D01*
X147797378Y-138793159D01*
X147969847Y-138847870D01*
X148128404Y-138935037D01*
X148267011Y-139051342D01*
X148380387Y-139192354D01*
X148464215Y-139352702D01*
X148515302Y-139526279D01*
X148515305Y-139526315D01*
X148515308Y-139526324D01*
X148531702Y-139706470D01*
X148512794Y-139886372D01*
X148512791Y-139886382D01*
X148512787Y-139886419D01*
X148459282Y-140059266D01*
X148373224Y-140218428D01*
X148257889Y-140357843D01*
X148117672Y-140472201D01*
X147957913Y-140557147D01*
X147784698Y-140609444D01*
X147604623Y-140627100D01*
X147289340Y-140627100D01*
X147284224Y-140627064D01*
X147276433Y-140627010D01*
X147096622Y-140606841D01*
X146924153Y-140552130D01*
X146765596Y-140464963D01*
X146626989Y-140348658D01*
X146513613Y-140207646D01*
X146429785Y-140047298D01*
X146378698Y-139873721D01*
X146378695Y-139873685D01*
X146378692Y-139873676D01*
X146362298Y-139693530D01*
X146381206Y-139513628D01*
X146381209Y-139513618D01*
X146381213Y-139513581D01*
X146434718Y-139340734D01*
X146520776Y-139181572D01*
X146636111Y-139042157D01*
X146776328Y-138927799D01*
X146936087Y-138842853D01*
X147109302Y-138790556D01*
X147289377Y-138772900D01*
X147604660Y-138772900D01*
X147609776Y-138772936D01*
X147609776Y-138772936D01*
G37*
G36*
X157642776Y-136232936D02*
X157650567Y-136232990D01*
X157830378Y-136253159D01*
X158002847Y-136307870D01*
X158161404Y-136395037D01*
X158300011Y-136511342D01*
X158413387Y-136652354D01*
X158497215Y-136812702D01*
X158548302Y-136986279D01*
X158548305Y-136986315D01*
X158548308Y-136986324D01*
X158564702Y-137166470D01*
X158545794Y-137346372D01*
X158545791Y-137346382D01*
X158545787Y-137346419D01*
X158492282Y-137519266D01*
X158406224Y-137678428D01*
X158290889Y-137817843D01*
X158150672Y-137932201D01*
X157990913Y-138017147D01*
X157817698Y-138069444D01*
X157637623Y-138087100D01*
X157322340Y-138087100D01*
X157317224Y-138087064D01*
X157309433Y-138087010D01*
X157129622Y-138066841D01*
X156957153Y-138012130D01*
X156798596Y-137924963D01*
X156659989Y-137808658D01*
X156546613Y-137667646D01*
X156462785Y-137507298D01*
X156411698Y-137333721D01*
X156411695Y-137333685D01*
X156411692Y-137333676D01*
X156395298Y-137153530D01*
X156414206Y-136973628D01*
X156414209Y-136973618D01*
X156414213Y-136973581D01*
X156467718Y-136800734D01*
X156553776Y-136641572D01*
X156669111Y-136502157D01*
X156809328Y-136387799D01*
X156969087Y-136302853D01*
X157142302Y-136250556D01*
X157322377Y-136232900D01*
X157637660Y-136232900D01*
X157642776Y-136232936D01*
X157642776Y-136232936D01*
G37*
G36*
X147609776Y-136232936D02*
X147617567Y-136232990D01*
X147797378Y-136253159D01*
X147969847Y-136307870D01*
X148128404Y-136395037D01*
X148267011Y-136511342D01*
X148380387Y-136652354D01*
X148464215Y-136812702D01*
X148515302Y-136986279D01*
X148515305Y-136986315D01*
X148515308Y-136986324D01*
X148531702Y-137166470D01*
X148512794Y-137346372D01*
X148512791Y-137346382D01*
X148512787Y-137346419D01*
X148459282Y-137519266D01*
X148373224Y-137678428D01*
X148257889Y-137817843D01*
X148117672Y-137932201D01*
X147957913Y-138017147D01*
X147784698Y-138069444D01*
X147604623Y-138087100D01*
X147289340Y-138087100D01*
X147284224Y-138087064D01*
X147276433Y-138087010D01*
X147096622Y-138066841D01*
X146924153Y-138012130D01*
X146765596Y-137924963D01*
X146626989Y-137808658D01*
X146513613Y-137667646D01*
X146429785Y-137507298D01*
X146378698Y-137333721D01*
X146378695Y-137333685D01*
X146378692Y-137333676D01*
X146362298Y-137153530D01*
X146381206Y-136973628D01*
X146381209Y-136973618D01*
X146381213Y-136973581D01*
X146434718Y-136800734D01*
X146520776Y-136641572D01*
X146636111Y-136502157D01*
X146776328Y-136387799D01*
X146936087Y-136302853D01*
X147109302Y-136250556D01*
X147289377Y-136232900D01*
X147604660Y-136232900D01*
X147609776Y-136232936D01*
X147609776Y-136232936D01*
G37*
G36*
X157642776Y-133692936D02*
X157650567Y-133692990D01*
X157830378Y-133713159D01*
X158002847Y-133767870D01*
X158161404Y-133855037D01*
X158300011Y-133971342D01*
X158413387Y-134112354D01*
X158497215Y-134272702D01*
X158548302Y-134446279D01*
X158548305Y-134446315D01*
X158548308Y-134446324D01*
X158564702Y-134626470D01*
X158545794Y-134806372D01*
X158545791Y-134806382D01*
X158545787Y-134806419D01*
X158492282Y-134979266D01*
X158406224Y-135138428D01*
X158290889Y-135277843D01*
X158150672Y-135392201D01*
X157990913Y-135477147D01*
X157817698Y-135529444D01*
X157637623Y-135547100D01*
X157322340Y-135547100D01*
X157317224Y-135547064D01*
X157309433Y-135547010D01*
X157129622Y-135526841D01*
X156957153Y-135472130D01*
X156798596Y-135384963D01*
X156659989Y-135268658D01*
X156546613Y-135127646D01*
X156462785Y-134967298D01*
X156411698Y-134793721D01*
X156411695Y-134793685D01*
X156411692Y-134793676D01*
X156395298Y-134613530D01*
X156414206Y-134433628D01*
X156414209Y-134433618D01*
X156414213Y-134433581D01*
X156467718Y-134260734D01*
X156553776Y-134101572D01*
X156669111Y-133962157D01*
X156809328Y-133847799D01*
X156969087Y-133762853D01*
X157142302Y-133710556D01*
X157322377Y-133692900D01*
X157637660Y-133692900D01*
X157642776Y-133692936D01*
X157642776Y-133692936D01*
G37*
G36*
X148526500Y-135547100D02*
X146367500Y-135547100D01*
X146367500Y-133692900D01*
X148526500Y-133692900D01*
X148526500Y-135547100D01*
X148526500Y-135547100D01*
G37*
G36*
X157642776Y-131152936D02*
X157650567Y-131152990D01*
X157830378Y-131173159D01*
X158002847Y-131227870D01*
X158161404Y-131315037D01*
X158300011Y-131431342D01*
X158413387Y-131572354D01*
X158497215Y-131732702D01*
X158548302Y-131906279D01*
X158548305Y-131906315D01*
X158548308Y-131906324D01*
X158564702Y-132086470D01*
X158545794Y-132266372D01*
X158545791Y-132266382D01*
X158545787Y-132266419D01*
X158492282Y-132439266D01*
X158406224Y-132598428D01*
X158290889Y-132737843D01*
X158150672Y-132852201D01*
X157990913Y-132937147D01*
X157817698Y-132989444D01*
X157637623Y-133007100D01*
X157322340Y-133007100D01*
X157317224Y-133007064D01*
X157309433Y-133007010D01*
X157129622Y-132986841D01*
X156957153Y-132932130D01*
X156798596Y-132844963D01*
X156659989Y-132728658D01*
X156546613Y-132587646D01*
X156462785Y-132427298D01*
X156411698Y-132253721D01*
X156411695Y-132253685D01*
X156411692Y-132253676D01*
X156395298Y-132073530D01*
X156414206Y-131893628D01*
X156414209Y-131893618D01*
X156414213Y-131893581D01*
X156467718Y-131720734D01*
X156553776Y-131561572D01*
X156669111Y-131422157D01*
X156809328Y-131307799D01*
X156969087Y-131222853D01*
X157142302Y-131170556D01*
X157322377Y-131152900D01*
X157637660Y-131152900D01*
X157642776Y-131152936D01*
X157642776Y-131152936D01*
G37*
G36*
X157642776Y-128612936D02*
X157650567Y-128612990D01*
X157830378Y-128633159D01*
X158002847Y-128687870D01*
X158161404Y-128775037D01*
X158300011Y-128891342D01*
X158413387Y-129032354D01*
X158497215Y-129192702D01*
X158548302Y-129366279D01*
X158548305Y-129366315D01*
X158548308Y-129366324D01*
X158564702Y-129546470D01*
X158545794Y-129726372D01*
X158545791Y-129726382D01*
X158545787Y-129726419D01*
X158492282Y-129899266D01*
X158406224Y-130058428D01*
X158290889Y-130197843D01*
X158150672Y-130312201D01*
X157990913Y-130397147D01*
X157817698Y-130449444D01*
X157637623Y-130467100D01*
X157322340Y-130467100D01*
X157317224Y-130467064D01*
X157309433Y-130467010D01*
X157129622Y-130446841D01*
X156957153Y-130392130D01*
X156798596Y-130304963D01*
X156659989Y-130188658D01*
X156546613Y-130047646D01*
X156462785Y-129887298D01*
X156411698Y-129713721D01*
X156411695Y-129713685D01*
X156411692Y-129713676D01*
X156395298Y-129533530D01*
X156414206Y-129353628D01*
X156414209Y-129353618D01*
X156414213Y-129353581D01*
X156467718Y-129180734D01*
X156553776Y-129021572D01*
X156669111Y-128882157D01*
X156809328Y-128767799D01*
X156969087Y-128682853D01*
X157142302Y-128630556D01*
X157322377Y-128612900D01*
X157637660Y-128612900D01*
X157642776Y-128612936D01*
X157642776Y-128612936D01*
G37*
G36*
X151335500Y-129141500D02*
X150808500Y-129141500D01*
X150808500Y-128414500D01*
X151335500Y-128414500D01*
X151335500Y-129141500D01*
X151335500Y-129141500D01*
G37*
G36*
X150435500Y-129141500D02*
X149908500Y-129141500D01*
X149908500Y-128414500D01*
X150435500Y-128414500D01*
X150435500Y-129141500D01*
X150435500Y-129141500D01*
G37*
G36*
X153763500Y-128193500D02*
X151036500Y-128193500D01*
X151036500Y-127266500D01*
X153763500Y-127266500D01*
X153763500Y-128193500D01*
X153763500Y-128193500D01*
G37*
G36*
X158559500Y-128079500D02*
X156400500Y-128079500D01*
X156400500Y-125920500D01*
X158559500Y-125920500D01*
X158559500Y-128079500D01*
X158559500Y-128079500D01*
G37*
G36*
X153813500Y-127143500D02*
X150986500Y-127143500D01*
X150986500Y-124316500D01*
X153813500Y-124316500D01*
X153813500Y-127143500D01*
X153813500Y-127143500D01*
G37*
G36*
X150863500Y-127093500D02*
X149936500Y-127093500D01*
X149936500Y-124366500D01*
X150863500Y-124366500D01*
X150863500Y-127093500D01*
X150863500Y-127093500D01*
G37*
G36*
X154863500Y-127093500D02*
X153936500Y-127093500D01*
X153936500Y-124366500D01*
X154863500Y-124366500D01*
X154863500Y-127093500D01*
X154863500Y-127093500D01*
G37*
G36*
X149284500Y-126897500D02*
X148657500Y-126897500D01*
X148657500Y-126170500D01*
X149284500Y-126170500D01*
X149284500Y-126897500D01*
X149284500Y-126897500D01*
G37*
G36*
X149284500Y-125797500D02*
X148657500Y-125797500D01*
X148657500Y-125070500D01*
X149284500Y-125070500D01*
X149284500Y-125797500D01*
X149284500Y-125797500D01*
G37*
G36*
X157498239Y-123380590D02*
X157498245Y-123380591D01*
X157500295Y-123380605D01*
X157709664Y-123404090D01*
X157910483Y-123467793D01*
X158095105Y-123569290D01*
X158256496Y-123704713D01*
X158388510Y-123868906D01*
X158486118Y-124055612D01*
X158545602Y-124257722D01*
X158545605Y-124257758D01*
X158545608Y-124257767D01*
X158564698Y-124467534D01*
X158542681Y-124677016D01*
X158542678Y-124677026D01*
X158542674Y-124677064D01*
X158480374Y-124878323D01*
X158380169Y-125063649D01*
X158245876Y-125225982D01*
X158082609Y-125359138D01*
X157896588Y-125458047D01*
X157694899Y-125518941D01*
X157485223Y-125539500D01*
X157474742Y-125539500D01*
X157461761Y-125539410D01*
X157461755Y-125539409D01*
X157459705Y-125539395D01*
X157250336Y-125515910D01*
X157049517Y-125452207D01*
X156864895Y-125350710D01*
X156703504Y-125215287D01*
X156571490Y-125051094D01*
X156473882Y-124864388D01*
X156414398Y-124662278D01*
X156414395Y-124662242D01*
X156414392Y-124662233D01*
X156395302Y-124452466D01*
X156417319Y-124242984D01*
X156417322Y-124242974D01*
X156417326Y-124242936D01*
X156479626Y-124041677D01*
X156579831Y-123856351D01*
X156714124Y-123694018D01*
X156877391Y-123560862D01*
X157063412Y-123461953D01*
X157265101Y-123401059D01*
X157474777Y-123380500D01*
X157485258Y-123380500D01*
X157498239Y-123380590D01*
X157498239Y-123380590D01*
G37*
G36*
X153763500Y-124193500D02*
X151036500Y-124193500D01*
X151036500Y-123266500D01*
X153763500Y-123266500D01*
X153763500Y-124193500D01*
X153763500Y-124193500D01*
G37*
G36*
X157642776Y-120992936D02*
X157650567Y-120992990D01*
X157830378Y-121013159D01*
X158002847Y-121067870D01*
X158161404Y-121155037D01*
X158300011Y-121271342D01*
X158413387Y-121412354D01*
X158497215Y-121572702D01*
X158548302Y-121746279D01*
X158548305Y-121746315D01*
X158548308Y-121746324D01*
X158564702Y-121926470D01*
X158545794Y-122106372D01*
X158545791Y-122106382D01*
X158545787Y-122106419D01*
X158492282Y-122279266D01*
X158406224Y-122438428D01*
X158290889Y-122577843D01*
X158150672Y-122692201D01*
X157990913Y-122777147D01*
X157817698Y-122829444D01*
X157637623Y-122847100D01*
X157322340Y-122847100D01*
X157317224Y-122847064D01*
X157309433Y-122847010D01*
X157129622Y-122826841D01*
X156957153Y-122772130D01*
X156798596Y-122684963D01*
X156659989Y-122568658D01*
X156546613Y-122427646D01*
X156462785Y-122267298D01*
X156411698Y-122093721D01*
X156411695Y-122093685D01*
X156411692Y-122093676D01*
X156395298Y-121913530D01*
X156414206Y-121733628D01*
X156414209Y-121733618D01*
X156414213Y-121733581D01*
X156467718Y-121560734D01*
X156553776Y-121401572D01*
X156669111Y-121262157D01*
X156809328Y-121147799D01*
X156969087Y-121062853D01*
X157142302Y-121010556D01*
X157322377Y-120992900D01*
X157637660Y-120992900D01*
X157642776Y-120992936D01*
X157642776Y-120992936D01*
G37*
G36*
X150119500Y-121313500D02*
X149092500Y-121313500D01*
X149092500Y-119986500D01*
X150119500Y-119986500D01*
X150119500Y-121313500D01*
X150119500Y-121313500D01*
G37*
G36*
X148468500Y-121313500D02*
X147441500Y-121313500D01*
X147441500Y-119986500D01*
X148468500Y-119986500D01*
X148468500Y-121313500D01*
X148468500Y-121313500D01*
G37*
G36*
X157642776Y-118452936D02*
X157650567Y-118452990D01*
X157830378Y-118473159D01*
X158002847Y-118527870D01*
X158161404Y-118615037D01*
X158300011Y-118731342D01*
X158413387Y-118872354D01*
X158497215Y-119032702D01*
X158548302Y-119206279D01*
X158548305Y-119206315D01*
X158548308Y-119206324D01*
X158564702Y-119386470D01*
X158545794Y-119566372D01*
X158545791Y-119566382D01*
X158545787Y-119566419D01*
X158492282Y-119739266D01*
X158406224Y-119898428D01*
X158290889Y-120037843D01*
X158150672Y-120152201D01*
X157990913Y-120237147D01*
X157817698Y-120289444D01*
X157637623Y-120307100D01*
X157322340Y-120307100D01*
X157317224Y-120307064D01*
X157309433Y-120307010D01*
X157129622Y-120286841D01*
X156957153Y-120232130D01*
X156798596Y-120144963D01*
X156659989Y-120028658D01*
X156546613Y-119887646D01*
X156462785Y-119727298D01*
X156411698Y-119553721D01*
X156411695Y-119553685D01*
X156411692Y-119553676D01*
X156395298Y-119373530D01*
X156414206Y-119193628D01*
X156414209Y-119193618D01*
X156414213Y-119193581D01*
X156467718Y-119020734D01*
X156553776Y-118861572D01*
X156669111Y-118722157D01*
X156809328Y-118607799D01*
X156969087Y-118522853D01*
X157142302Y-118470556D01*
X157322377Y-118452900D01*
X157637660Y-118452900D01*
X157642776Y-118452936D01*
X157642776Y-118452936D01*
G37*
G36*
X148468500Y-119113500D02*
X147441500Y-119113500D01*
X147441500Y-117786500D01*
X148468500Y-117786500D01*
X148468500Y-119113500D01*
X148468500Y-119113500D01*
G37*
G36*
X150119500Y-119113500D02*
X149092500Y-119113500D01*
X149092500Y-117786500D01*
X150119500Y-117786500D01*
X150119500Y-119113500D01*
X150119500Y-119113500D01*
G37*
G36*
X157642776Y-115912936D02*
X157650567Y-115912990D01*
X157830378Y-115933159D01*
X158002847Y-115987870D01*
X158161404Y-116075037D01*
X158300011Y-116191342D01*
X158413387Y-116332354D01*
X158497215Y-116492702D01*
X158548302Y-116666279D01*
X158548305Y-116666315D01*
X158548308Y-116666324D01*
X158564702Y-116846470D01*
X158545794Y-117026372D01*
X158545791Y-117026382D01*
X158545787Y-117026419D01*
X158492282Y-117199266D01*
X158406224Y-117358428D01*
X158290889Y-117497843D01*
X158150672Y-117612201D01*
X157990913Y-117697147D01*
X157817698Y-117749444D01*
X157637623Y-117767100D01*
X157322340Y-117767100D01*
X157317224Y-117767064D01*
X157309433Y-117767010D01*
X157129622Y-117746841D01*
X156957153Y-117692130D01*
X156798596Y-117604963D01*
X156659989Y-117488658D01*
X156546613Y-117347646D01*
X156462785Y-117187298D01*
X156411698Y-117013721D01*
X156411695Y-117013685D01*
X156411692Y-117013676D01*
X156395298Y-116833530D01*
X156414206Y-116653628D01*
X156414209Y-116653618D01*
X156414213Y-116653581D01*
X156467718Y-116480734D01*
X156553776Y-116321572D01*
X156669111Y-116182157D01*
X156809328Y-116067799D01*
X156969087Y-115982853D01*
X157142302Y-115930556D01*
X157322377Y-115912900D01*
X157637660Y-115912900D01*
X157642776Y-115912936D01*
X157642776Y-115912936D01*
G37*
G36*
X157642776Y-113372936D02*
X157650567Y-113372990D01*
X157830378Y-113393159D01*
X158002847Y-113447870D01*
X158161404Y-113535037D01*
X158300011Y-113651342D01*
X158413387Y-113792354D01*
X158497215Y-113952702D01*
X158548302Y-114126279D01*
X158548305Y-114126315D01*
X158548308Y-114126324D01*
X158564702Y-114306470D01*
X158545794Y-114486372D01*
X158545791Y-114486382D01*
X158545787Y-114486419D01*
X158492282Y-114659266D01*
X158406224Y-114818428D01*
X158290889Y-114957843D01*
X158150672Y-115072201D01*
X157990913Y-115157147D01*
X157817698Y-115209444D01*
X157637623Y-115227100D01*
X157322340Y-115227100D01*
X157317224Y-115227064D01*
X157309433Y-115227010D01*
X157129622Y-115206841D01*
X156957153Y-115152130D01*
X156798596Y-115064963D01*
X156659989Y-114948658D01*
X156546613Y-114807646D01*
X156462785Y-114647298D01*
X156411698Y-114473721D01*
X156411695Y-114473685D01*
X156411692Y-114473676D01*
X156395298Y-114293530D01*
X156414206Y-114113628D01*
X156414209Y-114113618D01*
X156414213Y-114113581D01*
X156467718Y-113940734D01*
X156553776Y-113781572D01*
X156669111Y-113642157D01*
X156809328Y-113527799D01*
X156969087Y-113442853D01*
X157142302Y-113390556D01*
X157322377Y-113372900D01*
X157637660Y-113372900D01*
X157642776Y-113372936D01*
X157642776Y-113372936D01*
G37*
G36*
X157642776Y-110832936D02*
X157650567Y-110832990D01*
X157830378Y-110853159D01*
X158002847Y-110907870D01*
X158161404Y-110995037D01*
X158300011Y-111111342D01*
X158413387Y-111252354D01*
X158497215Y-111412702D01*
X158548302Y-111586279D01*
X158548305Y-111586315D01*
X158548308Y-111586324D01*
X158564702Y-111766470D01*
X158545794Y-111946372D01*
X158545791Y-111946382D01*
X158545787Y-111946419D01*
X158492282Y-112119266D01*
X158406224Y-112278428D01*
X158290889Y-112417843D01*
X158150672Y-112532201D01*
X157990913Y-112617147D01*
X157817698Y-112669444D01*
X157637623Y-112687100D01*
X157322340Y-112687100D01*
X157317224Y-112687064D01*
X157309433Y-112687010D01*
X157129622Y-112666841D01*
X156957153Y-112612130D01*
X156798596Y-112524963D01*
X156659989Y-112408658D01*
X156546613Y-112267646D01*
X156462785Y-112107298D01*
X156411698Y-111933721D01*
X156411695Y-111933685D01*
X156411692Y-111933676D01*
X156395298Y-111753530D01*
X156414206Y-111573628D01*
X156414209Y-111573618D01*
X156414213Y-111573581D01*
X156467718Y-111400734D01*
X156553776Y-111241572D01*
X156669111Y-111102157D01*
X156809328Y-110987799D01*
X156969087Y-110902853D01*
X157142302Y-110850556D01*
X157322377Y-110832900D01*
X157637660Y-110832900D01*
X157642776Y-110832936D01*
X157642776Y-110832936D01*
G37*
G36*
X157642776Y-108292936D02*
X157650567Y-108292990D01*
X157830378Y-108313159D01*
X158002847Y-108367870D01*
X158161404Y-108455037D01*
X158300011Y-108571342D01*
X158413387Y-108712354D01*
X158497215Y-108872702D01*
X158548302Y-109046279D01*
X158548305Y-109046315D01*
X158548308Y-109046324D01*
X158564702Y-109226470D01*
X158545794Y-109406372D01*
X158545791Y-109406382D01*
X158545787Y-109406419D01*
X158492282Y-109579266D01*
X158406224Y-109738428D01*
X158290889Y-109877843D01*
X158150672Y-109992201D01*
X157990913Y-110077147D01*
X157817698Y-110129444D01*
X157637623Y-110147100D01*
X157322340Y-110147100D01*
X157317224Y-110147064D01*
X157309433Y-110147010D01*
X157129622Y-110126841D01*
X156957153Y-110072130D01*
X156798596Y-109984963D01*
X156659989Y-109868658D01*
X156546613Y-109727646D01*
X156462785Y-109567298D01*
X156411698Y-109393721D01*
X156411695Y-109393685D01*
X156411692Y-109393676D01*
X156395298Y-109213530D01*
X156414206Y-109033628D01*
X156414209Y-109033618D01*
X156414213Y-109033581D01*
X156467718Y-108860734D01*
X156553776Y-108701572D01*
X156669111Y-108562157D01*
X156809328Y-108447799D01*
X156969087Y-108362853D01*
X157142302Y-108310556D01*
X157322377Y-108292900D01*
X157637660Y-108292900D01*
X157642776Y-108292936D01*
X157642776Y-108292936D01*
G37*
G36*
X148399500Y-107759500D02*
X146240500Y-107759500D01*
X146240500Y-105600500D01*
X148399500Y-105600500D01*
X148399500Y-107759500D01*
X148399500Y-107759500D01*
G37*
G36*
X157642776Y-105752936D02*
X157650567Y-105752990D01*
X157830378Y-105773159D01*
X158002847Y-105827870D01*
X158161404Y-105915037D01*
X158300011Y-106031342D01*
X158413387Y-106172354D01*
X158497215Y-106332702D01*
X158548302Y-106506279D01*
X158548305Y-106506315D01*
X158548308Y-106506324D01*
X158564702Y-106686470D01*
X158545794Y-106866372D01*
X158545791Y-106866382D01*
X158545787Y-106866419D01*
X158492282Y-107039266D01*
X158406224Y-107198428D01*
X158290889Y-107337843D01*
X158150672Y-107452201D01*
X157990913Y-107537147D01*
X157817698Y-107589444D01*
X157637623Y-107607100D01*
X157322340Y-107607100D01*
X157317224Y-107607064D01*
X157309433Y-107607010D01*
X157129622Y-107586841D01*
X156957153Y-107532130D01*
X156798596Y-107444963D01*
X156659989Y-107328658D01*
X156546613Y-107187646D01*
X156462785Y-107027298D01*
X156411698Y-106853721D01*
X156411695Y-106853685D01*
X156411692Y-106853676D01*
X156395298Y-106673530D01*
X156414206Y-106493628D01*
X156414209Y-106493618D01*
X156414213Y-106493581D01*
X156467718Y-106320734D01*
X156553776Y-106161572D01*
X156669111Y-106022157D01*
X156809328Y-105907799D01*
X156969087Y-105822853D01*
X157142302Y-105770556D01*
X157322377Y-105752900D01*
X157637660Y-105752900D01*
X157642776Y-105752936D01*
X157642776Y-105752936D01*
G37*
G36*
X147338239Y-103060590D02*
X147338245Y-103060591D01*
X147340295Y-103060605D01*
X147549664Y-103084090D01*
X147750483Y-103147793D01*
X147935105Y-103249290D01*
X148096496Y-103384713D01*
X148228510Y-103548906D01*
X148326118Y-103735612D01*
X148385602Y-103937722D01*
X148385605Y-103937758D01*
X148385608Y-103937767D01*
X148404698Y-104147534D01*
X148382681Y-104357016D01*
X148382678Y-104357026D01*
X148382674Y-104357064D01*
X148320374Y-104558323D01*
X148220169Y-104743649D01*
X148085876Y-104905982D01*
X147922609Y-105039138D01*
X147736588Y-105138047D01*
X147534899Y-105198941D01*
X147325223Y-105219500D01*
X147314742Y-105219500D01*
X147301761Y-105219410D01*
X147301755Y-105219409D01*
X147299705Y-105219395D01*
X147090336Y-105195910D01*
X146889517Y-105132207D01*
X146704895Y-105030710D01*
X146543504Y-104895287D01*
X146411490Y-104731094D01*
X146313882Y-104544388D01*
X146254398Y-104342278D01*
X146254395Y-104342242D01*
X146254392Y-104342233D01*
X146235302Y-104132466D01*
X146257319Y-103922984D01*
X146257322Y-103922974D01*
X146257326Y-103922936D01*
X146319626Y-103721677D01*
X146419831Y-103536351D01*
X146554124Y-103374018D01*
X146717391Y-103240862D01*
X146903412Y-103141953D01*
X147105101Y-103081059D01*
X147314777Y-103060500D01*
X147325258Y-103060500D01*
X147338239Y-103060590D01*
X147338239Y-103060590D01*
G37*
G36*
X158559500Y-105067100D02*
X156400500Y-105067100D01*
X156400500Y-103212900D01*
X158559500Y-103212900D01*
X158559500Y-105067100D01*
X158559500Y-105067100D01*
G37*
M02*
