G04 #@! TF.FileFunction,Copper,L1,Top,Signal*
%FSLAX46Y46*%
G04 Gerber Fmt 4.6, Leading zero omitted, Abs format (unit mm)*
G04 Created by KiCad (PCBNEW 4.0.1-stable) date Thursday, March 10, 2016 'AMt' 12:00:46 AM*
%MOMM*%
G01*
G04 APERTURE LIST*
%ADD10C,0.100000*%
%ADD11R,2.032000X2.032000*%
%ADD12O,2.032000X2.032000*%
%ADD13R,2.032000X1.727200*%
%ADD14O,2.032000X1.727200*%
%ADD15R,0.900000X1.200000*%
%ADD16R,0.200000X0.800000*%
%ADD17R,0.800000X0.200000*%
%ADD18R,1.500000X1.500000*%
%ADD19R,0.500000X0.600000*%
%ADD20R,0.400000X0.600000*%
%ADD21C,0.685800*%
%ADD22C,0.685800*%
%ADD23C,0.152400*%
G04 APERTURE END LIST*
D10*
D11*
X147320000Y-106680000D03*
D12*
X147320000Y-104140000D03*
D13*
X147447000Y-134620000D03*
D14*
X147447000Y-137160000D03*
X147447000Y-139700000D03*
X147447000Y-142240000D03*
X147447000Y-144780000D03*
X147447000Y-147320000D03*
D11*
X157480000Y-127000000D03*
D12*
X157480000Y-124460000D03*
D15*
X147955000Y-118450000D03*
X147955000Y-120650000D03*
X149606000Y-120650000D03*
X149606000Y-118450000D03*
D16*
X151200000Y-127730000D03*
X151600000Y-127730000D03*
X152000000Y-127730000D03*
X152400000Y-127730000D03*
X152800000Y-127730000D03*
X153200000Y-127730000D03*
X153600000Y-127730000D03*
D17*
X154400000Y-126930000D03*
X154400000Y-126530000D03*
X154400000Y-126130000D03*
X154400000Y-125730000D03*
X154400000Y-125330000D03*
X154400000Y-124930000D03*
X154400000Y-124530000D03*
D16*
X153600000Y-123730000D03*
X153200000Y-123730000D03*
X152800000Y-123730000D03*
X152400000Y-123730000D03*
X152000000Y-123730000D03*
X151600000Y-123730000D03*
X151200000Y-123730000D03*
D17*
X150400000Y-124530000D03*
X150400000Y-124930000D03*
X150400000Y-125330000D03*
X150400000Y-125730000D03*
X150400000Y-126130000D03*
X150400000Y-126530000D03*
X150400000Y-126930000D03*
D18*
X153000000Y-125130000D03*
X151800000Y-125130000D03*
X153000000Y-126330000D03*
X151800000Y-126330000D03*
D19*
X148971000Y-126534000D03*
X148971000Y-125434000D03*
D20*
X151072000Y-128778000D03*
X150172000Y-128778000D03*
D13*
X157480000Y-147320000D03*
D14*
X157480000Y-144780000D03*
X157480000Y-142240000D03*
X157480000Y-139700000D03*
X157480000Y-137160000D03*
X157480000Y-134620000D03*
X157480000Y-132080000D03*
X157480000Y-129540000D03*
D13*
X157480000Y-104140000D03*
D14*
X157480000Y-106680000D03*
X157480000Y-109220000D03*
X157480000Y-111760000D03*
X157480000Y-114300000D03*
X157480000Y-116840000D03*
X157480000Y-119380000D03*
X157480000Y-121920000D03*
D21*
X147955000Y-117475000D03*
X148338470Y-126365000D03*
X150593076Y-140408168D03*
X151257000Y-130556000D03*
X151638000Y-143002000D03*
X150198736Y-129540000D03*
X148338480Y-125476018D03*
X155321000Y-128651000D03*
X155321000Y-122809000D03*
X155321000Y-125558490D03*
X151032345Y-129678400D03*
D22*
X147955000Y-118450000D02*
X147955000Y-117475000D01*
X148971000Y-126534000D02*
X148507470Y-126534000D01*
X148507470Y-126534000D02*
X148338470Y-126365000D01*
D23*
X148971000Y-126534000D02*
X149373400Y-126534000D01*
X149373400Y-126534000D02*
X149777400Y-126130000D01*
X149777400Y-126130000D02*
X149847600Y-126130000D01*
X149847600Y-126130000D02*
X150400000Y-126130000D01*
X150593076Y-140893101D02*
X150593076Y-140408168D01*
X150593076Y-141957076D02*
X150593076Y-140893101D01*
X151638000Y-143002000D02*
X150593076Y-141957076D01*
X150172000Y-128778000D02*
X150172000Y-129513264D01*
X150172000Y-129513264D02*
X150198736Y-129540000D01*
X148380498Y-125434000D02*
X148338480Y-125476018D01*
X148971000Y-125434000D02*
X148380498Y-125434000D01*
X154400000Y-125730000D02*
X155149490Y-125730000D01*
X155149490Y-125730000D02*
X155321000Y-125558490D01*
X151032345Y-129678400D02*
X149932036Y-130778709D01*
X149932036Y-130778709D02*
X149932036Y-144987364D01*
X149932036Y-144987364D02*
X147599400Y-147320000D01*
X147599400Y-147320000D02*
X147447000Y-147320000D01*
X151032345Y-129678400D02*
X151032345Y-128817655D01*
X151032345Y-128817655D02*
X151072000Y-128778000D01*
X151200000Y-127730000D02*
X151200000Y-128650000D01*
X151200000Y-128650000D02*
X151072000Y-128778000D01*
X147599400Y-137160000D02*
X147447000Y-137160000D01*
X148712795Y-128137422D02*
X148712795Y-136046605D01*
X147935422Y-124599687D02*
X147462149Y-125072960D01*
X147462149Y-126886776D02*
X148712795Y-128137422D01*
X149548354Y-124599687D02*
X147935422Y-124599687D01*
X150400000Y-124930000D02*
X149878667Y-124930000D01*
X148712795Y-136046605D02*
X147599400Y-137160000D01*
X147462149Y-125072960D02*
X147462149Y-126886776D01*
X149878667Y-124930000D02*
X149548354Y-124599687D01*
X149017606Y-128011165D02*
X149017606Y-138281794D01*
X147766960Y-126760519D02*
X149017606Y-128011165D01*
X150400000Y-125330000D02*
X149847600Y-125330000D01*
X147766960Y-125199216D02*
X147766960Y-126760519D01*
X149422098Y-124904498D02*
X148061678Y-124904498D01*
X149847600Y-125330000D02*
X149422098Y-124904498D01*
X148061678Y-124904498D02*
X147766960Y-125199216D01*
X149017606Y-138281794D02*
X147599400Y-139700000D01*
X147599400Y-139700000D02*
X147447000Y-139700000D01*
X147599400Y-142240000D02*
X147447000Y-142240000D01*
X149322415Y-140516985D02*
X147599400Y-142240000D01*
X149322415Y-127093135D02*
X149322415Y-140516985D01*
X150400000Y-126530000D02*
X149885550Y-126530000D01*
X149885550Y-126530000D02*
X149322415Y-127093135D01*
X150400000Y-127182400D02*
X150400000Y-126930000D01*
X149627226Y-127955174D02*
X150400000Y-127182400D01*
X147599400Y-144780000D02*
X149627226Y-142752174D01*
X149627226Y-142752174D02*
X149627226Y-127955174D01*
X147447000Y-144780000D02*
X147599400Y-144780000D01*
X149606000Y-120650000D02*
X147955000Y-120650000D01*
X147955000Y-124277600D02*
X147826442Y-124277600D01*
X149847600Y-124277600D02*
X147955000Y-124277600D01*
X147955000Y-124277600D02*
X147955000Y-120650000D01*
X150400000Y-124530000D02*
X150100000Y-124530000D01*
X148393157Y-133673843D02*
X147447000Y-134620000D01*
X150100000Y-124530000D02*
X149847600Y-124277600D01*
X148393157Y-128248850D02*
X148393157Y-133673843D01*
X147157338Y-124946704D02*
X147157338Y-127013031D01*
X147826442Y-124277600D02*
X147157338Y-124946704D01*
X147157338Y-127013031D02*
X148393157Y-128248850D01*
X147447000Y-134620000D02*
X147994521Y-134072479D01*
X157327600Y-129540000D02*
X157480000Y-129540000D01*
X155565973Y-126530000D02*
X156208082Y-127172109D01*
X154400000Y-126530000D02*
X155565973Y-126530000D01*
X156208082Y-128420482D02*
X157327600Y-129540000D01*
X156208082Y-127172109D02*
X156208082Y-128420482D01*
X154400000Y-126930000D02*
X155534906Y-126930000D01*
X155903271Y-127298365D02*
X155903271Y-130655671D01*
X155534906Y-126930000D02*
X155903271Y-127298365D01*
X155903271Y-130655671D02*
X157327600Y-132080000D01*
X157327600Y-132080000D02*
X157480000Y-132080000D01*
X157327600Y-134620000D02*
X157480000Y-134620000D01*
X156210150Y-132066946D02*
X156210150Y-133502550D01*
X156210150Y-133502550D02*
X157327600Y-134620000D01*
X153600000Y-129456796D02*
X156210150Y-132066946D01*
X153600000Y-127730000D02*
X153600000Y-129456796D01*
X157327600Y-137160000D02*
X157480000Y-137160000D01*
X153200000Y-129487863D02*
X155905339Y-132193202D01*
X155905339Y-132193202D02*
X155905339Y-135737739D01*
X153200000Y-127730000D02*
X153200000Y-129487863D01*
X155905339Y-135737739D02*
X157327600Y-137160000D01*
X155600528Y-132319458D02*
X155600528Y-137972928D01*
X157327600Y-139700000D02*
X157480000Y-139700000D01*
X155600528Y-137972928D02*
X157327600Y-139700000D01*
X152800000Y-129518930D02*
X155600528Y-132319458D01*
X152800000Y-127730000D02*
X152800000Y-129518930D01*
X157327600Y-142240000D02*
X157480000Y-142240000D01*
X155295717Y-132445714D02*
X155295717Y-140208117D01*
X152400000Y-129549997D02*
X155295717Y-132445714D01*
X155295717Y-140208117D02*
X157327600Y-142240000D01*
X152400000Y-127730000D02*
X152400000Y-129549997D01*
X157327600Y-144780000D02*
X157480000Y-144780000D01*
X152000000Y-129581064D02*
X154990906Y-132571970D01*
X154990906Y-142443306D02*
X157327600Y-144780000D01*
X154990906Y-132571970D02*
X154990906Y-142443306D01*
X152000000Y-127730000D02*
X152000000Y-129581064D01*
X151600000Y-127730000D02*
X151600000Y-129612131D01*
X151600000Y-129612131D02*
X154686095Y-132698226D01*
X154686095Y-144526095D02*
X157480000Y-147320000D01*
X154686095Y-132698226D02*
X154686095Y-144526095D01*
X151200000Y-123730000D02*
X151200000Y-122683514D01*
X154662152Y-119221362D02*
X154662152Y-106957848D01*
X151200000Y-122683514D02*
X154662152Y-119221362D01*
X154662152Y-106957848D02*
X157480000Y-104140000D01*
X151600000Y-123730000D02*
X151600000Y-122714581D01*
X154966963Y-119347618D02*
X154966963Y-109040637D01*
X154966963Y-109040637D02*
X157327600Y-106680000D01*
X157327600Y-106680000D02*
X157480000Y-106680000D01*
X151600000Y-122714581D02*
X154966963Y-119347618D01*
X157327600Y-109220000D02*
X157480000Y-109220000D01*
X152000000Y-122745648D02*
X155271774Y-119473874D01*
X155271774Y-119473874D02*
X155271774Y-111275826D01*
X152000000Y-123730000D02*
X152000000Y-122745648D01*
X155271774Y-111275826D02*
X157327600Y-109220000D01*
X157327600Y-111760000D02*
X157480000Y-111760000D01*
X155576585Y-113511015D02*
X157327600Y-111760000D01*
X152400000Y-122776715D02*
X155576585Y-119600130D01*
X155576585Y-119600130D02*
X155576585Y-113511015D01*
X152400000Y-123730000D02*
X152400000Y-122776715D01*
X155881396Y-115746204D02*
X157327600Y-114300000D01*
X152800000Y-123730000D02*
X152800000Y-122807782D01*
X157327600Y-114300000D02*
X157480000Y-114300000D01*
X155881396Y-119726386D02*
X155881396Y-115746204D01*
X152800000Y-122807782D02*
X155881396Y-119726386D01*
X156235390Y-117932210D02*
X157327600Y-116840000D01*
X156235390Y-119871194D02*
X156235390Y-117932210D01*
X153200000Y-122906584D02*
X156235390Y-119871194D01*
X157327600Y-116840000D02*
X157480000Y-116840000D01*
X153200000Y-123730000D02*
X153200000Y-122906584D01*
X153600000Y-123730000D02*
X153600000Y-122937650D01*
X157157650Y-119380000D02*
X157480000Y-119380000D01*
X153600000Y-122937650D02*
X157157650Y-119380000D01*
X154400000Y-124530000D02*
X155524174Y-124530000D01*
X155524174Y-124530000D02*
X157480000Y-122574174D01*
X157480000Y-122574174D02*
X157480000Y-121920000D01*
X154400000Y-126130000D02*
X156610000Y-126130000D01*
X156610000Y-126130000D02*
X157480000Y-127000000D01*
X154400000Y-124930000D02*
X157010000Y-124930000D01*
X157010000Y-124930000D02*
X157480000Y-124460000D01*
G36*
X154381295Y-132824478D02*
X154381295Y-144526095D01*
X154384042Y-144554107D01*
X154386496Y-144582164D01*
X154386944Y-144583705D01*
X154387100Y-144585298D01*
X154395241Y-144612263D01*
X154403093Y-144639288D01*
X154403829Y-144640708D01*
X154404293Y-144642245D01*
X154417536Y-144667151D01*
X154430469Y-144692101D01*
X154431467Y-144693352D01*
X154432221Y-144694769D01*
X154450060Y-144716643D01*
X154467581Y-144738590D01*
X154469776Y-144740817D01*
X154469818Y-144740868D01*
X154469865Y-144740907D01*
X154470569Y-144741621D01*
X156234294Y-146505346D01*
X156234294Y-148183600D01*
X156237197Y-148220004D01*
X156256318Y-148281748D01*
X156259383Y-148286400D01*
X148103230Y-148286400D01*
X148209836Y-148229717D01*
X148375023Y-148094993D01*
X148510897Y-147930750D01*
X148612281Y-147743245D01*
X148675314Y-147539617D01*
X148697595Y-147327625D01*
X148678276Y-147115342D01*
X148618092Y-146910855D01*
X148556813Y-146793639D01*
X150147562Y-145202890D01*
X150165429Y-145181139D01*
X150183531Y-145159566D01*
X150184304Y-145158160D01*
X150185320Y-145156923D01*
X150198630Y-145132099D01*
X150212188Y-145107437D01*
X150212672Y-145105912D01*
X150213430Y-145104498D01*
X150221666Y-145077560D01*
X150230175Y-145050735D01*
X150230354Y-145049142D01*
X150230822Y-145047610D01*
X150233667Y-145019605D01*
X150236806Y-144991620D01*
X150236828Y-144988486D01*
X150236834Y-144988428D01*
X150236829Y-144988374D01*
X150236836Y-144987364D01*
X150236836Y-130904961D01*
X150906001Y-130235796D01*
X150964350Y-130248625D01*
X151076402Y-130250972D01*
X151186776Y-130231511D01*
X151291268Y-130190981D01*
X151385898Y-130130927D01*
X151467061Y-130053637D01*
X151526374Y-129969557D01*
X154381295Y-132824478D01*
X154381295Y-132824478D01*
G37*
X154381295Y-132824478D02*
X154381295Y-144526095D01*
X154384042Y-144554107D01*
X154386496Y-144582164D01*
X154386944Y-144583705D01*
X154387100Y-144585298D01*
X154395241Y-144612263D01*
X154403093Y-144639288D01*
X154403829Y-144640708D01*
X154404293Y-144642245D01*
X154417536Y-144667151D01*
X154430469Y-144692101D01*
X154431467Y-144693352D01*
X154432221Y-144694769D01*
X154450060Y-144716643D01*
X154467581Y-144738590D01*
X154469776Y-144740817D01*
X154469818Y-144740868D01*
X154469865Y-144740907D01*
X154470569Y-144741621D01*
X156234294Y-146505346D01*
X156234294Y-148183600D01*
X156237197Y-148220004D01*
X156256318Y-148281748D01*
X156259383Y-148286400D01*
X148103230Y-148286400D01*
X148209836Y-148229717D01*
X148375023Y-148094993D01*
X148510897Y-147930750D01*
X148612281Y-147743245D01*
X148675314Y-147539617D01*
X148697595Y-147327625D01*
X148678276Y-147115342D01*
X148618092Y-146910855D01*
X148556813Y-146793639D01*
X150147562Y-145202890D01*
X150165429Y-145181139D01*
X150183531Y-145159566D01*
X150184304Y-145158160D01*
X150185320Y-145156923D01*
X150198630Y-145132099D01*
X150212188Y-145107437D01*
X150212672Y-145105912D01*
X150213430Y-145104498D01*
X150221666Y-145077560D01*
X150230175Y-145050735D01*
X150230354Y-145049142D01*
X150230822Y-145047610D01*
X150233667Y-145019605D01*
X150236806Y-144991620D01*
X150236828Y-144988486D01*
X150236834Y-144988428D01*
X150236829Y-144988374D01*
X150236836Y-144987364D01*
X150236836Y-130904961D01*
X150906001Y-130235796D01*
X150964350Y-130248625D01*
X151076402Y-130250972D01*
X151186776Y-130231511D01*
X151291268Y-130190981D01*
X151385898Y-130130927D01*
X151467061Y-130053637D01*
X151526374Y-129969557D01*
X154381295Y-132824478D01*
G36*
X156243388Y-103212405D02*
X156234294Y-103276400D01*
X156234294Y-104954654D01*
X154446626Y-106742322D01*
X154428759Y-106764073D01*
X154410657Y-106785646D01*
X154409884Y-106787052D01*
X154408868Y-106788289D01*
X154395538Y-106813148D01*
X154382000Y-106837775D01*
X154381518Y-106839295D01*
X154380757Y-106840714D01*
X154372499Y-106867727D01*
X154364013Y-106894477D01*
X154363835Y-106896067D01*
X154363365Y-106897603D01*
X154360517Y-106925647D01*
X154357382Y-106953592D01*
X154357360Y-106956727D01*
X154357354Y-106956785D01*
X154357359Y-106956839D01*
X154357352Y-106957848D01*
X154357352Y-119095110D01*
X150984474Y-122467988D01*
X150966607Y-122489739D01*
X150948505Y-122511312D01*
X150947732Y-122512718D01*
X150946716Y-122513955D01*
X150933386Y-122538814D01*
X150919848Y-122563441D01*
X150919366Y-122564961D01*
X150918605Y-122566380D01*
X150910347Y-122593393D01*
X150901861Y-122620143D01*
X150901683Y-122621733D01*
X150901213Y-122623269D01*
X150898365Y-122651313D01*
X150895230Y-122679258D01*
X150895208Y-122682393D01*
X150895202Y-122682451D01*
X150895207Y-122682505D01*
X150895200Y-122683514D01*
X150895200Y-123230928D01*
X150879388Y-123266005D01*
X150870294Y-123330000D01*
X150870294Y-124130000D01*
X150873197Y-124166404D01*
X150890161Y-124221183D01*
X150863995Y-124209388D01*
X150800000Y-124200294D01*
X150201346Y-124200294D01*
X150063126Y-124062074D01*
X150041375Y-124044207D01*
X150019802Y-124026105D01*
X150018396Y-124025332D01*
X150017159Y-124024316D01*
X149992296Y-124010984D01*
X149967673Y-123997448D01*
X149966153Y-123996966D01*
X149964734Y-123996205D01*
X149937721Y-123987947D01*
X149910971Y-123979461D01*
X149909381Y-123979283D01*
X149907845Y-123978813D01*
X149879801Y-123975965D01*
X149851856Y-123972830D01*
X149848721Y-123972808D01*
X149848663Y-123972802D01*
X149848609Y-123972807D01*
X149847600Y-123972800D01*
X148259800Y-123972800D01*
X148259800Y-121479706D01*
X148405000Y-121479706D01*
X148441404Y-121476803D01*
X148503148Y-121457682D01*
X148557121Y-121422116D01*
X148599049Y-121372922D01*
X148625612Y-121313995D01*
X148634706Y-121250000D01*
X148634706Y-120954800D01*
X148926294Y-120954800D01*
X148926294Y-121250000D01*
X148929197Y-121286404D01*
X148948318Y-121348148D01*
X148983884Y-121402121D01*
X149033078Y-121444049D01*
X149092005Y-121470612D01*
X149156000Y-121479706D01*
X150056000Y-121479706D01*
X150092404Y-121476803D01*
X150154148Y-121457682D01*
X150208121Y-121422116D01*
X150250049Y-121372922D01*
X150276612Y-121313995D01*
X150285706Y-121250000D01*
X150285706Y-120050000D01*
X150282803Y-120013596D01*
X150263682Y-119951852D01*
X150228116Y-119897879D01*
X150178922Y-119855951D01*
X150119995Y-119829388D01*
X150056000Y-119820294D01*
X149156000Y-119820294D01*
X149119596Y-119823197D01*
X149057852Y-119842318D01*
X149003879Y-119877884D01*
X148961951Y-119927078D01*
X148935388Y-119986005D01*
X148926294Y-120050000D01*
X148926294Y-120345200D01*
X148634706Y-120345200D01*
X148634706Y-120050000D01*
X148631803Y-120013596D01*
X148612682Y-119951852D01*
X148577116Y-119897879D01*
X148527922Y-119855951D01*
X148468995Y-119829388D01*
X148405000Y-119820294D01*
X147505000Y-119820294D01*
X147468596Y-119823197D01*
X147406852Y-119842318D01*
X147352879Y-119877884D01*
X147310951Y-119927078D01*
X147284388Y-119986005D01*
X147275294Y-120050000D01*
X147275294Y-121250000D01*
X147278197Y-121286404D01*
X147297318Y-121348148D01*
X147332884Y-121402121D01*
X147382078Y-121444049D01*
X147441005Y-121470612D01*
X147505000Y-121479706D01*
X147650200Y-121479706D01*
X147650200Y-124029898D01*
X147635894Y-124041565D01*
X147613947Y-124059086D01*
X147611720Y-124061281D01*
X147611669Y-124061323D01*
X147611630Y-124061370D01*
X147610916Y-124062074D01*
X146941812Y-124731178D01*
X146923951Y-124752922D01*
X146905843Y-124774502D01*
X146905070Y-124775908D01*
X146904054Y-124777145D01*
X146890724Y-124802004D01*
X146877186Y-124826631D01*
X146876704Y-124828151D01*
X146875943Y-124829570D01*
X146867685Y-124856583D01*
X146859199Y-124883333D01*
X146859021Y-124884923D01*
X146858551Y-124886459D01*
X146855703Y-124914503D01*
X146852568Y-124942448D01*
X146852546Y-124945583D01*
X146852540Y-124945641D01*
X146852545Y-124945695D01*
X146852538Y-124946704D01*
X146852538Y-127013031D01*
X146855285Y-127041043D01*
X146857739Y-127069100D01*
X146858187Y-127070641D01*
X146858343Y-127072234D01*
X146866484Y-127099199D01*
X146874336Y-127126224D01*
X146875072Y-127127644D01*
X146875536Y-127129181D01*
X146888779Y-127154087D01*
X146901712Y-127179037D01*
X146902710Y-127180288D01*
X146903464Y-127181705D01*
X146921303Y-127203579D01*
X146938824Y-127225526D01*
X146941019Y-127227753D01*
X146941061Y-127227804D01*
X146941108Y-127227843D01*
X146941812Y-127228557D01*
X148088357Y-128375102D01*
X148088357Y-133526694D01*
X146431000Y-133526694D01*
X146394596Y-133529597D01*
X146353600Y-133542293D01*
X146353600Y-117850000D01*
X147275294Y-117850000D01*
X147275294Y-119050000D01*
X147278197Y-119086404D01*
X147297318Y-119148148D01*
X147332884Y-119202121D01*
X147382078Y-119244049D01*
X147441005Y-119270612D01*
X147505000Y-119279706D01*
X148405000Y-119279706D01*
X148441404Y-119276803D01*
X148503148Y-119257682D01*
X148557121Y-119222116D01*
X148599049Y-119172922D01*
X148625612Y-119113995D01*
X148634706Y-119050000D01*
X148634706Y-117850000D01*
X148631803Y-117813596D01*
X148612682Y-117751852D01*
X148577116Y-117697879D01*
X148527922Y-117655951D01*
X148526500Y-117655310D01*
X148526500Y-117475000D01*
X148525836Y-117468230D01*
X148526524Y-117418962D01*
X148504755Y-117309019D01*
X148462046Y-117205399D01*
X148400023Y-117112048D01*
X148321050Y-117032521D01*
X148228134Y-116969849D01*
X148124815Y-116926417D01*
X148015027Y-116903881D01*
X147902953Y-116903098D01*
X147792861Y-116924100D01*
X147688945Y-116966084D01*
X147595163Y-117027453D01*
X147515087Y-117105870D01*
X147451768Y-117198346D01*
X147407616Y-117301360D01*
X147384314Y-117410987D01*
X147382749Y-117523053D01*
X147383500Y-117527145D01*
X147383500Y-117657706D01*
X147352879Y-117677884D01*
X147310951Y-117727078D01*
X147284388Y-117786005D01*
X147275294Y-117850000D01*
X146353600Y-117850000D01*
X146353600Y-107925706D01*
X148336000Y-107925706D01*
X148372404Y-107922803D01*
X148434148Y-107903682D01*
X148488121Y-107868116D01*
X148530049Y-107818922D01*
X148556612Y-107759995D01*
X148565706Y-107696000D01*
X148565706Y-105664000D01*
X148562803Y-105627596D01*
X148543682Y-105565852D01*
X148508116Y-105511879D01*
X148458922Y-105469951D01*
X148399995Y-105443388D01*
X148336000Y-105434294D01*
X146353600Y-105434294D01*
X146353600Y-104924223D01*
X146524764Y-105097419D01*
X146726827Y-105234165D01*
X146951686Y-105328863D01*
X147142200Y-105314693D01*
X147142200Y-104317800D01*
X147497800Y-104317800D01*
X147497800Y-105314693D01*
X147688314Y-105328863D01*
X147913173Y-105234165D01*
X148115236Y-105097419D01*
X148286739Y-104923880D01*
X148421091Y-104720217D01*
X148508855Y-104508312D01*
X148494063Y-104317800D01*
X147497800Y-104317800D01*
X147142200Y-104317800D01*
X147122200Y-104317800D01*
X147122200Y-103962200D01*
X147142200Y-103962200D01*
X147142200Y-103942200D01*
X147497800Y-103942200D01*
X147497800Y-103962200D01*
X148494063Y-103962200D01*
X148508855Y-103771688D01*
X148421091Y-103559783D01*
X148286739Y-103356120D01*
X148115236Y-103182581D01*
X148101965Y-103173600D01*
X156260880Y-103173600D01*
X156243388Y-103212405D01*
X156243388Y-103212405D01*
G37*
X156243388Y-103212405D02*
X156234294Y-103276400D01*
X156234294Y-104954654D01*
X154446626Y-106742322D01*
X154428759Y-106764073D01*
X154410657Y-106785646D01*
X154409884Y-106787052D01*
X154408868Y-106788289D01*
X154395538Y-106813148D01*
X154382000Y-106837775D01*
X154381518Y-106839295D01*
X154380757Y-106840714D01*
X154372499Y-106867727D01*
X154364013Y-106894477D01*
X154363835Y-106896067D01*
X154363365Y-106897603D01*
X154360517Y-106925647D01*
X154357382Y-106953592D01*
X154357360Y-106956727D01*
X154357354Y-106956785D01*
X154357359Y-106956839D01*
X154357352Y-106957848D01*
X154357352Y-119095110D01*
X150984474Y-122467988D01*
X150966607Y-122489739D01*
X150948505Y-122511312D01*
X150947732Y-122512718D01*
X150946716Y-122513955D01*
X150933386Y-122538814D01*
X150919848Y-122563441D01*
X150919366Y-122564961D01*
X150918605Y-122566380D01*
X150910347Y-122593393D01*
X150901861Y-122620143D01*
X150901683Y-122621733D01*
X150901213Y-122623269D01*
X150898365Y-122651313D01*
X150895230Y-122679258D01*
X150895208Y-122682393D01*
X150895202Y-122682451D01*
X150895207Y-122682505D01*
X150895200Y-122683514D01*
X150895200Y-123230928D01*
X150879388Y-123266005D01*
X150870294Y-123330000D01*
X150870294Y-124130000D01*
X150873197Y-124166404D01*
X150890161Y-124221183D01*
X150863995Y-124209388D01*
X150800000Y-124200294D01*
X150201346Y-124200294D01*
X150063126Y-124062074D01*
X150041375Y-124044207D01*
X150019802Y-124026105D01*
X150018396Y-124025332D01*
X150017159Y-124024316D01*
X149992296Y-124010984D01*
X149967673Y-123997448D01*
X149966153Y-123996966D01*
X149964734Y-123996205D01*
X149937721Y-123987947D01*
X149910971Y-123979461D01*
X149909381Y-123979283D01*
X149907845Y-123978813D01*
X149879801Y-123975965D01*
X149851856Y-123972830D01*
X149848721Y-123972808D01*
X149848663Y-123972802D01*
X149848609Y-123972807D01*
X149847600Y-123972800D01*
X148259800Y-123972800D01*
X148259800Y-121479706D01*
X148405000Y-121479706D01*
X148441404Y-121476803D01*
X148503148Y-121457682D01*
X148557121Y-121422116D01*
X148599049Y-121372922D01*
X148625612Y-121313995D01*
X148634706Y-121250000D01*
X148634706Y-120954800D01*
X148926294Y-120954800D01*
X148926294Y-121250000D01*
X148929197Y-121286404D01*
X148948318Y-121348148D01*
X148983884Y-121402121D01*
X149033078Y-121444049D01*
X149092005Y-121470612D01*
X149156000Y-121479706D01*
X150056000Y-121479706D01*
X150092404Y-121476803D01*
X150154148Y-121457682D01*
X150208121Y-121422116D01*
X150250049Y-121372922D01*
X150276612Y-121313995D01*
X150285706Y-121250000D01*
X150285706Y-120050000D01*
X150282803Y-120013596D01*
X150263682Y-119951852D01*
X150228116Y-119897879D01*
X150178922Y-119855951D01*
X150119995Y-119829388D01*
X150056000Y-119820294D01*
X149156000Y-119820294D01*
X149119596Y-119823197D01*
X149057852Y-119842318D01*
X149003879Y-119877884D01*
X148961951Y-119927078D01*
X148935388Y-119986005D01*
X148926294Y-120050000D01*
X148926294Y-120345200D01*
X148634706Y-120345200D01*
X148634706Y-120050000D01*
X148631803Y-120013596D01*
X148612682Y-119951852D01*
X148577116Y-119897879D01*
X148527922Y-119855951D01*
X148468995Y-119829388D01*
X148405000Y-119820294D01*
X147505000Y-119820294D01*
X147468596Y-119823197D01*
X147406852Y-119842318D01*
X147352879Y-119877884D01*
X147310951Y-119927078D01*
X147284388Y-119986005D01*
X147275294Y-120050000D01*
X147275294Y-121250000D01*
X147278197Y-121286404D01*
X147297318Y-121348148D01*
X147332884Y-121402121D01*
X147382078Y-121444049D01*
X147441005Y-121470612D01*
X147505000Y-121479706D01*
X147650200Y-121479706D01*
X147650200Y-124029898D01*
X147635894Y-124041565D01*
X147613947Y-124059086D01*
X147611720Y-124061281D01*
X147611669Y-124061323D01*
X147611630Y-124061370D01*
X147610916Y-124062074D01*
X146941812Y-124731178D01*
X146923951Y-124752922D01*
X146905843Y-124774502D01*
X146905070Y-124775908D01*
X146904054Y-124777145D01*
X146890724Y-124802004D01*
X146877186Y-124826631D01*
X146876704Y-124828151D01*
X146875943Y-124829570D01*
X146867685Y-124856583D01*
X146859199Y-124883333D01*
X146859021Y-124884923D01*
X146858551Y-124886459D01*
X146855703Y-124914503D01*
X146852568Y-124942448D01*
X146852546Y-124945583D01*
X146852540Y-124945641D01*
X146852545Y-124945695D01*
X146852538Y-124946704D01*
X146852538Y-127013031D01*
X146855285Y-127041043D01*
X146857739Y-127069100D01*
X146858187Y-127070641D01*
X146858343Y-127072234D01*
X146866484Y-127099199D01*
X146874336Y-127126224D01*
X146875072Y-127127644D01*
X146875536Y-127129181D01*
X146888779Y-127154087D01*
X146901712Y-127179037D01*
X146902710Y-127180288D01*
X146903464Y-127181705D01*
X146921303Y-127203579D01*
X146938824Y-127225526D01*
X146941019Y-127227753D01*
X146941061Y-127227804D01*
X146941108Y-127227843D01*
X146941812Y-127228557D01*
X148088357Y-128375102D01*
X148088357Y-133526694D01*
X146431000Y-133526694D01*
X146394596Y-133529597D01*
X146353600Y-133542293D01*
X146353600Y-117850000D01*
X147275294Y-117850000D01*
X147275294Y-119050000D01*
X147278197Y-119086404D01*
X147297318Y-119148148D01*
X147332884Y-119202121D01*
X147382078Y-119244049D01*
X147441005Y-119270612D01*
X147505000Y-119279706D01*
X148405000Y-119279706D01*
X148441404Y-119276803D01*
X148503148Y-119257682D01*
X148557121Y-119222116D01*
X148599049Y-119172922D01*
X148625612Y-119113995D01*
X148634706Y-119050000D01*
X148634706Y-117850000D01*
X148631803Y-117813596D01*
X148612682Y-117751852D01*
X148577116Y-117697879D01*
X148527922Y-117655951D01*
X148526500Y-117655310D01*
X148526500Y-117475000D01*
X148525836Y-117468230D01*
X148526524Y-117418962D01*
X148504755Y-117309019D01*
X148462046Y-117205399D01*
X148400023Y-117112048D01*
X148321050Y-117032521D01*
X148228134Y-116969849D01*
X148124815Y-116926417D01*
X148015027Y-116903881D01*
X147902953Y-116903098D01*
X147792861Y-116924100D01*
X147688945Y-116966084D01*
X147595163Y-117027453D01*
X147515087Y-117105870D01*
X147451768Y-117198346D01*
X147407616Y-117301360D01*
X147384314Y-117410987D01*
X147382749Y-117523053D01*
X147383500Y-117527145D01*
X147383500Y-117657706D01*
X147352879Y-117677884D01*
X147310951Y-117727078D01*
X147284388Y-117786005D01*
X147275294Y-117850000D01*
X146353600Y-117850000D01*
X146353600Y-107925706D01*
X148336000Y-107925706D01*
X148372404Y-107922803D01*
X148434148Y-107903682D01*
X148488121Y-107868116D01*
X148530049Y-107818922D01*
X148556612Y-107759995D01*
X148565706Y-107696000D01*
X148565706Y-105664000D01*
X148562803Y-105627596D01*
X148543682Y-105565852D01*
X148508116Y-105511879D01*
X148458922Y-105469951D01*
X148399995Y-105443388D01*
X148336000Y-105434294D01*
X146353600Y-105434294D01*
X146353600Y-104924223D01*
X146524764Y-105097419D01*
X146726827Y-105234165D01*
X146951686Y-105328863D01*
X147142200Y-105314693D01*
X147142200Y-104317800D01*
X147497800Y-104317800D01*
X147497800Y-105314693D01*
X147688314Y-105328863D01*
X147913173Y-105234165D01*
X148115236Y-105097419D01*
X148286739Y-104923880D01*
X148421091Y-104720217D01*
X148508855Y-104508312D01*
X148494063Y-104317800D01*
X147497800Y-104317800D01*
X147142200Y-104317800D01*
X147122200Y-104317800D01*
X147122200Y-103962200D01*
X147142200Y-103962200D01*
X147142200Y-103942200D01*
X147497800Y-103942200D01*
X147497800Y-103962200D01*
X148494063Y-103962200D01*
X148508855Y-103771688D01*
X148421091Y-103559783D01*
X148286739Y-103356120D01*
X148115236Y-103182581D01*
X148101965Y-103173600D01*
X156260880Y-103173600D01*
X156243388Y-103212405D01*
G36*
X155598471Y-127424617D02*
X155598471Y-130655671D01*
X155601218Y-130683683D01*
X155603672Y-130711740D01*
X155604120Y-130713281D01*
X155604276Y-130714874D01*
X155612417Y-130741839D01*
X155620269Y-130768864D01*
X155621005Y-130770284D01*
X155621469Y-130771821D01*
X155634712Y-130796727D01*
X155647645Y-130821677D01*
X155648643Y-130822928D01*
X155649397Y-130824345D01*
X155667236Y-130846219D01*
X155684757Y-130868166D01*
X155686952Y-130870393D01*
X155686994Y-130870444D01*
X155687041Y-130870483D01*
X155687745Y-130871197D01*
X156370373Y-131553825D01*
X156314719Y-131656755D01*
X156294932Y-131720676D01*
X153904800Y-129330544D01*
X153904800Y-128229072D01*
X153920612Y-128193995D01*
X153929706Y-128130000D01*
X153929706Y-127330000D01*
X153926803Y-127293596D01*
X153909839Y-127238817D01*
X153936005Y-127250612D01*
X154000000Y-127259706D01*
X154800000Y-127259706D01*
X154836404Y-127256803D01*
X154898148Y-127237682D01*
X154902522Y-127234800D01*
X155408654Y-127234800D01*
X155598471Y-127424617D01*
X155598471Y-127424617D01*
G37*
X155598471Y-127424617D02*
X155598471Y-130655671D01*
X155601218Y-130683683D01*
X155603672Y-130711740D01*
X155604120Y-130713281D01*
X155604276Y-130714874D01*
X155612417Y-130741839D01*
X155620269Y-130768864D01*
X155621005Y-130770284D01*
X155621469Y-130771821D01*
X155634712Y-130796727D01*
X155647645Y-130821677D01*
X155648643Y-130822928D01*
X155649397Y-130824345D01*
X155667236Y-130846219D01*
X155684757Y-130868166D01*
X155686952Y-130870393D01*
X155686994Y-130870444D01*
X155687041Y-130870483D01*
X155687745Y-130871197D01*
X156370373Y-131553825D01*
X156314719Y-131656755D01*
X156294932Y-131720676D01*
X153904800Y-129330544D01*
X153904800Y-128229072D01*
X153920612Y-128193995D01*
X153929706Y-128130000D01*
X153929706Y-127330000D01*
X153926803Y-127293596D01*
X153909839Y-127238817D01*
X153936005Y-127250612D01*
X154000000Y-127259706D01*
X154800000Y-127259706D01*
X154836404Y-127256803D01*
X154898148Y-127237682D01*
X154902522Y-127234800D01*
X155408654Y-127234800D01*
X155598471Y-127424617D01*
G36*
X150879388Y-127266005D02*
X150870294Y-127330000D01*
X150870294Y-128130000D01*
X150873197Y-128166404D01*
X150892318Y-128228148D01*
X150895200Y-128232522D01*
X150895200Y-128248294D01*
X150872000Y-128248294D01*
X150835596Y-128251197D01*
X150773852Y-128270318D01*
X150719879Y-128305884D01*
X150677951Y-128355078D01*
X150651388Y-128414005D01*
X150642294Y-128478000D01*
X150642294Y-129078000D01*
X150645197Y-129114404D01*
X150664318Y-129176148D01*
X150691973Y-129218116D01*
X150672508Y-129230853D01*
X150592432Y-129309270D01*
X150529113Y-129401746D01*
X150484961Y-129504760D01*
X150461659Y-129614387D01*
X150460094Y-129726453D01*
X150474538Y-129805155D01*
X149932026Y-130347667D01*
X149932026Y-128081426D01*
X150615526Y-127397926D01*
X150633424Y-127376137D01*
X150651495Y-127354602D01*
X150652268Y-127353196D01*
X150653284Y-127351959D01*
X150666594Y-127327135D01*
X150680152Y-127302473D01*
X150680636Y-127300948D01*
X150681394Y-127299534D01*
X150689630Y-127272596D01*
X150693719Y-127259706D01*
X150800000Y-127259706D01*
X150836404Y-127256803D01*
X150891183Y-127239839D01*
X150879388Y-127266005D01*
X150879388Y-127266005D01*
G37*
X150879388Y-127266005D02*
X150870294Y-127330000D01*
X150870294Y-128130000D01*
X150873197Y-128166404D01*
X150892318Y-128228148D01*
X150895200Y-128232522D01*
X150895200Y-128248294D01*
X150872000Y-128248294D01*
X150835596Y-128251197D01*
X150773852Y-128270318D01*
X150719879Y-128305884D01*
X150677951Y-128355078D01*
X150651388Y-128414005D01*
X150642294Y-128478000D01*
X150642294Y-129078000D01*
X150645197Y-129114404D01*
X150664318Y-129176148D01*
X150691973Y-129218116D01*
X150672508Y-129230853D01*
X150592432Y-129309270D01*
X150529113Y-129401746D01*
X150484961Y-129504760D01*
X150461659Y-129614387D01*
X150460094Y-129726453D01*
X150474538Y-129805155D01*
X149932026Y-130347667D01*
X149932026Y-128081426D01*
X150615526Y-127397926D01*
X150633424Y-127376137D01*
X150651495Y-127354602D01*
X150652268Y-127353196D01*
X150653284Y-127351959D01*
X150666594Y-127327135D01*
X150680152Y-127302473D01*
X150680636Y-127300948D01*
X150681394Y-127299534D01*
X150689630Y-127272596D01*
X150693719Y-127259706D01*
X150800000Y-127259706D01*
X150836404Y-127256803D01*
X150891183Y-127239839D01*
X150879388Y-127266005D01*
G36*
X153436005Y-124350612D02*
X153500000Y-124359706D01*
X153700000Y-124359706D01*
X153736404Y-124356803D01*
X153791183Y-124339839D01*
X153779388Y-124366005D01*
X153770294Y-124430000D01*
X153770294Y-124630000D01*
X153773197Y-124666404D01*
X153792318Y-124728148D01*
X153794773Y-124731874D01*
X153779388Y-124766005D01*
X153770294Y-124830000D01*
X153770294Y-125030000D01*
X153773197Y-125066404D01*
X153792318Y-125128148D01*
X153794773Y-125131874D01*
X153779388Y-125166005D01*
X153770294Y-125230000D01*
X153770294Y-125430000D01*
X153773197Y-125466404D01*
X153792318Y-125528148D01*
X153827884Y-125582121D01*
X153877078Y-125624049D01*
X153936005Y-125650612D01*
X154000000Y-125659706D01*
X154800000Y-125659706D01*
X154836404Y-125656803D01*
X154898148Y-125637682D01*
X154952121Y-125602116D01*
X154994049Y-125552922D01*
X155020612Y-125493995D01*
X155029706Y-125430000D01*
X155029706Y-125234800D01*
X156507558Y-125234800D01*
X156584745Y-125330801D01*
X156770820Y-125486936D01*
X156983678Y-125603956D01*
X157215211Y-125677403D01*
X157456601Y-125704479D01*
X157473978Y-125704600D01*
X157486022Y-125704600D01*
X157727766Y-125680897D01*
X157960302Y-125610690D01*
X158174773Y-125496654D01*
X158363010Y-125343132D01*
X158446400Y-125242330D01*
X158446400Y-125754294D01*
X156464000Y-125754294D01*
X156427596Y-125757197D01*
X156365852Y-125776318D01*
X156311879Y-125811884D01*
X156300530Y-125825200D01*
X154899072Y-125825200D01*
X154863995Y-125809388D01*
X154800000Y-125800294D01*
X154000000Y-125800294D01*
X153963596Y-125803197D01*
X153901852Y-125822318D01*
X153847879Y-125857884D01*
X153805951Y-125907078D01*
X153779388Y-125966005D01*
X153770294Y-126030000D01*
X153770294Y-126230000D01*
X153773197Y-126266404D01*
X153792318Y-126328148D01*
X153794773Y-126331874D01*
X153779388Y-126366005D01*
X153770294Y-126430000D01*
X153770294Y-126630000D01*
X153773197Y-126666404D01*
X153792318Y-126728148D01*
X153794773Y-126731874D01*
X153779388Y-126766005D01*
X153770294Y-126830000D01*
X153770294Y-127030000D01*
X153773197Y-127066404D01*
X153790161Y-127121183D01*
X153763995Y-127109388D01*
X153700000Y-127100294D01*
X153500000Y-127100294D01*
X153463596Y-127103197D01*
X153401852Y-127122318D01*
X153398126Y-127124773D01*
X153363995Y-127109388D01*
X153300000Y-127100294D01*
X153100000Y-127100294D01*
X153063596Y-127103197D01*
X153001852Y-127122318D01*
X152998126Y-127124773D01*
X152963995Y-127109388D01*
X152900000Y-127100294D01*
X152700000Y-127100294D01*
X152663596Y-127103197D01*
X152601852Y-127122318D01*
X152598126Y-127124773D01*
X152563995Y-127109388D01*
X152500000Y-127100294D01*
X152300000Y-127100294D01*
X152263596Y-127103197D01*
X152201852Y-127122318D01*
X152198126Y-127124773D01*
X152163995Y-127109388D01*
X152100000Y-127100294D01*
X151900000Y-127100294D01*
X151863596Y-127103197D01*
X151801852Y-127122318D01*
X151798126Y-127124773D01*
X151763995Y-127109388D01*
X151700000Y-127100294D01*
X151500000Y-127100294D01*
X151463596Y-127103197D01*
X151401852Y-127122318D01*
X151398126Y-127124773D01*
X151363995Y-127109388D01*
X151300000Y-127100294D01*
X151100000Y-127100294D01*
X151063596Y-127103197D01*
X151008817Y-127120161D01*
X151020612Y-127093995D01*
X151029706Y-127030000D01*
X151029706Y-126830000D01*
X151026803Y-126793596D01*
X151007682Y-126731852D01*
X151005227Y-126728126D01*
X151020612Y-126693995D01*
X151029706Y-126630000D01*
X151029706Y-126430000D01*
X151026803Y-126393596D01*
X151007682Y-126331852D01*
X151005227Y-126328126D01*
X151020612Y-126293995D01*
X151029706Y-126230000D01*
X151029706Y-126030000D01*
X151026803Y-125993596D01*
X151007682Y-125931852D01*
X150972116Y-125877879D01*
X150922922Y-125835951D01*
X150863995Y-125809388D01*
X150800000Y-125800294D01*
X150000000Y-125800294D01*
X149963596Y-125803197D01*
X149901852Y-125822318D01*
X149897478Y-125825200D01*
X149777400Y-125825200D01*
X149749388Y-125827947D01*
X149721331Y-125830401D01*
X149719790Y-125830849D01*
X149718197Y-125831005D01*
X149691232Y-125839146D01*
X149664207Y-125846998D01*
X149662787Y-125847734D01*
X149661250Y-125848198D01*
X149636344Y-125861441D01*
X149611394Y-125874374D01*
X149610143Y-125875372D01*
X149608726Y-125876126D01*
X149586877Y-125893946D01*
X149564904Y-125911486D01*
X149562676Y-125913683D01*
X149562627Y-125913723D01*
X149562589Y-125913769D01*
X149561874Y-125914474D01*
X149393653Y-126082695D01*
X149393116Y-126081879D01*
X149343922Y-126039951D01*
X149284995Y-126013388D01*
X149221000Y-126004294D01*
X149182204Y-126004294D01*
X149089822Y-125974989D01*
X148978979Y-125962556D01*
X148971000Y-125962500D01*
X148744220Y-125962500D01*
X148704520Y-125922521D01*
X148611604Y-125859849D01*
X148508285Y-125816417D01*
X148398497Y-125793881D01*
X148286423Y-125793098D01*
X148176331Y-125814100D01*
X148072415Y-125856084D01*
X148071760Y-125856513D01*
X148071760Y-125325468D01*
X148187930Y-125209298D01*
X149295846Y-125209298D01*
X149632074Y-125545526D01*
X149653804Y-125563375D01*
X149675398Y-125581495D01*
X149676807Y-125582270D01*
X149678042Y-125583284D01*
X149702860Y-125596592D01*
X149727527Y-125610152D01*
X149729050Y-125610635D01*
X149730467Y-125611395D01*
X149757465Y-125619649D01*
X149784229Y-125628139D01*
X149785819Y-125628317D01*
X149787355Y-125628787D01*
X149815444Y-125631640D01*
X149843344Y-125634770D01*
X149846468Y-125634792D01*
X149846537Y-125634799D01*
X149846601Y-125634793D01*
X149847600Y-125634800D01*
X149900928Y-125634800D01*
X149936005Y-125650612D01*
X150000000Y-125659706D01*
X150800000Y-125659706D01*
X150836404Y-125656803D01*
X150898148Y-125637682D01*
X150952121Y-125602116D01*
X150994049Y-125552922D01*
X151020612Y-125493995D01*
X151029706Y-125430000D01*
X151029706Y-125230000D01*
X151026803Y-125193596D01*
X151007682Y-125131852D01*
X151005227Y-125128126D01*
X151020612Y-125093995D01*
X151029706Y-125030000D01*
X151029706Y-124830000D01*
X151026803Y-124793596D01*
X151007682Y-124731852D01*
X151005227Y-124728126D01*
X151020612Y-124693995D01*
X151029706Y-124630000D01*
X151029706Y-124430000D01*
X151026803Y-124393596D01*
X151009839Y-124338817D01*
X151036005Y-124350612D01*
X151100000Y-124359706D01*
X151300000Y-124359706D01*
X151336404Y-124356803D01*
X151398148Y-124337682D01*
X151401874Y-124335227D01*
X151436005Y-124350612D01*
X151500000Y-124359706D01*
X151700000Y-124359706D01*
X151736404Y-124356803D01*
X151798148Y-124337682D01*
X151801874Y-124335227D01*
X151836005Y-124350612D01*
X151900000Y-124359706D01*
X152100000Y-124359706D01*
X152136404Y-124356803D01*
X152198148Y-124337682D01*
X152201874Y-124335227D01*
X152236005Y-124350612D01*
X152300000Y-124359706D01*
X152500000Y-124359706D01*
X152536404Y-124356803D01*
X152598148Y-124337682D01*
X152601874Y-124335227D01*
X152636005Y-124350612D01*
X152700000Y-124359706D01*
X152900000Y-124359706D01*
X152936404Y-124356803D01*
X152998148Y-124337682D01*
X153001874Y-124335227D01*
X153036005Y-124350612D01*
X153100000Y-124359706D01*
X153300000Y-124359706D01*
X153336404Y-124356803D01*
X153398148Y-124337682D01*
X153401874Y-124335227D01*
X153436005Y-124350612D01*
X153436005Y-124350612D01*
G37*
X153436005Y-124350612D02*
X153500000Y-124359706D01*
X153700000Y-124359706D01*
X153736404Y-124356803D01*
X153791183Y-124339839D01*
X153779388Y-124366005D01*
X153770294Y-124430000D01*
X153770294Y-124630000D01*
X153773197Y-124666404D01*
X153792318Y-124728148D01*
X153794773Y-124731874D01*
X153779388Y-124766005D01*
X153770294Y-124830000D01*
X153770294Y-125030000D01*
X153773197Y-125066404D01*
X153792318Y-125128148D01*
X153794773Y-125131874D01*
X153779388Y-125166005D01*
X153770294Y-125230000D01*
X153770294Y-125430000D01*
X153773197Y-125466404D01*
X153792318Y-125528148D01*
X153827884Y-125582121D01*
X153877078Y-125624049D01*
X153936005Y-125650612D01*
X154000000Y-125659706D01*
X154800000Y-125659706D01*
X154836404Y-125656803D01*
X154898148Y-125637682D01*
X154952121Y-125602116D01*
X154994049Y-125552922D01*
X155020612Y-125493995D01*
X155029706Y-125430000D01*
X155029706Y-125234800D01*
X156507558Y-125234800D01*
X156584745Y-125330801D01*
X156770820Y-125486936D01*
X156983678Y-125603956D01*
X157215211Y-125677403D01*
X157456601Y-125704479D01*
X157473978Y-125704600D01*
X157486022Y-125704600D01*
X157727766Y-125680897D01*
X157960302Y-125610690D01*
X158174773Y-125496654D01*
X158363010Y-125343132D01*
X158446400Y-125242330D01*
X158446400Y-125754294D01*
X156464000Y-125754294D01*
X156427596Y-125757197D01*
X156365852Y-125776318D01*
X156311879Y-125811884D01*
X156300530Y-125825200D01*
X154899072Y-125825200D01*
X154863995Y-125809388D01*
X154800000Y-125800294D01*
X154000000Y-125800294D01*
X153963596Y-125803197D01*
X153901852Y-125822318D01*
X153847879Y-125857884D01*
X153805951Y-125907078D01*
X153779388Y-125966005D01*
X153770294Y-126030000D01*
X153770294Y-126230000D01*
X153773197Y-126266404D01*
X153792318Y-126328148D01*
X153794773Y-126331874D01*
X153779388Y-126366005D01*
X153770294Y-126430000D01*
X153770294Y-126630000D01*
X153773197Y-126666404D01*
X153792318Y-126728148D01*
X153794773Y-126731874D01*
X153779388Y-126766005D01*
X153770294Y-126830000D01*
X153770294Y-127030000D01*
X153773197Y-127066404D01*
X153790161Y-127121183D01*
X153763995Y-127109388D01*
X153700000Y-127100294D01*
X153500000Y-127100294D01*
X153463596Y-127103197D01*
X153401852Y-127122318D01*
X153398126Y-127124773D01*
X153363995Y-127109388D01*
X153300000Y-127100294D01*
X153100000Y-127100294D01*
X153063596Y-127103197D01*
X153001852Y-127122318D01*
X152998126Y-127124773D01*
X152963995Y-127109388D01*
X152900000Y-127100294D01*
X152700000Y-127100294D01*
X152663596Y-127103197D01*
X152601852Y-127122318D01*
X152598126Y-127124773D01*
X152563995Y-127109388D01*
X152500000Y-127100294D01*
X152300000Y-127100294D01*
X152263596Y-127103197D01*
X152201852Y-127122318D01*
X152198126Y-127124773D01*
X152163995Y-127109388D01*
X152100000Y-127100294D01*
X151900000Y-127100294D01*
X151863596Y-127103197D01*
X151801852Y-127122318D01*
X151798126Y-127124773D01*
X151763995Y-127109388D01*
X151700000Y-127100294D01*
X151500000Y-127100294D01*
X151463596Y-127103197D01*
X151401852Y-127122318D01*
X151398126Y-127124773D01*
X151363995Y-127109388D01*
X151300000Y-127100294D01*
X151100000Y-127100294D01*
X151063596Y-127103197D01*
X151008817Y-127120161D01*
X151020612Y-127093995D01*
X151029706Y-127030000D01*
X151029706Y-126830000D01*
X151026803Y-126793596D01*
X151007682Y-126731852D01*
X151005227Y-126728126D01*
X151020612Y-126693995D01*
X151029706Y-126630000D01*
X151029706Y-126430000D01*
X151026803Y-126393596D01*
X151007682Y-126331852D01*
X151005227Y-126328126D01*
X151020612Y-126293995D01*
X151029706Y-126230000D01*
X151029706Y-126030000D01*
X151026803Y-125993596D01*
X151007682Y-125931852D01*
X150972116Y-125877879D01*
X150922922Y-125835951D01*
X150863995Y-125809388D01*
X150800000Y-125800294D01*
X150000000Y-125800294D01*
X149963596Y-125803197D01*
X149901852Y-125822318D01*
X149897478Y-125825200D01*
X149777400Y-125825200D01*
X149749388Y-125827947D01*
X149721331Y-125830401D01*
X149719790Y-125830849D01*
X149718197Y-125831005D01*
X149691232Y-125839146D01*
X149664207Y-125846998D01*
X149662787Y-125847734D01*
X149661250Y-125848198D01*
X149636344Y-125861441D01*
X149611394Y-125874374D01*
X149610143Y-125875372D01*
X149608726Y-125876126D01*
X149586877Y-125893946D01*
X149564904Y-125911486D01*
X149562676Y-125913683D01*
X149562627Y-125913723D01*
X149562589Y-125913769D01*
X149561874Y-125914474D01*
X149393653Y-126082695D01*
X149393116Y-126081879D01*
X149343922Y-126039951D01*
X149284995Y-126013388D01*
X149221000Y-126004294D01*
X149182204Y-126004294D01*
X149089822Y-125974989D01*
X148978979Y-125962556D01*
X148971000Y-125962500D01*
X148744220Y-125962500D01*
X148704520Y-125922521D01*
X148611604Y-125859849D01*
X148508285Y-125816417D01*
X148398497Y-125793881D01*
X148286423Y-125793098D01*
X148176331Y-125814100D01*
X148072415Y-125856084D01*
X148071760Y-125856513D01*
X148071760Y-125325468D01*
X148187930Y-125209298D01*
X149295846Y-125209298D01*
X149632074Y-125545526D01*
X149653804Y-125563375D01*
X149675398Y-125581495D01*
X149676807Y-125582270D01*
X149678042Y-125583284D01*
X149702860Y-125596592D01*
X149727527Y-125610152D01*
X149729050Y-125610635D01*
X149730467Y-125611395D01*
X149757465Y-125619649D01*
X149784229Y-125628139D01*
X149785819Y-125628317D01*
X149787355Y-125628787D01*
X149815444Y-125631640D01*
X149843344Y-125634770D01*
X149846468Y-125634792D01*
X149846537Y-125634799D01*
X149846601Y-125634793D01*
X149847600Y-125634800D01*
X149900928Y-125634800D01*
X149936005Y-125650612D01*
X150000000Y-125659706D01*
X150800000Y-125659706D01*
X150836404Y-125656803D01*
X150898148Y-125637682D01*
X150952121Y-125602116D01*
X150994049Y-125552922D01*
X151020612Y-125493995D01*
X151029706Y-125430000D01*
X151029706Y-125230000D01*
X151026803Y-125193596D01*
X151007682Y-125131852D01*
X151005227Y-125128126D01*
X151020612Y-125093995D01*
X151029706Y-125030000D01*
X151029706Y-124830000D01*
X151026803Y-124793596D01*
X151007682Y-124731852D01*
X151005227Y-124728126D01*
X151020612Y-124693995D01*
X151029706Y-124630000D01*
X151029706Y-124430000D01*
X151026803Y-124393596D01*
X151009839Y-124338817D01*
X151036005Y-124350612D01*
X151100000Y-124359706D01*
X151300000Y-124359706D01*
X151336404Y-124356803D01*
X151398148Y-124337682D01*
X151401874Y-124335227D01*
X151436005Y-124350612D01*
X151500000Y-124359706D01*
X151700000Y-124359706D01*
X151736404Y-124356803D01*
X151798148Y-124337682D01*
X151801874Y-124335227D01*
X151836005Y-124350612D01*
X151900000Y-124359706D01*
X152100000Y-124359706D01*
X152136404Y-124356803D01*
X152198148Y-124337682D01*
X152201874Y-124335227D01*
X152236005Y-124350612D01*
X152300000Y-124359706D01*
X152500000Y-124359706D01*
X152536404Y-124356803D01*
X152598148Y-124337682D01*
X152601874Y-124335227D01*
X152636005Y-124350612D01*
X152700000Y-124359706D01*
X152900000Y-124359706D01*
X152936404Y-124356803D01*
X152998148Y-124337682D01*
X153001874Y-124335227D01*
X153036005Y-124350612D01*
X153100000Y-124359706D01*
X153300000Y-124359706D01*
X153336404Y-124356803D01*
X153398148Y-124337682D01*
X153401874Y-124335227D01*
X153436005Y-124350612D01*
G36*
X158446400Y-121190194D02*
X158418769Y-121155828D01*
X158255479Y-121018811D01*
X158068685Y-120916120D01*
X157865503Y-120851667D01*
X157653671Y-120827906D01*
X157638422Y-120827800D01*
X157321578Y-120827800D01*
X157109435Y-120848601D01*
X156905373Y-120910211D01*
X156717164Y-121010283D01*
X156551977Y-121145007D01*
X156416103Y-121309250D01*
X156314719Y-121496755D01*
X156251686Y-121700383D01*
X156229405Y-121912375D01*
X156248724Y-122124658D01*
X156308908Y-122329145D01*
X156407664Y-122518049D01*
X156541231Y-122684172D01*
X156704521Y-122821189D01*
X156767377Y-122855745D01*
X155397922Y-124225200D01*
X154899072Y-124225200D01*
X154863995Y-124209388D01*
X154800000Y-124200294D01*
X154000000Y-124200294D01*
X153963596Y-124203197D01*
X153908817Y-124220161D01*
X153920612Y-124193995D01*
X153929706Y-124130000D01*
X153929706Y-123330000D01*
X153926803Y-123293596D01*
X153907682Y-123231852D01*
X153904800Y-123227478D01*
X153904800Y-123063902D01*
X156695273Y-120273429D01*
X156704521Y-120281189D01*
X156891315Y-120383880D01*
X157094497Y-120448333D01*
X157306329Y-120472094D01*
X157321578Y-120472200D01*
X157638422Y-120472200D01*
X157850565Y-120451399D01*
X158054627Y-120389789D01*
X158242836Y-120289717D01*
X158408023Y-120154993D01*
X158446400Y-120108603D01*
X158446400Y-121190194D01*
X158446400Y-121190194D01*
G37*
X158446400Y-121190194D02*
X158418769Y-121155828D01*
X158255479Y-121018811D01*
X158068685Y-120916120D01*
X157865503Y-120851667D01*
X157653671Y-120827906D01*
X157638422Y-120827800D01*
X157321578Y-120827800D01*
X157109435Y-120848601D01*
X156905373Y-120910211D01*
X156717164Y-121010283D01*
X156551977Y-121145007D01*
X156416103Y-121309250D01*
X156314719Y-121496755D01*
X156251686Y-121700383D01*
X156229405Y-121912375D01*
X156248724Y-122124658D01*
X156308908Y-122329145D01*
X156407664Y-122518049D01*
X156541231Y-122684172D01*
X156704521Y-122821189D01*
X156767377Y-122855745D01*
X155397922Y-124225200D01*
X154899072Y-124225200D01*
X154863995Y-124209388D01*
X154800000Y-124200294D01*
X154000000Y-124200294D01*
X153963596Y-124203197D01*
X153908817Y-124220161D01*
X153920612Y-124193995D01*
X153929706Y-124130000D01*
X153929706Y-123330000D01*
X153926803Y-123293596D01*
X153907682Y-123231852D01*
X153904800Y-123227478D01*
X153904800Y-123063902D01*
X156695273Y-120273429D01*
X156704521Y-120281189D01*
X156891315Y-120383880D01*
X157094497Y-120448333D01*
X157306329Y-120472094D01*
X157321578Y-120472200D01*
X157638422Y-120472200D01*
X157850565Y-120451399D01*
X158054627Y-120389789D01*
X158242836Y-120289717D01*
X158408023Y-120154993D01*
X158446400Y-120108603D01*
X158446400Y-121190194D01*
M02*
