M48
;DRILL file {KiCad 4.0.1-stable} date Thursday, March 10, 2016 'AMt' 12:01:08 AM
;FORMAT={-:-/ absolute / inch / decimal}
FMAT,2
INCH,TZ
T1C0.013
T2C0.040
%
G90
G05
M72
T1
X5.825Y-4.625
X5.8401Y-4.975
X5.8401Y-4.94
X5.9133Y-5.1
X5.9289Y-5.5279
X5.9462Y-5.1054
X5.955Y-5.14
X5.97Y-5.63
X6.115Y-4.835
X6.115Y-4.9432
X6.115Y-5.065
T2
X5.8Y-4.1
X5.8Y-4.2
X5.805Y-5.3
X5.805Y-5.4
X5.805Y-5.5
X5.805Y-5.6
X5.805Y-5.7
X5.805Y-5.8
X6.2Y-4.1
X6.2Y-4.2
X6.2Y-4.3
X6.2Y-4.4
X6.2Y-4.5
X6.2Y-4.6
X6.2Y-4.7
X6.2Y-4.8
X6.2Y-4.9
X6.2Y-5.
X6.2Y-5.1
X6.2Y-5.2
X6.2Y-5.3
X6.2Y-5.4
X6.2Y-5.5
X6.2Y-5.6
X6.2Y-5.7
X6.2Y-5.8
T0
M30
