G04 #@! TF.FileFunction,Other,Fab,Top*
%FSLAX46Y46*%
G04 Gerber Fmt 4.6, Leading zero omitted, Abs format (unit mm)*
G04 Created by KiCad (PCBNEW 4.0.1-stable) date Wednesday, February 10, 2016 'PMt' 10:25:42 PM*
%MOMM*%
G01*
G04 APERTURE LIST*
%ADD10C,0.100000*%
%ADD11C,0.300000*%
%ADD12C,0.076200*%
G04 APERTURE END LIST*
D10*
D11*
X163158571Y-89482856D02*
X163158571Y-90339999D01*
X163158571Y-89911427D02*
X161658571Y-89911427D01*
X161872857Y-90054284D01*
X162015714Y-90197142D01*
X162087143Y-90339999D01*
X163015714Y-88839999D02*
X163087143Y-88768571D01*
X163158571Y-88839999D01*
X163087143Y-88911428D01*
X163015714Y-88839999D01*
X163158571Y-88839999D01*
X161801429Y-88197142D02*
X161730000Y-88125713D01*
X161658571Y-87982856D01*
X161658571Y-87625713D01*
X161730000Y-87482856D01*
X161801429Y-87411427D01*
X161944286Y-87339999D01*
X162087143Y-87339999D01*
X162301429Y-87411427D01*
X163158571Y-88268570D01*
X163158571Y-87339999D01*
X161658571Y-86411428D02*
X161658571Y-86268571D01*
X161730000Y-86125714D01*
X161801429Y-86054285D01*
X161944286Y-85982856D01*
X162230000Y-85911428D01*
X162587143Y-85911428D01*
X162872857Y-85982856D01*
X163015714Y-86054285D01*
X163087143Y-86125714D01*
X163158571Y-86268571D01*
X163158571Y-86411428D01*
X163087143Y-86554285D01*
X163015714Y-86625714D01*
X162872857Y-86697142D01*
X162587143Y-86768571D01*
X162230000Y-86768571D01*
X161944286Y-86697142D01*
X161801429Y-86625714D01*
X161730000Y-86554285D01*
X161658571Y-86411428D01*
X161658571Y-84982857D02*
X161658571Y-84840000D01*
X161730000Y-84697143D01*
X161801429Y-84625714D01*
X161944286Y-84554285D01*
X162230000Y-84482857D01*
X162587143Y-84482857D01*
X162872857Y-84554285D01*
X163015714Y-84625714D01*
X163087143Y-84697143D01*
X163158571Y-84840000D01*
X163158571Y-84982857D01*
X163087143Y-85125714D01*
X163015714Y-85197143D01*
X162872857Y-85268571D01*
X162587143Y-85340000D01*
X162230000Y-85340000D01*
X161944286Y-85268571D01*
X161801429Y-85197143D01*
X161730000Y-85125714D01*
X161658571Y-84982857D01*
X161658571Y-83554286D02*
X161658571Y-83411429D01*
X161730000Y-83268572D01*
X161801429Y-83197143D01*
X161944286Y-83125714D01*
X162230000Y-83054286D01*
X162587143Y-83054286D01*
X162872857Y-83125714D01*
X163015714Y-83197143D01*
X163087143Y-83268572D01*
X163158571Y-83411429D01*
X163158571Y-83554286D01*
X163087143Y-83697143D01*
X163015714Y-83768572D01*
X162872857Y-83840000D01*
X162587143Y-83911429D01*
X162230000Y-83911429D01*
X161944286Y-83840000D01*
X161801429Y-83768572D01*
X161730000Y-83697143D01*
X161658571Y-83554286D01*
X163158571Y-81268572D02*
X162158571Y-81268572D01*
X161658571Y-81268572D02*
X161730000Y-81340001D01*
X161801429Y-81268572D01*
X161730000Y-81197144D01*
X161658571Y-81268572D01*
X161801429Y-81268572D01*
X162158571Y-80554286D02*
X163158571Y-80554286D01*
X162301429Y-80554286D02*
X162230000Y-80482858D01*
X162158571Y-80340000D01*
X162158571Y-80125715D01*
X162230000Y-79982858D01*
X162372857Y-79911429D01*
X163158571Y-79911429D01*
X163830000Y-100330000D02*
X163830000Y-69850000D01*
X165100000Y-100330000D02*
X161130000Y-100330000D01*
X165100000Y-69850000D02*
X161130000Y-69850000D01*
X163830000Y-69850000D02*
X164416421Y-70976504D01*
X163830000Y-69850000D02*
X163243579Y-70976504D01*
X163830000Y-100330000D02*
X164416421Y-99203496D01*
X163830000Y-100330000D02*
X163243579Y-99203496D01*
X189060001Y-62741429D02*
X189131430Y-62670000D01*
X189274287Y-62598571D01*
X189631430Y-62598571D01*
X189774287Y-62670000D01*
X189845716Y-62741429D01*
X189917144Y-62884286D01*
X189917144Y-63027143D01*
X189845716Y-63241429D01*
X188988573Y-64098571D01*
X189917144Y-64098571D01*
X190560001Y-63955714D02*
X190631429Y-64027143D01*
X190560001Y-64098571D01*
X190488572Y-64027143D01*
X190560001Y-63955714D01*
X190560001Y-64098571D01*
X191560001Y-62598571D02*
X191702858Y-62598571D01*
X191845715Y-62670000D01*
X191917144Y-62741429D01*
X191988573Y-62884286D01*
X192060001Y-63170000D01*
X192060001Y-63527143D01*
X191988573Y-63812857D01*
X191917144Y-63955714D01*
X191845715Y-64027143D01*
X191702858Y-64098571D01*
X191560001Y-64098571D01*
X191417144Y-64027143D01*
X191345715Y-63955714D01*
X191274287Y-63812857D01*
X191202858Y-63527143D01*
X191202858Y-63170000D01*
X191274287Y-62884286D01*
X191345715Y-62741429D01*
X191417144Y-62670000D01*
X191560001Y-62598571D01*
X192988572Y-62598571D02*
X193131429Y-62598571D01*
X193274286Y-62670000D01*
X193345715Y-62741429D01*
X193417144Y-62884286D01*
X193488572Y-63170000D01*
X193488572Y-63527143D01*
X193417144Y-63812857D01*
X193345715Y-63955714D01*
X193274286Y-64027143D01*
X193131429Y-64098571D01*
X192988572Y-64098571D01*
X192845715Y-64027143D01*
X192774286Y-63955714D01*
X192702858Y-63812857D01*
X192631429Y-63527143D01*
X192631429Y-63170000D01*
X192702858Y-62884286D01*
X192774286Y-62741429D01*
X192845715Y-62670000D01*
X192988572Y-62598571D01*
X194417143Y-62598571D02*
X194560000Y-62598571D01*
X194702857Y-62670000D01*
X194774286Y-62741429D01*
X194845715Y-62884286D01*
X194917143Y-63170000D01*
X194917143Y-63527143D01*
X194845715Y-63812857D01*
X194774286Y-63955714D01*
X194702857Y-64027143D01*
X194560000Y-64098571D01*
X194417143Y-64098571D01*
X194274286Y-64027143D01*
X194202857Y-63955714D01*
X194131429Y-63812857D01*
X194060000Y-63527143D01*
X194060000Y-63170000D01*
X194131429Y-62884286D01*
X194202857Y-62741429D01*
X194274286Y-62670000D01*
X194417143Y-62598571D01*
X195845714Y-62598571D02*
X195988571Y-62598571D01*
X196131428Y-62670000D01*
X196202857Y-62741429D01*
X196274286Y-62884286D01*
X196345714Y-63170000D01*
X196345714Y-63527143D01*
X196274286Y-63812857D01*
X196202857Y-63955714D01*
X196131428Y-64027143D01*
X195988571Y-64098571D01*
X195845714Y-64098571D01*
X195702857Y-64027143D01*
X195631428Y-63955714D01*
X195560000Y-63812857D01*
X195488571Y-63527143D01*
X195488571Y-63170000D01*
X195560000Y-62884286D01*
X195631428Y-62741429D01*
X195702857Y-62670000D01*
X195845714Y-62598571D01*
X198131428Y-64098571D02*
X198131428Y-63098571D01*
X198131428Y-62598571D02*
X198059999Y-62670000D01*
X198131428Y-62741429D01*
X198202856Y-62670000D01*
X198131428Y-62598571D01*
X198131428Y-62741429D01*
X198845714Y-63098571D02*
X198845714Y-64098571D01*
X198845714Y-63241429D02*
X198917142Y-63170000D01*
X199060000Y-63098571D01*
X199274285Y-63098571D01*
X199417142Y-63170000D01*
X199488571Y-63312857D01*
X199488571Y-64098571D01*
X219710000Y-64770000D02*
X168910000Y-64770000D01*
X219710000Y-66040000D02*
X219710000Y-62070000D01*
X168910000Y-66040000D02*
X168910000Y-62070000D01*
X168910000Y-64770000D02*
X170036504Y-64183579D01*
X168910000Y-64770000D02*
X170036504Y-65356421D01*
X219710000Y-64770000D02*
X218583496Y-64183579D01*
X219710000Y-64770000D02*
X218583496Y-65356421D01*
D12*
X205288761Y-82957810D02*
X205337142Y-82957810D01*
X205385523Y-82982000D01*
X205409714Y-83006190D01*
X205433904Y-83054571D01*
X205458095Y-83151333D01*
X205458095Y-83272286D01*
X205433904Y-83369048D01*
X205409714Y-83417429D01*
X205385523Y-83441619D01*
X205337142Y-83465810D01*
X205288761Y-83465810D01*
X205240380Y-83441619D01*
X205216190Y-83417429D01*
X205191999Y-83369048D01*
X205167809Y-83272286D01*
X205167809Y-83151333D01*
X205191999Y-83054571D01*
X205216190Y-83006190D01*
X205240380Y-82982000D01*
X205288761Y-82957810D01*
X205675809Y-83417429D02*
X205700000Y-83441619D01*
X205675809Y-83465810D01*
X205651619Y-83441619D01*
X205675809Y-83417429D01*
X205675809Y-83465810D01*
X206014476Y-82957810D02*
X206062857Y-82957810D01*
X206111238Y-82982000D01*
X206135429Y-83006190D01*
X206159619Y-83054571D01*
X206183810Y-83151333D01*
X206183810Y-83272286D01*
X206159619Y-83369048D01*
X206135429Y-83417429D01*
X206111238Y-83441619D01*
X206062857Y-83465810D01*
X206014476Y-83465810D01*
X205966095Y-83441619D01*
X205941905Y-83417429D01*
X205917714Y-83369048D01*
X205893524Y-83272286D01*
X205893524Y-83151333D01*
X205917714Y-83054571D01*
X205941905Y-83006190D01*
X205966095Y-82982000D01*
X206014476Y-82957810D01*
X206667620Y-83465810D02*
X206377334Y-83465810D01*
X206522477Y-83465810D02*
X206522477Y-82957810D01*
X206474096Y-83030381D01*
X206425715Y-83078762D01*
X206377334Y-83102952D01*
X206861144Y-83465810D02*
X207248192Y-82957810D01*
X206933715Y-82957810D02*
X206982096Y-82982000D01*
X207006287Y-83030381D01*
X206982096Y-83078762D01*
X206933715Y-83102952D01*
X206885334Y-83078762D01*
X206861144Y-83030381D01*
X206885334Y-82982000D01*
X206933715Y-82957810D01*
X207224001Y-83441619D02*
X207248192Y-83393238D01*
X207224001Y-83344857D01*
X207175620Y-83320667D01*
X207127239Y-83344857D01*
X207103049Y-83393238D01*
X207127239Y-83441619D01*
X207175620Y-83465810D01*
X207224001Y-83441619D01*
X197285429Y-82871714D02*
X197309619Y-82847524D01*
X197333810Y-82871714D01*
X197309619Y-82895905D01*
X197285429Y-82871714D01*
X197333810Y-82871714D01*
X196850000Y-82968476D02*
X196825810Y-82920095D01*
X196825810Y-82799143D01*
X196850000Y-82750762D01*
X196898381Y-82726571D01*
X196946762Y-82726571D01*
X196995143Y-82750762D01*
X197019333Y-82774952D01*
X197043524Y-82823333D01*
X197067714Y-82847524D01*
X197116095Y-82871714D01*
X197140286Y-82871714D01*
X196995143Y-82508857D02*
X197503143Y-82508857D01*
X197019333Y-82508857D02*
X196995143Y-82460476D01*
X196995143Y-82363714D01*
X197019333Y-82315333D01*
X197043524Y-82291142D01*
X197091905Y-82266952D01*
X197237048Y-82266952D01*
X197285429Y-82291142D01*
X197309619Y-82315333D01*
X197333810Y-82363714D01*
X197333810Y-82460476D01*
X197309619Y-82508857D01*
X197067714Y-81879904D02*
X197067714Y-82049238D01*
X197333810Y-82049238D02*
X196825810Y-82049238D01*
X196825810Y-81807333D01*
X193655714Y-97663714D02*
X193728285Y-97687905D01*
X193752476Y-97712095D01*
X193776666Y-97760476D01*
X193776666Y-97833048D01*
X193752476Y-97881429D01*
X193728285Y-97905619D01*
X193679904Y-97929810D01*
X193486380Y-97929810D01*
X193486380Y-97421810D01*
X193655714Y-97421810D01*
X193704095Y-97446000D01*
X193728285Y-97470190D01*
X193752476Y-97518571D01*
X193752476Y-97566952D01*
X193728285Y-97615333D01*
X193704095Y-97639524D01*
X193655714Y-97663714D01*
X193486380Y-97663714D01*
X193994380Y-97929810D02*
X193994380Y-97421810D01*
X194212095Y-97784667D02*
X194454000Y-97784667D01*
X194163714Y-97929810D02*
X194333047Y-97421810D01*
X194502381Y-97929810D01*
X194647524Y-97905619D02*
X194720095Y-97929810D01*
X194841048Y-97929810D01*
X194889429Y-97905619D01*
X194913619Y-97881429D01*
X194937810Y-97833048D01*
X194937810Y-97784667D01*
X194913619Y-97736286D01*
X194889429Y-97712095D01*
X194841048Y-97687905D01*
X194744286Y-97663714D01*
X194695905Y-97639524D01*
X194671714Y-97615333D01*
X194647524Y-97566952D01*
X194647524Y-97518571D01*
X194671714Y-97470190D01*
X194695905Y-97446000D01*
X194744286Y-97421810D01*
X194865238Y-97421810D01*
X194937810Y-97446000D01*
X192701333Y-94209810D02*
X192701333Y-93701810D01*
X192870667Y-94064667D01*
X193040000Y-93701810D01*
X193040000Y-94209810D01*
X193281904Y-93943714D02*
X193451238Y-93943714D01*
X193523809Y-94209810D02*
X193281904Y-94209810D01*
X193281904Y-93701810D01*
X193523809Y-93701810D01*
X193717333Y-94064667D02*
X193959238Y-94064667D01*
X193668952Y-94209810D02*
X193838285Y-93701810D01*
X194007619Y-94209810D01*
X194152762Y-94185619D02*
X194225333Y-94209810D01*
X194346286Y-94209810D01*
X194394667Y-94185619D01*
X194418857Y-94161429D01*
X194443048Y-94113048D01*
X194443048Y-94064667D01*
X194418857Y-94016286D01*
X194394667Y-93992095D01*
X194346286Y-93967905D01*
X194249524Y-93943714D01*
X194201143Y-93919524D01*
X194176952Y-93895333D01*
X194152762Y-93846952D01*
X194152762Y-93798571D01*
X194176952Y-93750190D01*
X194201143Y-93726000D01*
X194249524Y-93701810D01*
X194370476Y-93701810D01*
X194443048Y-93726000D01*
X194660762Y-93701810D02*
X194660762Y-94113048D01*
X194684953Y-94161429D01*
X194709143Y-94185619D01*
X194757524Y-94209810D01*
X194854286Y-94209810D01*
X194902667Y-94185619D01*
X194926858Y-94161429D01*
X194951048Y-94113048D01*
X194951048Y-93701810D01*
X195483238Y-94209810D02*
X195313905Y-93967905D01*
X195192952Y-94209810D02*
X195192952Y-93701810D01*
X195386476Y-93701810D01*
X195434857Y-93726000D01*
X195459048Y-93750190D01*
X195483238Y-93798571D01*
X195483238Y-93871143D01*
X195459048Y-93919524D01*
X195434857Y-93943714D01*
X195386476Y-93967905D01*
X195192952Y-93967905D01*
X195700952Y-93943714D02*
X195870286Y-93943714D01*
X195942857Y-94209810D02*
X195700952Y-94209810D01*
X195700952Y-93701810D01*
X195942857Y-93701810D01*
X188552667Y-71349810D02*
X188552667Y-70841810D01*
X188746191Y-70841810D01*
X188794572Y-70866000D01*
X188818763Y-70890190D01*
X188842953Y-70938571D01*
X188842953Y-71011143D01*
X188818763Y-71059524D01*
X188794572Y-71083714D01*
X188746191Y-71107905D01*
X188552667Y-71107905D01*
X189012286Y-70841810D02*
X189133239Y-71349810D01*
X189230001Y-70986952D01*
X189326763Y-71349810D01*
X189447715Y-70841810D01*
X189931524Y-71349810D02*
X189762191Y-71107905D01*
X189641238Y-71349810D02*
X189641238Y-70841810D01*
X189834762Y-70841810D01*
X189883143Y-70866000D01*
X189907334Y-70890190D01*
X189931524Y-70938571D01*
X189931524Y-71011143D01*
X189907334Y-71059524D01*
X189883143Y-71083714D01*
X189834762Y-71107905D01*
X189641238Y-71107905D01*
X204699810Y-72365810D02*
X204699810Y-71857810D01*
X205304573Y-71833619D02*
X204869144Y-72486762D01*
X205570667Y-71857810D02*
X205667429Y-71857810D01*
X205715810Y-71882000D01*
X205764191Y-71930381D01*
X205788382Y-72027143D01*
X205788382Y-72196476D01*
X205764191Y-72293238D01*
X205715810Y-72341619D01*
X205667429Y-72365810D01*
X205570667Y-72365810D01*
X205522286Y-72341619D01*
X205473905Y-72293238D01*
X205449715Y-72196476D01*
X205449715Y-72027143D01*
X205473905Y-71930381D01*
X205522286Y-71882000D01*
X205570667Y-71857810D01*
X176965427Y-79731810D02*
X176965427Y-79223810D01*
X177134761Y-79586667D01*
X177304094Y-79223810D01*
X177304094Y-79731810D01*
X177521808Y-79586667D02*
X177763713Y-79586667D01*
X177473427Y-79731810D02*
X177642760Y-79223810D01*
X177812094Y-79731810D01*
X177933046Y-79223810D02*
X178271713Y-79731810D01*
X178271713Y-79223810D02*
X177933046Y-79731810D01*
X178682952Y-79393143D02*
X178682952Y-79731810D01*
X178561999Y-79199619D02*
X178441047Y-79562476D01*
X178755523Y-79562476D01*
X178924857Y-79272190D02*
X178949047Y-79248000D01*
X178997428Y-79223810D01*
X179118381Y-79223810D01*
X179166762Y-79248000D01*
X179190952Y-79272190D01*
X179215143Y-79320571D01*
X179215143Y-79368952D01*
X179190952Y-79441524D01*
X178900666Y-79731810D01*
X179215143Y-79731810D01*
X179529619Y-79223810D02*
X179578000Y-79223810D01*
X179626381Y-79248000D01*
X179650572Y-79272190D01*
X179674762Y-79320571D01*
X179698953Y-79417333D01*
X179698953Y-79538286D01*
X179674762Y-79635048D01*
X179650572Y-79683429D01*
X179626381Y-79707619D01*
X179578000Y-79731810D01*
X179529619Y-79731810D01*
X179481238Y-79707619D01*
X179457048Y-79683429D01*
X179432857Y-79635048D01*
X179408667Y-79538286D01*
X179408667Y-79417333D01*
X179432857Y-79320571D01*
X179457048Y-79272190D01*
X179481238Y-79248000D01*
X179529619Y-79223810D01*
X179989239Y-79441524D02*
X179940858Y-79417333D01*
X179916667Y-79393143D01*
X179892477Y-79344762D01*
X179892477Y-79320571D01*
X179916667Y-79272190D01*
X179940858Y-79248000D01*
X179989239Y-79223810D01*
X180086001Y-79223810D01*
X180134382Y-79248000D01*
X180158572Y-79272190D01*
X180182763Y-79320571D01*
X180182763Y-79344762D01*
X180158572Y-79393143D01*
X180134382Y-79417333D01*
X180086001Y-79441524D01*
X179989239Y-79441524D01*
X179940858Y-79465714D01*
X179916667Y-79489905D01*
X179892477Y-79538286D01*
X179892477Y-79635048D01*
X179916667Y-79683429D01*
X179940858Y-79707619D01*
X179989239Y-79731810D01*
X180086001Y-79731810D01*
X180134382Y-79707619D01*
X180158572Y-79683429D01*
X180182763Y-79635048D01*
X180182763Y-79538286D01*
X180158572Y-79489905D01*
X180134382Y-79465714D01*
X180086001Y-79441524D01*
X176922529Y-86589810D02*
X176922529Y-86081810D01*
X177091863Y-86444667D01*
X177261196Y-86081810D01*
X177261196Y-86589810D01*
X177478910Y-86444667D02*
X177720815Y-86444667D01*
X177430529Y-86589810D02*
X177599862Y-86081810D01*
X177769196Y-86589810D01*
X177890148Y-86081810D02*
X178228815Y-86589810D01*
X178228815Y-86081810D02*
X177890148Y-86589810D01*
X178640054Y-86251143D02*
X178640054Y-86589810D01*
X178519101Y-86057619D02*
X178398149Y-86420476D01*
X178712625Y-86420476D01*
X178881959Y-86130190D02*
X178906149Y-86106000D01*
X178954530Y-86081810D01*
X179075483Y-86081810D01*
X179123864Y-86106000D01*
X179148054Y-86130190D01*
X179172245Y-86178571D01*
X179172245Y-86226952D01*
X179148054Y-86299524D01*
X178857768Y-86589810D01*
X179172245Y-86589810D01*
X179486721Y-86081810D02*
X179535102Y-86081810D01*
X179583483Y-86106000D01*
X179607674Y-86130190D01*
X179631864Y-86178571D01*
X179656055Y-86275333D01*
X179656055Y-86396286D01*
X179631864Y-86493048D01*
X179607674Y-86541429D01*
X179583483Y-86565619D01*
X179535102Y-86589810D01*
X179486721Y-86589810D01*
X179438340Y-86565619D01*
X179414150Y-86541429D01*
X179389959Y-86493048D01*
X179365769Y-86396286D01*
X179365769Y-86275333D01*
X179389959Y-86178571D01*
X179414150Y-86130190D01*
X179438340Y-86106000D01*
X179486721Y-86081810D01*
X179897960Y-86589810D02*
X179994722Y-86589810D01*
X180043103Y-86565619D01*
X180067293Y-86541429D01*
X180115674Y-86468857D01*
X180139865Y-86372095D01*
X180139865Y-86178571D01*
X180115674Y-86130190D01*
X180091484Y-86106000D01*
X180043103Y-86081810D01*
X179946341Y-86081810D01*
X179897960Y-86106000D01*
X179873769Y-86130190D01*
X179849579Y-86178571D01*
X179849579Y-86299524D01*
X179873769Y-86347905D01*
X179897960Y-86372095D01*
X179946341Y-86396286D01*
X180043103Y-86396286D01*
X180091484Y-86372095D01*
X180115674Y-86347905D01*
X180139865Y-86299524D01*
X186581142Y-82779810D02*
X186581142Y-82271810D01*
X186750476Y-82634667D01*
X186919809Y-82271810D01*
X186919809Y-82779810D01*
X187451999Y-82731429D02*
X187427809Y-82755619D01*
X187355237Y-82779810D01*
X187306856Y-82779810D01*
X187234285Y-82755619D01*
X187185904Y-82707238D01*
X187161713Y-82658857D01*
X187137523Y-82562095D01*
X187137523Y-82489524D01*
X187161713Y-82392762D01*
X187185904Y-82344381D01*
X187234285Y-82296000D01*
X187306856Y-82271810D01*
X187355237Y-82271810D01*
X187427809Y-82296000D01*
X187451999Y-82320190D01*
X187669713Y-82779810D02*
X187669713Y-82271810D01*
X187863237Y-82271810D01*
X187911618Y-82296000D01*
X187935809Y-82320190D01*
X187959999Y-82368571D01*
X187959999Y-82441143D01*
X187935809Y-82489524D01*
X187911618Y-82513714D01*
X187863237Y-82537905D01*
X187669713Y-82537905D01*
X188129332Y-82271810D02*
X188443809Y-82271810D01*
X188274475Y-82465333D01*
X188347047Y-82465333D01*
X188395428Y-82489524D01*
X188419618Y-82513714D01*
X188443809Y-82562095D01*
X188443809Y-82683048D01*
X188419618Y-82731429D01*
X188395428Y-82755619D01*
X188347047Y-82779810D01*
X188201904Y-82779810D01*
X188153523Y-82755619D01*
X188129332Y-82731429D01*
X188685714Y-82779810D02*
X188782476Y-82779810D01*
X188830857Y-82755619D01*
X188855047Y-82731429D01*
X188903428Y-82658857D01*
X188927619Y-82562095D01*
X188927619Y-82368571D01*
X188903428Y-82320190D01*
X188879238Y-82296000D01*
X188830857Y-82271810D01*
X188734095Y-82271810D01*
X188685714Y-82296000D01*
X188661523Y-82320190D01*
X188637333Y-82368571D01*
X188637333Y-82489524D01*
X188661523Y-82537905D01*
X188685714Y-82562095D01*
X188734095Y-82586286D01*
X188830857Y-82586286D01*
X188879238Y-82562095D01*
X188903428Y-82537905D01*
X188927619Y-82489524D01*
X189411429Y-82779810D02*
X189121143Y-82779810D01*
X189266286Y-82779810D02*
X189266286Y-82271810D01*
X189217905Y-82344381D01*
X189169524Y-82392762D01*
X189121143Y-82416952D01*
X189895239Y-82779810D02*
X189604953Y-82779810D01*
X189750096Y-82779810D02*
X189750096Y-82271810D01*
X189701715Y-82344381D01*
X189653334Y-82392762D01*
X189604953Y-82416952D01*
X190088763Y-82634667D02*
X190330668Y-82634667D01*
X190040382Y-82779810D02*
X190209715Y-82271810D01*
X190379049Y-82779810D01*
X190645144Y-82271810D02*
X190693525Y-82271810D01*
X190741906Y-82296000D01*
X190766097Y-82320190D01*
X190790287Y-82368571D01*
X190814478Y-82465333D01*
X190814478Y-82586286D01*
X190790287Y-82683048D01*
X190766097Y-82731429D01*
X190741906Y-82755619D01*
X190693525Y-82779810D01*
X190645144Y-82779810D01*
X190596763Y-82755619D01*
X190572573Y-82731429D01*
X190548382Y-82683048D01*
X190524192Y-82586286D01*
X190524192Y-82465333D01*
X190548382Y-82368571D01*
X190572573Y-82320190D01*
X190596763Y-82296000D01*
X190645144Y-82271810D01*
X191032192Y-82586286D02*
X191419240Y-82586286D01*
X191661144Y-82513714D02*
X191830478Y-82513714D01*
X191903049Y-82779810D02*
X191661144Y-82779810D01*
X191661144Y-82271810D01*
X191903049Y-82271810D01*
X192483621Y-82247619D02*
X192048192Y-82900762D01*
X192652953Y-82779810D02*
X192652953Y-82271810D01*
X192822287Y-82634667D01*
X192991620Y-82271810D01*
X192991620Y-82779810D01*
X193475429Y-82779810D02*
X193233524Y-82779810D01*
X193233524Y-82271810D01*
X179802244Y-77953810D02*
X179850625Y-77953810D01*
X179899006Y-77978000D01*
X179923197Y-78002190D01*
X179947387Y-78050571D01*
X179971578Y-78147333D01*
X179971578Y-78268286D01*
X179947387Y-78365048D01*
X179923197Y-78413429D01*
X179899006Y-78437619D01*
X179850625Y-78461810D01*
X179802244Y-78461810D01*
X179753863Y-78437619D01*
X179729673Y-78413429D01*
X179705482Y-78365048D01*
X179681292Y-78268286D01*
X179681292Y-78147333D01*
X179705482Y-78050571D01*
X179729673Y-78002190D01*
X179753863Y-77978000D01*
X179802244Y-77953810D01*
X180189292Y-78413429D02*
X180213483Y-78437619D01*
X180189292Y-78461810D01*
X180165102Y-78437619D01*
X180189292Y-78413429D01*
X180189292Y-78461810D01*
X180697293Y-78461810D02*
X180407007Y-78461810D01*
X180552150Y-78461810D02*
X180552150Y-77953810D01*
X180503769Y-78026381D01*
X180455388Y-78074762D01*
X180407007Y-78098952D01*
X181132722Y-78123143D02*
X181132722Y-78461810D01*
X180915007Y-78123143D02*
X180915007Y-78389238D01*
X180939198Y-78437619D01*
X180987579Y-78461810D01*
X181060150Y-78461810D01*
X181108531Y-78437619D01*
X181132722Y-78413429D01*
X179802244Y-85065810D02*
X179850625Y-85065810D01*
X179899006Y-85090000D01*
X179923197Y-85114190D01*
X179947387Y-85162571D01*
X179971578Y-85259333D01*
X179971578Y-85380286D01*
X179947387Y-85477048D01*
X179923197Y-85525429D01*
X179899006Y-85549619D01*
X179850625Y-85573810D01*
X179802244Y-85573810D01*
X179753863Y-85549619D01*
X179729673Y-85525429D01*
X179705482Y-85477048D01*
X179681292Y-85380286D01*
X179681292Y-85259333D01*
X179705482Y-85162571D01*
X179729673Y-85114190D01*
X179753863Y-85090000D01*
X179802244Y-85065810D01*
X180189292Y-85525429D02*
X180213483Y-85549619D01*
X180189292Y-85573810D01*
X180165102Y-85549619D01*
X180189292Y-85525429D01*
X180189292Y-85573810D01*
X180697293Y-85573810D02*
X180407007Y-85573810D01*
X180552150Y-85573810D02*
X180552150Y-85065810D01*
X180503769Y-85138381D01*
X180455388Y-85186762D01*
X180407007Y-85210952D01*
X181132722Y-85235143D02*
X181132722Y-85573810D01*
X180915007Y-85235143D02*
X180915007Y-85501238D01*
X180939198Y-85549619D01*
X180987579Y-85573810D01*
X181060150Y-85573810D01*
X181108531Y-85549619D01*
X181132722Y-85525429D01*
X177195237Y-78207810D02*
X177243618Y-78207810D01*
X177291999Y-78232000D01*
X177316190Y-78256190D01*
X177340380Y-78304571D01*
X177364571Y-78401333D01*
X177364571Y-78522286D01*
X177340380Y-78619048D01*
X177316190Y-78667429D01*
X177291999Y-78691619D01*
X177243618Y-78715810D01*
X177195237Y-78715810D01*
X177146856Y-78691619D01*
X177122666Y-78667429D01*
X177098475Y-78619048D01*
X177074285Y-78522286D01*
X177074285Y-78401333D01*
X177098475Y-78304571D01*
X177122666Y-78256190D01*
X177146856Y-78232000D01*
X177195237Y-78207810D01*
X177582285Y-78667429D02*
X177606476Y-78691619D01*
X177582285Y-78715810D01*
X177558095Y-78691619D01*
X177582285Y-78667429D01*
X177582285Y-78715810D01*
X177920952Y-78207810D02*
X177969333Y-78207810D01*
X178017714Y-78232000D01*
X178041905Y-78256190D01*
X178066095Y-78304571D01*
X178090286Y-78401333D01*
X178090286Y-78522286D01*
X178066095Y-78619048D01*
X178041905Y-78667429D01*
X178017714Y-78691619D01*
X177969333Y-78715810D01*
X177920952Y-78715810D01*
X177872571Y-78691619D01*
X177848381Y-78667429D01*
X177824190Y-78619048D01*
X177800000Y-78522286D01*
X177800000Y-78401333D01*
X177824190Y-78304571D01*
X177848381Y-78256190D01*
X177872571Y-78232000D01*
X177920952Y-78207810D01*
X178574096Y-78715810D02*
X178283810Y-78715810D01*
X178428953Y-78715810D02*
X178428953Y-78207810D01*
X178380572Y-78280381D01*
X178332191Y-78328762D01*
X178283810Y-78352952D01*
X179009525Y-78377143D02*
X179009525Y-78715810D01*
X178791810Y-78377143D02*
X178791810Y-78643238D01*
X178816001Y-78691619D01*
X178864382Y-78715810D01*
X178936953Y-78715810D01*
X178985334Y-78691619D01*
X179009525Y-78667429D01*
X177310339Y-85065810D02*
X177358720Y-85065810D01*
X177407101Y-85090000D01*
X177431292Y-85114190D01*
X177455482Y-85162571D01*
X177479673Y-85259333D01*
X177479673Y-85380286D01*
X177455482Y-85477048D01*
X177431292Y-85525429D01*
X177407101Y-85549619D01*
X177358720Y-85573810D01*
X177310339Y-85573810D01*
X177261958Y-85549619D01*
X177237768Y-85525429D01*
X177213577Y-85477048D01*
X177189387Y-85380286D01*
X177189387Y-85259333D01*
X177213577Y-85162571D01*
X177237768Y-85114190D01*
X177261958Y-85090000D01*
X177310339Y-85065810D01*
X177697387Y-85525429D02*
X177721578Y-85549619D01*
X177697387Y-85573810D01*
X177673197Y-85549619D01*
X177697387Y-85525429D01*
X177697387Y-85573810D01*
X178036054Y-85065810D02*
X178084435Y-85065810D01*
X178132816Y-85090000D01*
X178157007Y-85114190D01*
X178181197Y-85162571D01*
X178205388Y-85259333D01*
X178205388Y-85380286D01*
X178181197Y-85477048D01*
X178157007Y-85525429D01*
X178132816Y-85549619D01*
X178084435Y-85573810D01*
X178036054Y-85573810D01*
X177987673Y-85549619D01*
X177963483Y-85525429D01*
X177939292Y-85477048D01*
X177915102Y-85380286D01*
X177915102Y-85259333D01*
X177939292Y-85162571D01*
X177963483Y-85114190D01*
X177987673Y-85090000D01*
X178036054Y-85065810D01*
X178689198Y-85573810D02*
X178398912Y-85573810D01*
X178544055Y-85573810D02*
X178544055Y-85065810D01*
X178495674Y-85138381D01*
X178447293Y-85186762D01*
X178398912Y-85210952D01*
X179124627Y-85235143D02*
X179124627Y-85573810D01*
X178906912Y-85235143D02*
X178906912Y-85501238D01*
X178931103Y-85549619D01*
X178979484Y-85573810D01*
X179052055Y-85573810D01*
X179100436Y-85549619D01*
X179124627Y-85525429D01*
X189629142Y-78715810D02*
X189677523Y-78715810D01*
X189725904Y-78740000D01*
X189750095Y-78764190D01*
X189774285Y-78812571D01*
X189798476Y-78909333D01*
X189798476Y-79030286D01*
X189774285Y-79127048D01*
X189750095Y-79175429D01*
X189725904Y-79199619D01*
X189677523Y-79223810D01*
X189629142Y-79223810D01*
X189580761Y-79199619D01*
X189556571Y-79175429D01*
X189532380Y-79127048D01*
X189508190Y-79030286D01*
X189508190Y-78909333D01*
X189532380Y-78812571D01*
X189556571Y-78764190D01*
X189580761Y-78740000D01*
X189629142Y-78715810D01*
X190016190Y-79175429D02*
X190040381Y-79199619D01*
X190016190Y-79223810D01*
X189992000Y-79199619D01*
X190016190Y-79175429D01*
X190016190Y-79223810D01*
X190524191Y-79223810D02*
X190233905Y-79223810D01*
X190379048Y-79223810D02*
X190379048Y-78715810D01*
X190330667Y-78788381D01*
X190282286Y-78836762D01*
X190233905Y-78860952D01*
X190959620Y-78885143D02*
X190959620Y-79223810D01*
X190741905Y-78885143D02*
X190741905Y-79151238D01*
X190766096Y-79199619D01*
X190814477Y-79223810D01*
X190887048Y-79223810D01*
X190935429Y-79199619D01*
X190959620Y-79175429D01*
X187173810Y-80880858D02*
X187173810Y-80832477D01*
X187198000Y-80784096D01*
X187222190Y-80759905D01*
X187270571Y-80735715D01*
X187367333Y-80711524D01*
X187488286Y-80711524D01*
X187585048Y-80735715D01*
X187633429Y-80759905D01*
X187657619Y-80784096D01*
X187681810Y-80832477D01*
X187681810Y-80880858D01*
X187657619Y-80929239D01*
X187633429Y-80953429D01*
X187585048Y-80977620D01*
X187488286Y-81001810D01*
X187367333Y-81001810D01*
X187270571Y-80977620D01*
X187222190Y-80953429D01*
X187198000Y-80929239D01*
X187173810Y-80880858D01*
X187633429Y-80493810D02*
X187657619Y-80469619D01*
X187681810Y-80493810D01*
X187657619Y-80518000D01*
X187633429Y-80493810D01*
X187681810Y-80493810D01*
X187681810Y-79985809D02*
X187681810Y-80276095D01*
X187681810Y-80130952D02*
X187173810Y-80130952D01*
X187246381Y-80179333D01*
X187294762Y-80227714D01*
X187318952Y-80276095D01*
X187343143Y-79550380D02*
X187681810Y-79550380D01*
X187343143Y-79768095D02*
X187609238Y-79768095D01*
X187657619Y-79743904D01*
X187681810Y-79695523D01*
X187681810Y-79622952D01*
X187657619Y-79574571D01*
X187633429Y-79550380D01*
X198221810Y-83366858D02*
X198221810Y-83318477D01*
X198246000Y-83270096D01*
X198270190Y-83245905D01*
X198318571Y-83221715D01*
X198415333Y-83197524D01*
X198536286Y-83197524D01*
X198633048Y-83221715D01*
X198681429Y-83245905D01*
X198705619Y-83270096D01*
X198729810Y-83318477D01*
X198729810Y-83366858D01*
X198705619Y-83415239D01*
X198681429Y-83439429D01*
X198633048Y-83463620D01*
X198536286Y-83487810D01*
X198415333Y-83487810D01*
X198318571Y-83463620D01*
X198270190Y-83439429D01*
X198246000Y-83415239D01*
X198221810Y-83366858D01*
X198681429Y-82979810D02*
X198705619Y-82955619D01*
X198729810Y-82979810D01*
X198705619Y-83004000D01*
X198681429Y-82979810D01*
X198729810Y-82979810D01*
X198729810Y-82471809D02*
X198729810Y-82762095D01*
X198729810Y-82616952D02*
X198221810Y-82616952D01*
X198294381Y-82665333D01*
X198342762Y-82713714D01*
X198366952Y-82762095D01*
X198391143Y-82036380D02*
X198729810Y-82036380D01*
X198391143Y-82254095D02*
X198657238Y-82254095D01*
X198705619Y-82229904D01*
X198729810Y-82181523D01*
X198729810Y-82108952D01*
X198705619Y-82060571D01*
X198681429Y-82036380D01*
X201083142Y-81255810D02*
X201131523Y-81255810D01*
X201179904Y-81280000D01*
X201204095Y-81304190D01*
X201228285Y-81352571D01*
X201252476Y-81449333D01*
X201252476Y-81570286D01*
X201228285Y-81667048D01*
X201204095Y-81715429D01*
X201179904Y-81739619D01*
X201131523Y-81763810D01*
X201083142Y-81763810D01*
X201034761Y-81739619D01*
X201010571Y-81715429D01*
X200986380Y-81667048D01*
X200962190Y-81570286D01*
X200962190Y-81449333D01*
X200986380Y-81352571D01*
X201010571Y-81304190D01*
X201034761Y-81280000D01*
X201083142Y-81255810D01*
X201470190Y-81715429D02*
X201494381Y-81739619D01*
X201470190Y-81763810D01*
X201446000Y-81739619D01*
X201470190Y-81715429D01*
X201470190Y-81763810D01*
X201978191Y-81763810D02*
X201687905Y-81763810D01*
X201833048Y-81763810D02*
X201833048Y-81255810D01*
X201784667Y-81328381D01*
X201736286Y-81376762D01*
X201687905Y-81400952D01*
X202413620Y-81425143D02*
X202413620Y-81763810D01*
X202195905Y-81425143D02*
X202195905Y-81691238D01*
X202220096Y-81739619D01*
X202268477Y-81763810D01*
X202341048Y-81763810D01*
X202389429Y-81739619D01*
X202413620Y-81715429D01*
X187829810Y-87738858D02*
X187829810Y-87690477D01*
X187854000Y-87642096D01*
X187878190Y-87617905D01*
X187926571Y-87593715D01*
X188023333Y-87569524D01*
X188144286Y-87569524D01*
X188241048Y-87593715D01*
X188289429Y-87617905D01*
X188313619Y-87642096D01*
X188337810Y-87690477D01*
X188337810Y-87738858D01*
X188313619Y-87787239D01*
X188289429Y-87811429D01*
X188241048Y-87835620D01*
X188144286Y-87859810D01*
X188023333Y-87859810D01*
X187926571Y-87835620D01*
X187878190Y-87811429D01*
X187854000Y-87787239D01*
X187829810Y-87738858D01*
X188289429Y-87351810D02*
X188313619Y-87327619D01*
X188337810Y-87351810D01*
X188313619Y-87376000D01*
X188289429Y-87351810D01*
X188337810Y-87351810D01*
X188337810Y-86843809D02*
X188337810Y-87134095D01*
X188337810Y-86988952D02*
X187829810Y-86988952D01*
X187902381Y-87037333D01*
X187950762Y-87085714D01*
X187974952Y-87134095D01*
X187999143Y-86408380D02*
X188337810Y-86408380D01*
X187999143Y-86626095D02*
X188265238Y-86626095D01*
X188313619Y-86601904D01*
X188337810Y-86553523D01*
X188337810Y-86480952D01*
X188313619Y-86432571D01*
X188289429Y-86408380D01*
X195277619Y-83275714D02*
X195277619Y-83662762D01*
X195180857Y-83275714D02*
X195035714Y-83662762D01*
X194890571Y-83275714D01*
X194842190Y-82670952D02*
X194818000Y-82646762D01*
X194793810Y-82598381D01*
X194793810Y-82477428D01*
X194818000Y-82429047D01*
X194842190Y-82404857D01*
X194890571Y-82380666D01*
X194938952Y-82380666D01*
X195011524Y-82404857D01*
X195301810Y-82695143D01*
X195301810Y-82380666D01*
X194793810Y-82066190D02*
X194793810Y-82017809D01*
X194818000Y-81969428D01*
X194842190Y-81945237D01*
X194890571Y-81921047D01*
X194987333Y-81896856D01*
X195108286Y-81896856D01*
X195205048Y-81921047D01*
X195253429Y-81945237D01*
X195277619Y-81969428D01*
X195301810Y-82017809D01*
X195301810Y-82066190D01*
X195277619Y-82114571D01*
X195253429Y-82138761D01*
X195205048Y-82162952D01*
X195108286Y-82187142D01*
X194987333Y-82187142D01*
X194890571Y-82162952D01*
X194842190Y-82138761D01*
X194818000Y-82114571D01*
X194793810Y-82066190D01*
X195301810Y-81679142D02*
X194793810Y-81679142D01*
X195156667Y-81509808D01*
X194793810Y-81340475D01*
X195301810Y-81340475D01*
X194963143Y-81146952D02*
X194963143Y-80880856D01*
X195301810Y-81146952D01*
X195301810Y-80880856D01*
X180001334Y-77191810D02*
X179711048Y-77191810D01*
X179856191Y-77191810D02*
X179856191Y-76683810D01*
X179807810Y-76756381D01*
X179759429Y-76804762D01*
X179711048Y-76828952D01*
X180436763Y-76853143D02*
X180436763Y-77191810D01*
X180219048Y-76853143D02*
X180219048Y-77119238D01*
X180243239Y-77167619D01*
X180291620Y-77191810D01*
X180364191Y-77191810D01*
X180412572Y-77167619D01*
X180436763Y-77143429D01*
X180001334Y-84303810D02*
X179711048Y-84303810D01*
X179856191Y-84303810D02*
X179856191Y-83795810D01*
X179807810Y-83868381D01*
X179759429Y-83916762D01*
X179711048Y-83940952D01*
X180436763Y-83965143D02*
X180436763Y-84303810D01*
X180219048Y-83965143D02*
X180219048Y-84231238D01*
X180243239Y-84279619D01*
X180291620Y-84303810D01*
X180364191Y-84303810D01*
X180412572Y-84279619D01*
X180436763Y-84255429D01*
X190669334Y-77953810D02*
X190379048Y-77953810D01*
X190524191Y-77953810D02*
X190524191Y-77445810D01*
X190475810Y-77518381D01*
X190427429Y-77566762D01*
X190379048Y-77590952D01*
X191104763Y-77615143D02*
X191104763Y-77953810D01*
X190887048Y-77615143D02*
X190887048Y-77881238D01*
X190911239Y-77929619D01*
X190959620Y-77953810D01*
X191032191Y-77953810D01*
X191080572Y-77929619D01*
X191104763Y-77905429D01*
X198603810Y-80184666D02*
X198603810Y-80474952D01*
X198603810Y-80329809D02*
X198095810Y-80329809D01*
X198168381Y-80378190D01*
X198216762Y-80426571D01*
X198240952Y-80474952D01*
X198265143Y-79749237D02*
X198603810Y-79749237D01*
X198265143Y-79966952D02*
X198531238Y-79966952D01*
X198579619Y-79942761D01*
X198603810Y-79894380D01*
X198603810Y-79821809D01*
X198579619Y-79773428D01*
X198555429Y-79749237D01*
X201665334Y-80493810D02*
X201375048Y-80493810D01*
X201520191Y-80493810D02*
X201520191Y-79985810D01*
X201471810Y-80058381D01*
X201423429Y-80106762D01*
X201375048Y-80130952D01*
X202100763Y-80155143D02*
X202100763Y-80493810D01*
X201883048Y-80155143D02*
X201883048Y-80421238D01*
X201907239Y-80469619D01*
X201955620Y-80493810D01*
X202028191Y-80493810D01*
X202076572Y-80469619D01*
X202100763Y-80445429D01*
X194428286Y-80191429D02*
X194452476Y-80215619D01*
X194428286Y-80239810D01*
X194404095Y-80215619D01*
X194428286Y-80191429D01*
X194428286Y-80239810D01*
X194331524Y-79756000D02*
X194379905Y-79731810D01*
X194500857Y-79731810D01*
X194549238Y-79756000D01*
X194573429Y-79804381D01*
X194573429Y-79852762D01*
X194549238Y-79901143D01*
X194525048Y-79925333D01*
X194476667Y-79949524D01*
X194452476Y-79973714D01*
X194428286Y-80022095D01*
X194428286Y-80046286D01*
X194791143Y-79901143D02*
X194791143Y-80409143D01*
X194791143Y-79925333D02*
X194839524Y-79901143D01*
X194936286Y-79901143D01*
X194984667Y-79925333D01*
X195008858Y-79949524D01*
X195033048Y-79997905D01*
X195033048Y-80143048D01*
X195008858Y-80191429D01*
X194984667Y-80215619D01*
X194936286Y-80239810D01*
X194839524Y-80239810D01*
X194791143Y-80215619D01*
X195420096Y-79973714D02*
X195250762Y-79973714D01*
X195250762Y-80239810D02*
X195250762Y-79731810D01*
X195492667Y-79731810D01*
X188171667Y-74385714D02*
X188002333Y-74385714D01*
X188002333Y-74651810D02*
X188002333Y-74143810D01*
X188244238Y-74143810D01*
X188437762Y-74651810D02*
X188437762Y-74143810D01*
X188921572Y-74651810D02*
X188679667Y-74651810D01*
X188679667Y-74143810D01*
X189018334Y-74143810D02*
X189308620Y-74143810D01*
X189163477Y-74651810D02*
X189163477Y-74143810D01*
X189477953Y-74385714D02*
X189647287Y-74385714D01*
X189719858Y-74651810D02*
X189477953Y-74651810D01*
X189477953Y-74143810D01*
X189719858Y-74143810D01*
X190227858Y-74651810D02*
X190058525Y-74409905D01*
X189937572Y-74651810D02*
X189937572Y-74143810D01*
X190131096Y-74143810D01*
X190179477Y-74168000D01*
X190203668Y-74192190D01*
X190227858Y-74240571D01*
X190227858Y-74313143D01*
X190203668Y-74361524D01*
X190179477Y-74385714D01*
X190131096Y-74409905D01*
X189937572Y-74409905D01*
X201143810Y-76490286D02*
X201143810Y-76780572D01*
X201143810Y-76635429D02*
X200635810Y-76635429D01*
X200708381Y-76683810D01*
X200756762Y-76732191D01*
X200780952Y-76780572D01*
X200635810Y-76175810D02*
X200635810Y-76127429D01*
X200660000Y-76079048D01*
X200684190Y-76054857D01*
X200732571Y-76030667D01*
X200829333Y-76006476D01*
X200950286Y-76006476D01*
X201047048Y-76030667D01*
X201095429Y-76054857D01*
X201119619Y-76079048D01*
X201143810Y-76127429D01*
X201143810Y-76175810D01*
X201119619Y-76224191D01*
X201095429Y-76248381D01*
X201047048Y-76272572D01*
X200950286Y-76296762D01*
X200829333Y-76296762D01*
X200732571Y-76272572D01*
X200684190Y-76248381D01*
X200660000Y-76224191D01*
X200635810Y-76175810D01*
X200635810Y-75692000D02*
X200635810Y-75643619D01*
X200660000Y-75595238D01*
X200684190Y-75571047D01*
X200732571Y-75546857D01*
X200829333Y-75522666D01*
X200950286Y-75522666D01*
X201047048Y-75546857D01*
X201095429Y-75571047D01*
X201119619Y-75595238D01*
X201143810Y-75643619D01*
X201143810Y-75692000D01*
X201119619Y-75740381D01*
X201095429Y-75764571D01*
X201047048Y-75788762D01*
X200950286Y-75812952D01*
X200829333Y-75812952D01*
X200732571Y-75788762D01*
X200684190Y-75764571D01*
X200660000Y-75740381D01*
X200635810Y-75692000D01*
X201143810Y-75304952D02*
X200635810Y-75304952D01*
X200950286Y-75256571D02*
X201143810Y-75111428D01*
X200805143Y-75111428D02*
X200998667Y-75304952D01*
X195301810Y-86544286D02*
X195301810Y-86834572D01*
X195301810Y-86689429D02*
X194793810Y-86689429D01*
X194866381Y-86737810D01*
X194914762Y-86786191D01*
X194938952Y-86834572D01*
X194793810Y-86229810D02*
X194793810Y-86181429D01*
X194818000Y-86133048D01*
X194842190Y-86108857D01*
X194890571Y-86084667D01*
X194987333Y-86060476D01*
X195108286Y-86060476D01*
X195205048Y-86084667D01*
X195253429Y-86108857D01*
X195277619Y-86133048D01*
X195301810Y-86181429D01*
X195301810Y-86229810D01*
X195277619Y-86278191D01*
X195253429Y-86302381D01*
X195205048Y-86326572D01*
X195108286Y-86350762D01*
X194987333Y-86350762D01*
X194890571Y-86326572D01*
X194842190Y-86302381D01*
X194818000Y-86278191D01*
X194793810Y-86229810D01*
X194793810Y-85746000D02*
X194793810Y-85697619D01*
X194818000Y-85649238D01*
X194842190Y-85625047D01*
X194890571Y-85600857D01*
X194987333Y-85576666D01*
X195108286Y-85576666D01*
X195205048Y-85600857D01*
X195253429Y-85625047D01*
X195277619Y-85649238D01*
X195301810Y-85697619D01*
X195301810Y-85746000D01*
X195277619Y-85794381D01*
X195253429Y-85818571D01*
X195205048Y-85842762D01*
X195108286Y-85866952D01*
X194987333Y-85866952D01*
X194890571Y-85842762D01*
X194842190Y-85818571D01*
X194818000Y-85794381D01*
X194793810Y-85746000D01*
X195301810Y-85358952D02*
X194793810Y-85358952D01*
X195108286Y-85310571D02*
X195301810Y-85165428D01*
X194963143Y-85165428D02*
X195156667Y-85358952D01*
X193523810Y-86544286D02*
X193523810Y-86834572D01*
X193523810Y-86689429D02*
X193015810Y-86689429D01*
X193088381Y-86737810D01*
X193136762Y-86786191D01*
X193160952Y-86834572D01*
X193015810Y-86229810D02*
X193015810Y-86181429D01*
X193040000Y-86133048D01*
X193064190Y-86108857D01*
X193112571Y-86084667D01*
X193209333Y-86060476D01*
X193330286Y-86060476D01*
X193427048Y-86084667D01*
X193475429Y-86108857D01*
X193499619Y-86133048D01*
X193523810Y-86181429D01*
X193523810Y-86229810D01*
X193499619Y-86278191D01*
X193475429Y-86302381D01*
X193427048Y-86326572D01*
X193330286Y-86350762D01*
X193209333Y-86350762D01*
X193112571Y-86326572D01*
X193064190Y-86302381D01*
X193040000Y-86278191D01*
X193015810Y-86229810D01*
X193015810Y-85746000D02*
X193015810Y-85697619D01*
X193040000Y-85649238D01*
X193064190Y-85625047D01*
X193112571Y-85600857D01*
X193209333Y-85576666D01*
X193330286Y-85576666D01*
X193427048Y-85600857D01*
X193475429Y-85625047D01*
X193499619Y-85649238D01*
X193523810Y-85697619D01*
X193523810Y-85746000D01*
X193499619Y-85794381D01*
X193475429Y-85818571D01*
X193427048Y-85842762D01*
X193330286Y-85866952D01*
X193209333Y-85866952D01*
X193112571Y-85842762D01*
X193064190Y-85818571D01*
X193040000Y-85794381D01*
X193015810Y-85746000D01*
X193523810Y-85358952D02*
X193015810Y-85358952D01*
X193330286Y-85310571D02*
X193523810Y-85165428D01*
X193185143Y-85165428D02*
X193378667Y-85358952D01*
X199619810Y-76544286D02*
X199619810Y-76834572D01*
X199619810Y-76689429D02*
X199111810Y-76689429D01*
X199184381Y-76737810D01*
X199232762Y-76786191D01*
X199256952Y-76834572D01*
X199111810Y-76229810D02*
X199111810Y-76181429D01*
X199136000Y-76133048D01*
X199160190Y-76108857D01*
X199208571Y-76084667D01*
X199305333Y-76060476D01*
X199426286Y-76060476D01*
X199523048Y-76084667D01*
X199571429Y-76108857D01*
X199595619Y-76133048D01*
X199619810Y-76181429D01*
X199619810Y-76229810D01*
X199595619Y-76278191D01*
X199571429Y-76302381D01*
X199523048Y-76326572D01*
X199426286Y-76350762D01*
X199305333Y-76350762D01*
X199208571Y-76326572D01*
X199160190Y-76302381D01*
X199136000Y-76278191D01*
X199111810Y-76229810D01*
X199111810Y-75746000D02*
X199111810Y-75697619D01*
X199136000Y-75649238D01*
X199160190Y-75625047D01*
X199208571Y-75600857D01*
X199305333Y-75576666D01*
X199426286Y-75576666D01*
X199523048Y-75600857D01*
X199571429Y-75625047D01*
X199595619Y-75649238D01*
X199619810Y-75697619D01*
X199619810Y-75746000D01*
X199595619Y-75794381D01*
X199571429Y-75818571D01*
X199523048Y-75842762D01*
X199426286Y-75866952D01*
X199305333Y-75866952D01*
X199208571Y-75842762D01*
X199160190Y-75818571D01*
X199136000Y-75794381D01*
X199111810Y-75746000D01*
X199619810Y-75358952D02*
X199111810Y-75358952D01*
X199426286Y-75310571D02*
X199619810Y-75165428D01*
X199281143Y-75165428D02*
X199474667Y-75358952D01*
X198095810Y-76490286D02*
X198095810Y-76780572D01*
X198095810Y-76635429D02*
X197587810Y-76635429D01*
X197660381Y-76683810D01*
X197708762Y-76732191D01*
X197732952Y-76780572D01*
X197587810Y-76175810D02*
X197587810Y-76127429D01*
X197612000Y-76079048D01*
X197636190Y-76054857D01*
X197684571Y-76030667D01*
X197781333Y-76006476D01*
X197902286Y-76006476D01*
X197999048Y-76030667D01*
X198047429Y-76054857D01*
X198071619Y-76079048D01*
X198095810Y-76127429D01*
X198095810Y-76175810D01*
X198071619Y-76224191D01*
X198047429Y-76248381D01*
X197999048Y-76272572D01*
X197902286Y-76296762D01*
X197781333Y-76296762D01*
X197684571Y-76272572D01*
X197636190Y-76248381D01*
X197612000Y-76224191D01*
X197587810Y-76175810D01*
X197587810Y-75692000D02*
X197587810Y-75643619D01*
X197612000Y-75595238D01*
X197636190Y-75571047D01*
X197684571Y-75546857D01*
X197781333Y-75522666D01*
X197902286Y-75522666D01*
X197999048Y-75546857D01*
X198047429Y-75571047D01*
X198071619Y-75595238D01*
X198095810Y-75643619D01*
X198095810Y-75692000D01*
X198071619Y-75740381D01*
X198047429Y-75764571D01*
X197999048Y-75788762D01*
X197902286Y-75812952D01*
X197781333Y-75812952D01*
X197684571Y-75788762D01*
X197636190Y-75764571D01*
X197612000Y-75740381D01*
X197587810Y-75692000D01*
X198095810Y-75304952D02*
X197587810Y-75304952D01*
X197902286Y-75256571D02*
X198095810Y-75111428D01*
X197757143Y-75111428D02*
X197950667Y-75304952D01*
X193306095Y-74313143D02*
X193306095Y-74651810D01*
X193185142Y-74119619D02*
X193064190Y-74482476D01*
X193378666Y-74482476D01*
X193572190Y-74603429D02*
X193596381Y-74627619D01*
X193572190Y-74651810D01*
X193548000Y-74627619D01*
X193572190Y-74603429D01*
X193572190Y-74651810D01*
X193765714Y-74143810D02*
X194104381Y-74143810D01*
X193886667Y-74651810D01*
X194515620Y-74313143D02*
X194515620Y-74651810D01*
X194297905Y-74313143D02*
X194297905Y-74579238D01*
X194322096Y-74627619D01*
X194370477Y-74651810D01*
X194443048Y-74651810D01*
X194491429Y-74627619D01*
X194515620Y-74603429D01*
X186702095Y-77615143D02*
X186702095Y-77953810D01*
X186581142Y-77421619D02*
X186460190Y-77784476D01*
X186774666Y-77784476D01*
X186968190Y-77905429D02*
X186992381Y-77929619D01*
X186968190Y-77953810D01*
X186944000Y-77929619D01*
X186968190Y-77905429D01*
X186968190Y-77953810D01*
X187161714Y-77445810D02*
X187500381Y-77445810D01*
X187282667Y-77953810D01*
X187911620Y-77615143D02*
X187911620Y-77953810D01*
X187693905Y-77615143D02*
X187693905Y-77881238D01*
X187718096Y-77929619D01*
X187766477Y-77953810D01*
X187839048Y-77953810D01*
X187887429Y-77929619D01*
X187911620Y-77905429D01*
X182093810Y-80868763D02*
X182093810Y-80820382D01*
X182118000Y-80772001D01*
X182142190Y-80747810D01*
X182190571Y-80723620D01*
X182287333Y-80699429D01*
X182408286Y-80699429D01*
X182505048Y-80723620D01*
X182553429Y-80747810D01*
X182577619Y-80772001D01*
X182601810Y-80820382D01*
X182601810Y-80868763D01*
X182577619Y-80917144D01*
X182553429Y-80941334D01*
X182505048Y-80965525D01*
X182408286Y-80989715D01*
X182287333Y-80989715D01*
X182190571Y-80965525D01*
X182142190Y-80941334D01*
X182118000Y-80917144D01*
X182093810Y-80868763D01*
X182553429Y-80481715D02*
X182577619Y-80457524D01*
X182601810Y-80481715D01*
X182577619Y-80505905D01*
X182553429Y-80481715D01*
X182601810Y-80481715D01*
X182093810Y-80143048D02*
X182093810Y-80094667D01*
X182118000Y-80046286D01*
X182142190Y-80022095D01*
X182190571Y-79997905D01*
X182287333Y-79973714D01*
X182408286Y-79973714D01*
X182505048Y-79997905D01*
X182553429Y-80022095D01*
X182577619Y-80046286D01*
X182601810Y-80094667D01*
X182601810Y-80143048D01*
X182577619Y-80191429D01*
X182553429Y-80215619D01*
X182505048Y-80239810D01*
X182408286Y-80264000D01*
X182287333Y-80264000D01*
X182190571Y-80239810D01*
X182142190Y-80215619D01*
X182118000Y-80191429D01*
X182093810Y-80143048D01*
X182601810Y-79489904D02*
X182601810Y-79780190D01*
X182601810Y-79635047D02*
X182093810Y-79635047D01*
X182166381Y-79683428D01*
X182214762Y-79731809D01*
X182238952Y-79780190D01*
X182263143Y-79054475D02*
X182601810Y-79054475D01*
X182263143Y-79272190D02*
X182529238Y-79272190D01*
X182577619Y-79247999D01*
X182601810Y-79199618D01*
X182601810Y-79127047D01*
X182577619Y-79078666D01*
X182553429Y-79054475D01*
X181839810Y-87726763D02*
X181839810Y-87678382D01*
X181864000Y-87630001D01*
X181888190Y-87605810D01*
X181936571Y-87581620D01*
X182033333Y-87557429D01*
X182154286Y-87557429D01*
X182251048Y-87581620D01*
X182299429Y-87605810D01*
X182323619Y-87630001D01*
X182347810Y-87678382D01*
X182347810Y-87726763D01*
X182323619Y-87775144D01*
X182299429Y-87799334D01*
X182251048Y-87823525D01*
X182154286Y-87847715D01*
X182033333Y-87847715D01*
X181936571Y-87823525D01*
X181888190Y-87799334D01*
X181864000Y-87775144D01*
X181839810Y-87726763D01*
X182299429Y-87339715D02*
X182323619Y-87315524D01*
X182347810Y-87339715D01*
X182323619Y-87363905D01*
X182299429Y-87339715D01*
X182347810Y-87339715D01*
X181839810Y-87001048D02*
X181839810Y-86952667D01*
X181864000Y-86904286D01*
X181888190Y-86880095D01*
X181936571Y-86855905D01*
X182033333Y-86831714D01*
X182154286Y-86831714D01*
X182251048Y-86855905D01*
X182299429Y-86880095D01*
X182323619Y-86904286D01*
X182347810Y-86952667D01*
X182347810Y-87001048D01*
X182323619Y-87049429D01*
X182299429Y-87073619D01*
X182251048Y-87097810D01*
X182154286Y-87122000D01*
X182033333Y-87122000D01*
X181936571Y-87097810D01*
X181888190Y-87073619D01*
X181864000Y-87049429D01*
X181839810Y-87001048D01*
X182347810Y-86347904D02*
X182347810Y-86638190D01*
X182347810Y-86493047D02*
X181839810Y-86493047D01*
X181912381Y-86541428D01*
X181960762Y-86589809D01*
X181984952Y-86638190D01*
X182009143Y-85912475D02*
X182347810Y-85912475D01*
X182009143Y-86130190D02*
X182275238Y-86130190D01*
X182323619Y-86105999D01*
X182347810Y-86057618D01*
X182347810Y-85985047D01*
X182323619Y-85936666D01*
X182299429Y-85912475D01*
X175743810Y-78485639D02*
X175743810Y-78582401D01*
X175768000Y-78630782D01*
X175792190Y-78654973D01*
X175864762Y-78703354D01*
X175961524Y-78727544D01*
X176155048Y-78727544D01*
X176203429Y-78703354D01*
X176227619Y-78679163D01*
X176251810Y-78630782D01*
X176251810Y-78534020D01*
X176227619Y-78485639D01*
X176203429Y-78461449D01*
X176155048Y-78437258D01*
X176034095Y-78437258D01*
X175985714Y-78461449D01*
X175961524Y-78485639D01*
X175937333Y-78534020D01*
X175937333Y-78630782D01*
X175961524Y-78679163D01*
X175985714Y-78703354D01*
X176034095Y-78727544D01*
X176203429Y-78219544D02*
X176227619Y-78195353D01*
X176251810Y-78219544D01*
X176227619Y-78243734D01*
X176203429Y-78219544D01*
X176251810Y-78219544D01*
X175743810Y-77759924D02*
X175743810Y-77856686D01*
X175768000Y-77905067D01*
X175792190Y-77929258D01*
X175864762Y-77977639D01*
X175961524Y-78001829D01*
X176155048Y-78001829D01*
X176203429Y-77977639D01*
X176227619Y-77953448D01*
X176251810Y-77905067D01*
X176251810Y-77808305D01*
X176227619Y-77759924D01*
X176203429Y-77735734D01*
X176155048Y-77711543D01*
X176034095Y-77711543D01*
X175985714Y-77735734D01*
X175961524Y-77759924D01*
X175937333Y-77808305D01*
X175937333Y-77905067D01*
X175961524Y-77953448D01*
X175985714Y-77977639D01*
X176034095Y-78001829D01*
X176251810Y-77493829D02*
X175743810Y-77493829D01*
X176106667Y-77324495D01*
X175743810Y-77155162D01*
X176251810Y-77155162D01*
X175743810Y-85350639D02*
X175743810Y-85447401D01*
X175768000Y-85495782D01*
X175792190Y-85519973D01*
X175864762Y-85568354D01*
X175961524Y-85592544D01*
X176155048Y-85592544D01*
X176203429Y-85568354D01*
X176227619Y-85544163D01*
X176251810Y-85495782D01*
X176251810Y-85399020D01*
X176227619Y-85350639D01*
X176203429Y-85326449D01*
X176155048Y-85302258D01*
X176034095Y-85302258D01*
X175985714Y-85326449D01*
X175961524Y-85350639D01*
X175937333Y-85399020D01*
X175937333Y-85495782D01*
X175961524Y-85544163D01*
X175985714Y-85568354D01*
X176034095Y-85592544D01*
X176203429Y-85084544D02*
X176227619Y-85060353D01*
X176251810Y-85084544D01*
X176227619Y-85108734D01*
X176203429Y-85084544D01*
X176251810Y-85084544D01*
X175743810Y-84624924D02*
X175743810Y-84721686D01*
X175768000Y-84770067D01*
X175792190Y-84794258D01*
X175864762Y-84842639D01*
X175961524Y-84866829D01*
X176155048Y-84866829D01*
X176203429Y-84842639D01*
X176227619Y-84818448D01*
X176251810Y-84770067D01*
X176251810Y-84673305D01*
X176227619Y-84624924D01*
X176203429Y-84600734D01*
X176155048Y-84576543D01*
X176034095Y-84576543D01*
X175985714Y-84600734D01*
X175961524Y-84624924D01*
X175937333Y-84673305D01*
X175937333Y-84770067D01*
X175961524Y-84818448D01*
X175985714Y-84842639D01*
X176034095Y-84866829D01*
X176251810Y-84358829D02*
X175743810Y-84358829D01*
X176106667Y-84189495D01*
X175743810Y-84020162D01*
X176251810Y-84020162D01*
X182347810Y-82289734D02*
X182347810Y-82580020D01*
X182347810Y-82434877D02*
X181839810Y-82434877D01*
X181912381Y-82483258D01*
X181960762Y-82531639D01*
X181984952Y-82580020D01*
X182347810Y-82072020D02*
X181839810Y-82072020D01*
X182154286Y-82023639D02*
X182347810Y-81878496D01*
X182009143Y-81878496D02*
X182202667Y-82072020D01*
X183109810Y-80153449D02*
X183109810Y-80105068D01*
X183134000Y-80056687D01*
X183158190Y-80032496D01*
X183206571Y-80008306D01*
X183303333Y-79984115D01*
X183424286Y-79984115D01*
X183521048Y-80008306D01*
X183569429Y-80032496D01*
X183593619Y-80056687D01*
X183617810Y-80105068D01*
X183617810Y-80153449D01*
X183593619Y-80201830D01*
X183569429Y-80226020D01*
X183521048Y-80250211D01*
X183424286Y-80274401D01*
X183303333Y-80274401D01*
X183206571Y-80250211D01*
X183158190Y-80226020D01*
X183134000Y-80201830D01*
X183109810Y-80153449D01*
X182347810Y-89054734D02*
X182347810Y-89345020D01*
X182347810Y-89199877D02*
X181839810Y-89199877D01*
X181912381Y-89248258D01*
X181960762Y-89296639D01*
X181984952Y-89345020D01*
X182347810Y-88837020D02*
X181839810Y-88837020D01*
X182154286Y-88788639D02*
X182347810Y-88643496D01*
X182009143Y-88643496D02*
X182202667Y-88837020D01*
X183617810Y-87438544D02*
X183617810Y-87341782D01*
X183593619Y-87293401D01*
X183569429Y-87269211D01*
X183496857Y-87220830D01*
X183400095Y-87196639D01*
X183206571Y-87196639D01*
X183158190Y-87220830D01*
X183134000Y-87245020D01*
X183109810Y-87293401D01*
X183109810Y-87390163D01*
X183134000Y-87438544D01*
X183158190Y-87462735D01*
X183206571Y-87486925D01*
X183327524Y-87486925D01*
X183375905Y-87462735D01*
X183400095Y-87438544D01*
X183424286Y-87390163D01*
X183424286Y-87293401D01*
X183400095Y-87245020D01*
X183375905Y-87220830D01*
X183327524Y-87196639D01*
X183617810Y-86954734D02*
X183617810Y-86857972D01*
X183593619Y-86809591D01*
X183569429Y-86785401D01*
X183496857Y-86737020D01*
X183400095Y-86712829D01*
X183206571Y-86712829D01*
X183158190Y-86737020D01*
X183134000Y-86761210D01*
X183109810Y-86809591D01*
X183109810Y-86906353D01*
X183134000Y-86954734D01*
X183158190Y-86978925D01*
X183206571Y-87003115D01*
X183327524Y-87003115D01*
X183375905Y-86978925D01*
X183400095Y-86954734D01*
X183424286Y-86906353D01*
X183424286Y-86809591D01*
X183400095Y-86761210D01*
X183375905Y-86737020D01*
X183327524Y-86712829D01*
X183617810Y-86495115D02*
X183109810Y-86495115D01*
X183424286Y-86446734D02*
X183617810Y-86301591D01*
X183279143Y-86301591D02*
X183472667Y-86495115D01*
X173457810Y-87653449D02*
X173457810Y-87605068D01*
X173482000Y-87556687D01*
X173506190Y-87532496D01*
X173554571Y-87508306D01*
X173651333Y-87484115D01*
X173772286Y-87484115D01*
X173869048Y-87508306D01*
X173917429Y-87532496D01*
X173941619Y-87556687D01*
X173965810Y-87605068D01*
X173965810Y-87653449D01*
X173941619Y-87701830D01*
X173917429Y-87726020D01*
X173869048Y-87750211D01*
X173772286Y-87774401D01*
X173651333Y-87774401D01*
X173554571Y-87750211D01*
X173506190Y-87726020D01*
X173482000Y-87701830D01*
X173457810Y-87653449D01*
X178494911Y-80239810D02*
X178543292Y-80239810D01*
X178591673Y-80264000D01*
X178615864Y-80288190D01*
X178640054Y-80336571D01*
X178664245Y-80433333D01*
X178664245Y-80554286D01*
X178640054Y-80651048D01*
X178615864Y-80699429D01*
X178591673Y-80723619D01*
X178543292Y-80747810D01*
X178494911Y-80747810D01*
X178446530Y-80723619D01*
X178422340Y-80699429D01*
X178398149Y-80651048D01*
X178373959Y-80554286D01*
X178373959Y-80433333D01*
X178398149Y-80336571D01*
X178422340Y-80288190D01*
X178446530Y-80264000D01*
X178494911Y-80239810D01*
X178494911Y-87097810D02*
X178543292Y-87097810D01*
X178591673Y-87122000D01*
X178615864Y-87146190D01*
X178640054Y-87194571D01*
X178664245Y-87291333D01*
X178664245Y-87412286D01*
X178640054Y-87509048D01*
X178615864Y-87557429D01*
X178591673Y-87581619D01*
X178543292Y-87605810D01*
X178494911Y-87605810D01*
X178446530Y-87581619D01*
X178422340Y-87557429D01*
X178398149Y-87509048D01*
X178373959Y-87412286D01*
X178373959Y-87291333D01*
X178398149Y-87194571D01*
X178422340Y-87146190D01*
X178446530Y-87122000D01*
X178494911Y-87097810D01*
X174473810Y-85368191D02*
X174473810Y-85319810D01*
X174498000Y-85271429D01*
X174522190Y-85247238D01*
X174570571Y-85223048D01*
X174667333Y-85198857D01*
X174788286Y-85198857D01*
X174885048Y-85223048D01*
X174933429Y-85247238D01*
X174957619Y-85271429D01*
X174981810Y-85319810D01*
X174981810Y-85368191D01*
X174957619Y-85416572D01*
X174933429Y-85440762D01*
X174885048Y-85464953D01*
X174788286Y-85489143D01*
X174667333Y-85489143D01*
X174570571Y-85464953D01*
X174522190Y-85440762D01*
X174498000Y-85416572D01*
X174473810Y-85368191D01*
X177573960Y-77191810D02*
X177283674Y-77191810D01*
X177428817Y-77191810D02*
X177428817Y-76683810D01*
X177380436Y-76756381D01*
X177332055Y-76804762D01*
X177283674Y-76828952D01*
X177791674Y-77191810D02*
X177791674Y-76683810D01*
X177961008Y-77046667D01*
X178130341Y-76683810D01*
X178130341Y-77191810D01*
X177573960Y-84303810D02*
X177283674Y-84303810D01*
X177428817Y-84303810D02*
X177428817Y-83795810D01*
X177380436Y-83868381D01*
X177332055Y-83916762D01*
X177283674Y-83940952D01*
X177791674Y-84303810D02*
X177791674Y-83795810D01*
X177961008Y-84158667D01*
X178130341Y-83795810D01*
X178130341Y-84303810D01*
X178494911Y-81509810D02*
X178543292Y-81509810D01*
X178591673Y-81534000D01*
X178615864Y-81558190D01*
X178640054Y-81606571D01*
X178664245Y-81703333D01*
X178664245Y-81824286D01*
X178640054Y-81921048D01*
X178615864Y-81969429D01*
X178591673Y-81993619D01*
X178543292Y-82017810D01*
X178494911Y-82017810D01*
X178446530Y-81993619D01*
X178422340Y-81969429D01*
X178398149Y-81921048D01*
X178373959Y-81824286D01*
X178373959Y-81703333D01*
X178398149Y-81606571D01*
X178422340Y-81558190D01*
X178446530Y-81534000D01*
X178494911Y-81509810D01*
X178537809Y-88367810D02*
X178586190Y-88367810D01*
X178634571Y-88392000D01*
X178658762Y-88416190D01*
X178682952Y-88464571D01*
X178707143Y-88561333D01*
X178707143Y-88682286D01*
X178682952Y-88779048D01*
X178658762Y-88827429D01*
X178634571Y-88851619D01*
X178586190Y-88875810D01*
X178537809Y-88875810D01*
X178489428Y-88851619D01*
X178465238Y-88827429D01*
X178441047Y-88779048D01*
X178416857Y-88682286D01*
X178416857Y-88561333D01*
X178441047Y-88464571D01*
X178465238Y-88416190D01*
X178489428Y-88392000D01*
X178537809Y-88367810D01*
X169901810Y-82199238D02*
X169901810Y-82102476D01*
X169926000Y-82054095D01*
X169974381Y-82005714D01*
X170071143Y-81981523D01*
X170240476Y-81981523D01*
X170337238Y-82005714D01*
X170385619Y-82054095D01*
X170409810Y-82102476D01*
X170409810Y-82199238D01*
X170385619Y-82247619D01*
X170337238Y-82296000D01*
X170240476Y-82320190D01*
X170071143Y-82320190D01*
X169974381Y-82296000D01*
X169926000Y-82247619D01*
X169901810Y-82199238D01*
X169901810Y-81763810D02*
X170313048Y-81763810D01*
X170361429Y-81739619D01*
X170385619Y-81715429D01*
X170409810Y-81667048D01*
X170409810Y-81570286D01*
X170385619Y-81521905D01*
X170361429Y-81497714D01*
X170313048Y-81473524D01*
X169901810Y-81473524D01*
X169901810Y-81304191D02*
X169901810Y-81013905D01*
X170409810Y-81159048D02*
X169901810Y-81159048D01*
X170458190Y-80965524D02*
X170458190Y-80578476D01*
X170264667Y-80481714D02*
X170264667Y-80239809D01*
X170409810Y-80530095D02*
X169901810Y-80360762D01*
X170409810Y-80191428D01*
X169901810Y-89855524D02*
X169901810Y-89758762D01*
X169926000Y-89710381D01*
X169974381Y-89662000D01*
X170071143Y-89637809D01*
X170240476Y-89637809D01*
X170337238Y-89662000D01*
X170385619Y-89710381D01*
X170409810Y-89758762D01*
X170409810Y-89855524D01*
X170385619Y-89903905D01*
X170337238Y-89952286D01*
X170240476Y-89976476D01*
X170071143Y-89976476D01*
X169974381Y-89952286D01*
X169926000Y-89903905D01*
X169901810Y-89855524D01*
X169901810Y-89420096D02*
X170313048Y-89420096D01*
X170361429Y-89395905D01*
X170385619Y-89371715D01*
X170409810Y-89323334D01*
X170409810Y-89226572D01*
X170385619Y-89178191D01*
X170361429Y-89154000D01*
X170313048Y-89129810D01*
X169901810Y-89129810D01*
X169901810Y-88960477D02*
X169901810Y-88670191D01*
X170409810Y-88815334D02*
X169901810Y-88815334D01*
X170458190Y-88621810D02*
X170458190Y-88234762D01*
X170143714Y-87944476D02*
X170167905Y-87871905D01*
X170192095Y-87847714D01*
X170240476Y-87823524D01*
X170313048Y-87823524D01*
X170361429Y-87847714D01*
X170385619Y-87871905D01*
X170409810Y-87920286D01*
X170409810Y-88113810D01*
X169901810Y-88113810D01*
X169901810Y-87944476D01*
X169926000Y-87896095D01*
X169950190Y-87871905D01*
X169998571Y-87847714D01*
X170046952Y-87847714D01*
X170095333Y-87871905D01*
X170119524Y-87896095D01*
X170143714Y-87944476D01*
X170143714Y-88113810D01*
X195809810Y-71844286D02*
X195809810Y-72134572D01*
X195809810Y-71989429D02*
X195301810Y-71989429D01*
X195374381Y-72037810D01*
X195422762Y-72086191D01*
X195446952Y-72134572D01*
X195301810Y-71529810D02*
X195301810Y-71481429D01*
X195326000Y-71433048D01*
X195350190Y-71408857D01*
X195398571Y-71384667D01*
X195495333Y-71360476D01*
X195616286Y-71360476D01*
X195713048Y-71384667D01*
X195761429Y-71408857D01*
X195785619Y-71433048D01*
X195809810Y-71481429D01*
X195809810Y-71529810D01*
X195785619Y-71578191D01*
X195761429Y-71602381D01*
X195713048Y-71626572D01*
X195616286Y-71650762D01*
X195495333Y-71650762D01*
X195398571Y-71626572D01*
X195350190Y-71602381D01*
X195326000Y-71578191D01*
X195301810Y-71529810D01*
X195301810Y-71046000D02*
X195301810Y-70997619D01*
X195326000Y-70949238D01*
X195350190Y-70925047D01*
X195398571Y-70900857D01*
X195495333Y-70876666D01*
X195616286Y-70876666D01*
X195713048Y-70900857D01*
X195761429Y-70925047D01*
X195785619Y-70949238D01*
X195809810Y-70997619D01*
X195809810Y-71046000D01*
X195785619Y-71094381D01*
X195761429Y-71118571D01*
X195713048Y-71142762D01*
X195616286Y-71166952D01*
X195495333Y-71166952D01*
X195398571Y-71142762D01*
X195350190Y-71118571D01*
X195326000Y-71094381D01*
X195301810Y-71046000D01*
X195809810Y-70658952D02*
X195301810Y-70658952D01*
X195616286Y-70610571D02*
X195809810Y-70465428D01*
X195471143Y-70465428D02*
X195664667Y-70658952D01*
X174981810Y-81639639D02*
X174981810Y-81929925D01*
X174981810Y-81784782D02*
X174473810Y-81784782D01*
X174546381Y-81833163D01*
X174594762Y-81881544D01*
X174618952Y-81929925D01*
X174473810Y-81325163D02*
X174473810Y-81276782D01*
X174498000Y-81228401D01*
X174522190Y-81204210D01*
X174570571Y-81180020D01*
X174667333Y-81155829D01*
X174788286Y-81155829D01*
X174885048Y-81180020D01*
X174933429Y-81204210D01*
X174957619Y-81228401D01*
X174981810Y-81276782D01*
X174981810Y-81325163D01*
X174957619Y-81373544D01*
X174933429Y-81397734D01*
X174885048Y-81421925D01*
X174788286Y-81446115D01*
X174667333Y-81446115D01*
X174570571Y-81421925D01*
X174522190Y-81397734D01*
X174498000Y-81373544D01*
X174473810Y-81325163D01*
X174473810Y-80841353D02*
X174473810Y-80792972D01*
X174498000Y-80744591D01*
X174522190Y-80720400D01*
X174570571Y-80696210D01*
X174667333Y-80672019D01*
X174788286Y-80672019D01*
X174885048Y-80696210D01*
X174933429Y-80720400D01*
X174957619Y-80744591D01*
X174981810Y-80792972D01*
X174981810Y-80841353D01*
X174957619Y-80889734D01*
X174933429Y-80913924D01*
X174885048Y-80938115D01*
X174788286Y-80962305D01*
X174667333Y-80962305D01*
X174570571Y-80938115D01*
X174522190Y-80913924D01*
X174498000Y-80889734D01*
X174473810Y-80841353D01*
X174473810Y-80357543D02*
X174473810Y-80309162D01*
X174498000Y-80260781D01*
X174522190Y-80236590D01*
X174570571Y-80212400D01*
X174667333Y-80188209D01*
X174788286Y-80188209D01*
X174885048Y-80212400D01*
X174933429Y-80236590D01*
X174957619Y-80260781D01*
X174981810Y-80309162D01*
X174981810Y-80357543D01*
X174957619Y-80405924D01*
X174933429Y-80430114D01*
X174885048Y-80454305D01*
X174788286Y-80478495D01*
X174667333Y-80478495D01*
X174570571Y-80454305D01*
X174522190Y-80430114D01*
X174498000Y-80405924D01*
X174473810Y-80357543D01*
X174643143Y-79970495D02*
X175151143Y-79970495D01*
X174667333Y-79970495D02*
X174643143Y-79922114D01*
X174643143Y-79825352D01*
X174667333Y-79776971D01*
X174691524Y-79752780D01*
X174739905Y-79728590D01*
X174885048Y-79728590D01*
X174933429Y-79752780D01*
X174957619Y-79776971D01*
X174981810Y-79825352D01*
X174981810Y-79922114D01*
X174957619Y-79970495D01*
X174981810Y-88440381D02*
X174981810Y-88730667D01*
X174981810Y-88585524D02*
X174473810Y-88585524D01*
X174546381Y-88633905D01*
X174594762Y-88682286D01*
X174618952Y-88730667D01*
X174473810Y-88125905D02*
X174473810Y-88077524D01*
X174498000Y-88029143D01*
X174522190Y-88004952D01*
X174570571Y-87980762D01*
X174667333Y-87956571D01*
X174788286Y-87956571D01*
X174885048Y-87980762D01*
X174933429Y-88004952D01*
X174957619Y-88029143D01*
X174981810Y-88077524D01*
X174981810Y-88125905D01*
X174957619Y-88174286D01*
X174933429Y-88198476D01*
X174885048Y-88222667D01*
X174788286Y-88246857D01*
X174667333Y-88246857D01*
X174570571Y-88222667D01*
X174522190Y-88198476D01*
X174498000Y-88174286D01*
X174473810Y-88125905D01*
X174473810Y-87642095D02*
X174473810Y-87593714D01*
X174498000Y-87545333D01*
X174522190Y-87521142D01*
X174570571Y-87496952D01*
X174667333Y-87472761D01*
X174788286Y-87472761D01*
X174885048Y-87496952D01*
X174933429Y-87521142D01*
X174957619Y-87545333D01*
X174981810Y-87593714D01*
X174981810Y-87642095D01*
X174957619Y-87690476D01*
X174933429Y-87714666D01*
X174885048Y-87738857D01*
X174788286Y-87763047D01*
X174667333Y-87763047D01*
X174570571Y-87738857D01*
X174522190Y-87714666D01*
X174498000Y-87690476D01*
X174473810Y-87642095D01*
X174473810Y-87158285D02*
X174473810Y-87109904D01*
X174498000Y-87061523D01*
X174522190Y-87037332D01*
X174570571Y-87013142D01*
X174667333Y-86988951D01*
X174788286Y-86988951D01*
X174885048Y-87013142D01*
X174933429Y-87037332D01*
X174957619Y-87061523D01*
X174981810Y-87109904D01*
X174981810Y-87158285D01*
X174957619Y-87206666D01*
X174933429Y-87230856D01*
X174885048Y-87255047D01*
X174788286Y-87279237D01*
X174667333Y-87279237D01*
X174570571Y-87255047D01*
X174522190Y-87230856D01*
X174498000Y-87206666D01*
X174473810Y-87158285D01*
X174643143Y-86771237D02*
X175151143Y-86771237D01*
X174667333Y-86771237D02*
X174643143Y-86722856D01*
X174643143Y-86626094D01*
X174667333Y-86577713D01*
X174691524Y-86553522D01*
X174739905Y-86529332D01*
X174885048Y-86529332D01*
X174933429Y-86553522D01*
X174957619Y-86577713D01*
X174981810Y-86626094D01*
X174981810Y-86722856D01*
X174957619Y-86771237D01*
X208763810Y-86976858D02*
X208763810Y-86928477D01*
X208788000Y-86880096D01*
X208812190Y-86855905D01*
X208860571Y-86831715D01*
X208957333Y-86807524D01*
X209078286Y-86807524D01*
X209175048Y-86831715D01*
X209223429Y-86855905D01*
X209247619Y-86880096D01*
X209271810Y-86928477D01*
X209271810Y-86976858D01*
X209247619Y-87025239D01*
X209223429Y-87049429D01*
X209175048Y-87073620D01*
X209078286Y-87097810D01*
X208957333Y-87097810D01*
X208860571Y-87073620D01*
X208812190Y-87049429D01*
X208788000Y-87025239D01*
X208763810Y-86976858D01*
X209223429Y-86589810D02*
X209247619Y-86565619D01*
X209271810Y-86589810D01*
X209247619Y-86614000D01*
X209223429Y-86589810D01*
X209271810Y-86589810D01*
X209271810Y-86081809D02*
X209271810Y-86372095D01*
X209271810Y-86226952D02*
X208763810Y-86226952D01*
X208836381Y-86275333D01*
X208884762Y-86323714D01*
X208908952Y-86372095D01*
X208933143Y-85646380D02*
X209271810Y-85646380D01*
X208933143Y-85864095D02*
X209199238Y-85864095D01*
X209247619Y-85839904D01*
X209271810Y-85791523D01*
X209271810Y-85718952D01*
X209247619Y-85670571D01*
X209223429Y-85646380D01*
X207480761Y-82933810D02*
X207529142Y-82933810D01*
X207577523Y-82958000D01*
X207601714Y-82982190D01*
X207625904Y-83030571D01*
X207650095Y-83127333D01*
X207650095Y-83248286D01*
X207625904Y-83345048D01*
X207601714Y-83393429D01*
X207577523Y-83417619D01*
X207529142Y-83441810D01*
X207480761Y-83441810D01*
X207432380Y-83417619D01*
X207408190Y-83393429D01*
X207383999Y-83345048D01*
X207359809Y-83248286D01*
X207359809Y-83127333D01*
X207383999Y-83030571D01*
X207408190Y-82982190D01*
X207432380Y-82958000D01*
X207480761Y-82933810D01*
X207867809Y-83393429D02*
X207892000Y-83417619D01*
X207867809Y-83441810D01*
X207843619Y-83417619D01*
X207867809Y-83393429D01*
X207867809Y-83441810D01*
X208206476Y-82933810D02*
X208254857Y-82933810D01*
X208303238Y-82958000D01*
X208327429Y-82982190D01*
X208351619Y-83030571D01*
X208375810Y-83127333D01*
X208375810Y-83248286D01*
X208351619Y-83345048D01*
X208327429Y-83393429D01*
X208303238Y-83417619D01*
X208254857Y-83441810D01*
X208206476Y-83441810D01*
X208158095Y-83417619D01*
X208133905Y-83393429D01*
X208109714Y-83345048D01*
X208085524Y-83248286D01*
X208085524Y-83127333D01*
X208109714Y-83030571D01*
X208133905Y-82982190D01*
X208158095Y-82958000D01*
X208206476Y-82933810D01*
X208859620Y-83441810D02*
X208569334Y-83441810D01*
X208714477Y-83441810D02*
X208714477Y-82933810D01*
X208666096Y-83006381D01*
X208617715Y-83054762D01*
X208569334Y-83078952D01*
X209053144Y-83441810D02*
X209440192Y-82933810D01*
X209125715Y-82933810D02*
X209174096Y-82958000D01*
X209198287Y-83006381D01*
X209174096Y-83054762D01*
X209125715Y-83078952D01*
X209077334Y-83054762D01*
X209053144Y-83006381D01*
X209077334Y-82958000D01*
X209125715Y-82933810D01*
X209416001Y-83417619D02*
X209440192Y-83369238D01*
X209416001Y-83320857D01*
X209367620Y-83296667D01*
X209319239Y-83320857D01*
X209295049Y-83369238D01*
X209319239Y-83417619D01*
X209367620Y-83441810D01*
X209416001Y-83417619D01*
X214425809Y-81509810D02*
X214474190Y-81509810D01*
X214522571Y-81534000D01*
X214546762Y-81558190D01*
X214570952Y-81606571D01*
X214595143Y-81703333D01*
X214595143Y-81824286D01*
X214570952Y-81921048D01*
X214546762Y-81969429D01*
X214522571Y-81993619D01*
X214474190Y-82017810D01*
X214425809Y-82017810D01*
X214377428Y-81993619D01*
X214353238Y-81969429D01*
X214329047Y-81921048D01*
X214304857Y-81824286D01*
X214304857Y-81703333D01*
X214329047Y-81606571D01*
X214353238Y-81558190D01*
X214377428Y-81534000D01*
X214425809Y-81509810D01*
X213105714Y-80747810D02*
X212815428Y-80747810D01*
X212960571Y-80747810D02*
X212960571Y-80239810D01*
X212912190Y-80312381D01*
X212863809Y-80360762D01*
X212815428Y-80384952D01*
X213420190Y-80239810D02*
X213468571Y-80239810D01*
X213516952Y-80264000D01*
X213541143Y-80288190D01*
X213565333Y-80336571D01*
X213589524Y-80433333D01*
X213589524Y-80554286D01*
X213565333Y-80651048D01*
X213541143Y-80699429D01*
X213516952Y-80723619D01*
X213468571Y-80747810D01*
X213420190Y-80747810D01*
X213371809Y-80723619D01*
X213347619Y-80699429D01*
X213323428Y-80651048D01*
X213299238Y-80554286D01*
X213299238Y-80433333D01*
X213323428Y-80336571D01*
X213347619Y-80288190D01*
X213371809Y-80264000D01*
X213420190Y-80239810D01*
X213904000Y-80239810D02*
X213952381Y-80239810D01*
X214000762Y-80264000D01*
X214024953Y-80288190D01*
X214049143Y-80336571D01*
X214073334Y-80433333D01*
X214073334Y-80554286D01*
X214049143Y-80651048D01*
X214024953Y-80699429D01*
X214000762Y-80723619D01*
X213952381Y-80747810D01*
X213904000Y-80747810D01*
X213855619Y-80723619D01*
X213831429Y-80699429D01*
X213807238Y-80651048D01*
X213783048Y-80554286D01*
X213783048Y-80433333D01*
X213807238Y-80336571D01*
X213831429Y-80288190D01*
X213855619Y-80264000D01*
X213904000Y-80239810D01*
X214291048Y-80747810D02*
X214291048Y-80239810D01*
X214339429Y-80554286D02*
X214484572Y-80747810D01*
X214484572Y-80409143D02*
X214291048Y-80602667D01*
X206429428Y-81110667D02*
X206671333Y-81110667D01*
X206381047Y-81255810D02*
X206550380Y-80747810D01*
X206719714Y-81255810D01*
X206889047Y-81255810D02*
X206889047Y-80747810D01*
X207010000Y-80747810D01*
X207082571Y-80772000D01*
X207130952Y-80820381D01*
X207155143Y-80868762D01*
X207179333Y-80965524D01*
X207179333Y-81038095D01*
X207155143Y-81134857D01*
X207130952Y-81183238D01*
X207082571Y-81231619D01*
X207010000Y-81255810D01*
X206889047Y-81255810D01*
X207469619Y-80965524D02*
X207421238Y-80941333D01*
X207397047Y-80917143D01*
X207372857Y-80868762D01*
X207372857Y-80844571D01*
X207397047Y-80796190D01*
X207421238Y-80772000D01*
X207469619Y-80747810D01*
X207566381Y-80747810D01*
X207614762Y-80772000D01*
X207638952Y-80796190D01*
X207663143Y-80844571D01*
X207663143Y-80868762D01*
X207638952Y-80917143D01*
X207614762Y-80941333D01*
X207566381Y-80965524D01*
X207469619Y-80965524D01*
X207421238Y-80989714D01*
X207397047Y-81013905D01*
X207372857Y-81062286D01*
X207372857Y-81159048D01*
X207397047Y-81207429D01*
X207421238Y-81231619D01*
X207469619Y-81255810D01*
X207566381Y-81255810D01*
X207614762Y-81231619D01*
X207638952Y-81207429D01*
X207663143Y-81159048D01*
X207663143Y-81062286D01*
X207638952Y-81013905D01*
X207614762Y-80989714D01*
X207566381Y-80965524D01*
X208098572Y-80747810D02*
X208001810Y-80747810D01*
X207953429Y-80772000D01*
X207929238Y-80796190D01*
X207880857Y-80868762D01*
X207856667Y-80965524D01*
X207856667Y-81159048D01*
X207880857Y-81207429D01*
X207905048Y-81231619D01*
X207953429Y-81255810D01*
X208050191Y-81255810D01*
X208098572Y-81231619D01*
X208122762Y-81207429D01*
X208146953Y-81159048D01*
X208146953Y-81038095D01*
X208122762Y-80989714D01*
X208098572Y-80965524D01*
X208050191Y-80941333D01*
X207953429Y-80941333D01*
X207905048Y-80965524D01*
X207880857Y-80989714D01*
X207856667Y-81038095D01*
X208461429Y-80747810D02*
X208509810Y-80747810D01*
X208558191Y-80772000D01*
X208582382Y-80796190D01*
X208606572Y-80844571D01*
X208630763Y-80941333D01*
X208630763Y-81062286D01*
X208606572Y-81159048D01*
X208582382Y-81207429D01*
X208558191Y-81231619D01*
X208509810Y-81255810D01*
X208461429Y-81255810D01*
X208413048Y-81231619D01*
X208388858Y-81207429D01*
X208364667Y-81159048D01*
X208340477Y-81062286D01*
X208340477Y-80941333D01*
X208364667Y-80844571D01*
X208388858Y-80796190D01*
X208413048Y-80772000D01*
X208461429Y-80747810D01*
X208800096Y-80747810D02*
X209138763Y-80747810D01*
X208921049Y-81255810D01*
X213952667Y-87956572D02*
X213952667Y-87714667D01*
X214097810Y-88004953D02*
X213589810Y-87835620D01*
X214097810Y-87666286D01*
X214097810Y-87496953D02*
X213589810Y-87496953D01*
X213589810Y-87376000D01*
X213614000Y-87303429D01*
X213662381Y-87255048D01*
X213710762Y-87230857D01*
X213807524Y-87206667D01*
X213880095Y-87206667D01*
X213976857Y-87230857D01*
X214025238Y-87255048D01*
X214073619Y-87303429D01*
X214097810Y-87376000D01*
X214097810Y-87496953D01*
X213807524Y-86916381D02*
X213783333Y-86964762D01*
X213759143Y-86988953D01*
X213710762Y-87013143D01*
X213686571Y-87013143D01*
X213638190Y-86988953D01*
X213614000Y-86964762D01*
X213589810Y-86916381D01*
X213589810Y-86819619D01*
X213614000Y-86771238D01*
X213638190Y-86747048D01*
X213686571Y-86722857D01*
X213710762Y-86722857D01*
X213759143Y-86747048D01*
X213783333Y-86771238D01*
X213807524Y-86819619D01*
X213807524Y-86916381D01*
X213831714Y-86964762D01*
X213855905Y-86988953D01*
X213904286Y-87013143D01*
X214001048Y-87013143D01*
X214049429Y-86988953D01*
X214073619Y-86964762D01*
X214097810Y-86916381D01*
X214097810Y-86819619D01*
X214073619Y-86771238D01*
X214049429Y-86747048D01*
X214001048Y-86722857D01*
X213904286Y-86722857D01*
X213855905Y-86747048D01*
X213831714Y-86771238D01*
X213807524Y-86819619D01*
X213638190Y-86529333D02*
X213614000Y-86505143D01*
X213589810Y-86456762D01*
X213589810Y-86335809D01*
X213614000Y-86287428D01*
X213638190Y-86263238D01*
X213686571Y-86239047D01*
X213734952Y-86239047D01*
X213807524Y-86263238D01*
X214097810Y-86553524D01*
X214097810Y-86239047D01*
X213589810Y-86069714D02*
X213589810Y-85731047D01*
X214097810Y-85948761D01*
X213589810Y-85585904D02*
X213589810Y-85247237D01*
X214097810Y-85464951D01*
X218403714Y-86142286D02*
X218427905Y-86069715D01*
X218452095Y-86045524D01*
X218500476Y-86021334D01*
X218573048Y-86021334D01*
X218621429Y-86045524D01*
X218645619Y-86069715D01*
X218669810Y-86118096D01*
X218669810Y-86311620D01*
X218161810Y-86311620D01*
X218161810Y-86142286D01*
X218186000Y-86093905D01*
X218210190Y-86069715D01*
X218258571Y-86045524D01*
X218306952Y-86045524D01*
X218355333Y-86069715D01*
X218379524Y-86093905D01*
X218403714Y-86142286D01*
X218403714Y-86311620D01*
X218669810Y-85803620D02*
X218161810Y-85803620D01*
X218524667Y-85585905D02*
X218524667Y-85344000D01*
X218669810Y-85634286D02*
X218161810Y-85464953D01*
X218669810Y-85295619D01*
X218645619Y-85150476D02*
X218669810Y-85077905D01*
X218669810Y-84956952D01*
X218645619Y-84908571D01*
X218621429Y-84884381D01*
X218573048Y-84860190D01*
X218524667Y-84860190D01*
X218476286Y-84884381D01*
X218452095Y-84908571D01*
X218427905Y-84956952D01*
X218403714Y-85053714D01*
X218379524Y-85102095D01*
X218355333Y-85126286D01*
X218306952Y-85150476D01*
X218258571Y-85150476D01*
X218210190Y-85126286D01*
X218186000Y-85102095D01*
X218161810Y-85053714D01*
X218161810Y-84932762D01*
X218186000Y-84860190D01*
X208883142Y-78207810D02*
X208931523Y-78207810D01*
X208979904Y-78232000D01*
X209004095Y-78256190D01*
X209028285Y-78304571D01*
X209052476Y-78401333D01*
X209052476Y-78522286D01*
X209028285Y-78619048D01*
X209004095Y-78667429D01*
X208979904Y-78691619D01*
X208931523Y-78715810D01*
X208883142Y-78715810D01*
X208834761Y-78691619D01*
X208810571Y-78667429D01*
X208786380Y-78619048D01*
X208762190Y-78522286D01*
X208762190Y-78401333D01*
X208786380Y-78304571D01*
X208810571Y-78256190D01*
X208834761Y-78232000D01*
X208883142Y-78207810D01*
X209270190Y-78667429D02*
X209294381Y-78691619D01*
X209270190Y-78715810D01*
X209246000Y-78691619D01*
X209270190Y-78667429D01*
X209270190Y-78715810D01*
X209778191Y-78715810D02*
X209487905Y-78715810D01*
X209633048Y-78715810D02*
X209633048Y-78207810D01*
X209584667Y-78280381D01*
X209536286Y-78328762D01*
X209487905Y-78352952D01*
X210213620Y-78377143D02*
X210213620Y-78715810D01*
X209995905Y-78377143D02*
X209995905Y-78643238D01*
X210020096Y-78691619D01*
X210068477Y-78715810D01*
X210141048Y-78715810D01*
X210189429Y-78691619D01*
X210213620Y-78667429D01*
X215505714Y-92179810D02*
X215215428Y-92179810D01*
X215360571Y-92179810D02*
X215360571Y-91671810D01*
X215312190Y-91744381D01*
X215263809Y-91792762D01*
X215215428Y-91816952D01*
X215820190Y-91671810D02*
X215868571Y-91671810D01*
X215916952Y-91696000D01*
X215941143Y-91720190D01*
X215965333Y-91768571D01*
X215989524Y-91865333D01*
X215989524Y-91986286D01*
X215965333Y-92083048D01*
X215941143Y-92131429D01*
X215916952Y-92155619D01*
X215868571Y-92179810D01*
X215820190Y-92179810D01*
X215771809Y-92155619D01*
X215747619Y-92131429D01*
X215723428Y-92083048D01*
X215699238Y-91986286D01*
X215699238Y-91865333D01*
X215723428Y-91768571D01*
X215747619Y-91720190D01*
X215771809Y-91696000D01*
X215820190Y-91671810D01*
X216304000Y-91671810D02*
X216352381Y-91671810D01*
X216400762Y-91696000D01*
X216424953Y-91720190D01*
X216449143Y-91768571D01*
X216473334Y-91865333D01*
X216473334Y-91986286D01*
X216449143Y-92083048D01*
X216424953Y-92131429D01*
X216400762Y-92155619D01*
X216352381Y-92179810D01*
X216304000Y-92179810D01*
X216255619Y-92155619D01*
X216231429Y-92131429D01*
X216207238Y-92083048D01*
X216183048Y-91986286D01*
X216183048Y-91865333D01*
X216207238Y-91768571D01*
X216231429Y-91720190D01*
X216255619Y-91696000D01*
X216304000Y-91671810D01*
X216691048Y-92179810D02*
X216691048Y-91671810D01*
X216739429Y-91986286D02*
X216884572Y-92179810D01*
X216884572Y-91841143D02*
X216691048Y-92034667D01*
X209855714Y-91929810D02*
X209565428Y-91929810D01*
X209710571Y-91929810D02*
X209710571Y-91421810D01*
X209662190Y-91494381D01*
X209613809Y-91542762D01*
X209565428Y-91566952D01*
X210170190Y-91421810D02*
X210218571Y-91421810D01*
X210266952Y-91446000D01*
X210291143Y-91470190D01*
X210315333Y-91518571D01*
X210339524Y-91615333D01*
X210339524Y-91736286D01*
X210315333Y-91833048D01*
X210291143Y-91881429D01*
X210266952Y-91905619D01*
X210218571Y-91929810D01*
X210170190Y-91929810D01*
X210121809Y-91905619D01*
X210097619Y-91881429D01*
X210073428Y-91833048D01*
X210049238Y-91736286D01*
X210049238Y-91615333D01*
X210073428Y-91518571D01*
X210097619Y-91470190D01*
X210121809Y-91446000D01*
X210170190Y-91421810D01*
X210654000Y-91421810D02*
X210702381Y-91421810D01*
X210750762Y-91446000D01*
X210774953Y-91470190D01*
X210799143Y-91518571D01*
X210823334Y-91615333D01*
X210823334Y-91736286D01*
X210799143Y-91833048D01*
X210774953Y-91881429D01*
X210750762Y-91905619D01*
X210702381Y-91929810D01*
X210654000Y-91929810D01*
X210605619Y-91905619D01*
X210581429Y-91881429D01*
X210557238Y-91833048D01*
X210533048Y-91736286D01*
X210533048Y-91615333D01*
X210557238Y-91518571D01*
X210581429Y-91470190D01*
X210605619Y-91446000D01*
X210654000Y-91421810D01*
X211041048Y-91929810D02*
X211041048Y-91421810D01*
X211089429Y-91736286D02*
X211234572Y-91929810D01*
X211234572Y-91591143D02*
X211041048Y-91784667D01*
X175007000Y-71204667D02*
X175248905Y-71204667D01*
X174958619Y-71349810D02*
X175127952Y-70841810D01*
X175297286Y-71349810D01*
X175466619Y-71349810D02*
X175466619Y-70841810D01*
X175587572Y-70841810D01*
X175660143Y-70866000D01*
X175708524Y-70914381D01*
X175732715Y-70962762D01*
X175756905Y-71059524D01*
X175756905Y-71132095D01*
X175732715Y-71228857D01*
X175708524Y-71277238D01*
X175660143Y-71325619D01*
X175587572Y-71349810D01*
X175466619Y-71349810D01*
X176264905Y-71301429D02*
X176240715Y-71325619D01*
X176168143Y-71349810D01*
X176119762Y-71349810D01*
X176047191Y-71325619D01*
X175998810Y-71277238D01*
X175974619Y-71228857D01*
X175950429Y-71132095D01*
X175950429Y-71059524D01*
X175974619Y-70962762D01*
X175998810Y-70914381D01*
X176047191Y-70866000D01*
X176119762Y-70841810D01*
X176168143Y-70841810D01*
X176240715Y-70866000D01*
X176264905Y-70890190D01*
X176361667Y-71398190D02*
X176748715Y-71398190D01*
X177159953Y-71349810D02*
X176990620Y-71107905D01*
X176869667Y-71349810D02*
X176869667Y-70841810D01*
X177063191Y-70841810D01*
X177111572Y-70866000D01*
X177135763Y-70890190D01*
X177159953Y-70938571D01*
X177159953Y-71011143D01*
X177135763Y-71059524D01*
X177111572Y-71083714D01*
X177063191Y-71107905D01*
X176869667Y-71107905D01*
X177377667Y-71083714D02*
X177547001Y-71083714D01*
X177619572Y-71349810D02*
X177377667Y-71349810D01*
X177377667Y-70841810D01*
X177619572Y-70841810D01*
X178006620Y-71083714D02*
X177837286Y-71083714D01*
X177837286Y-71349810D02*
X177837286Y-70841810D01*
X178079191Y-70841810D01*
X188824810Y-87400191D02*
X188824810Y-87351810D01*
X188849000Y-87303429D01*
X188873190Y-87279238D01*
X188921571Y-87255048D01*
X189018333Y-87230857D01*
X189139286Y-87230857D01*
X189236048Y-87255048D01*
X189284429Y-87279238D01*
X189308619Y-87303429D01*
X189332810Y-87351810D01*
X189332810Y-87400191D01*
X189308619Y-87448572D01*
X189284429Y-87472762D01*
X189236048Y-87496953D01*
X189139286Y-87521143D01*
X189018333Y-87521143D01*
X188921571Y-87496953D01*
X188873190Y-87472762D01*
X188849000Y-87448572D01*
X188824810Y-87400191D01*
X188133142Y-85573810D02*
X188181523Y-85573810D01*
X188229904Y-85598000D01*
X188254095Y-85622190D01*
X188278285Y-85670571D01*
X188302476Y-85767333D01*
X188302476Y-85888286D01*
X188278285Y-85985048D01*
X188254095Y-86033429D01*
X188229904Y-86057619D01*
X188181523Y-86081810D01*
X188133142Y-86081810D01*
X188084761Y-86057619D01*
X188060571Y-86033429D01*
X188036380Y-85985048D01*
X188012190Y-85888286D01*
X188012190Y-85767333D01*
X188036380Y-85670571D01*
X188060571Y-85622190D01*
X188084761Y-85598000D01*
X188133142Y-85573810D01*
X188520190Y-86033429D02*
X188544381Y-86057619D01*
X188520190Y-86081810D01*
X188496000Y-86057619D01*
X188520190Y-86033429D01*
X188520190Y-86081810D01*
X189028191Y-86081810D02*
X188737905Y-86081810D01*
X188883048Y-86081810D02*
X188883048Y-85573810D01*
X188834667Y-85646381D01*
X188786286Y-85694762D01*
X188737905Y-85718952D01*
X189463620Y-85743143D02*
X189463620Y-86081810D01*
X189245905Y-85743143D02*
X189245905Y-86009238D01*
X189270096Y-86057619D01*
X189318477Y-86081810D01*
X189391048Y-86081810D01*
X189439429Y-86057619D01*
X189463620Y-86033429D01*
X200091522Y-85319810D02*
X200091522Y-84811810D01*
X200260856Y-85174667D01*
X200430189Y-84811810D01*
X200430189Y-85319810D01*
X200647903Y-85174667D02*
X200889808Y-85174667D01*
X200599522Y-85319810D02*
X200768855Y-84811810D01*
X200938189Y-85319810D01*
X201059141Y-84811810D02*
X201397808Y-85319810D01*
X201397808Y-84811810D02*
X201059141Y-85319810D01*
X201857428Y-85319810D02*
X201567142Y-85319810D01*
X201712285Y-85319810D02*
X201712285Y-84811810D01*
X201663904Y-84884381D01*
X201615523Y-84932762D01*
X201567142Y-84956952D01*
X202292857Y-84981143D02*
X202292857Y-85319810D01*
X202171904Y-84787619D02*
X202050952Y-85150476D01*
X202365428Y-85150476D01*
X202776667Y-84811810D02*
X202679905Y-84811810D01*
X202631524Y-84836000D01*
X202607333Y-84860190D01*
X202558952Y-84932762D01*
X202534762Y-85029524D01*
X202534762Y-85223048D01*
X202558952Y-85271429D01*
X202583143Y-85295619D01*
X202631524Y-85319810D01*
X202728286Y-85319810D01*
X202776667Y-85295619D01*
X202800857Y-85271429D01*
X202825048Y-85223048D01*
X202825048Y-85102095D01*
X202800857Y-85053714D01*
X202776667Y-85029524D01*
X202728286Y-85005333D01*
X202631524Y-85005333D01*
X202583143Y-85029524D01*
X202558952Y-85053714D01*
X202534762Y-85102095D01*
X203260477Y-84811810D02*
X203163715Y-84811810D01*
X203115334Y-84836000D01*
X203091143Y-84860190D01*
X203042762Y-84932762D01*
X203018572Y-85029524D01*
X203018572Y-85223048D01*
X203042762Y-85271429D01*
X203066953Y-85295619D01*
X203115334Y-85319810D01*
X203212096Y-85319810D01*
X203260477Y-85295619D01*
X203284667Y-85271429D01*
X203308858Y-85223048D01*
X203308858Y-85102095D01*
X203284667Y-85053714D01*
X203260477Y-85029524D01*
X203212096Y-85005333D01*
X203115334Y-85005333D01*
X203066953Y-85029524D01*
X203042762Y-85053714D01*
X203018572Y-85102095D01*
X203792668Y-85319810D02*
X203502382Y-85319810D01*
X203647525Y-85319810D02*
X203647525Y-84811810D01*
X203599144Y-84884381D01*
X203550763Y-84932762D01*
X203502382Y-84956952D01*
M02*
