G04 #@! TF.FileFunction,Other,Fab,Top*
%FSLAX46Y46*%
G04 Gerber Fmt 4.6, Leading zero omitted, Abs format (unit mm)*
G04 Created by KiCad (PCBNEW 4.0.1-stable) date Friday, February 12, 2016 'PMt' 08:25:32 PM*
%MOMM*%
G01*
G04 APERTURE LIST*
%ADD10C,0.100000*%
%ADD11C,0.300000*%
%ADD12C,0.076200*%
G04 APERTURE END LIST*
D10*
D11*
X163158571Y-89482856D02*
X163158571Y-90339999D01*
X163158571Y-89911427D02*
X161658571Y-89911427D01*
X161872857Y-90054284D01*
X162015714Y-90197142D01*
X162087143Y-90339999D01*
X163015714Y-88839999D02*
X163087143Y-88768571D01*
X163158571Y-88839999D01*
X163087143Y-88911428D01*
X163015714Y-88839999D01*
X163158571Y-88839999D01*
X161801429Y-88197142D02*
X161730000Y-88125713D01*
X161658571Y-87982856D01*
X161658571Y-87625713D01*
X161730000Y-87482856D01*
X161801429Y-87411427D01*
X161944286Y-87339999D01*
X162087143Y-87339999D01*
X162301429Y-87411427D01*
X163158571Y-88268570D01*
X163158571Y-87339999D01*
X161658571Y-86411428D02*
X161658571Y-86268571D01*
X161730000Y-86125714D01*
X161801429Y-86054285D01*
X161944286Y-85982856D01*
X162230000Y-85911428D01*
X162587143Y-85911428D01*
X162872857Y-85982856D01*
X163015714Y-86054285D01*
X163087143Y-86125714D01*
X163158571Y-86268571D01*
X163158571Y-86411428D01*
X163087143Y-86554285D01*
X163015714Y-86625714D01*
X162872857Y-86697142D01*
X162587143Y-86768571D01*
X162230000Y-86768571D01*
X161944286Y-86697142D01*
X161801429Y-86625714D01*
X161730000Y-86554285D01*
X161658571Y-86411428D01*
X161658571Y-84982857D02*
X161658571Y-84840000D01*
X161730000Y-84697143D01*
X161801429Y-84625714D01*
X161944286Y-84554285D01*
X162230000Y-84482857D01*
X162587143Y-84482857D01*
X162872857Y-84554285D01*
X163015714Y-84625714D01*
X163087143Y-84697143D01*
X163158571Y-84840000D01*
X163158571Y-84982857D01*
X163087143Y-85125714D01*
X163015714Y-85197143D01*
X162872857Y-85268571D01*
X162587143Y-85340000D01*
X162230000Y-85340000D01*
X161944286Y-85268571D01*
X161801429Y-85197143D01*
X161730000Y-85125714D01*
X161658571Y-84982857D01*
X161658571Y-83554286D02*
X161658571Y-83411429D01*
X161730000Y-83268572D01*
X161801429Y-83197143D01*
X161944286Y-83125714D01*
X162230000Y-83054286D01*
X162587143Y-83054286D01*
X162872857Y-83125714D01*
X163015714Y-83197143D01*
X163087143Y-83268572D01*
X163158571Y-83411429D01*
X163158571Y-83554286D01*
X163087143Y-83697143D01*
X163015714Y-83768572D01*
X162872857Y-83840000D01*
X162587143Y-83911429D01*
X162230000Y-83911429D01*
X161944286Y-83840000D01*
X161801429Y-83768572D01*
X161730000Y-83697143D01*
X161658571Y-83554286D01*
X163158571Y-81268572D02*
X162158571Y-81268572D01*
X161658571Y-81268572D02*
X161730000Y-81340001D01*
X161801429Y-81268572D01*
X161730000Y-81197144D01*
X161658571Y-81268572D01*
X161801429Y-81268572D01*
X162158571Y-80554286D02*
X163158571Y-80554286D01*
X162301429Y-80554286D02*
X162230000Y-80482858D01*
X162158571Y-80340000D01*
X162158571Y-80125715D01*
X162230000Y-79982858D01*
X162372857Y-79911429D01*
X163158571Y-79911429D01*
X163830000Y-100330000D02*
X163830000Y-69850000D01*
X165100000Y-100330000D02*
X161130000Y-100330000D01*
X165100000Y-69850000D02*
X161130000Y-69850000D01*
X163830000Y-69850000D02*
X164416421Y-70976504D01*
X163830000Y-69850000D02*
X163243579Y-70976504D01*
X163830000Y-100330000D02*
X164416421Y-99203496D01*
X163830000Y-100330000D02*
X163243579Y-99203496D01*
X189060001Y-62741429D02*
X189131430Y-62670000D01*
X189274287Y-62598571D01*
X189631430Y-62598571D01*
X189774287Y-62670000D01*
X189845716Y-62741429D01*
X189917144Y-62884286D01*
X189917144Y-63027143D01*
X189845716Y-63241429D01*
X188988573Y-64098571D01*
X189917144Y-64098571D01*
X190560001Y-63955714D02*
X190631429Y-64027143D01*
X190560001Y-64098571D01*
X190488572Y-64027143D01*
X190560001Y-63955714D01*
X190560001Y-64098571D01*
X191560001Y-62598571D02*
X191702858Y-62598571D01*
X191845715Y-62670000D01*
X191917144Y-62741429D01*
X191988573Y-62884286D01*
X192060001Y-63170000D01*
X192060001Y-63527143D01*
X191988573Y-63812857D01*
X191917144Y-63955714D01*
X191845715Y-64027143D01*
X191702858Y-64098571D01*
X191560001Y-64098571D01*
X191417144Y-64027143D01*
X191345715Y-63955714D01*
X191274287Y-63812857D01*
X191202858Y-63527143D01*
X191202858Y-63170000D01*
X191274287Y-62884286D01*
X191345715Y-62741429D01*
X191417144Y-62670000D01*
X191560001Y-62598571D01*
X192988572Y-62598571D02*
X193131429Y-62598571D01*
X193274286Y-62670000D01*
X193345715Y-62741429D01*
X193417144Y-62884286D01*
X193488572Y-63170000D01*
X193488572Y-63527143D01*
X193417144Y-63812857D01*
X193345715Y-63955714D01*
X193274286Y-64027143D01*
X193131429Y-64098571D01*
X192988572Y-64098571D01*
X192845715Y-64027143D01*
X192774286Y-63955714D01*
X192702858Y-63812857D01*
X192631429Y-63527143D01*
X192631429Y-63170000D01*
X192702858Y-62884286D01*
X192774286Y-62741429D01*
X192845715Y-62670000D01*
X192988572Y-62598571D01*
X194417143Y-62598571D02*
X194560000Y-62598571D01*
X194702857Y-62670000D01*
X194774286Y-62741429D01*
X194845715Y-62884286D01*
X194917143Y-63170000D01*
X194917143Y-63527143D01*
X194845715Y-63812857D01*
X194774286Y-63955714D01*
X194702857Y-64027143D01*
X194560000Y-64098571D01*
X194417143Y-64098571D01*
X194274286Y-64027143D01*
X194202857Y-63955714D01*
X194131429Y-63812857D01*
X194060000Y-63527143D01*
X194060000Y-63170000D01*
X194131429Y-62884286D01*
X194202857Y-62741429D01*
X194274286Y-62670000D01*
X194417143Y-62598571D01*
X195845714Y-62598571D02*
X195988571Y-62598571D01*
X196131428Y-62670000D01*
X196202857Y-62741429D01*
X196274286Y-62884286D01*
X196345714Y-63170000D01*
X196345714Y-63527143D01*
X196274286Y-63812857D01*
X196202857Y-63955714D01*
X196131428Y-64027143D01*
X195988571Y-64098571D01*
X195845714Y-64098571D01*
X195702857Y-64027143D01*
X195631428Y-63955714D01*
X195560000Y-63812857D01*
X195488571Y-63527143D01*
X195488571Y-63170000D01*
X195560000Y-62884286D01*
X195631428Y-62741429D01*
X195702857Y-62670000D01*
X195845714Y-62598571D01*
X198131428Y-64098571D02*
X198131428Y-63098571D01*
X198131428Y-62598571D02*
X198059999Y-62670000D01*
X198131428Y-62741429D01*
X198202856Y-62670000D01*
X198131428Y-62598571D01*
X198131428Y-62741429D01*
X198845714Y-63098571D02*
X198845714Y-64098571D01*
X198845714Y-63241429D02*
X198917142Y-63170000D01*
X199060000Y-63098571D01*
X199274285Y-63098571D01*
X199417142Y-63170000D01*
X199488571Y-63312857D01*
X199488571Y-64098571D01*
X219710000Y-64770000D02*
X168910000Y-64770000D01*
X219710000Y-66040000D02*
X219710000Y-62070000D01*
X168910000Y-66040000D02*
X168910000Y-62070000D01*
X168910000Y-64770000D02*
X170036504Y-64183579D01*
X168910000Y-64770000D02*
X170036504Y-65356421D01*
X219710000Y-64770000D02*
X218583496Y-64183579D01*
X219710000Y-64770000D02*
X218583496Y-65356421D01*
D12*
X205080761Y-82921810D02*
X205129142Y-82921810D01*
X205177523Y-82946000D01*
X205201714Y-82970190D01*
X205225904Y-83018571D01*
X205250095Y-83115333D01*
X205250095Y-83236286D01*
X205225904Y-83333048D01*
X205201714Y-83381429D01*
X205177523Y-83405619D01*
X205129142Y-83429810D01*
X205080761Y-83429810D01*
X205032380Y-83405619D01*
X205008190Y-83381429D01*
X204983999Y-83333048D01*
X204959809Y-83236286D01*
X204959809Y-83115333D01*
X204983999Y-83018571D01*
X205008190Y-82970190D01*
X205032380Y-82946000D01*
X205080761Y-82921810D01*
X205467809Y-83381429D02*
X205492000Y-83405619D01*
X205467809Y-83429810D01*
X205443619Y-83405619D01*
X205467809Y-83381429D01*
X205467809Y-83429810D01*
X205806476Y-82921810D02*
X205854857Y-82921810D01*
X205903238Y-82946000D01*
X205927429Y-82970190D01*
X205951619Y-83018571D01*
X205975810Y-83115333D01*
X205975810Y-83236286D01*
X205951619Y-83333048D01*
X205927429Y-83381429D01*
X205903238Y-83405619D01*
X205854857Y-83429810D01*
X205806476Y-83429810D01*
X205758095Y-83405619D01*
X205733905Y-83381429D01*
X205709714Y-83333048D01*
X205685524Y-83236286D01*
X205685524Y-83115333D01*
X205709714Y-83018571D01*
X205733905Y-82970190D01*
X205758095Y-82946000D01*
X205806476Y-82921810D01*
X206459620Y-83429810D02*
X206169334Y-83429810D01*
X206314477Y-83429810D02*
X206314477Y-82921810D01*
X206266096Y-82994381D01*
X206217715Y-83042762D01*
X206169334Y-83066952D01*
X206653144Y-83429810D02*
X207040192Y-82921810D01*
X206725715Y-82921810D02*
X206774096Y-82946000D01*
X206798287Y-82994381D01*
X206774096Y-83042762D01*
X206725715Y-83066952D01*
X206677334Y-83042762D01*
X206653144Y-82994381D01*
X206677334Y-82946000D01*
X206725715Y-82921810D01*
X207016001Y-83405619D02*
X207040192Y-83357238D01*
X207016001Y-83308857D01*
X206967620Y-83284667D01*
X206919239Y-83308857D01*
X206895049Y-83357238D01*
X206919239Y-83405619D01*
X206967620Y-83429810D01*
X207016001Y-83405619D01*
X197285429Y-82871714D02*
X197309619Y-82847524D01*
X197333810Y-82871714D01*
X197309619Y-82895905D01*
X197285429Y-82871714D01*
X197333810Y-82871714D01*
X196850000Y-82968476D02*
X196825810Y-82920095D01*
X196825810Y-82799143D01*
X196850000Y-82750762D01*
X196898381Y-82726571D01*
X196946762Y-82726571D01*
X196995143Y-82750762D01*
X197019333Y-82774952D01*
X197043524Y-82823333D01*
X197067714Y-82847524D01*
X197116095Y-82871714D01*
X197140286Y-82871714D01*
X196995143Y-82508857D02*
X197503143Y-82508857D01*
X197019333Y-82508857D02*
X196995143Y-82460476D01*
X196995143Y-82363714D01*
X197019333Y-82315333D01*
X197043524Y-82291142D01*
X197091905Y-82266952D01*
X197237048Y-82266952D01*
X197285429Y-82291142D01*
X197309619Y-82315333D01*
X197333810Y-82363714D01*
X197333810Y-82460476D01*
X197309619Y-82508857D01*
X197067714Y-81879904D02*
X197067714Y-82049238D01*
X197333810Y-82049238D02*
X196825810Y-82049238D01*
X196825810Y-81807333D01*
X193655714Y-97663714D02*
X193728285Y-97687905D01*
X193752476Y-97712095D01*
X193776666Y-97760476D01*
X193776666Y-97833048D01*
X193752476Y-97881429D01*
X193728285Y-97905619D01*
X193679904Y-97929810D01*
X193486380Y-97929810D01*
X193486380Y-97421810D01*
X193655714Y-97421810D01*
X193704095Y-97446000D01*
X193728285Y-97470190D01*
X193752476Y-97518571D01*
X193752476Y-97566952D01*
X193728285Y-97615333D01*
X193704095Y-97639524D01*
X193655714Y-97663714D01*
X193486380Y-97663714D01*
X193994380Y-97929810D02*
X193994380Y-97421810D01*
X194212095Y-97784667D02*
X194454000Y-97784667D01*
X194163714Y-97929810D02*
X194333047Y-97421810D01*
X194502381Y-97929810D01*
X194647524Y-97905619D02*
X194720095Y-97929810D01*
X194841048Y-97929810D01*
X194889429Y-97905619D01*
X194913619Y-97881429D01*
X194937810Y-97833048D01*
X194937810Y-97784667D01*
X194913619Y-97736286D01*
X194889429Y-97712095D01*
X194841048Y-97687905D01*
X194744286Y-97663714D01*
X194695905Y-97639524D01*
X194671714Y-97615333D01*
X194647524Y-97566952D01*
X194647524Y-97518571D01*
X194671714Y-97470190D01*
X194695905Y-97446000D01*
X194744286Y-97421810D01*
X194865238Y-97421810D01*
X194937810Y-97446000D01*
X192701333Y-94209810D02*
X192701333Y-93701810D01*
X192870667Y-94064667D01*
X193040000Y-93701810D01*
X193040000Y-94209810D01*
X193281904Y-93943714D02*
X193451238Y-93943714D01*
X193523809Y-94209810D02*
X193281904Y-94209810D01*
X193281904Y-93701810D01*
X193523809Y-93701810D01*
X193717333Y-94064667D02*
X193959238Y-94064667D01*
X193668952Y-94209810D02*
X193838285Y-93701810D01*
X194007619Y-94209810D01*
X194152762Y-94185619D02*
X194225333Y-94209810D01*
X194346286Y-94209810D01*
X194394667Y-94185619D01*
X194418857Y-94161429D01*
X194443048Y-94113048D01*
X194443048Y-94064667D01*
X194418857Y-94016286D01*
X194394667Y-93992095D01*
X194346286Y-93967905D01*
X194249524Y-93943714D01*
X194201143Y-93919524D01*
X194176952Y-93895333D01*
X194152762Y-93846952D01*
X194152762Y-93798571D01*
X194176952Y-93750190D01*
X194201143Y-93726000D01*
X194249524Y-93701810D01*
X194370476Y-93701810D01*
X194443048Y-93726000D01*
X194660762Y-93701810D02*
X194660762Y-94113048D01*
X194684953Y-94161429D01*
X194709143Y-94185619D01*
X194757524Y-94209810D01*
X194854286Y-94209810D01*
X194902667Y-94185619D01*
X194926858Y-94161429D01*
X194951048Y-94113048D01*
X194951048Y-93701810D01*
X195483238Y-94209810D02*
X195313905Y-93967905D01*
X195192952Y-94209810D02*
X195192952Y-93701810D01*
X195386476Y-93701810D01*
X195434857Y-93726000D01*
X195459048Y-93750190D01*
X195483238Y-93798571D01*
X195483238Y-93871143D01*
X195459048Y-93919524D01*
X195434857Y-93943714D01*
X195386476Y-93967905D01*
X195192952Y-93967905D01*
X195700952Y-93943714D02*
X195870286Y-93943714D01*
X195942857Y-94209810D02*
X195700952Y-94209810D01*
X195700952Y-93701810D01*
X195942857Y-93701810D01*
X188552667Y-71349810D02*
X188552667Y-70841810D01*
X188746191Y-70841810D01*
X188794572Y-70866000D01*
X188818763Y-70890190D01*
X188842953Y-70938571D01*
X188842953Y-71011143D01*
X188818763Y-71059524D01*
X188794572Y-71083714D01*
X188746191Y-71107905D01*
X188552667Y-71107905D01*
X189012286Y-70841810D02*
X189133239Y-71349810D01*
X189230001Y-70986952D01*
X189326763Y-71349810D01*
X189447715Y-70841810D01*
X189931524Y-71349810D02*
X189762191Y-71107905D01*
X189641238Y-71349810D02*
X189641238Y-70841810D01*
X189834762Y-70841810D01*
X189883143Y-70866000D01*
X189907334Y-70890190D01*
X189931524Y-70938571D01*
X189931524Y-71011143D01*
X189907334Y-71059524D01*
X189883143Y-71083714D01*
X189834762Y-71107905D01*
X189641238Y-71107905D01*
X204699810Y-72365810D02*
X204699810Y-71857810D01*
X205304573Y-71833619D02*
X204869144Y-72486762D01*
X205570667Y-71857810D02*
X205667429Y-71857810D01*
X205715810Y-71882000D01*
X205764191Y-71930381D01*
X205788382Y-72027143D01*
X205788382Y-72196476D01*
X205764191Y-72293238D01*
X205715810Y-72341619D01*
X205667429Y-72365810D01*
X205570667Y-72365810D01*
X205522286Y-72341619D01*
X205473905Y-72293238D01*
X205449715Y-72196476D01*
X205449715Y-72027143D01*
X205473905Y-71930381D01*
X205522286Y-71882000D01*
X205570667Y-71857810D01*
X176965427Y-79731810D02*
X176965427Y-79223810D01*
X177134761Y-79586667D01*
X177304094Y-79223810D01*
X177304094Y-79731810D01*
X177521808Y-79586667D02*
X177763713Y-79586667D01*
X177473427Y-79731810D02*
X177642760Y-79223810D01*
X177812094Y-79731810D01*
X177933046Y-79223810D02*
X178271713Y-79731810D01*
X178271713Y-79223810D02*
X177933046Y-79731810D01*
X178682952Y-79393143D02*
X178682952Y-79731810D01*
X178561999Y-79199619D02*
X178441047Y-79562476D01*
X178755523Y-79562476D01*
X178924857Y-79272190D02*
X178949047Y-79248000D01*
X178997428Y-79223810D01*
X179118381Y-79223810D01*
X179166762Y-79248000D01*
X179190952Y-79272190D01*
X179215143Y-79320571D01*
X179215143Y-79368952D01*
X179190952Y-79441524D01*
X178900666Y-79731810D01*
X179215143Y-79731810D01*
X179529619Y-79223810D02*
X179578000Y-79223810D01*
X179626381Y-79248000D01*
X179650572Y-79272190D01*
X179674762Y-79320571D01*
X179698953Y-79417333D01*
X179698953Y-79538286D01*
X179674762Y-79635048D01*
X179650572Y-79683429D01*
X179626381Y-79707619D01*
X179578000Y-79731810D01*
X179529619Y-79731810D01*
X179481238Y-79707619D01*
X179457048Y-79683429D01*
X179432857Y-79635048D01*
X179408667Y-79538286D01*
X179408667Y-79417333D01*
X179432857Y-79320571D01*
X179457048Y-79272190D01*
X179481238Y-79248000D01*
X179529619Y-79223810D01*
X179940858Y-79731810D02*
X180037620Y-79731810D01*
X180086001Y-79707619D01*
X180110191Y-79683429D01*
X180158572Y-79610857D01*
X180182763Y-79514095D01*
X180182763Y-79320571D01*
X180158572Y-79272190D01*
X180134382Y-79248000D01*
X180086001Y-79223810D01*
X179989239Y-79223810D01*
X179940858Y-79248000D01*
X179916667Y-79272190D01*
X179892477Y-79320571D01*
X179892477Y-79441524D01*
X179916667Y-79489905D01*
X179940858Y-79514095D01*
X179989239Y-79538286D01*
X180086001Y-79538286D01*
X180134382Y-79514095D01*
X180158572Y-79489905D01*
X180182763Y-79441524D01*
X187189142Y-82829810D02*
X187189142Y-82321810D01*
X187358476Y-82684667D01*
X187527809Y-82321810D01*
X187527809Y-82829810D01*
X188059999Y-82781429D02*
X188035809Y-82805619D01*
X187963237Y-82829810D01*
X187914856Y-82829810D01*
X187842285Y-82805619D01*
X187793904Y-82757238D01*
X187769713Y-82708857D01*
X187745523Y-82612095D01*
X187745523Y-82539524D01*
X187769713Y-82442762D01*
X187793904Y-82394381D01*
X187842285Y-82346000D01*
X187914856Y-82321810D01*
X187963237Y-82321810D01*
X188035809Y-82346000D01*
X188059999Y-82370190D01*
X188277713Y-82829810D02*
X188277713Y-82321810D01*
X188471237Y-82321810D01*
X188519618Y-82346000D01*
X188543809Y-82370190D01*
X188567999Y-82418571D01*
X188567999Y-82491143D01*
X188543809Y-82539524D01*
X188519618Y-82563714D01*
X188471237Y-82587905D01*
X188277713Y-82587905D01*
X188737332Y-82321810D02*
X189051809Y-82321810D01*
X188882475Y-82515333D01*
X188955047Y-82515333D01*
X189003428Y-82539524D01*
X189027618Y-82563714D01*
X189051809Y-82612095D01*
X189051809Y-82733048D01*
X189027618Y-82781429D01*
X189003428Y-82805619D01*
X188955047Y-82829810D01*
X188809904Y-82829810D01*
X188761523Y-82805619D01*
X188737332Y-82781429D01*
X189293714Y-82829810D02*
X189390476Y-82829810D01*
X189438857Y-82805619D01*
X189463047Y-82781429D01*
X189511428Y-82708857D01*
X189535619Y-82612095D01*
X189535619Y-82418571D01*
X189511428Y-82370190D01*
X189487238Y-82346000D01*
X189438857Y-82321810D01*
X189342095Y-82321810D01*
X189293714Y-82346000D01*
X189269523Y-82370190D01*
X189245333Y-82418571D01*
X189245333Y-82539524D01*
X189269523Y-82587905D01*
X189293714Y-82612095D01*
X189342095Y-82636286D01*
X189438857Y-82636286D01*
X189487238Y-82612095D01*
X189511428Y-82587905D01*
X189535619Y-82539524D01*
X190019429Y-82829810D02*
X189729143Y-82829810D01*
X189874286Y-82829810D02*
X189874286Y-82321810D01*
X189825905Y-82394381D01*
X189777524Y-82442762D01*
X189729143Y-82466952D01*
X190503239Y-82829810D02*
X190212953Y-82829810D01*
X190358096Y-82829810D02*
X190358096Y-82321810D01*
X190309715Y-82394381D01*
X190261334Y-82442762D01*
X190212953Y-82466952D01*
X190696763Y-82684667D02*
X190938668Y-82684667D01*
X190648382Y-82829810D02*
X190817715Y-82321810D01*
X190987049Y-82829810D01*
X191253144Y-82321810D02*
X191301525Y-82321810D01*
X191349906Y-82346000D01*
X191374097Y-82370190D01*
X191398287Y-82418571D01*
X191422478Y-82515333D01*
X191422478Y-82636286D01*
X191398287Y-82733048D01*
X191374097Y-82781429D01*
X191349906Y-82805619D01*
X191301525Y-82829810D01*
X191253144Y-82829810D01*
X191204763Y-82805619D01*
X191180573Y-82781429D01*
X191156382Y-82733048D01*
X191132192Y-82636286D01*
X191132192Y-82515333D01*
X191156382Y-82418571D01*
X191180573Y-82370190D01*
X191204763Y-82346000D01*
X191253144Y-82321810D01*
X191640192Y-82636286D02*
X192027240Y-82636286D01*
X192269144Y-82563714D02*
X192438478Y-82563714D01*
X192511049Y-82829810D02*
X192269144Y-82829810D01*
X192269144Y-82321810D01*
X192511049Y-82321810D01*
X193091621Y-82297619D02*
X192656192Y-82950762D01*
X193260953Y-82829810D02*
X193260953Y-82321810D01*
X193430287Y-82684667D01*
X193599620Y-82321810D01*
X193599620Y-82829810D01*
X194083429Y-82829810D02*
X193841524Y-82829810D01*
X193841524Y-82321810D01*
X179802244Y-77953810D02*
X179850625Y-77953810D01*
X179899006Y-77978000D01*
X179923197Y-78002190D01*
X179947387Y-78050571D01*
X179971578Y-78147333D01*
X179971578Y-78268286D01*
X179947387Y-78365048D01*
X179923197Y-78413429D01*
X179899006Y-78437619D01*
X179850625Y-78461810D01*
X179802244Y-78461810D01*
X179753863Y-78437619D01*
X179729673Y-78413429D01*
X179705482Y-78365048D01*
X179681292Y-78268286D01*
X179681292Y-78147333D01*
X179705482Y-78050571D01*
X179729673Y-78002190D01*
X179753863Y-77978000D01*
X179802244Y-77953810D01*
X180189292Y-78413429D02*
X180213483Y-78437619D01*
X180189292Y-78461810D01*
X180165102Y-78437619D01*
X180189292Y-78413429D01*
X180189292Y-78461810D01*
X180697293Y-78461810D02*
X180407007Y-78461810D01*
X180552150Y-78461810D02*
X180552150Y-77953810D01*
X180503769Y-78026381D01*
X180455388Y-78074762D01*
X180407007Y-78098952D01*
X181132722Y-78123143D02*
X181132722Y-78461810D01*
X180915007Y-78123143D02*
X180915007Y-78389238D01*
X180939198Y-78437619D01*
X180987579Y-78461810D01*
X181060150Y-78461810D01*
X181108531Y-78437619D01*
X181132722Y-78413429D01*
X181972068Y-86016858D02*
X181972068Y-85968477D01*
X181996258Y-85920096D01*
X182020448Y-85895905D01*
X182068829Y-85871715D01*
X182165591Y-85847524D01*
X182286544Y-85847524D01*
X182383306Y-85871715D01*
X182431687Y-85895905D01*
X182455877Y-85920096D01*
X182480068Y-85968477D01*
X182480068Y-86016858D01*
X182455877Y-86065239D01*
X182431687Y-86089429D01*
X182383306Y-86113620D01*
X182286544Y-86137810D01*
X182165591Y-86137810D01*
X182068829Y-86113620D01*
X182020448Y-86089429D01*
X181996258Y-86065239D01*
X181972068Y-86016858D01*
X182431687Y-85629810D02*
X182455877Y-85605619D01*
X182480068Y-85629810D01*
X182455877Y-85654000D01*
X182431687Y-85629810D01*
X182480068Y-85629810D01*
X182480068Y-85121809D02*
X182480068Y-85412095D01*
X182480068Y-85266952D02*
X181972068Y-85266952D01*
X182044639Y-85315333D01*
X182093020Y-85363714D01*
X182117210Y-85412095D01*
X182141401Y-84686380D02*
X182480068Y-84686380D01*
X182141401Y-84904095D02*
X182407496Y-84904095D01*
X182455877Y-84879904D01*
X182480068Y-84831523D01*
X182480068Y-84758952D01*
X182455877Y-84710571D01*
X182431687Y-84686380D01*
X177195237Y-78207810D02*
X177243618Y-78207810D01*
X177291999Y-78232000D01*
X177316190Y-78256190D01*
X177340380Y-78304571D01*
X177364571Y-78401333D01*
X177364571Y-78522286D01*
X177340380Y-78619048D01*
X177316190Y-78667429D01*
X177291999Y-78691619D01*
X177243618Y-78715810D01*
X177195237Y-78715810D01*
X177146856Y-78691619D01*
X177122666Y-78667429D01*
X177098475Y-78619048D01*
X177074285Y-78522286D01*
X177074285Y-78401333D01*
X177098475Y-78304571D01*
X177122666Y-78256190D01*
X177146856Y-78232000D01*
X177195237Y-78207810D01*
X177582285Y-78667429D02*
X177606476Y-78691619D01*
X177582285Y-78715810D01*
X177558095Y-78691619D01*
X177582285Y-78667429D01*
X177582285Y-78715810D01*
X177920952Y-78207810D02*
X177969333Y-78207810D01*
X178017714Y-78232000D01*
X178041905Y-78256190D01*
X178066095Y-78304571D01*
X178090286Y-78401333D01*
X178090286Y-78522286D01*
X178066095Y-78619048D01*
X178041905Y-78667429D01*
X178017714Y-78691619D01*
X177969333Y-78715810D01*
X177920952Y-78715810D01*
X177872571Y-78691619D01*
X177848381Y-78667429D01*
X177824190Y-78619048D01*
X177800000Y-78522286D01*
X177800000Y-78401333D01*
X177824190Y-78304571D01*
X177848381Y-78256190D01*
X177872571Y-78232000D01*
X177920952Y-78207810D01*
X178574096Y-78715810D02*
X178283810Y-78715810D01*
X178428953Y-78715810D02*
X178428953Y-78207810D01*
X178380572Y-78280381D01*
X178332191Y-78328762D01*
X178283810Y-78352952D01*
X179009525Y-78377143D02*
X179009525Y-78715810D01*
X178791810Y-78377143D02*
X178791810Y-78643238D01*
X178816001Y-78691619D01*
X178864382Y-78715810D01*
X178936953Y-78715810D01*
X178985334Y-78691619D01*
X179009525Y-78667429D01*
X175171552Y-91358763D02*
X175171552Y-91310382D01*
X175195742Y-91262001D01*
X175219932Y-91237810D01*
X175268313Y-91213620D01*
X175365075Y-91189429D01*
X175486028Y-91189429D01*
X175582790Y-91213620D01*
X175631171Y-91237810D01*
X175655361Y-91262001D01*
X175679552Y-91310382D01*
X175679552Y-91358763D01*
X175655361Y-91407144D01*
X175631171Y-91431334D01*
X175582790Y-91455525D01*
X175486028Y-91479715D01*
X175365075Y-91479715D01*
X175268313Y-91455525D01*
X175219932Y-91431334D01*
X175195742Y-91407144D01*
X175171552Y-91358763D01*
X175631171Y-90971715D02*
X175655361Y-90947524D01*
X175679552Y-90971715D01*
X175655361Y-90995905D01*
X175631171Y-90971715D01*
X175679552Y-90971715D01*
X175171552Y-90633048D02*
X175171552Y-90584667D01*
X175195742Y-90536286D01*
X175219932Y-90512095D01*
X175268313Y-90487905D01*
X175365075Y-90463714D01*
X175486028Y-90463714D01*
X175582790Y-90487905D01*
X175631171Y-90512095D01*
X175655361Y-90536286D01*
X175679552Y-90584667D01*
X175679552Y-90633048D01*
X175655361Y-90681429D01*
X175631171Y-90705619D01*
X175582790Y-90729810D01*
X175486028Y-90754000D01*
X175365075Y-90754000D01*
X175268313Y-90729810D01*
X175219932Y-90705619D01*
X175195742Y-90681429D01*
X175171552Y-90633048D01*
X175679552Y-89979904D02*
X175679552Y-90270190D01*
X175679552Y-90125047D02*
X175171552Y-90125047D01*
X175244123Y-90173428D01*
X175292504Y-90221809D01*
X175316694Y-90270190D01*
X175340885Y-89544475D02*
X175679552Y-89544475D01*
X175340885Y-89762190D02*
X175606980Y-89762190D01*
X175655361Y-89737999D01*
X175679552Y-89689618D01*
X175679552Y-89617047D01*
X175655361Y-89568666D01*
X175631171Y-89544475D01*
X189629142Y-78715810D02*
X189677523Y-78715810D01*
X189725904Y-78740000D01*
X189750095Y-78764190D01*
X189774285Y-78812571D01*
X189798476Y-78909333D01*
X189798476Y-79030286D01*
X189774285Y-79127048D01*
X189750095Y-79175429D01*
X189725904Y-79199619D01*
X189677523Y-79223810D01*
X189629142Y-79223810D01*
X189580761Y-79199619D01*
X189556571Y-79175429D01*
X189532380Y-79127048D01*
X189508190Y-79030286D01*
X189508190Y-78909333D01*
X189532380Y-78812571D01*
X189556571Y-78764190D01*
X189580761Y-78740000D01*
X189629142Y-78715810D01*
X190016190Y-79175429D02*
X190040381Y-79199619D01*
X190016190Y-79223810D01*
X189992000Y-79199619D01*
X190016190Y-79175429D01*
X190016190Y-79223810D01*
X190524191Y-79223810D02*
X190233905Y-79223810D01*
X190379048Y-79223810D02*
X190379048Y-78715810D01*
X190330667Y-78788381D01*
X190282286Y-78836762D01*
X190233905Y-78860952D01*
X190959620Y-78885143D02*
X190959620Y-79223810D01*
X190741905Y-78885143D02*
X190741905Y-79151238D01*
X190766096Y-79199619D01*
X190814477Y-79223810D01*
X190887048Y-79223810D01*
X190935429Y-79199619D01*
X190959620Y-79175429D01*
X187173810Y-80880858D02*
X187173810Y-80832477D01*
X187198000Y-80784096D01*
X187222190Y-80759905D01*
X187270571Y-80735715D01*
X187367333Y-80711524D01*
X187488286Y-80711524D01*
X187585048Y-80735715D01*
X187633429Y-80759905D01*
X187657619Y-80784096D01*
X187681810Y-80832477D01*
X187681810Y-80880858D01*
X187657619Y-80929239D01*
X187633429Y-80953429D01*
X187585048Y-80977620D01*
X187488286Y-81001810D01*
X187367333Y-81001810D01*
X187270571Y-80977620D01*
X187222190Y-80953429D01*
X187198000Y-80929239D01*
X187173810Y-80880858D01*
X187633429Y-80493810D02*
X187657619Y-80469619D01*
X187681810Y-80493810D01*
X187657619Y-80518000D01*
X187633429Y-80493810D01*
X187681810Y-80493810D01*
X187681810Y-79985809D02*
X187681810Y-80276095D01*
X187681810Y-80130952D02*
X187173810Y-80130952D01*
X187246381Y-80179333D01*
X187294762Y-80227714D01*
X187318952Y-80276095D01*
X187343143Y-79550380D02*
X187681810Y-79550380D01*
X187343143Y-79768095D02*
X187609238Y-79768095D01*
X187657619Y-79743904D01*
X187681810Y-79695523D01*
X187681810Y-79622952D01*
X187657619Y-79574571D01*
X187633429Y-79550380D01*
X198221810Y-83366858D02*
X198221810Y-83318477D01*
X198246000Y-83270096D01*
X198270190Y-83245905D01*
X198318571Y-83221715D01*
X198415333Y-83197524D01*
X198536286Y-83197524D01*
X198633048Y-83221715D01*
X198681429Y-83245905D01*
X198705619Y-83270096D01*
X198729810Y-83318477D01*
X198729810Y-83366858D01*
X198705619Y-83415239D01*
X198681429Y-83439429D01*
X198633048Y-83463620D01*
X198536286Y-83487810D01*
X198415333Y-83487810D01*
X198318571Y-83463620D01*
X198270190Y-83439429D01*
X198246000Y-83415239D01*
X198221810Y-83366858D01*
X198681429Y-82979810D02*
X198705619Y-82955619D01*
X198729810Y-82979810D01*
X198705619Y-83004000D01*
X198681429Y-82979810D01*
X198729810Y-82979810D01*
X198729810Y-82471809D02*
X198729810Y-82762095D01*
X198729810Y-82616952D02*
X198221810Y-82616952D01*
X198294381Y-82665333D01*
X198342762Y-82713714D01*
X198366952Y-82762095D01*
X198391143Y-82036380D02*
X198729810Y-82036380D01*
X198391143Y-82254095D02*
X198657238Y-82254095D01*
X198705619Y-82229904D01*
X198729810Y-82181523D01*
X198729810Y-82108952D01*
X198705619Y-82060571D01*
X198681429Y-82036380D01*
X201083142Y-81255810D02*
X201131523Y-81255810D01*
X201179904Y-81280000D01*
X201204095Y-81304190D01*
X201228285Y-81352571D01*
X201252476Y-81449333D01*
X201252476Y-81570286D01*
X201228285Y-81667048D01*
X201204095Y-81715429D01*
X201179904Y-81739619D01*
X201131523Y-81763810D01*
X201083142Y-81763810D01*
X201034761Y-81739619D01*
X201010571Y-81715429D01*
X200986380Y-81667048D01*
X200962190Y-81570286D01*
X200962190Y-81449333D01*
X200986380Y-81352571D01*
X201010571Y-81304190D01*
X201034761Y-81280000D01*
X201083142Y-81255810D01*
X201470190Y-81715429D02*
X201494381Y-81739619D01*
X201470190Y-81763810D01*
X201446000Y-81739619D01*
X201470190Y-81715429D01*
X201470190Y-81763810D01*
X201978191Y-81763810D02*
X201687905Y-81763810D01*
X201833048Y-81763810D02*
X201833048Y-81255810D01*
X201784667Y-81328381D01*
X201736286Y-81376762D01*
X201687905Y-81400952D01*
X202413620Y-81425143D02*
X202413620Y-81763810D01*
X202195905Y-81425143D02*
X202195905Y-81691238D01*
X202220096Y-81739619D01*
X202268477Y-81763810D01*
X202341048Y-81763810D01*
X202389429Y-81739619D01*
X202413620Y-81715429D01*
X187829810Y-87738858D02*
X187829810Y-87690477D01*
X187854000Y-87642096D01*
X187878190Y-87617905D01*
X187926571Y-87593715D01*
X188023333Y-87569524D01*
X188144286Y-87569524D01*
X188241048Y-87593715D01*
X188289429Y-87617905D01*
X188313619Y-87642096D01*
X188337810Y-87690477D01*
X188337810Y-87738858D01*
X188313619Y-87787239D01*
X188289429Y-87811429D01*
X188241048Y-87835620D01*
X188144286Y-87859810D01*
X188023333Y-87859810D01*
X187926571Y-87835620D01*
X187878190Y-87811429D01*
X187854000Y-87787239D01*
X187829810Y-87738858D01*
X188289429Y-87351810D02*
X188313619Y-87327619D01*
X188337810Y-87351810D01*
X188313619Y-87376000D01*
X188289429Y-87351810D01*
X188337810Y-87351810D01*
X188337810Y-86843809D02*
X188337810Y-87134095D01*
X188337810Y-86988952D02*
X187829810Y-86988952D01*
X187902381Y-87037333D01*
X187950762Y-87085714D01*
X187974952Y-87134095D01*
X187999143Y-86408380D02*
X188337810Y-86408380D01*
X187999143Y-86626095D02*
X188265238Y-86626095D01*
X188313619Y-86601904D01*
X188337810Y-86553523D01*
X188337810Y-86480952D01*
X188313619Y-86432571D01*
X188289429Y-86408380D01*
X195277619Y-83275714D02*
X195277619Y-83662762D01*
X195180857Y-83275714D02*
X195035714Y-83662762D01*
X194890571Y-83275714D01*
X194842190Y-82670952D02*
X194818000Y-82646762D01*
X194793810Y-82598381D01*
X194793810Y-82477428D01*
X194818000Y-82429047D01*
X194842190Y-82404857D01*
X194890571Y-82380666D01*
X194938952Y-82380666D01*
X195011524Y-82404857D01*
X195301810Y-82695143D01*
X195301810Y-82380666D01*
X194793810Y-82066190D02*
X194793810Y-82017809D01*
X194818000Y-81969428D01*
X194842190Y-81945237D01*
X194890571Y-81921047D01*
X194987333Y-81896856D01*
X195108286Y-81896856D01*
X195205048Y-81921047D01*
X195253429Y-81945237D01*
X195277619Y-81969428D01*
X195301810Y-82017809D01*
X195301810Y-82066190D01*
X195277619Y-82114571D01*
X195253429Y-82138761D01*
X195205048Y-82162952D01*
X195108286Y-82187142D01*
X194987333Y-82187142D01*
X194890571Y-82162952D01*
X194842190Y-82138761D01*
X194818000Y-82114571D01*
X194793810Y-82066190D01*
X195301810Y-81679142D02*
X194793810Y-81679142D01*
X195156667Y-81509808D01*
X194793810Y-81340475D01*
X195301810Y-81340475D01*
X194963143Y-81146952D02*
X194963143Y-80880856D01*
X195301810Y-81146952D01*
X195301810Y-80880856D01*
X180001334Y-77191810D02*
X179711048Y-77191810D01*
X179856191Y-77191810D02*
X179856191Y-76683810D01*
X179807810Y-76756381D01*
X179759429Y-76804762D01*
X179711048Y-76828952D01*
X180436763Y-76853143D02*
X180436763Y-77191810D01*
X180219048Y-76853143D02*
X180219048Y-77119238D01*
X180243239Y-77167619D01*
X180291620Y-77191810D01*
X180364191Y-77191810D01*
X180412572Y-77167619D01*
X180436763Y-77143429D01*
X183550068Y-85151564D02*
X183550068Y-85441850D01*
X183550068Y-85296707D02*
X183042068Y-85296707D01*
X183114639Y-85345088D01*
X183163020Y-85393469D01*
X183187210Y-85441850D01*
X183211401Y-84716135D02*
X183550068Y-84716135D01*
X183211401Y-84933850D02*
X183477496Y-84933850D01*
X183525877Y-84909659D01*
X183550068Y-84861278D01*
X183550068Y-84788707D01*
X183525877Y-84740326D01*
X183501687Y-84716135D01*
X190669334Y-77953810D02*
X190379048Y-77953810D01*
X190524191Y-77953810D02*
X190524191Y-77445810D01*
X190475810Y-77518381D01*
X190427429Y-77566762D01*
X190379048Y-77590952D01*
X191104763Y-77615143D02*
X191104763Y-77953810D01*
X190887048Y-77615143D02*
X190887048Y-77881238D01*
X190911239Y-77929619D01*
X190959620Y-77953810D01*
X191032191Y-77953810D01*
X191080572Y-77929619D01*
X191104763Y-77905429D01*
X198603810Y-80184666D02*
X198603810Y-80474952D01*
X198603810Y-80329809D02*
X198095810Y-80329809D01*
X198168381Y-80378190D01*
X198216762Y-80426571D01*
X198240952Y-80474952D01*
X198265143Y-79749237D02*
X198603810Y-79749237D01*
X198265143Y-79966952D02*
X198531238Y-79966952D01*
X198579619Y-79942761D01*
X198603810Y-79894380D01*
X198603810Y-79821809D01*
X198579619Y-79773428D01*
X198555429Y-79749237D01*
X201665334Y-80493810D02*
X201375048Y-80493810D01*
X201520191Y-80493810D02*
X201520191Y-79985810D01*
X201471810Y-80058381D01*
X201423429Y-80106762D01*
X201375048Y-80130952D01*
X202100763Y-80155143D02*
X202100763Y-80493810D01*
X201883048Y-80155143D02*
X201883048Y-80421238D01*
X201907239Y-80469619D01*
X201955620Y-80493810D01*
X202028191Y-80493810D01*
X202076572Y-80469619D01*
X202100763Y-80445429D01*
X194428286Y-80191429D02*
X194452476Y-80215619D01*
X194428286Y-80239810D01*
X194404095Y-80215619D01*
X194428286Y-80191429D01*
X194428286Y-80239810D01*
X194331524Y-79756000D02*
X194379905Y-79731810D01*
X194500857Y-79731810D01*
X194549238Y-79756000D01*
X194573429Y-79804381D01*
X194573429Y-79852762D01*
X194549238Y-79901143D01*
X194525048Y-79925333D01*
X194476667Y-79949524D01*
X194452476Y-79973714D01*
X194428286Y-80022095D01*
X194428286Y-80046286D01*
X194791143Y-79901143D02*
X194791143Y-80409143D01*
X194791143Y-79925333D02*
X194839524Y-79901143D01*
X194936286Y-79901143D01*
X194984667Y-79925333D01*
X195008858Y-79949524D01*
X195033048Y-79997905D01*
X195033048Y-80143048D01*
X195008858Y-80191429D01*
X194984667Y-80215619D01*
X194936286Y-80239810D01*
X194839524Y-80239810D01*
X194791143Y-80215619D01*
X195420096Y-79973714D02*
X195250762Y-79973714D01*
X195250762Y-80239810D02*
X195250762Y-79731810D01*
X195492667Y-79731810D01*
X188171667Y-74385714D02*
X188002333Y-74385714D01*
X188002333Y-74651810D02*
X188002333Y-74143810D01*
X188244238Y-74143810D01*
X188437762Y-74651810D02*
X188437762Y-74143810D01*
X188921572Y-74651810D02*
X188679667Y-74651810D01*
X188679667Y-74143810D01*
X189018334Y-74143810D02*
X189308620Y-74143810D01*
X189163477Y-74651810D02*
X189163477Y-74143810D01*
X189477953Y-74385714D02*
X189647287Y-74385714D01*
X189719858Y-74651810D02*
X189477953Y-74651810D01*
X189477953Y-74143810D01*
X189719858Y-74143810D01*
X190227858Y-74651810D02*
X190058525Y-74409905D01*
X189937572Y-74651810D02*
X189937572Y-74143810D01*
X190131096Y-74143810D01*
X190179477Y-74168000D01*
X190203668Y-74192190D01*
X190227858Y-74240571D01*
X190227858Y-74313143D01*
X190203668Y-74361524D01*
X190179477Y-74385714D01*
X190131096Y-74409905D01*
X189937572Y-74409905D01*
X201143810Y-76490286D02*
X201143810Y-76780572D01*
X201143810Y-76635429D02*
X200635810Y-76635429D01*
X200708381Y-76683810D01*
X200756762Y-76732191D01*
X200780952Y-76780572D01*
X200635810Y-76175810D02*
X200635810Y-76127429D01*
X200660000Y-76079048D01*
X200684190Y-76054857D01*
X200732571Y-76030667D01*
X200829333Y-76006476D01*
X200950286Y-76006476D01*
X201047048Y-76030667D01*
X201095429Y-76054857D01*
X201119619Y-76079048D01*
X201143810Y-76127429D01*
X201143810Y-76175810D01*
X201119619Y-76224191D01*
X201095429Y-76248381D01*
X201047048Y-76272572D01*
X200950286Y-76296762D01*
X200829333Y-76296762D01*
X200732571Y-76272572D01*
X200684190Y-76248381D01*
X200660000Y-76224191D01*
X200635810Y-76175810D01*
X200635810Y-75692000D02*
X200635810Y-75643619D01*
X200660000Y-75595238D01*
X200684190Y-75571047D01*
X200732571Y-75546857D01*
X200829333Y-75522666D01*
X200950286Y-75522666D01*
X201047048Y-75546857D01*
X201095429Y-75571047D01*
X201119619Y-75595238D01*
X201143810Y-75643619D01*
X201143810Y-75692000D01*
X201119619Y-75740381D01*
X201095429Y-75764571D01*
X201047048Y-75788762D01*
X200950286Y-75812952D01*
X200829333Y-75812952D01*
X200732571Y-75788762D01*
X200684190Y-75764571D01*
X200660000Y-75740381D01*
X200635810Y-75692000D01*
X201143810Y-75304952D02*
X200635810Y-75304952D01*
X200950286Y-75256571D02*
X201143810Y-75111428D01*
X200805143Y-75111428D02*
X200998667Y-75304952D01*
X195301810Y-86544286D02*
X195301810Y-86834572D01*
X195301810Y-86689429D02*
X194793810Y-86689429D01*
X194866381Y-86737810D01*
X194914762Y-86786191D01*
X194938952Y-86834572D01*
X194793810Y-86229810D02*
X194793810Y-86181429D01*
X194818000Y-86133048D01*
X194842190Y-86108857D01*
X194890571Y-86084667D01*
X194987333Y-86060476D01*
X195108286Y-86060476D01*
X195205048Y-86084667D01*
X195253429Y-86108857D01*
X195277619Y-86133048D01*
X195301810Y-86181429D01*
X195301810Y-86229810D01*
X195277619Y-86278191D01*
X195253429Y-86302381D01*
X195205048Y-86326572D01*
X195108286Y-86350762D01*
X194987333Y-86350762D01*
X194890571Y-86326572D01*
X194842190Y-86302381D01*
X194818000Y-86278191D01*
X194793810Y-86229810D01*
X194793810Y-85746000D02*
X194793810Y-85697619D01*
X194818000Y-85649238D01*
X194842190Y-85625047D01*
X194890571Y-85600857D01*
X194987333Y-85576666D01*
X195108286Y-85576666D01*
X195205048Y-85600857D01*
X195253429Y-85625047D01*
X195277619Y-85649238D01*
X195301810Y-85697619D01*
X195301810Y-85746000D01*
X195277619Y-85794381D01*
X195253429Y-85818571D01*
X195205048Y-85842762D01*
X195108286Y-85866952D01*
X194987333Y-85866952D01*
X194890571Y-85842762D01*
X194842190Y-85818571D01*
X194818000Y-85794381D01*
X194793810Y-85746000D01*
X195301810Y-85358952D02*
X194793810Y-85358952D01*
X195108286Y-85310571D02*
X195301810Y-85165428D01*
X194963143Y-85165428D02*
X195156667Y-85358952D01*
X193523810Y-86544286D02*
X193523810Y-86834572D01*
X193523810Y-86689429D02*
X193015810Y-86689429D01*
X193088381Y-86737810D01*
X193136762Y-86786191D01*
X193160952Y-86834572D01*
X193015810Y-86229810D02*
X193015810Y-86181429D01*
X193040000Y-86133048D01*
X193064190Y-86108857D01*
X193112571Y-86084667D01*
X193209333Y-86060476D01*
X193330286Y-86060476D01*
X193427048Y-86084667D01*
X193475429Y-86108857D01*
X193499619Y-86133048D01*
X193523810Y-86181429D01*
X193523810Y-86229810D01*
X193499619Y-86278191D01*
X193475429Y-86302381D01*
X193427048Y-86326572D01*
X193330286Y-86350762D01*
X193209333Y-86350762D01*
X193112571Y-86326572D01*
X193064190Y-86302381D01*
X193040000Y-86278191D01*
X193015810Y-86229810D01*
X193015810Y-85746000D02*
X193015810Y-85697619D01*
X193040000Y-85649238D01*
X193064190Y-85625047D01*
X193112571Y-85600857D01*
X193209333Y-85576666D01*
X193330286Y-85576666D01*
X193427048Y-85600857D01*
X193475429Y-85625047D01*
X193499619Y-85649238D01*
X193523810Y-85697619D01*
X193523810Y-85746000D01*
X193499619Y-85794381D01*
X193475429Y-85818571D01*
X193427048Y-85842762D01*
X193330286Y-85866952D01*
X193209333Y-85866952D01*
X193112571Y-85842762D01*
X193064190Y-85818571D01*
X193040000Y-85794381D01*
X193015810Y-85746000D01*
X193523810Y-85358952D02*
X193015810Y-85358952D01*
X193330286Y-85310571D02*
X193523810Y-85165428D01*
X193185143Y-85165428D02*
X193378667Y-85358952D01*
X199619810Y-76544286D02*
X199619810Y-76834572D01*
X199619810Y-76689429D02*
X199111810Y-76689429D01*
X199184381Y-76737810D01*
X199232762Y-76786191D01*
X199256952Y-76834572D01*
X199111810Y-76229810D02*
X199111810Y-76181429D01*
X199136000Y-76133048D01*
X199160190Y-76108857D01*
X199208571Y-76084667D01*
X199305333Y-76060476D01*
X199426286Y-76060476D01*
X199523048Y-76084667D01*
X199571429Y-76108857D01*
X199595619Y-76133048D01*
X199619810Y-76181429D01*
X199619810Y-76229810D01*
X199595619Y-76278191D01*
X199571429Y-76302381D01*
X199523048Y-76326572D01*
X199426286Y-76350762D01*
X199305333Y-76350762D01*
X199208571Y-76326572D01*
X199160190Y-76302381D01*
X199136000Y-76278191D01*
X199111810Y-76229810D01*
X199111810Y-75746000D02*
X199111810Y-75697619D01*
X199136000Y-75649238D01*
X199160190Y-75625047D01*
X199208571Y-75600857D01*
X199305333Y-75576666D01*
X199426286Y-75576666D01*
X199523048Y-75600857D01*
X199571429Y-75625047D01*
X199595619Y-75649238D01*
X199619810Y-75697619D01*
X199619810Y-75746000D01*
X199595619Y-75794381D01*
X199571429Y-75818571D01*
X199523048Y-75842762D01*
X199426286Y-75866952D01*
X199305333Y-75866952D01*
X199208571Y-75842762D01*
X199160190Y-75818571D01*
X199136000Y-75794381D01*
X199111810Y-75746000D01*
X199619810Y-75358952D02*
X199111810Y-75358952D01*
X199426286Y-75310571D02*
X199619810Y-75165428D01*
X199281143Y-75165428D02*
X199474667Y-75358952D01*
X198095810Y-76490286D02*
X198095810Y-76780572D01*
X198095810Y-76635429D02*
X197587810Y-76635429D01*
X197660381Y-76683810D01*
X197708762Y-76732191D01*
X197732952Y-76780572D01*
X197587810Y-76175810D02*
X197587810Y-76127429D01*
X197612000Y-76079048D01*
X197636190Y-76054857D01*
X197684571Y-76030667D01*
X197781333Y-76006476D01*
X197902286Y-76006476D01*
X197999048Y-76030667D01*
X198047429Y-76054857D01*
X198071619Y-76079048D01*
X198095810Y-76127429D01*
X198095810Y-76175810D01*
X198071619Y-76224191D01*
X198047429Y-76248381D01*
X197999048Y-76272572D01*
X197902286Y-76296762D01*
X197781333Y-76296762D01*
X197684571Y-76272572D01*
X197636190Y-76248381D01*
X197612000Y-76224191D01*
X197587810Y-76175810D01*
X197587810Y-75692000D02*
X197587810Y-75643619D01*
X197612000Y-75595238D01*
X197636190Y-75571047D01*
X197684571Y-75546857D01*
X197781333Y-75522666D01*
X197902286Y-75522666D01*
X197999048Y-75546857D01*
X198047429Y-75571047D01*
X198071619Y-75595238D01*
X198095810Y-75643619D01*
X198095810Y-75692000D01*
X198071619Y-75740381D01*
X198047429Y-75764571D01*
X197999048Y-75788762D01*
X197902286Y-75812952D01*
X197781333Y-75812952D01*
X197684571Y-75788762D01*
X197636190Y-75764571D01*
X197612000Y-75740381D01*
X197587810Y-75692000D01*
X198095810Y-75304952D02*
X197587810Y-75304952D01*
X197902286Y-75256571D02*
X198095810Y-75111428D01*
X197757143Y-75111428D02*
X197950667Y-75304952D01*
X193306095Y-74313143D02*
X193306095Y-74651810D01*
X193185142Y-74119619D02*
X193064190Y-74482476D01*
X193378666Y-74482476D01*
X193572190Y-74603429D02*
X193596381Y-74627619D01*
X193572190Y-74651810D01*
X193548000Y-74627619D01*
X193572190Y-74603429D01*
X193572190Y-74651810D01*
X193765714Y-74143810D02*
X194104381Y-74143810D01*
X193886667Y-74651810D01*
X194515620Y-74313143D02*
X194515620Y-74651810D01*
X194297905Y-74313143D02*
X194297905Y-74579238D01*
X194322096Y-74627619D01*
X194370477Y-74651810D01*
X194443048Y-74651810D01*
X194491429Y-74627619D01*
X194515620Y-74603429D01*
X186702095Y-77615143D02*
X186702095Y-77953810D01*
X186581142Y-77421619D02*
X186460190Y-77784476D01*
X186774666Y-77784476D01*
X186968190Y-77905429D02*
X186992381Y-77929619D01*
X186968190Y-77953810D01*
X186944000Y-77929619D01*
X186968190Y-77905429D01*
X186968190Y-77953810D01*
X187161714Y-77445810D02*
X187500381Y-77445810D01*
X187282667Y-77953810D01*
X187911620Y-77615143D02*
X187911620Y-77953810D01*
X187693905Y-77615143D02*
X187693905Y-77881238D01*
X187718096Y-77929619D01*
X187766477Y-77953810D01*
X187839048Y-77953810D01*
X187887429Y-77929619D01*
X187911620Y-77905429D01*
X182093810Y-80868763D02*
X182093810Y-80820382D01*
X182118000Y-80772001D01*
X182142190Y-80747810D01*
X182190571Y-80723620D01*
X182287333Y-80699429D01*
X182408286Y-80699429D01*
X182505048Y-80723620D01*
X182553429Y-80747810D01*
X182577619Y-80772001D01*
X182601810Y-80820382D01*
X182601810Y-80868763D01*
X182577619Y-80917144D01*
X182553429Y-80941334D01*
X182505048Y-80965525D01*
X182408286Y-80989715D01*
X182287333Y-80989715D01*
X182190571Y-80965525D01*
X182142190Y-80941334D01*
X182118000Y-80917144D01*
X182093810Y-80868763D01*
X182553429Y-80481715D02*
X182577619Y-80457524D01*
X182601810Y-80481715D01*
X182577619Y-80505905D01*
X182553429Y-80481715D01*
X182601810Y-80481715D01*
X182093810Y-80143048D02*
X182093810Y-80094667D01*
X182118000Y-80046286D01*
X182142190Y-80022095D01*
X182190571Y-79997905D01*
X182287333Y-79973714D01*
X182408286Y-79973714D01*
X182505048Y-79997905D01*
X182553429Y-80022095D01*
X182577619Y-80046286D01*
X182601810Y-80094667D01*
X182601810Y-80143048D01*
X182577619Y-80191429D01*
X182553429Y-80215619D01*
X182505048Y-80239810D01*
X182408286Y-80264000D01*
X182287333Y-80264000D01*
X182190571Y-80239810D01*
X182142190Y-80215619D01*
X182118000Y-80191429D01*
X182093810Y-80143048D01*
X182601810Y-79489904D02*
X182601810Y-79780190D01*
X182601810Y-79635047D02*
X182093810Y-79635047D01*
X182166381Y-79683428D01*
X182214762Y-79731809D01*
X182238952Y-79780190D01*
X182263143Y-79054475D02*
X182601810Y-79054475D01*
X182263143Y-79272190D02*
X182529238Y-79272190D01*
X182577619Y-79247999D01*
X182601810Y-79199618D01*
X182601810Y-79127047D01*
X182577619Y-79078666D01*
X182553429Y-79054475D01*
X175743810Y-78751735D02*
X175743810Y-78413068D01*
X176251810Y-78630782D01*
X176203429Y-78219544D02*
X176227619Y-78195353D01*
X176251810Y-78219544D01*
X176227619Y-78243734D01*
X176203429Y-78219544D01*
X176251810Y-78219544D01*
X175743810Y-77735734D02*
X175743810Y-77977639D01*
X175985714Y-78001829D01*
X175961524Y-77977639D01*
X175937333Y-77929258D01*
X175937333Y-77808305D01*
X175961524Y-77759924D01*
X175985714Y-77735734D01*
X176034095Y-77711543D01*
X176155048Y-77711543D01*
X176203429Y-77735734D01*
X176227619Y-77759924D01*
X176251810Y-77808305D01*
X176251810Y-77929258D01*
X176227619Y-77977639D01*
X176203429Y-78001829D01*
X176251810Y-77493829D02*
X175743810Y-77493829D01*
X176106667Y-77324495D01*
X175743810Y-77155162D01*
X176251810Y-77155162D01*
X173124708Y-91822477D02*
X173124708Y-91483810D01*
X173632708Y-91701524D01*
X173584327Y-91290286D02*
X173608517Y-91266095D01*
X173632708Y-91290286D01*
X173608517Y-91314476D01*
X173584327Y-91290286D01*
X173632708Y-91290286D01*
X173124708Y-90806476D02*
X173124708Y-91048381D01*
X173366612Y-91072571D01*
X173342422Y-91048381D01*
X173318231Y-91000000D01*
X173318231Y-90879047D01*
X173342422Y-90830666D01*
X173366612Y-90806476D01*
X173414993Y-90782285D01*
X173535946Y-90782285D01*
X173584327Y-90806476D01*
X173608517Y-90830666D01*
X173632708Y-90879047D01*
X173632708Y-91000000D01*
X173608517Y-91048381D01*
X173584327Y-91072571D01*
X173632708Y-90564571D02*
X173124708Y-90564571D01*
X173487565Y-90395237D01*
X173124708Y-90225904D01*
X173632708Y-90225904D01*
X182347810Y-82289734D02*
X182347810Y-82580020D01*
X182347810Y-82434877D02*
X181839810Y-82434877D01*
X181912381Y-82483258D01*
X181960762Y-82531639D01*
X181984952Y-82580020D01*
X182347810Y-82072020D02*
X181839810Y-82072020D01*
X182154286Y-82023639D02*
X182347810Y-81878496D01*
X182009143Y-81878496D02*
X182202667Y-82072020D01*
X183109810Y-80480020D02*
X183109810Y-80576782D01*
X183134000Y-80625163D01*
X183158190Y-80649354D01*
X183230762Y-80697735D01*
X183327524Y-80721925D01*
X183521048Y-80721925D01*
X183569429Y-80697735D01*
X183593619Y-80673544D01*
X183617810Y-80625163D01*
X183617810Y-80528401D01*
X183593619Y-80480020D01*
X183569429Y-80455830D01*
X183521048Y-80431639D01*
X183400095Y-80431639D01*
X183351714Y-80455830D01*
X183327524Y-80480020D01*
X183303333Y-80528401D01*
X183303333Y-80625163D01*
X183327524Y-80673544D01*
X183351714Y-80697735D01*
X183400095Y-80721925D01*
X183109810Y-80262306D02*
X183109810Y-79947829D01*
X183303333Y-80117163D01*
X183303333Y-80044591D01*
X183327524Y-79996210D01*
X183351714Y-79972020D01*
X183400095Y-79947829D01*
X183521048Y-79947829D01*
X183569429Y-79972020D01*
X183593619Y-79996210D01*
X183617810Y-80044591D01*
X183617810Y-80189734D01*
X183593619Y-80238115D01*
X183569429Y-80262306D01*
X183617810Y-79730115D02*
X183109810Y-79730115D01*
X183424286Y-79681734D02*
X183617810Y-79536591D01*
X183279143Y-79536591D02*
X183472667Y-79730115D01*
X182322912Y-87324191D02*
X182322912Y-87275810D01*
X182347102Y-87227429D01*
X182371292Y-87203238D01*
X182419673Y-87179048D01*
X182516435Y-87154857D01*
X182637388Y-87154857D01*
X182734150Y-87179048D01*
X182782531Y-87203238D01*
X182806721Y-87227429D01*
X182830912Y-87275810D01*
X182830912Y-87324191D01*
X182806721Y-87372572D01*
X182782531Y-87396762D01*
X182734150Y-87420953D01*
X182637388Y-87445143D01*
X182516435Y-87445143D01*
X182419673Y-87420953D01*
X182371292Y-87396762D01*
X182347102Y-87372572D01*
X182322912Y-87324191D01*
X182519007Y-88751619D02*
X182494816Y-88703238D01*
X182519007Y-88654857D01*
X182567388Y-88630666D01*
X182615769Y-88654857D01*
X182639959Y-88703238D01*
X182615769Y-88751619D01*
X182519007Y-88848381D01*
X182494816Y-88896762D01*
X182519007Y-88945143D01*
X182567388Y-88969333D01*
X182615769Y-88945143D01*
X182639959Y-88896762D01*
X182615769Y-88848381D01*
X182519007Y-88751619D01*
X173273708Y-86824191D02*
X173273708Y-86775810D01*
X173297898Y-86727429D01*
X173322088Y-86703238D01*
X173370469Y-86679048D01*
X173467231Y-86654857D01*
X173588184Y-86654857D01*
X173684946Y-86679048D01*
X173733327Y-86703238D01*
X173757517Y-86727429D01*
X173781708Y-86775810D01*
X173781708Y-86824191D01*
X173757517Y-86872572D01*
X173733327Y-86896762D01*
X173684946Y-86920953D01*
X173588184Y-86945143D01*
X173467231Y-86945143D01*
X173370469Y-86920953D01*
X173322088Y-86896762D01*
X173297898Y-86872572D01*
X173273708Y-86824191D01*
X178494911Y-80239810D02*
X178543292Y-80239810D01*
X178591673Y-80264000D01*
X178615864Y-80288190D01*
X178640054Y-80336571D01*
X178664245Y-80433333D01*
X178664245Y-80554286D01*
X178640054Y-80651048D01*
X178615864Y-80699429D01*
X178591673Y-80723619D01*
X178543292Y-80747810D01*
X178494911Y-80747810D01*
X178446530Y-80723619D01*
X178422340Y-80699429D01*
X178398149Y-80651048D01*
X178373959Y-80554286D01*
X178373959Y-80433333D01*
X178398149Y-80336571D01*
X178422340Y-80288190D01*
X178446530Y-80264000D01*
X178494911Y-80239810D01*
X173189708Y-84938933D02*
X173189708Y-84890552D01*
X173213898Y-84842171D01*
X173238088Y-84817980D01*
X173286469Y-84793790D01*
X173383231Y-84769599D01*
X173504184Y-84769599D01*
X173600946Y-84793790D01*
X173649327Y-84817980D01*
X173673517Y-84842171D01*
X173697708Y-84890552D01*
X173697708Y-84938933D01*
X173673517Y-84987314D01*
X173649327Y-85011504D01*
X173600946Y-85035695D01*
X173504184Y-85059885D01*
X173383231Y-85059885D01*
X173286469Y-85035695D01*
X173238088Y-85011504D01*
X173213898Y-84987314D01*
X173189708Y-84938933D01*
X176920816Y-76732190D02*
X176945006Y-76708000D01*
X176993387Y-76683810D01*
X177114340Y-76683810D01*
X177162721Y-76708000D01*
X177186911Y-76732190D01*
X177211102Y-76780571D01*
X177211102Y-76828952D01*
X177186911Y-76901524D01*
X176896625Y-77191810D01*
X177211102Y-77191810D01*
X177428816Y-77143429D02*
X177453007Y-77167619D01*
X177428816Y-77191810D01*
X177404626Y-77167619D01*
X177428816Y-77143429D01*
X177428816Y-77191810D01*
X177912626Y-76683810D02*
X177670721Y-76683810D01*
X177646531Y-76925714D01*
X177670721Y-76901524D01*
X177719102Y-76877333D01*
X177840055Y-76877333D01*
X177888436Y-76901524D01*
X177912626Y-76925714D01*
X177936817Y-76974095D01*
X177936817Y-77095048D01*
X177912626Y-77143429D01*
X177888436Y-77167619D01*
X177840055Y-77191810D01*
X177719102Y-77191810D01*
X177670721Y-77167619D01*
X177646531Y-77143429D01*
X178154531Y-77191810D02*
X178154531Y-76683810D01*
X178323865Y-77046667D01*
X178493198Y-76683810D01*
X178493198Y-77191810D01*
X174349932Y-91798286D02*
X174325742Y-91774096D01*
X174301552Y-91725715D01*
X174301552Y-91604762D01*
X174325742Y-91556381D01*
X174349932Y-91532191D01*
X174398313Y-91508000D01*
X174446694Y-91508000D01*
X174519266Y-91532191D01*
X174809552Y-91822477D01*
X174809552Y-91508000D01*
X174761171Y-91290286D02*
X174785361Y-91266095D01*
X174809552Y-91290286D01*
X174785361Y-91314476D01*
X174761171Y-91290286D01*
X174809552Y-91290286D01*
X174301552Y-90806476D02*
X174301552Y-91048381D01*
X174543456Y-91072571D01*
X174519266Y-91048381D01*
X174495075Y-91000000D01*
X174495075Y-90879047D01*
X174519266Y-90830666D01*
X174543456Y-90806476D01*
X174591837Y-90782285D01*
X174712790Y-90782285D01*
X174761171Y-90806476D01*
X174785361Y-90830666D01*
X174809552Y-90879047D01*
X174809552Y-91000000D01*
X174785361Y-91048381D01*
X174761171Y-91072571D01*
X174809552Y-90564571D02*
X174301552Y-90564571D01*
X174664409Y-90395237D01*
X174301552Y-90225904D01*
X174809552Y-90225904D01*
X178494911Y-81509810D02*
X178543292Y-81509810D01*
X178591673Y-81534000D01*
X178615864Y-81558190D01*
X178640054Y-81606571D01*
X178664245Y-81703333D01*
X178664245Y-81824286D01*
X178640054Y-81921048D01*
X178615864Y-81969429D01*
X178591673Y-81993619D01*
X178543292Y-82017810D01*
X178494911Y-82017810D01*
X178446530Y-81993619D01*
X178422340Y-81969429D01*
X178398149Y-81921048D01*
X178373959Y-81824286D01*
X178373959Y-81703333D01*
X178398149Y-81606571D01*
X178422340Y-81558190D01*
X178446530Y-81534000D01*
X178494911Y-81509810D01*
X169901810Y-82199238D02*
X169901810Y-82102476D01*
X169926000Y-82054095D01*
X169974381Y-82005714D01*
X170071143Y-81981523D01*
X170240476Y-81981523D01*
X170337238Y-82005714D01*
X170385619Y-82054095D01*
X170409810Y-82102476D01*
X170409810Y-82199238D01*
X170385619Y-82247619D01*
X170337238Y-82296000D01*
X170240476Y-82320190D01*
X170071143Y-82320190D01*
X169974381Y-82296000D01*
X169926000Y-82247619D01*
X169901810Y-82199238D01*
X169901810Y-81763810D02*
X170313048Y-81763810D01*
X170361429Y-81739619D01*
X170385619Y-81715429D01*
X170409810Y-81667048D01*
X170409810Y-81570286D01*
X170385619Y-81521905D01*
X170361429Y-81497714D01*
X170313048Y-81473524D01*
X169901810Y-81473524D01*
X169901810Y-81304191D02*
X169901810Y-81013905D01*
X170409810Y-81159048D02*
X169901810Y-81159048D01*
X170458190Y-80965524D02*
X170458190Y-80578476D01*
X170264667Y-80481714D02*
X170264667Y-80239809D01*
X170409810Y-80530095D02*
X169901810Y-80360762D01*
X170409810Y-80191428D01*
X169901810Y-89855524D02*
X169901810Y-89758762D01*
X169926000Y-89710381D01*
X169974381Y-89662000D01*
X170071143Y-89637809D01*
X170240476Y-89637809D01*
X170337238Y-89662000D01*
X170385619Y-89710381D01*
X170409810Y-89758762D01*
X170409810Y-89855524D01*
X170385619Y-89903905D01*
X170337238Y-89952286D01*
X170240476Y-89976476D01*
X170071143Y-89976476D01*
X169974381Y-89952286D01*
X169926000Y-89903905D01*
X169901810Y-89855524D01*
X169901810Y-89420096D02*
X170313048Y-89420096D01*
X170361429Y-89395905D01*
X170385619Y-89371715D01*
X170409810Y-89323334D01*
X170409810Y-89226572D01*
X170385619Y-89178191D01*
X170361429Y-89154000D01*
X170313048Y-89129810D01*
X169901810Y-89129810D01*
X169901810Y-88960477D02*
X169901810Y-88670191D01*
X170409810Y-88815334D02*
X169901810Y-88815334D01*
X170458190Y-88621810D02*
X170458190Y-88234762D01*
X170143714Y-87944476D02*
X170167905Y-87871905D01*
X170192095Y-87847714D01*
X170240476Y-87823524D01*
X170313048Y-87823524D01*
X170361429Y-87847714D01*
X170385619Y-87871905D01*
X170409810Y-87920286D01*
X170409810Y-88113810D01*
X169901810Y-88113810D01*
X169901810Y-87944476D01*
X169926000Y-87896095D01*
X169950190Y-87871905D01*
X169998571Y-87847714D01*
X170046952Y-87847714D01*
X170095333Y-87871905D01*
X170119524Y-87896095D01*
X170143714Y-87944476D01*
X170143714Y-88113810D01*
X195809810Y-71844286D02*
X195809810Y-72134572D01*
X195809810Y-71989429D02*
X195301810Y-71989429D01*
X195374381Y-72037810D01*
X195422762Y-72086191D01*
X195446952Y-72134572D01*
X195301810Y-71529810D02*
X195301810Y-71481429D01*
X195326000Y-71433048D01*
X195350190Y-71408857D01*
X195398571Y-71384667D01*
X195495333Y-71360476D01*
X195616286Y-71360476D01*
X195713048Y-71384667D01*
X195761429Y-71408857D01*
X195785619Y-71433048D01*
X195809810Y-71481429D01*
X195809810Y-71529810D01*
X195785619Y-71578191D01*
X195761429Y-71602381D01*
X195713048Y-71626572D01*
X195616286Y-71650762D01*
X195495333Y-71650762D01*
X195398571Y-71626572D01*
X195350190Y-71602381D01*
X195326000Y-71578191D01*
X195301810Y-71529810D01*
X195301810Y-71046000D02*
X195301810Y-70997619D01*
X195326000Y-70949238D01*
X195350190Y-70925047D01*
X195398571Y-70900857D01*
X195495333Y-70876666D01*
X195616286Y-70876666D01*
X195713048Y-70900857D01*
X195761429Y-70925047D01*
X195785619Y-70949238D01*
X195809810Y-70997619D01*
X195809810Y-71046000D01*
X195785619Y-71094381D01*
X195761429Y-71118571D01*
X195713048Y-71142762D01*
X195616286Y-71166952D01*
X195495333Y-71166952D01*
X195398571Y-71142762D01*
X195350190Y-71118571D01*
X195326000Y-71094381D01*
X195301810Y-71046000D01*
X195809810Y-70658952D02*
X195301810Y-70658952D01*
X195616286Y-70610571D02*
X195809810Y-70465428D01*
X195471143Y-70465428D02*
X195664667Y-70658952D01*
X174981810Y-81639639D02*
X174981810Y-81929925D01*
X174981810Y-81784782D02*
X174473810Y-81784782D01*
X174546381Y-81833163D01*
X174594762Y-81881544D01*
X174618952Y-81929925D01*
X174473810Y-81325163D02*
X174473810Y-81276782D01*
X174498000Y-81228401D01*
X174522190Y-81204210D01*
X174570571Y-81180020D01*
X174667333Y-81155829D01*
X174788286Y-81155829D01*
X174885048Y-81180020D01*
X174933429Y-81204210D01*
X174957619Y-81228401D01*
X174981810Y-81276782D01*
X174981810Y-81325163D01*
X174957619Y-81373544D01*
X174933429Y-81397734D01*
X174885048Y-81421925D01*
X174788286Y-81446115D01*
X174667333Y-81446115D01*
X174570571Y-81421925D01*
X174522190Y-81397734D01*
X174498000Y-81373544D01*
X174473810Y-81325163D01*
X174473810Y-80841353D02*
X174473810Y-80792972D01*
X174498000Y-80744591D01*
X174522190Y-80720400D01*
X174570571Y-80696210D01*
X174667333Y-80672019D01*
X174788286Y-80672019D01*
X174885048Y-80696210D01*
X174933429Y-80720400D01*
X174957619Y-80744591D01*
X174981810Y-80792972D01*
X174981810Y-80841353D01*
X174957619Y-80889734D01*
X174933429Y-80913924D01*
X174885048Y-80938115D01*
X174788286Y-80962305D01*
X174667333Y-80962305D01*
X174570571Y-80938115D01*
X174522190Y-80913924D01*
X174498000Y-80889734D01*
X174473810Y-80841353D01*
X174473810Y-80357543D02*
X174473810Y-80309162D01*
X174498000Y-80260781D01*
X174522190Y-80236590D01*
X174570571Y-80212400D01*
X174667333Y-80188209D01*
X174788286Y-80188209D01*
X174885048Y-80212400D01*
X174933429Y-80236590D01*
X174957619Y-80260781D01*
X174981810Y-80309162D01*
X174981810Y-80357543D01*
X174957619Y-80405924D01*
X174933429Y-80430114D01*
X174885048Y-80454305D01*
X174788286Y-80478495D01*
X174667333Y-80478495D01*
X174570571Y-80454305D01*
X174522190Y-80430114D01*
X174498000Y-80405924D01*
X174473810Y-80357543D01*
X174643143Y-79970495D02*
X175151143Y-79970495D01*
X174667333Y-79970495D02*
X174643143Y-79922114D01*
X174643143Y-79825352D01*
X174667333Y-79776971D01*
X174691524Y-79752780D01*
X174739905Y-79728590D01*
X174885048Y-79728590D01*
X174933429Y-79752780D01*
X174957619Y-79776971D01*
X174981810Y-79825352D01*
X174981810Y-79922114D01*
X174957619Y-79970495D01*
X174662708Y-87546123D02*
X174662708Y-87836409D01*
X174662708Y-87691266D02*
X174154708Y-87691266D01*
X174227279Y-87739647D01*
X174275660Y-87788028D01*
X174299850Y-87836409D01*
X174154708Y-87231647D02*
X174154708Y-87183266D01*
X174178898Y-87134885D01*
X174203088Y-87110694D01*
X174251469Y-87086504D01*
X174348231Y-87062313D01*
X174469184Y-87062313D01*
X174565946Y-87086504D01*
X174614327Y-87110694D01*
X174638517Y-87134885D01*
X174662708Y-87183266D01*
X174662708Y-87231647D01*
X174638517Y-87280028D01*
X174614327Y-87304218D01*
X174565946Y-87328409D01*
X174469184Y-87352599D01*
X174348231Y-87352599D01*
X174251469Y-87328409D01*
X174203088Y-87304218D01*
X174178898Y-87280028D01*
X174154708Y-87231647D01*
X174154708Y-86747837D02*
X174154708Y-86699456D01*
X174178898Y-86651075D01*
X174203088Y-86626884D01*
X174251469Y-86602694D01*
X174348231Y-86578503D01*
X174469184Y-86578503D01*
X174565946Y-86602694D01*
X174614327Y-86626884D01*
X174638517Y-86651075D01*
X174662708Y-86699456D01*
X174662708Y-86747837D01*
X174638517Y-86796218D01*
X174614327Y-86820408D01*
X174565946Y-86844599D01*
X174469184Y-86868789D01*
X174348231Y-86868789D01*
X174251469Y-86844599D01*
X174203088Y-86820408D01*
X174178898Y-86796218D01*
X174154708Y-86747837D01*
X174154708Y-86264027D02*
X174154708Y-86215646D01*
X174178898Y-86167265D01*
X174203088Y-86143074D01*
X174251469Y-86118884D01*
X174348231Y-86094693D01*
X174469184Y-86094693D01*
X174565946Y-86118884D01*
X174614327Y-86143074D01*
X174638517Y-86167265D01*
X174662708Y-86215646D01*
X174662708Y-86264027D01*
X174638517Y-86312408D01*
X174614327Y-86336598D01*
X174565946Y-86360789D01*
X174469184Y-86384979D01*
X174348231Y-86384979D01*
X174251469Y-86360789D01*
X174203088Y-86336598D01*
X174178898Y-86312408D01*
X174154708Y-86264027D01*
X174324041Y-85876979D02*
X174832041Y-85876979D01*
X174348231Y-85876979D02*
X174324041Y-85828598D01*
X174324041Y-85731836D01*
X174348231Y-85683455D01*
X174372422Y-85659264D01*
X174420803Y-85635074D01*
X174565946Y-85635074D01*
X174614327Y-85659264D01*
X174638517Y-85683455D01*
X174662708Y-85731836D01*
X174662708Y-85828598D01*
X174638517Y-85876979D01*
X208763810Y-86976858D02*
X208763810Y-86928477D01*
X208788000Y-86880096D01*
X208812190Y-86855905D01*
X208860571Y-86831715D01*
X208957333Y-86807524D01*
X209078286Y-86807524D01*
X209175048Y-86831715D01*
X209223429Y-86855905D01*
X209247619Y-86880096D01*
X209271810Y-86928477D01*
X209271810Y-86976858D01*
X209247619Y-87025239D01*
X209223429Y-87049429D01*
X209175048Y-87073620D01*
X209078286Y-87097810D01*
X208957333Y-87097810D01*
X208860571Y-87073620D01*
X208812190Y-87049429D01*
X208788000Y-87025239D01*
X208763810Y-86976858D01*
X209223429Y-86589810D02*
X209247619Y-86565619D01*
X209271810Y-86589810D01*
X209247619Y-86614000D01*
X209223429Y-86589810D01*
X209271810Y-86589810D01*
X209271810Y-86081809D02*
X209271810Y-86372095D01*
X209271810Y-86226952D02*
X208763810Y-86226952D01*
X208836381Y-86275333D01*
X208884762Y-86323714D01*
X208908952Y-86372095D01*
X208933143Y-85646380D02*
X209271810Y-85646380D01*
X208933143Y-85864095D02*
X209199238Y-85864095D01*
X209247619Y-85839904D01*
X209271810Y-85791523D01*
X209271810Y-85718952D01*
X209247619Y-85670571D01*
X209223429Y-85646380D01*
X207580761Y-82921810D02*
X207629142Y-82921810D01*
X207677523Y-82946000D01*
X207701714Y-82970190D01*
X207725904Y-83018571D01*
X207750095Y-83115333D01*
X207750095Y-83236286D01*
X207725904Y-83333048D01*
X207701714Y-83381429D01*
X207677523Y-83405619D01*
X207629142Y-83429810D01*
X207580761Y-83429810D01*
X207532380Y-83405619D01*
X207508190Y-83381429D01*
X207483999Y-83333048D01*
X207459809Y-83236286D01*
X207459809Y-83115333D01*
X207483999Y-83018571D01*
X207508190Y-82970190D01*
X207532380Y-82946000D01*
X207580761Y-82921810D01*
X207967809Y-83381429D02*
X207992000Y-83405619D01*
X207967809Y-83429810D01*
X207943619Y-83405619D01*
X207967809Y-83381429D01*
X207967809Y-83429810D01*
X208306476Y-82921810D02*
X208354857Y-82921810D01*
X208403238Y-82946000D01*
X208427429Y-82970190D01*
X208451619Y-83018571D01*
X208475810Y-83115333D01*
X208475810Y-83236286D01*
X208451619Y-83333048D01*
X208427429Y-83381429D01*
X208403238Y-83405619D01*
X208354857Y-83429810D01*
X208306476Y-83429810D01*
X208258095Y-83405619D01*
X208233905Y-83381429D01*
X208209714Y-83333048D01*
X208185524Y-83236286D01*
X208185524Y-83115333D01*
X208209714Y-83018571D01*
X208233905Y-82970190D01*
X208258095Y-82946000D01*
X208306476Y-82921810D01*
X208959620Y-83429810D02*
X208669334Y-83429810D01*
X208814477Y-83429810D02*
X208814477Y-82921810D01*
X208766096Y-82994381D01*
X208717715Y-83042762D01*
X208669334Y-83066952D01*
X209153144Y-83429810D02*
X209540192Y-82921810D01*
X209225715Y-82921810D02*
X209274096Y-82946000D01*
X209298287Y-82994381D01*
X209274096Y-83042762D01*
X209225715Y-83066952D01*
X209177334Y-83042762D01*
X209153144Y-82994381D01*
X209177334Y-82946000D01*
X209225715Y-82921810D01*
X209516001Y-83405619D02*
X209540192Y-83357238D01*
X209516001Y-83308857D01*
X209467620Y-83284667D01*
X209419239Y-83308857D01*
X209395049Y-83357238D01*
X209419239Y-83405619D01*
X209467620Y-83429810D01*
X209516001Y-83405619D01*
X214425809Y-81509810D02*
X214474190Y-81509810D01*
X214522571Y-81534000D01*
X214546762Y-81558190D01*
X214570952Y-81606571D01*
X214595143Y-81703333D01*
X214595143Y-81824286D01*
X214570952Y-81921048D01*
X214546762Y-81969429D01*
X214522571Y-81993619D01*
X214474190Y-82017810D01*
X214425809Y-82017810D01*
X214377428Y-81993619D01*
X214353238Y-81969429D01*
X214329047Y-81921048D01*
X214304857Y-81824286D01*
X214304857Y-81703333D01*
X214329047Y-81606571D01*
X214353238Y-81558190D01*
X214377428Y-81534000D01*
X214425809Y-81509810D01*
X213105714Y-80747810D02*
X212815428Y-80747810D01*
X212960571Y-80747810D02*
X212960571Y-80239810D01*
X212912190Y-80312381D01*
X212863809Y-80360762D01*
X212815428Y-80384952D01*
X213420190Y-80239810D02*
X213468571Y-80239810D01*
X213516952Y-80264000D01*
X213541143Y-80288190D01*
X213565333Y-80336571D01*
X213589524Y-80433333D01*
X213589524Y-80554286D01*
X213565333Y-80651048D01*
X213541143Y-80699429D01*
X213516952Y-80723619D01*
X213468571Y-80747810D01*
X213420190Y-80747810D01*
X213371809Y-80723619D01*
X213347619Y-80699429D01*
X213323428Y-80651048D01*
X213299238Y-80554286D01*
X213299238Y-80433333D01*
X213323428Y-80336571D01*
X213347619Y-80288190D01*
X213371809Y-80264000D01*
X213420190Y-80239810D01*
X213904000Y-80239810D02*
X213952381Y-80239810D01*
X214000762Y-80264000D01*
X214024953Y-80288190D01*
X214049143Y-80336571D01*
X214073334Y-80433333D01*
X214073334Y-80554286D01*
X214049143Y-80651048D01*
X214024953Y-80699429D01*
X214000762Y-80723619D01*
X213952381Y-80747810D01*
X213904000Y-80747810D01*
X213855619Y-80723619D01*
X213831429Y-80699429D01*
X213807238Y-80651048D01*
X213783048Y-80554286D01*
X213783048Y-80433333D01*
X213807238Y-80336571D01*
X213831429Y-80288190D01*
X213855619Y-80264000D01*
X213904000Y-80239810D01*
X214291048Y-80747810D02*
X214291048Y-80239810D01*
X214339429Y-80554286D02*
X214484572Y-80747810D01*
X214484572Y-80409143D02*
X214291048Y-80602667D01*
X206429428Y-81110667D02*
X206671333Y-81110667D01*
X206381047Y-81255810D02*
X206550380Y-80747810D01*
X206719714Y-81255810D01*
X206889047Y-81255810D02*
X206889047Y-80747810D01*
X207010000Y-80747810D01*
X207082571Y-80772000D01*
X207130952Y-80820381D01*
X207155143Y-80868762D01*
X207179333Y-80965524D01*
X207179333Y-81038095D01*
X207155143Y-81134857D01*
X207130952Y-81183238D01*
X207082571Y-81231619D01*
X207010000Y-81255810D01*
X206889047Y-81255810D01*
X207469619Y-80965524D02*
X207421238Y-80941333D01*
X207397047Y-80917143D01*
X207372857Y-80868762D01*
X207372857Y-80844571D01*
X207397047Y-80796190D01*
X207421238Y-80772000D01*
X207469619Y-80747810D01*
X207566381Y-80747810D01*
X207614762Y-80772000D01*
X207638952Y-80796190D01*
X207663143Y-80844571D01*
X207663143Y-80868762D01*
X207638952Y-80917143D01*
X207614762Y-80941333D01*
X207566381Y-80965524D01*
X207469619Y-80965524D01*
X207421238Y-80989714D01*
X207397047Y-81013905D01*
X207372857Y-81062286D01*
X207372857Y-81159048D01*
X207397047Y-81207429D01*
X207421238Y-81231619D01*
X207469619Y-81255810D01*
X207566381Y-81255810D01*
X207614762Y-81231619D01*
X207638952Y-81207429D01*
X207663143Y-81159048D01*
X207663143Y-81062286D01*
X207638952Y-81013905D01*
X207614762Y-80989714D01*
X207566381Y-80965524D01*
X208098572Y-80747810D02*
X208001810Y-80747810D01*
X207953429Y-80772000D01*
X207929238Y-80796190D01*
X207880857Y-80868762D01*
X207856667Y-80965524D01*
X207856667Y-81159048D01*
X207880857Y-81207429D01*
X207905048Y-81231619D01*
X207953429Y-81255810D01*
X208050191Y-81255810D01*
X208098572Y-81231619D01*
X208122762Y-81207429D01*
X208146953Y-81159048D01*
X208146953Y-81038095D01*
X208122762Y-80989714D01*
X208098572Y-80965524D01*
X208050191Y-80941333D01*
X207953429Y-80941333D01*
X207905048Y-80965524D01*
X207880857Y-80989714D01*
X207856667Y-81038095D01*
X208461429Y-80747810D02*
X208509810Y-80747810D01*
X208558191Y-80772000D01*
X208582382Y-80796190D01*
X208606572Y-80844571D01*
X208630763Y-80941333D01*
X208630763Y-81062286D01*
X208606572Y-81159048D01*
X208582382Y-81207429D01*
X208558191Y-81231619D01*
X208509810Y-81255810D01*
X208461429Y-81255810D01*
X208413048Y-81231619D01*
X208388858Y-81207429D01*
X208364667Y-81159048D01*
X208340477Y-81062286D01*
X208340477Y-80941333D01*
X208364667Y-80844571D01*
X208388858Y-80796190D01*
X208413048Y-80772000D01*
X208461429Y-80747810D01*
X208800096Y-80747810D02*
X209138763Y-80747810D01*
X208921049Y-81255810D01*
X213952667Y-87956572D02*
X213952667Y-87714667D01*
X214097810Y-88004953D02*
X213589810Y-87835620D01*
X214097810Y-87666286D01*
X214097810Y-87496953D02*
X213589810Y-87496953D01*
X213589810Y-87376000D01*
X213614000Y-87303429D01*
X213662381Y-87255048D01*
X213710762Y-87230857D01*
X213807524Y-87206667D01*
X213880095Y-87206667D01*
X213976857Y-87230857D01*
X214025238Y-87255048D01*
X214073619Y-87303429D01*
X214097810Y-87376000D01*
X214097810Y-87496953D01*
X213807524Y-86916381D02*
X213783333Y-86964762D01*
X213759143Y-86988953D01*
X213710762Y-87013143D01*
X213686571Y-87013143D01*
X213638190Y-86988953D01*
X213614000Y-86964762D01*
X213589810Y-86916381D01*
X213589810Y-86819619D01*
X213614000Y-86771238D01*
X213638190Y-86747048D01*
X213686571Y-86722857D01*
X213710762Y-86722857D01*
X213759143Y-86747048D01*
X213783333Y-86771238D01*
X213807524Y-86819619D01*
X213807524Y-86916381D01*
X213831714Y-86964762D01*
X213855905Y-86988953D01*
X213904286Y-87013143D01*
X214001048Y-87013143D01*
X214049429Y-86988953D01*
X214073619Y-86964762D01*
X214097810Y-86916381D01*
X214097810Y-86819619D01*
X214073619Y-86771238D01*
X214049429Y-86747048D01*
X214001048Y-86722857D01*
X213904286Y-86722857D01*
X213855905Y-86747048D01*
X213831714Y-86771238D01*
X213807524Y-86819619D01*
X213638190Y-86529333D02*
X213614000Y-86505143D01*
X213589810Y-86456762D01*
X213589810Y-86335809D01*
X213614000Y-86287428D01*
X213638190Y-86263238D01*
X213686571Y-86239047D01*
X213734952Y-86239047D01*
X213807524Y-86263238D01*
X214097810Y-86553524D01*
X214097810Y-86239047D01*
X213589810Y-86069714D02*
X213589810Y-85731047D01*
X214097810Y-85948761D01*
X213589810Y-85585904D02*
X213589810Y-85247237D01*
X214097810Y-85464951D01*
X218403714Y-86142286D02*
X218427905Y-86069715D01*
X218452095Y-86045524D01*
X218500476Y-86021334D01*
X218573048Y-86021334D01*
X218621429Y-86045524D01*
X218645619Y-86069715D01*
X218669810Y-86118096D01*
X218669810Y-86311620D01*
X218161810Y-86311620D01*
X218161810Y-86142286D01*
X218186000Y-86093905D01*
X218210190Y-86069715D01*
X218258571Y-86045524D01*
X218306952Y-86045524D01*
X218355333Y-86069715D01*
X218379524Y-86093905D01*
X218403714Y-86142286D01*
X218403714Y-86311620D01*
X218669810Y-85803620D02*
X218161810Y-85803620D01*
X218524667Y-85585905D02*
X218524667Y-85344000D01*
X218669810Y-85634286D02*
X218161810Y-85464953D01*
X218669810Y-85295619D01*
X218645619Y-85150476D02*
X218669810Y-85077905D01*
X218669810Y-84956952D01*
X218645619Y-84908571D01*
X218621429Y-84884381D01*
X218573048Y-84860190D01*
X218524667Y-84860190D01*
X218476286Y-84884381D01*
X218452095Y-84908571D01*
X218427905Y-84956952D01*
X218403714Y-85053714D01*
X218379524Y-85102095D01*
X218355333Y-85126286D01*
X218306952Y-85150476D01*
X218258571Y-85150476D01*
X218210190Y-85126286D01*
X218186000Y-85102095D01*
X218161810Y-85053714D01*
X218161810Y-84932762D01*
X218186000Y-84860190D01*
X208883142Y-78207810D02*
X208931523Y-78207810D01*
X208979904Y-78232000D01*
X209004095Y-78256190D01*
X209028285Y-78304571D01*
X209052476Y-78401333D01*
X209052476Y-78522286D01*
X209028285Y-78619048D01*
X209004095Y-78667429D01*
X208979904Y-78691619D01*
X208931523Y-78715810D01*
X208883142Y-78715810D01*
X208834761Y-78691619D01*
X208810571Y-78667429D01*
X208786380Y-78619048D01*
X208762190Y-78522286D01*
X208762190Y-78401333D01*
X208786380Y-78304571D01*
X208810571Y-78256190D01*
X208834761Y-78232000D01*
X208883142Y-78207810D01*
X209270190Y-78667429D02*
X209294381Y-78691619D01*
X209270190Y-78715810D01*
X209246000Y-78691619D01*
X209270190Y-78667429D01*
X209270190Y-78715810D01*
X209778191Y-78715810D02*
X209487905Y-78715810D01*
X209633048Y-78715810D02*
X209633048Y-78207810D01*
X209584667Y-78280381D01*
X209536286Y-78328762D01*
X209487905Y-78352952D01*
X210213620Y-78377143D02*
X210213620Y-78715810D01*
X209995905Y-78377143D02*
X209995905Y-78643238D01*
X210020096Y-78691619D01*
X210068477Y-78715810D01*
X210141048Y-78715810D01*
X210189429Y-78691619D01*
X210213620Y-78667429D01*
X215505714Y-92179810D02*
X215215428Y-92179810D01*
X215360571Y-92179810D02*
X215360571Y-91671810D01*
X215312190Y-91744381D01*
X215263809Y-91792762D01*
X215215428Y-91816952D01*
X215820190Y-91671810D02*
X215868571Y-91671810D01*
X215916952Y-91696000D01*
X215941143Y-91720190D01*
X215965333Y-91768571D01*
X215989524Y-91865333D01*
X215989524Y-91986286D01*
X215965333Y-92083048D01*
X215941143Y-92131429D01*
X215916952Y-92155619D01*
X215868571Y-92179810D01*
X215820190Y-92179810D01*
X215771809Y-92155619D01*
X215747619Y-92131429D01*
X215723428Y-92083048D01*
X215699238Y-91986286D01*
X215699238Y-91865333D01*
X215723428Y-91768571D01*
X215747619Y-91720190D01*
X215771809Y-91696000D01*
X215820190Y-91671810D01*
X216304000Y-91671810D02*
X216352381Y-91671810D01*
X216400762Y-91696000D01*
X216424953Y-91720190D01*
X216449143Y-91768571D01*
X216473334Y-91865333D01*
X216473334Y-91986286D01*
X216449143Y-92083048D01*
X216424953Y-92131429D01*
X216400762Y-92155619D01*
X216352381Y-92179810D01*
X216304000Y-92179810D01*
X216255619Y-92155619D01*
X216231429Y-92131429D01*
X216207238Y-92083048D01*
X216183048Y-91986286D01*
X216183048Y-91865333D01*
X216207238Y-91768571D01*
X216231429Y-91720190D01*
X216255619Y-91696000D01*
X216304000Y-91671810D01*
X216691048Y-92179810D02*
X216691048Y-91671810D01*
X216739429Y-91986286D02*
X216884572Y-92179810D01*
X216884572Y-91841143D02*
X216691048Y-92034667D01*
X209855714Y-91929810D02*
X209565428Y-91929810D01*
X209710571Y-91929810D02*
X209710571Y-91421810D01*
X209662190Y-91494381D01*
X209613809Y-91542762D01*
X209565428Y-91566952D01*
X210170190Y-91421810D02*
X210218571Y-91421810D01*
X210266952Y-91446000D01*
X210291143Y-91470190D01*
X210315333Y-91518571D01*
X210339524Y-91615333D01*
X210339524Y-91736286D01*
X210315333Y-91833048D01*
X210291143Y-91881429D01*
X210266952Y-91905619D01*
X210218571Y-91929810D01*
X210170190Y-91929810D01*
X210121809Y-91905619D01*
X210097619Y-91881429D01*
X210073428Y-91833048D01*
X210049238Y-91736286D01*
X210049238Y-91615333D01*
X210073428Y-91518571D01*
X210097619Y-91470190D01*
X210121809Y-91446000D01*
X210170190Y-91421810D01*
X210654000Y-91421810D02*
X210702381Y-91421810D01*
X210750762Y-91446000D01*
X210774953Y-91470190D01*
X210799143Y-91518571D01*
X210823334Y-91615333D01*
X210823334Y-91736286D01*
X210799143Y-91833048D01*
X210774953Y-91881429D01*
X210750762Y-91905619D01*
X210702381Y-91929810D01*
X210654000Y-91929810D01*
X210605619Y-91905619D01*
X210581429Y-91881429D01*
X210557238Y-91833048D01*
X210533048Y-91736286D01*
X210533048Y-91615333D01*
X210557238Y-91518571D01*
X210581429Y-91470190D01*
X210605619Y-91446000D01*
X210654000Y-91421810D01*
X211041048Y-91929810D02*
X211041048Y-91421810D01*
X211089429Y-91736286D02*
X211234572Y-91929810D01*
X211234572Y-91591143D02*
X211041048Y-91784667D01*
X188824810Y-87400191D02*
X188824810Y-87351810D01*
X188849000Y-87303429D01*
X188873190Y-87279238D01*
X188921571Y-87255048D01*
X189018333Y-87230857D01*
X189139286Y-87230857D01*
X189236048Y-87255048D01*
X189284429Y-87279238D01*
X189308619Y-87303429D01*
X189332810Y-87351810D01*
X189332810Y-87400191D01*
X189308619Y-87448572D01*
X189284429Y-87472762D01*
X189236048Y-87496953D01*
X189139286Y-87521143D01*
X189018333Y-87521143D01*
X188921571Y-87496953D01*
X188873190Y-87472762D01*
X188849000Y-87448572D01*
X188824810Y-87400191D01*
X188181524Y-86081810D02*
X187891238Y-86081810D01*
X188036381Y-86081810D02*
X188036381Y-85573810D01*
X187988000Y-85646381D01*
X187939619Y-85694762D01*
X187891238Y-85718952D01*
X188496000Y-85573810D02*
X188544381Y-85573810D01*
X188592762Y-85598000D01*
X188616953Y-85622190D01*
X188641143Y-85670571D01*
X188665334Y-85767333D01*
X188665334Y-85888286D01*
X188641143Y-85985048D01*
X188616953Y-86033429D01*
X188592762Y-86057619D01*
X188544381Y-86081810D01*
X188496000Y-86081810D01*
X188447619Y-86057619D01*
X188423429Y-86033429D01*
X188399238Y-85985048D01*
X188375048Y-85888286D01*
X188375048Y-85767333D01*
X188399238Y-85670571D01*
X188423429Y-85622190D01*
X188447619Y-85598000D01*
X188496000Y-85573810D01*
X188979810Y-85573810D02*
X189028191Y-85573810D01*
X189076572Y-85598000D01*
X189100763Y-85622190D01*
X189124953Y-85670571D01*
X189149144Y-85767333D01*
X189149144Y-85888286D01*
X189124953Y-85985048D01*
X189100763Y-86033429D01*
X189076572Y-86057619D01*
X189028191Y-86081810D01*
X188979810Y-86081810D01*
X188931429Y-86057619D01*
X188907239Y-86033429D01*
X188883048Y-85985048D01*
X188858858Y-85888286D01*
X188858858Y-85767333D01*
X188883048Y-85670571D01*
X188907239Y-85622190D01*
X188931429Y-85598000D01*
X188979810Y-85573810D01*
X189366858Y-85743143D02*
X189366858Y-86251143D01*
X189366858Y-85767333D02*
X189415239Y-85743143D01*
X189512001Y-85743143D01*
X189560382Y-85767333D01*
X189584573Y-85791524D01*
X189608763Y-85839905D01*
X189608763Y-85985048D01*
X189584573Y-86033429D01*
X189560382Y-86057619D01*
X189512001Y-86081810D01*
X189415239Y-86081810D01*
X189366858Y-86057619D01*
X200091522Y-85319810D02*
X200091522Y-84811810D01*
X200260856Y-85174667D01*
X200430189Y-84811810D01*
X200430189Y-85319810D01*
X200647903Y-85174667D02*
X200889808Y-85174667D01*
X200599522Y-85319810D02*
X200768855Y-84811810D01*
X200938189Y-85319810D01*
X201059141Y-84811810D02*
X201397808Y-85319810D01*
X201397808Y-84811810D02*
X201059141Y-85319810D01*
X201857428Y-85319810D02*
X201567142Y-85319810D01*
X201712285Y-85319810D02*
X201712285Y-84811810D01*
X201663904Y-84884381D01*
X201615523Y-84932762D01*
X201567142Y-84956952D01*
X202292857Y-84981143D02*
X202292857Y-85319810D01*
X202171904Y-84787619D02*
X202050952Y-85150476D01*
X202365428Y-85150476D01*
X202776667Y-84811810D02*
X202679905Y-84811810D01*
X202631524Y-84836000D01*
X202607333Y-84860190D01*
X202558952Y-84932762D01*
X202534762Y-85029524D01*
X202534762Y-85223048D01*
X202558952Y-85271429D01*
X202583143Y-85295619D01*
X202631524Y-85319810D01*
X202728286Y-85319810D01*
X202776667Y-85295619D01*
X202800857Y-85271429D01*
X202825048Y-85223048D01*
X202825048Y-85102095D01*
X202800857Y-85053714D01*
X202776667Y-85029524D01*
X202728286Y-85005333D01*
X202631524Y-85005333D01*
X202583143Y-85029524D01*
X202558952Y-85053714D01*
X202534762Y-85102095D01*
X203260477Y-84811810D02*
X203163715Y-84811810D01*
X203115334Y-84836000D01*
X203091143Y-84860190D01*
X203042762Y-84932762D01*
X203018572Y-85029524D01*
X203018572Y-85223048D01*
X203042762Y-85271429D01*
X203066953Y-85295619D01*
X203115334Y-85319810D01*
X203212096Y-85319810D01*
X203260477Y-85295619D01*
X203284667Y-85271429D01*
X203308858Y-85223048D01*
X203308858Y-85102095D01*
X203284667Y-85053714D01*
X203260477Y-85029524D01*
X203212096Y-85005333D01*
X203115334Y-85005333D01*
X203066953Y-85029524D01*
X203042762Y-85053714D01*
X203018572Y-85102095D01*
X203792668Y-85319810D02*
X203502382Y-85319810D01*
X203647525Y-85319810D02*
X203647525Y-84811810D01*
X203599144Y-84884381D01*
X203550763Y-84932762D01*
X203502382Y-84956952D01*
X186829810Y-82568476D02*
X186829810Y-82858762D01*
X186829810Y-82713619D02*
X186321810Y-82713619D01*
X186394381Y-82762000D01*
X186442762Y-82810381D01*
X186466952Y-82858762D01*
X186321810Y-82254000D02*
X186321810Y-82205619D01*
X186346000Y-82157238D01*
X186370190Y-82133047D01*
X186418571Y-82108857D01*
X186515333Y-82084666D01*
X186636286Y-82084666D01*
X186733048Y-82108857D01*
X186781429Y-82133047D01*
X186805619Y-82157238D01*
X186829810Y-82205619D01*
X186829810Y-82254000D01*
X186805619Y-82302381D01*
X186781429Y-82326571D01*
X186733048Y-82350762D01*
X186636286Y-82374952D01*
X186515333Y-82374952D01*
X186418571Y-82350762D01*
X186370190Y-82326571D01*
X186346000Y-82302381D01*
X186321810Y-82254000D01*
X186321810Y-81770190D02*
X186321810Y-81721809D01*
X186346000Y-81673428D01*
X186370190Y-81649237D01*
X186418571Y-81625047D01*
X186515333Y-81600856D01*
X186636286Y-81600856D01*
X186733048Y-81625047D01*
X186781429Y-81649237D01*
X186805619Y-81673428D01*
X186829810Y-81721809D01*
X186829810Y-81770190D01*
X186805619Y-81818571D01*
X186781429Y-81842761D01*
X186733048Y-81866952D01*
X186636286Y-81891142D01*
X186515333Y-81891142D01*
X186418571Y-81866952D01*
X186370190Y-81842761D01*
X186346000Y-81818571D01*
X186321810Y-81770190D01*
X186491143Y-81383142D02*
X186999143Y-81383142D01*
X186515333Y-81383142D02*
X186491143Y-81334761D01*
X186491143Y-81237999D01*
X186515333Y-81189618D01*
X186539524Y-81165427D01*
X186587905Y-81141237D01*
X186733048Y-81141237D01*
X186781429Y-81165427D01*
X186805619Y-81189618D01*
X186829810Y-81237999D01*
X186829810Y-81334761D01*
X186805619Y-81383142D01*
X186829810Y-85068476D02*
X186829810Y-85358762D01*
X186829810Y-85213619D02*
X186321810Y-85213619D01*
X186394381Y-85262000D01*
X186442762Y-85310381D01*
X186466952Y-85358762D01*
X186321810Y-84754000D02*
X186321810Y-84705619D01*
X186346000Y-84657238D01*
X186370190Y-84633047D01*
X186418571Y-84608857D01*
X186515333Y-84584666D01*
X186636286Y-84584666D01*
X186733048Y-84608857D01*
X186781429Y-84633047D01*
X186805619Y-84657238D01*
X186829810Y-84705619D01*
X186829810Y-84754000D01*
X186805619Y-84802381D01*
X186781429Y-84826571D01*
X186733048Y-84850762D01*
X186636286Y-84874952D01*
X186515333Y-84874952D01*
X186418571Y-84850762D01*
X186370190Y-84826571D01*
X186346000Y-84802381D01*
X186321810Y-84754000D01*
X186321810Y-84270190D02*
X186321810Y-84221809D01*
X186346000Y-84173428D01*
X186370190Y-84149237D01*
X186418571Y-84125047D01*
X186515333Y-84100856D01*
X186636286Y-84100856D01*
X186733048Y-84125047D01*
X186781429Y-84149237D01*
X186805619Y-84173428D01*
X186829810Y-84221809D01*
X186829810Y-84270190D01*
X186805619Y-84318571D01*
X186781429Y-84342761D01*
X186733048Y-84366952D01*
X186636286Y-84391142D01*
X186515333Y-84391142D01*
X186418571Y-84366952D01*
X186370190Y-84342761D01*
X186346000Y-84318571D01*
X186321810Y-84270190D01*
X186491143Y-83883142D02*
X186999143Y-83883142D01*
X186515333Y-83883142D02*
X186491143Y-83834761D01*
X186491143Y-83737999D01*
X186515333Y-83689618D01*
X186539524Y-83665427D01*
X186587905Y-83641237D01*
X186733048Y-83641237D01*
X186781429Y-83665427D01*
X186805619Y-83689618D01*
X186829810Y-83737999D01*
X186829810Y-83834761D01*
X186805619Y-83883142D01*
X177546000Y-71204667D02*
X177787905Y-71204667D01*
X177497619Y-71349810D02*
X177666952Y-70841810D01*
X177836286Y-71349810D01*
X178005619Y-71349810D02*
X178005619Y-70841810D01*
X178126572Y-70841810D01*
X178199143Y-70866000D01*
X178247524Y-70914381D01*
X178271715Y-70962762D01*
X178295905Y-71059524D01*
X178295905Y-71132095D01*
X178271715Y-71228857D01*
X178247524Y-71277238D01*
X178199143Y-71325619D01*
X178126572Y-71349810D01*
X178005619Y-71349810D01*
X178803905Y-71301429D02*
X178779715Y-71325619D01*
X178707143Y-71349810D01*
X178658762Y-71349810D01*
X178586191Y-71325619D01*
X178537810Y-71277238D01*
X178513619Y-71228857D01*
X178489429Y-71132095D01*
X178489429Y-71059524D01*
X178513619Y-70962762D01*
X178537810Y-70914381D01*
X178586191Y-70866000D01*
X178658762Y-70841810D01*
X178707143Y-70841810D01*
X178779715Y-70866000D01*
X178803905Y-70890190D01*
X178900667Y-71398190D02*
X179287715Y-71398190D01*
X179698953Y-71349810D02*
X179529620Y-71107905D01*
X179408667Y-71349810D02*
X179408667Y-70841810D01*
X179602191Y-70841810D01*
X179650572Y-70866000D01*
X179674763Y-70890190D01*
X179698953Y-70938571D01*
X179698953Y-71011143D01*
X179674763Y-71059524D01*
X179650572Y-71083714D01*
X179602191Y-71107905D01*
X179408667Y-71107905D01*
X179916667Y-71083714D02*
X180086001Y-71083714D01*
X180158572Y-71349810D02*
X179916667Y-71349810D01*
X179916667Y-70841810D01*
X180158572Y-70841810D01*
X180545620Y-71083714D02*
X180376286Y-71083714D01*
X180376286Y-71349810D02*
X180376286Y-70841810D01*
X180618191Y-70841810D01*
X184975809Y-85821810D02*
X185024190Y-85821810D01*
X185072571Y-85846000D01*
X185096762Y-85870190D01*
X185120952Y-85918571D01*
X185145143Y-86015333D01*
X185145143Y-86136286D01*
X185120952Y-86233048D01*
X185096762Y-86281429D01*
X185072571Y-86305619D01*
X185024190Y-86329810D01*
X184975809Y-86329810D01*
X184927428Y-86305619D01*
X184903238Y-86281429D01*
X184879047Y-86233048D01*
X184854857Y-86136286D01*
X184854857Y-86015333D01*
X184879047Y-85918571D01*
X184903238Y-85870190D01*
X184927428Y-85846000D01*
X184975809Y-85821810D01*
X185221810Y-84324191D02*
X185221810Y-84275810D01*
X185246000Y-84227429D01*
X185270190Y-84203238D01*
X185318571Y-84179048D01*
X185415333Y-84154857D01*
X185536286Y-84154857D01*
X185633048Y-84179048D01*
X185681429Y-84203238D01*
X185705619Y-84227429D01*
X185729810Y-84275810D01*
X185729810Y-84324191D01*
X185705619Y-84372572D01*
X185681429Y-84396762D01*
X185633048Y-84420953D01*
X185536286Y-84445143D01*
X185415333Y-84445143D01*
X185318571Y-84420953D01*
X185270190Y-84396762D01*
X185246000Y-84372572D01*
X185221810Y-84324191D01*
X172255714Y-89007911D02*
X171965428Y-89007911D01*
X172110571Y-89007911D02*
X172110571Y-88499911D01*
X172062190Y-88572482D01*
X172013809Y-88620863D01*
X171965428Y-88645053D01*
X172570190Y-88499911D02*
X172618571Y-88499911D01*
X172666952Y-88524101D01*
X172691143Y-88548291D01*
X172715333Y-88596672D01*
X172739524Y-88693434D01*
X172739524Y-88814387D01*
X172715333Y-88911149D01*
X172691143Y-88959530D01*
X172666952Y-88983720D01*
X172618571Y-89007911D01*
X172570190Y-89007911D01*
X172521809Y-88983720D01*
X172497619Y-88959530D01*
X172473428Y-88911149D01*
X172449238Y-88814387D01*
X172449238Y-88693434D01*
X172473428Y-88596672D01*
X172497619Y-88548291D01*
X172521809Y-88524101D01*
X172570190Y-88499911D01*
X173054000Y-88499911D02*
X173102381Y-88499911D01*
X173150762Y-88524101D01*
X173174953Y-88548291D01*
X173199143Y-88596672D01*
X173223334Y-88693434D01*
X173223334Y-88814387D01*
X173199143Y-88911149D01*
X173174953Y-88959530D01*
X173150762Y-88983720D01*
X173102381Y-89007911D01*
X173054000Y-89007911D01*
X173005619Y-88983720D01*
X172981429Y-88959530D01*
X172957238Y-88911149D01*
X172933048Y-88814387D01*
X172933048Y-88693434D01*
X172957238Y-88596672D01*
X172981429Y-88548291D01*
X173005619Y-88524101D01*
X173054000Y-88499911D01*
X173441048Y-89007911D02*
X173441048Y-88499911D01*
X173489429Y-88814387D02*
X173634572Y-89007911D01*
X173634572Y-88669244D02*
X173441048Y-88862768D01*
X176830857Y-86629810D02*
X176830857Y-86121810D01*
X177000191Y-86484667D01*
X177169524Y-86121810D01*
X177169524Y-86629810D01*
X177701714Y-86581429D02*
X177677524Y-86605619D01*
X177604952Y-86629810D01*
X177556571Y-86629810D01*
X177484000Y-86605619D01*
X177435619Y-86557238D01*
X177411428Y-86508857D01*
X177387238Y-86412095D01*
X177387238Y-86339524D01*
X177411428Y-86242762D01*
X177435619Y-86194381D01*
X177484000Y-86146000D01*
X177556571Y-86121810D01*
X177604952Y-86121810D01*
X177677524Y-86146000D01*
X177701714Y-86170190D01*
X177919428Y-86629810D02*
X177919428Y-86121810D01*
X178112952Y-86121810D01*
X178161333Y-86146000D01*
X178185524Y-86170190D01*
X178209714Y-86218571D01*
X178209714Y-86291143D01*
X178185524Y-86339524D01*
X178161333Y-86363714D01*
X178112952Y-86387905D01*
X177919428Y-86387905D01*
X178645143Y-86121810D02*
X178548381Y-86121810D01*
X178500000Y-86146000D01*
X178475809Y-86170190D01*
X178427428Y-86242762D01*
X178403238Y-86339524D01*
X178403238Y-86533048D01*
X178427428Y-86581429D01*
X178451619Y-86605619D01*
X178500000Y-86629810D01*
X178596762Y-86629810D01*
X178645143Y-86605619D01*
X178669333Y-86581429D01*
X178693524Y-86533048D01*
X178693524Y-86412095D01*
X178669333Y-86363714D01*
X178645143Y-86339524D01*
X178596762Y-86315333D01*
X178500000Y-86315333D01*
X178451619Y-86339524D01*
X178427428Y-86363714D01*
X178403238Y-86412095D01*
X178911238Y-86629810D02*
X178911238Y-86121810D01*
X179201524Y-86629810D01*
X179201524Y-86121810D01*
X179709524Y-86629810D02*
X179419238Y-86629810D01*
X179564381Y-86629810D02*
X179564381Y-86121810D01*
X179516000Y-86194381D01*
X179467619Y-86242762D01*
X179419238Y-86266952D01*
X180193334Y-86629810D02*
X179903048Y-86629810D01*
X180048191Y-86629810D02*
X180048191Y-86121810D01*
X179999810Y-86194381D01*
X179951429Y-86242762D01*
X179903048Y-86266952D01*
X178575809Y-87121810D02*
X178624190Y-87121810D01*
X178672571Y-87146000D01*
X178696762Y-87170190D01*
X178720952Y-87218571D01*
X178745143Y-87315333D01*
X178745143Y-87436286D01*
X178720952Y-87533048D01*
X178696762Y-87581429D01*
X178672571Y-87605619D01*
X178624190Y-87629810D01*
X178575809Y-87629810D01*
X178527428Y-87605619D01*
X178503238Y-87581429D01*
X178479047Y-87533048D01*
X178454857Y-87436286D01*
X178454857Y-87315333D01*
X178479047Y-87218571D01*
X178503238Y-87170190D01*
X178527428Y-87146000D01*
X178575809Y-87121810D01*
X178575809Y-88421810D02*
X178624190Y-88421810D01*
X178672571Y-88446000D01*
X178696762Y-88470190D01*
X178720952Y-88518571D01*
X178745143Y-88615333D01*
X178745143Y-88736286D01*
X178720952Y-88833048D01*
X178696762Y-88881429D01*
X178672571Y-88905619D01*
X178624190Y-88929810D01*
X178575809Y-88929810D01*
X178527428Y-88905619D01*
X178503238Y-88881429D01*
X178479047Y-88833048D01*
X178454857Y-88736286D01*
X178454857Y-88615333D01*
X178479047Y-88518571D01*
X178503238Y-88470190D01*
X178527428Y-88446000D01*
X178575809Y-88421810D01*
M02*
