G04 #@! TF.FileFunction,Legend,Bot*
%FSLAX46Y46*%
G04 Gerber Fmt 4.6, Leading zero omitted, Abs format (unit mm)*
G04 Created by KiCad (PCBNEW 4.0.1-stable) date Tuesday, February 09, 2016 'PMt' 10:51:17 PM*
%MOMM*%
G01*
G04 APERTURE LIST*
%ADD10C,0.100000*%
%ADD11C,0.200000*%
%ADD12C,0.150000*%
%ADD13C,0.076200*%
%ADD14R,0.627000X1.027000*%
%ADD15R,0.727000X0.627000*%
%ADD16R,1.854200X1.854200*%
%ADD17O,1.854200X1.854200*%
%ADD18R,1.854200X2.159000*%
%ADD19O,1.854200X2.159000*%
%ADD20R,0.927000X0.327000*%
%ADD21R,0.327000X0.927000*%
%ADD22R,1.327000X1.327000*%
%ADD23R,0.627000X0.727000*%
%ADD24R,0.927000X0.877000*%
%ADD25R,0.877000X0.927000*%
%ADD26R,1.127000X2.627000*%
%ADD27R,2.627000X1.127000*%
%ADD28R,1.027000X2.627000*%
%ADD29R,1.027000X0.627000*%
%ADD30R,2.627000X1.027000*%
%ADD31R,2.159000X1.854200*%
%ADD32O,2.159000X1.854200*%
%ADD33R,0.527000X0.727000*%
%ADD34R,0.727000X0.527000*%
%ADD35R,1.187000X0.777000*%
G04 APERTURE END LIST*
D10*
D11*
X216662000Y-93218000D02*
X216535000Y-92456000D01*
X212090000Y-89027000D02*
X212344000Y-89027000D01*
X211074000Y-88011000D02*
X212090000Y-89027000D01*
D12*
X197200000Y-83175000D02*
X198200000Y-83175000D01*
X198200000Y-81825000D02*
X197200000Y-81825000D01*
X209450000Y-78025000D02*
X209950000Y-78025000D01*
X209950000Y-78975000D02*
X209450000Y-78975000D01*
X207350000Y-79850000D02*
X207350000Y-80475000D01*
X211650000Y-84150000D02*
X211650000Y-83525000D01*
X207350000Y-84150000D02*
X207350000Y-83525000D01*
X211650000Y-79850000D02*
X211025000Y-79850000D01*
X211650000Y-84150000D02*
X211025000Y-84150000D01*
X207350000Y-84150000D02*
X207975000Y-84150000D01*
X207350000Y-79850000D02*
X207975000Y-79850000D01*
X213475000Y-79600000D02*
X213475000Y-80100000D01*
X212525000Y-80100000D02*
X212525000Y-79600000D01*
X210050000Y-76450000D02*
X209350000Y-76450000D01*
X209350000Y-77650000D02*
X210050000Y-77650000D01*
X212450000Y-76800000D02*
X212450000Y-77500000D01*
X213650000Y-77500000D02*
X213650000Y-76800000D01*
X183531000Y-72947000D02*
X185531000Y-72947000D01*
X185531000Y-75897000D02*
X183531000Y-75897000D01*
X185244000Y-77232000D02*
X185244000Y-79232000D01*
X182294000Y-79232000D02*
X182294000Y-77232000D01*
X188103000Y-75897000D02*
X190103000Y-75897000D01*
X190103000Y-72947000D02*
X188103000Y-72947000D01*
X205925000Y-78550000D02*
X205925000Y-79550000D01*
X207275000Y-79550000D02*
X207275000Y-78550000D01*
X203525000Y-75800000D02*
X203525000Y-76800000D01*
X204875000Y-76800000D02*
X204875000Y-75800000D01*
X206475000Y-76800000D02*
X206475000Y-75800000D01*
X205125000Y-75800000D02*
X205125000Y-76800000D01*
X200225000Y-75500000D02*
X200225000Y-76500000D01*
X201575000Y-76500000D02*
X201575000Y-75500000D01*
X197225000Y-75500000D02*
X197225000Y-76500000D01*
X198575000Y-76500000D02*
X198575000Y-75500000D01*
X185342000Y-77232000D02*
X185342000Y-79232000D01*
X188292000Y-79232000D02*
X188292000Y-77232000D01*
X216975000Y-91150000D02*
X216975000Y-91650000D01*
X216025000Y-91650000D02*
X216025000Y-91150000D01*
X215600000Y-88625000D02*
X216100000Y-88625000D01*
X216100000Y-89575000D02*
X215600000Y-89575000D01*
X213400000Y-88625000D02*
X213900000Y-88625000D01*
X213900000Y-89575000D02*
X213400000Y-89575000D01*
X212275000Y-90600000D02*
X212275000Y-91100000D01*
X211325000Y-91100000D02*
X211325000Y-90600000D01*
X215300000Y-84625000D02*
X215800000Y-84625000D01*
X215800000Y-85575000D02*
X215300000Y-85575000D01*
X213175000Y-87350000D02*
X213175000Y-87850000D01*
X212225000Y-87850000D02*
X212225000Y-87350000D01*
X217075000Y-80400000D02*
X217075000Y-82400000D01*
X214125000Y-82400000D02*
X214125000Y-80400000D01*
X215350000Y-83475000D02*
X215850000Y-83475000D01*
X215850000Y-84525000D02*
X215350000Y-84525000D01*
X211325000Y-89150000D02*
X211325000Y-89650000D01*
X210275000Y-89650000D02*
X210275000Y-89150000D01*
X211325000Y-90700000D02*
X211325000Y-91200000D01*
X210275000Y-91200000D02*
X210275000Y-90700000D01*
X213800000Y-92700000D02*
G75*
G03X213800000Y-92700000I-100000J0D01*
G01*
X214350000Y-92450000D02*
X213850000Y-92450000D01*
X214350000Y-89550000D02*
X214350000Y-92450000D01*
X213850000Y-89550000D02*
X214350000Y-89550000D01*
X213850000Y-92450000D02*
X213850000Y-89550000D01*
X214700000Y-88800000D02*
G75*
G03X214700000Y-88800000I-100000J0D01*
G01*
X215250000Y-88550000D02*
X214750000Y-88550000D01*
X215250000Y-85650000D02*
X215250000Y-88550000D01*
X214750000Y-85650000D02*
X215250000Y-85650000D01*
X214750000Y-88550000D02*
X214750000Y-85650000D01*
D13*
X198307477Y-83922810D02*
X198476810Y-83680905D01*
X198597763Y-83922810D02*
X198597763Y-83414810D01*
X198404239Y-83414810D01*
X198355858Y-83439000D01*
X198331667Y-83463190D01*
X198307477Y-83511571D01*
X198307477Y-83584143D01*
X198331667Y-83632524D01*
X198355858Y-83656714D01*
X198404239Y-83680905D01*
X198597763Y-83680905D01*
X198138144Y-83414810D02*
X197823667Y-83414810D01*
X197993001Y-83608333D01*
X197920429Y-83608333D01*
X197872048Y-83632524D01*
X197847858Y-83656714D01*
X197823667Y-83705095D01*
X197823667Y-83826048D01*
X197847858Y-83874429D01*
X197872048Y-83898619D01*
X197920429Y-83922810D01*
X198065572Y-83922810D01*
X198113953Y-83898619D01*
X198138144Y-83874429D01*
X197630143Y-83463190D02*
X197605953Y-83439000D01*
X197557572Y-83414810D01*
X197436619Y-83414810D01*
X197388238Y-83439000D01*
X197364048Y-83463190D01*
X197339857Y-83511571D01*
X197339857Y-83559952D01*
X197364048Y-83632524D01*
X197654334Y-83922810D01*
X197339857Y-83922810D01*
X197025381Y-83414810D02*
X196977000Y-83414810D01*
X196928619Y-83439000D01*
X196904428Y-83463190D01*
X196880238Y-83511571D01*
X196856047Y-83608333D01*
X196856047Y-83729286D01*
X196880238Y-83826048D01*
X196904428Y-83874429D01*
X196928619Y-83898619D01*
X196977000Y-83922810D01*
X197025381Y-83922810D01*
X197073762Y-83898619D01*
X197097952Y-83874429D01*
X197122143Y-83826048D01*
X197146333Y-83729286D01*
X197146333Y-83608333D01*
X197122143Y-83511571D01*
X197097952Y-83463190D01*
X197073762Y-83439000D01*
X197025381Y-83414810D01*
X210245477Y-79556429D02*
X210269667Y-79580619D01*
X210342239Y-79604810D01*
X210390620Y-79604810D01*
X210463191Y-79580619D01*
X210511572Y-79532238D01*
X210535763Y-79483857D01*
X210559953Y-79387095D01*
X210559953Y-79314524D01*
X210535763Y-79217762D01*
X210511572Y-79169381D01*
X210463191Y-79121000D01*
X210390620Y-79096810D01*
X210342239Y-79096810D01*
X210269667Y-79121000D01*
X210245477Y-79145190D01*
X210051953Y-79145190D02*
X210027763Y-79121000D01*
X209979382Y-79096810D01*
X209858429Y-79096810D01*
X209810048Y-79121000D01*
X209785858Y-79145190D01*
X209761667Y-79193571D01*
X209761667Y-79241952D01*
X209785858Y-79314524D01*
X210076144Y-79604810D01*
X209761667Y-79604810D01*
X209447191Y-79096810D02*
X209398810Y-79096810D01*
X209350429Y-79121000D01*
X209326238Y-79145190D01*
X209302048Y-79193571D01*
X209277857Y-79290333D01*
X209277857Y-79411286D01*
X209302048Y-79508048D01*
X209326238Y-79556429D01*
X209350429Y-79580619D01*
X209398810Y-79604810D01*
X209447191Y-79604810D01*
X209495572Y-79580619D01*
X209519762Y-79556429D01*
X209543953Y-79508048D01*
X209568143Y-79411286D01*
X209568143Y-79290333D01*
X209543953Y-79193571D01*
X209519762Y-79145190D01*
X209495572Y-79121000D01*
X209447191Y-79096810D01*
X208794047Y-79604810D02*
X209084333Y-79604810D01*
X208939190Y-79604810D02*
X208939190Y-79096810D01*
X208987571Y-79169381D01*
X209035952Y-79217762D01*
X209084333Y-79241952D01*
X210928858Y-84811810D02*
X210928858Y-85223048D01*
X210904667Y-85271429D01*
X210880477Y-85295619D01*
X210832096Y-85319810D01*
X210735334Y-85319810D01*
X210686953Y-85295619D01*
X210662762Y-85271429D01*
X210638572Y-85223048D01*
X210638572Y-84811810D01*
X210420858Y-84860190D02*
X210396668Y-84836000D01*
X210348287Y-84811810D01*
X210227334Y-84811810D01*
X210178953Y-84836000D01*
X210154763Y-84860190D01*
X210130572Y-84908571D01*
X210130572Y-84956952D01*
X210154763Y-85029524D01*
X210445049Y-85319810D01*
X210130572Y-85319810D01*
X209816096Y-84811810D02*
X209767715Y-84811810D01*
X209719334Y-84836000D01*
X209695143Y-84860190D01*
X209670953Y-84908571D01*
X209646762Y-85005333D01*
X209646762Y-85126286D01*
X209670953Y-85223048D01*
X209695143Y-85271429D01*
X209719334Y-85295619D01*
X209767715Y-85319810D01*
X209816096Y-85319810D01*
X209864477Y-85295619D01*
X209888667Y-85271429D01*
X209912858Y-85223048D01*
X209937048Y-85126286D01*
X209937048Y-85005333D01*
X209912858Y-84908571D01*
X209888667Y-84860190D01*
X209864477Y-84836000D01*
X209816096Y-84811810D01*
X209162952Y-85319810D02*
X209453238Y-85319810D01*
X209308095Y-85319810D02*
X209308095Y-84811810D01*
X209356476Y-84884381D01*
X209404857Y-84932762D01*
X209453238Y-84956952D01*
X213547477Y-81461429D02*
X213571667Y-81485619D01*
X213644239Y-81509810D01*
X213692620Y-81509810D01*
X213765191Y-81485619D01*
X213813572Y-81437238D01*
X213837763Y-81388857D01*
X213861953Y-81292095D01*
X213861953Y-81219524D01*
X213837763Y-81122762D01*
X213813572Y-81074381D01*
X213765191Y-81026000D01*
X213692620Y-81001810D01*
X213644239Y-81001810D01*
X213571667Y-81026000D01*
X213547477Y-81050190D01*
X213353953Y-81050190D02*
X213329763Y-81026000D01*
X213281382Y-81001810D01*
X213160429Y-81001810D01*
X213112048Y-81026000D01*
X213087858Y-81050190D01*
X213063667Y-81098571D01*
X213063667Y-81146952D01*
X213087858Y-81219524D01*
X213378144Y-81509810D01*
X213063667Y-81509810D01*
X212749191Y-81001810D02*
X212700810Y-81001810D01*
X212652429Y-81026000D01*
X212628238Y-81050190D01*
X212604048Y-81098571D01*
X212579857Y-81195333D01*
X212579857Y-81316286D01*
X212604048Y-81413048D01*
X212628238Y-81461429D01*
X212652429Y-81485619D01*
X212700810Y-81509810D01*
X212749191Y-81509810D01*
X212797572Y-81485619D01*
X212821762Y-81461429D01*
X212845953Y-81413048D01*
X212870143Y-81316286D01*
X212870143Y-81195333D01*
X212845953Y-81098571D01*
X212821762Y-81050190D01*
X212797572Y-81026000D01*
X212749191Y-81001810D01*
X212144428Y-81171143D02*
X212144428Y-81509810D01*
X212265381Y-80977619D02*
X212386333Y-81340476D01*
X212071857Y-81340476D01*
X210245477Y-76254429D02*
X210269667Y-76278619D01*
X210342239Y-76302810D01*
X210390620Y-76302810D01*
X210463191Y-76278619D01*
X210511572Y-76230238D01*
X210535763Y-76181857D01*
X210559953Y-76085095D01*
X210559953Y-76012524D01*
X210535763Y-75915762D01*
X210511572Y-75867381D01*
X210463191Y-75819000D01*
X210390620Y-75794810D01*
X210342239Y-75794810D01*
X210269667Y-75819000D01*
X210245477Y-75843190D01*
X210051953Y-75843190D02*
X210027763Y-75819000D01*
X209979382Y-75794810D01*
X209858429Y-75794810D01*
X209810048Y-75819000D01*
X209785858Y-75843190D01*
X209761667Y-75891571D01*
X209761667Y-75939952D01*
X209785858Y-76012524D01*
X210076144Y-76302810D01*
X209761667Y-76302810D01*
X209447191Y-75794810D02*
X209398810Y-75794810D01*
X209350429Y-75819000D01*
X209326238Y-75843190D01*
X209302048Y-75891571D01*
X209277857Y-75988333D01*
X209277857Y-76109286D01*
X209302048Y-76206048D01*
X209326238Y-76254429D01*
X209350429Y-76278619D01*
X209398810Y-76302810D01*
X209447191Y-76302810D01*
X209495572Y-76278619D01*
X209519762Y-76254429D01*
X209543953Y-76206048D01*
X209568143Y-76109286D01*
X209568143Y-75988333D01*
X209543953Y-75891571D01*
X209519762Y-75843190D01*
X209495572Y-75819000D01*
X209447191Y-75794810D01*
X209084333Y-75843190D02*
X209060143Y-75819000D01*
X209011762Y-75794810D01*
X208890809Y-75794810D01*
X208842428Y-75819000D01*
X208818238Y-75843190D01*
X208794047Y-75891571D01*
X208794047Y-75939952D01*
X208818238Y-76012524D01*
X209108524Y-76302810D01*
X208794047Y-76302810D01*
X213674477Y-75619429D02*
X213698667Y-75643619D01*
X213771239Y-75667810D01*
X213819620Y-75667810D01*
X213892191Y-75643619D01*
X213940572Y-75595238D01*
X213964763Y-75546857D01*
X213988953Y-75450095D01*
X213988953Y-75377524D01*
X213964763Y-75280762D01*
X213940572Y-75232381D01*
X213892191Y-75184000D01*
X213819620Y-75159810D01*
X213771239Y-75159810D01*
X213698667Y-75184000D01*
X213674477Y-75208190D01*
X213480953Y-75208190D02*
X213456763Y-75184000D01*
X213408382Y-75159810D01*
X213287429Y-75159810D01*
X213239048Y-75184000D01*
X213214858Y-75208190D01*
X213190667Y-75256571D01*
X213190667Y-75304952D01*
X213214858Y-75377524D01*
X213505144Y-75667810D01*
X213190667Y-75667810D01*
X212876191Y-75159810D02*
X212827810Y-75159810D01*
X212779429Y-75184000D01*
X212755238Y-75208190D01*
X212731048Y-75256571D01*
X212706857Y-75353333D01*
X212706857Y-75474286D01*
X212731048Y-75571048D01*
X212755238Y-75619429D01*
X212779429Y-75643619D01*
X212827810Y-75667810D01*
X212876191Y-75667810D01*
X212924572Y-75643619D01*
X212948762Y-75619429D01*
X212972953Y-75571048D01*
X212997143Y-75474286D01*
X212997143Y-75353333D01*
X212972953Y-75256571D01*
X212948762Y-75208190D01*
X212924572Y-75184000D01*
X212876191Y-75159810D01*
X212537524Y-75159810D02*
X212223047Y-75159810D01*
X212392381Y-75353333D01*
X212319809Y-75353333D01*
X212271428Y-75377524D01*
X212247238Y-75401714D01*
X212223047Y-75450095D01*
X212223047Y-75571048D01*
X212247238Y-75619429D01*
X212271428Y-75643619D01*
X212319809Y-75667810D01*
X212464952Y-75667810D01*
X212513333Y-75643619D01*
X212537524Y-75619429D01*
X183956477Y-72571429D02*
X183980667Y-72595619D01*
X184053239Y-72619810D01*
X184101620Y-72619810D01*
X184174191Y-72595619D01*
X184222572Y-72547238D01*
X184246763Y-72498857D01*
X184270953Y-72402095D01*
X184270953Y-72329524D01*
X184246763Y-72232762D01*
X184222572Y-72184381D01*
X184174191Y-72136000D01*
X184101620Y-72111810D01*
X184053239Y-72111810D01*
X183980667Y-72136000D01*
X183956477Y-72160190D01*
X183521048Y-72281143D02*
X183521048Y-72619810D01*
X183642001Y-72087619D02*
X183762953Y-72450476D01*
X183448477Y-72450476D01*
X183158191Y-72111810D02*
X183109810Y-72111810D01*
X183061429Y-72136000D01*
X183037238Y-72160190D01*
X183013048Y-72208571D01*
X182988857Y-72305333D01*
X182988857Y-72426286D01*
X183013048Y-72523048D01*
X183037238Y-72571429D01*
X183061429Y-72595619D01*
X183109810Y-72619810D01*
X183158191Y-72619810D01*
X183206572Y-72595619D01*
X183230762Y-72571429D01*
X183254953Y-72523048D01*
X183279143Y-72426286D01*
X183279143Y-72305333D01*
X183254953Y-72208571D01*
X183230762Y-72160190D01*
X183206572Y-72136000D01*
X183158191Y-72111810D01*
X182795333Y-72160190D02*
X182771143Y-72136000D01*
X182722762Y-72111810D01*
X182601809Y-72111810D01*
X182553428Y-72136000D01*
X182529238Y-72160190D01*
X182505047Y-72208571D01*
X182505047Y-72256952D01*
X182529238Y-72329524D01*
X182819524Y-72619810D01*
X182505047Y-72619810D01*
X184337477Y-81080429D02*
X184361667Y-81104619D01*
X184434239Y-81128810D01*
X184482620Y-81128810D01*
X184555191Y-81104619D01*
X184603572Y-81056238D01*
X184627763Y-81007857D01*
X184651953Y-80911095D01*
X184651953Y-80838524D01*
X184627763Y-80741762D01*
X184603572Y-80693381D01*
X184555191Y-80645000D01*
X184482620Y-80620810D01*
X184434239Y-80620810D01*
X184361667Y-80645000D01*
X184337477Y-80669190D01*
X183902048Y-80790143D02*
X183902048Y-81128810D01*
X184023001Y-80596619D02*
X184143953Y-80959476D01*
X183829477Y-80959476D01*
X183539191Y-80620810D02*
X183490810Y-80620810D01*
X183442429Y-80645000D01*
X183418238Y-80669190D01*
X183394048Y-80717571D01*
X183369857Y-80814333D01*
X183369857Y-80935286D01*
X183394048Y-81032048D01*
X183418238Y-81080429D01*
X183442429Y-81104619D01*
X183490810Y-81128810D01*
X183539191Y-81128810D01*
X183587572Y-81104619D01*
X183611762Y-81080429D01*
X183635953Y-81032048D01*
X183660143Y-80935286D01*
X183660143Y-80814333D01*
X183635953Y-80717571D01*
X183611762Y-80669190D01*
X183587572Y-80645000D01*
X183539191Y-80620810D01*
X183200524Y-80620810D02*
X182886047Y-80620810D01*
X183055381Y-80814333D01*
X182982809Y-80814333D01*
X182934428Y-80838524D01*
X182910238Y-80862714D01*
X182886047Y-80911095D01*
X182886047Y-81032048D01*
X182910238Y-81080429D01*
X182934428Y-81104619D01*
X182982809Y-81128810D01*
X183127952Y-81128810D01*
X183176333Y-81104619D01*
X183200524Y-81080429D01*
X191026143Y-76417714D02*
X191195477Y-76417714D01*
X191195477Y-76683810D02*
X191195477Y-76175810D01*
X190953572Y-76175810D01*
X190590714Y-76417714D02*
X190518143Y-76441905D01*
X190493952Y-76466095D01*
X190469762Y-76514476D01*
X190469762Y-76587048D01*
X190493952Y-76635429D01*
X190518143Y-76659619D01*
X190566524Y-76683810D01*
X190760048Y-76683810D01*
X190760048Y-76175810D01*
X190590714Y-76175810D01*
X190542333Y-76200000D01*
X190518143Y-76224190D01*
X190493952Y-76272571D01*
X190493952Y-76320952D01*
X190518143Y-76369333D01*
X190542333Y-76393524D01*
X190590714Y-76417714D01*
X190760048Y-76417714D01*
X190034333Y-76345143D02*
X190034333Y-76683810D01*
X190155286Y-76151619D02*
X190276238Y-76514476D01*
X189961762Y-76514476D01*
X189671476Y-76175810D02*
X189623095Y-76175810D01*
X189574714Y-76200000D01*
X189550523Y-76224190D01*
X189526333Y-76272571D01*
X189502142Y-76369333D01*
X189502142Y-76490286D01*
X189526333Y-76587048D01*
X189550523Y-76635429D01*
X189574714Y-76659619D01*
X189623095Y-76683810D01*
X189671476Y-76683810D01*
X189719857Y-76659619D01*
X189744047Y-76635429D01*
X189768238Y-76587048D01*
X189792428Y-76490286D01*
X189792428Y-76369333D01*
X189768238Y-76272571D01*
X189744047Y-76224190D01*
X189719857Y-76200000D01*
X189671476Y-76175810D01*
X189018332Y-76683810D02*
X189308618Y-76683810D01*
X189163475Y-76683810D02*
X189163475Y-76175810D01*
X189211856Y-76248381D01*
X189260237Y-76296762D01*
X189308618Y-76320952D01*
X206816477Y-80620810D02*
X206985810Y-80378905D01*
X207106763Y-80620810D02*
X207106763Y-80112810D01*
X206913239Y-80112810D01*
X206864858Y-80137000D01*
X206840667Y-80161190D01*
X206816477Y-80209571D01*
X206816477Y-80282143D01*
X206840667Y-80330524D01*
X206864858Y-80354714D01*
X206913239Y-80378905D01*
X207106763Y-80378905D01*
X206622953Y-80161190D02*
X206598763Y-80137000D01*
X206550382Y-80112810D01*
X206429429Y-80112810D01*
X206381048Y-80137000D01*
X206356858Y-80161190D01*
X206332667Y-80209571D01*
X206332667Y-80257952D01*
X206356858Y-80330524D01*
X206647144Y-80620810D01*
X206332667Y-80620810D01*
X206018191Y-80112810D02*
X205969810Y-80112810D01*
X205921429Y-80137000D01*
X205897238Y-80161190D01*
X205873048Y-80209571D01*
X205848857Y-80306333D01*
X205848857Y-80427286D01*
X205873048Y-80524048D01*
X205897238Y-80572429D01*
X205921429Y-80596619D01*
X205969810Y-80620810D01*
X206018191Y-80620810D01*
X206066572Y-80596619D01*
X206090762Y-80572429D01*
X206114953Y-80524048D01*
X206139143Y-80427286D01*
X206139143Y-80306333D01*
X206114953Y-80209571D01*
X206090762Y-80161190D01*
X206066572Y-80137000D01*
X206018191Y-80112810D01*
X205679524Y-80112810D02*
X205365047Y-80112810D01*
X205534381Y-80306333D01*
X205461809Y-80306333D01*
X205413428Y-80330524D01*
X205389238Y-80354714D01*
X205365047Y-80403095D01*
X205365047Y-80524048D01*
X205389238Y-80572429D01*
X205413428Y-80596619D01*
X205461809Y-80620810D01*
X205606952Y-80620810D01*
X205655333Y-80596619D01*
X205679524Y-80572429D01*
X204657477Y-77953810D02*
X204826810Y-77711905D01*
X204947763Y-77953810D02*
X204947763Y-77445810D01*
X204754239Y-77445810D01*
X204705858Y-77470000D01*
X204681667Y-77494190D01*
X204657477Y-77542571D01*
X204657477Y-77615143D01*
X204681667Y-77663524D01*
X204705858Y-77687714D01*
X204754239Y-77711905D01*
X204947763Y-77711905D01*
X204463953Y-77494190D02*
X204439763Y-77470000D01*
X204391382Y-77445810D01*
X204270429Y-77445810D01*
X204222048Y-77470000D01*
X204197858Y-77494190D01*
X204173667Y-77542571D01*
X204173667Y-77590952D01*
X204197858Y-77663524D01*
X204488144Y-77953810D01*
X204173667Y-77953810D01*
X203859191Y-77445810D02*
X203810810Y-77445810D01*
X203762429Y-77470000D01*
X203738238Y-77494190D01*
X203714048Y-77542571D01*
X203689857Y-77639333D01*
X203689857Y-77760286D01*
X203714048Y-77857048D01*
X203738238Y-77905429D01*
X203762429Y-77929619D01*
X203810810Y-77953810D01*
X203859191Y-77953810D01*
X203907572Y-77929619D01*
X203931762Y-77905429D01*
X203955953Y-77857048D01*
X203980143Y-77760286D01*
X203980143Y-77639333D01*
X203955953Y-77542571D01*
X203931762Y-77494190D01*
X203907572Y-77470000D01*
X203859191Y-77445810D01*
X203254428Y-77615143D02*
X203254428Y-77953810D01*
X203375381Y-77421619D02*
X203496333Y-77784476D01*
X203181857Y-77784476D01*
X206816477Y-77953810D02*
X206985810Y-77711905D01*
X207106763Y-77953810D02*
X207106763Y-77445810D01*
X206913239Y-77445810D01*
X206864858Y-77470000D01*
X206840667Y-77494190D01*
X206816477Y-77542571D01*
X206816477Y-77615143D01*
X206840667Y-77663524D01*
X206864858Y-77687714D01*
X206913239Y-77711905D01*
X207106763Y-77711905D01*
X206622953Y-77494190D02*
X206598763Y-77470000D01*
X206550382Y-77445810D01*
X206429429Y-77445810D01*
X206381048Y-77470000D01*
X206356858Y-77494190D01*
X206332667Y-77542571D01*
X206332667Y-77590952D01*
X206356858Y-77663524D01*
X206647144Y-77953810D01*
X206332667Y-77953810D01*
X206018191Y-77445810D02*
X205969810Y-77445810D01*
X205921429Y-77470000D01*
X205897238Y-77494190D01*
X205873048Y-77542571D01*
X205848857Y-77639333D01*
X205848857Y-77760286D01*
X205873048Y-77857048D01*
X205897238Y-77905429D01*
X205921429Y-77929619D01*
X205969810Y-77953810D01*
X206018191Y-77953810D01*
X206066572Y-77929619D01*
X206090762Y-77905429D01*
X206114953Y-77857048D01*
X206139143Y-77760286D01*
X206139143Y-77639333D01*
X206114953Y-77542571D01*
X206090762Y-77494190D01*
X206066572Y-77470000D01*
X206018191Y-77445810D01*
X205389238Y-77445810D02*
X205631143Y-77445810D01*
X205655333Y-77687714D01*
X205631143Y-77663524D01*
X205582762Y-77639333D01*
X205461809Y-77639333D01*
X205413428Y-77663524D01*
X205389238Y-77687714D01*
X205365047Y-77736095D01*
X205365047Y-77857048D01*
X205389238Y-77905429D01*
X205413428Y-77929619D01*
X205461809Y-77953810D01*
X205582762Y-77953810D01*
X205631143Y-77929619D01*
X205655333Y-77905429D01*
X201482477Y-77699810D02*
X201651810Y-77457905D01*
X201772763Y-77699810D02*
X201772763Y-77191810D01*
X201579239Y-77191810D01*
X201530858Y-77216000D01*
X201506667Y-77240190D01*
X201482477Y-77288571D01*
X201482477Y-77361143D01*
X201506667Y-77409524D01*
X201530858Y-77433714D01*
X201579239Y-77457905D01*
X201772763Y-77457905D01*
X201313144Y-77191810D02*
X200998667Y-77191810D01*
X201168001Y-77385333D01*
X201095429Y-77385333D01*
X201047048Y-77409524D01*
X201022858Y-77433714D01*
X200998667Y-77482095D01*
X200998667Y-77603048D01*
X201022858Y-77651429D01*
X201047048Y-77675619D01*
X201095429Y-77699810D01*
X201240572Y-77699810D01*
X201288953Y-77675619D01*
X201313144Y-77651429D01*
X200514857Y-77699810D02*
X200805143Y-77699810D01*
X200660000Y-77699810D02*
X200660000Y-77191810D01*
X200708381Y-77264381D01*
X200756762Y-77312762D01*
X200805143Y-77336952D01*
X200055238Y-77191810D02*
X200297143Y-77191810D01*
X200321333Y-77433714D01*
X200297143Y-77409524D01*
X200248762Y-77385333D01*
X200127809Y-77385333D01*
X200079428Y-77409524D01*
X200055238Y-77433714D01*
X200031047Y-77482095D01*
X200031047Y-77603048D01*
X200055238Y-77651429D01*
X200079428Y-77675619D01*
X200127809Y-77699810D01*
X200248762Y-77699810D01*
X200297143Y-77675619D01*
X200321333Y-77651429D01*
X198434477Y-77699810D02*
X198603810Y-77457905D01*
X198724763Y-77699810D02*
X198724763Y-77191810D01*
X198531239Y-77191810D01*
X198482858Y-77216000D01*
X198458667Y-77240190D01*
X198434477Y-77288571D01*
X198434477Y-77361143D01*
X198458667Y-77409524D01*
X198482858Y-77433714D01*
X198531239Y-77457905D01*
X198724763Y-77457905D01*
X198265144Y-77191810D02*
X197950667Y-77191810D01*
X198120001Y-77385333D01*
X198047429Y-77385333D01*
X197999048Y-77409524D01*
X197974858Y-77433714D01*
X197950667Y-77482095D01*
X197950667Y-77603048D01*
X197974858Y-77651429D01*
X197999048Y-77675619D01*
X198047429Y-77699810D01*
X198192572Y-77699810D01*
X198240953Y-77675619D01*
X198265144Y-77651429D01*
X197757143Y-77240190D02*
X197732953Y-77216000D01*
X197684572Y-77191810D01*
X197563619Y-77191810D01*
X197515238Y-77216000D01*
X197491048Y-77240190D01*
X197466857Y-77288571D01*
X197466857Y-77336952D01*
X197491048Y-77409524D01*
X197781334Y-77699810D01*
X197466857Y-77699810D01*
X196983047Y-77699810D02*
X197273333Y-77699810D01*
X197128190Y-77699810D02*
X197128190Y-77191810D01*
X197176571Y-77264381D01*
X197224952Y-77312762D01*
X197273333Y-77336952D01*
X187385477Y-81128810D02*
X187554810Y-80886905D01*
X187675763Y-81128810D02*
X187675763Y-80620810D01*
X187482239Y-80620810D01*
X187433858Y-80645000D01*
X187409667Y-80669190D01*
X187385477Y-80717571D01*
X187385477Y-80790143D01*
X187409667Y-80838524D01*
X187433858Y-80862714D01*
X187482239Y-80886905D01*
X187675763Y-80886905D01*
X186950048Y-80790143D02*
X186950048Y-81128810D01*
X187071001Y-80596619D02*
X187191953Y-80959476D01*
X186877477Y-80959476D01*
X186587191Y-80620810D02*
X186538810Y-80620810D01*
X186490429Y-80645000D01*
X186466238Y-80669190D01*
X186442048Y-80717571D01*
X186417857Y-80814333D01*
X186417857Y-80935286D01*
X186442048Y-81032048D01*
X186466238Y-81080429D01*
X186490429Y-81104619D01*
X186538810Y-81128810D01*
X186587191Y-81128810D01*
X186635572Y-81104619D01*
X186659762Y-81080429D01*
X186683953Y-81032048D01*
X186708143Y-80935286D01*
X186708143Y-80814333D01*
X186683953Y-80717571D01*
X186659762Y-80669190D01*
X186635572Y-80645000D01*
X186587191Y-80620810D01*
X185934047Y-81128810D02*
X186224333Y-81128810D01*
X186079190Y-81128810D02*
X186079190Y-80620810D01*
X186127571Y-80693381D01*
X186175952Y-80741762D01*
X186224333Y-80765952D01*
X216849477Y-93907429D02*
X216873667Y-93931619D01*
X216946239Y-93955810D01*
X216994620Y-93955810D01*
X217067191Y-93931619D01*
X217115572Y-93883238D01*
X217139763Y-93834857D01*
X217163953Y-93738095D01*
X217163953Y-93665524D01*
X217139763Y-93568762D01*
X217115572Y-93520381D01*
X217067191Y-93472000D01*
X216994620Y-93447810D01*
X216946239Y-93447810D01*
X216873667Y-93472000D01*
X216849477Y-93496190D01*
X216655953Y-93496190D02*
X216631763Y-93472000D01*
X216583382Y-93447810D01*
X216462429Y-93447810D01*
X216414048Y-93472000D01*
X216389858Y-93496190D01*
X216365667Y-93544571D01*
X216365667Y-93592952D01*
X216389858Y-93665524D01*
X216680144Y-93955810D01*
X216365667Y-93955810D01*
X216051191Y-93447810D02*
X216002810Y-93447810D01*
X215954429Y-93472000D01*
X215930238Y-93496190D01*
X215906048Y-93544571D01*
X215881857Y-93641333D01*
X215881857Y-93762286D01*
X215906048Y-93859048D01*
X215930238Y-93907429D01*
X215954429Y-93931619D01*
X216002810Y-93955810D01*
X216051191Y-93955810D01*
X216099572Y-93931619D01*
X216123762Y-93907429D01*
X216147953Y-93859048D01*
X216172143Y-93762286D01*
X216172143Y-93641333D01*
X216147953Y-93544571D01*
X216123762Y-93496190D01*
X216099572Y-93472000D01*
X216051191Y-93447810D01*
X215422238Y-93447810D02*
X215664143Y-93447810D01*
X215688333Y-93689714D01*
X215664143Y-93665524D01*
X215615762Y-93641333D01*
X215494809Y-93641333D01*
X215446428Y-93665524D01*
X215422238Y-93689714D01*
X215398047Y-93738095D01*
X215398047Y-93859048D01*
X215422238Y-93907429D01*
X215446428Y-93931619D01*
X215494809Y-93955810D01*
X215615762Y-93955810D01*
X215664143Y-93931619D01*
X215688333Y-93907429D01*
X217357477Y-90224429D02*
X217381667Y-90248619D01*
X217454239Y-90272810D01*
X217502620Y-90272810D01*
X217575191Y-90248619D01*
X217623572Y-90200238D01*
X217647763Y-90151857D01*
X217671953Y-90055095D01*
X217671953Y-89982524D01*
X217647763Y-89885762D01*
X217623572Y-89837381D01*
X217575191Y-89789000D01*
X217502620Y-89764810D01*
X217454239Y-89764810D01*
X217381667Y-89789000D01*
X217357477Y-89813190D01*
X217163953Y-89813190D02*
X217139763Y-89789000D01*
X217091382Y-89764810D01*
X216970429Y-89764810D01*
X216922048Y-89789000D01*
X216897858Y-89813190D01*
X216873667Y-89861571D01*
X216873667Y-89909952D01*
X216897858Y-89982524D01*
X217188144Y-90272810D01*
X216873667Y-90272810D01*
X216559191Y-89764810D02*
X216510810Y-89764810D01*
X216462429Y-89789000D01*
X216438238Y-89813190D01*
X216414048Y-89861571D01*
X216389857Y-89958333D01*
X216389857Y-90079286D01*
X216414048Y-90176048D01*
X216438238Y-90224429D01*
X216462429Y-90248619D01*
X216510810Y-90272810D01*
X216559191Y-90272810D01*
X216607572Y-90248619D01*
X216631762Y-90224429D01*
X216655953Y-90176048D01*
X216680143Y-90079286D01*
X216680143Y-89958333D01*
X216655953Y-89861571D01*
X216631762Y-89813190D01*
X216607572Y-89789000D01*
X216559191Y-89764810D01*
X215954428Y-89764810D02*
X216051190Y-89764810D01*
X216099571Y-89789000D01*
X216123762Y-89813190D01*
X216172143Y-89885762D01*
X216196333Y-89982524D01*
X216196333Y-90176048D01*
X216172143Y-90224429D01*
X216147952Y-90248619D01*
X216099571Y-90272810D01*
X216002809Y-90272810D01*
X215954428Y-90248619D01*
X215930238Y-90224429D01*
X215906047Y-90176048D01*
X215906047Y-90055095D01*
X215930238Y-90006714D01*
X215954428Y-89982524D01*
X216002809Y-89958333D01*
X216099571Y-89958333D01*
X216147952Y-89982524D01*
X216172143Y-90006714D01*
X216196333Y-90055095D01*
X211388477Y-87811429D02*
X211412667Y-87835619D01*
X211485239Y-87859810D01*
X211533620Y-87859810D01*
X211606191Y-87835619D01*
X211654572Y-87787238D01*
X211678763Y-87738857D01*
X211702953Y-87642095D01*
X211702953Y-87569524D01*
X211678763Y-87472762D01*
X211654572Y-87424381D01*
X211606191Y-87376000D01*
X211533620Y-87351810D01*
X211485239Y-87351810D01*
X211412667Y-87376000D01*
X211388477Y-87400190D01*
X211194953Y-87400190D02*
X211170763Y-87376000D01*
X211122382Y-87351810D01*
X211001429Y-87351810D01*
X210953048Y-87376000D01*
X210928858Y-87400190D01*
X210904667Y-87448571D01*
X210904667Y-87496952D01*
X210928858Y-87569524D01*
X211219144Y-87859810D01*
X210904667Y-87859810D01*
X210590191Y-87351810D02*
X210541810Y-87351810D01*
X210493429Y-87376000D01*
X210469238Y-87400190D01*
X210445048Y-87448571D01*
X210420857Y-87545333D01*
X210420857Y-87666286D01*
X210445048Y-87763048D01*
X210469238Y-87811429D01*
X210493429Y-87835619D01*
X210541810Y-87859810D01*
X210590191Y-87859810D01*
X210638572Y-87835619D01*
X210662762Y-87811429D01*
X210686953Y-87763048D01*
X210711143Y-87666286D01*
X210711143Y-87545333D01*
X210686953Y-87448571D01*
X210662762Y-87400190D01*
X210638572Y-87376000D01*
X210590191Y-87351810D01*
X210251524Y-87351810D02*
X209912857Y-87351810D01*
X210130571Y-87859810D01*
X211769477Y-92256429D02*
X211793667Y-92280619D01*
X211866239Y-92304810D01*
X211914620Y-92304810D01*
X211987191Y-92280619D01*
X212035572Y-92232238D01*
X212059763Y-92183857D01*
X212083953Y-92087095D01*
X212083953Y-92014524D01*
X212059763Y-91917762D01*
X212035572Y-91869381D01*
X211987191Y-91821000D01*
X211914620Y-91796810D01*
X211866239Y-91796810D01*
X211793667Y-91821000D01*
X211769477Y-91845190D01*
X211575953Y-91845190D02*
X211551763Y-91821000D01*
X211503382Y-91796810D01*
X211382429Y-91796810D01*
X211334048Y-91821000D01*
X211309858Y-91845190D01*
X211285667Y-91893571D01*
X211285667Y-91941952D01*
X211309858Y-92014524D01*
X211600144Y-92304810D01*
X211285667Y-92304810D01*
X210971191Y-91796810D02*
X210922810Y-91796810D01*
X210874429Y-91821000D01*
X210850238Y-91845190D01*
X210826048Y-91893571D01*
X210801857Y-91990333D01*
X210801857Y-92111286D01*
X210826048Y-92208048D01*
X210850238Y-92256429D01*
X210874429Y-92280619D01*
X210922810Y-92304810D01*
X210971191Y-92304810D01*
X211019572Y-92280619D01*
X211043762Y-92256429D01*
X211067953Y-92208048D01*
X211092143Y-92111286D01*
X211092143Y-91990333D01*
X211067953Y-91893571D01*
X211043762Y-91845190D01*
X211019572Y-91821000D01*
X210971191Y-91796810D01*
X210511571Y-92014524D02*
X210559952Y-91990333D01*
X210584143Y-91966143D01*
X210608333Y-91917762D01*
X210608333Y-91893571D01*
X210584143Y-91845190D01*
X210559952Y-91821000D01*
X210511571Y-91796810D01*
X210414809Y-91796810D01*
X210366428Y-91821000D01*
X210342238Y-91845190D01*
X210318047Y-91893571D01*
X210318047Y-91917762D01*
X210342238Y-91966143D01*
X210366428Y-91990333D01*
X210414809Y-92014524D01*
X210511571Y-92014524D01*
X210559952Y-92038714D01*
X210584143Y-92062905D01*
X210608333Y-92111286D01*
X210608333Y-92208048D01*
X210584143Y-92256429D01*
X210559952Y-92280619D01*
X210511571Y-92304810D01*
X210414809Y-92304810D01*
X210366428Y-92280619D01*
X210342238Y-92256429D01*
X210318047Y-92208048D01*
X210318047Y-92111286D01*
X210342238Y-92062905D01*
X210366428Y-92038714D01*
X210414809Y-92014524D01*
X214055477Y-85271429D02*
X214079667Y-85295619D01*
X214152239Y-85319810D01*
X214200620Y-85319810D01*
X214273191Y-85295619D01*
X214321572Y-85247238D01*
X214345763Y-85198857D01*
X214369953Y-85102095D01*
X214369953Y-85029524D01*
X214345763Y-84932762D01*
X214321572Y-84884381D01*
X214273191Y-84836000D01*
X214200620Y-84811810D01*
X214152239Y-84811810D01*
X214079667Y-84836000D01*
X214055477Y-84860190D01*
X213861953Y-84860190D02*
X213837763Y-84836000D01*
X213789382Y-84811810D01*
X213668429Y-84811810D01*
X213620048Y-84836000D01*
X213595858Y-84860190D01*
X213571667Y-84908571D01*
X213571667Y-84956952D01*
X213595858Y-85029524D01*
X213886144Y-85319810D01*
X213571667Y-85319810D01*
X213257191Y-84811810D02*
X213208810Y-84811810D01*
X213160429Y-84836000D01*
X213136238Y-84860190D01*
X213112048Y-84908571D01*
X213087857Y-85005333D01*
X213087857Y-85126286D01*
X213112048Y-85223048D01*
X213136238Y-85271429D01*
X213160429Y-85295619D01*
X213208810Y-85319810D01*
X213257191Y-85319810D01*
X213305572Y-85295619D01*
X213329762Y-85271429D01*
X213353953Y-85223048D01*
X213378143Y-85126286D01*
X213378143Y-85005333D01*
X213353953Y-84908571D01*
X213329762Y-84860190D01*
X213305572Y-84836000D01*
X213257191Y-84811810D01*
X212845952Y-85319810D02*
X212749190Y-85319810D01*
X212700809Y-85295619D01*
X212676619Y-85271429D01*
X212628238Y-85198857D01*
X212604047Y-85102095D01*
X212604047Y-84908571D01*
X212628238Y-84860190D01*
X212652428Y-84836000D01*
X212700809Y-84811810D01*
X212797571Y-84811810D01*
X212845952Y-84836000D01*
X212870143Y-84860190D01*
X212894333Y-84908571D01*
X212894333Y-85029524D01*
X212870143Y-85077905D01*
X212845952Y-85102095D01*
X212797571Y-85126286D01*
X212700809Y-85126286D01*
X212652428Y-85102095D01*
X212628238Y-85077905D01*
X212604047Y-85029524D01*
X211896477Y-87049429D02*
X211920667Y-87073619D01*
X211993239Y-87097810D01*
X212041620Y-87097810D01*
X212114191Y-87073619D01*
X212162572Y-87025238D01*
X212186763Y-86976857D01*
X212210953Y-86880095D01*
X212210953Y-86807524D01*
X212186763Y-86710762D01*
X212162572Y-86662381D01*
X212114191Y-86614000D01*
X212041620Y-86589810D01*
X211993239Y-86589810D01*
X211920667Y-86614000D01*
X211896477Y-86638190D01*
X211702953Y-86638190D02*
X211678763Y-86614000D01*
X211630382Y-86589810D01*
X211509429Y-86589810D01*
X211461048Y-86614000D01*
X211436858Y-86638190D01*
X211412667Y-86686571D01*
X211412667Y-86734952D01*
X211436858Y-86807524D01*
X211727144Y-87097810D01*
X211412667Y-87097810D01*
X210928857Y-87097810D02*
X211219143Y-87097810D01*
X211074000Y-87097810D02*
X211074000Y-86589810D01*
X211122381Y-86662381D01*
X211170762Y-86710762D01*
X211219143Y-86734952D01*
X210614381Y-86589810D02*
X210566000Y-86589810D01*
X210517619Y-86614000D01*
X210493428Y-86638190D01*
X210469238Y-86686571D01*
X210445047Y-86783333D01*
X210445047Y-86904286D01*
X210469238Y-87001048D01*
X210493428Y-87049429D01*
X210517619Y-87073619D01*
X210566000Y-87097810D01*
X210614381Y-87097810D01*
X210662762Y-87073619D01*
X210686952Y-87049429D01*
X210711143Y-87001048D01*
X210735333Y-86904286D01*
X210735333Y-86783333D01*
X210711143Y-86686571D01*
X210686952Y-86638190D01*
X210662762Y-86614000D01*
X210614381Y-86589810D01*
X216214477Y-79175429D02*
X216238667Y-79199619D01*
X216311239Y-79223810D01*
X216359620Y-79223810D01*
X216432191Y-79199619D01*
X216480572Y-79151238D01*
X216504763Y-79102857D01*
X216528953Y-79006095D01*
X216528953Y-78933524D01*
X216504763Y-78836762D01*
X216480572Y-78788381D01*
X216432191Y-78740000D01*
X216359620Y-78715810D01*
X216311239Y-78715810D01*
X216238667Y-78740000D01*
X216214477Y-78764190D01*
X215779048Y-78885143D02*
X215779048Y-79223810D01*
X215900001Y-78691619D02*
X216020953Y-79054476D01*
X215706477Y-79054476D01*
X215416191Y-78715810D02*
X215367810Y-78715810D01*
X215319429Y-78740000D01*
X215295238Y-78764190D01*
X215271048Y-78812571D01*
X215246857Y-78909333D01*
X215246857Y-79030286D01*
X215271048Y-79127048D01*
X215295238Y-79175429D01*
X215319429Y-79199619D01*
X215367810Y-79223810D01*
X215416191Y-79223810D01*
X215464572Y-79199619D01*
X215488762Y-79175429D01*
X215512953Y-79127048D01*
X215537143Y-79030286D01*
X215537143Y-78909333D01*
X215512953Y-78812571D01*
X215488762Y-78764190D01*
X215464572Y-78740000D01*
X215416191Y-78715810D01*
X214811428Y-78885143D02*
X214811428Y-79223810D01*
X214932381Y-78691619D02*
X215053333Y-79054476D01*
X214738857Y-79054476D01*
X214182477Y-84303810D02*
X214351810Y-84061905D01*
X214472763Y-84303810D02*
X214472763Y-83795810D01*
X214279239Y-83795810D01*
X214230858Y-83820000D01*
X214206667Y-83844190D01*
X214182477Y-83892571D01*
X214182477Y-83965143D01*
X214206667Y-84013524D01*
X214230858Y-84037714D01*
X214279239Y-84061905D01*
X214472763Y-84061905D01*
X213988953Y-83844190D02*
X213964763Y-83820000D01*
X213916382Y-83795810D01*
X213795429Y-83795810D01*
X213747048Y-83820000D01*
X213722858Y-83844190D01*
X213698667Y-83892571D01*
X213698667Y-83940952D01*
X213722858Y-84013524D01*
X214013144Y-84303810D01*
X213698667Y-84303810D01*
X213384191Y-83795810D02*
X213335810Y-83795810D01*
X213287429Y-83820000D01*
X213263238Y-83844190D01*
X213239048Y-83892571D01*
X213214857Y-83989333D01*
X213214857Y-84110286D01*
X213239048Y-84207048D01*
X213263238Y-84255429D01*
X213287429Y-84279619D01*
X213335810Y-84303810D01*
X213384191Y-84303810D01*
X213432572Y-84279619D01*
X213456762Y-84255429D01*
X213480953Y-84207048D01*
X213505143Y-84110286D01*
X213505143Y-83989333D01*
X213480953Y-83892571D01*
X213456762Y-83844190D01*
X213432572Y-83820000D01*
X213384191Y-83795810D01*
X212779428Y-83795810D02*
X212876190Y-83795810D01*
X212924571Y-83820000D01*
X212948762Y-83844190D01*
X212997143Y-83916762D01*
X213021333Y-84013524D01*
X213021333Y-84207048D01*
X212997143Y-84255429D01*
X212972952Y-84279619D01*
X212924571Y-84303810D01*
X212827809Y-84303810D01*
X212779428Y-84279619D01*
X212755238Y-84255429D01*
X212731047Y-84207048D01*
X212731047Y-84086095D01*
X212755238Y-84037714D01*
X212779428Y-84013524D01*
X212827809Y-83989333D01*
X212924571Y-83989333D01*
X212972952Y-84013524D01*
X212997143Y-84037714D01*
X213021333Y-84086095D01*
X209737477Y-89637810D02*
X209906810Y-89395905D01*
X210027763Y-89637810D02*
X210027763Y-89129810D01*
X209834239Y-89129810D01*
X209785858Y-89154000D01*
X209761667Y-89178190D01*
X209737477Y-89226571D01*
X209737477Y-89299143D01*
X209761667Y-89347524D01*
X209785858Y-89371714D01*
X209834239Y-89395905D01*
X210027763Y-89395905D01*
X209543953Y-89178190D02*
X209519763Y-89154000D01*
X209471382Y-89129810D01*
X209350429Y-89129810D01*
X209302048Y-89154000D01*
X209277858Y-89178190D01*
X209253667Y-89226571D01*
X209253667Y-89274952D01*
X209277858Y-89347524D01*
X209568144Y-89637810D01*
X209253667Y-89637810D01*
X208939191Y-89129810D02*
X208890810Y-89129810D01*
X208842429Y-89154000D01*
X208818238Y-89178190D01*
X208794048Y-89226571D01*
X208769857Y-89323333D01*
X208769857Y-89444286D01*
X208794048Y-89541048D01*
X208818238Y-89589429D01*
X208842429Y-89613619D01*
X208890810Y-89637810D01*
X208939191Y-89637810D01*
X208987572Y-89613619D01*
X209011762Y-89589429D01*
X209035953Y-89541048D01*
X209060143Y-89444286D01*
X209060143Y-89323333D01*
X209035953Y-89226571D01*
X209011762Y-89178190D01*
X208987572Y-89154000D01*
X208939191Y-89129810D01*
X208600524Y-89129810D02*
X208261857Y-89129810D01*
X208479571Y-89637810D01*
X209737477Y-91161810D02*
X209906810Y-90919905D01*
X210027763Y-91161810D02*
X210027763Y-90653810D01*
X209834239Y-90653810D01*
X209785858Y-90678000D01*
X209761667Y-90702190D01*
X209737477Y-90750571D01*
X209737477Y-90823143D01*
X209761667Y-90871524D01*
X209785858Y-90895714D01*
X209834239Y-90919905D01*
X210027763Y-90919905D01*
X209543953Y-90702190D02*
X209519763Y-90678000D01*
X209471382Y-90653810D01*
X209350429Y-90653810D01*
X209302048Y-90678000D01*
X209277858Y-90702190D01*
X209253667Y-90750571D01*
X209253667Y-90798952D01*
X209277858Y-90871524D01*
X209568144Y-91161810D01*
X209253667Y-91161810D01*
X208939191Y-90653810D02*
X208890810Y-90653810D01*
X208842429Y-90678000D01*
X208818238Y-90702190D01*
X208794048Y-90750571D01*
X208769857Y-90847333D01*
X208769857Y-90968286D01*
X208794048Y-91065048D01*
X208818238Y-91113429D01*
X208842429Y-91137619D01*
X208890810Y-91161810D01*
X208939191Y-91161810D01*
X208987572Y-91137619D01*
X209011762Y-91113429D01*
X209035953Y-91065048D01*
X209060143Y-90968286D01*
X209060143Y-90847333D01*
X209035953Y-90750571D01*
X209011762Y-90702190D01*
X208987572Y-90678000D01*
X208939191Y-90653810D01*
X208527952Y-91161810D02*
X208431190Y-91161810D01*
X208382809Y-91137619D01*
X208358619Y-91113429D01*
X208310238Y-91040857D01*
X208286047Y-90944095D01*
X208286047Y-90750571D01*
X208310238Y-90702190D01*
X208334428Y-90678000D01*
X208382809Y-90653810D01*
X208479571Y-90653810D01*
X208527952Y-90678000D01*
X208552143Y-90702190D01*
X208576333Y-90750571D01*
X208576333Y-90871524D01*
X208552143Y-90919905D01*
X208527952Y-90944095D01*
X208479571Y-90968286D01*
X208382809Y-90968286D01*
X208334428Y-90944095D01*
X208310238Y-90919905D01*
X208286047Y-90871524D01*
X216262858Y-92685810D02*
X216262858Y-93097048D01*
X216238667Y-93145429D01*
X216214477Y-93169619D01*
X216166096Y-93193810D01*
X216069334Y-93193810D01*
X216020953Y-93169619D01*
X215996762Y-93145429D01*
X215972572Y-93097048D01*
X215972572Y-92685810D01*
X215754858Y-92734190D02*
X215730668Y-92710000D01*
X215682287Y-92685810D01*
X215561334Y-92685810D01*
X215512953Y-92710000D01*
X215488763Y-92734190D01*
X215464572Y-92782571D01*
X215464572Y-92830952D01*
X215488763Y-92903524D01*
X215779049Y-93193810D01*
X215464572Y-93193810D01*
X215150096Y-92685810D02*
X215101715Y-92685810D01*
X215053334Y-92710000D01*
X215029143Y-92734190D01*
X215004953Y-92782571D01*
X214980762Y-92879333D01*
X214980762Y-93000286D01*
X215004953Y-93097048D01*
X215029143Y-93145429D01*
X215053334Y-93169619D01*
X215101715Y-93193810D01*
X215150096Y-93193810D01*
X215198477Y-93169619D01*
X215222667Y-93145429D01*
X215246858Y-93097048D01*
X215271048Y-93000286D01*
X215271048Y-92879333D01*
X215246858Y-92782571D01*
X215222667Y-92734190D01*
X215198477Y-92710000D01*
X215150096Y-92685810D01*
X214545333Y-92855143D02*
X214545333Y-93193810D01*
X214666286Y-92661619D02*
X214787238Y-93024476D01*
X214472762Y-93024476D01*
X213214858Y-85827810D02*
X213214858Y-86239048D01*
X213190667Y-86287429D01*
X213166477Y-86311619D01*
X213118096Y-86335810D01*
X213021334Y-86335810D01*
X212972953Y-86311619D01*
X212948762Y-86287429D01*
X212924572Y-86239048D01*
X212924572Y-85827810D01*
X212706858Y-85876190D02*
X212682668Y-85852000D01*
X212634287Y-85827810D01*
X212513334Y-85827810D01*
X212464953Y-85852000D01*
X212440763Y-85876190D01*
X212416572Y-85924571D01*
X212416572Y-85972952D01*
X212440763Y-86045524D01*
X212731049Y-86335810D01*
X212416572Y-86335810D01*
X212102096Y-85827810D02*
X212053715Y-85827810D01*
X212005334Y-85852000D01*
X211981143Y-85876190D01*
X211956953Y-85924571D01*
X211932762Y-86021333D01*
X211932762Y-86142286D01*
X211956953Y-86239048D01*
X211981143Y-86287429D01*
X212005334Y-86311619D01*
X212053715Y-86335810D01*
X212102096Y-86335810D01*
X212150477Y-86311619D01*
X212174667Y-86287429D01*
X212198858Y-86239048D01*
X212223048Y-86142286D01*
X212223048Y-86021333D01*
X212198858Y-85924571D01*
X212174667Y-85876190D01*
X212150477Y-85852000D01*
X212102096Y-85827810D01*
X211473143Y-85827810D02*
X211715048Y-85827810D01*
X211739238Y-86069714D01*
X211715048Y-86045524D01*
X211666667Y-86021333D01*
X211545714Y-86021333D01*
X211497333Y-86045524D01*
X211473143Y-86069714D01*
X211448952Y-86118095D01*
X211448952Y-86239048D01*
X211473143Y-86287429D01*
X211497333Y-86311619D01*
X211545714Y-86335810D01*
X211666667Y-86335810D01*
X211715048Y-86311619D01*
X211739238Y-86287429D01*
%LPC*%
D14*
X198450000Y-82500000D03*
X196950000Y-82500000D03*
D15*
X210250000Y-78500000D03*
X209150000Y-78500000D03*
D16*
X213360000Y-96520000D03*
D17*
X213360000Y-99060000D03*
X210820000Y-96520000D03*
X210820000Y-99060000D03*
X208280000Y-96520000D03*
X208280000Y-99060000D03*
X205740000Y-96520000D03*
X205740000Y-99060000D03*
X203200000Y-96520000D03*
X203200000Y-99060000D03*
X200660000Y-96520000D03*
X200660000Y-99060000D03*
X198120000Y-96520000D03*
X198120000Y-99060000D03*
X195580000Y-96520000D03*
X195580000Y-99060000D03*
X193040000Y-96520000D03*
X193040000Y-99060000D03*
X190500000Y-96520000D03*
X190500000Y-99060000D03*
X187960000Y-96520000D03*
X187960000Y-99060000D03*
X185420000Y-96520000D03*
X185420000Y-99060000D03*
X182880000Y-96520000D03*
X182880000Y-99060000D03*
X180340000Y-96520000D03*
X180340000Y-99060000D03*
X177800000Y-96520000D03*
X177800000Y-99060000D03*
X175260000Y-96520000D03*
X175260000Y-99060000D03*
D18*
X213360000Y-93980000D03*
D19*
X210820000Y-93980000D03*
X208280000Y-93980000D03*
X205740000Y-93980000D03*
X203200000Y-93980000D03*
X200660000Y-93980000D03*
X198120000Y-93980000D03*
X195580000Y-93980000D03*
X193040000Y-93980000D03*
X190500000Y-93980000D03*
X187960000Y-93980000D03*
X185420000Y-93980000D03*
X182880000Y-93980000D03*
X180340000Y-93980000D03*
X177800000Y-93980000D03*
X175260000Y-93980000D03*
D18*
X193040000Y-71120000D03*
D19*
X190500000Y-71120000D03*
X187960000Y-71120000D03*
X185420000Y-71120000D03*
D16*
X198120000Y-73660000D03*
D17*
X198120000Y-71120000D03*
X200660000Y-73660000D03*
X200660000Y-71120000D03*
X203200000Y-73660000D03*
X203200000Y-71120000D03*
X205740000Y-73660000D03*
X205740000Y-71120000D03*
X208280000Y-73660000D03*
X208280000Y-71120000D03*
X210820000Y-73660000D03*
X210820000Y-71120000D03*
X213360000Y-73660000D03*
X213360000Y-71120000D03*
D20*
X211450000Y-80800000D03*
X211450000Y-81200000D03*
X211450000Y-81600000D03*
X211450000Y-82000000D03*
X211450000Y-82400000D03*
X211450000Y-82800000D03*
X211450000Y-83200000D03*
D21*
X210700000Y-83950000D03*
X210300000Y-83950000D03*
X209900000Y-83950000D03*
X209500000Y-83950000D03*
X209100000Y-83950000D03*
X208700000Y-83950000D03*
X208300000Y-83950000D03*
D20*
X207550000Y-83200000D03*
X207550000Y-82800000D03*
X207550000Y-82400000D03*
X207550000Y-82000000D03*
X207550000Y-81600000D03*
X207550000Y-81200000D03*
X207550000Y-80800000D03*
D21*
X208300000Y-80050000D03*
X208700000Y-80050000D03*
X209100000Y-80050000D03*
X209500000Y-80050000D03*
X209900000Y-80050000D03*
X210300000Y-80050000D03*
X210700000Y-80050000D03*
D22*
X208900000Y-82600000D03*
X208900000Y-81400000D03*
X210100000Y-82600000D03*
X210100000Y-81400000D03*
D23*
X213000000Y-80400000D03*
X213000000Y-79300000D03*
D24*
X210450000Y-77050000D03*
X208950000Y-77050000D03*
D25*
X213050000Y-76400000D03*
X213050000Y-77900000D03*
D26*
X186031000Y-74422000D03*
X183031000Y-74422000D03*
D27*
X183769000Y-79732000D03*
X183769000Y-76732000D03*
D28*
X190553000Y-74422000D03*
X187653000Y-74422000D03*
D29*
X206600000Y-79800000D03*
X206600000Y-78300000D03*
X204200000Y-77050000D03*
X204200000Y-75550000D03*
X205800000Y-75550000D03*
X205800000Y-77050000D03*
X200900000Y-76750000D03*
X200900000Y-75250000D03*
X197900000Y-76750000D03*
X197900000Y-75250000D03*
D30*
X186817000Y-79682000D03*
X186817000Y-76782000D03*
D31*
X170180000Y-78740000D03*
D32*
X170180000Y-81280000D03*
X170180000Y-83820000D03*
D31*
X170180000Y-86360000D03*
D32*
X170180000Y-88900000D03*
X170180000Y-91440000D03*
D23*
X216500000Y-91950000D03*
X216500000Y-90850000D03*
D15*
X216400000Y-89100000D03*
X215300000Y-89100000D03*
X214200000Y-89100000D03*
X213100000Y-89100000D03*
D23*
X211800000Y-91400000D03*
X211800000Y-90300000D03*
D15*
X216100000Y-85100000D03*
X215000000Y-85100000D03*
D23*
X212700000Y-88150000D03*
X212700000Y-87050000D03*
D27*
X215600000Y-82900000D03*
X215600000Y-79900000D03*
D33*
X216050000Y-84000000D03*
X215150000Y-84000000D03*
D34*
X210800000Y-89850000D03*
X210800000Y-88950000D03*
X210800000Y-91400000D03*
X210800000Y-90500000D03*
D35*
X213000000Y-91950000D03*
X213000000Y-91000000D03*
X213000000Y-90050000D03*
X215200000Y-90050000D03*
X215200000Y-91950000D03*
X215200000Y-91000000D03*
X213900000Y-88050000D03*
X213900000Y-87100000D03*
X213900000Y-86150000D03*
X216100000Y-86150000D03*
X216100000Y-88050000D03*
X216100000Y-87100000D03*
D31*
X218440000Y-76200000D03*
D32*
X218440000Y-78740000D03*
X218440000Y-81280000D03*
X218440000Y-83820000D03*
X218440000Y-86360000D03*
X218440000Y-88900000D03*
X218440000Y-91440000D03*
X218440000Y-93980000D03*
M02*
