G04 #@! TF.FileFunction,Paste,Bot*
%FSLAX46Y46*%
G04 Gerber Fmt 4.6, Leading zero omitted, Abs format (unit mm)*
G04 Created by KiCad (PCBNEW 4.0.1-stable) date Tuesday, February 09, 2016 'PMt' 10:51:17 PM*
%MOMM*%
G01*
G04 APERTURE LIST*
%ADD10C,0.100000*%
%ADD11R,0.500000X0.900000*%
%ADD12R,0.600000X0.500000*%
%ADD13R,0.800000X0.200000*%
%ADD14R,0.200000X0.800000*%
%ADD15R,0.720000X0.720000*%
%ADD16R,0.500000X0.600000*%
%ADD17R,0.800000X0.750000*%
%ADD18R,0.750000X0.800000*%
%ADD19R,1.000000X2.500000*%
%ADD20R,2.500000X1.000000*%
%ADD21R,0.900000X2.500000*%
%ADD22R,0.900000X0.500000*%
%ADD23R,2.500000X0.900000*%
%ADD24R,0.400000X0.600000*%
%ADD25R,0.600000X0.400000*%
%ADD26R,1.060000X0.650000*%
G04 APERTURE END LIST*
D10*
D11*
X198450000Y-82500000D03*
X196950000Y-82500000D03*
D12*
X210250000Y-78500000D03*
X209150000Y-78500000D03*
D13*
X211450000Y-80800000D03*
X211450000Y-81200000D03*
X211450000Y-81600000D03*
X211450000Y-82000000D03*
X211450000Y-82400000D03*
X211450000Y-82800000D03*
X211450000Y-83200000D03*
D14*
X210700000Y-83950000D03*
X210300000Y-83950000D03*
X209900000Y-83950000D03*
X209500000Y-83950000D03*
X209100000Y-83950000D03*
X208700000Y-83950000D03*
X208300000Y-83950000D03*
D13*
X207550000Y-83200000D03*
X207550000Y-82800000D03*
X207550000Y-82400000D03*
X207550000Y-82000000D03*
X207550000Y-81600000D03*
X207550000Y-81200000D03*
X207550000Y-80800000D03*
D14*
X208300000Y-80050000D03*
X208700000Y-80050000D03*
X209100000Y-80050000D03*
X209500000Y-80050000D03*
X209900000Y-80050000D03*
X210300000Y-80050000D03*
X210700000Y-80050000D03*
D15*
X208900000Y-82600000D03*
X208900000Y-81400000D03*
X210100000Y-82600000D03*
X210100000Y-81400000D03*
D16*
X213000000Y-80400000D03*
X213000000Y-79300000D03*
D17*
X210450000Y-77050000D03*
X208950000Y-77050000D03*
D18*
X213050000Y-76400000D03*
X213050000Y-77900000D03*
D19*
X186031000Y-74422000D03*
X183031000Y-74422000D03*
D20*
X183769000Y-79732000D03*
X183769000Y-76732000D03*
D21*
X190553000Y-74422000D03*
X187653000Y-74422000D03*
D22*
X206600000Y-79800000D03*
X206600000Y-78300000D03*
X204200000Y-77050000D03*
X204200000Y-75550000D03*
X205800000Y-75550000D03*
X205800000Y-77050000D03*
X200900000Y-76750000D03*
X200900000Y-75250000D03*
X197900000Y-76750000D03*
X197900000Y-75250000D03*
D23*
X186817000Y-79682000D03*
X186817000Y-76782000D03*
D16*
X216500000Y-91950000D03*
X216500000Y-90850000D03*
D12*
X216400000Y-89100000D03*
X215300000Y-89100000D03*
X214200000Y-89100000D03*
X213100000Y-89100000D03*
D16*
X211800000Y-91400000D03*
X211800000Y-90300000D03*
D12*
X216100000Y-85100000D03*
X215000000Y-85100000D03*
D16*
X212700000Y-88150000D03*
X212700000Y-87050000D03*
D20*
X215600000Y-82900000D03*
X215600000Y-79900000D03*
D24*
X216050000Y-84000000D03*
X215150000Y-84000000D03*
D25*
X210800000Y-89850000D03*
X210800000Y-88950000D03*
X210800000Y-91400000D03*
X210800000Y-90500000D03*
D26*
X213000000Y-91950000D03*
X213000000Y-91000000D03*
X213000000Y-90050000D03*
X215200000Y-90050000D03*
X215200000Y-91950000D03*
X215200000Y-91000000D03*
X213900000Y-88050000D03*
X213900000Y-87100000D03*
X213900000Y-86150000D03*
X216100000Y-86150000D03*
X216100000Y-88050000D03*
X216100000Y-87100000D03*
M02*
