G04 #@! TF.FileFunction,Soldermask,Bot*
%FSLAX46Y46*%
G04 Gerber Fmt 4.6, Leading zero omitted, Abs format (unit mm)*
G04 Created by KiCad (PCBNEW 4.0.1-stable) date Saturday, February 13, 2016 'PMt' 08:54:39 PM*
%MOMM*%
G01*
G04 APERTURE LIST*
%ADD10C,0.100000*%
G04 APERTURE END LIST*
D10*
G36*
X175446372Y-98147343D02*
X175446382Y-98147346D01*
X175446419Y-98147350D01*
X175619266Y-98200855D01*
X175778428Y-98286913D01*
X175917843Y-98402248D01*
X176032201Y-98542465D01*
X176117147Y-98702224D01*
X176169444Y-98875439D01*
X176187100Y-99055514D01*
X176187100Y-99064486D01*
X176187010Y-99077430D01*
X176166841Y-99257241D01*
X176112130Y-99429710D01*
X176024963Y-99588267D01*
X175908658Y-99726874D01*
X175767646Y-99840250D01*
X175607298Y-99924078D01*
X175433721Y-99975165D01*
X175433685Y-99975168D01*
X175433676Y-99975171D01*
X175253530Y-99991565D01*
X175073628Y-99972657D01*
X175073618Y-99972654D01*
X175073581Y-99972650D01*
X174900734Y-99919145D01*
X174741572Y-99833087D01*
X174602157Y-99717752D01*
X174487799Y-99577535D01*
X174402853Y-99417776D01*
X174350556Y-99244561D01*
X174332900Y-99064486D01*
X174332900Y-99055514D01*
X174332990Y-99042570D01*
X174353159Y-98862759D01*
X174407870Y-98690290D01*
X174495037Y-98531733D01*
X174611342Y-98393126D01*
X174752354Y-98279750D01*
X174912702Y-98195922D01*
X175086279Y-98144835D01*
X175086315Y-98144832D01*
X175086324Y-98144829D01*
X175266470Y-98128435D01*
X175446372Y-98147343D01*
X175446372Y-98147343D01*
G37*
G36*
X177986372Y-98147343D02*
X177986382Y-98147346D01*
X177986419Y-98147350D01*
X178159266Y-98200855D01*
X178318428Y-98286913D01*
X178457843Y-98402248D01*
X178572201Y-98542465D01*
X178657147Y-98702224D01*
X178709444Y-98875439D01*
X178727100Y-99055514D01*
X178727100Y-99064486D01*
X178727010Y-99077430D01*
X178706841Y-99257241D01*
X178652130Y-99429710D01*
X178564963Y-99588267D01*
X178448658Y-99726874D01*
X178307646Y-99840250D01*
X178147298Y-99924078D01*
X177973721Y-99975165D01*
X177973685Y-99975168D01*
X177973676Y-99975171D01*
X177793530Y-99991565D01*
X177613628Y-99972657D01*
X177613618Y-99972654D01*
X177613581Y-99972650D01*
X177440734Y-99919145D01*
X177281572Y-99833087D01*
X177142157Y-99717752D01*
X177027799Y-99577535D01*
X176942853Y-99417776D01*
X176890556Y-99244561D01*
X176872900Y-99064486D01*
X176872900Y-99055514D01*
X176872990Y-99042570D01*
X176893159Y-98862759D01*
X176947870Y-98690290D01*
X177035037Y-98531733D01*
X177151342Y-98393126D01*
X177292354Y-98279750D01*
X177452702Y-98195922D01*
X177626279Y-98144835D01*
X177626315Y-98144832D01*
X177626324Y-98144829D01*
X177806470Y-98128435D01*
X177986372Y-98147343D01*
X177986372Y-98147343D01*
G37*
G36*
X180526372Y-98147343D02*
X180526382Y-98147346D01*
X180526419Y-98147350D01*
X180699266Y-98200855D01*
X180858428Y-98286913D01*
X180997843Y-98402248D01*
X181112201Y-98542465D01*
X181197147Y-98702224D01*
X181249444Y-98875439D01*
X181267100Y-99055514D01*
X181267100Y-99064486D01*
X181267010Y-99077430D01*
X181246841Y-99257241D01*
X181192130Y-99429710D01*
X181104963Y-99588267D01*
X180988658Y-99726874D01*
X180847646Y-99840250D01*
X180687298Y-99924078D01*
X180513721Y-99975165D01*
X180513685Y-99975168D01*
X180513676Y-99975171D01*
X180333530Y-99991565D01*
X180153628Y-99972657D01*
X180153618Y-99972654D01*
X180153581Y-99972650D01*
X179980734Y-99919145D01*
X179821572Y-99833087D01*
X179682157Y-99717752D01*
X179567799Y-99577535D01*
X179482853Y-99417776D01*
X179430556Y-99244561D01*
X179412900Y-99064486D01*
X179412900Y-99055514D01*
X179412990Y-99042570D01*
X179433159Y-98862759D01*
X179487870Y-98690290D01*
X179575037Y-98531733D01*
X179691342Y-98393126D01*
X179832354Y-98279750D01*
X179992702Y-98195922D01*
X180166279Y-98144835D01*
X180166315Y-98144832D01*
X180166324Y-98144829D01*
X180346470Y-98128435D01*
X180526372Y-98147343D01*
X180526372Y-98147343D01*
G37*
G36*
X183066372Y-98147343D02*
X183066382Y-98147346D01*
X183066419Y-98147350D01*
X183239266Y-98200855D01*
X183398428Y-98286913D01*
X183537843Y-98402248D01*
X183652201Y-98542465D01*
X183737147Y-98702224D01*
X183789444Y-98875439D01*
X183807100Y-99055514D01*
X183807100Y-99064486D01*
X183807010Y-99077430D01*
X183786841Y-99257241D01*
X183732130Y-99429710D01*
X183644963Y-99588267D01*
X183528658Y-99726874D01*
X183387646Y-99840250D01*
X183227298Y-99924078D01*
X183053721Y-99975165D01*
X183053685Y-99975168D01*
X183053676Y-99975171D01*
X182873530Y-99991565D01*
X182693628Y-99972657D01*
X182693618Y-99972654D01*
X182693581Y-99972650D01*
X182520734Y-99919145D01*
X182361572Y-99833087D01*
X182222157Y-99717752D01*
X182107799Y-99577535D01*
X182022853Y-99417776D01*
X181970556Y-99244561D01*
X181952900Y-99064486D01*
X181952900Y-99055514D01*
X181952990Y-99042570D01*
X181973159Y-98862759D01*
X182027870Y-98690290D01*
X182115037Y-98531733D01*
X182231342Y-98393126D01*
X182372354Y-98279750D01*
X182532702Y-98195922D01*
X182706279Y-98144835D01*
X182706315Y-98144832D01*
X182706324Y-98144829D01*
X182886470Y-98128435D01*
X183066372Y-98147343D01*
X183066372Y-98147343D01*
G37*
G36*
X185606372Y-98147343D02*
X185606382Y-98147346D01*
X185606419Y-98147350D01*
X185779266Y-98200855D01*
X185938428Y-98286913D01*
X186077843Y-98402248D01*
X186192201Y-98542465D01*
X186277147Y-98702224D01*
X186329444Y-98875439D01*
X186347100Y-99055514D01*
X186347100Y-99064486D01*
X186347010Y-99077430D01*
X186326841Y-99257241D01*
X186272130Y-99429710D01*
X186184963Y-99588267D01*
X186068658Y-99726874D01*
X185927646Y-99840250D01*
X185767298Y-99924078D01*
X185593721Y-99975165D01*
X185593685Y-99975168D01*
X185593676Y-99975171D01*
X185413530Y-99991565D01*
X185233628Y-99972657D01*
X185233618Y-99972654D01*
X185233581Y-99972650D01*
X185060734Y-99919145D01*
X184901572Y-99833087D01*
X184762157Y-99717752D01*
X184647799Y-99577535D01*
X184562853Y-99417776D01*
X184510556Y-99244561D01*
X184492900Y-99064486D01*
X184492900Y-99055514D01*
X184492990Y-99042570D01*
X184513159Y-98862759D01*
X184567870Y-98690290D01*
X184655037Y-98531733D01*
X184771342Y-98393126D01*
X184912354Y-98279750D01*
X185072702Y-98195922D01*
X185246279Y-98144835D01*
X185246315Y-98144832D01*
X185246324Y-98144829D01*
X185426470Y-98128435D01*
X185606372Y-98147343D01*
X185606372Y-98147343D01*
G37*
G36*
X188146372Y-98147343D02*
X188146382Y-98147346D01*
X188146419Y-98147350D01*
X188319266Y-98200855D01*
X188478428Y-98286913D01*
X188617843Y-98402248D01*
X188732201Y-98542465D01*
X188817147Y-98702224D01*
X188869444Y-98875439D01*
X188887100Y-99055514D01*
X188887100Y-99064486D01*
X188887010Y-99077430D01*
X188866841Y-99257241D01*
X188812130Y-99429710D01*
X188724963Y-99588267D01*
X188608658Y-99726874D01*
X188467646Y-99840250D01*
X188307298Y-99924078D01*
X188133721Y-99975165D01*
X188133685Y-99975168D01*
X188133676Y-99975171D01*
X187953530Y-99991565D01*
X187773628Y-99972657D01*
X187773618Y-99972654D01*
X187773581Y-99972650D01*
X187600734Y-99919145D01*
X187441572Y-99833087D01*
X187302157Y-99717752D01*
X187187799Y-99577535D01*
X187102853Y-99417776D01*
X187050556Y-99244561D01*
X187032900Y-99064486D01*
X187032900Y-99055514D01*
X187032990Y-99042570D01*
X187053159Y-98862759D01*
X187107870Y-98690290D01*
X187195037Y-98531733D01*
X187311342Y-98393126D01*
X187452354Y-98279750D01*
X187612702Y-98195922D01*
X187786279Y-98144835D01*
X187786315Y-98144832D01*
X187786324Y-98144829D01*
X187966470Y-98128435D01*
X188146372Y-98147343D01*
X188146372Y-98147343D01*
G37*
G36*
X190686372Y-98147343D02*
X190686382Y-98147346D01*
X190686419Y-98147350D01*
X190859266Y-98200855D01*
X191018428Y-98286913D01*
X191157843Y-98402248D01*
X191272201Y-98542465D01*
X191357147Y-98702224D01*
X191409444Y-98875439D01*
X191427100Y-99055514D01*
X191427100Y-99064486D01*
X191427010Y-99077430D01*
X191406841Y-99257241D01*
X191352130Y-99429710D01*
X191264963Y-99588267D01*
X191148658Y-99726874D01*
X191007646Y-99840250D01*
X190847298Y-99924078D01*
X190673721Y-99975165D01*
X190673685Y-99975168D01*
X190673676Y-99975171D01*
X190493530Y-99991565D01*
X190313628Y-99972657D01*
X190313618Y-99972654D01*
X190313581Y-99972650D01*
X190140734Y-99919145D01*
X189981572Y-99833087D01*
X189842157Y-99717752D01*
X189727799Y-99577535D01*
X189642853Y-99417776D01*
X189590556Y-99244561D01*
X189572900Y-99064486D01*
X189572900Y-99055514D01*
X189572990Y-99042570D01*
X189593159Y-98862759D01*
X189647870Y-98690290D01*
X189735037Y-98531733D01*
X189851342Y-98393126D01*
X189992354Y-98279750D01*
X190152702Y-98195922D01*
X190326279Y-98144835D01*
X190326315Y-98144832D01*
X190326324Y-98144829D01*
X190506470Y-98128435D01*
X190686372Y-98147343D01*
X190686372Y-98147343D01*
G37*
G36*
X193226372Y-98147343D02*
X193226382Y-98147346D01*
X193226419Y-98147350D01*
X193399266Y-98200855D01*
X193558428Y-98286913D01*
X193697843Y-98402248D01*
X193812201Y-98542465D01*
X193897147Y-98702224D01*
X193949444Y-98875439D01*
X193967100Y-99055514D01*
X193967100Y-99064486D01*
X193967010Y-99077430D01*
X193946841Y-99257241D01*
X193892130Y-99429710D01*
X193804963Y-99588267D01*
X193688658Y-99726874D01*
X193547646Y-99840250D01*
X193387298Y-99924078D01*
X193213721Y-99975165D01*
X193213685Y-99975168D01*
X193213676Y-99975171D01*
X193033530Y-99991565D01*
X192853628Y-99972657D01*
X192853618Y-99972654D01*
X192853581Y-99972650D01*
X192680734Y-99919145D01*
X192521572Y-99833087D01*
X192382157Y-99717752D01*
X192267799Y-99577535D01*
X192182853Y-99417776D01*
X192130556Y-99244561D01*
X192112900Y-99064486D01*
X192112900Y-99055514D01*
X192112990Y-99042570D01*
X192133159Y-98862759D01*
X192187870Y-98690290D01*
X192275037Y-98531733D01*
X192391342Y-98393126D01*
X192532354Y-98279750D01*
X192692702Y-98195922D01*
X192866279Y-98144835D01*
X192866315Y-98144832D01*
X192866324Y-98144829D01*
X193046470Y-98128435D01*
X193226372Y-98147343D01*
X193226372Y-98147343D01*
G37*
G36*
X195766372Y-98147343D02*
X195766382Y-98147346D01*
X195766419Y-98147350D01*
X195939266Y-98200855D01*
X196098428Y-98286913D01*
X196237843Y-98402248D01*
X196352201Y-98542465D01*
X196437147Y-98702224D01*
X196489444Y-98875439D01*
X196507100Y-99055514D01*
X196507100Y-99064486D01*
X196507010Y-99077430D01*
X196486841Y-99257241D01*
X196432130Y-99429710D01*
X196344963Y-99588267D01*
X196228658Y-99726874D01*
X196087646Y-99840250D01*
X195927298Y-99924078D01*
X195753721Y-99975165D01*
X195753685Y-99975168D01*
X195753676Y-99975171D01*
X195573530Y-99991565D01*
X195393628Y-99972657D01*
X195393618Y-99972654D01*
X195393581Y-99972650D01*
X195220734Y-99919145D01*
X195061572Y-99833087D01*
X194922157Y-99717752D01*
X194807799Y-99577535D01*
X194722853Y-99417776D01*
X194670556Y-99244561D01*
X194652900Y-99064486D01*
X194652900Y-99055514D01*
X194652990Y-99042570D01*
X194673159Y-98862759D01*
X194727870Y-98690290D01*
X194815037Y-98531733D01*
X194931342Y-98393126D01*
X195072354Y-98279750D01*
X195232702Y-98195922D01*
X195406279Y-98144835D01*
X195406315Y-98144832D01*
X195406324Y-98144829D01*
X195586470Y-98128435D01*
X195766372Y-98147343D01*
X195766372Y-98147343D01*
G37*
G36*
X198306372Y-98147343D02*
X198306382Y-98147346D01*
X198306419Y-98147350D01*
X198479266Y-98200855D01*
X198638428Y-98286913D01*
X198777843Y-98402248D01*
X198892201Y-98542465D01*
X198977147Y-98702224D01*
X199029444Y-98875439D01*
X199047100Y-99055514D01*
X199047100Y-99064486D01*
X199047010Y-99077430D01*
X199026841Y-99257241D01*
X198972130Y-99429710D01*
X198884963Y-99588267D01*
X198768658Y-99726874D01*
X198627646Y-99840250D01*
X198467298Y-99924078D01*
X198293721Y-99975165D01*
X198293685Y-99975168D01*
X198293676Y-99975171D01*
X198113530Y-99991565D01*
X197933628Y-99972657D01*
X197933618Y-99972654D01*
X197933581Y-99972650D01*
X197760734Y-99919145D01*
X197601572Y-99833087D01*
X197462157Y-99717752D01*
X197347799Y-99577535D01*
X197262853Y-99417776D01*
X197210556Y-99244561D01*
X197192900Y-99064486D01*
X197192900Y-99055514D01*
X197192990Y-99042570D01*
X197213159Y-98862759D01*
X197267870Y-98690290D01*
X197355037Y-98531733D01*
X197471342Y-98393126D01*
X197612354Y-98279750D01*
X197772702Y-98195922D01*
X197946279Y-98144835D01*
X197946315Y-98144832D01*
X197946324Y-98144829D01*
X198126470Y-98128435D01*
X198306372Y-98147343D01*
X198306372Y-98147343D01*
G37*
G36*
X200846372Y-98147343D02*
X200846382Y-98147346D01*
X200846419Y-98147350D01*
X201019266Y-98200855D01*
X201178428Y-98286913D01*
X201317843Y-98402248D01*
X201432201Y-98542465D01*
X201517147Y-98702224D01*
X201569444Y-98875439D01*
X201587100Y-99055514D01*
X201587100Y-99064486D01*
X201587010Y-99077430D01*
X201566841Y-99257241D01*
X201512130Y-99429710D01*
X201424963Y-99588267D01*
X201308658Y-99726874D01*
X201167646Y-99840250D01*
X201007298Y-99924078D01*
X200833721Y-99975165D01*
X200833685Y-99975168D01*
X200833676Y-99975171D01*
X200653530Y-99991565D01*
X200473628Y-99972657D01*
X200473618Y-99972654D01*
X200473581Y-99972650D01*
X200300734Y-99919145D01*
X200141572Y-99833087D01*
X200002157Y-99717752D01*
X199887799Y-99577535D01*
X199802853Y-99417776D01*
X199750556Y-99244561D01*
X199732900Y-99064486D01*
X199732900Y-99055514D01*
X199732990Y-99042570D01*
X199753159Y-98862759D01*
X199807870Y-98690290D01*
X199895037Y-98531733D01*
X200011342Y-98393126D01*
X200152354Y-98279750D01*
X200312702Y-98195922D01*
X200486279Y-98144835D01*
X200486315Y-98144832D01*
X200486324Y-98144829D01*
X200666470Y-98128435D01*
X200846372Y-98147343D01*
X200846372Y-98147343D01*
G37*
G36*
X203386372Y-98147343D02*
X203386382Y-98147346D01*
X203386419Y-98147350D01*
X203559266Y-98200855D01*
X203718428Y-98286913D01*
X203857843Y-98402248D01*
X203972201Y-98542465D01*
X204057147Y-98702224D01*
X204109444Y-98875439D01*
X204127100Y-99055514D01*
X204127100Y-99064486D01*
X204127010Y-99077430D01*
X204106841Y-99257241D01*
X204052130Y-99429710D01*
X203964963Y-99588267D01*
X203848658Y-99726874D01*
X203707646Y-99840250D01*
X203547298Y-99924078D01*
X203373721Y-99975165D01*
X203373685Y-99975168D01*
X203373676Y-99975171D01*
X203193530Y-99991565D01*
X203013628Y-99972657D01*
X203013618Y-99972654D01*
X203013581Y-99972650D01*
X202840734Y-99919145D01*
X202681572Y-99833087D01*
X202542157Y-99717752D01*
X202427799Y-99577535D01*
X202342853Y-99417776D01*
X202290556Y-99244561D01*
X202272900Y-99064486D01*
X202272900Y-99055514D01*
X202272990Y-99042570D01*
X202293159Y-98862759D01*
X202347870Y-98690290D01*
X202435037Y-98531733D01*
X202551342Y-98393126D01*
X202692354Y-98279750D01*
X202852702Y-98195922D01*
X203026279Y-98144835D01*
X203026315Y-98144832D01*
X203026324Y-98144829D01*
X203206470Y-98128435D01*
X203386372Y-98147343D01*
X203386372Y-98147343D01*
G37*
G36*
X205926372Y-98147343D02*
X205926382Y-98147346D01*
X205926419Y-98147350D01*
X206099266Y-98200855D01*
X206258428Y-98286913D01*
X206397843Y-98402248D01*
X206512201Y-98542465D01*
X206597147Y-98702224D01*
X206649444Y-98875439D01*
X206667100Y-99055514D01*
X206667100Y-99064486D01*
X206667010Y-99077430D01*
X206646841Y-99257241D01*
X206592130Y-99429710D01*
X206504963Y-99588267D01*
X206388658Y-99726874D01*
X206247646Y-99840250D01*
X206087298Y-99924078D01*
X205913721Y-99975165D01*
X205913685Y-99975168D01*
X205913676Y-99975171D01*
X205733530Y-99991565D01*
X205553628Y-99972657D01*
X205553618Y-99972654D01*
X205553581Y-99972650D01*
X205380734Y-99919145D01*
X205221572Y-99833087D01*
X205082157Y-99717752D01*
X204967799Y-99577535D01*
X204882853Y-99417776D01*
X204830556Y-99244561D01*
X204812900Y-99064486D01*
X204812900Y-99055514D01*
X204812990Y-99042570D01*
X204833159Y-98862759D01*
X204887870Y-98690290D01*
X204975037Y-98531733D01*
X205091342Y-98393126D01*
X205232354Y-98279750D01*
X205392702Y-98195922D01*
X205566279Y-98144835D01*
X205566315Y-98144832D01*
X205566324Y-98144829D01*
X205746470Y-98128435D01*
X205926372Y-98147343D01*
X205926372Y-98147343D01*
G37*
G36*
X208466372Y-98147343D02*
X208466382Y-98147346D01*
X208466419Y-98147350D01*
X208639266Y-98200855D01*
X208798428Y-98286913D01*
X208937843Y-98402248D01*
X209052201Y-98542465D01*
X209137147Y-98702224D01*
X209189444Y-98875439D01*
X209207100Y-99055514D01*
X209207100Y-99064486D01*
X209207010Y-99077430D01*
X209186841Y-99257241D01*
X209132130Y-99429710D01*
X209044963Y-99588267D01*
X208928658Y-99726874D01*
X208787646Y-99840250D01*
X208627298Y-99924078D01*
X208453721Y-99975165D01*
X208453685Y-99975168D01*
X208453676Y-99975171D01*
X208273530Y-99991565D01*
X208093628Y-99972657D01*
X208093618Y-99972654D01*
X208093581Y-99972650D01*
X207920734Y-99919145D01*
X207761572Y-99833087D01*
X207622157Y-99717752D01*
X207507799Y-99577535D01*
X207422853Y-99417776D01*
X207370556Y-99244561D01*
X207352900Y-99064486D01*
X207352900Y-99055514D01*
X207352990Y-99042570D01*
X207373159Y-98862759D01*
X207427870Y-98690290D01*
X207515037Y-98531733D01*
X207631342Y-98393126D01*
X207772354Y-98279750D01*
X207932702Y-98195922D01*
X208106279Y-98144835D01*
X208106315Y-98144832D01*
X208106324Y-98144829D01*
X208286470Y-98128435D01*
X208466372Y-98147343D01*
X208466372Y-98147343D01*
G37*
G36*
X211006372Y-98147343D02*
X211006382Y-98147346D01*
X211006419Y-98147350D01*
X211179266Y-98200855D01*
X211338428Y-98286913D01*
X211477843Y-98402248D01*
X211592201Y-98542465D01*
X211677147Y-98702224D01*
X211729444Y-98875439D01*
X211747100Y-99055514D01*
X211747100Y-99064486D01*
X211747010Y-99077430D01*
X211726841Y-99257241D01*
X211672130Y-99429710D01*
X211584963Y-99588267D01*
X211468658Y-99726874D01*
X211327646Y-99840250D01*
X211167298Y-99924078D01*
X210993721Y-99975165D01*
X210993685Y-99975168D01*
X210993676Y-99975171D01*
X210813530Y-99991565D01*
X210633628Y-99972657D01*
X210633618Y-99972654D01*
X210633581Y-99972650D01*
X210460734Y-99919145D01*
X210301572Y-99833087D01*
X210162157Y-99717752D01*
X210047799Y-99577535D01*
X209962853Y-99417776D01*
X209910556Y-99244561D01*
X209892900Y-99064486D01*
X209892900Y-99055514D01*
X209892990Y-99042570D01*
X209913159Y-98862759D01*
X209967870Y-98690290D01*
X210055037Y-98531733D01*
X210171342Y-98393126D01*
X210312354Y-98279750D01*
X210472702Y-98195922D01*
X210646279Y-98144835D01*
X210646315Y-98144832D01*
X210646324Y-98144829D01*
X210826470Y-98128435D01*
X211006372Y-98147343D01*
X211006372Y-98147343D01*
G37*
G36*
X213546372Y-98147343D02*
X213546382Y-98147346D01*
X213546419Y-98147350D01*
X213719266Y-98200855D01*
X213878428Y-98286913D01*
X214017843Y-98402248D01*
X214132201Y-98542465D01*
X214217147Y-98702224D01*
X214269444Y-98875439D01*
X214287100Y-99055514D01*
X214287100Y-99064486D01*
X214287010Y-99077430D01*
X214266841Y-99257241D01*
X214212130Y-99429710D01*
X214124963Y-99588267D01*
X214008658Y-99726874D01*
X213867646Y-99840250D01*
X213707298Y-99924078D01*
X213533721Y-99975165D01*
X213533685Y-99975168D01*
X213533676Y-99975171D01*
X213353530Y-99991565D01*
X213173628Y-99972657D01*
X213173618Y-99972654D01*
X213173581Y-99972650D01*
X213000734Y-99919145D01*
X212841572Y-99833087D01*
X212702157Y-99717752D01*
X212587799Y-99577535D01*
X212502853Y-99417776D01*
X212450556Y-99244561D01*
X212432900Y-99064486D01*
X212432900Y-99055514D01*
X212432990Y-99042570D01*
X212453159Y-98862759D01*
X212507870Y-98690290D01*
X212595037Y-98531733D01*
X212711342Y-98393126D01*
X212852354Y-98279750D01*
X213012702Y-98195922D01*
X213186279Y-98144835D01*
X213186315Y-98144832D01*
X213186324Y-98144829D01*
X213366470Y-98128435D01*
X213546372Y-98147343D01*
X213546372Y-98147343D01*
G37*
G36*
X205926372Y-95607343D02*
X205926382Y-95607346D01*
X205926419Y-95607350D01*
X206099266Y-95660855D01*
X206258428Y-95746913D01*
X206397843Y-95862248D01*
X206512201Y-96002465D01*
X206597147Y-96162224D01*
X206649444Y-96335439D01*
X206667100Y-96515514D01*
X206667100Y-96524486D01*
X206667010Y-96537430D01*
X206646841Y-96717241D01*
X206592130Y-96889710D01*
X206504963Y-97048267D01*
X206388658Y-97186874D01*
X206247646Y-97300250D01*
X206087298Y-97384078D01*
X205913721Y-97435165D01*
X205913685Y-97435168D01*
X205913676Y-97435171D01*
X205733530Y-97451565D01*
X205553628Y-97432657D01*
X205553618Y-97432654D01*
X205553581Y-97432650D01*
X205380734Y-97379145D01*
X205221572Y-97293087D01*
X205082157Y-97177752D01*
X204967799Y-97037535D01*
X204882853Y-96877776D01*
X204830556Y-96704561D01*
X204812900Y-96524486D01*
X204812900Y-96515514D01*
X204812990Y-96502570D01*
X204833159Y-96322759D01*
X204887870Y-96150290D01*
X204975037Y-95991733D01*
X205091342Y-95853126D01*
X205232354Y-95739750D01*
X205392702Y-95655922D01*
X205566279Y-95604835D01*
X205566315Y-95604832D01*
X205566324Y-95604829D01*
X205746470Y-95588435D01*
X205926372Y-95607343D01*
X205926372Y-95607343D01*
G37*
G36*
X208466372Y-95607343D02*
X208466382Y-95607346D01*
X208466419Y-95607350D01*
X208639266Y-95660855D01*
X208798428Y-95746913D01*
X208937843Y-95862248D01*
X209052201Y-96002465D01*
X209137147Y-96162224D01*
X209189444Y-96335439D01*
X209207100Y-96515514D01*
X209207100Y-96524486D01*
X209207010Y-96537430D01*
X209186841Y-96717241D01*
X209132130Y-96889710D01*
X209044963Y-97048267D01*
X208928658Y-97186874D01*
X208787646Y-97300250D01*
X208627298Y-97384078D01*
X208453721Y-97435165D01*
X208453685Y-97435168D01*
X208453676Y-97435171D01*
X208273530Y-97451565D01*
X208093628Y-97432657D01*
X208093618Y-97432654D01*
X208093581Y-97432650D01*
X207920734Y-97379145D01*
X207761572Y-97293087D01*
X207622157Y-97177752D01*
X207507799Y-97037535D01*
X207422853Y-96877776D01*
X207370556Y-96704561D01*
X207352900Y-96524486D01*
X207352900Y-96515514D01*
X207352990Y-96502570D01*
X207373159Y-96322759D01*
X207427870Y-96150290D01*
X207515037Y-95991733D01*
X207631342Y-95853126D01*
X207772354Y-95739750D01*
X207932702Y-95655922D01*
X208106279Y-95604835D01*
X208106315Y-95604832D01*
X208106324Y-95604829D01*
X208286470Y-95588435D01*
X208466372Y-95607343D01*
X208466372Y-95607343D01*
G37*
G36*
X203386372Y-95607343D02*
X203386382Y-95607346D01*
X203386419Y-95607350D01*
X203559266Y-95660855D01*
X203718428Y-95746913D01*
X203857843Y-95862248D01*
X203972201Y-96002465D01*
X204057147Y-96162224D01*
X204109444Y-96335439D01*
X204127100Y-96515514D01*
X204127100Y-96524486D01*
X204127010Y-96537430D01*
X204106841Y-96717241D01*
X204052130Y-96889710D01*
X203964963Y-97048267D01*
X203848658Y-97186874D01*
X203707646Y-97300250D01*
X203547298Y-97384078D01*
X203373721Y-97435165D01*
X203373685Y-97435168D01*
X203373676Y-97435171D01*
X203193530Y-97451565D01*
X203013628Y-97432657D01*
X203013618Y-97432654D01*
X203013581Y-97432650D01*
X202840734Y-97379145D01*
X202681572Y-97293087D01*
X202542157Y-97177752D01*
X202427799Y-97037535D01*
X202342853Y-96877776D01*
X202290556Y-96704561D01*
X202272900Y-96524486D01*
X202272900Y-96515514D01*
X202272990Y-96502570D01*
X202293159Y-96322759D01*
X202347870Y-96150290D01*
X202435037Y-95991733D01*
X202551342Y-95853126D01*
X202692354Y-95739750D01*
X202852702Y-95655922D01*
X203026279Y-95604835D01*
X203026315Y-95604832D01*
X203026324Y-95604829D01*
X203206470Y-95588435D01*
X203386372Y-95607343D01*
X203386372Y-95607343D01*
G37*
G36*
X211006372Y-95607343D02*
X211006382Y-95607346D01*
X211006419Y-95607350D01*
X211179266Y-95660855D01*
X211338428Y-95746913D01*
X211477843Y-95862248D01*
X211592201Y-96002465D01*
X211677147Y-96162224D01*
X211729444Y-96335439D01*
X211747100Y-96515514D01*
X211747100Y-96524486D01*
X211747010Y-96537430D01*
X211726841Y-96717241D01*
X211672130Y-96889710D01*
X211584963Y-97048267D01*
X211468658Y-97186874D01*
X211327646Y-97300250D01*
X211167298Y-97384078D01*
X210993721Y-97435165D01*
X210993685Y-97435168D01*
X210993676Y-97435171D01*
X210813530Y-97451565D01*
X210633628Y-97432657D01*
X210633618Y-97432654D01*
X210633581Y-97432650D01*
X210460734Y-97379145D01*
X210301572Y-97293087D01*
X210162157Y-97177752D01*
X210047799Y-97037535D01*
X209962853Y-96877776D01*
X209910556Y-96704561D01*
X209892900Y-96524486D01*
X209892900Y-96515514D01*
X209892990Y-96502570D01*
X209913159Y-96322759D01*
X209967870Y-96150290D01*
X210055037Y-95991733D01*
X210171342Y-95853126D01*
X210312354Y-95739750D01*
X210472702Y-95655922D01*
X210646279Y-95604835D01*
X210646315Y-95604832D01*
X210646324Y-95604829D01*
X210826470Y-95588435D01*
X211006372Y-95607343D01*
X211006372Y-95607343D01*
G37*
G36*
X200846372Y-95607343D02*
X200846382Y-95607346D01*
X200846419Y-95607350D01*
X201019266Y-95660855D01*
X201178428Y-95746913D01*
X201317843Y-95862248D01*
X201432201Y-96002465D01*
X201517147Y-96162224D01*
X201569444Y-96335439D01*
X201587100Y-96515514D01*
X201587100Y-96524486D01*
X201587010Y-96537430D01*
X201566841Y-96717241D01*
X201512130Y-96889710D01*
X201424963Y-97048267D01*
X201308658Y-97186874D01*
X201167646Y-97300250D01*
X201007298Y-97384078D01*
X200833721Y-97435165D01*
X200833685Y-97435168D01*
X200833676Y-97435171D01*
X200653530Y-97451565D01*
X200473628Y-97432657D01*
X200473618Y-97432654D01*
X200473581Y-97432650D01*
X200300734Y-97379145D01*
X200141572Y-97293087D01*
X200002157Y-97177752D01*
X199887799Y-97037535D01*
X199802853Y-96877776D01*
X199750556Y-96704561D01*
X199732900Y-96524486D01*
X199732900Y-96515514D01*
X199732990Y-96502570D01*
X199753159Y-96322759D01*
X199807870Y-96150290D01*
X199895037Y-95991733D01*
X200011342Y-95853126D01*
X200152354Y-95739750D01*
X200312702Y-95655922D01*
X200486279Y-95604835D01*
X200486315Y-95604832D01*
X200486324Y-95604829D01*
X200666470Y-95588435D01*
X200846372Y-95607343D01*
X200846372Y-95607343D01*
G37*
G36*
X198306372Y-95607343D02*
X198306382Y-95607346D01*
X198306419Y-95607350D01*
X198479266Y-95660855D01*
X198638428Y-95746913D01*
X198777843Y-95862248D01*
X198892201Y-96002465D01*
X198977147Y-96162224D01*
X199029444Y-96335439D01*
X199047100Y-96515514D01*
X199047100Y-96524486D01*
X199047010Y-96537430D01*
X199026841Y-96717241D01*
X198972130Y-96889710D01*
X198884963Y-97048267D01*
X198768658Y-97186874D01*
X198627646Y-97300250D01*
X198467298Y-97384078D01*
X198293721Y-97435165D01*
X198293685Y-97435168D01*
X198293676Y-97435171D01*
X198113530Y-97451565D01*
X197933628Y-97432657D01*
X197933618Y-97432654D01*
X197933581Y-97432650D01*
X197760734Y-97379145D01*
X197601572Y-97293087D01*
X197462157Y-97177752D01*
X197347799Y-97037535D01*
X197262853Y-96877776D01*
X197210556Y-96704561D01*
X197192900Y-96524486D01*
X197192900Y-96515514D01*
X197192990Y-96502570D01*
X197213159Y-96322759D01*
X197267870Y-96150290D01*
X197355037Y-95991733D01*
X197471342Y-95853126D01*
X197612354Y-95739750D01*
X197772702Y-95655922D01*
X197946279Y-95604835D01*
X197946315Y-95604832D01*
X197946324Y-95604829D01*
X198126470Y-95588435D01*
X198306372Y-95607343D01*
X198306372Y-95607343D01*
G37*
G36*
X195766372Y-95607343D02*
X195766382Y-95607346D01*
X195766419Y-95607350D01*
X195939266Y-95660855D01*
X196098428Y-95746913D01*
X196237843Y-95862248D01*
X196352201Y-96002465D01*
X196437147Y-96162224D01*
X196489444Y-96335439D01*
X196507100Y-96515514D01*
X196507100Y-96524486D01*
X196507010Y-96537430D01*
X196486841Y-96717241D01*
X196432130Y-96889710D01*
X196344963Y-97048267D01*
X196228658Y-97186874D01*
X196087646Y-97300250D01*
X195927298Y-97384078D01*
X195753721Y-97435165D01*
X195753685Y-97435168D01*
X195753676Y-97435171D01*
X195573530Y-97451565D01*
X195393628Y-97432657D01*
X195393618Y-97432654D01*
X195393581Y-97432650D01*
X195220734Y-97379145D01*
X195061572Y-97293087D01*
X194922157Y-97177752D01*
X194807799Y-97037535D01*
X194722853Y-96877776D01*
X194670556Y-96704561D01*
X194652900Y-96524486D01*
X194652900Y-96515514D01*
X194652990Y-96502570D01*
X194673159Y-96322759D01*
X194727870Y-96150290D01*
X194815037Y-95991733D01*
X194931342Y-95853126D01*
X195072354Y-95739750D01*
X195232702Y-95655922D01*
X195406279Y-95604835D01*
X195406315Y-95604832D01*
X195406324Y-95604829D01*
X195586470Y-95588435D01*
X195766372Y-95607343D01*
X195766372Y-95607343D01*
G37*
G36*
X193226372Y-95607343D02*
X193226382Y-95607346D01*
X193226419Y-95607350D01*
X193399266Y-95660855D01*
X193558428Y-95746913D01*
X193697843Y-95862248D01*
X193812201Y-96002465D01*
X193897147Y-96162224D01*
X193949444Y-96335439D01*
X193967100Y-96515514D01*
X193967100Y-96524486D01*
X193967010Y-96537430D01*
X193946841Y-96717241D01*
X193892130Y-96889710D01*
X193804963Y-97048267D01*
X193688658Y-97186874D01*
X193547646Y-97300250D01*
X193387298Y-97384078D01*
X193213721Y-97435165D01*
X193213685Y-97435168D01*
X193213676Y-97435171D01*
X193033530Y-97451565D01*
X192853628Y-97432657D01*
X192853618Y-97432654D01*
X192853581Y-97432650D01*
X192680734Y-97379145D01*
X192521572Y-97293087D01*
X192382157Y-97177752D01*
X192267799Y-97037535D01*
X192182853Y-96877776D01*
X192130556Y-96704561D01*
X192112900Y-96524486D01*
X192112900Y-96515514D01*
X192112990Y-96502570D01*
X192133159Y-96322759D01*
X192187870Y-96150290D01*
X192275037Y-95991733D01*
X192391342Y-95853126D01*
X192532354Y-95739750D01*
X192692702Y-95655922D01*
X192866279Y-95604835D01*
X192866315Y-95604832D01*
X192866324Y-95604829D01*
X193046470Y-95588435D01*
X193226372Y-95607343D01*
X193226372Y-95607343D01*
G37*
G36*
X190686372Y-95607343D02*
X190686382Y-95607346D01*
X190686419Y-95607350D01*
X190859266Y-95660855D01*
X191018428Y-95746913D01*
X191157843Y-95862248D01*
X191272201Y-96002465D01*
X191357147Y-96162224D01*
X191409444Y-96335439D01*
X191427100Y-96515514D01*
X191427100Y-96524486D01*
X191427010Y-96537430D01*
X191406841Y-96717241D01*
X191352130Y-96889710D01*
X191264963Y-97048267D01*
X191148658Y-97186874D01*
X191007646Y-97300250D01*
X190847298Y-97384078D01*
X190673721Y-97435165D01*
X190673685Y-97435168D01*
X190673676Y-97435171D01*
X190493530Y-97451565D01*
X190313628Y-97432657D01*
X190313618Y-97432654D01*
X190313581Y-97432650D01*
X190140734Y-97379145D01*
X189981572Y-97293087D01*
X189842157Y-97177752D01*
X189727799Y-97037535D01*
X189642853Y-96877776D01*
X189590556Y-96704561D01*
X189572900Y-96524486D01*
X189572900Y-96515514D01*
X189572990Y-96502570D01*
X189593159Y-96322759D01*
X189647870Y-96150290D01*
X189735037Y-95991733D01*
X189851342Y-95853126D01*
X189992354Y-95739750D01*
X190152702Y-95655922D01*
X190326279Y-95604835D01*
X190326315Y-95604832D01*
X190326324Y-95604829D01*
X190506470Y-95588435D01*
X190686372Y-95607343D01*
X190686372Y-95607343D01*
G37*
G36*
X188146372Y-95607343D02*
X188146382Y-95607346D01*
X188146419Y-95607350D01*
X188319266Y-95660855D01*
X188478428Y-95746913D01*
X188617843Y-95862248D01*
X188732201Y-96002465D01*
X188817147Y-96162224D01*
X188869444Y-96335439D01*
X188887100Y-96515514D01*
X188887100Y-96524486D01*
X188887010Y-96537430D01*
X188866841Y-96717241D01*
X188812130Y-96889710D01*
X188724963Y-97048267D01*
X188608658Y-97186874D01*
X188467646Y-97300250D01*
X188307298Y-97384078D01*
X188133721Y-97435165D01*
X188133685Y-97435168D01*
X188133676Y-97435171D01*
X187953530Y-97451565D01*
X187773628Y-97432657D01*
X187773618Y-97432654D01*
X187773581Y-97432650D01*
X187600734Y-97379145D01*
X187441572Y-97293087D01*
X187302157Y-97177752D01*
X187187799Y-97037535D01*
X187102853Y-96877776D01*
X187050556Y-96704561D01*
X187032900Y-96524486D01*
X187032900Y-96515514D01*
X187032990Y-96502570D01*
X187053159Y-96322759D01*
X187107870Y-96150290D01*
X187195037Y-95991733D01*
X187311342Y-95853126D01*
X187452354Y-95739750D01*
X187612702Y-95655922D01*
X187786279Y-95604835D01*
X187786315Y-95604832D01*
X187786324Y-95604829D01*
X187966470Y-95588435D01*
X188146372Y-95607343D01*
X188146372Y-95607343D01*
G37*
G36*
X185606372Y-95607343D02*
X185606382Y-95607346D01*
X185606419Y-95607350D01*
X185779266Y-95660855D01*
X185938428Y-95746913D01*
X186077843Y-95862248D01*
X186192201Y-96002465D01*
X186277147Y-96162224D01*
X186329444Y-96335439D01*
X186347100Y-96515514D01*
X186347100Y-96524486D01*
X186347010Y-96537430D01*
X186326841Y-96717241D01*
X186272130Y-96889710D01*
X186184963Y-97048267D01*
X186068658Y-97186874D01*
X185927646Y-97300250D01*
X185767298Y-97384078D01*
X185593721Y-97435165D01*
X185593685Y-97435168D01*
X185593676Y-97435171D01*
X185413530Y-97451565D01*
X185233628Y-97432657D01*
X185233618Y-97432654D01*
X185233581Y-97432650D01*
X185060734Y-97379145D01*
X184901572Y-97293087D01*
X184762157Y-97177752D01*
X184647799Y-97037535D01*
X184562853Y-96877776D01*
X184510556Y-96704561D01*
X184492900Y-96524486D01*
X184492900Y-96515514D01*
X184492990Y-96502570D01*
X184513159Y-96322759D01*
X184567870Y-96150290D01*
X184655037Y-95991733D01*
X184771342Y-95853126D01*
X184912354Y-95739750D01*
X185072702Y-95655922D01*
X185246279Y-95604835D01*
X185246315Y-95604832D01*
X185246324Y-95604829D01*
X185426470Y-95588435D01*
X185606372Y-95607343D01*
X185606372Y-95607343D01*
G37*
G36*
X183066372Y-95607343D02*
X183066382Y-95607346D01*
X183066419Y-95607350D01*
X183239266Y-95660855D01*
X183398428Y-95746913D01*
X183537843Y-95862248D01*
X183652201Y-96002465D01*
X183737147Y-96162224D01*
X183789444Y-96335439D01*
X183807100Y-96515514D01*
X183807100Y-96524486D01*
X183807010Y-96537430D01*
X183786841Y-96717241D01*
X183732130Y-96889710D01*
X183644963Y-97048267D01*
X183528658Y-97186874D01*
X183387646Y-97300250D01*
X183227298Y-97384078D01*
X183053721Y-97435165D01*
X183053685Y-97435168D01*
X183053676Y-97435171D01*
X182873530Y-97451565D01*
X182693628Y-97432657D01*
X182693618Y-97432654D01*
X182693581Y-97432650D01*
X182520734Y-97379145D01*
X182361572Y-97293087D01*
X182222157Y-97177752D01*
X182107799Y-97037535D01*
X182022853Y-96877776D01*
X181970556Y-96704561D01*
X181952900Y-96524486D01*
X181952900Y-96515514D01*
X181952990Y-96502570D01*
X181973159Y-96322759D01*
X182027870Y-96150290D01*
X182115037Y-95991733D01*
X182231342Y-95853126D01*
X182372354Y-95739750D01*
X182532702Y-95655922D01*
X182706279Y-95604835D01*
X182706315Y-95604832D01*
X182706324Y-95604829D01*
X182886470Y-95588435D01*
X183066372Y-95607343D01*
X183066372Y-95607343D01*
G37*
G36*
X180526372Y-95607343D02*
X180526382Y-95607346D01*
X180526419Y-95607350D01*
X180699266Y-95660855D01*
X180858428Y-95746913D01*
X180997843Y-95862248D01*
X181112201Y-96002465D01*
X181197147Y-96162224D01*
X181249444Y-96335439D01*
X181267100Y-96515514D01*
X181267100Y-96524486D01*
X181267010Y-96537430D01*
X181246841Y-96717241D01*
X181192130Y-96889710D01*
X181104963Y-97048267D01*
X180988658Y-97186874D01*
X180847646Y-97300250D01*
X180687298Y-97384078D01*
X180513721Y-97435165D01*
X180513685Y-97435168D01*
X180513676Y-97435171D01*
X180333530Y-97451565D01*
X180153628Y-97432657D01*
X180153618Y-97432654D01*
X180153581Y-97432650D01*
X179980734Y-97379145D01*
X179821572Y-97293087D01*
X179682157Y-97177752D01*
X179567799Y-97037535D01*
X179482853Y-96877776D01*
X179430556Y-96704561D01*
X179412900Y-96524486D01*
X179412900Y-96515514D01*
X179412990Y-96502570D01*
X179433159Y-96322759D01*
X179487870Y-96150290D01*
X179575037Y-95991733D01*
X179691342Y-95853126D01*
X179832354Y-95739750D01*
X179992702Y-95655922D01*
X180166279Y-95604835D01*
X180166315Y-95604832D01*
X180166324Y-95604829D01*
X180346470Y-95588435D01*
X180526372Y-95607343D01*
X180526372Y-95607343D01*
G37*
G36*
X177986372Y-95607343D02*
X177986382Y-95607346D01*
X177986419Y-95607350D01*
X178159266Y-95660855D01*
X178318428Y-95746913D01*
X178457843Y-95862248D01*
X178572201Y-96002465D01*
X178657147Y-96162224D01*
X178709444Y-96335439D01*
X178727100Y-96515514D01*
X178727100Y-96524486D01*
X178727010Y-96537430D01*
X178706841Y-96717241D01*
X178652130Y-96889710D01*
X178564963Y-97048267D01*
X178448658Y-97186874D01*
X178307646Y-97300250D01*
X178147298Y-97384078D01*
X177973721Y-97435165D01*
X177973685Y-97435168D01*
X177973676Y-97435171D01*
X177793530Y-97451565D01*
X177613628Y-97432657D01*
X177613618Y-97432654D01*
X177613581Y-97432650D01*
X177440734Y-97379145D01*
X177281572Y-97293087D01*
X177142157Y-97177752D01*
X177027799Y-97037535D01*
X176942853Y-96877776D01*
X176890556Y-96704561D01*
X176872900Y-96524486D01*
X176872900Y-96515514D01*
X176872990Y-96502570D01*
X176893159Y-96322759D01*
X176947870Y-96150290D01*
X177035037Y-95991733D01*
X177151342Y-95853126D01*
X177292354Y-95739750D01*
X177452702Y-95655922D01*
X177626279Y-95604835D01*
X177626315Y-95604832D01*
X177626324Y-95604829D01*
X177806470Y-95588435D01*
X177986372Y-95607343D01*
X177986372Y-95607343D01*
G37*
G36*
X175446372Y-95607343D02*
X175446382Y-95607346D01*
X175446419Y-95607350D01*
X175619266Y-95660855D01*
X175778428Y-95746913D01*
X175917843Y-95862248D01*
X176032201Y-96002465D01*
X176117147Y-96162224D01*
X176169444Y-96335439D01*
X176187100Y-96515514D01*
X176187100Y-96524486D01*
X176187010Y-96537430D01*
X176166841Y-96717241D01*
X176112130Y-96889710D01*
X176024963Y-97048267D01*
X175908658Y-97186874D01*
X175767646Y-97300250D01*
X175607298Y-97384078D01*
X175433721Y-97435165D01*
X175433685Y-97435168D01*
X175433676Y-97435171D01*
X175253530Y-97451565D01*
X175073628Y-97432657D01*
X175073618Y-97432654D01*
X175073581Y-97432650D01*
X174900734Y-97379145D01*
X174741572Y-97293087D01*
X174602157Y-97177752D01*
X174487799Y-97037535D01*
X174402853Y-96877776D01*
X174350556Y-96704561D01*
X174332900Y-96524486D01*
X174332900Y-96515514D01*
X174332990Y-96502570D01*
X174353159Y-96322759D01*
X174407870Y-96150290D01*
X174495037Y-95991733D01*
X174611342Y-95853126D01*
X174752354Y-95739750D01*
X174912702Y-95655922D01*
X175086279Y-95604835D01*
X175086315Y-95604832D01*
X175086324Y-95604829D01*
X175266470Y-95588435D01*
X175446372Y-95607343D01*
X175446372Y-95607343D01*
G37*
G36*
X214287100Y-97447100D02*
X212432900Y-97447100D01*
X212432900Y-95592900D01*
X214287100Y-95592900D01*
X214287100Y-97447100D01*
X214287100Y-97447100D01*
G37*
G36*
X211006372Y-92914206D02*
X211006382Y-92914209D01*
X211006419Y-92914213D01*
X211179266Y-92967718D01*
X211338428Y-93053776D01*
X211477843Y-93169111D01*
X211592201Y-93309328D01*
X211677147Y-93469087D01*
X211729444Y-93642302D01*
X211747100Y-93822377D01*
X211747100Y-94137623D01*
X211747010Y-94150567D01*
X211726841Y-94330378D01*
X211672130Y-94502847D01*
X211584963Y-94661404D01*
X211468658Y-94800011D01*
X211327646Y-94913387D01*
X211167298Y-94997215D01*
X210993721Y-95048302D01*
X210993685Y-95048305D01*
X210993676Y-95048308D01*
X210813530Y-95064702D01*
X210633628Y-95045794D01*
X210633618Y-95045791D01*
X210633581Y-95045787D01*
X210460734Y-94992282D01*
X210301572Y-94906224D01*
X210162157Y-94790889D01*
X210047799Y-94650672D01*
X209962853Y-94490913D01*
X209910556Y-94317698D01*
X209892900Y-94137623D01*
X209892900Y-93822377D01*
X209892990Y-93809433D01*
X209913159Y-93629622D01*
X209967870Y-93457153D01*
X210055037Y-93298596D01*
X210171342Y-93159989D01*
X210312354Y-93046613D01*
X210472702Y-92962785D01*
X210646279Y-92911698D01*
X210646315Y-92911695D01*
X210646324Y-92911692D01*
X210826470Y-92895298D01*
X211006372Y-92914206D01*
X211006372Y-92914206D01*
G37*
G36*
X208466372Y-92914206D02*
X208466382Y-92914209D01*
X208466419Y-92914213D01*
X208639266Y-92967718D01*
X208798428Y-93053776D01*
X208937843Y-93169111D01*
X209052201Y-93309328D01*
X209137147Y-93469087D01*
X209189444Y-93642302D01*
X209207100Y-93822377D01*
X209207100Y-94137623D01*
X209207010Y-94150567D01*
X209186841Y-94330378D01*
X209132130Y-94502847D01*
X209044963Y-94661404D01*
X208928658Y-94800011D01*
X208787646Y-94913387D01*
X208627298Y-94997215D01*
X208453721Y-95048302D01*
X208453685Y-95048305D01*
X208453676Y-95048308D01*
X208273530Y-95064702D01*
X208093628Y-95045794D01*
X208093618Y-95045791D01*
X208093581Y-95045787D01*
X207920734Y-94992282D01*
X207761572Y-94906224D01*
X207622157Y-94790889D01*
X207507799Y-94650672D01*
X207422853Y-94490913D01*
X207370556Y-94317698D01*
X207352900Y-94137623D01*
X207352900Y-93822377D01*
X207352990Y-93809433D01*
X207373159Y-93629622D01*
X207427870Y-93457153D01*
X207515037Y-93298596D01*
X207631342Y-93159989D01*
X207772354Y-93046613D01*
X207932702Y-92962785D01*
X208106279Y-92911698D01*
X208106315Y-92911695D01*
X208106324Y-92911692D01*
X208286470Y-92895298D01*
X208466372Y-92914206D01*
X208466372Y-92914206D01*
G37*
G36*
X205926372Y-92914206D02*
X205926382Y-92914209D01*
X205926419Y-92914213D01*
X206099266Y-92967718D01*
X206258428Y-93053776D01*
X206397843Y-93169111D01*
X206512201Y-93309328D01*
X206597147Y-93469087D01*
X206649444Y-93642302D01*
X206667100Y-93822377D01*
X206667100Y-94137623D01*
X206667010Y-94150567D01*
X206646841Y-94330378D01*
X206592130Y-94502847D01*
X206504963Y-94661404D01*
X206388658Y-94800011D01*
X206247646Y-94913387D01*
X206087298Y-94997215D01*
X205913721Y-95048302D01*
X205913685Y-95048305D01*
X205913676Y-95048308D01*
X205733530Y-95064702D01*
X205553628Y-95045794D01*
X205553618Y-95045791D01*
X205553581Y-95045787D01*
X205380734Y-94992282D01*
X205221572Y-94906224D01*
X205082157Y-94790889D01*
X204967799Y-94650672D01*
X204882853Y-94490913D01*
X204830556Y-94317698D01*
X204812900Y-94137623D01*
X204812900Y-93822377D01*
X204812990Y-93809433D01*
X204833159Y-93629622D01*
X204887870Y-93457153D01*
X204975037Y-93298596D01*
X205091342Y-93159989D01*
X205232354Y-93046613D01*
X205392702Y-92962785D01*
X205566279Y-92911698D01*
X205566315Y-92911695D01*
X205566324Y-92911692D01*
X205746470Y-92895298D01*
X205926372Y-92914206D01*
X205926372Y-92914206D01*
G37*
G36*
X203386372Y-92914206D02*
X203386382Y-92914209D01*
X203386419Y-92914213D01*
X203559266Y-92967718D01*
X203718428Y-93053776D01*
X203857843Y-93169111D01*
X203972201Y-93309328D01*
X204057147Y-93469087D01*
X204109444Y-93642302D01*
X204127100Y-93822377D01*
X204127100Y-94137623D01*
X204127010Y-94150567D01*
X204106841Y-94330378D01*
X204052130Y-94502847D01*
X203964963Y-94661404D01*
X203848658Y-94800011D01*
X203707646Y-94913387D01*
X203547298Y-94997215D01*
X203373721Y-95048302D01*
X203373685Y-95048305D01*
X203373676Y-95048308D01*
X203193530Y-95064702D01*
X203013628Y-95045794D01*
X203013618Y-95045791D01*
X203013581Y-95045787D01*
X202840734Y-94992282D01*
X202681572Y-94906224D01*
X202542157Y-94790889D01*
X202427799Y-94650672D01*
X202342853Y-94490913D01*
X202290556Y-94317698D01*
X202272900Y-94137623D01*
X202272900Y-93822377D01*
X202272990Y-93809433D01*
X202293159Y-93629622D01*
X202347870Y-93457153D01*
X202435037Y-93298596D01*
X202551342Y-93159989D01*
X202692354Y-93046613D01*
X202852702Y-92962785D01*
X203026279Y-92911698D01*
X203026315Y-92911695D01*
X203026324Y-92911692D01*
X203206470Y-92895298D01*
X203386372Y-92914206D01*
X203386372Y-92914206D01*
G37*
G36*
X200846372Y-92914206D02*
X200846382Y-92914209D01*
X200846419Y-92914213D01*
X201019266Y-92967718D01*
X201178428Y-93053776D01*
X201317843Y-93169111D01*
X201432201Y-93309328D01*
X201517147Y-93469087D01*
X201569444Y-93642302D01*
X201587100Y-93822377D01*
X201587100Y-94137623D01*
X201587010Y-94150567D01*
X201566841Y-94330378D01*
X201512130Y-94502847D01*
X201424963Y-94661404D01*
X201308658Y-94800011D01*
X201167646Y-94913387D01*
X201007298Y-94997215D01*
X200833721Y-95048302D01*
X200833685Y-95048305D01*
X200833676Y-95048308D01*
X200653530Y-95064702D01*
X200473628Y-95045794D01*
X200473618Y-95045791D01*
X200473581Y-95045787D01*
X200300734Y-94992282D01*
X200141572Y-94906224D01*
X200002157Y-94790889D01*
X199887799Y-94650672D01*
X199802853Y-94490913D01*
X199750556Y-94317698D01*
X199732900Y-94137623D01*
X199732900Y-93822377D01*
X199732990Y-93809433D01*
X199753159Y-93629622D01*
X199807870Y-93457153D01*
X199895037Y-93298596D01*
X200011342Y-93159989D01*
X200152354Y-93046613D01*
X200312702Y-92962785D01*
X200486279Y-92911698D01*
X200486315Y-92911695D01*
X200486324Y-92911692D01*
X200666470Y-92895298D01*
X200846372Y-92914206D01*
X200846372Y-92914206D01*
G37*
G36*
X198306372Y-92914206D02*
X198306382Y-92914209D01*
X198306419Y-92914213D01*
X198479266Y-92967718D01*
X198638428Y-93053776D01*
X198777843Y-93169111D01*
X198892201Y-93309328D01*
X198977147Y-93469087D01*
X199029444Y-93642302D01*
X199047100Y-93822377D01*
X199047100Y-94137623D01*
X199047010Y-94150567D01*
X199026841Y-94330378D01*
X198972130Y-94502847D01*
X198884963Y-94661404D01*
X198768658Y-94800011D01*
X198627646Y-94913387D01*
X198467298Y-94997215D01*
X198293721Y-95048302D01*
X198293685Y-95048305D01*
X198293676Y-95048308D01*
X198113530Y-95064702D01*
X197933628Y-95045794D01*
X197933618Y-95045791D01*
X197933581Y-95045787D01*
X197760734Y-94992282D01*
X197601572Y-94906224D01*
X197462157Y-94790889D01*
X197347799Y-94650672D01*
X197262853Y-94490913D01*
X197210556Y-94317698D01*
X197192900Y-94137623D01*
X197192900Y-93822377D01*
X197192990Y-93809433D01*
X197213159Y-93629622D01*
X197267870Y-93457153D01*
X197355037Y-93298596D01*
X197471342Y-93159989D01*
X197612354Y-93046613D01*
X197772702Y-92962785D01*
X197946279Y-92911698D01*
X197946315Y-92911695D01*
X197946324Y-92911692D01*
X198126470Y-92895298D01*
X198306372Y-92914206D01*
X198306372Y-92914206D01*
G37*
G36*
X195766372Y-92914206D02*
X195766382Y-92914209D01*
X195766419Y-92914213D01*
X195939266Y-92967718D01*
X196098428Y-93053776D01*
X196237843Y-93169111D01*
X196352201Y-93309328D01*
X196437147Y-93469087D01*
X196489444Y-93642302D01*
X196507100Y-93822377D01*
X196507100Y-94137623D01*
X196507010Y-94150567D01*
X196486841Y-94330378D01*
X196432130Y-94502847D01*
X196344963Y-94661404D01*
X196228658Y-94800011D01*
X196087646Y-94913387D01*
X195927298Y-94997215D01*
X195753721Y-95048302D01*
X195753685Y-95048305D01*
X195753676Y-95048308D01*
X195573530Y-95064702D01*
X195393628Y-95045794D01*
X195393618Y-95045791D01*
X195393581Y-95045787D01*
X195220734Y-94992282D01*
X195061572Y-94906224D01*
X194922157Y-94790889D01*
X194807799Y-94650672D01*
X194722853Y-94490913D01*
X194670556Y-94317698D01*
X194652900Y-94137623D01*
X194652900Y-93822377D01*
X194652990Y-93809433D01*
X194673159Y-93629622D01*
X194727870Y-93457153D01*
X194815037Y-93298596D01*
X194931342Y-93159989D01*
X195072354Y-93046613D01*
X195232702Y-92962785D01*
X195406279Y-92911698D01*
X195406315Y-92911695D01*
X195406324Y-92911692D01*
X195586470Y-92895298D01*
X195766372Y-92914206D01*
X195766372Y-92914206D01*
G37*
G36*
X193226372Y-92914206D02*
X193226382Y-92914209D01*
X193226419Y-92914213D01*
X193399266Y-92967718D01*
X193558428Y-93053776D01*
X193697843Y-93169111D01*
X193812201Y-93309328D01*
X193897147Y-93469087D01*
X193949444Y-93642302D01*
X193967100Y-93822377D01*
X193967100Y-94137623D01*
X193967010Y-94150567D01*
X193946841Y-94330378D01*
X193892130Y-94502847D01*
X193804963Y-94661404D01*
X193688658Y-94800011D01*
X193547646Y-94913387D01*
X193387298Y-94997215D01*
X193213721Y-95048302D01*
X193213685Y-95048305D01*
X193213676Y-95048308D01*
X193033530Y-95064702D01*
X192853628Y-95045794D01*
X192853618Y-95045791D01*
X192853581Y-95045787D01*
X192680734Y-94992282D01*
X192521572Y-94906224D01*
X192382157Y-94790889D01*
X192267799Y-94650672D01*
X192182853Y-94490913D01*
X192130556Y-94317698D01*
X192112900Y-94137623D01*
X192112900Y-93822377D01*
X192112990Y-93809433D01*
X192133159Y-93629622D01*
X192187870Y-93457153D01*
X192275037Y-93298596D01*
X192391342Y-93159989D01*
X192532354Y-93046613D01*
X192692702Y-92962785D01*
X192866279Y-92911698D01*
X192866315Y-92911695D01*
X192866324Y-92911692D01*
X193046470Y-92895298D01*
X193226372Y-92914206D01*
X193226372Y-92914206D01*
G37*
G36*
X190686372Y-92914206D02*
X190686382Y-92914209D01*
X190686419Y-92914213D01*
X190859266Y-92967718D01*
X191018428Y-93053776D01*
X191157843Y-93169111D01*
X191272201Y-93309328D01*
X191357147Y-93469087D01*
X191409444Y-93642302D01*
X191427100Y-93822377D01*
X191427100Y-94137623D01*
X191427010Y-94150567D01*
X191406841Y-94330378D01*
X191352130Y-94502847D01*
X191264963Y-94661404D01*
X191148658Y-94800011D01*
X191007646Y-94913387D01*
X190847298Y-94997215D01*
X190673721Y-95048302D01*
X190673685Y-95048305D01*
X190673676Y-95048308D01*
X190493530Y-95064702D01*
X190313628Y-95045794D01*
X190313618Y-95045791D01*
X190313581Y-95045787D01*
X190140734Y-94992282D01*
X189981572Y-94906224D01*
X189842157Y-94790889D01*
X189727799Y-94650672D01*
X189642853Y-94490913D01*
X189590556Y-94317698D01*
X189572900Y-94137623D01*
X189572900Y-93822377D01*
X189572990Y-93809433D01*
X189593159Y-93629622D01*
X189647870Y-93457153D01*
X189735037Y-93298596D01*
X189851342Y-93159989D01*
X189992354Y-93046613D01*
X190152702Y-92962785D01*
X190326279Y-92911698D01*
X190326315Y-92911695D01*
X190326324Y-92911692D01*
X190506470Y-92895298D01*
X190686372Y-92914206D01*
X190686372Y-92914206D01*
G37*
G36*
X188146372Y-92914206D02*
X188146382Y-92914209D01*
X188146419Y-92914213D01*
X188319266Y-92967718D01*
X188478428Y-93053776D01*
X188617843Y-93169111D01*
X188732201Y-93309328D01*
X188817147Y-93469087D01*
X188869444Y-93642302D01*
X188887100Y-93822377D01*
X188887100Y-94137623D01*
X188887010Y-94150567D01*
X188866841Y-94330378D01*
X188812130Y-94502847D01*
X188724963Y-94661404D01*
X188608658Y-94800011D01*
X188467646Y-94913387D01*
X188307298Y-94997215D01*
X188133721Y-95048302D01*
X188133685Y-95048305D01*
X188133676Y-95048308D01*
X187953530Y-95064702D01*
X187773628Y-95045794D01*
X187773618Y-95045791D01*
X187773581Y-95045787D01*
X187600734Y-94992282D01*
X187441572Y-94906224D01*
X187302157Y-94790889D01*
X187187799Y-94650672D01*
X187102853Y-94490913D01*
X187050556Y-94317698D01*
X187032900Y-94137623D01*
X187032900Y-93822377D01*
X187032990Y-93809433D01*
X187053159Y-93629622D01*
X187107870Y-93457153D01*
X187195037Y-93298596D01*
X187311342Y-93159989D01*
X187452354Y-93046613D01*
X187612702Y-92962785D01*
X187786279Y-92911698D01*
X187786315Y-92911695D01*
X187786324Y-92911692D01*
X187966470Y-92895298D01*
X188146372Y-92914206D01*
X188146372Y-92914206D01*
G37*
G36*
X185606372Y-92914206D02*
X185606382Y-92914209D01*
X185606419Y-92914213D01*
X185779266Y-92967718D01*
X185938428Y-93053776D01*
X186077843Y-93169111D01*
X186192201Y-93309328D01*
X186277147Y-93469087D01*
X186329444Y-93642302D01*
X186347100Y-93822377D01*
X186347100Y-94137623D01*
X186347010Y-94150567D01*
X186326841Y-94330378D01*
X186272130Y-94502847D01*
X186184963Y-94661404D01*
X186068658Y-94800011D01*
X185927646Y-94913387D01*
X185767298Y-94997215D01*
X185593721Y-95048302D01*
X185593685Y-95048305D01*
X185593676Y-95048308D01*
X185413530Y-95064702D01*
X185233628Y-95045794D01*
X185233618Y-95045791D01*
X185233581Y-95045787D01*
X185060734Y-94992282D01*
X184901572Y-94906224D01*
X184762157Y-94790889D01*
X184647799Y-94650672D01*
X184562853Y-94490913D01*
X184510556Y-94317698D01*
X184492900Y-94137623D01*
X184492900Y-93822377D01*
X184492990Y-93809433D01*
X184513159Y-93629622D01*
X184567870Y-93457153D01*
X184655037Y-93298596D01*
X184771342Y-93159989D01*
X184912354Y-93046613D01*
X185072702Y-92962785D01*
X185246279Y-92911698D01*
X185246315Y-92911695D01*
X185246324Y-92911692D01*
X185426470Y-92895298D01*
X185606372Y-92914206D01*
X185606372Y-92914206D01*
G37*
G36*
X183066372Y-92914206D02*
X183066382Y-92914209D01*
X183066419Y-92914213D01*
X183239266Y-92967718D01*
X183398428Y-93053776D01*
X183537843Y-93169111D01*
X183652201Y-93309328D01*
X183737147Y-93469087D01*
X183789444Y-93642302D01*
X183807100Y-93822377D01*
X183807100Y-94137623D01*
X183807010Y-94150567D01*
X183786841Y-94330378D01*
X183732130Y-94502847D01*
X183644963Y-94661404D01*
X183528658Y-94800011D01*
X183387646Y-94913387D01*
X183227298Y-94997215D01*
X183053721Y-95048302D01*
X183053685Y-95048305D01*
X183053676Y-95048308D01*
X182873530Y-95064702D01*
X182693628Y-95045794D01*
X182693618Y-95045791D01*
X182693581Y-95045787D01*
X182520734Y-94992282D01*
X182361572Y-94906224D01*
X182222157Y-94790889D01*
X182107799Y-94650672D01*
X182022853Y-94490913D01*
X181970556Y-94317698D01*
X181952900Y-94137623D01*
X181952900Y-93822377D01*
X181952990Y-93809433D01*
X181973159Y-93629622D01*
X182027870Y-93457153D01*
X182115037Y-93298596D01*
X182231342Y-93159989D01*
X182372354Y-93046613D01*
X182532702Y-92962785D01*
X182706279Y-92911698D01*
X182706315Y-92911695D01*
X182706324Y-92911692D01*
X182886470Y-92895298D01*
X183066372Y-92914206D01*
X183066372Y-92914206D01*
G37*
G36*
X180526372Y-92914206D02*
X180526382Y-92914209D01*
X180526419Y-92914213D01*
X180699266Y-92967718D01*
X180858428Y-93053776D01*
X180997843Y-93169111D01*
X181112201Y-93309328D01*
X181197147Y-93469087D01*
X181249444Y-93642302D01*
X181267100Y-93822377D01*
X181267100Y-94137623D01*
X181267010Y-94150567D01*
X181246841Y-94330378D01*
X181192130Y-94502847D01*
X181104963Y-94661404D01*
X180988658Y-94800011D01*
X180847646Y-94913387D01*
X180687298Y-94997215D01*
X180513721Y-95048302D01*
X180513685Y-95048305D01*
X180513676Y-95048308D01*
X180333530Y-95064702D01*
X180153628Y-95045794D01*
X180153618Y-95045791D01*
X180153581Y-95045787D01*
X179980734Y-94992282D01*
X179821572Y-94906224D01*
X179682157Y-94790889D01*
X179567799Y-94650672D01*
X179482853Y-94490913D01*
X179430556Y-94317698D01*
X179412900Y-94137623D01*
X179412900Y-93822377D01*
X179412990Y-93809433D01*
X179433159Y-93629622D01*
X179487870Y-93457153D01*
X179575037Y-93298596D01*
X179691342Y-93159989D01*
X179832354Y-93046613D01*
X179992702Y-92962785D01*
X180166279Y-92911698D01*
X180166315Y-92911695D01*
X180166324Y-92911692D01*
X180346470Y-92895298D01*
X180526372Y-92914206D01*
X180526372Y-92914206D01*
G37*
G36*
X177986372Y-92914206D02*
X177986382Y-92914209D01*
X177986419Y-92914213D01*
X178159266Y-92967718D01*
X178318428Y-93053776D01*
X178457843Y-93169111D01*
X178572201Y-93309328D01*
X178657147Y-93469087D01*
X178709444Y-93642302D01*
X178727100Y-93822377D01*
X178727100Y-94137623D01*
X178727010Y-94150567D01*
X178706841Y-94330378D01*
X178652130Y-94502847D01*
X178564963Y-94661404D01*
X178448658Y-94800011D01*
X178307646Y-94913387D01*
X178147298Y-94997215D01*
X177973721Y-95048302D01*
X177973685Y-95048305D01*
X177973676Y-95048308D01*
X177793530Y-95064702D01*
X177613628Y-95045794D01*
X177613618Y-95045791D01*
X177613581Y-95045787D01*
X177440734Y-94992282D01*
X177281572Y-94906224D01*
X177142157Y-94790889D01*
X177027799Y-94650672D01*
X176942853Y-94490913D01*
X176890556Y-94317698D01*
X176872900Y-94137623D01*
X176872900Y-93822377D01*
X176872990Y-93809433D01*
X176893159Y-93629622D01*
X176947870Y-93457153D01*
X177035037Y-93298596D01*
X177151342Y-93159989D01*
X177292354Y-93046613D01*
X177452702Y-92962785D01*
X177626279Y-92911698D01*
X177626315Y-92911695D01*
X177626324Y-92911692D01*
X177806470Y-92895298D01*
X177986372Y-92914206D01*
X177986372Y-92914206D01*
G37*
G36*
X175446372Y-92914206D02*
X175446382Y-92914209D01*
X175446419Y-92914213D01*
X175619266Y-92967718D01*
X175778428Y-93053776D01*
X175917843Y-93169111D01*
X176032201Y-93309328D01*
X176117147Y-93469087D01*
X176169444Y-93642302D01*
X176187100Y-93822377D01*
X176187100Y-94137623D01*
X176187010Y-94150567D01*
X176166841Y-94330378D01*
X176112130Y-94502847D01*
X176024963Y-94661404D01*
X175908658Y-94800011D01*
X175767646Y-94913387D01*
X175607298Y-94997215D01*
X175433721Y-95048302D01*
X175433685Y-95048305D01*
X175433676Y-95048308D01*
X175253530Y-95064702D01*
X175073628Y-95045794D01*
X175073618Y-95045791D01*
X175073581Y-95045787D01*
X174900734Y-94992282D01*
X174741572Y-94906224D01*
X174602157Y-94790889D01*
X174487799Y-94650672D01*
X174402853Y-94490913D01*
X174350556Y-94317698D01*
X174332900Y-94137623D01*
X174332900Y-93822377D01*
X174332990Y-93809433D01*
X174353159Y-93629622D01*
X174407870Y-93457153D01*
X174495037Y-93298596D01*
X174611342Y-93159989D01*
X174752354Y-93046613D01*
X174912702Y-92962785D01*
X175086279Y-92911698D01*
X175086315Y-92911695D01*
X175086324Y-92911692D01*
X175266470Y-92895298D01*
X175446372Y-92914206D01*
X175446372Y-92914206D01*
G37*
G36*
X214287100Y-95059500D02*
X212432900Y-95059500D01*
X212432900Y-92900500D01*
X214287100Y-92900500D01*
X214287100Y-95059500D01*
X214287100Y-95059500D01*
G37*
G36*
X218602776Y-93052936D02*
X218610567Y-93052990D01*
X218790378Y-93073159D01*
X218962847Y-93127870D01*
X219121404Y-93215037D01*
X219260011Y-93331342D01*
X219373387Y-93472354D01*
X219457215Y-93632702D01*
X219508302Y-93806279D01*
X219508305Y-93806315D01*
X219508308Y-93806324D01*
X219524702Y-93986470D01*
X219505794Y-94166372D01*
X219505791Y-94166382D01*
X219505787Y-94166419D01*
X219452282Y-94339266D01*
X219366224Y-94498428D01*
X219250889Y-94637843D01*
X219110672Y-94752201D01*
X218950913Y-94837147D01*
X218777698Y-94889444D01*
X218597623Y-94907100D01*
X218282340Y-94907100D01*
X218277224Y-94907064D01*
X218269433Y-94907010D01*
X218089622Y-94886841D01*
X217917153Y-94832130D01*
X217758596Y-94744963D01*
X217619989Y-94628658D01*
X217506613Y-94487646D01*
X217422785Y-94327298D01*
X217371698Y-94153721D01*
X217371695Y-94153685D01*
X217371692Y-94153676D01*
X217355298Y-93973530D01*
X217374206Y-93793628D01*
X217374209Y-93793618D01*
X217374213Y-93793581D01*
X217427718Y-93620734D01*
X217513776Y-93461572D01*
X217629111Y-93322157D01*
X217769328Y-93207799D01*
X217929087Y-93122853D01*
X218102302Y-93070556D01*
X218282377Y-93052900D01*
X218597660Y-93052900D01*
X218602776Y-93052936D01*
X218602776Y-93052936D01*
G37*
G36*
X170342776Y-90512936D02*
X170350567Y-90512990D01*
X170530378Y-90533159D01*
X170702847Y-90587870D01*
X170861404Y-90675037D01*
X171000011Y-90791342D01*
X171113387Y-90932354D01*
X171197215Y-91092702D01*
X171248302Y-91266279D01*
X171248305Y-91266315D01*
X171248308Y-91266324D01*
X171264702Y-91446470D01*
X171245794Y-91626372D01*
X171245791Y-91626382D01*
X171245787Y-91626419D01*
X171192282Y-91799266D01*
X171106224Y-91958428D01*
X170990889Y-92097843D01*
X170850672Y-92212201D01*
X170690913Y-92297147D01*
X170517698Y-92349444D01*
X170337623Y-92367100D01*
X170022340Y-92367100D01*
X170017224Y-92367064D01*
X170009433Y-92367010D01*
X169829622Y-92346841D01*
X169657153Y-92292130D01*
X169498596Y-92204963D01*
X169359989Y-92088658D01*
X169246613Y-91947646D01*
X169162785Y-91787298D01*
X169111698Y-91613721D01*
X169111695Y-91613685D01*
X169111692Y-91613676D01*
X169095298Y-91433530D01*
X169114206Y-91253628D01*
X169114209Y-91253618D01*
X169114213Y-91253581D01*
X169167718Y-91080734D01*
X169253776Y-90921572D01*
X169369111Y-90782157D01*
X169509328Y-90667799D01*
X169669087Y-90582853D01*
X169842302Y-90530556D01*
X170022377Y-90512900D01*
X170337660Y-90512900D01*
X170342776Y-90512936D01*
X170342776Y-90512936D01*
G37*
G36*
X218602776Y-90512936D02*
X218610567Y-90512990D01*
X218790378Y-90533159D01*
X218962847Y-90587870D01*
X219121404Y-90675037D01*
X219260011Y-90791342D01*
X219373387Y-90932354D01*
X219457215Y-91092702D01*
X219508302Y-91266279D01*
X219508305Y-91266315D01*
X219508308Y-91266324D01*
X219524702Y-91446470D01*
X219505794Y-91626372D01*
X219505791Y-91626382D01*
X219505787Y-91626419D01*
X219452282Y-91799266D01*
X219366224Y-91958428D01*
X219250889Y-92097843D01*
X219110672Y-92212201D01*
X218950913Y-92297147D01*
X218777698Y-92349444D01*
X218597623Y-92367100D01*
X218282340Y-92367100D01*
X218277224Y-92367064D01*
X218269433Y-92367010D01*
X218089622Y-92346841D01*
X217917153Y-92292130D01*
X217758596Y-92204963D01*
X217619989Y-92088658D01*
X217506613Y-91947646D01*
X217422785Y-91787298D01*
X217371698Y-91613721D01*
X217371695Y-91613685D01*
X217371692Y-91613676D01*
X217355298Y-91433530D01*
X217374206Y-91253628D01*
X217374209Y-91253618D01*
X217374213Y-91253581D01*
X217427718Y-91080734D01*
X217513776Y-90921572D01*
X217629111Y-90782157D01*
X217769328Y-90667799D01*
X217929087Y-90582853D01*
X218102302Y-90530556D01*
X218282377Y-90512900D01*
X218597660Y-90512900D01*
X218602776Y-90512936D01*
X218602776Y-90512936D01*
G37*
G36*
X216813500Y-92313500D02*
X216186500Y-92313500D01*
X216186500Y-91586500D01*
X216813500Y-91586500D01*
X216813500Y-92313500D01*
X216813500Y-92313500D01*
G37*
G36*
X216028500Y-92293500D02*
X214571500Y-92293500D01*
X214571500Y-91606500D01*
X216028500Y-91606500D01*
X216028500Y-92293500D01*
X216028500Y-92293500D01*
G37*
G36*
X213628500Y-90393500D02*
X212164300Y-90393500D01*
X212150147Y-90395511D01*
X212137116Y-90401386D01*
X212126236Y-90410658D01*
X212118371Y-90422594D01*
X212114142Y-90436249D01*
X212113500Y-90444300D01*
X212113500Y-90605700D01*
X212115511Y-90619853D01*
X212121386Y-90632884D01*
X212130658Y-90643764D01*
X212142594Y-90651629D01*
X212156249Y-90655858D01*
X212164300Y-90656500D01*
X213628500Y-90656500D01*
X213628500Y-91343500D01*
X212164300Y-91343500D01*
X212150147Y-91345511D01*
X212137116Y-91351386D01*
X212126236Y-91360658D01*
X212118371Y-91372594D01*
X212114142Y-91386249D01*
X212113500Y-91394300D01*
X212113500Y-91555700D01*
X212115511Y-91569853D01*
X212121386Y-91582884D01*
X212130658Y-91593764D01*
X212142594Y-91601629D01*
X212156249Y-91605858D01*
X212164300Y-91606500D01*
X213628500Y-91606500D01*
X213628500Y-92293500D01*
X212171500Y-92293500D01*
X212171500Y-91814300D01*
X212169489Y-91800147D01*
X212163614Y-91787116D01*
X212154342Y-91776236D01*
X212142406Y-91768371D01*
X212128751Y-91764142D01*
X212120700Y-91763500D01*
X211486500Y-91763500D01*
X211486500Y-91036500D01*
X212120700Y-91036500D01*
X212134853Y-91034489D01*
X212147884Y-91028614D01*
X212158764Y-91019342D01*
X212166629Y-91007406D01*
X212170858Y-90993751D01*
X212171500Y-90985700D01*
X212171500Y-90714300D01*
X212169489Y-90700147D01*
X212163614Y-90687116D01*
X212154342Y-90676236D01*
X212142406Y-90668371D01*
X212128751Y-90664142D01*
X212120700Y-90663500D01*
X211486500Y-90663500D01*
X211486500Y-89936500D01*
X212120700Y-89936500D01*
X212134853Y-89934489D01*
X212147884Y-89928614D01*
X212158764Y-89919342D01*
X212166629Y-89907406D01*
X212170858Y-89893751D01*
X212171500Y-89885700D01*
X212171500Y-89706500D01*
X213628500Y-89706500D01*
X213628500Y-90393500D01*
X213628500Y-90393500D01*
G37*
G36*
X176508500Y-92113500D02*
X175471500Y-92113500D01*
X175471500Y-90766500D01*
X176508500Y-90766500D01*
X176508500Y-92113500D01*
X176508500Y-92113500D01*
G37*
G36*
X173238500Y-92113500D02*
X172201500Y-92113500D01*
X172201500Y-90766500D01*
X173238500Y-90766500D01*
X173238500Y-92113500D01*
X173238500Y-92113500D01*
G37*
G36*
X211163500Y-91663500D02*
X210436500Y-91663500D01*
X210436500Y-91136500D01*
X211163500Y-91136500D01*
X211163500Y-91663500D01*
X211163500Y-91663500D01*
G37*
G36*
X216028500Y-91343500D02*
X214571500Y-91343500D01*
X214571500Y-90656500D01*
X216028500Y-90656500D01*
X216028500Y-91343500D01*
X216028500Y-91343500D01*
G37*
G36*
X216813500Y-91213500D02*
X216186500Y-91213500D01*
X216186500Y-90486500D01*
X216813500Y-90486500D01*
X216813500Y-91213500D01*
X216813500Y-91213500D01*
G37*
G36*
X211163500Y-90763500D02*
X210436500Y-90763500D01*
X210436500Y-90236500D01*
X211163500Y-90236500D01*
X211163500Y-90763500D01*
X211163500Y-90763500D01*
G37*
G36*
X215713500Y-89655700D02*
X215715511Y-89669853D01*
X215721386Y-89682884D01*
X215730658Y-89693764D01*
X215742594Y-89701629D01*
X215756249Y-89705858D01*
X215764300Y-89706500D01*
X216028500Y-89706500D01*
X216028500Y-90393500D01*
X214571500Y-90393500D01*
X214571500Y-89706500D01*
X214935700Y-89706500D01*
X214949853Y-89704489D01*
X214962884Y-89698614D01*
X214973764Y-89689342D01*
X214981629Y-89677406D01*
X214985858Y-89663751D01*
X214986500Y-89655700D01*
X214986500Y-88986500D01*
X215713500Y-88986500D01*
X215713500Y-89655700D01*
X215713500Y-89655700D01*
G37*
G36*
X211163500Y-90113500D02*
X210436500Y-90113500D01*
X210436500Y-89586500D01*
X211163500Y-89586500D01*
X211163500Y-90113500D01*
X211163500Y-90113500D01*
G37*
G36*
X218602776Y-87972936D02*
X218610567Y-87972990D01*
X218790378Y-87993159D01*
X218962847Y-88047870D01*
X219121404Y-88135037D01*
X219260011Y-88251342D01*
X219373387Y-88392354D01*
X219457215Y-88552702D01*
X219508302Y-88726279D01*
X219508305Y-88726315D01*
X219508308Y-88726324D01*
X219524702Y-88906470D01*
X219505794Y-89086372D01*
X219505791Y-89086382D01*
X219505787Y-89086419D01*
X219452282Y-89259266D01*
X219366224Y-89418428D01*
X219250889Y-89557843D01*
X219110672Y-89672201D01*
X218950913Y-89757147D01*
X218777698Y-89809444D01*
X218597623Y-89827100D01*
X218282340Y-89827100D01*
X218277224Y-89827064D01*
X218269433Y-89827010D01*
X218089622Y-89806841D01*
X217917153Y-89752130D01*
X217758596Y-89664963D01*
X217619989Y-89548658D01*
X217506613Y-89407646D01*
X217422785Y-89247298D01*
X217371698Y-89073721D01*
X217371695Y-89073685D01*
X217371692Y-89073676D01*
X217355298Y-88893530D01*
X217374206Y-88713628D01*
X217374209Y-88713618D01*
X217374213Y-88713581D01*
X217427718Y-88540734D01*
X217513776Y-88381572D01*
X217629111Y-88242157D01*
X217769328Y-88127799D01*
X217929087Y-88042853D01*
X218102302Y-87990556D01*
X218282377Y-87972900D01*
X218597660Y-87972900D01*
X218602776Y-87972936D01*
X218602776Y-87972936D01*
G37*
G36*
X170342776Y-87972936D02*
X170350567Y-87972990D01*
X170530378Y-87993159D01*
X170702847Y-88047870D01*
X170861404Y-88135037D01*
X171000011Y-88251342D01*
X171113387Y-88392354D01*
X171197215Y-88552702D01*
X171248302Y-88726279D01*
X171248305Y-88726315D01*
X171248308Y-88726324D01*
X171264702Y-88906470D01*
X171245794Y-89086372D01*
X171245791Y-89086382D01*
X171245787Y-89086419D01*
X171192282Y-89259266D01*
X171106224Y-89418428D01*
X170990889Y-89557843D01*
X170850672Y-89672201D01*
X170690913Y-89757147D01*
X170517698Y-89809444D01*
X170337623Y-89827100D01*
X170022340Y-89827100D01*
X170017224Y-89827064D01*
X170009433Y-89827010D01*
X169829622Y-89806841D01*
X169657153Y-89752130D01*
X169498596Y-89664963D01*
X169359989Y-89548658D01*
X169246613Y-89407646D01*
X169162785Y-89247298D01*
X169111698Y-89073721D01*
X169111695Y-89073685D01*
X169111692Y-89073676D01*
X169095298Y-88893530D01*
X169114206Y-88713628D01*
X169114209Y-88713618D01*
X169114213Y-88713581D01*
X169167718Y-88540734D01*
X169253776Y-88381572D01*
X169369111Y-88242157D01*
X169509328Y-88127799D01*
X169669087Y-88042853D01*
X169842302Y-87990556D01*
X170022377Y-87972900D01*
X170337660Y-87972900D01*
X170342776Y-87972936D01*
X170342776Y-87972936D01*
G37*
G36*
X216813500Y-89613500D02*
X216086500Y-89613500D01*
X216086500Y-88986500D01*
X216813500Y-88986500D01*
X216813500Y-89613500D01*
X216813500Y-89613500D01*
G37*
G36*
X213913500Y-89413500D02*
X213186500Y-89413500D01*
X213186500Y-88786500D01*
X213913500Y-88786500D01*
X213913500Y-89413500D01*
X213913500Y-89413500D01*
G37*
G36*
X212813500Y-89413500D02*
X212086500Y-89413500D01*
X212086500Y-88786500D01*
X212813500Y-88786500D01*
X212813500Y-89413500D01*
X212813500Y-89413500D01*
G37*
G36*
X211163500Y-89213500D02*
X210436500Y-89213500D01*
X210436500Y-88686500D01*
X211163500Y-88686500D01*
X211163500Y-89213500D01*
X211163500Y-89213500D01*
G37*
G36*
X213013500Y-88613500D02*
X212386500Y-88613500D01*
X212386500Y-87886500D01*
X213013500Y-87886500D01*
X213013500Y-88613500D01*
X213013500Y-88613500D01*
G37*
G36*
X217028500Y-88593500D02*
X215571500Y-88593500D01*
X215571500Y-87906500D01*
X217028500Y-87906500D01*
X217028500Y-88593500D01*
X217028500Y-88593500D01*
G37*
G36*
X214628500Y-88593500D02*
X213171500Y-88593500D01*
X213171500Y-87906500D01*
X214628500Y-87906500D01*
X214628500Y-88593500D01*
X214628500Y-88593500D01*
G37*
G36*
X214628500Y-87643500D02*
X213171500Y-87643500D01*
X213171500Y-86956500D01*
X214628500Y-86956500D01*
X214628500Y-87643500D01*
X214628500Y-87643500D01*
G37*
G36*
X217028500Y-87643500D02*
X215571500Y-87643500D01*
X215571500Y-86956500D01*
X217028500Y-86956500D01*
X217028500Y-87643500D01*
X217028500Y-87643500D01*
G37*
G36*
X213013500Y-87513500D02*
X212386500Y-87513500D01*
X212386500Y-86786500D01*
X213013500Y-86786500D01*
X213013500Y-87513500D01*
X213013500Y-87513500D01*
G37*
G36*
X218602776Y-85432936D02*
X218610567Y-85432990D01*
X218790378Y-85453159D01*
X218962847Y-85507870D01*
X219121404Y-85595037D01*
X219260011Y-85711342D01*
X219373387Y-85852354D01*
X219457215Y-86012702D01*
X219508302Y-86186279D01*
X219508305Y-86186315D01*
X219508308Y-86186324D01*
X219524702Y-86366470D01*
X219505794Y-86546372D01*
X219505791Y-86546382D01*
X219505787Y-86546419D01*
X219452282Y-86719266D01*
X219366224Y-86878428D01*
X219250889Y-87017843D01*
X219110672Y-87132201D01*
X218950913Y-87217147D01*
X218777698Y-87269444D01*
X218597623Y-87287100D01*
X218282340Y-87287100D01*
X218277224Y-87287064D01*
X218269433Y-87287010D01*
X218089622Y-87266841D01*
X217917153Y-87212130D01*
X217758596Y-87124963D01*
X217619989Y-87008658D01*
X217506613Y-86867646D01*
X217422785Y-86707298D01*
X217371698Y-86533721D01*
X217371695Y-86533685D01*
X217371692Y-86533676D01*
X217355298Y-86353530D01*
X217374206Y-86173628D01*
X217374209Y-86173618D01*
X217374213Y-86173581D01*
X217427718Y-86000734D01*
X217513776Y-85841572D01*
X217629111Y-85702157D01*
X217769328Y-85587799D01*
X217929087Y-85502853D01*
X218102302Y-85450556D01*
X218282377Y-85432900D01*
X218597660Y-85432900D01*
X218602776Y-85432936D01*
X218602776Y-85432936D01*
G37*
G36*
X171259500Y-87287100D02*
X169100500Y-87287100D01*
X169100500Y-85432900D01*
X171259500Y-85432900D01*
X171259500Y-87287100D01*
X171259500Y-87287100D01*
G37*
G36*
X173238500Y-87033500D02*
X172201500Y-87033500D01*
X172201500Y-85686500D01*
X173238500Y-85686500D01*
X173238500Y-87033500D01*
X173238500Y-87033500D01*
G37*
G36*
X176508500Y-87033500D02*
X175471500Y-87033500D01*
X175471500Y-85686500D01*
X176508500Y-85686500D01*
X176508500Y-87033500D01*
X176508500Y-87033500D01*
G37*
G36*
X217028500Y-86693500D02*
X215571500Y-86693500D01*
X215571500Y-86006500D01*
X217028500Y-86006500D01*
X217028500Y-86693500D01*
X217028500Y-86693500D01*
G37*
G36*
X214628500Y-86693500D02*
X213171500Y-86693500D01*
X213171500Y-86006500D01*
X214628500Y-86006500D01*
X214628500Y-86693500D01*
X214628500Y-86693500D01*
G37*
G36*
X215363500Y-85413500D02*
X214636500Y-85413500D01*
X214636500Y-84786500D01*
X215363500Y-84786500D01*
X215363500Y-85413500D01*
X215363500Y-85413500D01*
G37*
G36*
X216463500Y-85413500D02*
X215736500Y-85413500D01*
X215736500Y-84786500D01*
X216463500Y-84786500D01*
X216463500Y-85413500D01*
X216463500Y-85413500D01*
G37*
G36*
X170342776Y-82892936D02*
X170350567Y-82892990D01*
X170530378Y-82913159D01*
X170702847Y-82967870D01*
X170861404Y-83055037D01*
X171000011Y-83171342D01*
X171113387Y-83312354D01*
X171197215Y-83472702D01*
X171248302Y-83646279D01*
X171248305Y-83646315D01*
X171248308Y-83646324D01*
X171264702Y-83826470D01*
X171245794Y-84006372D01*
X171245791Y-84006382D01*
X171245787Y-84006419D01*
X171192282Y-84179266D01*
X171106224Y-84338428D01*
X170990889Y-84477843D01*
X170850672Y-84592201D01*
X170690913Y-84677147D01*
X170517698Y-84729444D01*
X170337623Y-84747100D01*
X170022340Y-84747100D01*
X170017224Y-84747064D01*
X170009433Y-84747010D01*
X169829622Y-84726841D01*
X169657153Y-84672130D01*
X169498596Y-84584963D01*
X169359989Y-84468658D01*
X169246613Y-84327646D01*
X169162785Y-84167298D01*
X169111698Y-83993721D01*
X169111695Y-83993685D01*
X169111692Y-83993676D01*
X169095298Y-83813530D01*
X169114206Y-83633628D01*
X169114209Y-83633618D01*
X169114213Y-83633581D01*
X169167718Y-83460734D01*
X169253776Y-83301572D01*
X169369111Y-83162157D01*
X169509328Y-83047799D01*
X169669087Y-82962853D01*
X169842302Y-82910556D01*
X170022377Y-82892900D01*
X170337660Y-82892900D01*
X170342776Y-82892936D01*
X170342776Y-82892936D01*
G37*
G36*
X218602776Y-82892936D02*
X218610567Y-82892990D01*
X218790378Y-82913159D01*
X218962847Y-82967870D01*
X219121404Y-83055037D01*
X219260011Y-83171342D01*
X219373387Y-83312354D01*
X219457215Y-83472702D01*
X219508302Y-83646279D01*
X219508305Y-83646315D01*
X219508308Y-83646324D01*
X219524702Y-83826470D01*
X219505794Y-84006372D01*
X219505791Y-84006382D01*
X219505787Y-84006419D01*
X219452282Y-84179266D01*
X219366224Y-84338428D01*
X219250889Y-84477843D01*
X219110672Y-84592201D01*
X218950913Y-84677147D01*
X218777698Y-84729444D01*
X218597623Y-84747100D01*
X218282340Y-84747100D01*
X218277224Y-84747064D01*
X218269433Y-84747010D01*
X218089622Y-84726841D01*
X217917153Y-84672130D01*
X217758596Y-84584963D01*
X217619989Y-84468658D01*
X217506613Y-84327646D01*
X217422785Y-84167298D01*
X217371698Y-83993721D01*
X217371695Y-83993685D01*
X217371692Y-83993676D01*
X217355298Y-83813530D01*
X217374206Y-83633628D01*
X217374209Y-83633618D01*
X217374213Y-83633581D01*
X217427718Y-83460734D01*
X217513776Y-83301572D01*
X217629111Y-83162157D01*
X217769328Y-83047799D01*
X217929087Y-82962853D01*
X218102302Y-82910556D01*
X218282377Y-82892900D01*
X218597660Y-82892900D01*
X218602776Y-82892936D01*
X218602776Y-82892936D01*
G37*
G36*
X176508500Y-84493500D02*
X175471500Y-84493500D01*
X175471500Y-83146500D01*
X176508500Y-83146500D01*
X176508500Y-84493500D01*
X176508500Y-84493500D01*
G37*
G36*
X173238500Y-84493500D02*
X172201500Y-84493500D01*
X172201500Y-83146500D01*
X173238500Y-83146500D01*
X173238500Y-84493500D01*
X173238500Y-84493500D01*
G37*
G36*
X210863500Y-84463500D02*
X208136500Y-84463500D01*
X208136500Y-83536500D01*
X210863500Y-83536500D01*
X210863500Y-84463500D01*
X210863500Y-84463500D01*
G37*
G36*
X215413500Y-84363500D02*
X214886500Y-84363500D01*
X214886500Y-83636500D01*
X215413500Y-83636500D01*
X215413500Y-84363500D01*
X215413500Y-84363500D01*
G37*
G36*
X216313500Y-84363500D02*
X215786500Y-84363500D01*
X215786500Y-83636500D01*
X216313500Y-83636500D01*
X216313500Y-84363500D01*
X216313500Y-84363500D01*
G37*
G36*
X216913500Y-83463500D02*
X214286500Y-83463500D01*
X214286500Y-82336500D01*
X216913500Y-82336500D01*
X216913500Y-83463500D01*
X216913500Y-83463500D01*
G37*
G36*
X210913500Y-83413500D02*
X208086500Y-83413500D01*
X208086500Y-80586500D01*
X210913500Y-80586500D01*
X210913500Y-83413500D01*
X210913500Y-83413500D01*
G37*
G36*
X207963500Y-83363500D02*
X207036500Y-83363500D01*
X207036500Y-80636500D01*
X207963500Y-80636500D01*
X207963500Y-83363500D01*
X207963500Y-83363500D01*
G37*
G36*
X211963500Y-83363500D02*
X211036500Y-83363500D01*
X211036500Y-80636500D01*
X211963500Y-80636500D01*
X211963500Y-83363500D01*
X211963500Y-83363500D01*
G37*
G36*
X198763500Y-83013500D02*
X198136500Y-83013500D01*
X198136500Y-81986500D01*
X198763500Y-81986500D01*
X198763500Y-83013500D01*
X198763500Y-83013500D01*
G37*
G36*
X197263500Y-83013500D02*
X196636500Y-83013500D01*
X196636500Y-81986500D01*
X197263500Y-81986500D01*
X197263500Y-83013500D01*
X197263500Y-83013500D01*
G37*
G36*
X170342776Y-80352936D02*
X170350567Y-80352990D01*
X170530378Y-80373159D01*
X170702847Y-80427870D01*
X170861404Y-80515037D01*
X171000011Y-80631342D01*
X171113387Y-80772354D01*
X171197215Y-80932702D01*
X171248302Y-81106279D01*
X171248305Y-81106315D01*
X171248308Y-81106324D01*
X171264702Y-81286470D01*
X171245794Y-81466372D01*
X171245791Y-81466382D01*
X171245787Y-81466419D01*
X171192282Y-81639266D01*
X171106224Y-81798428D01*
X170990889Y-81937843D01*
X170850672Y-82052201D01*
X170690913Y-82137147D01*
X170517698Y-82189444D01*
X170337623Y-82207100D01*
X170022340Y-82207100D01*
X170017224Y-82207064D01*
X170009433Y-82207010D01*
X169829622Y-82186841D01*
X169657153Y-82132130D01*
X169498596Y-82044963D01*
X169359989Y-81928658D01*
X169246613Y-81787646D01*
X169162785Y-81627298D01*
X169111698Y-81453721D01*
X169111695Y-81453685D01*
X169111692Y-81453676D01*
X169095298Y-81273530D01*
X169114206Y-81093628D01*
X169114209Y-81093618D01*
X169114213Y-81093581D01*
X169167718Y-80920734D01*
X169253776Y-80761572D01*
X169369111Y-80622157D01*
X169509328Y-80507799D01*
X169669087Y-80422853D01*
X169842302Y-80370556D01*
X170022377Y-80352900D01*
X170337660Y-80352900D01*
X170342776Y-80352936D01*
X170342776Y-80352936D01*
G37*
G36*
X218602776Y-80352936D02*
X218610567Y-80352990D01*
X218790378Y-80373159D01*
X218962847Y-80427870D01*
X219121404Y-80515037D01*
X219260011Y-80631342D01*
X219373387Y-80772354D01*
X219457215Y-80932702D01*
X219508302Y-81106279D01*
X219508305Y-81106315D01*
X219508308Y-81106324D01*
X219524702Y-81286470D01*
X219505794Y-81466372D01*
X219505791Y-81466382D01*
X219505787Y-81466419D01*
X219452282Y-81639266D01*
X219366224Y-81798428D01*
X219250889Y-81937843D01*
X219110672Y-82052201D01*
X218950913Y-82137147D01*
X218777698Y-82189444D01*
X218597623Y-82207100D01*
X218282340Y-82207100D01*
X218277224Y-82207064D01*
X218269433Y-82207010D01*
X218089622Y-82186841D01*
X217917153Y-82132130D01*
X217758596Y-82044963D01*
X217619989Y-81928658D01*
X217506613Y-81787646D01*
X217422785Y-81627298D01*
X217371698Y-81453721D01*
X217371695Y-81453685D01*
X217371692Y-81453676D01*
X217355298Y-81273530D01*
X217374206Y-81093628D01*
X217374209Y-81093618D01*
X217374213Y-81093581D01*
X217427718Y-80920734D01*
X217513776Y-80761572D01*
X217629111Y-80622157D01*
X217769328Y-80507799D01*
X217929087Y-80422853D01*
X218102302Y-80370556D01*
X218282377Y-80352900D01*
X218597660Y-80352900D01*
X218602776Y-80352936D01*
X218602776Y-80352936D01*
G37*
G36*
X213313500Y-80763500D02*
X212686500Y-80763500D01*
X212686500Y-80036500D01*
X213313500Y-80036500D01*
X213313500Y-80763500D01*
X213313500Y-80763500D01*
G37*
G36*
X216913500Y-80463500D02*
X214286500Y-80463500D01*
X214286500Y-79336500D01*
X216913500Y-79336500D01*
X216913500Y-80463500D01*
X216913500Y-80463500D01*
G37*
G36*
X210863500Y-80463500D02*
X208136500Y-80463500D01*
X208136500Y-79536500D01*
X210863500Y-79536500D01*
X210863500Y-80463500D01*
X210863500Y-80463500D01*
G37*
G36*
X185082500Y-80295500D02*
X182455500Y-80295500D01*
X182455500Y-79168500D01*
X185082500Y-79168500D01*
X185082500Y-80295500D01*
X185082500Y-80295500D01*
G37*
G36*
X188130500Y-80195500D02*
X185503500Y-80195500D01*
X185503500Y-79168500D01*
X188130500Y-79168500D01*
X188130500Y-80195500D01*
X188130500Y-80195500D01*
G37*
G36*
X207113500Y-80113500D02*
X206086500Y-80113500D01*
X206086500Y-79486500D01*
X207113500Y-79486500D01*
X207113500Y-80113500D01*
X207113500Y-80113500D01*
G37*
G36*
X218602776Y-77812936D02*
X218610567Y-77812990D01*
X218790378Y-77833159D01*
X218962847Y-77887870D01*
X219121404Y-77975037D01*
X219260011Y-78091342D01*
X219373387Y-78232354D01*
X219457215Y-78392702D01*
X219508302Y-78566279D01*
X219508305Y-78566315D01*
X219508308Y-78566324D01*
X219524702Y-78746470D01*
X219505794Y-78926372D01*
X219505791Y-78926382D01*
X219505787Y-78926419D01*
X219452282Y-79099266D01*
X219366224Y-79258428D01*
X219250889Y-79397843D01*
X219110672Y-79512201D01*
X218950913Y-79597147D01*
X218777698Y-79649444D01*
X218597623Y-79667100D01*
X218282340Y-79667100D01*
X218277224Y-79667064D01*
X218269433Y-79667010D01*
X218089622Y-79646841D01*
X217917153Y-79592130D01*
X217758596Y-79504963D01*
X217619989Y-79388658D01*
X217506613Y-79247646D01*
X217422785Y-79087298D01*
X217371698Y-78913721D01*
X217371695Y-78913685D01*
X217371692Y-78913676D01*
X217355298Y-78733530D01*
X217374206Y-78553628D01*
X217374209Y-78553618D01*
X217374213Y-78553581D01*
X217427718Y-78380734D01*
X217513776Y-78221572D01*
X217629111Y-78082157D01*
X217769328Y-77967799D01*
X217929087Y-77882853D01*
X218102302Y-77830556D01*
X218282377Y-77812900D01*
X218597660Y-77812900D01*
X218602776Y-77812936D01*
X218602776Y-77812936D01*
G37*
G36*
X171259500Y-79667100D02*
X169100500Y-79667100D01*
X169100500Y-77812900D01*
X171259500Y-77812900D01*
X171259500Y-79667100D01*
X171259500Y-79667100D01*
G37*
G36*
X213313500Y-79663500D02*
X212686500Y-79663500D01*
X212686500Y-78936500D01*
X213313500Y-78936500D01*
X213313500Y-79663500D01*
X213313500Y-79663500D01*
G37*
G36*
X173238500Y-79413500D02*
X172201500Y-79413500D01*
X172201500Y-78066500D01*
X173238500Y-78066500D01*
X173238500Y-79413500D01*
X173238500Y-79413500D01*
G37*
G36*
X176508500Y-79413500D02*
X175471500Y-79413500D01*
X175471500Y-78066500D01*
X176508500Y-78066500D01*
X176508500Y-79413500D01*
X176508500Y-79413500D01*
G37*
G36*
X210613500Y-78813500D02*
X209886500Y-78813500D01*
X209886500Y-78186500D01*
X210613500Y-78186500D01*
X210613500Y-78813500D01*
X210613500Y-78813500D01*
G37*
G36*
X209513500Y-78813500D02*
X208786500Y-78813500D01*
X208786500Y-78186500D01*
X209513500Y-78186500D01*
X209513500Y-78813500D01*
X209513500Y-78813500D01*
G37*
G36*
X207113500Y-78613500D02*
X206086500Y-78613500D01*
X206086500Y-77986500D01*
X207113500Y-77986500D01*
X207113500Y-78613500D01*
X207113500Y-78613500D01*
G37*
G36*
X213488500Y-78363500D02*
X212611500Y-78363500D01*
X212611500Y-77436500D01*
X213488500Y-77436500D01*
X213488500Y-78363500D01*
X213488500Y-78363500D01*
G37*
G36*
X210913500Y-77488500D02*
X209986500Y-77488500D01*
X209986500Y-76611500D01*
X210913500Y-76611500D01*
X210913500Y-77488500D01*
X210913500Y-77488500D01*
G37*
G36*
X209413500Y-77488500D02*
X208486500Y-77488500D01*
X208486500Y-76611500D01*
X209413500Y-76611500D01*
X209413500Y-77488500D01*
X209413500Y-77488500D01*
G37*
G36*
X206313500Y-77363500D02*
X205286500Y-77363500D01*
X205286500Y-76736500D01*
X206313500Y-76736500D01*
X206313500Y-77363500D01*
X206313500Y-77363500D01*
G37*
G36*
X204713500Y-77363500D02*
X203686500Y-77363500D01*
X203686500Y-76736500D01*
X204713500Y-76736500D01*
X204713500Y-77363500D01*
X204713500Y-77363500D01*
G37*
G36*
X185082500Y-77295500D02*
X182455500Y-77295500D01*
X182455500Y-76168500D01*
X185082500Y-76168500D01*
X185082500Y-77295500D01*
X185082500Y-77295500D01*
G37*
G36*
X188130500Y-77295500D02*
X185503500Y-77295500D01*
X185503500Y-76268500D01*
X188130500Y-76268500D01*
X188130500Y-77295500D01*
X188130500Y-77295500D01*
G37*
G36*
X219519500Y-77127100D02*
X217360500Y-77127100D01*
X217360500Y-75272900D01*
X219519500Y-75272900D01*
X219519500Y-77127100D01*
X219519500Y-77127100D01*
G37*
G36*
X201413500Y-77063500D02*
X200386500Y-77063500D01*
X200386500Y-76436500D01*
X201413500Y-76436500D01*
X201413500Y-77063500D01*
X201413500Y-77063500D01*
G37*
G36*
X198413500Y-77063500D02*
X197386500Y-77063500D01*
X197386500Y-76436500D01*
X198413500Y-76436500D01*
X198413500Y-77063500D01*
X198413500Y-77063500D01*
G37*
G36*
X213488500Y-76863500D02*
X212611500Y-76863500D01*
X212611500Y-75936500D01*
X213488500Y-75936500D01*
X213488500Y-76863500D01*
X213488500Y-76863500D01*
G37*
G36*
X206313500Y-75863500D02*
X205286500Y-75863500D01*
X205286500Y-75236500D01*
X206313500Y-75236500D01*
X206313500Y-75863500D01*
X206313500Y-75863500D01*
G37*
G36*
X204713500Y-75863500D02*
X203686500Y-75863500D01*
X203686500Y-75236500D01*
X204713500Y-75236500D01*
X204713500Y-75863500D01*
X204713500Y-75863500D01*
G37*
G36*
X188166500Y-75735500D02*
X187139500Y-75735500D01*
X187139500Y-73108500D01*
X188166500Y-73108500D01*
X188166500Y-75735500D01*
X188166500Y-75735500D01*
G37*
G36*
X191066500Y-75735500D02*
X190039500Y-75735500D01*
X190039500Y-73108500D01*
X191066500Y-73108500D01*
X191066500Y-75735500D01*
X191066500Y-75735500D01*
G37*
G36*
X183594500Y-75735500D02*
X182467500Y-75735500D01*
X182467500Y-73108500D01*
X183594500Y-73108500D01*
X183594500Y-75735500D01*
X183594500Y-75735500D01*
G37*
G36*
X186594500Y-75735500D02*
X185467500Y-75735500D01*
X185467500Y-73108500D01*
X186594500Y-73108500D01*
X186594500Y-75735500D01*
X186594500Y-75735500D01*
G37*
G36*
X198413500Y-75563500D02*
X197386500Y-75563500D01*
X197386500Y-74936500D01*
X198413500Y-74936500D01*
X198413500Y-75563500D01*
X198413500Y-75563500D01*
G37*
G36*
X201413500Y-75563500D02*
X200386500Y-75563500D01*
X200386500Y-74936500D01*
X201413500Y-74936500D01*
X201413500Y-75563500D01*
X201413500Y-75563500D01*
G37*
G36*
X200846372Y-72747343D02*
X200846382Y-72747346D01*
X200846419Y-72747350D01*
X201019266Y-72800855D01*
X201178428Y-72886913D01*
X201317843Y-73002248D01*
X201432201Y-73142465D01*
X201517147Y-73302224D01*
X201569444Y-73475439D01*
X201587100Y-73655514D01*
X201587100Y-73664486D01*
X201587010Y-73677430D01*
X201566841Y-73857241D01*
X201512130Y-74029710D01*
X201424963Y-74188267D01*
X201308658Y-74326874D01*
X201167646Y-74440250D01*
X201007298Y-74524078D01*
X200833721Y-74575165D01*
X200833685Y-74575168D01*
X200833676Y-74575171D01*
X200653530Y-74591565D01*
X200473628Y-74572657D01*
X200473618Y-74572654D01*
X200473581Y-74572650D01*
X200300734Y-74519145D01*
X200141572Y-74433087D01*
X200002157Y-74317752D01*
X199887799Y-74177535D01*
X199802853Y-74017776D01*
X199750556Y-73844561D01*
X199732900Y-73664486D01*
X199732900Y-73655514D01*
X199732990Y-73642570D01*
X199753159Y-73462759D01*
X199807870Y-73290290D01*
X199895037Y-73131733D01*
X200011342Y-72993126D01*
X200152354Y-72879750D01*
X200312702Y-72795922D01*
X200486279Y-72744835D01*
X200486315Y-72744832D01*
X200486324Y-72744829D01*
X200666470Y-72728435D01*
X200846372Y-72747343D01*
X200846372Y-72747343D01*
G37*
G36*
X203386372Y-72747343D02*
X203386382Y-72747346D01*
X203386419Y-72747350D01*
X203559266Y-72800855D01*
X203718428Y-72886913D01*
X203857843Y-73002248D01*
X203972201Y-73142465D01*
X204057147Y-73302224D01*
X204109444Y-73475439D01*
X204127100Y-73655514D01*
X204127100Y-73664486D01*
X204127010Y-73677430D01*
X204106841Y-73857241D01*
X204052130Y-74029710D01*
X203964963Y-74188267D01*
X203848658Y-74326874D01*
X203707646Y-74440250D01*
X203547298Y-74524078D01*
X203373721Y-74575165D01*
X203373685Y-74575168D01*
X203373676Y-74575171D01*
X203193530Y-74591565D01*
X203013628Y-74572657D01*
X203013618Y-74572654D01*
X203013581Y-74572650D01*
X202840734Y-74519145D01*
X202681572Y-74433087D01*
X202542157Y-74317752D01*
X202427799Y-74177535D01*
X202342853Y-74017776D01*
X202290556Y-73844561D01*
X202272900Y-73664486D01*
X202272900Y-73655514D01*
X202272990Y-73642570D01*
X202293159Y-73462759D01*
X202347870Y-73290290D01*
X202435037Y-73131733D01*
X202551342Y-72993126D01*
X202692354Y-72879750D01*
X202852702Y-72795922D01*
X203026279Y-72744835D01*
X203026315Y-72744832D01*
X203026324Y-72744829D01*
X203206470Y-72728435D01*
X203386372Y-72747343D01*
X203386372Y-72747343D01*
G37*
G36*
X205926372Y-72747343D02*
X205926382Y-72747346D01*
X205926419Y-72747350D01*
X206099266Y-72800855D01*
X206258428Y-72886913D01*
X206397843Y-73002248D01*
X206512201Y-73142465D01*
X206597147Y-73302224D01*
X206649444Y-73475439D01*
X206667100Y-73655514D01*
X206667100Y-73664486D01*
X206667010Y-73677430D01*
X206646841Y-73857241D01*
X206592130Y-74029710D01*
X206504963Y-74188267D01*
X206388658Y-74326874D01*
X206247646Y-74440250D01*
X206087298Y-74524078D01*
X205913721Y-74575165D01*
X205913685Y-74575168D01*
X205913676Y-74575171D01*
X205733530Y-74591565D01*
X205553628Y-74572657D01*
X205553618Y-74572654D01*
X205553581Y-74572650D01*
X205380734Y-74519145D01*
X205221572Y-74433087D01*
X205082157Y-74317752D01*
X204967799Y-74177535D01*
X204882853Y-74017776D01*
X204830556Y-73844561D01*
X204812900Y-73664486D01*
X204812900Y-73655514D01*
X204812990Y-73642570D01*
X204833159Y-73462759D01*
X204887870Y-73290290D01*
X204975037Y-73131733D01*
X205091342Y-72993126D01*
X205232354Y-72879750D01*
X205392702Y-72795922D01*
X205566279Y-72744835D01*
X205566315Y-72744832D01*
X205566324Y-72744829D01*
X205746470Y-72728435D01*
X205926372Y-72747343D01*
X205926372Y-72747343D01*
G37*
G36*
X213546372Y-72747343D02*
X213546382Y-72747346D01*
X213546419Y-72747350D01*
X213719266Y-72800855D01*
X213878428Y-72886913D01*
X214017843Y-73002248D01*
X214132201Y-73142465D01*
X214217147Y-73302224D01*
X214269444Y-73475439D01*
X214287100Y-73655514D01*
X214287100Y-73664486D01*
X214287010Y-73677430D01*
X214266841Y-73857241D01*
X214212130Y-74029710D01*
X214124963Y-74188267D01*
X214008658Y-74326874D01*
X213867646Y-74440250D01*
X213707298Y-74524078D01*
X213533721Y-74575165D01*
X213533685Y-74575168D01*
X213533676Y-74575171D01*
X213353530Y-74591565D01*
X213173628Y-74572657D01*
X213173618Y-74572654D01*
X213173581Y-74572650D01*
X213000734Y-74519145D01*
X212841572Y-74433087D01*
X212702157Y-74317752D01*
X212587799Y-74177535D01*
X212502853Y-74017776D01*
X212450556Y-73844561D01*
X212432900Y-73664486D01*
X212432900Y-73655514D01*
X212432990Y-73642570D01*
X212453159Y-73462759D01*
X212507870Y-73290290D01*
X212595037Y-73131733D01*
X212711342Y-72993126D01*
X212852354Y-72879750D01*
X213012702Y-72795922D01*
X213186279Y-72744835D01*
X213186315Y-72744832D01*
X213186324Y-72744829D01*
X213366470Y-72728435D01*
X213546372Y-72747343D01*
X213546372Y-72747343D01*
G37*
G36*
X208466372Y-72747343D02*
X208466382Y-72747346D01*
X208466419Y-72747350D01*
X208639266Y-72800855D01*
X208798428Y-72886913D01*
X208937843Y-73002248D01*
X209052201Y-73142465D01*
X209137147Y-73302224D01*
X209189444Y-73475439D01*
X209207100Y-73655514D01*
X209207100Y-73664486D01*
X209207010Y-73677430D01*
X209186841Y-73857241D01*
X209132130Y-74029710D01*
X209044963Y-74188267D01*
X208928658Y-74326874D01*
X208787646Y-74440250D01*
X208627298Y-74524078D01*
X208453721Y-74575165D01*
X208453685Y-74575168D01*
X208453676Y-74575171D01*
X208273530Y-74591565D01*
X208093628Y-74572657D01*
X208093618Y-74572654D01*
X208093581Y-74572650D01*
X207920734Y-74519145D01*
X207761572Y-74433087D01*
X207622157Y-74317752D01*
X207507799Y-74177535D01*
X207422853Y-74017776D01*
X207370556Y-73844561D01*
X207352900Y-73664486D01*
X207352900Y-73655514D01*
X207352990Y-73642570D01*
X207373159Y-73462759D01*
X207427870Y-73290290D01*
X207515037Y-73131733D01*
X207631342Y-72993126D01*
X207772354Y-72879750D01*
X207932702Y-72795922D01*
X208106279Y-72744835D01*
X208106315Y-72744832D01*
X208106324Y-72744829D01*
X208286470Y-72728435D01*
X208466372Y-72747343D01*
X208466372Y-72747343D01*
G37*
G36*
X211006372Y-72747343D02*
X211006382Y-72747346D01*
X211006419Y-72747350D01*
X211179266Y-72800855D01*
X211338428Y-72886913D01*
X211477843Y-73002248D01*
X211592201Y-73142465D01*
X211677147Y-73302224D01*
X211729444Y-73475439D01*
X211747100Y-73655514D01*
X211747100Y-73664486D01*
X211747010Y-73677430D01*
X211726841Y-73857241D01*
X211672130Y-74029710D01*
X211584963Y-74188267D01*
X211468658Y-74326874D01*
X211327646Y-74440250D01*
X211167298Y-74524078D01*
X210993721Y-74575165D01*
X210993685Y-74575168D01*
X210993676Y-74575171D01*
X210813530Y-74591565D01*
X210633628Y-74572657D01*
X210633618Y-74572654D01*
X210633581Y-74572650D01*
X210460734Y-74519145D01*
X210301572Y-74433087D01*
X210162157Y-74317752D01*
X210047799Y-74177535D01*
X209962853Y-74017776D01*
X209910556Y-73844561D01*
X209892900Y-73664486D01*
X209892900Y-73655514D01*
X209892990Y-73642570D01*
X209913159Y-73462759D01*
X209967870Y-73290290D01*
X210055037Y-73131733D01*
X210171342Y-72993126D01*
X210312354Y-72879750D01*
X210472702Y-72795922D01*
X210646279Y-72744835D01*
X210646315Y-72744832D01*
X210646324Y-72744829D01*
X210826470Y-72728435D01*
X211006372Y-72747343D01*
X211006372Y-72747343D01*
G37*
G36*
X199047100Y-74587100D02*
X197192900Y-74587100D01*
X197192900Y-72732900D01*
X199047100Y-72732900D01*
X199047100Y-74587100D01*
X199047100Y-74587100D01*
G37*
G36*
X185606372Y-70054206D02*
X185606382Y-70054209D01*
X185606419Y-70054213D01*
X185779266Y-70107718D01*
X185938428Y-70193776D01*
X186077843Y-70309111D01*
X186192201Y-70449328D01*
X186277147Y-70609087D01*
X186329444Y-70782302D01*
X186347100Y-70962377D01*
X186347100Y-71277623D01*
X186347010Y-71290567D01*
X186326841Y-71470378D01*
X186272130Y-71642847D01*
X186184963Y-71801404D01*
X186068658Y-71940011D01*
X185927646Y-72053387D01*
X185767298Y-72137215D01*
X185593721Y-72188302D01*
X185593685Y-72188305D01*
X185593676Y-72188308D01*
X185413530Y-72204702D01*
X185233628Y-72185794D01*
X185233618Y-72185791D01*
X185233581Y-72185787D01*
X185060734Y-72132282D01*
X184901572Y-72046224D01*
X184762157Y-71930889D01*
X184647799Y-71790672D01*
X184562853Y-71630913D01*
X184510556Y-71457698D01*
X184492900Y-71277623D01*
X184492900Y-70962377D01*
X184492990Y-70949433D01*
X184513159Y-70769622D01*
X184567870Y-70597153D01*
X184655037Y-70438596D01*
X184771342Y-70299989D01*
X184912354Y-70186613D01*
X185072702Y-70102785D01*
X185246279Y-70051698D01*
X185246315Y-70051695D01*
X185246324Y-70051692D01*
X185426470Y-70035298D01*
X185606372Y-70054206D01*
X185606372Y-70054206D01*
G37*
G36*
X188146372Y-70054206D02*
X188146382Y-70054209D01*
X188146419Y-70054213D01*
X188319266Y-70107718D01*
X188478428Y-70193776D01*
X188617843Y-70309111D01*
X188732201Y-70449328D01*
X188817147Y-70609087D01*
X188869444Y-70782302D01*
X188887100Y-70962377D01*
X188887100Y-71277623D01*
X188887010Y-71290567D01*
X188866841Y-71470378D01*
X188812130Y-71642847D01*
X188724963Y-71801404D01*
X188608658Y-71940011D01*
X188467646Y-72053387D01*
X188307298Y-72137215D01*
X188133721Y-72188302D01*
X188133685Y-72188305D01*
X188133676Y-72188308D01*
X187953530Y-72204702D01*
X187773628Y-72185794D01*
X187773618Y-72185791D01*
X187773581Y-72185787D01*
X187600734Y-72132282D01*
X187441572Y-72046224D01*
X187302157Y-71930889D01*
X187187799Y-71790672D01*
X187102853Y-71630913D01*
X187050556Y-71457698D01*
X187032900Y-71277623D01*
X187032900Y-70962377D01*
X187032990Y-70949433D01*
X187053159Y-70769622D01*
X187107870Y-70597153D01*
X187195037Y-70438596D01*
X187311342Y-70299989D01*
X187452354Y-70186613D01*
X187612702Y-70102785D01*
X187786279Y-70051698D01*
X187786315Y-70051695D01*
X187786324Y-70051692D01*
X187966470Y-70035298D01*
X188146372Y-70054206D01*
X188146372Y-70054206D01*
G37*
G36*
X177986372Y-70054206D02*
X177986382Y-70054209D01*
X177986419Y-70054213D01*
X178159266Y-70107718D01*
X178318428Y-70193776D01*
X178457843Y-70309111D01*
X178572201Y-70449328D01*
X178657147Y-70609087D01*
X178709444Y-70782302D01*
X178727100Y-70962377D01*
X178727100Y-71277623D01*
X178727010Y-71290567D01*
X178706841Y-71470378D01*
X178652130Y-71642847D01*
X178564963Y-71801404D01*
X178448658Y-71940011D01*
X178307646Y-72053387D01*
X178147298Y-72137215D01*
X177973721Y-72188302D01*
X177973685Y-72188305D01*
X177973676Y-72188308D01*
X177793530Y-72204702D01*
X177613628Y-72185794D01*
X177613618Y-72185791D01*
X177613581Y-72185787D01*
X177440734Y-72132282D01*
X177281572Y-72046224D01*
X177142157Y-71930889D01*
X177027799Y-71790672D01*
X176942853Y-71630913D01*
X176890556Y-71457698D01*
X176872900Y-71277623D01*
X176872900Y-70962377D01*
X176872990Y-70949433D01*
X176893159Y-70769622D01*
X176947870Y-70597153D01*
X177035037Y-70438596D01*
X177151342Y-70299989D01*
X177292354Y-70186613D01*
X177452702Y-70102785D01*
X177626279Y-70051698D01*
X177626315Y-70051695D01*
X177626324Y-70051692D01*
X177806470Y-70035298D01*
X177986372Y-70054206D01*
X177986372Y-70054206D01*
G37*
G36*
X180526372Y-70054206D02*
X180526382Y-70054209D01*
X180526419Y-70054213D01*
X180699266Y-70107718D01*
X180858428Y-70193776D01*
X180997843Y-70309111D01*
X181112201Y-70449328D01*
X181197147Y-70609087D01*
X181249444Y-70782302D01*
X181267100Y-70962377D01*
X181267100Y-71277623D01*
X181267010Y-71290567D01*
X181246841Y-71470378D01*
X181192130Y-71642847D01*
X181104963Y-71801404D01*
X180988658Y-71940011D01*
X180847646Y-72053387D01*
X180687298Y-72137215D01*
X180513721Y-72188302D01*
X180513685Y-72188305D01*
X180513676Y-72188308D01*
X180333530Y-72204702D01*
X180153628Y-72185794D01*
X180153618Y-72185791D01*
X180153581Y-72185787D01*
X179980734Y-72132282D01*
X179821572Y-72046224D01*
X179682157Y-71930889D01*
X179567799Y-71790672D01*
X179482853Y-71630913D01*
X179430556Y-71457698D01*
X179412900Y-71277623D01*
X179412900Y-70962377D01*
X179412990Y-70949433D01*
X179433159Y-70769622D01*
X179487870Y-70597153D01*
X179575037Y-70438596D01*
X179691342Y-70299989D01*
X179832354Y-70186613D01*
X179992702Y-70102785D01*
X180166279Y-70051698D01*
X180166315Y-70051695D01*
X180166324Y-70051692D01*
X180346470Y-70035298D01*
X180526372Y-70054206D01*
X180526372Y-70054206D01*
G37*
G36*
X190686372Y-70054206D02*
X190686382Y-70054209D01*
X190686419Y-70054213D01*
X190859266Y-70107718D01*
X191018428Y-70193776D01*
X191157843Y-70309111D01*
X191272201Y-70449328D01*
X191357147Y-70609087D01*
X191409444Y-70782302D01*
X191427100Y-70962377D01*
X191427100Y-71277623D01*
X191427010Y-71290567D01*
X191406841Y-71470378D01*
X191352130Y-71642847D01*
X191264963Y-71801404D01*
X191148658Y-71940011D01*
X191007646Y-72053387D01*
X190847298Y-72137215D01*
X190673721Y-72188302D01*
X190673685Y-72188305D01*
X190673676Y-72188308D01*
X190493530Y-72204702D01*
X190313628Y-72185794D01*
X190313618Y-72185791D01*
X190313581Y-72185787D01*
X190140734Y-72132282D01*
X189981572Y-72046224D01*
X189842157Y-71930889D01*
X189727799Y-71790672D01*
X189642853Y-71630913D01*
X189590556Y-71457698D01*
X189572900Y-71277623D01*
X189572900Y-70962377D01*
X189572990Y-70949433D01*
X189593159Y-70769622D01*
X189647870Y-70597153D01*
X189735037Y-70438596D01*
X189851342Y-70299989D01*
X189992354Y-70186613D01*
X190152702Y-70102785D01*
X190326279Y-70051698D01*
X190326315Y-70051695D01*
X190326324Y-70051692D01*
X190506470Y-70035298D01*
X190686372Y-70054206D01*
X190686372Y-70054206D01*
G37*
G36*
X183066372Y-70054206D02*
X183066382Y-70054209D01*
X183066419Y-70054213D01*
X183239266Y-70107718D01*
X183398428Y-70193776D01*
X183537843Y-70309111D01*
X183652201Y-70449328D01*
X183737147Y-70609087D01*
X183789444Y-70782302D01*
X183807100Y-70962377D01*
X183807100Y-71277623D01*
X183807010Y-71290567D01*
X183786841Y-71470378D01*
X183732130Y-71642847D01*
X183644963Y-71801404D01*
X183528658Y-71940011D01*
X183387646Y-72053387D01*
X183227298Y-72137215D01*
X183053721Y-72188302D01*
X183053685Y-72188305D01*
X183053676Y-72188308D01*
X182873530Y-72204702D01*
X182693628Y-72185794D01*
X182693618Y-72185791D01*
X182693581Y-72185787D01*
X182520734Y-72132282D01*
X182361572Y-72046224D01*
X182222157Y-71930889D01*
X182107799Y-71790672D01*
X182022853Y-71630913D01*
X181970556Y-71457698D01*
X181952900Y-71277623D01*
X181952900Y-70962377D01*
X181952990Y-70949433D01*
X181973159Y-70769622D01*
X182027870Y-70597153D01*
X182115037Y-70438596D01*
X182231342Y-70299989D01*
X182372354Y-70186613D01*
X182532702Y-70102785D01*
X182706279Y-70051698D01*
X182706315Y-70051695D01*
X182706324Y-70051692D01*
X182886470Y-70035298D01*
X183066372Y-70054206D01*
X183066372Y-70054206D01*
G37*
G36*
X193967100Y-72199500D02*
X192112900Y-72199500D01*
X192112900Y-70040500D01*
X193967100Y-70040500D01*
X193967100Y-72199500D01*
X193967100Y-72199500D01*
G37*
G36*
X176187100Y-72199500D02*
X174332900Y-72199500D01*
X174332900Y-70040500D01*
X176187100Y-70040500D01*
X176187100Y-72199500D01*
X176187100Y-72199500D01*
G37*
G36*
X198306372Y-70207343D02*
X198306382Y-70207346D01*
X198306419Y-70207350D01*
X198479266Y-70260855D01*
X198638428Y-70346913D01*
X198777843Y-70462248D01*
X198892201Y-70602465D01*
X198977147Y-70762224D01*
X199029444Y-70935439D01*
X199047100Y-71115514D01*
X199047100Y-71124486D01*
X199047010Y-71137430D01*
X199026841Y-71317241D01*
X198972130Y-71489710D01*
X198884963Y-71648267D01*
X198768658Y-71786874D01*
X198627646Y-71900250D01*
X198467298Y-71984078D01*
X198293721Y-72035165D01*
X198293685Y-72035168D01*
X198293676Y-72035171D01*
X198113530Y-72051565D01*
X197933628Y-72032657D01*
X197933618Y-72032654D01*
X197933581Y-72032650D01*
X197760734Y-71979145D01*
X197601572Y-71893087D01*
X197462157Y-71777752D01*
X197347799Y-71637535D01*
X197262853Y-71477776D01*
X197210556Y-71304561D01*
X197192900Y-71124486D01*
X197192900Y-71115514D01*
X197192990Y-71102570D01*
X197213159Y-70922759D01*
X197267870Y-70750290D01*
X197355037Y-70591733D01*
X197471342Y-70453126D01*
X197612354Y-70339750D01*
X197772702Y-70255922D01*
X197946279Y-70204835D01*
X197946315Y-70204832D01*
X197946324Y-70204829D01*
X198126470Y-70188435D01*
X198306372Y-70207343D01*
X198306372Y-70207343D01*
G37*
G36*
X200846372Y-70207343D02*
X200846382Y-70207346D01*
X200846419Y-70207350D01*
X201019266Y-70260855D01*
X201178428Y-70346913D01*
X201317843Y-70462248D01*
X201432201Y-70602465D01*
X201517147Y-70762224D01*
X201569444Y-70935439D01*
X201587100Y-71115514D01*
X201587100Y-71124486D01*
X201587010Y-71137430D01*
X201566841Y-71317241D01*
X201512130Y-71489710D01*
X201424963Y-71648267D01*
X201308658Y-71786874D01*
X201167646Y-71900250D01*
X201007298Y-71984078D01*
X200833721Y-72035165D01*
X200833685Y-72035168D01*
X200833676Y-72035171D01*
X200653530Y-72051565D01*
X200473628Y-72032657D01*
X200473618Y-72032654D01*
X200473581Y-72032650D01*
X200300734Y-71979145D01*
X200141572Y-71893087D01*
X200002157Y-71777752D01*
X199887799Y-71637535D01*
X199802853Y-71477776D01*
X199750556Y-71304561D01*
X199732900Y-71124486D01*
X199732900Y-71115514D01*
X199732990Y-71102570D01*
X199753159Y-70922759D01*
X199807870Y-70750290D01*
X199895037Y-70591733D01*
X200011342Y-70453126D01*
X200152354Y-70339750D01*
X200312702Y-70255922D01*
X200486279Y-70204835D01*
X200486315Y-70204832D01*
X200486324Y-70204829D01*
X200666470Y-70188435D01*
X200846372Y-70207343D01*
X200846372Y-70207343D01*
G37*
G36*
X203386372Y-70207343D02*
X203386382Y-70207346D01*
X203386419Y-70207350D01*
X203559266Y-70260855D01*
X203718428Y-70346913D01*
X203857843Y-70462248D01*
X203972201Y-70602465D01*
X204057147Y-70762224D01*
X204109444Y-70935439D01*
X204127100Y-71115514D01*
X204127100Y-71124486D01*
X204127010Y-71137430D01*
X204106841Y-71317241D01*
X204052130Y-71489710D01*
X203964963Y-71648267D01*
X203848658Y-71786874D01*
X203707646Y-71900250D01*
X203547298Y-71984078D01*
X203373721Y-72035165D01*
X203373685Y-72035168D01*
X203373676Y-72035171D01*
X203193530Y-72051565D01*
X203013628Y-72032657D01*
X203013618Y-72032654D01*
X203013581Y-72032650D01*
X202840734Y-71979145D01*
X202681572Y-71893087D01*
X202542157Y-71777752D01*
X202427799Y-71637535D01*
X202342853Y-71477776D01*
X202290556Y-71304561D01*
X202272900Y-71124486D01*
X202272900Y-71115514D01*
X202272990Y-71102570D01*
X202293159Y-70922759D01*
X202347870Y-70750290D01*
X202435037Y-70591733D01*
X202551342Y-70453126D01*
X202692354Y-70339750D01*
X202852702Y-70255922D01*
X203026279Y-70204835D01*
X203026315Y-70204832D01*
X203026324Y-70204829D01*
X203206470Y-70188435D01*
X203386372Y-70207343D01*
X203386372Y-70207343D01*
G37*
G36*
X205926372Y-70207343D02*
X205926382Y-70207346D01*
X205926419Y-70207350D01*
X206099266Y-70260855D01*
X206258428Y-70346913D01*
X206397843Y-70462248D01*
X206512201Y-70602465D01*
X206597147Y-70762224D01*
X206649444Y-70935439D01*
X206667100Y-71115514D01*
X206667100Y-71124486D01*
X206667010Y-71137430D01*
X206646841Y-71317241D01*
X206592130Y-71489710D01*
X206504963Y-71648267D01*
X206388658Y-71786874D01*
X206247646Y-71900250D01*
X206087298Y-71984078D01*
X205913721Y-72035165D01*
X205913685Y-72035168D01*
X205913676Y-72035171D01*
X205733530Y-72051565D01*
X205553628Y-72032657D01*
X205553618Y-72032654D01*
X205553581Y-72032650D01*
X205380734Y-71979145D01*
X205221572Y-71893087D01*
X205082157Y-71777752D01*
X204967799Y-71637535D01*
X204882853Y-71477776D01*
X204830556Y-71304561D01*
X204812900Y-71124486D01*
X204812900Y-71115514D01*
X204812990Y-71102570D01*
X204833159Y-70922759D01*
X204887870Y-70750290D01*
X204975037Y-70591733D01*
X205091342Y-70453126D01*
X205232354Y-70339750D01*
X205392702Y-70255922D01*
X205566279Y-70204835D01*
X205566315Y-70204832D01*
X205566324Y-70204829D01*
X205746470Y-70188435D01*
X205926372Y-70207343D01*
X205926372Y-70207343D01*
G37*
G36*
X208466372Y-70207343D02*
X208466382Y-70207346D01*
X208466419Y-70207350D01*
X208639266Y-70260855D01*
X208798428Y-70346913D01*
X208937843Y-70462248D01*
X209052201Y-70602465D01*
X209137147Y-70762224D01*
X209189444Y-70935439D01*
X209207100Y-71115514D01*
X209207100Y-71124486D01*
X209207010Y-71137430D01*
X209186841Y-71317241D01*
X209132130Y-71489710D01*
X209044963Y-71648267D01*
X208928658Y-71786874D01*
X208787646Y-71900250D01*
X208627298Y-71984078D01*
X208453721Y-72035165D01*
X208453685Y-72035168D01*
X208453676Y-72035171D01*
X208273530Y-72051565D01*
X208093628Y-72032657D01*
X208093618Y-72032654D01*
X208093581Y-72032650D01*
X207920734Y-71979145D01*
X207761572Y-71893087D01*
X207622157Y-71777752D01*
X207507799Y-71637535D01*
X207422853Y-71477776D01*
X207370556Y-71304561D01*
X207352900Y-71124486D01*
X207352900Y-71115514D01*
X207352990Y-71102570D01*
X207373159Y-70922759D01*
X207427870Y-70750290D01*
X207515037Y-70591733D01*
X207631342Y-70453126D01*
X207772354Y-70339750D01*
X207932702Y-70255922D01*
X208106279Y-70204835D01*
X208106315Y-70204832D01*
X208106324Y-70204829D01*
X208286470Y-70188435D01*
X208466372Y-70207343D01*
X208466372Y-70207343D01*
G37*
G36*
X211006372Y-70207343D02*
X211006382Y-70207346D01*
X211006419Y-70207350D01*
X211179266Y-70260855D01*
X211338428Y-70346913D01*
X211477843Y-70462248D01*
X211592201Y-70602465D01*
X211677147Y-70762224D01*
X211729444Y-70935439D01*
X211747100Y-71115514D01*
X211747100Y-71124486D01*
X211747010Y-71137430D01*
X211726841Y-71317241D01*
X211672130Y-71489710D01*
X211584963Y-71648267D01*
X211468658Y-71786874D01*
X211327646Y-71900250D01*
X211167298Y-71984078D01*
X210993721Y-72035165D01*
X210993685Y-72035168D01*
X210993676Y-72035171D01*
X210813530Y-72051565D01*
X210633628Y-72032657D01*
X210633618Y-72032654D01*
X210633581Y-72032650D01*
X210460734Y-71979145D01*
X210301572Y-71893087D01*
X210162157Y-71777752D01*
X210047799Y-71637535D01*
X209962853Y-71477776D01*
X209910556Y-71304561D01*
X209892900Y-71124486D01*
X209892900Y-71115514D01*
X209892990Y-71102570D01*
X209913159Y-70922759D01*
X209967870Y-70750290D01*
X210055037Y-70591733D01*
X210171342Y-70453126D01*
X210312354Y-70339750D01*
X210472702Y-70255922D01*
X210646279Y-70204835D01*
X210646315Y-70204832D01*
X210646324Y-70204829D01*
X210826470Y-70188435D01*
X211006372Y-70207343D01*
X211006372Y-70207343D01*
G37*
G36*
X213546372Y-70207343D02*
X213546382Y-70207346D01*
X213546419Y-70207350D01*
X213719266Y-70260855D01*
X213878428Y-70346913D01*
X214017843Y-70462248D01*
X214132201Y-70602465D01*
X214217147Y-70762224D01*
X214269444Y-70935439D01*
X214287100Y-71115514D01*
X214287100Y-71124486D01*
X214287010Y-71137430D01*
X214266841Y-71317241D01*
X214212130Y-71489710D01*
X214124963Y-71648267D01*
X214008658Y-71786874D01*
X213867646Y-71900250D01*
X213707298Y-71984078D01*
X213533721Y-72035165D01*
X213533685Y-72035168D01*
X213533676Y-72035171D01*
X213353530Y-72051565D01*
X213173628Y-72032657D01*
X213173618Y-72032654D01*
X213173581Y-72032650D01*
X213000734Y-71979145D01*
X212841572Y-71893087D01*
X212702157Y-71777752D01*
X212587799Y-71637535D01*
X212502853Y-71477776D01*
X212450556Y-71304561D01*
X212432900Y-71124486D01*
X212432900Y-71115514D01*
X212432990Y-71102570D01*
X212453159Y-70922759D01*
X212507870Y-70750290D01*
X212595037Y-70591733D01*
X212711342Y-70453126D01*
X212852354Y-70339750D01*
X213012702Y-70255922D01*
X213186279Y-70204835D01*
X213186315Y-70204832D01*
X213186324Y-70204829D01*
X213366470Y-70188435D01*
X213546372Y-70207343D01*
X213546372Y-70207343D01*
G37*
M02*
