M48
;DRILL file {KiCad 4.0.1-stable} date Tuesday, February 09, 2016 'PMt' 10:51:22 PM
;FORMAT={2:4/ absolute / inch / suppress leading zeros}
FMAT,2
INCH,TZ
T1C0.010
T2C0.040
T3C0.098
%
G90
G05
M72
T1
X68608Y-33811
X68780Y-34921
X68858Y-32323
X68937Y-31260
X69206Y-32413
X69246Y-35051
X69324Y-30326
X69324Y-33043
X69403Y-32413
X69443Y-35051
X69600Y-32413
X69639Y-35051
X69843Y-34189
X70118Y-31339
X70118Y-34612
X70316Y-33312
X70348Y-30602
X70433Y-35307
X70472Y-31142
X70472Y-32480
X70472Y-34094
X70513Y-33319
X70545Y-30602
X70705Y-33319
X70742Y-30602
X71248Y-30602
X71248Y-33319
X72126Y-31063
X72323Y-31063
X72480Y-28976
X72480Y-29213
X72480Y-29449
X72480Y-29685
X72520Y-31063
X72717Y-31063
X72874Y-30669
X72913Y-31063
X73021Y-30552
X73031Y-30787
X73110Y-31063
X74000Y-33200
X74100Y-33350
X74150Y-31900
X74200Y-33200
X74252Y-30236
X74764Y-30197
X74843Y-33937
X74885Y-33751
X75035Y-33902
X75091Y-30433
X75091Y-30630
X75276Y-30197
X75472Y-30197
X75748Y-33268
X76034Y-31415
X76056Y-32033
X76063Y-32992
X76070Y-31850
X76086Y-31665
X76102Y-33189
X76127Y-32820
X76248Y-31535
X76260Y-33307
X76260Y-31337
X76450Y-33550
X76457Y-31220
X76457Y-33307
X76654Y-31220
X76654Y-33307
X76850Y-31220
X76850Y-33307
X77047Y-31220
X77047Y-32441
X77047Y-33300
X77205Y-31339
X77205Y-31535
X77244Y-32441
X77244Y-33300
X77402Y-31614
X77415Y-33280
X77417Y-32014
X77420Y-32000
X77441Y-31811
X77473Y-28386
X77598Y-32926
X77675Y-33304
X77756Y-31220
X77795Y-32126
X77795Y-32913
X77800Y-31650
X77835Y-32323
X77844Y-32510
X77847Y-32717
X77913Y-30000
X78539Y-31187
X78583Y-30639
X78819Y-31181
X78823Y-30639
X78921Y-30420
X78976Y-34910
X79062Y-30630
X79167Y-34751
X79209Y-31549
X79300Y-31170
X79355Y-34588
X79409Y-31890
X79567Y-29692
X79606Y-31890
X79803Y-31890
X79807Y-29689
X79818Y-30606
X80008Y-30429
X80315Y-30551
X80469Y-31573
X80472Y-30866
X80472Y-31819
X80512Y-32087
X81299Y-30206
X81443Y-34318
X81693Y-31417
X81811Y-30787
X81875Y-33326
X81978Y-35326
X82118Y-33664
X82205Y-30685
X82402Y-30685
X82835Y-30079
X82923Y-29701
X82988Y-30685
X83342Y-35121
X83553Y-35733
X83622Y-30984
X83819Y-30984
X83981Y-32003
X84004Y-30984
X84067Y-34943
X84191Y-35614
X84291Y-33661
X84379Y-33203
X84414Y-35779
X84488Y-31811
X84490Y-35235
X84581Y-34178
X84685Y-31811
X84882Y-31811
X84882Y-32051
X85079Y-31811
X85197Y-35394
X85276Y-31811
X85394Y-33228
X85394Y-35945
X85437Y-33819
T2
X67000Y-31000
X67000Y-32000
X67000Y-33000
X67000Y-34000
X67000Y-35000
X67000Y-36000
X69000Y-37000
X69000Y-38000
X69000Y-39000
X70000Y-37000
X70000Y-38000
X70000Y-39000
X71000Y-37000
X71000Y-38000
X71000Y-39000
X72000Y-37000
X72000Y-38000
X72000Y-39000
X73000Y-28000
X73000Y-37000
X73000Y-38000
X73000Y-39000
X74000Y-28000
X74000Y-37000
X74000Y-38000
X74000Y-39000
X75000Y-28000
X75000Y-37000
X75000Y-38000
X75000Y-39000
X76000Y-28000
X76000Y-37000
X76000Y-38000
X76000Y-39000
X77000Y-37000
X77000Y-38000
X77000Y-39000
X78000Y-28000
X78000Y-29000
X78000Y-37000
X78000Y-38000
X78000Y-39000
X79000Y-28000
X79000Y-29000
X79000Y-37000
X79000Y-38000
X79000Y-39000
X80000Y-28000
X80000Y-29000
X80000Y-37000
X80000Y-38000
X80000Y-39000
X81000Y-28000
X81000Y-29000
X81000Y-37000
X81000Y-38000
X81000Y-39000
X82000Y-28000
X82000Y-29000
X82000Y-37000
X82000Y-38000
X82000Y-39000
X83000Y-28000
X83000Y-29000
X83000Y-37000
X83000Y-38000
X83000Y-39000
X84000Y-28000
X84000Y-29000
X84000Y-37000
X84000Y-38000
X84000Y-39000
X86000Y-30000
X86000Y-31000
X86000Y-32000
X86000Y-33000
X86000Y-34000
X86000Y-35000
X86000Y-36000
X86000Y-37000
T3
X67500Y-28500
X67500Y-38500
X85500Y-28500
X85500Y-38500
T0
M30
