G04 #@! TF.FileFunction,Copper,L1,Top,Signal*
%FSLAX46Y46*%
G04 Gerber Fmt 4.6, Leading zero omitted, Abs format (unit mm)*
G04 Created by KiCad (PCBNEW 4.0.1-stable) date Tuesday, February 09, 2016 'PMt' 10:51:17 PM*
%MOMM*%
G01*
G04 APERTURE LIST*
%ADD10C,0.100000*%
%ADD11R,0.500000X0.900000*%
%ADD12R,0.500000X0.600000*%
%ADD13R,1.727200X1.727200*%
%ADD14O,1.727200X1.727200*%
%ADD15R,1.727200X2.032000*%
%ADD16O,1.727200X2.032000*%
%ADD17R,1.450000X0.450000*%
%ADD18R,0.800000X0.200000*%
%ADD19R,0.200000X0.800000*%
%ADD20R,1.200000X1.200000*%
%ADD21R,0.730000X0.300000*%
%ADD22R,0.300000X0.730000*%
%ADD23R,1.250000X1.250000*%
%ADD24R,0.600000X0.500000*%
%ADD25R,1.200000X1.400000*%
%ADD26R,0.800000X0.750000*%
%ADD27R,0.750000X0.800000*%
%ADD28R,0.900000X2.500000*%
%ADD29R,0.900000X0.500000*%
%ADD30R,1.000000X2.500000*%
%ADD31R,1.000000X1.250000*%
%ADD32R,0.600000X0.400000*%
%ADD33R,0.400000X0.600000*%
%ADD34R,2.032000X1.727200*%
%ADD35O,2.032000X1.727200*%
%ADD36R,1.500000X0.600000*%
%ADD37C,0.457200*%
%ADD38C,0.200000*%
%ADD39C,0.508000*%
%ADD40C,0.457200*%
%ADD41C,0.762000*%
%ADD42C,1.016000*%
%ADD43C,0.304800*%
%ADD44C,0.127000*%
G04 APERTURE END LIST*
D10*
D11*
X206900000Y-83200000D03*
X205400000Y-83200000D03*
D12*
X197100000Y-82950000D03*
X197100000Y-81850000D03*
D13*
X213360000Y-96520000D03*
D14*
X213360000Y-99060000D03*
X210820000Y-96520000D03*
X210820000Y-99060000D03*
X208280000Y-96520000D03*
X208280000Y-99060000D03*
X205740000Y-96520000D03*
X205740000Y-99060000D03*
X203200000Y-96520000D03*
X203200000Y-99060000D03*
X200660000Y-96520000D03*
X200660000Y-99060000D03*
X198120000Y-96520000D03*
X198120000Y-99060000D03*
X195580000Y-96520000D03*
X195580000Y-99060000D03*
X193040000Y-96520000D03*
X193040000Y-99060000D03*
X190500000Y-96520000D03*
X190500000Y-99060000D03*
X187960000Y-96520000D03*
X187960000Y-99060000D03*
X185420000Y-96520000D03*
X185420000Y-99060000D03*
X182880000Y-96520000D03*
X182880000Y-99060000D03*
X180340000Y-96520000D03*
X180340000Y-99060000D03*
X177800000Y-96520000D03*
X177800000Y-99060000D03*
X175260000Y-96520000D03*
X175260000Y-99060000D03*
D15*
X213360000Y-93980000D03*
D16*
X210820000Y-93980000D03*
X208280000Y-93980000D03*
X205740000Y-93980000D03*
X203200000Y-93980000D03*
X200660000Y-93980000D03*
X198120000Y-93980000D03*
X195580000Y-93980000D03*
X193040000Y-93980000D03*
X190500000Y-93980000D03*
X187960000Y-93980000D03*
X185420000Y-93980000D03*
X182880000Y-93980000D03*
X180340000Y-93980000D03*
X177800000Y-93980000D03*
X175260000Y-93980000D03*
D15*
X193040000Y-71120000D03*
D16*
X190500000Y-71120000D03*
X187960000Y-71120000D03*
X185420000Y-71120000D03*
D13*
X198120000Y-73660000D03*
D14*
X198120000Y-71120000D03*
X200660000Y-73660000D03*
X200660000Y-71120000D03*
X203200000Y-73660000D03*
X203200000Y-71120000D03*
X205740000Y-73660000D03*
X205740000Y-71120000D03*
X208280000Y-73660000D03*
X208280000Y-71120000D03*
X210820000Y-73660000D03*
X210820000Y-71120000D03*
X213360000Y-73660000D03*
X213360000Y-71120000D03*
D17*
X176319102Y-79829258D03*
X176319102Y-80479258D03*
X176319102Y-81129258D03*
X176319102Y-81779258D03*
X180719102Y-81779258D03*
X180719102Y-81129258D03*
X180719102Y-80479258D03*
X180719102Y-79829258D03*
X176319102Y-86594258D03*
X176319102Y-87244258D03*
X176319102Y-87894258D03*
X176319102Y-88544258D03*
X180719102Y-88544258D03*
X180719102Y-87894258D03*
X180719102Y-87244258D03*
X180719102Y-86594258D03*
D18*
X199980000Y-83890000D03*
X199980000Y-84290000D03*
X199980000Y-84690000D03*
X199980000Y-85090000D03*
X199980000Y-85490000D03*
X199980000Y-85890000D03*
X199980000Y-86290000D03*
D19*
X200730000Y-87040000D03*
X201130000Y-87040000D03*
X201530000Y-87040000D03*
X201930000Y-87040000D03*
X202330000Y-87040000D03*
X202730000Y-87040000D03*
X203130000Y-87040000D03*
D18*
X203880000Y-86290000D03*
X203880000Y-85890000D03*
X203880000Y-85490000D03*
X203880000Y-85090000D03*
X203880000Y-84690000D03*
X203880000Y-84290000D03*
X203880000Y-83890000D03*
D19*
X203130000Y-83140000D03*
X202730000Y-83140000D03*
X202330000Y-83140000D03*
X201930000Y-83140000D03*
X201530000Y-83140000D03*
X201130000Y-83140000D03*
X200730000Y-83140000D03*
D20*
X202530000Y-85690000D03*
X202530000Y-84490000D03*
X201330000Y-85690000D03*
X201330000Y-84490000D03*
D21*
X188027000Y-81804000D03*
X188027000Y-82304000D03*
X188027000Y-82804000D03*
X188027000Y-83304000D03*
X188027000Y-83804000D03*
D22*
X188992000Y-84769000D03*
X189492000Y-84769000D03*
X189992000Y-84769000D03*
X190492000Y-84769000D03*
X190992000Y-84769000D03*
D21*
X191957000Y-83804000D03*
X191957000Y-83304000D03*
X191957000Y-82804000D03*
X191957000Y-82304000D03*
X191957000Y-81804000D03*
D22*
X190992000Y-80839000D03*
X190492000Y-80839000D03*
X189992000Y-80839000D03*
X189492000Y-80839000D03*
X188992000Y-80839000D03*
D23*
X190617000Y-83429000D03*
X190617000Y-82179000D03*
X189367000Y-83429000D03*
X189367000Y-82179000D03*
D24*
X180969102Y-78329258D03*
X179869102Y-78329258D03*
X180969102Y-85194258D03*
X179869102Y-85194258D03*
X177519102Y-78329258D03*
X178619102Y-78329258D03*
X177619102Y-85194258D03*
X178719102Y-85194258D03*
X189750000Y-78900000D03*
X190850000Y-78900000D03*
D12*
X187500000Y-79750000D03*
X187500000Y-80850000D03*
X198500000Y-83300000D03*
X198500000Y-82200000D03*
D24*
X201150000Y-81600000D03*
X202250000Y-81600000D03*
X188200000Y-86000000D03*
X189300000Y-86000000D03*
D25*
X195800000Y-83500000D03*
X195800000Y-81300000D03*
X194200000Y-83500000D03*
X194200000Y-81300000D03*
D26*
X180869102Y-77029258D03*
X179369102Y-77029258D03*
X180869102Y-83994258D03*
X179369102Y-83994258D03*
X189950000Y-77600000D03*
X191450000Y-77600000D03*
D27*
X198500000Y-79350000D03*
X198500000Y-80850000D03*
D26*
X201000000Y-80250000D03*
X202500000Y-80250000D03*
D24*
X194350000Y-80000000D03*
X195450000Y-80000000D03*
D28*
X187653000Y-74422000D03*
X190553000Y-74422000D03*
D29*
X200900000Y-76750000D03*
X200900000Y-75250000D03*
X195000000Y-85250000D03*
X195000000Y-86750000D03*
X193400000Y-85250000D03*
X193400000Y-86750000D03*
X199400000Y-76750000D03*
X199400000Y-75250000D03*
X197900000Y-76750000D03*
X197900000Y-75250000D03*
D30*
X195302000Y-74422000D03*
X192302000Y-74422000D03*
D31*
X188300000Y-77900000D03*
X186300000Y-77900000D03*
D12*
X182384102Y-80579258D03*
X182384102Y-79479258D03*
X182219102Y-87444258D03*
X182219102Y-86344258D03*
D32*
X176119102Y-77479258D03*
X176119102Y-78379258D03*
X176119102Y-84344258D03*
X176119102Y-85244258D03*
X182219102Y-81779258D03*
X182219102Y-82679258D03*
X183419102Y-80579258D03*
X183419102Y-79679258D03*
X182219102Y-88544258D03*
X182219102Y-89444258D03*
X183419102Y-87344258D03*
X183419102Y-86444258D03*
X173784102Y-87179258D03*
X173784102Y-88079258D03*
D33*
X178069102Y-80529258D03*
X178969102Y-80529258D03*
X178069102Y-87294258D03*
X178969102Y-87294258D03*
D32*
X174884102Y-85079258D03*
X174884102Y-85979258D03*
D33*
X177269102Y-76929258D03*
X178169102Y-76929258D03*
X177269102Y-83894258D03*
X178169102Y-83894258D03*
X178069102Y-81829258D03*
X178969102Y-81829258D03*
X178069102Y-88594258D03*
X178969102Y-88594258D03*
D34*
X170180000Y-78740000D03*
D35*
X170180000Y-81280000D03*
X170180000Y-83820000D03*
D34*
X170180000Y-86360000D03*
D35*
X170180000Y-88900000D03*
X170180000Y-91440000D03*
D29*
X195500000Y-70550000D03*
X195500000Y-72050000D03*
D12*
X174919102Y-81379258D03*
X174919102Y-80279258D03*
X174919102Y-88144258D03*
X174919102Y-87044258D03*
X209000000Y-86850000D03*
X209000000Y-85750000D03*
D11*
X209150000Y-83200000D03*
X207650000Y-83200000D03*
D33*
X214000000Y-81800000D03*
X214900000Y-81800000D03*
X214100000Y-80600000D03*
X213200000Y-80600000D03*
D17*
X205500000Y-79500000D03*
X205500000Y-80150000D03*
X205500000Y-80800000D03*
X205500000Y-81450000D03*
X209900000Y-81450000D03*
X209900000Y-80800000D03*
X209900000Y-80150000D03*
X209900000Y-79500000D03*
D36*
X215800000Y-90610000D03*
X215800000Y-89340000D03*
X215800000Y-88070000D03*
X215800000Y-86800000D03*
X215800000Y-85530000D03*
X215800000Y-84260000D03*
X215800000Y-82990000D03*
X210400000Y-82990000D03*
X210400000Y-84260000D03*
X210400000Y-85530000D03*
X210400000Y-86800000D03*
X210400000Y-88070000D03*
X210400000Y-89340000D03*
X210400000Y-90610000D03*
D34*
X218440000Y-76200000D03*
D35*
X218440000Y-78740000D03*
X218440000Y-81280000D03*
X218440000Y-83820000D03*
X218440000Y-86360000D03*
X218440000Y-88900000D03*
X218440000Y-91440000D03*
X218440000Y-93980000D03*
D24*
X210050000Y-78600000D03*
X208950000Y-78600000D03*
D37*
X214323770Y-84336508D03*
X211689924Y-89208449D03*
X183200000Y-78900000D03*
X183700000Y-78900000D03*
X184200000Y-78900000D03*
X185700000Y-78900000D03*
X185200000Y-78900000D03*
X184700000Y-78900000D03*
X176084102Y-77029258D03*
X180969102Y-77729258D03*
X176084102Y-83929258D03*
X180969102Y-84629258D03*
X210789730Y-77941000D03*
X201190245Y-80133945D03*
X214604623Y-89497147D03*
X215600000Y-81409603D03*
X210400000Y-76400000D03*
X188600000Y-76800000D03*
X174265112Y-85878990D03*
X179591421Y-84629720D03*
X179102578Y-84629716D03*
X178602750Y-84613240D03*
X208580457Y-85506477D03*
X201084309Y-88267230D03*
X184100000Y-75400000D03*
X184100000Y-74800000D03*
X184100000Y-74200000D03*
X184100000Y-73600000D03*
X178684102Y-77729258D03*
X179684102Y-77729258D03*
X179184102Y-77729258D03*
X175784102Y-82329258D03*
X176784102Y-82329258D03*
X176284102Y-82329258D03*
X175884102Y-89029258D03*
X176884102Y-89029258D03*
X176384102Y-89029258D03*
X188341000Y-81026000D03*
X188214000Y-84709000D03*
X187960000Y-84328000D03*
X188468000Y-84328000D03*
X185100000Y-77900000D03*
X185500000Y-78200000D03*
X185474594Y-77601626D03*
X209300000Y-77941000D03*
X208800000Y-77941000D03*
X204500000Y-81500000D03*
X212224845Y-90761475D03*
X213530763Y-88756007D03*
X216400000Y-89900000D03*
X216900084Y-91299804D03*
X215100000Y-80800000D03*
X215600000Y-80800000D03*
X216100000Y-80800000D03*
X216600000Y-80800000D03*
X214600000Y-80800000D03*
X216900000Y-84400000D03*
X214835893Y-86812109D03*
X201700000Y-81000000D03*
X202200000Y-81000000D03*
X202700000Y-81000000D03*
X179000000Y-79100000D03*
X179000000Y-86600000D03*
X197500000Y-79300000D03*
X197900000Y-76200000D03*
X200459511Y-77266883D03*
X204000000Y-77600000D03*
X189900000Y-76700000D03*
X197612000Y-80391000D03*
X194183000Y-85217000D03*
X206500000Y-76723494D03*
X196637979Y-81316579D03*
X196634483Y-84531914D03*
X197293354Y-84593023D03*
X196646116Y-81281018D03*
X190731002Y-77300000D03*
X190731002Y-77800000D03*
X191700000Y-76700000D03*
X191200000Y-76700000D03*
X190100000Y-86200000D03*
X190589684Y-86110316D03*
X190207091Y-85727724D03*
X212900000Y-78700000D03*
X213368990Y-78700000D03*
X212400000Y-78700000D03*
X193701658Y-79595638D03*
X193363644Y-83363645D03*
X193182599Y-81363601D03*
X193200000Y-83800000D03*
X193300000Y-84300000D03*
X193700000Y-84600000D03*
X194200000Y-84600000D03*
X194700000Y-84600000D03*
X195200000Y-84600000D03*
X195700000Y-84581002D03*
X196200000Y-84581002D03*
X197100000Y-83631002D03*
X197600000Y-83600000D03*
X197731002Y-83100000D03*
X197723604Y-82575280D03*
X197700000Y-82100000D03*
X197600000Y-81600000D03*
X193218998Y-80900000D03*
X193259221Y-80429611D03*
X193668998Y-80100000D03*
X194200000Y-79300000D03*
X194700000Y-79300000D03*
X195200000Y-79300000D03*
X195700000Y-79300000D03*
X196100000Y-79600000D03*
X196100000Y-80100000D03*
X196600000Y-80300000D03*
X196700000Y-80800000D03*
X195700000Y-82400000D03*
X196200000Y-82400000D03*
X204400000Y-78400000D03*
X204400059Y-80819839D03*
X206865271Y-87166572D03*
X207961990Y-84647512D03*
X179000000Y-82500000D03*
X178898648Y-89678586D03*
X202099845Y-75418600D03*
X202738509Y-77738509D03*
X202709873Y-75409873D03*
X203219519Y-77288509D03*
X200818746Y-77799273D03*
X201422234Y-79171925D03*
X196781010Y-72100000D03*
X192400000Y-84500000D03*
X210623276Y-75440374D03*
X200209603Y-77822905D03*
X200200000Y-79200000D03*
X199600000Y-77822905D03*
X199487983Y-79215349D03*
X193125494Y-79794761D03*
X207500000Y-79800000D03*
X207798990Y-78200000D03*
X178100000Y-87913256D03*
X174700000Y-88700000D03*
X200600000Y-88670414D03*
X201560499Y-87854572D03*
X174900000Y-82100000D03*
X178100000Y-79600000D03*
X175100000Y-79400000D03*
X177400000Y-86841010D03*
X214411237Y-90878368D03*
X217011002Y-85900000D03*
X213844355Y-90459708D03*
X213312913Y-81287087D03*
X214100000Y-85500000D03*
X204391848Y-80194286D03*
X208224595Y-89727643D03*
D38*
X176119102Y-77479258D02*
X176119102Y-77064258D01*
X176119102Y-77064258D02*
X176084102Y-77029258D01*
X180969102Y-77729258D02*
X180969102Y-77129258D01*
X180969102Y-78329258D02*
X180969102Y-77729258D01*
X180969102Y-77129258D02*
X180869102Y-77029258D01*
X180969102Y-78329258D02*
X180969102Y-79579258D01*
X180969102Y-79579258D02*
X180719102Y-79829258D01*
X176119102Y-84344258D02*
X176119102Y-83964258D01*
X176119102Y-83964258D02*
X176084102Y-83929258D01*
X180969102Y-85194258D02*
X180969102Y-84629258D01*
X180869102Y-83994258D02*
X180869102Y-84529258D01*
X180869102Y-84529258D02*
X180969102Y-84629258D01*
X180969102Y-85194258D02*
X180969102Y-86344258D01*
X180969102Y-86344258D02*
X180719102Y-86594258D01*
X187500000Y-79750000D02*
X187500000Y-78000000D01*
X187500000Y-78000000D02*
X187600000Y-77900000D01*
X187600000Y-77900000D02*
X188300000Y-77900000D01*
X188992000Y-80839000D02*
X188992000Y-80274000D01*
X188992000Y-80274000D02*
X188468000Y-79750000D01*
X188468000Y-79750000D02*
X187950000Y-79750000D01*
X187950000Y-79750000D02*
X187500000Y-79750000D01*
X210050000Y-78600000D02*
X210100000Y-78600000D01*
X210759000Y-77941000D02*
X210789730Y-77941000D01*
X210100000Y-78600000D02*
X210759000Y-77941000D01*
X209900000Y-79500000D02*
X209900000Y-78750000D01*
X209900000Y-78750000D02*
X210050000Y-78600000D01*
X201116055Y-80133945D02*
X201190245Y-80133945D01*
X201000000Y-80250000D02*
X201116055Y-80133945D01*
X214900000Y-81800000D02*
X215209603Y-81800000D01*
X215209603Y-81800000D02*
X215600000Y-81409603D01*
X201150000Y-81600000D02*
X201062947Y-81512947D01*
X201062947Y-81512947D02*
X201062947Y-80312947D01*
X201062947Y-80312947D02*
X201000000Y-80250000D01*
X201530000Y-83140000D02*
X201530000Y-81980000D01*
X201530000Y-81980000D02*
X201150000Y-81600000D01*
D39*
X201141730Y-81573906D02*
X201136574Y-81568750D01*
D38*
X201200000Y-80450000D02*
X201000000Y-80250000D01*
X188300000Y-77900000D02*
X188300000Y-77100000D01*
X188300000Y-77100000D02*
X188600000Y-76800000D01*
X188550000Y-78150000D02*
X188300000Y-77900000D01*
X174265112Y-85878990D02*
X174783834Y-85878990D01*
X179429564Y-84629720D02*
X179591421Y-84629720D01*
X179369102Y-84569258D02*
X179429564Y-84629720D01*
X179369102Y-83994258D02*
X179369102Y-84569258D01*
X179102578Y-84629716D02*
X179591417Y-84629716D01*
X179591417Y-84629716D02*
X179591421Y-84629720D01*
X179086102Y-84613240D02*
X179102578Y-84629716D01*
X178602750Y-84613240D02*
X179086102Y-84613240D01*
X208809056Y-85735076D02*
X208580457Y-85506477D01*
X208823980Y-85750000D02*
X208809056Y-85735076D01*
X209000000Y-85750000D02*
X208823980Y-85750000D01*
X174919102Y-87044258D02*
X174919102Y-86014258D01*
X174919102Y-86014258D02*
X174884102Y-85979258D01*
X174783834Y-85878990D02*
X174884102Y-85979258D01*
X201930000Y-87040000D02*
X201930000Y-87512191D01*
X201930000Y-87512191D02*
X202041500Y-87623691D01*
X202041500Y-88085453D02*
X201791380Y-88335573D01*
X201791380Y-88335573D02*
X201152652Y-88335573D01*
X202041500Y-87623691D02*
X202041500Y-88085453D01*
X201152652Y-88335573D02*
X201084309Y-88267230D01*
D40*
X186792800Y-80850000D02*
X187500000Y-80850000D01*
X186309601Y-77909601D02*
X186309601Y-80366801D01*
X186300000Y-77900000D02*
X186309601Y-77909601D01*
X186309601Y-80366801D02*
X186792800Y-80850000D01*
D38*
X179184102Y-77729258D02*
X178684102Y-77729258D01*
X179184102Y-77729258D02*
X179684102Y-77729258D01*
X179369102Y-77029258D02*
X179369102Y-77544258D01*
X179369102Y-77544258D02*
X179184102Y-77729258D01*
X176284102Y-82329258D02*
X175784102Y-82329258D01*
X176284102Y-82329258D02*
X176784102Y-82329258D01*
X176319102Y-81779258D02*
X176319102Y-82294258D01*
X176319102Y-82294258D02*
X176284102Y-82329258D01*
X176384102Y-89029258D02*
X175884102Y-89029258D01*
X176384102Y-89029258D02*
X176884102Y-89029258D01*
X176319102Y-88544258D02*
X176319102Y-88964258D01*
X176319102Y-88964258D02*
X176384102Y-89029258D01*
X174919102Y-87044258D02*
X175119102Y-87244258D01*
X175119102Y-87244258D02*
X176319102Y-87244258D01*
X176319102Y-87244258D02*
X177073424Y-87244258D01*
X177513947Y-87684781D02*
X177513947Y-88279074D01*
X177073424Y-87244258D02*
X177513947Y-87684781D01*
X177513947Y-88279074D02*
X177829131Y-88594258D01*
X177829131Y-88594258D02*
X178069102Y-88594258D01*
X178019102Y-88544258D02*
X178069102Y-88594258D01*
D40*
X187500000Y-80850000D02*
X187674428Y-81024428D01*
X187674428Y-81024428D02*
X188339428Y-81024428D01*
X188339428Y-81024428D02*
X188341000Y-81026000D01*
D38*
X187960000Y-84328000D02*
X187960000Y-84455000D01*
X187960000Y-84455000D02*
X188214000Y-84709000D01*
X188027000Y-83804000D02*
X188027000Y-84261000D01*
X188027000Y-84261000D02*
X187960000Y-84328000D01*
X188027000Y-83804000D02*
X188027000Y-83887000D01*
X188027000Y-83887000D02*
X188468000Y-84328000D01*
X190617000Y-83429000D02*
X190617000Y-82179000D01*
X190617000Y-82179000D02*
X189367000Y-82179000D01*
X190617000Y-83429000D02*
X189367000Y-83429000D01*
D40*
X186300000Y-77900000D02*
X186300000Y-77920194D01*
X185100000Y-77900000D02*
X186300000Y-77900000D01*
X185474594Y-77601626D02*
X185398374Y-77601626D01*
X185398374Y-77601626D02*
X185100000Y-77900000D01*
X185500000Y-78200000D02*
X185400000Y-78200000D01*
X185400000Y-78200000D02*
X185100000Y-77900000D01*
X186300000Y-77900000D02*
X185800000Y-77900000D01*
X185800000Y-77900000D02*
X185500000Y-78200000D01*
X186300000Y-77900000D02*
X185772968Y-77900000D01*
X185772968Y-77900000D02*
X185474594Y-77601626D01*
D38*
X208950000Y-78600000D02*
X208950000Y-78150000D01*
X208950000Y-78600000D02*
X208950000Y-78091000D01*
X208950000Y-78091000D02*
X208800000Y-77941000D01*
X208950000Y-78150000D02*
X209159000Y-77941000D01*
X209159000Y-77941000D02*
X209300000Y-77941000D01*
X205500000Y-81450000D02*
X204550000Y-81450000D01*
X204550000Y-81450000D02*
X204500000Y-81500000D01*
X214100000Y-80600000D02*
X214400000Y-80600000D01*
X214400000Y-80600000D02*
X214600000Y-80800000D01*
D40*
X215800000Y-89340000D02*
X215840000Y-89340000D01*
X215840000Y-89340000D02*
X216400000Y-89900000D01*
X215800000Y-84260000D02*
X216760000Y-84260000D01*
X216760000Y-84260000D02*
X216900000Y-84400000D01*
X215159182Y-86812109D02*
X214835893Y-86812109D01*
X215787891Y-86812109D02*
X215159182Y-86812109D01*
X215800000Y-86800000D02*
X215787891Y-86812109D01*
X215800000Y-84260000D02*
X215350000Y-84260000D01*
X215800000Y-89340000D02*
X215561112Y-89340000D01*
D38*
X202700000Y-81000000D02*
X202700000Y-80450000D01*
X202700000Y-80450000D02*
X202500000Y-80250000D01*
X202200000Y-81000000D02*
X202200000Y-80550000D01*
X202200000Y-80550000D02*
X202500000Y-80250000D01*
X201700000Y-81000000D02*
X201750000Y-81000000D01*
X201750000Y-81000000D02*
X202500000Y-80250000D01*
X202250000Y-81600000D02*
X202250000Y-81550000D01*
X202250000Y-81550000D02*
X201700000Y-81000000D01*
X202250000Y-81600000D02*
X202250000Y-81050000D01*
X202250000Y-81050000D02*
X202200000Y-81000000D01*
X202200000Y-81000000D02*
X201700000Y-81000000D01*
X202700000Y-81000000D02*
X202200000Y-81000000D01*
X202250000Y-81600000D02*
X202250000Y-81450000D01*
X202250000Y-81450000D02*
X202700000Y-81000000D01*
X201930000Y-83140000D02*
X201930000Y-83890000D01*
X201930000Y-83890000D02*
X201330000Y-84490000D01*
X201930000Y-87040000D02*
X201930000Y-86290000D01*
X201930000Y-86290000D02*
X201330000Y-85690000D01*
D41*
X187960000Y-71120000D02*
X187960000Y-74190232D01*
X187960000Y-74190232D02*
X187706029Y-74444203D01*
D38*
X187960000Y-74115000D02*
X187653000Y-74422000D01*
X201930000Y-83140000D02*
X201930000Y-81920000D01*
X201930000Y-81920000D02*
X202250000Y-81600000D01*
X202300000Y-80450000D02*
X202500000Y-80250000D01*
X189300000Y-86000000D02*
X189492000Y-85808000D01*
X189492000Y-85808000D02*
X189492000Y-84769000D01*
X183419102Y-80579258D02*
X182319102Y-80579258D01*
X182319102Y-80579258D02*
X182219102Y-80679258D01*
X182219102Y-80679258D02*
X182219102Y-81129258D01*
X182219102Y-81129258D02*
X182219102Y-81779258D01*
X180719102Y-81129258D02*
X182219102Y-81129258D01*
X178969102Y-80529258D02*
X178969102Y-79130898D01*
X178969102Y-79130898D02*
X179000000Y-79100000D01*
X183419102Y-79679258D02*
X183919102Y-79679258D01*
X183919102Y-79679258D02*
X186043844Y-81804000D01*
X186043844Y-81804000D02*
X187462000Y-81804000D01*
X187462000Y-81804000D02*
X188027000Y-81804000D01*
X183519102Y-79679258D02*
X183419102Y-79679258D01*
X180719102Y-80479258D02*
X181473734Y-80479258D01*
X181473734Y-80479258D02*
X182377332Y-79575660D01*
X182377332Y-79575660D02*
X182380930Y-79579258D01*
X182380930Y-79579258D02*
X183319102Y-79579258D01*
X183319102Y-79579258D02*
X183419102Y-79679258D01*
X180719102Y-80479258D02*
X179019102Y-80479258D01*
X179019102Y-80479258D02*
X178969102Y-80529258D01*
X183419102Y-87344258D02*
X182319102Y-87344258D01*
X180719102Y-87894258D02*
X182184102Y-87894258D01*
X182184102Y-87894258D02*
X182219102Y-87929258D01*
X182219102Y-88544258D02*
X182219102Y-87929258D01*
X182219102Y-87929258D02*
X182219102Y-87444258D01*
X182319102Y-87344258D02*
X182219102Y-87444258D01*
X178969102Y-87294258D02*
X178969102Y-86630898D01*
X178969102Y-86630898D02*
X179000000Y-86600000D01*
X183419102Y-86444258D02*
X183419102Y-86044258D01*
X187462000Y-82804000D02*
X188027000Y-82804000D01*
X183419102Y-86044258D02*
X186659360Y-82804000D01*
X186659360Y-82804000D02*
X187462000Y-82804000D01*
X183519102Y-86444258D02*
X183419102Y-86444258D01*
X180719102Y-87244258D02*
X181473424Y-87244258D01*
X181473424Y-87244258D02*
X182219102Y-86498580D01*
X182219102Y-86498580D02*
X182219102Y-86394258D01*
X182219102Y-86394258D02*
X182219102Y-86344258D01*
X180719102Y-87244258D02*
X179019102Y-87244258D01*
X179019102Y-87244258D02*
X178969102Y-87294258D01*
X182219102Y-86344258D02*
X183319102Y-86344258D01*
X183319102Y-86344258D02*
X183419102Y-86444258D01*
X200900000Y-76750000D02*
X200900000Y-76826394D01*
X200900000Y-76826394D02*
X200459511Y-77266883D01*
X198500000Y-79350000D02*
X198500000Y-79375000D01*
X198500000Y-79375000D02*
X199127401Y-80002401D01*
X199127401Y-80002401D02*
X199127401Y-82622599D01*
X199127401Y-82622599D02*
X198500000Y-83250000D01*
X198500000Y-83250000D02*
X198500000Y-83300000D01*
X197500000Y-79300000D02*
X198450000Y-79300000D01*
X198450000Y-79300000D02*
X198500000Y-79350000D01*
X197550000Y-79350000D02*
X197500000Y-79300000D01*
X197900000Y-76750000D02*
X197900000Y-76200000D01*
X195500000Y-72050000D02*
X193970000Y-72050000D01*
X193970000Y-72050000D02*
X193040000Y-71120000D01*
X198500000Y-83300000D02*
X198500000Y-83204322D01*
X195302000Y-74422000D02*
X195302000Y-73672000D01*
D41*
X195302000Y-73672000D02*
X193040000Y-71410000D01*
D38*
X193040000Y-71410000D02*
X193040000Y-71120000D01*
X189850000Y-78900000D02*
X189850000Y-77700000D01*
X199980000Y-83890000D02*
X199090000Y-83890000D01*
X199090000Y-83890000D02*
X198500000Y-83300000D01*
X189950000Y-77600000D02*
X189950000Y-76750000D01*
X189950000Y-76750000D02*
X189900000Y-76700000D01*
X189850000Y-77700000D02*
X189950000Y-77600000D01*
X189492000Y-80839000D02*
X189492000Y-79258000D01*
X189492000Y-79258000D02*
X189850000Y-78900000D01*
D39*
X198500000Y-80850000D02*
X198071000Y-80850000D01*
X198071000Y-80850000D02*
X197612000Y-80391000D01*
D38*
X195000000Y-85250000D02*
X194216000Y-85250000D01*
X194216000Y-85250000D02*
X194183000Y-85217000D01*
X193400000Y-85250000D02*
X194150000Y-85250000D01*
X194150000Y-85250000D02*
X194183000Y-85217000D01*
X197316579Y-81316579D02*
X196961268Y-81316579D01*
X196646116Y-81308442D02*
X196646116Y-81281018D01*
X196637979Y-81316579D02*
X196646116Y-81308442D01*
X196700000Y-81227134D02*
X196646116Y-81281018D01*
X196200000Y-84581002D02*
X196585395Y-84581002D01*
X196695592Y-84593023D02*
X196634483Y-84531914D01*
X197100000Y-84399669D02*
X197293354Y-84593023D01*
X197100000Y-83631002D02*
X197100000Y-84399669D01*
X196627134Y-81300000D02*
X196646116Y-81281018D01*
X197600000Y-81600000D02*
X197316579Y-81316579D01*
X197293354Y-84593023D02*
X196695592Y-84593023D01*
X196961268Y-81316579D02*
X196637979Y-81316579D01*
X195800000Y-81300000D02*
X196627134Y-81300000D01*
X196700000Y-80800000D02*
X196700000Y-81227134D01*
X196585395Y-84581002D02*
X196634483Y-84531914D01*
X199400000Y-75250000D02*
X199200000Y-75250000D01*
X198120000Y-74170000D02*
X198120000Y-73660000D01*
X199200000Y-75250000D02*
X198120000Y-74170000D01*
D39*
X198493589Y-82193589D02*
X198493589Y-80856411D01*
X198500000Y-82200000D02*
X198493589Y-82193589D01*
X198493589Y-80856411D02*
X198500000Y-80850000D01*
D38*
X191450000Y-77600000D02*
X191031002Y-77600000D01*
D40*
X191031002Y-77600000D02*
X190731002Y-77300000D01*
X191450000Y-77600000D02*
X190931002Y-77600000D01*
X190931002Y-77600000D02*
X190731002Y-77800000D01*
X191450000Y-76950000D02*
X191700000Y-76700000D01*
X191450000Y-77600000D02*
X191450000Y-76950000D01*
X191450000Y-76950000D02*
X191200000Y-76700000D01*
D39*
X191450000Y-77600000D02*
X191450000Y-78300000D01*
X191450000Y-78300000D02*
X190850000Y-78900000D01*
D40*
X190589684Y-86110316D02*
X190189684Y-86110316D01*
X190189684Y-86110316D02*
X190100000Y-86200000D01*
X190207091Y-85727724D02*
X190207091Y-86092909D01*
D38*
X190207091Y-86092909D02*
X190100000Y-86200000D01*
X190207091Y-85727724D02*
X190207092Y-85727724D01*
D40*
X190207092Y-85727724D02*
X190589684Y-86110316D01*
D38*
X189992000Y-84769000D02*
X189992000Y-85512633D01*
X189992000Y-85512633D02*
X190207091Y-85727724D01*
D42*
X192302000Y-74422000D02*
X190553000Y-74422000D01*
D41*
X190500000Y-71120000D02*
X190500000Y-74369000D01*
D38*
X190500000Y-74369000D02*
X190553000Y-74422000D01*
X193876711Y-79300000D02*
X193701658Y-79475053D01*
X194200000Y-79300000D02*
X193876711Y-79300000D01*
X193668998Y-79628298D02*
X193701658Y-79595638D01*
X193668998Y-80100000D02*
X193668998Y-79628298D01*
X193701658Y-79475053D02*
X193701658Y-79595638D01*
X193218998Y-80900000D02*
X193218998Y-81327202D01*
X193313066Y-83363645D02*
X193363644Y-83363645D01*
X193200000Y-83800000D02*
X193200000Y-83476711D01*
X193218998Y-81327202D02*
X193182599Y-81363601D01*
X193200000Y-83476711D02*
X193313066Y-83363645D01*
X193300000Y-84300000D02*
X193300000Y-83900000D01*
X193300000Y-83900000D02*
X193200000Y-83800000D01*
X193700000Y-84600000D02*
X193600000Y-84600000D01*
X193600000Y-84600000D02*
X193300000Y-84300000D01*
X194200000Y-84600000D02*
X193700000Y-84600000D01*
X194700000Y-84600000D02*
X194200000Y-84600000D01*
X195200000Y-84600000D02*
X194700000Y-84600000D01*
X195700000Y-84581002D02*
X195218998Y-84581002D01*
X195218998Y-84581002D02*
X195200000Y-84600000D01*
X196200000Y-84581002D02*
X195700000Y-84581002D01*
X197600000Y-83600000D02*
X197131002Y-83600000D01*
X197131002Y-83600000D02*
X197100000Y-83631002D01*
X197731002Y-83100000D02*
X197731002Y-83468998D01*
X197731002Y-83468998D02*
X197600000Y-83600000D01*
X197723604Y-82575280D02*
X197723604Y-83092602D01*
X197723604Y-83092602D02*
X197731002Y-83100000D01*
X197700000Y-82100000D02*
X197700000Y-82551676D01*
X197700000Y-82551676D02*
X197723604Y-82575280D01*
X197600000Y-81600000D02*
X197600000Y-82000000D01*
X197600000Y-82000000D02*
X197700000Y-82100000D01*
X193259221Y-80429611D02*
X193259221Y-80859777D01*
X193259221Y-80859777D02*
X193218998Y-80900000D01*
X193668998Y-80100000D02*
X193588832Y-80100000D01*
X193588832Y-80100000D02*
X193259221Y-80429611D01*
X194700000Y-79300000D02*
X194200000Y-79300000D01*
X195200000Y-79300000D02*
X194700000Y-79300000D01*
X195700000Y-79300000D02*
X195200000Y-79300000D01*
X196100000Y-79600000D02*
X196000000Y-79600000D01*
X196000000Y-79600000D02*
X195700000Y-79300000D01*
X196100000Y-80100000D02*
X196100000Y-79600000D01*
X196600000Y-80300000D02*
X196300000Y-80300000D01*
X196300000Y-80300000D02*
X196100000Y-80100000D01*
X196700000Y-80800000D02*
X196700000Y-80400000D01*
X196700000Y-80400000D02*
X196600000Y-80300000D01*
X188992000Y-84769000D02*
X188992000Y-85208000D01*
X188992000Y-85208000D02*
X188200000Y-86000000D01*
D43*
X192652742Y-83294420D02*
X191966580Y-83294420D01*
X193451963Y-82495199D02*
X192652742Y-83294420D01*
X194949521Y-82495199D02*
X193451963Y-82495199D01*
X195601909Y-83147587D02*
X194949521Y-82495199D01*
D40*
X195700000Y-82400000D02*
X195700000Y-83400000D01*
D38*
X195700000Y-83400000D02*
X195800000Y-83500000D01*
D40*
X196200000Y-82400000D02*
X196200000Y-83100000D01*
D38*
X196200000Y-83100000D02*
X195800000Y-83500000D01*
X197100000Y-82950000D02*
X196350000Y-82950000D01*
X196350000Y-82950000D02*
X195800000Y-83500000D01*
X195800000Y-83500000D02*
X195601909Y-83301909D01*
X195601909Y-83301909D02*
X195601909Y-83147587D01*
X191966580Y-83294420D02*
X191957000Y-83304000D01*
D43*
X192496570Y-82804000D02*
X194000570Y-81300000D01*
X191957000Y-82804000D02*
X192496570Y-82804000D01*
X194000570Y-81300000D02*
X194066839Y-81300000D01*
D38*
X194066839Y-81300000D02*
X194200000Y-81300000D01*
X194350000Y-80000000D02*
X194350000Y-81150000D01*
X194350000Y-81150000D02*
X194200000Y-81300000D01*
X206359328Y-91034816D02*
X206359328Y-85408209D01*
X206359328Y-85408209D02*
X204841119Y-83890000D01*
X211662975Y-92130575D02*
X207455087Y-92130575D01*
X207455087Y-92130575D02*
X206359328Y-91034816D01*
X213360000Y-93980000D02*
X213360000Y-93827600D01*
X204841119Y-83890000D02*
X204480000Y-83890000D01*
X204480000Y-83890000D02*
X203880000Y-83890000D01*
X213360000Y-93827600D02*
X211662975Y-92130575D01*
X206006917Y-85554182D02*
X206006917Y-91180789D01*
X204742735Y-84290000D02*
X206006917Y-85554182D01*
X203880000Y-84290000D02*
X204742735Y-84290000D01*
X207351342Y-92525214D02*
X209517614Y-92525214D01*
X209517614Y-92525214D02*
X210820000Y-93827600D01*
X210820000Y-93827600D02*
X210820000Y-93980000D01*
X206006917Y-91180789D02*
X207351342Y-92525214D01*
X205654506Y-85700155D02*
X204644351Y-84690000D01*
X205654506Y-91354506D02*
X205654506Y-85700155D01*
X204644351Y-84690000D02*
X204480000Y-84690000D01*
X208280000Y-93980000D02*
X205654506Y-91354506D01*
X204480000Y-84690000D02*
X203880000Y-84690000D01*
X205740000Y-92764000D02*
X205740000Y-93980000D01*
X205302095Y-92326095D02*
X205740000Y-92764000D01*
X205302095Y-85846128D02*
X205302095Y-92326095D01*
X203880000Y-85090000D02*
X204545967Y-85090000D01*
X204545967Y-85090000D02*
X205302095Y-85846128D01*
X204447583Y-85490000D02*
X203880000Y-85490000D01*
X204949684Y-85992101D02*
X204447583Y-85490000D01*
X203200000Y-93827600D02*
X204949684Y-92077916D01*
X204949684Y-92077916D02*
X204949684Y-85992101D01*
X203200000Y-93980000D02*
X203200000Y-93827600D01*
X204597273Y-86138074D02*
X204349199Y-85890000D01*
X204597273Y-91213604D02*
X204597273Y-86138074D01*
X201832083Y-92655517D02*
X203155360Y-92655517D01*
X200660000Y-93827600D02*
X201832083Y-92655517D01*
X203155360Y-92655517D02*
X204597273Y-91213604D01*
X200660000Y-93980000D02*
X200660000Y-93827600D01*
X204349199Y-85890000D02*
X203880000Y-85890000D01*
X198120000Y-93827600D02*
X198120000Y-93980000D01*
X199644494Y-92303106D02*
X198120000Y-93827600D01*
X204244862Y-86954862D02*
X204244862Y-91067631D01*
X203880000Y-86590000D02*
X204244862Y-86954862D01*
X203880000Y-86290000D02*
X203880000Y-86590000D01*
X203009387Y-92303106D02*
X199644494Y-92303106D01*
X204244862Y-91067631D02*
X203009387Y-92303106D01*
X195580000Y-93980000D02*
X197609305Y-91950695D01*
X197609305Y-91950695D02*
X202829742Y-91950695D01*
X202829742Y-91950695D02*
X203889823Y-90890614D01*
X203889823Y-90890614D02*
X203889823Y-88399823D01*
X203889823Y-88399823D02*
X203130000Y-87640000D01*
X203130000Y-87640000D02*
X203130000Y-87040000D01*
X193040000Y-93980000D02*
X193040000Y-93827600D01*
X193040000Y-93827600D02*
X194233505Y-92634095D01*
X194233505Y-92634095D02*
X196372001Y-92634095D01*
X196372001Y-92634095D02*
X200002992Y-89003104D01*
X201130000Y-87640000D02*
X201130000Y-87040000D01*
X200002992Y-89003104D02*
X200002992Y-87997008D01*
X200002992Y-87997008D02*
X200200000Y-87800000D01*
X200200000Y-87800000D02*
X200970000Y-87800000D01*
X200970000Y-87800000D02*
X201130000Y-87640000D01*
X200730000Y-87040000D02*
X200182963Y-87040000D01*
X200182963Y-87040000D02*
X199643686Y-87579277D01*
X199643686Y-87579277D02*
X199643686Y-88864026D01*
X192054494Y-92273106D02*
X190500000Y-93827600D01*
X199643686Y-88864026D02*
X196234606Y-92273106D01*
X196234606Y-92273106D02*
X192054494Y-92273106D01*
X190500000Y-93827600D02*
X190500000Y-93980000D01*
X199477081Y-86290000D02*
X199980000Y-86290000D01*
X199288582Y-86478499D02*
X199477081Y-86290000D01*
X187960000Y-93980000D02*
X187960000Y-93827600D01*
X187960000Y-93827600D02*
X189866905Y-91920695D01*
X189866905Y-91920695D02*
X196080803Y-91920695D01*
X196080803Y-91920695D02*
X199288582Y-88712916D01*
X199288582Y-88712916D02*
X199288582Y-86478499D01*
X199980000Y-85890000D02*
X199378697Y-85890000D01*
X195895678Y-91568284D02*
X187679316Y-91568284D01*
X185420000Y-93827600D02*
X185420000Y-93980000D01*
X199378697Y-85890000D02*
X198936171Y-86332526D01*
X198936171Y-88527791D02*
X195895678Y-91568284D01*
X198936171Y-86332526D02*
X198936171Y-88527791D01*
X187679316Y-91568284D02*
X185420000Y-93827600D01*
X182880000Y-93980000D02*
X182880000Y-93827600D01*
X199380000Y-85490000D02*
X199980000Y-85490000D01*
X199280313Y-85490000D02*
X199380000Y-85490000D01*
X185491727Y-91215873D02*
X195749705Y-91215873D01*
X182880000Y-93827600D02*
X185491727Y-91215873D01*
X198583760Y-88381818D02*
X198583760Y-86186553D01*
X198583760Y-86186553D02*
X199280313Y-85490000D01*
X195749705Y-91215873D02*
X198583760Y-88381818D01*
X183304138Y-90863462D02*
X180340000Y-93827600D01*
X195603732Y-90863462D02*
X183304138Y-90863462D01*
X198231349Y-88235845D02*
X195603732Y-90863462D01*
X198231349Y-86040580D02*
X198231349Y-88235845D01*
X199980000Y-85090000D02*
X199181929Y-85090000D01*
X180340000Y-93827600D02*
X180340000Y-93980000D01*
X199181929Y-85090000D02*
X198231349Y-86040580D01*
X177800000Y-93827600D02*
X181116549Y-90511051D01*
X197878938Y-85894607D02*
X199083545Y-84690000D01*
X195457759Y-90511051D02*
X197878938Y-88089872D01*
X177800000Y-93980000D02*
X177800000Y-93827600D01*
X199380000Y-84690000D02*
X199980000Y-84690000D01*
X199083545Y-84690000D02*
X199380000Y-84690000D01*
X181116549Y-90511051D02*
X195457759Y-90511051D01*
X197878938Y-88089872D02*
X197878938Y-85894607D01*
X175260000Y-93827600D02*
X175260000Y-93980000D01*
X197526527Y-85748634D02*
X197526527Y-87943899D01*
X178928960Y-90158640D02*
X175260000Y-93827600D01*
X198985161Y-84290000D02*
X197526527Y-85748634D01*
X195311786Y-90158640D02*
X178928960Y-90158640D01*
X199980000Y-84290000D02*
X198985161Y-84290000D01*
X197526527Y-87943899D02*
X195311786Y-90158640D01*
X208530736Y-77000000D02*
X216560281Y-77000000D01*
X216560281Y-77000000D02*
X218300281Y-78740000D01*
X218300281Y-78740000D02*
X218440000Y-78740000D01*
X204400000Y-78400000D02*
X205081001Y-77718999D01*
X205081001Y-77718999D02*
X207811737Y-77718999D01*
X207811737Y-77718999D02*
X208530736Y-77000000D01*
X205523566Y-82973566D02*
X205523566Y-82733426D01*
X205523566Y-82733426D02*
X206477401Y-81779591D01*
X206477401Y-81779591D02*
X206477401Y-80852401D01*
X206477401Y-80852401D02*
X206425000Y-80800000D01*
X206425000Y-80800000D02*
X205500000Y-80800000D01*
X204419898Y-80800000D02*
X204400059Y-80819839D01*
X205500000Y-80800000D02*
X204419898Y-80800000D01*
X207650000Y-83200000D02*
X207650000Y-82775000D01*
X207650000Y-82775000D02*
X208975000Y-81450000D01*
X208975000Y-81450000D02*
X209900000Y-81450000D01*
X207650000Y-83200000D02*
X207650000Y-84335522D01*
X207650000Y-84335522D02*
X207961990Y-84647512D01*
X209900000Y-81450000D02*
X209205332Y-81450000D01*
X209900000Y-81450000D02*
X209145678Y-81450000D01*
X209145678Y-81450000D02*
X208318999Y-80623321D01*
X208656305Y-77372813D02*
X216434712Y-77372813D01*
X208318999Y-80623321D02*
X208318999Y-77710119D01*
X208318999Y-77710119D02*
X208656305Y-77372813D01*
X217100000Y-80092400D02*
X218287600Y-81280000D01*
X216434712Y-77372813D02*
X217100000Y-78038101D01*
X217100000Y-78038101D02*
X217100000Y-80092400D01*
X218287600Y-81280000D02*
X218440000Y-81280000D01*
X178969102Y-81829258D02*
X178969102Y-82469102D01*
X178969102Y-82469102D02*
X179000000Y-82500000D01*
X188027000Y-82304000D02*
X182594360Y-82304000D01*
X182594360Y-82304000D02*
X182219102Y-82679258D01*
X182219102Y-82679258D02*
X182319102Y-82679258D01*
X180719102Y-81779258D02*
X181319102Y-81779258D01*
X181902381Y-82362537D02*
X182219102Y-82679258D01*
X181319102Y-81779258D02*
X181902381Y-82362537D01*
X180719102Y-81779258D02*
X179019102Y-81779258D01*
X179019102Y-81779258D02*
X178969102Y-81829258D01*
X178969102Y-88594258D02*
X178969102Y-89608132D01*
X178969102Y-89608132D02*
X178898648Y-89678586D01*
X183971503Y-88228497D02*
X182755742Y-89444258D01*
X182755742Y-89444258D02*
X182219102Y-89444258D01*
X186657742Y-83304000D02*
X183971503Y-85990239D01*
X183971503Y-85990239D02*
X183971503Y-88228497D01*
X188027000Y-83304000D02*
X186657742Y-83304000D01*
X182219102Y-89449456D02*
X182219102Y-89444258D01*
X180719102Y-88544258D02*
X179019102Y-88544258D01*
X179019102Y-88544258D02*
X178969102Y-88594258D01*
X180719102Y-88544258D02*
X181319102Y-88544258D01*
X181319102Y-88544258D02*
X182219102Y-89444258D01*
X203558437Y-81809945D02*
X203558437Y-79580733D01*
X202738509Y-78061798D02*
X202738509Y-77738509D01*
X202730000Y-82638382D02*
X203558437Y-81809945D01*
X202738509Y-78760805D02*
X202738509Y-78061798D01*
X202730000Y-83140000D02*
X202730000Y-82638382D01*
X203558437Y-79580733D02*
X202738509Y-78760805D01*
X202371923Y-74823233D02*
X202099845Y-75095311D01*
X204076767Y-74823233D02*
X202371923Y-74823233D01*
X204500000Y-74400000D02*
X204076767Y-74823233D01*
X205740000Y-71120000D02*
X204500000Y-72360000D01*
X202099845Y-75095311D02*
X202099845Y-75418600D01*
X204500000Y-72360000D02*
X204500000Y-74400000D01*
X203219519Y-77611798D02*
X203219519Y-77288509D01*
X203910847Y-79310847D02*
X203219519Y-78619519D01*
X203219519Y-78619519D02*
X203219519Y-77611798D01*
X203910847Y-82059153D02*
X203910847Y-79310847D01*
X203130000Y-82840000D02*
X203910847Y-82059153D01*
X203130000Y-83140000D02*
X203130000Y-82840000D01*
X200900000Y-76000000D02*
X200350000Y-76000000D01*
X202230327Y-76000000D02*
X200900000Y-76000000D01*
X200900000Y-76000000D02*
X200900000Y-75250000D01*
X200350000Y-76000000D02*
X199600000Y-76750000D01*
X199600000Y-76750000D02*
X199400000Y-76750000D01*
X202709873Y-75409873D02*
X202709873Y-75520454D01*
X202709873Y-75520454D02*
X202230327Y-76000000D01*
X202709873Y-75409873D02*
X202944103Y-75175643D01*
X207000000Y-72400000D02*
X208280000Y-71120000D01*
X202944103Y-75175643D02*
X206265975Y-75175643D01*
X206265975Y-75175643D02*
X207000000Y-74441618D01*
X207000000Y-74441618D02*
X207000000Y-72400000D01*
X200600000Y-78199999D02*
X201147590Y-77652408D01*
X200496082Y-78303917D02*
X200600000Y-78199999D01*
X200600000Y-78199999D02*
X200818746Y-77981253D01*
X200818746Y-77981253D02*
X200818746Y-77799273D01*
X203206026Y-79726706D02*
X202651245Y-79171925D01*
X201745523Y-79171925D02*
X201422234Y-79171925D01*
X202651245Y-79171925D02*
X201745523Y-79171925D01*
X203206026Y-81663974D02*
X203206026Y-79726706D01*
X202330000Y-83140000D02*
X202330000Y-82540000D01*
X202330000Y-82540000D02*
X203206026Y-81663974D01*
X191957000Y-81804000D02*
X192333272Y-81427728D01*
X192333272Y-81427728D02*
X192333272Y-79906741D01*
X192333272Y-79906741D02*
X193936096Y-78303917D01*
X193936096Y-78303917D02*
X200496082Y-78303917D01*
X201147590Y-77652408D02*
X203271944Y-75528054D01*
X203271944Y-75528054D02*
X206411946Y-75528054D01*
X206411946Y-75528054D02*
X207416401Y-74523599D01*
X207416401Y-74523599D02*
X208280000Y-73660000D01*
X202330000Y-82670000D02*
X202330000Y-83140000D01*
X196781010Y-72100000D02*
X196781010Y-74781010D01*
X196781010Y-74781010D02*
X197250000Y-75250000D01*
X197250000Y-75250000D02*
X197900000Y-75250000D01*
X196781010Y-72100000D02*
X197009609Y-72328599D01*
X197009609Y-72328599D02*
X201991401Y-72328599D01*
X201991401Y-72328599D02*
X202336401Y-71983599D01*
X202336401Y-71983599D02*
X203200000Y-71120000D01*
X192600000Y-84200000D02*
X192600000Y-84300000D01*
X192600000Y-84300000D02*
X192400000Y-84500000D01*
X192600000Y-83882000D02*
X192600000Y-84200000D01*
X191957000Y-83804000D02*
X192522000Y-83804000D01*
X192522000Y-83804000D02*
X192600000Y-83882000D01*
X200596767Y-79200000D02*
X203563895Y-76232872D01*
X200200000Y-79200000D02*
X200596767Y-79200000D01*
X210394677Y-75668973D02*
X210623276Y-75440374D01*
X203563895Y-76232872D02*
X209830778Y-76232872D01*
X209830778Y-76232872D02*
X210394677Y-75668973D01*
X191109229Y-80134016D02*
X190771251Y-80134016D01*
X199830881Y-77341904D02*
X199369119Y-77341904D01*
X200209603Y-77822905D02*
X200209603Y-77720626D01*
X200209603Y-77720626D02*
X199830881Y-77341904D01*
X193644149Y-77599096D02*
X191109229Y-80134016D01*
X199369119Y-77341904D02*
X199111927Y-77599096D01*
X199111927Y-77599096D02*
X193644149Y-77599096D01*
X190771251Y-80134016D02*
X190492000Y-80413267D01*
X190492000Y-80413267D02*
X190492000Y-80839000D01*
X199971401Y-79428599D02*
X200200000Y-79200000D01*
X199840394Y-79559606D02*
X199971401Y-79428599D01*
X199840394Y-81250394D02*
X199840394Y-79559606D01*
X201130000Y-82540000D02*
X199840394Y-81250394D01*
X201130000Y-83140000D02*
X201130000Y-82540000D01*
X189992000Y-80839000D02*
X189992000Y-80414884D01*
X189992000Y-80414884D02*
X190625278Y-79781606D01*
X194634482Y-77232806D02*
X196300000Y-75567288D01*
X190625278Y-79781606D02*
X190963257Y-79781606D01*
X190963257Y-79781606D02*
X193512057Y-77232806D01*
X196300000Y-75567288D02*
X196300000Y-71856780D01*
X193512057Y-77232806D02*
X194634482Y-77232806D01*
X196300000Y-71856780D02*
X197036780Y-71120000D01*
X195500000Y-70550000D02*
X196466780Y-70550000D01*
X196466780Y-70550000D02*
X197036780Y-71120000D01*
X197036780Y-71120000D02*
X198120000Y-71120000D01*
X207527945Y-74950937D02*
X212069063Y-74950937D01*
X212496401Y-74523599D02*
X213360000Y-73660000D01*
X212069063Y-74950937D02*
X212496401Y-74523599D01*
X200047004Y-78656328D02*
X200642055Y-78656328D01*
X199487983Y-79215349D02*
X200047004Y-78656328D01*
X203417920Y-75880463D02*
X206598419Y-75880463D01*
X200642055Y-78656328D02*
X203417920Y-75880463D01*
X206598419Y-75880463D02*
X207527945Y-74950937D01*
X199471399Y-77951506D02*
X199600000Y-77822905D01*
X190992000Y-80749629D02*
X193790123Y-77951506D01*
X190992000Y-80839000D02*
X190992000Y-80749629D01*
X193790123Y-77951506D02*
X199471399Y-77951506D01*
X200730000Y-83140000D02*
X200730000Y-82651995D01*
X200730000Y-82651995D02*
X199487983Y-81409978D01*
X199487983Y-79538638D02*
X199487983Y-79215349D01*
X199487983Y-81409978D02*
X199487983Y-79538638D01*
X192700000Y-82028084D02*
X192700000Y-80038395D01*
X192700000Y-80038395D02*
X192943634Y-79794761D01*
X192943634Y-79794761D02*
X193125494Y-79794761D01*
X191957000Y-82304000D02*
X192424084Y-82304000D01*
X192424084Y-82304000D02*
X192700000Y-82028084D01*
X207798990Y-78200000D02*
X207798990Y-79501010D01*
X207798990Y-79501010D02*
X207500000Y-79800000D01*
X178100000Y-87913256D02*
X178100000Y-87325156D01*
X178100000Y-87325156D02*
X178069102Y-87294258D01*
X202730000Y-87040000D02*
X202730000Y-87895336D01*
X202730000Y-87895336D02*
X201877105Y-88748231D01*
X201877105Y-88748231D02*
X200677817Y-88748231D01*
X200677817Y-88748231D02*
X200600000Y-88670414D01*
X173784102Y-88079258D02*
X174034102Y-88079258D01*
X174034102Y-88079258D02*
X174684102Y-88729258D01*
X174684102Y-88729258D02*
X174684102Y-88379258D01*
X174684102Y-88379258D02*
X174919102Y-88144258D01*
X174919102Y-88144258D02*
X175169102Y-87894258D01*
X175169102Y-87894258D02*
X176319102Y-87894258D01*
X201530000Y-87040000D02*
X201530000Y-87824073D01*
X201530000Y-87824073D02*
X201560499Y-87854572D01*
X174900000Y-82100000D02*
X174900000Y-81398360D01*
X174900000Y-81398360D02*
X174919102Y-81379258D01*
X178100000Y-79600000D02*
X178100000Y-80498360D01*
X178100000Y-80498360D02*
X178069102Y-80529258D01*
X176319102Y-81129258D02*
X175169102Y-81129258D01*
X175169102Y-81129258D02*
X174919102Y-81379258D01*
X174869102Y-81429258D02*
X174919102Y-81379258D01*
X191658000Y-86000000D02*
X194050000Y-86000000D01*
X194050000Y-86000000D02*
X194800000Y-86750000D01*
X194800000Y-86750000D02*
X195000000Y-86750000D01*
X190992000Y-84769000D02*
X190992000Y-85334000D01*
X190992000Y-85334000D02*
X191658000Y-86000000D01*
X190492000Y-84769000D02*
X190492000Y-85332382D01*
X190492000Y-85332382D02*
X191512027Y-86352409D01*
X191512027Y-86352409D02*
X192652409Y-86352409D01*
X192652409Y-86352409D02*
X193050000Y-86750000D01*
X193050000Y-86750000D02*
X193400000Y-86750000D01*
X176319102Y-79829258D02*
X175529258Y-79829258D01*
X175529258Y-79829258D02*
X175100000Y-79400000D01*
X176119102Y-79221010D02*
X176119102Y-79029258D01*
X176119102Y-79129258D02*
X176119102Y-79221010D01*
X176119102Y-79129258D02*
X176119102Y-79629258D01*
X176119102Y-78379258D02*
X176119102Y-79029258D01*
X176119102Y-78379258D02*
X177184102Y-78379258D01*
X177184102Y-78379258D02*
X177469102Y-78379258D01*
X177269102Y-76929258D02*
X177269102Y-78294258D01*
X177269102Y-78294258D02*
X177184102Y-78379258D01*
X177469102Y-78379258D02*
X177519102Y-78329258D01*
X176119102Y-79629258D02*
X176319102Y-79829258D01*
X176319102Y-86594258D02*
X177153248Y-86594258D01*
X177153248Y-86594258D02*
X177400000Y-86841010D01*
X176119102Y-85929258D02*
X176119102Y-86394258D01*
X176119102Y-85244258D02*
X176119102Y-85929258D01*
X176119102Y-85244258D02*
X177184102Y-85244258D01*
X177184102Y-85244258D02*
X177569102Y-85244258D01*
X177269102Y-83894258D02*
X177269102Y-85159258D01*
X177269102Y-85159258D02*
X177184102Y-85244258D01*
X177569102Y-85244258D02*
X177619102Y-85194258D01*
X176119102Y-86394258D02*
X176319102Y-86594258D01*
X176319102Y-80479258D02*
X177244102Y-80479258D01*
X177484102Y-81644258D02*
X177669102Y-81829258D01*
X177244102Y-80479258D02*
X177484102Y-80719258D01*
X177484102Y-80719258D02*
X177484102Y-81644258D01*
X177669102Y-81829258D02*
X178069102Y-81829258D01*
X176319102Y-80479258D02*
X175119102Y-80479258D01*
X175119102Y-80479258D02*
X174919102Y-80279258D01*
X173784102Y-87179258D02*
X173784102Y-85029258D01*
X173784102Y-85029258D02*
X173784102Y-80964258D01*
X174884102Y-85079258D02*
X173834102Y-85079258D01*
X173834102Y-85079258D02*
X173784102Y-85029258D01*
X173784102Y-80964258D02*
X174469102Y-80279258D01*
X174469102Y-80279258D02*
X174919102Y-80279258D01*
X214411237Y-90878368D02*
X214639836Y-90649769D01*
X214639836Y-90649769D02*
X214639836Y-90339836D01*
X214639836Y-90339836D02*
X214123622Y-89823622D01*
X214123622Y-89823622D02*
X214123622Y-88844010D01*
X214123622Y-88844010D02*
X214897632Y-88070000D01*
X214897632Y-88070000D02*
X215800000Y-88070000D01*
X216250000Y-88070000D02*
X216600931Y-88070000D01*
X216600931Y-88070000D02*
X217160760Y-88629829D01*
X217160760Y-88629829D02*
X217160760Y-90219799D01*
X217160760Y-90219799D02*
X218380961Y-91440000D01*
X218380961Y-91440000D02*
X218440000Y-91440000D01*
X216250000Y-88316591D02*
X216250000Y-88070000D01*
X216250000Y-88070000D02*
X215800000Y-88070000D01*
X217011002Y-85900000D02*
X216170000Y-85900000D01*
X216170000Y-85900000D02*
X215800000Y-85530000D01*
X215800000Y-85530000D02*
X217610000Y-85530000D01*
X217610000Y-85530000D02*
X218440000Y-86360000D01*
X218440000Y-83820000D02*
X217224000Y-83820000D01*
X217224000Y-83820000D02*
X217111599Y-83707599D01*
X217111599Y-83707599D02*
X213942401Y-83707599D01*
X213942401Y-83707599D02*
X210850000Y-86800000D01*
X210850000Y-86800000D02*
X210400000Y-86800000D01*
X218287600Y-83820000D02*
X218440000Y-83820000D01*
X209000000Y-86850000D02*
X210350000Y-86850000D01*
X210350000Y-86850000D02*
X210400000Y-86800000D01*
X216652246Y-93980000D02*
X213844355Y-91172109D01*
X213844355Y-91172109D02*
X213844355Y-90782997D01*
X218440000Y-93980000D02*
X216652246Y-93980000D01*
X213844355Y-90782997D02*
X213844355Y-90459708D01*
X213200000Y-80600000D02*
X213200000Y-81174174D01*
X213200000Y-81174174D02*
X213312913Y-81287087D01*
X214000000Y-81800000D02*
X213825826Y-81800000D01*
X213825826Y-81800000D02*
X213312913Y-81287087D01*
X216787600Y-87400000D02*
X214743534Y-87400000D01*
X214743534Y-87400000D02*
X214100000Y-86756466D01*
X214100000Y-86756466D02*
X214100000Y-85500000D01*
X218287600Y-88900000D02*
X216787600Y-87400000D01*
X218440000Y-88900000D02*
X218287600Y-88900000D01*
X209183096Y-88070000D02*
X208100000Y-86986904D01*
X210400000Y-88070000D02*
X209183096Y-88070000D01*
X208100000Y-86986904D02*
X208100000Y-85529742D01*
X208100000Y-85529742D02*
X207181098Y-84610840D01*
X207181098Y-84610840D02*
X207181098Y-84131098D01*
X207181098Y-84131098D02*
X206900000Y-83850000D01*
X206900000Y-83200000D02*
X206900000Y-83850000D01*
X206900000Y-83850000D02*
X206753764Y-83996236D01*
X206753764Y-83996236D02*
X206753764Y-84805877D01*
X209950000Y-89340000D02*
X210400000Y-89340000D01*
X206753764Y-84805877D02*
X207706943Y-85759056D01*
X207706943Y-85759056D02*
X207706943Y-87096943D01*
X207706943Y-87096943D02*
X209950000Y-89340000D01*
X210850000Y-89340000D02*
X210400000Y-89340000D01*
X210850000Y-88070000D02*
X210400000Y-88070000D01*
X209597599Y-85197599D02*
X209150000Y-84750000D01*
X209150000Y-84750000D02*
X209150000Y-83200000D01*
X210400000Y-85530000D02*
X210067599Y-85197599D01*
X210067599Y-85197599D02*
X209597599Y-85197599D01*
X210400000Y-84260000D02*
X210210000Y-84260000D01*
X210210000Y-84260000D02*
X209150000Y-83200000D01*
X210400000Y-85530000D02*
X210152878Y-85530000D01*
X205500000Y-79500000D02*
X206425000Y-79500000D01*
X206829811Y-81938281D02*
X206321044Y-82447048D01*
X206425000Y-79500000D02*
X206829811Y-79904811D01*
X206829811Y-79904811D02*
X206829811Y-81938281D01*
X206321044Y-84871541D02*
X207354532Y-85905029D01*
X206321044Y-82447048D02*
X206321044Y-84871541D01*
X207354532Y-85905029D02*
X207354532Y-87329071D01*
X207354532Y-87329071D02*
X209392522Y-89367061D01*
X209392522Y-89367061D02*
X209392522Y-90052522D01*
X209392522Y-90052522D02*
X209950000Y-90610000D01*
X209950000Y-90610000D02*
X210400000Y-90610000D01*
X205500000Y-80150000D02*
X204436134Y-80150000D01*
X204436134Y-80150000D02*
X204391848Y-80194286D01*
X210400000Y-90610000D02*
X209106952Y-90610000D01*
X209106952Y-90610000D02*
X208224595Y-89727643D01*
X210400000Y-82990000D02*
X210507182Y-82990000D01*
X211500000Y-81015081D02*
X210634919Y-80150000D01*
X210507182Y-82990000D02*
X211500000Y-81997182D01*
X211500000Y-81997182D02*
X211500000Y-81015081D01*
X210634919Y-80150000D02*
X209900000Y-80150000D01*
X209900000Y-80800000D02*
X210663944Y-80800000D01*
X210663944Y-80800000D02*
X211072707Y-81208763D01*
X211072707Y-81208763D02*
X211072707Y-81817293D01*
X211072707Y-81817293D02*
X210400000Y-82490000D01*
X210400000Y-82490000D02*
X210400000Y-82990000D01*
D44*
G36*
X202836500Y-81373698D02*
X202473698Y-81736500D01*
X201926302Y-81736500D01*
X201863500Y-81673698D01*
X201863500Y-79863500D01*
X202836500Y-79863500D01*
X202836500Y-81373698D01*
X202836500Y-81373698D01*
G37*
X202836500Y-81373698D02*
X202473698Y-81736500D01*
X201926302Y-81736500D01*
X201863500Y-81673698D01*
X201863500Y-79863500D01*
X202836500Y-79863500D01*
X202836500Y-81373698D01*
G36*
X196836500Y-79926302D02*
X196836500Y-80300000D01*
X196839014Y-80317691D01*
X196846357Y-80333981D01*
X196855099Y-80344901D01*
X197936500Y-81426302D01*
X197936500Y-83573698D01*
X196773698Y-84736500D01*
X192963500Y-84736500D01*
X192963500Y-83504516D01*
X193604518Y-82863499D01*
X194796967Y-82863499D01*
X194983056Y-83049588D01*
X194983056Y-84200000D01*
X194985798Y-84234381D01*
X195003857Y-84292695D01*
X195037446Y-84343670D01*
X195083907Y-84383268D01*
X195139561Y-84408355D01*
X195200000Y-84416944D01*
X196400000Y-84416944D01*
X196434381Y-84414202D01*
X196492695Y-84396143D01*
X196543670Y-84362554D01*
X196583268Y-84316093D01*
X196608355Y-84260439D01*
X196616944Y-84200000D01*
X196616944Y-83265900D01*
X196634324Y-83265900D01*
X196635798Y-83284381D01*
X196653857Y-83342695D01*
X196687446Y-83393670D01*
X196733907Y-83433268D01*
X196789561Y-83458355D01*
X196850000Y-83466944D01*
X197350000Y-83466944D01*
X197384381Y-83464202D01*
X197442695Y-83446143D01*
X197493670Y-83412554D01*
X197533268Y-83366093D01*
X197558355Y-83310439D01*
X197566944Y-83250000D01*
X197566944Y-82650000D01*
X197564202Y-82615619D01*
X197546143Y-82557305D01*
X197512554Y-82506330D01*
X197466093Y-82466732D01*
X197410439Y-82441645D01*
X197350000Y-82433056D01*
X196850000Y-82433056D01*
X196815619Y-82435798D01*
X196757305Y-82453857D01*
X196706330Y-82487446D01*
X196666732Y-82533907D01*
X196644500Y-82583227D01*
X196644500Y-82400000D01*
X196643984Y-82394737D01*
X196644519Y-82356415D01*
X196627588Y-82270904D01*
X196594369Y-82190310D01*
X196546130Y-82117703D01*
X196484706Y-82055849D01*
X196412438Y-82007104D01*
X196332078Y-81973324D01*
X196246688Y-81955796D01*
X196159519Y-81955187D01*
X196073892Y-81971521D01*
X195993068Y-82004176D01*
X195949940Y-82032399D01*
X195912438Y-82007104D01*
X195832078Y-81973324D01*
X195746688Y-81955796D01*
X195659519Y-81955187D01*
X195573892Y-81971521D01*
X195493068Y-82004176D01*
X195420127Y-82051908D01*
X195357845Y-82112898D01*
X195308597Y-82184824D01*
X195274256Y-82264946D01*
X195268273Y-82293097D01*
X195209948Y-82234772D01*
X195183662Y-82213180D01*
X195157598Y-82191310D01*
X195155902Y-82190378D01*
X195154404Y-82189147D01*
X195124435Y-82173078D01*
X195094610Y-82156681D01*
X195092760Y-82156094D01*
X195091057Y-82155181D01*
X195058569Y-82145248D01*
X195026095Y-82134947D01*
X195024169Y-82134731D01*
X195022318Y-82134165D01*
X194988459Y-82130726D01*
X194972338Y-82128917D01*
X194983268Y-82116093D01*
X195008355Y-82060439D01*
X195016944Y-82000000D01*
X195016944Y-80600000D01*
X195014202Y-80565619D01*
X194996143Y-80507305D01*
X194962554Y-80456330D01*
X194916093Y-80416732D01*
X194860439Y-80391645D01*
X194816779Y-80385440D01*
X194833268Y-80366093D01*
X194858355Y-80310439D01*
X194866944Y-80250000D01*
X194866944Y-79750000D01*
X194864202Y-79715619D01*
X194846143Y-79657305D01*
X194812554Y-79606330D01*
X194766093Y-79566732D01*
X194710439Y-79541645D01*
X194650000Y-79533056D01*
X194050000Y-79533056D01*
X194015619Y-79535798D01*
X193957305Y-79553857D01*
X193906330Y-79587446D01*
X193866732Y-79633907D01*
X193841645Y-79689561D01*
X193833056Y-79750000D01*
X193833056Y-80250000D01*
X193835798Y-80284381D01*
X193853857Y-80342695D01*
X193880452Y-80383056D01*
X193600000Y-80383056D01*
X193565619Y-80385798D01*
X193507305Y-80403857D01*
X193456330Y-80437446D01*
X193416732Y-80483907D01*
X193391645Y-80539561D01*
X193383056Y-80600000D01*
X193383056Y-81396659D01*
X193015900Y-81763815D01*
X193015900Y-80225802D01*
X193072609Y-80238270D01*
X193159761Y-80240096D01*
X193245607Y-80224959D01*
X193326879Y-80193435D01*
X193400480Y-80146727D01*
X193463607Y-80086612D01*
X193513855Y-80015381D01*
X193549310Y-79935746D01*
X193568623Y-79850741D01*
X193570013Y-79751176D01*
X193553082Y-79665665D01*
X193519863Y-79585071D01*
X193513823Y-79575979D01*
X194026302Y-79063500D01*
X195973698Y-79063500D01*
X196836500Y-79926302D01*
X196836500Y-79926302D01*
G37*
X196836500Y-79926302D02*
X196836500Y-80300000D01*
X196839014Y-80317691D01*
X196846357Y-80333981D01*
X196855099Y-80344901D01*
X197936500Y-81426302D01*
X197936500Y-83573698D01*
X196773698Y-84736500D01*
X192963500Y-84736500D01*
X192963500Y-83504516D01*
X193604518Y-82863499D01*
X194796967Y-82863499D01*
X194983056Y-83049588D01*
X194983056Y-84200000D01*
X194985798Y-84234381D01*
X195003857Y-84292695D01*
X195037446Y-84343670D01*
X195083907Y-84383268D01*
X195139561Y-84408355D01*
X195200000Y-84416944D01*
X196400000Y-84416944D01*
X196434381Y-84414202D01*
X196492695Y-84396143D01*
X196543670Y-84362554D01*
X196583268Y-84316093D01*
X196608355Y-84260439D01*
X196616944Y-84200000D01*
X196616944Y-83265900D01*
X196634324Y-83265900D01*
X196635798Y-83284381D01*
X196653857Y-83342695D01*
X196687446Y-83393670D01*
X196733907Y-83433268D01*
X196789561Y-83458355D01*
X196850000Y-83466944D01*
X197350000Y-83466944D01*
X197384381Y-83464202D01*
X197442695Y-83446143D01*
X197493670Y-83412554D01*
X197533268Y-83366093D01*
X197558355Y-83310439D01*
X197566944Y-83250000D01*
X197566944Y-82650000D01*
X197564202Y-82615619D01*
X197546143Y-82557305D01*
X197512554Y-82506330D01*
X197466093Y-82466732D01*
X197410439Y-82441645D01*
X197350000Y-82433056D01*
X196850000Y-82433056D01*
X196815619Y-82435798D01*
X196757305Y-82453857D01*
X196706330Y-82487446D01*
X196666732Y-82533907D01*
X196644500Y-82583227D01*
X196644500Y-82400000D01*
X196643984Y-82394737D01*
X196644519Y-82356415D01*
X196627588Y-82270904D01*
X196594369Y-82190310D01*
X196546130Y-82117703D01*
X196484706Y-82055849D01*
X196412438Y-82007104D01*
X196332078Y-81973324D01*
X196246688Y-81955796D01*
X196159519Y-81955187D01*
X196073892Y-81971521D01*
X195993068Y-82004176D01*
X195949940Y-82032399D01*
X195912438Y-82007104D01*
X195832078Y-81973324D01*
X195746688Y-81955796D01*
X195659519Y-81955187D01*
X195573892Y-81971521D01*
X195493068Y-82004176D01*
X195420127Y-82051908D01*
X195357845Y-82112898D01*
X195308597Y-82184824D01*
X195274256Y-82264946D01*
X195268273Y-82293097D01*
X195209948Y-82234772D01*
X195183662Y-82213180D01*
X195157598Y-82191310D01*
X195155902Y-82190378D01*
X195154404Y-82189147D01*
X195124435Y-82173078D01*
X195094610Y-82156681D01*
X195092760Y-82156094D01*
X195091057Y-82155181D01*
X195058569Y-82145248D01*
X195026095Y-82134947D01*
X195024169Y-82134731D01*
X195022318Y-82134165D01*
X194988459Y-82130726D01*
X194972338Y-82128917D01*
X194983268Y-82116093D01*
X195008355Y-82060439D01*
X195016944Y-82000000D01*
X195016944Y-80600000D01*
X195014202Y-80565619D01*
X194996143Y-80507305D01*
X194962554Y-80456330D01*
X194916093Y-80416732D01*
X194860439Y-80391645D01*
X194816779Y-80385440D01*
X194833268Y-80366093D01*
X194858355Y-80310439D01*
X194866944Y-80250000D01*
X194866944Y-79750000D01*
X194864202Y-79715619D01*
X194846143Y-79657305D01*
X194812554Y-79606330D01*
X194766093Y-79566732D01*
X194710439Y-79541645D01*
X194650000Y-79533056D01*
X194050000Y-79533056D01*
X194015619Y-79535798D01*
X193957305Y-79553857D01*
X193906330Y-79587446D01*
X193866732Y-79633907D01*
X193841645Y-79689561D01*
X193833056Y-79750000D01*
X193833056Y-80250000D01*
X193835798Y-80284381D01*
X193853857Y-80342695D01*
X193880452Y-80383056D01*
X193600000Y-80383056D01*
X193565619Y-80385798D01*
X193507305Y-80403857D01*
X193456330Y-80437446D01*
X193416732Y-80483907D01*
X193391645Y-80539561D01*
X193383056Y-80600000D01*
X193383056Y-81396659D01*
X193015900Y-81763815D01*
X193015900Y-80225802D01*
X193072609Y-80238270D01*
X193159761Y-80240096D01*
X193245607Y-80224959D01*
X193326879Y-80193435D01*
X193400480Y-80146727D01*
X193463607Y-80086612D01*
X193513855Y-80015381D01*
X193549310Y-79935746D01*
X193568623Y-79850741D01*
X193570013Y-79751176D01*
X193553082Y-79665665D01*
X193519863Y-79585071D01*
X193513823Y-79575979D01*
X194026302Y-79063500D01*
X195973698Y-79063500D01*
X196836500Y-79926302D01*
G36*
X186736500Y-78536500D02*
X185956020Y-78536500D01*
X185912438Y-78507104D01*
X185832078Y-78473324D01*
X185746688Y-78455796D01*
X185659519Y-78455187D01*
X185573892Y-78471521D01*
X185493068Y-78504176D01*
X185449940Y-78532399D01*
X185412438Y-78507104D01*
X185332078Y-78473324D01*
X185246688Y-78455796D01*
X185159519Y-78455187D01*
X185073892Y-78471521D01*
X184993068Y-78504176D01*
X184949940Y-78532399D01*
X184912438Y-78507104D01*
X184863500Y-78486533D01*
X184863500Y-77263500D01*
X186736500Y-77263500D01*
X186736500Y-78536500D01*
X186736500Y-78536500D01*
G37*
X186736500Y-78536500D02*
X185956020Y-78536500D01*
X185912438Y-78507104D01*
X185832078Y-78473324D01*
X185746688Y-78455796D01*
X185659519Y-78455187D01*
X185573892Y-78471521D01*
X185493068Y-78504176D01*
X185449940Y-78532399D01*
X185412438Y-78507104D01*
X185332078Y-78473324D01*
X185246688Y-78455796D01*
X185159519Y-78455187D01*
X185073892Y-78471521D01*
X184993068Y-78504176D01*
X184949940Y-78532399D01*
X184912438Y-78507104D01*
X184863500Y-78486533D01*
X184863500Y-77263500D01*
X186736500Y-77263500D01*
X186736500Y-78536500D01*
G36*
X188625056Y-81204000D02*
X188627798Y-81238381D01*
X188645857Y-81296695D01*
X188679446Y-81347670D01*
X188725907Y-81387268D01*
X188781561Y-81412355D01*
X188842000Y-81420944D01*
X189142000Y-81420944D01*
X189176381Y-81418202D01*
X189234695Y-81400143D01*
X189242728Y-81394850D01*
X189265160Y-81404962D01*
X189801500Y-81941302D01*
X189801500Y-84191693D01*
X189749305Y-84207857D01*
X189698330Y-84241446D01*
X189658732Y-84287907D01*
X189633645Y-84343561D01*
X189625056Y-84404000D01*
X189625056Y-85134000D01*
X189627798Y-85168381D01*
X189645857Y-85226695D01*
X189676100Y-85272592D01*
X189676100Y-85512633D01*
X189678945Y-85541645D01*
X189681491Y-85570743D01*
X189681954Y-85572335D01*
X189682116Y-85573992D01*
X189690554Y-85601939D01*
X189698691Y-85629948D01*
X189699456Y-85631425D01*
X189699936Y-85633013D01*
X189713621Y-85658751D01*
X189727064Y-85684685D01*
X189728101Y-85685984D01*
X189728880Y-85687449D01*
X189747314Y-85710051D01*
X189762509Y-85729086D01*
X189762006Y-85765099D01*
X189762591Y-85768286D01*
X189762591Y-85908250D01*
X189757845Y-85912898D01*
X189708597Y-85984824D01*
X189674256Y-86064946D01*
X189656133Y-86150212D01*
X189654915Y-86237375D01*
X189665767Y-86296500D01*
X188710336Y-86296500D01*
X188716944Y-86250000D01*
X188716944Y-85929806D01*
X189215375Y-85431375D01*
X189233900Y-85408822D01*
X189252653Y-85386473D01*
X189253452Y-85385019D01*
X189254508Y-85383734D01*
X189268306Y-85358001D01*
X189282355Y-85332446D01*
X189282857Y-85330862D01*
X189283642Y-85329399D01*
X189292162Y-85301530D01*
X189298525Y-85281471D01*
X189325268Y-85250093D01*
X189350355Y-85194439D01*
X189358944Y-85134000D01*
X189358944Y-84404000D01*
X189356202Y-84369619D01*
X189338143Y-84311305D01*
X189304554Y-84260330D01*
X189258093Y-84220732D01*
X189202439Y-84195645D01*
X189142000Y-84187056D01*
X188842000Y-84187056D01*
X188807619Y-84189798D01*
X188749305Y-84207857D01*
X188698330Y-84241446D01*
X188658732Y-84287907D01*
X188633645Y-84343561D01*
X188625056Y-84404000D01*
X188625056Y-85128194D01*
X188220194Y-85533056D01*
X187900000Y-85533056D01*
X187865619Y-85535798D01*
X187861787Y-85536985D01*
X187388500Y-85063698D01*
X187388500Y-83619900D01*
X187525529Y-83619900D01*
X187545907Y-83637268D01*
X187601561Y-83662355D01*
X187662000Y-83670944D01*
X188392000Y-83670944D01*
X188426381Y-83668202D01*
X188484695Y-83650143D01*
X188535670Y-83616554D01*
X188575268Y-83570093D01*
X188600355Y-83514439D01*
X188608944Y-83454000D01*
X188608944Y-83154000D01*
X188606202Y-83119619D01*
X188588143Y-83061305D01*
X188582850Y-83053272D01*
X188600355Y-83014439D01*
X188608944Y-82954000D01*
X188608944Y-82654000D01*
X188606202Y-82619619D01*
X188588143Y-82561305D01*
X188582850Y-82553272D01*
X188600355Y-82514439D01*
X188608944Y-82454000D01*
X188608944Y-82154000D01*
X188606202Y-82119619D01*
X188588143Y-82061305D01*
X188582850Y-82053272D01*
X188600355Y-82014439D01*
X188608944Y-81954000D01*
X188608944Y-81654000D01*
X188606202Y-81619619D01*
X188588143Y-81561305D01*
X188554554Y-81510330D01*
X188508093Y-81470732D01*
X188452439Y-81445645D01*
X188392000Y-81437056D01*
X187662000Y-81437056D01*
X187627619Y-81439798D01*
X187569305Y-81457857D01*
X187523408Y-81488100D01*
X187388500Y-81488100D01*
X187388500Y-80708500D01*
X188625056Y-80708500D01*
X188625056Y-81204000D01*
X188625056Y-81204000D01*
G37*
X188625056Y-81204000D02*
X188627798Y-81238381D01*
X188645857Y-81296695D01*
X188679446Y-81347670D01*
X188725907Y-81387268D01*
X188781561Y-81412355D01*
X188842000Y-81420944D01*
X189142000Y-81420944D01*
X189176381Y-81418202D01*
X189234695Y-81400143D01*
X189242728Y-81394850D01*
X189265160Y-81404962D01*
X189801500Y-81941302D01*
X189801500Y-84191693D01*
X189749305Y-84207857D01*
X189698330Y-84241446D01*
X189658732Y-84287907D01*
X189633645Y-84343561D01*
X189625056Y-84404000D01*
X189625056Y-85134000D01*
X189627798Y-85168381D01*
X189645857Y-85226695D01*
X189676100Y-85272592D01*
X189676100Y-85512633D01*
X189678945Y-85541645D01*
X189681491Y-85570743D01*
X189681954Y-85572335D01*
X189682116Y-85573992D01*
X189690554Y-85601939D01*
X189698691Y-85629948D01*
X189699456Y-85631425D01*
X189699936Y-85633013D01*
X189713621Y-85658751D01*
X189727064Y-85684685D01*
X189728101Y-85685984D01*
X189728880Y-85687449D01*
X189747314Y-85710051D01*
X189762509Y-85729086D01*
X189762006Y-85765099D01*
X189762591Y-85768286D01*
X189762591Y-85908250D01*
X189757845Y-85912898D01*
X189708597Y-85984824D01*
X189674256Y-86064946D01*
X189656133Y-86150212D01*
X189654915Y-86237375D01*
X189665767Y-86296500D01*
X188710336Y-86296500D01*
X188716944Y-86250000D01*
X188716944Y-85929806D01*
X189215375Y-85431375D01*
X189233900Y-85408822D01*
X189252653Y-85386473D01*
X189253452Y-85385019D01*
X189254508Y-85383734D01*
X189268306Y-85358001D01*
X189282355Y-85332446D01*
X189282857Y-85330862D01*
X189283642Y-85329399D01*
X189292162Y-85301530D01*
X189298525Y-85281471D01*
X189325268Y-85250093D01*
X189350355Y-85194439D01*
X189358944Y-85134000D01*
X189358944Y-84404000D01*
X189356202Y-84369619D01*
X189338143Y-84311305D01*
X189304554Y-84260330D01*
X189258093Y-84220732D01*
X189202439Y-84195645D01*
X189142000Y-84187056D01*
X188842000Y-84187056D01*
X188807619Y-84189798D01*
X188749305Y-84207857D01*
X188698330Y-84241446D01*
X188658732Y-84287907D01*
X188633645Y-84343561D01*
X188625056Y-84404000D01*
X188625056Y-85128194D01*
X188220194Y-85533056D01*
X187900000Y-85533056D01*
X187865619Y-85535798D01*
X187861787Y-85536985D01*
X187388500Y-85063698D01*
X187388500Y-83619900D01*
X187525529Y-83619900D01*
X187545907Y-83637268D01*
X187601561Y-83662355D01*
X187662000Y-83670944D01*
X188392000Y-83670944D01*
X188426381Y-83668202D01*
X188484695Y-83650143D01*
X188535670Y-83616554D01*
X188575268Y-83570093D01*
X188600355Y-83514439D01*
X188608944Y-83454000D01*
X188608944Y-83154000D01*
X188606202Y-83119619D01*
X188588143Y-83061305D01*
X188582850Y-83053272D01*
X188600355Y-83014439D01*
X188608944Y-82954000D01*
X188608944Y-82654000D01*
X188606202Y-82619619D01*
X188588143Y-82561305D01*
X188582850Y-82553272D01*
X188600355Y-82514439D01*
X188608944Y-82454000D01*
X188608944Y-82154000D01*
X188606202Y-82119619D01*
X188588143Y-82061305D01*
X188582850Y-82053272D01*
X188600355Y-82014439D01*
X188608944Y-81954000D01*
X188608944Y-81654000D01*
X188606202Y-81619619D01*
X188588143Y-81561305D01*
X188554554Y-81510330D01*
X188508093Y-81470732D01*
X188452439Y-81445645D01*
X188392000Y-81437056D01*
X187662000Y-81437056D01*
X187627619Y-81439798D01*
X187569305Y-81457857D01*
X187523408Y-81488100D01*
X187388500Y-81488100D01*
X187388500Y-80708500D01*
X188625056Y-80708500D01*
X188625056Y-81204000D01*
G36*
X177120602Y-89265758D02*
X175547602Y-89265758D01*
X175547602Y-88392758D01*
X177120602Y-88392758D01*
X177120602Y-89265758D01*
X177120602Y-89265758D01*
G37*
X177120602Y-89265758D02*
X175547602Y-89265758D01*
X175547602Y-88392758D01*
X177120602Y-88392758D01*
X177120602Y-89265758D01*
G36*
X180220602Y-85465758D02*
X178132991Y-85465758D01*
X178136046Y-85444258D01*
X178136046Y-84944258D01*
X178133304Y-84909877D01*
X178115245Y-84851563D01*
X178081656Y-84800588D01*
X178047602Y-84771564D01*
X178047602Y-83592758D01*
X180220602Y-83592758D01*
X180220602Y-85465758D01*
X180220602Y-85465758D01*
G37*
X180220602Y-85465758D02*
X178132991Y-85465758D01*
X178136046Y-85444258D01*
X178136046Y-84944258D01*
X178133304Y-84909877D01*
X178115245Y-84851563D01*
X178081656Y-84800588D01*
X178047602Y-84771564D01*
X178047602Y-83592758D01*
X180220602Y-83592758D01*
X180220602Y-85465758D01*
G36*
X177020602Y-82565758D02*
X175547602Y-82565758D01*
X175547602Y-81592758D01*
X177020602Y-81592758D01*
X177020602Y-82565758D01*
X177020602Y-82565758D01*
G37*
X177020602Y-82565758D02*
X175547602Y-82565758D01*
X175547602Y-81592758D01*
X177020602Y-81592758D01*
X177020602Y-82565758D01*
G36*
X180220602Y-78565758D02*
X178047602Y-78565758D01*
X178047602Y-76692758D01*
X180220602Y-76692758D01*
X180220602Y-78565758D01*
X180220602Y-78565758D01*
G37*
X180220602Y-78565758D02*
X178047602Y-78565758D01*
X178047602Y-76692758D01*
X180220602Y-76692758D01*
X180220602Y-78565758D01*
M02*
