G04 #@! TF.FileFunction,Copper,L4,Bot,Signal*
%FSLAX46Y46*%
G04 Gerber Fmt 4.6, Leading zero omitted, Abs format (unit mm)*
G04 Created by KiCad (PCBNEW 4.0.1-stable) date Saturday, February 13, 2016 'PMt' 08:54:39 PM*
%MOMM*%
G01*
G04 APERTURE LIST*
%ADD10C,0.100000*%
%ADD11R,1.330000X0.560000*%
%ADD12R,0.500000X0.900000*%
%ADD13R,0.600000X0.500000*%
%ADD14R,1.727200X1.727200*%
%ADD15O,1.727200X1.727200*%
%ADD16R,1.727200X2.032000*%
%ADD17O,1.727200X2.032000*%
%ADD18R,0.500000X0.600000*%
%ADD19R,0.800000X0.750000*%
%ADD20R,0.750000X0.800000*%
%ADD21R,1.000000X2.500000*%
%ADD22R,2.500000X1.000000*%
%ADD23R,0.900000X2.500000*%
%ADD24R,0.900000X0.500000*%
%ADD25R,2.500000X0.900000*%
%ADD26R,2.032000X1.727200*%
%ADD27O,2.032000X1.727200*%
%ADD28R,0.400000X0.600000*%
%ADD29R,0.600000X0.400000*%
%ADD30R,0.800000X0.200000*%
%ADD31R,0.200000X0.800000*%
%ADD32R,1.500000X1.500000*%
%ADD33R,0.910000X1.220000*%
%ADD34C,0.457200*%
%ADD35C,0.200000*%
%ADD36C,0.457200*%
%ADD37C,0.508000*%
%ADD38C,0.914400*%
%ADD39C,0.762000*%
%ADD40C,0.889000*%
%ADD41C,0.560000*%
%ADD42C,0.600000*%
%ADD43C,0.254000*%
%ADD44C,0.152400*%
G04 APERTURE END LIST*
D10*
D11*
X213900000Y-88250000D03*
X213900000Y-87300000D03*
X213900000Y-86350000D03*
X216300000Y-86350000D03*
X216300000Y-88250000D03*
X216300000Y-87300000D03*
D12*
X198450000Y-82500000D03*
X196950000Y-82500000D03*
D13*
X210250000Y-78500000D03*
X209150000Y-78500000D03*
D14*
X213360000Y-96520000D03*
D15*
X213360000Y-99060000D03*
X210820000Y-96520000D03*
X210820000Y-99060000D03*
X208280000Y-96520000D03*
X208280000Y-99060000D03*
X205740000Y-96520000D03*
X205740000Y-99060000D03*
X203200000Y-96520000D03*
X203200000Y-99060000D03*
X200660000Y-96520000D03*
X200660000Y-99060000D03*
X198120000Y-96520000D03*
X198120000Y-99060000D03*
X195580000Y-96520000D03*
X195580000Y-99060000D03*
X193040000Y-96520000D03*
X193040000Y-99060000D03*
X190500000Y-96520000D03*
X190500000Y-99060000D03*
X187960000Y-96520000D03*
X187960000Y-99060000D03*
X185420000Y-96520000D03*
X185420000Y-99060000D03*
X182880000Y-96520000D03*
X182880000Y-99060000D03*
X180340000Y-96520000D03*
X180340000Y-99060000D03*
X177800000Y-96520000D03*
X177800000Y-99060000D03*
X175260000Y-96520000D03*
X175260000Y-99060000D03*
D16*
X213360000Y-93980000D03*
D17*
X210820000Y-93980000D03*
X208280000Y-93980000D03*
X205740000Y-93980000D03*
X203200000Y-93980000D03*
X200660000Y-93980000D03*
X198120000Y-93980000D03*
X195580000Y-93980000D03*
X193040000Y-93980000D03*
X190500000Y-93980000D03*
X187960000Y-93980000D03*
X185420000Y-93980000D03*
X182880000Y-93980000D03*
X180340000Y-93980000D03*
X177800000Y-93980000D03*
X175260000Y-93980000D03*
D16*
X193040000Y-71120000D03*
D17*
X190500000Y-71120000D03*
X187960000Y-71120000D03*
X185420000Y-71120000D03*
D14*
X198120000Y-73660000D03*
D15*
X198120000Y-71120000D03*
X200660000Y-73660000D03*
X200660000Y-71120000D03*
X203200000Y-73660000D03*
X203200000Y-71120000D03*
X205740000Y-73660000D03*
X205740000Y-71120000D03*
X208280000Y-73660000D03*
X208280000Y-71120000D03*
X210820000Y-73660000D03*
X210820000Y-71120000D03*
X213360000Y-73660000D03*
X213360000Y-71120000D03*
D18*
X213000000Y-80400000D03*
X213000000Y-79300000D03*
D19*
X210450000Y-77050000D03*
X208950000Y-77050000D03*
D20*
X213050000Y-76400000D03*
X213050000Y-77900000D03*
D21*
X186031000Y-74422000D03*
X183031000Y-74422000D03*
D22*
X183769000Y-79732000D03*
X183769000Y-76732000D03*
D23*
X190553000Y-74422000D03*
X187653000Y-74422000D03*
D24*
X206600000Y-79800000D03*
X206600000Y-78300000D03*
X204200000Y-77050000D03*
X204200000Y-75550000D03*
X205800000Y-75550000D03*
X205800000Y-77050000D03*
X200900000Y-76750000D03*
X200900000Y-75250000D03*
X197900000Y-76750000D03*
X197900000Y-75250000D03*
D25*
X186817000Y-79682000D03*
X186817000Y-76782000D03*
D26*
X170180000Y-78740000D03*
D27*
X170180000Y-81280000D03*
X170180000Y-83820000D03*
D26*
X170180000Y-86360000D03*
D27*
X170180000Y-88900000D03*
X170180000Y-91440000D03*
D18*
X216500000Y-91950000D03*
X216500000Y-90850000D03*
D13*
X216450000Y-89300000D03*
X215350000Y-89300000D03*
X213550000Y-89100000D03*
X212450000Y-89100000D03*
D18*
X211800000Y-91400000D03*
X211800000Y-90300000D03*
D13*
X216100000Y-85100000D03*
X215000000Y-85100000D03*
D18*
X212700000Y-88250000D03*
X212700000Y-87150000D03*
D22*
X215600000Y-82900000D03*
X215600000Y-79900000D03*
D28*
X216050000Y-84000000D03*
X215150000Y-84000000D03*
D29*
X210800000Y-89850000D03*
X210800000Y-88950000D03*
X210800000Y-91400000D03*
X210800000Y-90500000D03*
D26*
X218440000Y-76200000D03*
D27*
X218440000Y-78740000D03*
X218440000Y-81280000D03*
X218440000Y-83820000D03*
X218440000Y-86360000D03*
X218440000Y-88900000D03*
X218440000Y-91440000D03*
X218440000Y-93980000D03*
D30*
X211500000Y-80800000D03*
X211500000Y-81200000D03*
X211500000Y-81600000D03*
X211500000Y-82000000D03*
X211500000Y-82400000D03*
X211500000Y-82800000D03*
X211500000Y-83200000D03*
D31*
X210700000Y-84000000D03*
X210300000Y-84000000D03*
X209900000Y-84000000D03*
X209500000Y-84000000D03*
X209100000Y-84000000D03*
X208700000Y-84000000D03*
X208300000Y-84000000D03*
D30*
X207500000Y-83200000D03*
X207500000Y-82800000D03*
X207500000Y-82400000D03*
X207500000Y-82000000D03*
X207500000Y-81600000D03*
X207500000Y-81200000D03*
X207500000Y-80800000D03*
D31*
X208300000Y-80000000D03*
X208700000Y-80000000D03*
X209100000Y-80000000D03*
X209500000Y-80000000D03*
X209900000Y-80000000D03*
X210300000Y-80000000D03*
X210700000Y-80000000D03*
D32*
X208900000Y-82600000D03*
X208900000Y-81400000D03*
X210100000Y-82600000D03*
X210100000Y-81400000D03*
D11*
X212900000Y-91950000D03*
X212900000Y-91000000D03*
X212900000Y-90050000D03*
X215300000Y-90050000D03*
X215300000Y-91950000D03*
X215300000Y-91000000D03*
D33*
X172720000Y-86360000D03*
X175990000Y-86360000D03*
X172720000Y-78740000D03*
X175990000Y-78740000D03*
X172720000Y-91440000D03*
X175990000Y-91440000D03*
X172720000Y-83820000D03*
X175990000Y-83820000D03*
D16*
X175260000Y-71120000D03*
D17*
X177800000Y-71120000D03*
X180340000Y-71120000D03*
X182880000Y-71120000D03*
D34*
X176700000Y-83800000D03*
X176926854Y-86853990D03*
X174000000Y-88900000D03*
X175300000Y-89200000D03*
X176300000Y-89200000D03*
X175300000Y-88016002D03*
X176300000Y-88016002D03*
X175800000Y-88016002D03*
X175800000Y-89200000D03*
X174600000Y-85600000D03*
X182730148Y-84169852D03*
X175300000Y-78400000D03*
X176700000Y-91400000D03*
X210300000Y-91291002D03*
X215200000Y-88800000D03*
X212068998Y-88400000D03*
X215253998Y-86211002D03*
X216900084Y-91299804D03*
X201084309Y-88267230D03*
X188400975Y-87201683D03*
X208580457Y-85506477D03*
X178684102Y-77729258D03*
X179684102Y-77729258D03*
X179184102Y-77729258D03*
X175784102Y-82329258D03*
X176784102Y-82329258D03*
X176284102Y-82329258D03*
X188341000Y-81026000D03*
X188214000Y-84709000D03*
X187960000Y-84328000D03*
X188468000Y-84328000D03*
X185100000Y-77900000D03*
X185500000Y-78200000D03*
X185474594Y-77601626D03*
X209300000Y-77941000D03*
X208800000Y-77941000D03*
X204500000Y-81500000D03*
X215100000Y-80800000D03*
X215600000Y-80800000D03*
X216100000Y-80800000D03*
X216600000Y-80800000D03*
X214600000Y-80800000D03*
X216900000Y-84400000D03*
X201700000Y-81000000D03*
X202200000Y-81000000D03*
X202700000Y-81000000D03*
X184100000Y-75400000D03*
X184100000Y-74800000D03*
X184100000Y-74200000D03*
X184100000Y-73600000D03*
X197731014Y-83046928D03*
X197631499Y-83518905D03*
X196781012Y-84018687D03*
X197122165Y-83631012D03*
X197139899Y-81272728D03*
X197612000Y-80391000D03*
X194183000Y-85217000D03*
X206500000Y-76723494D03*
X196634483Y-84531914D03*
X196646116Y-81281018D03*
X190731002Y-77300000D03*
X190731002Y-77800000D03*
X191700000Y-76700000D03*
X191200000Y-76700000D03*
X190100000Y-86200000D03*
X190589684Y-86110316D03*
X190207091Y-85727724D03*
X212900000Y-78700000D03*
X213368990Y-78700000D03*
X212400000Y-78700000D03*
X193701658Y-79595638D03*
X193363644Y-83363645D03*
X193182599Y-81363601D03*
X193200000Y-83800000D03*
X193300000Y-84300000D03*
X193700000Y-84600000D03*
X194200000Y-84600000D03*
X194700000Y-84600000D03*
X195200000Y-84600000D03*
X195700000Y-84581002D03*
X196200000Y-84581002D03*
X197723604Y-82575280D03*
X197700000Y-82100000D03*
X197600000Y-81600000D03*
X193218998Y-80900000D03*
X193259221Y-80429611D03*
X193668998Y-80100000D03*
X194200000Y-79300000D03*
X194700000Y-79300000D03*
X195200000Y-79300000D03*
X195700000Y-79300000D03*
X196100000Y-79600000D03*
X196100000Y-80100000D03*
X196600000Y-80300000D03*
X196700000Y-80800000D03*
X204400000Y-78400000D03*
X206865271Y-87166572D03*
X204400059Y-80819839D03*
X207988659Y-84717012D03*
X202099845Y-75418600D03*
X202738509Y-77738509D03*
X202709873Y-75409873D03*
X203219519Y-77288509D03*
X207500000Y-79800000D03*
X207798990Y-78200000D03*
X175100000Y-79400000D03*
X214411237Y-90878368D03*
X217200000Y-87100000D03*
X213844355Y-90459708D03*
X213312913Y-81287087D03*
X214100000Y-85500000D03*
X204391848Y-80194286D03*
X208224595Y-89727643D03*
X173500000Y-90000000D03*
X183830148Y-85269852D03*
X213131002Y-88896533D03*
X211689924Y-89208449D03*
X210789730Y-77853823D03*
X214323770Y-84336508D03*
X183200000Y-78900000D03*
X183700000Y-78900000D03*
X184200000Y-78900000D03*
X185700000Y-78900000D03*
X185200000Y-78900000D03*
X184700000Y-78900000D03*
X176084102Y-77029258D03*
X180969102Y-77729258D03*
X201190245Y-80133945D03*
X215600000Y-81409603D03*
X188600000Y-76800000D03*
X197500000Y-79300000D03*
X197900000Y-76200000D03*
X200459511Y-77266883D03*
X204000000Y-77600000D03*
X189900000Y-76700000D03*
X179000000Y-79100000D03*
X187529592Y-85861177D03*
X187400000Y-87100000D03*
X195700000Y-82400000D03*
X196200000Y-82400000D03*
X201702694Y-88248925D03*
X174900000Y-82100000D03*
X178100000Y-79600000D03*
X177200000Y-87900000D03*
X200600000Y-88670414D03*
X189600000Y-87200000D03*
X189100000Y-87200000D03*
X179000000Y-82500000D03*
X180000000Y-87000000D03*
X193125494Y-79794761D03*
X196781010Y-72100000D03*
X192400000Y-84500000D03*
X201422234Y-79171925D03*
X200818746Y-77799273D03*
X210623276Y-75440374D03*
X200209603Y-77822905D03*
X200200000Y-79200000D03*
X199600000Y-77822905D03*
X199487983Y-79215349D03*
X179800000Y-85900000D03*
D35*
X175990000Y-83820000D02*
X176680000Y-83820000D01*
X176680000Y-83820000D02*
X176700000Y-83800000D01*
X200855710Y-88038631D02*
X201084309Y-88267230D01*
X175229021Y-84970979D02*
X180353812Y-84970979D01*
X183472238Y-88089405D02*
X200510595Y-88089405D01*
X174600000Y-85600000D02*
X175229021Y-84970979D01*
X180353812Y-84970979D02*
X183472238Y-88089405D01*
X200510595Y-88089405D02*
X200561369Y-88038631D01*
X200561369Y-88038631D02*
X200855710Y-88038631D01*
X175990000Y-86360000D02*
X176432864Y-86360000D01*
X176432864Y-86360000D02*
X176926854Y-86853990D01*
X175990000Y-78740000D02*
X175640000Y-78740000D01*
X175640000Y-78740000D02*
X175300000Y-78400000D01*
X175990000Y-91440000D02*
X176660000Y-91440000D01*
X176660000Y-91440000D02*
X176700000Y-91400000D01*
X210800000Y-91400000D02*
X210408998Y-91400000D01*
X210408998Y-91400000D02*
X210300000Y-91291002D01*
D36*
X215350000Y-89300000D02*
X215350000Y-88950000D01*
X215350000Y-88950000D02*
X215200000Y-88800000D01*
X213900000Y-87300000D02*
X212850000Y-87300000D01*
X212850000Y-87300000D02*
X212700000Y-87150000D01*
X215253998Y-86211002D02*
X215253998Y-87068202D01*
X215253998Y-87068202D02*
X215022200Y-87300000D01*
X215022200Y-87300000D02*
X213900000Y-87300000D01*
D35*
X212450000Y-89100000D02*
X212068998Y-88718998D01*
X212068998Y-88718998D02*
X212068998Y-88400000D01*
D36*
X215250000Y-89200000D02*
X215350000Y-89300000D01*
X215253998Y-86211002D02*
X215253998Y-85353998D01*
X215253998Y-85353998D02*
X215000000Y-85100000D01*
X214927143Y-85172857D02*
X215000000Y-85100000D01*
X211800000Y-90565314D02*
X211953685Y-90718999D01*
X211953685Y-90718999D02*
X212618999Y-90718999D01*
X212618999Y-90718999D02*
X212900000Y-91000000D01*
X211800000Y-90300000D02*
X211800000Y-90565314D01*
X211800000Y-90565314D02*
X211883550Y-90648864D01*
D35*
X216500000Y-90899720D02*
X216900084Y-91299804D01*
X216500000Y-90850000D02*
X216500000Y-90899720D01*
X209500000Y-83950000D02*
X209500000Y-84586934D01*
X209500000Y-84586934D02*
X208809056Y-85277878D01*
X208809056Y-85277878D02*
X208580457Y-85506477D01*
D37*
X208976711Y-77941000D02*
X209300000Y-77941000D01*
X209150000Y-78500000D02*
X209150000Y-78291000D01*
X209300000Y-78264289D02*
X209300000Y-77941000D01*
X209300000Y-78350000D02*
X209300000Y-78264289D01*
X209150000Y-78500000D02*
X209300000Y-78350000D01*
X208958000Y-77941000D02*
X208976711Y-77941000D01*
X208950000Y-77050000D02*
X208950000Y-77933000D01*
X208950000Y-77933000D02*
X208942000Y-77941000D01*
X208942000Y-77941000D02*
X208800000Y-77941000D01*
D35*
X208800000Y-77941000D02*
X209300000Y-77941000D01*
D37*
X208950000Y-77933000D02*
X208958000Y-77941000D01*
X209028599Y-78169599D02*
X208800000Y-77941000D01*
X209150000Y-78291000D02*
X209028599Y-78169599D01*
D35*
X210800000Y-91400000D02*
X211800000Y-90400000D01*
X211800000Y-90400000D02*
X211800000Y-90300000D01*
X216100000Y-80800000D02*
X216600000Y-80800000D01*
X215100000Y-80800000D02*
X215600000Y-80800000D01*
X215600000Y-80800000D02*
X216100000Y-80800000D01*
X215500000Y-80600000D02*
X215300000Y-80800000D01*
X215600000Y-79900000D02*
X215600000Y-80600000D01*
X215300000Y-80800000D02*
X215100000Y-80800000D01*
X214600000Y-80800000D02*
X215100000Y-80800000D01*
D38*
X183031000Y-75994000D02*
X183769000Y-76732000D01*
D35*
X208900000Y-81400000D02*
X209500000Y-80800000D01*
X209500000Y-80800000D02*
X209500000Y-80050000D01*
X209500000Y-83950000D02*
X209500000Y-83200000D01*
X209500000Y-83200000D02*
X208900000Y-82600000D01*
X209500000Y-80050000D02*
X209500000Y-78850000D01*
X209500000Y-78850000D02*
X209150000Y-78500000D01*
D38*
X184100000Y-74800000D02*
X184100000Y-75400000D01*
X184100000Y-74200000D02*
X184100000Y-74800000D01*
X184100000Y-73600000D02*
X184100000Y-74200000D01*
X183031000Y-74422000D02*
X183278000Y-74422000D01*
X183278000Y-74422000D02*
X184100000Y-73600000D01*
X183031000Y-74422000D02*
X183031000Y-75994000D01*
D35*
X206450000Y-77050000D02*
X206500000Y-77000000D01*
X205800000Y-77050000D02*
X206450000Y-77050000D01*
X206500000Y-77000000D02*
X206500000Y-76723494D01*
D37*
X213050000Y-77900000D02*
X213050000Y-78550000D01*
X213050000Y-78550000D02*
X212900000Y-78700000D01*
X213368990Y-78700000D02*
X212900000Y-78700000D01*
X212900000Y-78700000D02*
X212400000Y-78700000D01*
X213000000Y-79300000D02*
X213000000Y-78800000D01*
X213000000Y-78800000D02*
X212900000Y-78700000D01*
D35*
X213000000Y-77950000D02*
X213050000Y-77900000D01*
D38*
X187653000Y-74422000D02*
X187653000Y-75946000D01*
X187653000Y-75946000D02*
X186817000Y-76782000D01*
X186031000Y-74422000D02*
X186031000Y-75996000D01*
X186031000Y-75996000D02*
X186817000Y-76782000D01*
D39*
X186031000Y-74422000D02*
X186031000Y-71731000D01*
X186031000Y-71731000D02*
X185420000Y-71120000D01*
D40*
X187653000Y-74422000D02*
X186031000Y-74422000D01*
D35*
X213360000Y-96520000D02*
X214423600Y-96520000D01*
X214423600Y-96520000D02*
X214600000Y-96343600D01*
X214600000Y-96343600D02*
X214600000Y-92886078D01*
X211802919Y-92600000D02*
X211159357Y-91956438D01*
X214600000Y-92886078D02*
X214313922Y-92600000D01*
X209457979Y-89309161D02*
X213767920Y-84999220D01*
X213767920Y-84999220D02*
X213767920Y-82422344D01*
X213767920Y-82422344D02*
X212545576Y-81200000D01*
X214313922Y-92600000D02*
X211802919Y-92600000D01*
X211159357Y-91956438D02*
X210251301Y-91956438D01*
X210251301Y-91956438D02*
X209457979Y-91163116D01*
X209457979Y-91163116D02*
X209457979Y-89309161D01*
X212545576Y-81200000D02*
X211450000Y-81200000D01*
X210820000Y-96520000D02*
X212090000Y-95250000D01*
X210105328Y-92308849D02*
X209105568Y-91309089D01*
X209105568Y-89163188D02*
X213415509Y-84853247D01*
X213415509Y-84853247D02*
X213415509Y-82568317D01*
X212090000Y-95250000D02*
X212090000Y-93385463D01*
X211013386Y-92308849D02*
X210105328Y-92308849D01*
X212090000Y-93385463D02*
X211013386Y-92308849D01*
X209105568Y-91309089D02*
X209105568Y-89163188D01*
X213415509Y-82568317D02*
X212447192Y-81600000D01*
X212050000Y-81600000D02*
X211450000Y-81600000D01*
X212447192Y-81600000D02*
X212050000Y-81600000D01*
X209143599Y-95656401D02*
X208280000Y-96520000D01*
X213063098Y-84707274D02*
X208753157Y-89017215D01*
X209550000Y-95250000D02*
X209143599Y-95656401D01*
X209550000Y-92251905D02*
X209550000Y-95250000D01*
X211450000Y-82000000D02*
X212348808Y-82000000D01*
X208753157Y-91455062D02*
X209550000Y-92251905D01*
X212348808Y-82000000D02*
X213063098Y-82714290D01*
X213063098Y-82714290D02*
X213063098Y-84707274D01*
X208753157Y-89017215D02*
X208753157Y-91455062D01*
X211450000Y-82400000D02*
X212250424Y-82400000D01*
X212710687Y-82860263D02*
X212710687Y-84561301D01*
X206603599Y-95656401D02*
X205740000Y-96520000D01*
X207010000Y-90261988D02*
X207010000Y-95250000D01*
X207010000Y-95250000D02*
X206603599Y-95656401D01*
X212250424Y-82400000D02*
X212710687Y-82860263D01*
X212710687Y-84561301D02*
X207010000Y-90261988D01*
X212050000Y-82800000D02*
X211450000Y-82800000D01*
X212056718Y-82800000D02*
X212050000Y-82800000D01*
X204470000Y-92303604D02*
X212358276Y-84415328D01*
X212358276Y-83101558D02*
X212056718Y-82800000D01*
X203200000Y-96520000D02*
X204470000Y-95250000D01*
X212358276Y-84415328D02*
X212358276Y-83101558D01*
X204470000Y-95250000D02*
X204470000Y-92303604D01*
X201930000Y-95250000D02*
X201523599Y-95656401D01*
X201930000Y-93519324D02*
X201930000Y-95250000D01*
X202737734Y-92711590D02*
X201930000Y-93519324D01*
X211450000Y-84825220D02*
X203563630Y-92711590D01*
X201523599Y-95656401D02*
X200660000Y-96520000D01*
X211450000Y-83200000D02*
X211450000Y-84825220D01*
X203563630Y-92711590D02*
X202737734Y-92711590D01*
X199390000Y-95250000D02*
X198983599Y-95656401D01*
X199390000Y-93519324D02*
X199390000Y-95250000D01*
X200574132Y-92335192D02*
X199390000Y-93519324D01*
X210700000Y-83950000D02*
X210700000Y-85076836D01*
X210700000Y-85076836D02*
X203441644Y-92335192D01*
X203441644Y-92335192D02*
X200574132Y-92335192D01*
X198983599Y-95656401D02*
X198120000Y-96520000D01*
X210300000Y-84550000D02*
X210300000Y-83950000D01*
X210300000Y-84978452D02*
X210300000Y-84550000D01*
X203295680Y-91982772D02*
X210300000Y-84978452D01*
X197793534Y-91982772D02*
X203295680Y-91982772D01*
X196850000Y-92926306D02*
X197793534Y-91982772D01*
X196850000Y-95250000D02*
X196850000Y-92926306D01*
X195580000Y-96520000D02*
X196850000Y-95250000D01*
X203149707Y-91630361D02*
X195931451Y-91630361D01*
X195931451Y-91630361D02*
X194306664Y-93255148D01*
X206069651Y-88710417D02*
X203149707Y-91630361D01*
X206621685Y-83950000D02*
X206069651Y-84502034D01*
X194306664Y-93255148D02*
X194306664Y-95253336D01*
X208300000Y-83950000D02*
X206621685Y-83950000D01*
X206069651Y-84502034D02*
X206069651Y-88710417D01*
X194306664Y-95253336D02*
X193903599Y-95656401D01*
X193903599Y-95656401D02*
X193040000Y-96520000D01*
X191744319Y-95275681D02*
X191363599Y-95656401D01*
X191744319Y-93237025D02*
X191744319Y-95275681D01*
X193703394Y-91277950D02*
X191744319Y-93237025D01*
X203003734Y-91277950D02*
X193703394Y-91277950D01*
X191363599Y-95656401D02*
X190500000Y-96520000D01*
X205717240Y-84356061D02*
X205717239Y-88564445D01*
X206873301Y-83200000D02*
X205717240Y-84356061D01*
X207550000Y-83200000D02*
X206873301Y-83200000D01*
X205717239Y-88564445D02*
X203003734Y-91277950D01*
X188823599Y-95656401D02*
X187960000Y-96520000D01*
X189228202Y-95251798D02*
X188823599Y-95656401D01*
X205364829Y-88418471D02*
X202857761Y-90925539D01*
X207550000Y-82800000D02*
X206774917Y-82800000D01*
X191597710Y-90925539D02*
X189228202Y-93295047D01*
X189228202Y-93295047D02*
X189228202Y-95251798D01*
X202857761Y-90925539D02*
X191597710Y-90925539D01*
X206774917Y-82800000D02*
X205364830Y-84210087D01*
X205364830Y-84210087D02*
X205364829Y-88418471D01*
X206676533Y-82400000D02*
X206950000Y-82400000D01*
X206950000Y-82400000D02*
X207550000Y-82400000D01*
X205012420Y-84064113D02*
X206676533Y-82400000D01*
X189393437Y-90573128D02*
X202711788Y-90573128D01*
X186680953Y-95259047D02*
X186680953Y-93285612D01*
X185420000Y-96520000D02*
X186680953Y-95259047D01*
X186680953Y-93285612D02*
X189393437Y-90573128D01*
X205012418Y-88272498D02*
X205012420Y-84064113D01*
X202711788Y-90573128D02*
X205012418Y-88272498D01*
X183743599Y-95656401D02*
X182880000Y-96520000D01*
X184167759Y-93211830D02*
X184167759Y-95232241D01*
X187158872Y-90220717D02*
X184167759Y-93211830D01*
X202565815Y-90220717D02*
X187158872Y-90220717D01*
X204660007Y-88126525D02*
X202565815Y-90220717D01*
X207550000Y-82000000D02*
X206578151Y-82000000D01*
X204660007Y-83980851D02*
X204660007Y-88126525D01*
X204660010Y-83918141D02*
X204660007Y-83980851D01*
X206578151Y-82000000D02*
X204660010Y-83918141D01*
X184167759Y-95232241D02*
X183743599Y-95656401D01*
X206950000Y-81600000D02*
X207550000Y-81600000D01*
X204307596Y-87980552D02*
X204307596Y-83772163D01*
X202419842Y-89868306D02*
X204307596Y-87980552D01*
X181593018Y-93132082D02*
X184856794Y-89868306D01*
X181593018Y-95266982D02*
X181593018Y-93132082D01*
X184856794Y-89868306D02*
X202419842Y-89868306D01*
X204307596Y-83772163D02*
X206479759Y-81600000D01*
X206479759Y-81600000D02*
X206950000Y-81600000D01*
X180340000Y-96520000D02*
X181593018Y-95266982D01*
X178663599Y-95656401D02*
X177800000Y-96520000D01*
X179063849Y-95256151D02*
X178663599Y-95656401D01*
X182714213Y-89515895D02*
X179063849Y-93166259D01*
X203955185Y-87834579D02*
X202273869Y-89515895D01*
X203955185Y-83626182D02*
X203955185Y-87834579D01*
X206381367Y-81200000D02*
X203955185Y-83626182D01*
X207550000Y-81200000D02*
X206381367Y-81200000D01*
X202273869Y-89515895D02*
X182714213Y-89515895D01*
X179063849Y-93166259D02*
X179063849Y-95256151D01*
X176519503Y-95260497D02*
X176123599Y-95656401D01*
X176519503Y-92880497D02*
X176519503Y-95260497D01*
X203594777Y-83488197D02*
X203594777Y-87592929D01*
X203594777Y-87592929D02*
X202036282Y-89151424D01*
X207550000Y-80800000D02*
X206282974Y-80800000D01*
X180248576Y-89151424D02*
X176519503Y-92880497D01*
X206282974Y-80800000D02*
X203594777Y-83488197D01*
X176123599Y-95656401D02*
X175260000Y-96520000D01*
X202036282Y-89151424D02*
X180248576Y-89151424D01*
X205000000Y-80543187D02*
X205000000Y-79000000D01*
X205000000Y-79000000D02*
X204400000Y-78400000D01*
X204400059Y-80819839D02*
X204723348Y-80819839D01*
X204723348Y-80819839D02*
X205000000Y-80543187D01*
X207613498Y-87166572D02*
X207188560Y-87166572D01*
X207188560Y-87166572D02*
X206865271Y-87166572D01*
X209900000Y-83950000D02*
X209900000Y-84880070D01*
X209900000Y-84880070D02*
X207613498Y-87166572D01*
X208700000Y-84000000D02*
X208700000Y-84600000D01*
X208700000Y-84600000D02*
X208582988Y-84717012D01*
X208582988Y-84717012D02*
X207988659Y-84717012D01*
X202099845Y-75418600D02*
X201068600Y-75418600D01*
X201068600Y-75418600D02*
X200900000Y-75250000D01*
X202738509Y-77738509D02*
X202738509Y-76163195D01*
X202738509Y-76163195D02*
X202099845Y-75524531D01*
X202099845Y-75524531D02*
X202099845Y-75418600D01*
X203219519Y-77288509D02*
X203219519Y-75919519D01*
X203219519Y-75919519D02*
X202709873Y-75409873D01*
X208700000Y-79491410D02*
X207808699Y-78600109D01*
X208700000Y-80050000D02*
X208700000Y-79491410D01*
X207808699Y-78600109D02*
X207808699Y-78200000D01*
X207500000Y-79800000D02*
X206600000Y-79800000D01*
X207808699Y-78200000D02*
X207808699Y-75728699D01*
X207808699Y-78200000D02*
X207798990Y-78200000D01*
X207808699Y-75728699D02*
X206603599Y-74523599D01*
X206603599Y-74523599D02*
X205740000Y-73660000D01*
X208300000Y-79589794D02*
X207302432Y-78592226D01*
X207302432Y-78592226D02*
X207302432Y-75754177D01*
X208300000Y-80050000D02*
X208300000Y-79589794D01*
X207302432Y-75754177D02*
X206346101Y-74797846D01*
X206346101Y-74797846D02*
X205800000Y-74797846D01*
X204200000Y-75600000D02*
X204200000Y-74935692D01*
X204200000Y-74935692D02*
X204337846Y-74797846D01*
X205800000Y-74797846D02*
X204337846Y-74797846D01*
X205800000Y-75550000D02*
X205800000Y-74797846D01*
X204337846Y-74797846D02*
X203200000Y-73660000D01*
X175100000Y-79400000D02*
X173220000Y-81280000D01*
X173220000Y-81280000D02*
X170180000Y-81280000D01*
D41*
X216500000Y-91950000D02*
X216532293Y-91982293D01*
X216532293Y-91982293D02*
X217897707Y-91982293D01*
X217897707Y-91982293D02*
X218440000Y-91440000D01*
X215200000Y-91950000D02*
X216500000Y-91950000D01*
D35*
X215200000Y-91000000D02*
X214470000Y-91000000D01*
X214470000Y-91000000D02*
X214411237Y-90941237D01*
X214411237Y-90941237D02*
X214411237Y-90878368D01*
D42*
X218440000Y-86835917D02*
X218432601Y-86835917D01*
D41*
X218432601Y-86835917D02*
X217018518Y-88250000D01*
X217018518Y-88250000D02*
X216300000Y-88250000D01*
D35*
X218440000Y-86360000D02*
X218440000Y-86835917D01*
X216300000Y-87300000D02*
X217000000Y-87300000D01*
X217000000Y-87300000D02*
X217200000Y-87100000D01*
D41*
X216300000Y-88250000D02*
X216300000Y-89150000D01*
X216300000Y-89150000D02*
X216450000Y-89300000D01*
D35*
X218440000Y-86440000D02*
X218440000Y-86360000D01*
X218440000Y-86615000D02*
X218440000Y-86360000D01*
X213000000Y-91950000D02*
X212350000Y-91950000D01*
X212350000Y-91950000D02*
X211800000Y-91400000D01*
X213900000Y-88250000D02*
X212700000Y-88250000D01*
D36*
X215600000Y-82900000D02*
X216050000Y-83350000D01*
X216050000Y-83350000D02*
X216050000Y-84000000D01*
X215600000Y-82900000D02*
X217520000Y-82900000D01*
X217520000Y-82900000D02*
X218440000Y-83820000D01*
D35*
X212690610Y-89740610D02*
X213000000Y-90050000D01*
X211409390Y-89740610D02*
X212690610Y-89740610D01*
X211300000Y-89850000D02*
X211409390Y-89740610D01*
X210800000Y-89850000D02*
X211300000Y-89850000D01*
X213000000Y-90050000D02*
X213730000Y-90050000D01*
X213844355Y-90164355D02*
X213844355Y-90459708D01*
X213730000Y-90050000D02*
X213844355Y-90164355D01*
X210800000Y-90500000D02*
X210800000Y-89850000D01*
X214100000Y-85500000D02*
X214100000Y-85950000D01*
X214100000Y-85950000D02*
X213900000Y-86150000D01*
X213550000Y-89100000D02*
X213334469Y-89100000D01*
X213334469Y-89100000D02*
X213131002Y-88896533D01*
X215300000Y-90050000D02*
X214435000Y-90050000D01*
X214435000Y-90050000D02*
X213550000Y-89165000D01*
X213550000Y-89165000D02*
X213550000Y-89100000D01*
X211461325Y-88979850D02*
X211689924Y-89208449D01*
X210800000Y-88950000D02*
X211431475Y-88950000D01*
X211431475Y-88950000D02*
X211461325Y-88979850D01*
X210250000Y-78500000D02*
X210250000Y-78393553D01*
X210250000Y-78393553D02*
X210789730Y-77853823D01*
X215150000Y-84000000D02*
X214819514Y-84330486D01*
X214819514Y-84330486D02*
X214329792Y-84330486D01*
X214329792Y-84330486D02*
X214323770Y-84336508D01*
X183700000Y-78900000D02*
X183200000Y-78900000D01*
X184200000Y-78900000D02*
X183700000Y-78900000D01*
X184700000Y-78900000D02*
X184200000Y-78900000D01*
X185200000Y-78900000D02*
X185700000Y-78900000D01*
X184700000Y-78900000D02*
X185200000Y-78900000D01*
X183769000Y-79732000D02*
X183868000Y-79732000D01*
X183868000Y-79732000D02*
X184700000Y-78900000D01*
X210250000Y-78500000D02*
X210250000Y-78439730D01*
X215200000Y-90050000D02*
X215150000Y-90050000D01*
X216100000Y-85100000D02*
X216100000Y-86150000D01*
X215150000Y-84000000D02*
X215150000Y-84150000D01*
X215150000Y-84150000D02*
X216100000Y-85100000D01*
D38*
X186817000Y-79682000D02*
X183819000Y-79682000D01*
D35*
X183819000Y-79682000D02*
X183769000Y-79732000D01*
X210250000Y-78500000D02*
X210250000Y-77250000D01*
X210250000Y-77250000D02*
X210450000Y-77050000D01*
X209900000Y-80050000D02*
X209900000Y-78850000D01*
X209900000Y-78850000D02*
X210250000Y-78500000D01*
X197900000Y-76750000D02*
X197900000Y-76200000D01*
X200459511Y-77266883D02*
X200459511Y-77190489D01*
X200459511Y-77190489D02*
X200900000Y-76750000D01*
D39*
X190553000Y-74422000D02*
X190553000Y-73622000D01*
X190553000Y-73622000D02*
X193040000Y-71135000D01*
D35*
X193040000Y-71135000D02*
X193040000Y-71120000D01*
D43*
X204200000Y-77500000D02*
X204100000Y-77500000D01*
X204100000Y-77500000D02*
X204000000Y-77600000D01*
D35*
X206600000Y-78300000D02*
X205000000Y-78300000D01*
X205000000Y-78300000D02*
X204200000Y-77500000D01*
X204200000Y-77500000D02*
X204200000Y-77050000D01*
X213000000Y-80400000D02*
X213450000Y-80400000D01*
X213450000Y-80400000D02*
X213891066Y-79958934D01*
X213891066Y-79958934D02*
X213891066Y-77266066D01*
X213891066Y-77266066D02*
X213050000Y-76425000D01*
X213050000Y-76425000D02*
X213050000Y-76400000D01*
X210820000Y-71120000D02*
X211936001Y-72236001D01*
X211936001Y-72236001D02*
X213587683Y-72236001D01*
X213587683Y-72236001D02*
X214476001Y-73124319D01*
X214476001Y-73124319D02*
X214476001Y-74373999D01*
X214476001Y-74373999D02*
X213050000Y-75800000D01*
X213050000Y-75800000D02*
X213050000Y-76400000D01*
X211450000Y-80800000D02*
X212600000Y-80800000D01*
X212600000Y-80800000D02*
X213000000Y-80400000D01*
X179000000Y-79100000D02*
X177877380Y-79100000D01*
X177877380Y-79100000D02*
X176598492Y-77821112D01*
X176598492Y-77821112D02*
X173492998Y-77821112D01*
X173492998Y-77821112D02*
X172574110Y-78740000D01*
X172574110Y-78740000D02*
X170180000Y-78740000D01*
X172705261Y-91440000D02*
X170180000Y-91440000D01*
X179410259Y-78210259D02*
X179900000Y-78700000D01*
X179900000Y-78700000D02*
X179900000Y-80583134D01*
X179900000Y-80583134D02*
X184822640Y-85505774D01*
X184822640Y-85505774D02*
X187174189Y-85505774D01*
X187174189Y-85505774D02*
X187300993Y-85632578D01*
X187300993Y-85632578D02*
X187529592Y-85861177D01*
X177800000Y-71120000D02*
X177800000Y-72523037D01*
X177800000Y-72523037D02*
X177400000Y-72923037D01*
X177400000Y-72923037D02*
X177400000Y-77500000D01*
X177400000Y-77500000D02*
X178110259Y-78210259D01*
X178110259Y-78210259D02*
X179410259Y-78210259D01*
X179481001Y-80482619D02*
X179481001Y-78869119D01*
X179481001Y-78869119D02*
X179230881Y-78618999D01*
X179230881Y-78618999D02*
X177894761Y-78618999D01*
X177894761Y-78618999D02*
X176950902Y-77675140D01*
X176950902Y-77675140D02*
X176950902Y-72965997D01*
X175260000Y-71275095D02*
X175260000Y-71120000D01*
X176950902Y-72965997D02*
X175260000Y-71275095D01*
X187400000Y-87100000D02*
X184980045Y-87100000D01*
X184980045Y-87100000D02*
X179481001Y-81600956D01*
X179481001Y-81600956D02*
X179481001Y-80482619D01*
X179481001Y-80482619D02*
X179482619Y-80482619D01*
X179423292Y-78223292D02*
X179410259Y-78210259D01*
D37*
X196200000Y-82400000D02*
X195700000Y-82400000D01*
X196950000Y-82500000D02*
X196300000Y-82500000D01*
X196300000Y-82500000D02*
X196200000Y-82400000D01*
D35*
X178100000Y-79600000D02*
X178100000Y-80784035D01*
X178100000Y-80784035D02*
X185052960Y-87736995D01*
X185052960Y-87736995D02*
X200364622Y-87736995D01*
X200475644Y-87625973D02*
X201403031Y-87625973D01*
X200364622Y-87736995D02*
X200475644Y-87625973D01*
X201403031Y-87625973D02*
X201702694Y-87925636D01*
X201702694Y-87925636D02*
X201702694Y-88248925D01*
X178100000Y-79600000D02*
X177400000Y-79600000D01*
X177400000Y-79600000D02*
X174900000Y-82100000D01*
X178100000Y-88441815D02*
X177741815Y-88441815D01*
X177741815Y-88441815D02*
X177200000Y-87900000D01*
X200600000Y-88670414D02*
X200371401Y-88441815D01*
X200371401Y-88441815D02*
X178100000Y-88441815D01*
X180340000Y-72336000D02*
X180340000Y-71120000D01*
X189100000Y-86727706D02*
X187518466Y-85146172D01*
X189100000Y-87200000D02*
X189100000Y-86727706D01*
X180340000Y-80524750D02*
X180340000Y-72336000D01*
X184961422Y-85146172D02*
X180340000Y-80524750D01*
X187518466Y-85146172D02*
X184961422Y-85146172D01*
X189600000Y-87200000D02*
X189600000Y-86800000D01*
X189600000Y-86800000D02*
X187500000Y-84700000D01*
X187500000Y-84700000D02*
X185063490Y-84700000D01*
X185063490Y-84700000D02*
X181500000Y-81136510D01*
X181500000Y-81136510D02*
X181500000Y-73045981D01*
X181500000Y-73045981D02*
X182880000Y-71665981D01*
X182880000Y-71665981D02*
X182880000Y-71120000D01*
X179000000Y-82500000D02*
X178606631Y-82893369D01*
X178606631Y-82893369D02*
X173570308Y-82893369D01*
X173570308Y-82893369D02*
X172643677Y-83820000D01*
X172643677Y-83820000D02*
X170180000Y-83820000D01*
X175576610Y-85323390D02*
X174540000Y-86360000D01*
X174540000Y-86360000D02*
X173375000Y-86360000D01*
X180123390Y-85323390D02*
X175576610Y-85323390D01*
X180462657Y-85662657D02*
X180123390Y-85323390D01*
X180462657Y-86537343D02*
X180462657Y-85662657D01*
X180000000Y-87000000D02*
X180462657Y-86537343D01*
X173375000Y-86360000D02*
X172720000Y-86360000D01*
X172720000Y-86360000D02*
X170180000Y-86360000D01*
D37*
X198450000Y-82500000D02*
X198450000Y-78003402D01*
X198450000Y-78003402D02*
X200038571Y-76414831D01*
X200038571Y-76414831D02*
X200038571Y-74281429D01*
X200038571Y-74281429D02*
X200660000Y-73660000D01*
D35*
X196973264Y-75623702D02*
X196973264Y-75200000D01*
X196973264Y-75200000D02*
X196973264Y-72625214D01*
X197023264Y-75250000D02*
X196973264Y-75200000D01*
X197900000Y-75250000D02*
X197023264Y-75250000D01*
X193125494Y-79794761D02*
X193125494Y-79471472D01*
X193125494Y-79471472D02*
X196973264Y-75623702D01*
X196973264Y-72625214D02*
X197298478Y-72300000D01*
X197298478Y-72300000D02*
X199480000Y-72300000D01*
X199480000Y-72300000D02*
X200660000Y-71120000D01*
X192400000Y-84500000D02*
X192400000Y-79698584D01*
X196605233Y-75493351D02*
X196605233Y-72275777D01*
X192400000Y-79698584D02*
X196605233Y-75493351D01*
X196605233Y-72275777D02*
X196781010Y-72100000D01*
X208280000Y-74881314D02*
X208280000Y-73660000D01*
X208280000Y-78573026D02*
X208280000Y-74881314D01*
X209100000Y-79393026D02*
X208280000Y-78573026D01*
X209100000Y-80050000D02*
X209100000Y-79393026D01*
X200818541Y-78568232D02*
X201193635Y-78943326D01*
X201193635Y-78943326D02*
X201422234Y-79171925D01*
X200818541Y-77799478D02*
X200818746Y-77799273D01*
X200818541Y-78568232D02*
X200818541Y-77799478D01*
X210623276Y-75440374D02*
X210851875Y-75211775D01*
X210851875Y-75211775D02*
X210851875Y-74913189D01*
X210851875Y-74913189D02*
X210820000Y-74881314D01*
X211270740Y-78479260D02*
X211270740Y-75700000D01*
X211270740Y-75700000D02*
X211270740Y-75332054D01*
X200200000Y-79200000D02*
X200200000Y-77832508D01*
X200200000Y-77832508D02*
X200209603Y-77822905D01*
X211270740Y-75332054D02*
X210820000Y-74881314D01*
X210300000Y-79450000D02*
X211270740Y-78479260D01*
X210300000Y-80050000D02*
X210300000Y-79450000D01*
X210820000Y-74881314D02*
X210820000Y-73660000D01*
X199600000Y-77822905D02*
X199600000Y-79103332D01*
X199600000Y-79103332D02*
X199487983Y-79215349D01*
X210700000Y-79552703D02*
X211623151Y-78629552D01*
X210700000Y-80050000D02*
X210700000Y-79552703D01*
X211623151Y-78629552D02*
X211623151Y-75396849D01*
X211623151Y-75396849D02*
X213360000Y-73660000D01*
X179800000Y-85900000D02*
X178317348Y-87382652D01*
X178317348Y-87382652D02*
X172913348Y-87382652D01*
X172913348Y-87382652D02*
X171396000Y-88900000D01*
X171396000Y-88900000D02*
X170180000Y-88900000D01*
X170180000Y-88870812D02*
X170180000Y-88900000D01*
D44*
G36*
X216823800Y-81023800D02*
X215845665Y-81023800D01*
X215818507Y-81005482D01*
X215735852Y-80970737D01*
X215648022Y-80952708D01*
X215558362Y-80952082D01*
X215470289Y-80968883D01*
X215387156Y-81002470D01*
X215354561Y-81023800D01*
X214376200Y-81023800D01*
X214376200Y-79476200D01*
X216823800Y-79476200D01*
X216823800Y-81023800D01*
X216823800Y-81023800D01*
G37*
X216823800Y-81023800D02*
X215845665Y-81023800D01*
X215818507Y-81005482D01*
X215735852Y-80970737D01*
X215648022Y-80952708D01*
X215558362Y-80952082D01*
X215470289Y-80968883D01*
X215387156Y-81002470D01*
X215354561Y-81023800D01*
X214376200Y-81023800D01*
X214376200Y-79476200D01*
X216823800Y-79476200D01*
X216823800Y-81023800D01*
G36*
X185301294Y-75672000D02*
X185304197Y-75708404D01*
X185323318Y-75770148D01*
X185323800Y-75770879D01*
X185323800Y-77200000D01*
X185326817Y-77221229D01*
X185335628Y-77240777D01*
X185338238Y-77243839D01*
X185340197Y-77268404D01*
X185359318Y-77330148D01*
X185394884Y-77384121D01*
X185444078Y-77426049D01*
X185503005Y-77452612D01*
X185567000Y-77461706D01*
X185723800Y-77461706D01*
X185723800Y-78323800D01*
X184731564Y-78323800D01*
X182476200Y-76068436D01*
X182476200Y-73176200D01*
X185301294Y-73176200D01*
X185301294Y-75672000D01*
X185301294Y-75672000D01*
G37*
X185301294Y-75672000D02*
X185304197Y-75708404D01*
X185323318Y-75770148D01*
X185323800Y-75770879D01*
X185323800Y-77200000D01*
X185326817Y-77221229D01*
X185335628Y-77240777D01*
X185338238Y-77243839D01*
X185340197Y-77268404D01*
X185359318Y-77330148D01*
X185394884Y-77384121D01*
X185444078Y-77426049D01*
X185503005Y-77452612D01*
X185567000Y-77461706D01*
X185723800Y-77461706D01*
X185723800Y-78323800D01*
X184731564Y-78323800D01*
X182476200Y-76068436D01*
X182476200Y-73176200D01*
X185301294Y-73176200D01*
X185301294Y-75672000D01*
G36*
X188023800Y-80223800D02*
X182576200Y-80223800D01*
X182576200Y-78676200D01*
X188023800Y-78676200D01*
X188023800Y-80223800D01*
X188023800Y-80223800D01*
G37*
X188023800Y-80223800D02*
X182576200Y-80223800D01*
X182576200Y-78676200D01*
X188023800Y-78676200D01*
X188023800Y-80223800D01*
M02*
