G04 #@! TF.FileFunction,Paste,Top*
%FSLAX46Y46*%
G04 Gerber Fmt 4.6, Leading zero omitted, Abs format (unit mm)*
G04 Created by KiCad (PCBNEW 4.0.1-stable) date Tuesday, February 09, 2016 'PMt' 10:51:17 PM*
%MOMM*%
G01*
G04 APERTURE LIST*
%ADD10C,0.100000*%
%ADD11R,0.500000X0.900000*%
%ADD12R,0.500000X0.600000*%
%ADD13R,1.450000X0.450000*%
%ADD14R,0.800000X0.200000*%
%ADD15R,0.200000X0.800000*%
%ADD16R,0.720000X0.720000*%
%ADD17R,0.730000X0.300000*%
%ADD18R,0.300000X0.730000*%
%ADD19R,0.750000X0.750000*%
%ADD20R,0.600000X0.500000*%
%ADD21R,1.200000X1.400000*%
%ADD22R,0.800000X0.750000*%
%ADD23R,0.750000X0.800000*%
%ADD24R,0.900000X2.500000*%
%ADD25R,0.900000X0.500000*%
%ADD26R,1.000000X2.500000*%
%ADD27R,1.000000X1.250000*%
%ADD28R,0.600000X0.400000*%
%ADD29R,0.400000X0.600000*%
%ADD30R,1.500000X0.600000*%
G04 APERTURE END LIST*
D10*
D11*
X206900000Y-83200000D03*
X205400000Y-83200000D03*
D12*
X197100000Y-82950000D03*
X197100000Y-81850000D03*
D13*
X176319102Y-79829258D03*
X176319102Y-80479258D03*
X176319102Y-81129258D03*
X176319102Y-81779258D03*
X180719102Y-81779258D03*
X180719102Y-81129258D03*
X180719102Y-80479258D03*
X180719102Y-79829258D03*
X176319102Y-86594258D03*
X176319102Y-87244258D03*
X176319102Y-87894258D03*
X176319102Y-88544258D03*
X180719102Y-88544258D03*
X180719102Y-87894258D03*
X180719102Y-87244258D03*
X180719102Y-86594258D03*
D14*
X199980000Y-83890000D03*
X199980000Y-84290000D03*
X199980000Y-84690000D03*
X199980000Y-85090000D03*
X199980000Y-85490000D03*
X199980000Y-85890000D03*
X199980000Y-86290000D03*
D15*
X200730000Y-87040000D03*
X201130000Y-87040000D03*
X201530000Y-87040000D03*
X201930000Y-87040000D03*
X202330000Y-87040000D03*
X202730000Y-87040000D03*
X203130000Y-87040000D03*
D14*
X203880000Y-86290000D03*
X203880000Y-85890000D03*
X203880000Y-85490000D03*
X203880000Y-85090000D03*
X203880000Y-84690000D03*
X203880000Y-84290000D03*
X203880000Y-83890000D03*
D15*
X203130000Y-83140000D03*
X202730000Y-83140000D03*
X202330000Y-83140000D03*
X201930000Y-83140000D03*
X201530000Y-83140000D03*
X201130000Y-83140000D03*
X200730000Y-83140000D03*
D16*
X202530000Y-85690000D03*
X202530000Y-84490000D03*
X201330000Y-85690000D03*
X201330000Y-84490000D03*
D17*
X188027000Y-81804000D03*
X188027000Y-82304000D03*
X188027000Y-82804000D03*
X188027000Y-83304000D03*
X188027000Y-83804000D03*
D18*
X188992000Y-84769000D03*
X189492000Y-84769000D03*
X189992000Y-84769000D03*
X190492000Y-84769000D03*
X190992000Y-84769000D03*
D17*
X191957000Y-83804000D03*
X191957000Y-83304000D03*
X191957000Y-82804000D03*
X191957000Y-82304000D03*
X191957000Y-81804000D03*
D18*
X190992000Y-80839000D03*
X190492000Y-80839000D03*
X189992000Y-80839000D03*
X189492000Y-80839000D03*
X188992000Y-80839000D03*
D19*
X190617000Y-83429000D03*
X190617000Y-82179000D03*
X189367000Y-83429000D03*
X189367000Y-82179000D03*
D20*
X180969102Y-78329258D03*
X179869102Y-78329258D03*
X180969102Y-85194258D03*
X179869102Y-85194258D03*
X177519102Y-78329258D03*
X178619102Y-78329258D03*
X177619102Y-85194258D03*
X178719102Y-85194258D03*
X189750000Y-78900000D03*
X190850000Y-78900000D03*
D12*
X187500000Y-79750000D03*
X187500000Y-80850000D03*
X198500000Y-83300000D03*
X198500000Y-82200000D03*
D20*
X201150000Y-81600000D03*
X202250000Y-81600000D03*
X188200000Y-86000000D03*
X189300000Y-86000000D03*
D21*
X195800000Y-83500000D03*
X195800000Y-81300000D03*
X194200000Y-83500000D03*
X194200000Y-81300000D03*
D22*
X180869102Y-77029258D03*
X179369102Y-77029258D03*
X180869102Y-83994258D03*
X179369102Y-83994258D03*
X189950000Y-77600000D03*
X191450000Y-77600000D03*
D23*
X198500000Y-79350000D03*
X198500000Y-80850000D03*
D22*
X201000000Y-80250000D03*
X202500000Y-80250000D03*
D20*
X194350000Y-80000000D03*
X195450000Y-80000000D03*
D24*
X187653000Y-74422000D03*
X190553000Y-74422000D03*
D25*
X200900000Y-76750000D03*
X200900000Y-75250000D03*
X195000000Y-85250000D03*
X195000000Y-86750000D03*
X193400000Y-85250000D03*
X193400000Y-86750000D03*
X199400000Y-76750000D03*
X199400000Y-75250000D03*
X197900000Y-76750000D03*
X197900000Y-75250000D03*
D26*
X195302000Y-74422000D03*
X192302000Y-74422000D03*
D27*
X188300000Y-77900000D03*
X186300000Y-77900000D03*
D12*
X182384102Y-80579258D03*
X182384102Y-79479258D03*
X182219102Y-87444258D03*
X182219102Y-86344258D03*
D28*
X176119102Y-77479258D03*
X176119102Y-78379258D03*
X176119102Y-84344258D03*
X176119102Y-85244258D03*
X182219102Y-81779258D03*
X182219102Y-82679258D03*
X183419102Y-80579258D03*
X183419102Y-79679258D03*
X182219102Y-88544258D03*
X182219102Y-89444258D03*
X183419102Y-87344258D03*
X183419102Y-86444258D03*
X173784102Y-87179258D03*
X173784102Y-88079258D03*
D29*
X178069102Y-80529258D03*
X178969102Y-80529258D03*
X178069102Y-87294258D03*
X178969102Y-87294258D03*
D28*
X174884102Y-85079258D03*
X174884102Y-85979258D03*
D29*
X177269102Y-76929258D03*
X178169102Y-76929258D03*
X177269102Y-83894258D03*
X178169102Y-83894258D03*
X178069102Y-81829258D03*
X178969102Y-81829258D03*
X178069102Y-88594258D03*
X178969102Y-88594258D03*
D25*
X195500000Y-70550000D03*
X195500000Y-72050000D03*
D12*
X174919102Y-81379258D03*
X174919102Y-80279258D03*
X174919102Y-88144258D03*
X174919102Y-87044258D03*
X209000000Y-86850000D03*
X209000000Y-85750000D03*
D11*
X209150000Y-83200000D03*
X207650000Y-83200000D03*
D29*
X214000000Y-81800000D03*
X214900000Y-81800000D03*
X214100000Y-80600000D03*
X213200000Y-80600000D03*
D13*
X205500000Y-79500000D03*
X205500000Y-80150000D03*
X205500000Y-80800000D03*
X205500000Y-81450000D03*
X209900000Y-81450000D03*
X209900000Y-80800000D03*
X209900000Y-80150000D03*
X209900000Y-79500000D03*
D30*
X215800000Y-90610000D03*
X215800000Y-89340000D03*
X215800000Y-88070000D03*
X215800000Y-86800000D03*
X215800000Y-85530000D03*
X215800000Y-84260000D03*
X215800000Y-82990000D03*
X210400000Y-82990000D03*
X210400000Y-84260000D03*
X210400000Y-85530000D03*
X210400000Y-86800000D03*
X210400000Y-88070000D03*
X210400000Y-89340000D03*
X210400000Y-90610000D03*
D20*
X210050000Y-78600000D03*
X208950000Y-78600000D03*
M02*
