G04 #@! TF.FileFunction,Legend,Top*
%FSLAX46Y46*%
G04 Gerber Fmt 4.6, Leading zero omitted, Abs format (unit mm)*
G04 Created by KiCad (PCBNEW 4.0.1-stable) date Friday, February 12, 2016 'PMt' 08:25:32 PM*
%MOMM*%
G01*
G04 APERTURE LIST*
%ADD10C,0.100000*%
%ADD11C,0.200000*%
%ADD12C,0.150000*%
%ADD13C,0.076200*%
%ADD14R,0.627000X1.027000*%
%ADD15R,0.627000X0.727000*%
%ADD16R,1.854200X1.854200*%
%ADD17O,1.854200X1.854200*%
%ADD18R,1.854200X2.159000*%
%ADD19O,1.854200X2.159000*%
%ADD20R,1.577000X0.577000*%
%ADD21R,0.857000X0.427000*%
%ADD22R,0.427000X0.857000*%
%ADD23R,1.377000X1.377000*%
%ADD24R,0.727000X0.627000*%
%ADD25R,1.327000X1.527000*%
%ADD26R,0.927000X0.877000*%
%ADD27R,0.877000X0.927000*%
%ADD28R,1.027000X2.627000*%
%ADD29R,1.027000X0.627000*%
%ADD30R,1.127000X2.627000*%
%ADD31R,1.127000X1.377000*%
%ADD32R,0.727000X0.527000*%
%ADD33R,0.527000X0.727000*%
%ADD34R,2.159000X1.854200*%
%ADD35O,2.159000X1.854200*%
%ADD36R,1.627000X0.727000*%
%ADD37R,0.927000X0.327000*%
%ADD38R,0.327000X0.927000*%
%ADD39R,1.627000X1.627000*%
%ADD40R,1.677000X0.727000*%
G04 APERTURE END LIST*
D10*
D11*
X189900000Y-86500000D02*
X189600000Y-86200000D01*
X176784000Y-77216000D02*
X177165000Y-77851000D01*
D12*
X205650000Y-82525000D02*
X206650000Y-82525000D01*
X206650000Y-83875000D02*
X205650000Y-83875000D01*
X196625000Y-82150000D02*
X196625000Y-82650000D01*
X197575000Y-82650000D02*
X197575000Y-82150000D01*
X173990000Y-100330000D02*
X214630000Y-100330000D01*
X212090000Y-95250000D02*
X173990000Y-95250000D01*
X173990000Y-100330000D02*
X173990000Y-95250000D01*
X214630000Y-100330000D02*
X214630000Y-97790000D01*
X214910000Y-96520000D02*
X214910000Y-94970000D01*
X214630000Y-97790000D02*
X212090000Y-97790000D01*
X212090000Y-97790000D02*
X212090000Y-95250000D01*
X214910000Y-94970000D02*
X213360000Y-94970000D01*
X212090000Y-92710000D02*
X173990000Y-92710000D01*
X173990000Y-92710000D02*
X173990000Y-95250000D01*
X173990000Y-95250000D02*
X212090000Y-95250000D01*
X214910000Y-95530000D02*
X213360000Y-95530000D01*
X212090000Y-95250000D02*
X212090000Y-92710000D01*
X213360000Y-92430000D02*
X214910000Y-92430000D01*
X214910000Y-92430000D02*
X214910000Y-95530000D01*
X191770000Y-69850000D02*
X184150000Y-69850000D01*
X191770000Y-72390000D02*
X184150000Y-72390000D01*
X194590000Y-72670000D02*
X193040000Y-72670000D01*
X184150000Y-69850000D02*
X184150000Y-72390000D01*
X191770000Y-72390000D02*
X191770000Y-69850000D01*
X193040000Y-69570000D02*
X194590000Y-69570000D01*
X194590000Y-69570000D02*
X194590000Y-72670000D01*
X214630000Y-69850000D02*
X196850000Y-69850000D01*
X199390000Y-74930000D02*
X214630000Y-74930000D01*
X214630000Y-69850000D02*
X214630000Y-74930000D01*
X196850000Y-69850000D02*
X196850000Y-72390000D01*
X196570000Y-73660000D02*
X196570000Y-75210000D01*
X196850000Y-72390000D02*
X199390000Y-72390000D01*
X199390000Y-72390000D02*
X199390000Y-74930000D01*
X196570000Y-75210000D02*
X198120000Y-75210000D01*
X176844102Y-79129258D02*
X176844102Y-79379258D01*
X180194102Y-79129258D02*
X180194102Y-79379258D01*
X180194102Y-82479258D02*
X180194102Y-82229258D01*
X176844102Y-82479258D02*
X176844102Y-82229258D01*
X176844102Y-79129258D02*
X180194102Y-79129258D01*
X176844102Y-82479258D02*
X180194102Y-82479258D01*
X176844102Y-79379258D02*
X175594102Y-79379258D01*
X192142000Y-80654000D02*
X192142000Y-81429000D01*
X187842000Y-84954000D02*
X187842000Y-84179000D01*
X192142000Y-84954000D02*
X192142000Y-84179000D01*
X187842000Y-80654000D02*
X188617000Y-80654000D01*
X187842000Y-84954000D02*
X188617000Y-84954000D01*
X192142000Y-84954000D02*
X191367000Y-84954000D01*
X192142000Y-80654000D02*
X191367000Y-80654000D01*
X180169102Y-78804258D02*
X180669102Y-78804258D01*
X180669102Y-77854258D02*
X180169102Y-77854258D01*
X181925000Y-85150000D02*
X181925000Y-85650000D01*
X182875000Y-85650000D02*
X182875000Y-85150000D01*
X178319102Y-77854258D02*
X177819102Y-77854258D01*
X177819102Y-78804258D02*
X178319102Y-78804258D01*
X174825000Y-90250000D02*
X174825000Y-90750000D01*
X175775000Y-90750000D02*
X175775000Y-90250000D01*
X190550000Y-78425000D02*
X190050000Y-78425000D01*
X190050000Y-79375000D02*
X190550000Y-79375000D01*
X187975000Y-80550000D02*
X187975000Y-80050000D01*
X187025000Y-80050000D02*
X187025000Y-80550000D01*
X198025000Y-82500000D02*
X198025000Y-83000000D01*
X198975000Y-83000000D02*
X198975000Y-82500000D01*
X201950000Y-81125000D02*
X201450000Y-81125000D01*
X201450000Y-82075000D02*
X201950000Y-82075000D01*
X188435000Y-87372000D02*
X188435000Y-86872000D01*
X187485000Y-86872000D02*
X187485000Y-87372000D01*
X193700000Y-84000000D02*
X193700000Y-80800000D01*
X193700000Y-80800000D02*
X196300000Y-80800000D01*
X196300000Y-80800000D02*
X196300000Y-84000000D01*
X196300000Y-84000000D02*
X193700000Y-84000000D01*
X180469102Y-77629258D02*
X179769102Y-77629258D01*
X179769102Y-76429258D02*
X180469102Y-76429258D01*
X182800000Y-85450000D02*
X182800000Y-84750000D01*
X184000000Y-84750000D02*
X184000000Y-85450000D01*
X190350000Y-77000000D02*
X191050000Y-77000000D01*
X191050000Y-78200000D02*
X190350000Y-78200000D01*
X199100000Y-79750000D02*
X199100000Y-80450000D01*
X197900000Y-80450000D02*
X197900000Y-79750000D01*
X201400000Y-79650000D02*
X202100000Y-79650000D01*
X202100000Y-80850000D02*
X201400000Y-80850000D01*
X195150000Y-79525000D02*
X194650000Y-79525000D01*
X194650000Y-80475000D02*
X195150000Y-80475000D01*
X190103000Y-75897000D02*
X188103000Y-75897000D01*
X188103000Y-72947000D02*
X190103000Y-72947000D01*
X201575000Y-75500000D02*
X201575000Y-76500000D01*
X200225000Y-76500000D02*
X200225000Y-75500000D01*
X194325000Y-86500000D02*
X194325000Y-85500000D01*
X195675000Y-85500000D02*
X195675000Y-86500000D01*
X192725000Y-86500000D02*
X192725000Y-85500000D01*
X194075000Y-85500000D02*
X194075000Y-86500000D01*
X200075000Y-75500000D02*
X200075000Y-76500000D01*
X198725000Y-76500000D02*
X198725000Y-75500000D01*
X198575000Y-75500000D02*
X198575000Y-76500000D01*
X197225000Y-76500000D02*
X197225000Y-75500000D01*
X192802000Y-75897000D02*
X194802000Y-75897000D01*
X194802000Y-72947000D02*
X192802000Y-72947000D01*
X186800000Y-78750000D02*
X187800000Y-78750000D01*
X187800000Y-77050000D02*
X186800000Y-77050000D01*
X181909102Y-79779258D02*
X181909102Y-80279258D01*
X182859102Y-80279258D02*
X182859102Y-79779258D01*
X176644102Y-78179258D02*
X176644102Y-77679258D01*
X175594102Y-77679258D02*
X175594102Y-78179258D01*
X174025000Y-91250000D02*
X174025000Y-90750000D01*
X172975000Y-90750000D02*
X172975000Y-91250000D01*
X182744102Y-82479258D02*
X182744102Y-81979258D01*
X181694102Y-81979258D02*
X181694102Y-82479258D01*
X182894102Y-79879258D02*
X182894102Y-80379258D01*
X183944102Y-80379258D02*
X183944102Y-79879258D01*
X181975000Y-87050000D02*
X181975000Y-87550000D01*
X183025000Y-87550000D02*
X183025000Y-87050000D01*
X183025000Y-89050000D02*
X183025000Y-88550000D01*
X181975000Y-88550000D02*
X181975000Y-89050000D01*
X174125000Y-87050000D02*
X174125000Y-86550000D01*
X173075000Y-86550000D02*
X173075000Y-87050000D01*
X178769102Y-80004258D02*
X178269102Y-80004258D01*
X178269102Y-81054258D02*
X178769102Y-81054258D01*
X174125000Y-85350000D02*
X174125000Y-84850000D01*
X173075000Y-84850000D02*
X173075000Y-85350000D01*
X177969102Y-76404258D02*
X177469102Y-76404258D01*
X177469102Y-77454258D02*
X177969102Y-77454258D01*
X173875000Y-90750000D02*
X173875000Y-91250000D01*
X174925000Y-91250000D02*
X174925000Y-90750000D01*
X178769102Y-81304258D02*
X178269102Y-81304258D01*
X178269102Y-82354258D02*
X178769102Y-82354258D01*
X168910000Y-80010000D02*
X168910000Y-85090000D01*
X168910000Y-85090000D02*
X171450000Y-85090000D01*
X171450000Y-85090000D02*
X171450000Y-80010000D01*
X171730000Y-77190000D02*
X171730000Y-78740000D01*
X171450000Y-80010000D02*
X168910000Y-80010000D01*
X168630000Y-78740000D02*
X168630000Y-77190000D01*
X168630000Y-77190000D02*
X171730000Y-77190000D01*
X168910000Y-87630000D02*
X168910000Y-92710000D01*
X168910000Y-92710000D02*
X171450000Y-92710000D01*
X171450000Y-92710000D02*
X171450000Y-87630000D01*
X171730000Y-84810000D02*
X171730000Y-86360000D01*
X171450000Y-87630000D02*
X168910000Y-87630000D01*
X168630000Y-86360000D02*
X168630000Y-84810000D01*
X168630000Y-84810000D02*
X171730000Y-84810000D01*
X194825000Y-71800000D02*
X194825000Y-70800000D01*
X196175000Y-70800000D02*
X196175000Y-71800000D01*
X174444102Y-80579258D02*
X174444102Y-81079258D01*
X175394102Y-81079258D02*
X175394102Y-80579258D01*
X174125000Y-86450000D02*
X174125000Y-86950000D01*
X175075000Y-86950000D02*
X175075000Y-86450000D01*
X208525000Y-86050000D02*
X208525000Y-86550000D01*
X209475000Y-86550000D02*
X209475000Y-86050000D01*
X207900000Y-82525000D02*
X208900000Y-82525000D01*
X208900000Y-83875000D02*
X207900000Y-83875000D01*
X214700000Y-81275000D02*
X214200000Y-81275000D01*
X214200000Y-82325000D02*
X214700000Y-82325000D01*
X213400000Y-81125000D02*
X213900000Y-81125000D01*
X213900000Y-80075000D02*
X213400000Y-80075000D01*
X206025000Y-78800000D02*
X206025000Y-79050000D01*
X209375000Y-78800000D02*
X209375000Y-79050000D01*
X209375000Y-82150000D02*
X209375000Y-81900000D01*
X206025000Y-82150000D02*
X206025000Y-81900000D01*
X206025000Y-78800000D02*
X209375000Y-78800000D01*
X206025000Y-82150000D02*
X209375000Y-82150000D01*
X206025000Y-79050000D02*
X204775000Y-79050000D01*
X215175000Y-91250000D02*
X215175000Y-91135000D01*
X211025000Y-91250000D02*
X211025000Y-91135000D01*
X211025000Y-82350000D02*
X211025000Y-82465000D01*
X215175000Y-82350000D02*
X215175000Y-82465000D01*
X215175000Y-91250000D02*
X211025000Y-91250000D01*
X215175000Y-82350000D02*
X211025000Y-82350000D01*
X215175000Y-91135000D02*
X216550000Y-91135000D01*
X219710000Y-77470000D02*
X219710000Y-95250000D01*
X219710000Y-95250000D02*
X217170000Y-95250000D01*
X217170000Y-95250000D02*
X217170000Y-77470000D01*
X219990000Y-74650000D02*
X219990000Y-76200000D01*
X219710000Y-77470000D02*
X217170000Y-77470000D01*
X216890000Y-76200000D02*
X216890000Y-74650000D01*
X216890000Y-74650000D02*
X219990000Y-74650000D01*
X209250000Y-79075000D02*
X209750000Y-79075000D01*
X209750000Y-78125000D02*
X209250000Y-78125000D01*
X216300000Y-91375000D02*
X215800000Y-91375000D01*
X215800000Y-92425000D02*
X216300000Y-92425000D01*
X210150000Y-92275000D02*
X210650000Y-92275000D01*
X210650000Y-91225000D02*
X210150000Y-91225000D01*
X189778000Y-86876000D02*
X189778000Y-87876000D01*
X188428000Y-87876000D02*
X188428000Y-86876000D01*
X189000000Y-85275000D02*
X188500000Y-85275000D01*
X188500000Y-86225000D02*
X189000000Y-86225000D01*
X204080000Y-82940000D02*
X204080000Y-83565000D01*
X199780000Y-87240000D02*
X199780000Y-86615000D01*
X204080000Y-87240000D02*
X204080000Y-86615000D01*
X199780000Y-82940000D02*
X200405000Y-82940000D01*
X199780000Y-87240000D02*
X200405000Y-87240000D01*
X204080000Y-87240000D02*
X203455000Y-87240000D01*
X204080000Y-82940000D02*
X203455000Y-82940000D01*
X186125000Y-82050000D02*
X186125000Y-82550000D01*
X187075000Y-82550000D02*
X187075000Y-82050000D01*
X187075000Y-84650000D02*
X187075000Y-84150000D01*
X186125000Y-84150000D02*
X186125000Y-84650000D01*
X176530000Y-72390000D02*
X184150000Y-72390000D01*
X176530000Y-69850000D02*
X184150000Y-69850000D01*
X173710000Y-69570000D02*
X175260000Y-69570000D01*
X184150000Y-72390000D02*
X184150000Y-69850000D01*
X176530000Y-69850000D02*
X176530000Y-72390000D01*
X175260000Y-72670000D02*
X173710000Y-72670000D01*
X173710000Y-72670000D02*
X173710000Y-69570000D01*
X185500000Y-86775000D02*
X184500000Y-86775000D01*
X184500000Y-85425000D02*
X185500000Y-85425000D01*
X186275000Y-83900000D02*
X186275000Y-84900000D01*
X184925000Y-84900000D02*
X184925000Y-83900000D01*
X172300000Y-88225000D02*
X173300000Y-88225000D01*
X173300000Y-89575000D02*
X172300000Y-89575000D01*
X176425000Y-84125000D02*
X176425000Y-84270000D01*
X180575000Y-84125000D02*
X180575000Y-84270000D01*
X180575000Y-89275000D02*
X180575000Y-89130000D01*
X176425000Y-89275000D02*
X176425000Y-89130000D01*
X176425000Y-84125000D02*
X180575000Y-84125000D01*
X176425000Y-89275000D02*
X180575000Y-89275000D01*
X176425000Y-84270000D02*
X175025000Y-84270000D01*
X179100000Y-87675000D02*
X178100000Y-87675000D01*
X178100000Y-86325000D02*
X179100000Y-86325000D01*
X179100000Y-89175000D02*
X178100000Y-89175000D01*
X178100000Y-87825000D02*
X179100000Y-87825000D01*
D13*
X205581523Y-84729810D02*
X205412190Y-84487905D01*
X205291237Y-84729810D02*
X205291237Y-84221810D01*
X205484761Y-84221810D01*
X205533142Y-84246000D01*
X205557333Y-84270190D01*
X205581523Y-84318571D01*
X205581523Y-84391143D01*
X205557333Y-84439524D01*
X205533142Y-84463714D01*
X205484761Y-84487905D01*
X205291237Y-84487905D01*
X205775047Y-84270190D02*
X205799237Y-84246000D01*
X205847618Y-84221810D01*
X205968571Y-84221810D01*
X206016952Y-84246000D01*
X206041142Y-84270190D01*
X206065333Y-84318571D01*
X206065333Y-84366952D01*
X206041142Y-84439524D01*
X205750856Y-84729810D01*
X206065333Y-84729810D01*
X206379809Y-84221810D02*
X206428190Y-84221810D01*
X206476571Y-84246000D01*
X206500762Y-84270190D01*
X206524952Y-84318571D01*
X206549143Y-84415333D01*
X206549143Y-84536286D01*
X206524952Y-84633048D01*
X206500762Y-84681429D01*
X206476571Y-84705619D01*
X206428190Y-84729810D01*
X206379809Y-84729810D01*
X206331428Y-84705619D01*
X206307238Y-84681429D01*
X206283047Y-84633048D01*
X206258857Y-84536286D01*
X206258857Y-84415333D01*
X206283047Y-84318571D01*
X206307238Y-84270190D01*
X206331428Y-84246000D01*
X206379809Y-84221810D01*
X207032953Y-84729810D02*
X206742667Y-84729810D01*
X206887810Y-84729810D02*
X206887810Y-84221810D01*
X206839429Y-84294381D01*
X206791048Y-84342762D01*
X206742667Y-84366952D01*
X197412429Y-85277477D02*
X197436619Y-85301667D01*
X197460810Y-85374239D01*
X197460810Y-85422620D01*
X197436619Y-85495191D01*
X197388238Y-85543572D01*
X197339857Y-85567763D01*
X197243095Y-85591953D01*
X197170524Y-85591953D01*
X197073762Y-85567763D01*
X197025381Y-85543572D01*
X196977000Y-85495191D01*
X196952810Y-85422620D01*
X196952810Y-85374239D01*
X196977000Y-85301667D01*
X197001190Y-85277477D01*
X196952810Y-85108144D02*
X196952810Y-84793667D01*
X197146333Y-84963001D01*
X197146333Y-84890429D01*
X197170524Y-84842048D01*
X197194714Y-84817858D01*
X197243095Y-84793667D01*
X197364048Y-84793667D01*
X197412429Y-84817858D01*
X197436619Y-84842048D01*
X197460810Y-84890429D01*
X197460810Y-85035572D01*
X197436619Y-85083953D01*
X197412429Y-85108144D01*
X197460810Y-84309857D02*
X197460810Y-84600143D01*
X197460810Y-84455000D02*
X196952810Y-84455000D01*
X197025381Y-84503381D01*
X197073762Y-84551762D01*
X197097952Y-84600143D01*
X197170524Y-84019571D02*
X197146333Y-84067952D01*
X197122143Y-84092143D01*
X197073762Y-84116333D01*
X197049571Y-84116333D01*
X197001190Y-84092143D01*
X196977000Y-84067952D01*
X196952810Y-84019571D01*
X196952810Y-83922809D01*
X196977000Y-83874428D01*
X197001190Y-83850238D01*
X197049571Y-83826047D01*
X197073762Y-83826047D01*
X197122143Y-83850238D01*
X197146333Y-83874428D01*
X197170524Y-83922809D01*
X197170524Y-84019571D01*
X197194714Y-84067952D01*
X197218905Y-84092143D01*
X197267286Y-84116333D01*
X197364048Y-84116333D01*
X197412429Y-84092143D01*
X197436619Y-84067952D01*
X197460810Y-84019571D01*
X197460810Y-83922809D01*
X197436619Y-83874428D01*
X197412429Y-83850238D01*
X197364048Y-83826047D01*
X197267286Y-83826047D01*
X197218905Y-83850238D01*
X197194714Y-83874428D01*
X197170524Y-83922809D01*
X177691142Y-82652810D02*
X177691142Y-83064048D01*
X177715333Y-83112429D01*
X177739523Y-83136619D01*
X177787904Y-83160810D01*
X177884666Y-83160810D01*
X177933047Y-83136619D01*
X177957238Y-83112429D01*
X177981428Y-83064048D01*
X177981428Y-82652810D01*
X178174951Y-82652810D02*
X178489428Y-82652810D01*
X178320094Y-82846333D01*
X178392666Y-82846333D01*
X178441047Y-82870524D01*
X178465237Y-82894714D01*
X178489428Y-82943095D01*
X178489428Y-83064048D01*
X178465237Y-83112429D01*
X178441047Y-83136619D01*
X178392666Y-83160810D01*
X178247523Y-83160810D01*
X178199142Y-83136619D01*
X178174951Y-83112429D01*
X178803904Y-82652810D02*
X178852285Y-82652810D01*
X178900666Y-82677000D01*
X178924857Y-82701190D01*
X178949047Y-82749571D01*
X178973238Y-82846333D01*
X178973238Y-82967286D01*
X178949047Y-83064048D01*
X178924857Y-83112429D01*
X178900666Y-83136619D01*
X178852285Y-83160810D01*
X178803904Y-83160810D01*
X178755523Y-83136619D01*
X178731333Y-83112429D01*
X178707142Y-83064048D01*
X178682952Y-82967286D01*
X178682952Y-82846333D01*
X178707142Y-82749571D01*
X178731333Y-82701190D01*
X178755523Y-82677000D01*
X178803904Y-82652810D01*
X179457048Y-83160810D02*
X179166762Y-83160810D01*
X179311905Y-83160810D02*
X179311905Y-82652810D01*
X179263524Y-82725381D01*
X179215143Y-82773762D01*
X179166762Y-82797952D01*
X190518142Y-85319810D02*
X190518142Y-85731048D01*
X190542333Y-85779429D01*
X190566523Y-85803619D01*
X190614904Y-85827810D01*
X190711666Y-85827810D01*
X190760047Y-85803619D01*
X190784238Y-85779429D01*
X190808428Y-85731048D01*
X190808428Y-85319810D01*
X191001951Y-85319810D02*
X191316428Y-85319810D01*
X191147094Y-85513333D01*
X191219666Y-85513333D01*
X191268047Y-85537524D01*
X191292237Y-85561714D01*
X191316428Y-85610095D01*
X191316428Y-85731048D01*
X191292237Y-85779429D01*
X191268047Y-85803619D01*
X191219666Y-85827810D01*
X191074523Y-85827810D01*
X191026142Y-85803619D01*
X191001951Y-85779429D01*
X191630904Y-85319810D02*
X191679285Y-85319810D01*
X191727666Y-85344000D01*
X191751857Y-85368190D01*
X191776047Y-85416571D01*
X191800238Y-85513333D01*
X191800238Y-85634286D01*
X191776047Y-85731048D01*
X191751857Y-85779429D01*
X191727666Y-85803619D01*
X191679285Y-85827810D01*
X191630904Y-85827810D01*
X191582523Y-85803619D01*
X191558333Y-85779429D01*
X191534142Y-85731048D01*
X191509952Y-85634286D01*
X191509952Y-85513333D01*
X191534142Y-85416571D01*
X191558333Y-85368190D01*
X191582523Y-85344000D01*
X191630904Y-85319810D01*
X192235667Y-85489143D02*
X192235667Y-85827810D01*
X192114714Y-85295619D02*
X191993762Y-85658476D01*
X192308238Y-85658476D01*
X181731523Y-77981429D02*
X181707333Y-78005619D01*
X181634761Y-78029810D01*
X181586380Y-78029810D01*
X181513809Y-78005619D01*
X181465428Y-77957238D01*
X181441237Y-77908857D01*
X181417047Y-77812095D01*
X181417047Y-77739524D01*
X181441237Y-77642762D01*
X181465428Y-77594381D01*
X181513809Y-77546000D01*
X181586380Y-77521810D01*
X181634761Y-77521810D01*
X181707333Y-77546000D01*
X181731523Y-77570190D01*
X181900856Y-77521810D02*
X182215333Y-77521810D01*
X182045999Y-77715333D01*
X182118571Y-77715333D01*
X182166952Y-77739524D01*
X182191142Y-77763714D01*
X182215333Y-77812095D01*
X182215333Y-77933048D01*
X182191142Y-77981429D01*
X182166952Y-78005619D01*
X182118571Y-78029810D01*
X181973428Y-78029810D01*
X181925047Y-78005619D01*
X181900856Y-77981429D01*
X182529809Y-77521810D02*
X182578190Y-77521810D01*
X182626571Y-77546000D01*
X182650762Y-77570190D01*
X182674952Y-77618571D01*
X182699143Y-77715333D01*
X182699143Y-77836286D01*
X182674952Y-77933048D01*
X182650762Y-77981429D01*
X182626571Y-78005619D01*
X182578190Y-78029810D01*
X182529809Y-78029810D01*
X182481428Y-78005619D01*
X182457238Y-77981429D01*
X182433047Y-77933048D01*
X182408857Y-77836286D01*
X182408857Y-77715333D01*
X182433047Y-77618571D01*
X182457238Y-77570190D01*
X182481428Y-77546000D01*
X182529809Y-77521810D01*
X183182953Y-78029810D02*
X182892667Y-78029810D01*
X183037810Y-78029810D02*
X183037810Y-77521810D01*
X182989429Y-77594381D01*
X182941048Y-77642762D01*
X182892667Y-77666952D01*
X181131523Y-84281429D02*
X181107333Y-84305619D01*
X181034761Y-84329810D01*
X180986380Y-84329810D01*
X180913809Y-84305619D01*
X180865428Y-84257238D01*
X180841237Y-84208857D01*
X180817047Y-84112095D01*
X180817047Y-84039524D01*
X180841237Y-83942762D01*
X180865428Y-83894381D01*
X180913809Y-83846000D01*
X180986380Y-83821810D01*
X181034761Y-83821810D01*
X181107333Y-83846000D01*
X181131523Y-83870190D01*
X181300856Y-83821810D02*
X181615333Y-83821810D01*
X181445999Y-84015333D01*
X181518571Y-84015333D01*
X181566952Y-84039524D01*
X181591142Y-84063714D01*
X181615333Y-84112095D01*
X181615333Y-84233048D01*
X181591142Y-84281429D01*
X181566952Y-84305619D01*
X181518571Y-84329810D01*
X181373428Y-84329810D01*
X181325047Y-84305619D01*
X181300856Y-84281429D01*
X181929809Y-83821810D02*
X181978190Y-83821810D01*
X182026571Y-83846000D01*
X182050762Y-83870190D01*
X182074952Y-83918571D01*
X182099143Y-84015333D01*
X182099143Y-84136286D01*
X182074952Y-84233048D01*
X182050762Y-84281429D01*
X182026571Y-84305619D01*
X181978190Y-84329810D01*
X181929809Y-84329810D01*
X181881428Y-84305619D01*
X181857238Y-84281429D01*
X181833047Y-84233048D01*
X181808857Y-84136286D01*
X181808857Y-84015333D01*
X181833047Y-83918571D01*
X181857238Y-83870190D01*
X181881428Y-83846000D01*
X181929809Y-83821810D01*
X182268476Y-83821810D02*
X182582953Y-83821810D01*
X182413619Y-84015333D01*
X182486191Y-84015333D01*
X182534572Y-84039524D01*
X182558762Y-84063714D01*
X182582953Y-84112095D01*
X182582953Y-84233048D01*
X182558762Y-84281429D01*
X182534572Y-84305619D01*
X182486191Y-84329810D01*
X182341048Y-84329810D01*
X182292667Y-84305619D01*
X182268476Y-84281429D01*
X175326523Y-77143429D02*
X175302333Y-77167619D01*
X175229761Y-77191810D01*
X175181380Y-77191810D01*
X175108809Y-77167619D01*
X175060428Y-77119238D01*
X175036237Y-77070857D01*
X175012047Y-76974095D01*
X175012047Y-76901524D01*
X175036237Y-76804762D01*
X175060428Y-76756381D01*
X175108809Y-76708000D01*
X175181380Y-76683810D01*
X175229761Y-76683810D01*
X175302333Y-76708000D01*
X175326523Y-76732190D01*
X175495856Y-76683810D02*
X175810333Y-76683810D01*
X175640999Y-76877333D01*
X175713571Y-76877333D01*
X175761952Y-76901524D01*
X175786142Y-76925714D01*
X175810333Y-76974095D01*
X175810333Y-77095048D01*
X175786142Y-77143429D01*
X175761952Y-77167619D01*
X175713571Y-77191810D01*
X175568428Y-77191810D01*
X175520047Y-77167619D01*
X175495856Y-77143429D01*
X176124809Y-76683810D02*
X176173190Y-76683810D01*
X176221571Y-76708000D01*
X176245762Y-76732190D01*
X176269952Y-76780571D01*
X176294143Y-76877333D01*
X176294143Y-76998286D01*
X176269952Y-77095048D01*
X176245762Y-77143429D01*
X176221571Y-77167619D01*
X176173190Y-77191810D01*
X176124809Y-77191810D01*
X176076428Y-77167619D01*
X176052238Y-77143429D01*
X176028047Y-77095048D01*
X176003857Y-76998286D01*
X176003857Y-76877333D01*
X176028047Y-76780571D01*
X176052238Y-76732190D01*
X176076428Y-76708000D01*
X176124809Y-76683810D01*
X176463476Y-76683810D02*
X176802143Y-76683810D01*
X176584429Y-77191810D01*
X176381429Y-91068477D02*
X176405619Y-91092667D01*
X176429810Y-91165239D01*
X176429810Y-91213620D01*
X176405619Y-91286191D01*
X176357238Y-91334572D01*
X176308857Y-91358763D01*
X176212095Y-91382953D01*
X176139524Y-91382953D01*
X176042762Y-91358763D01*
X175994381Y-91334572D01*
X175946000Y-91286191D01*
X175921810Y-91213620D01*
X175921810Y-91165239D01*
X175946000Y-91092667D01*
X175970190Y-91068477D01*
X175921810Y-90899144D02*
X175921810Y-90584667D01*
X176115333Y-90754001D01*
X176115333Y-90681429D01*
X176139524Y-90633048D01*
X176163714Y-90608858D01*
X176212095Y-90584667D01*
X176333048Y-90584667D01*
X176381429Y-90608858D01*
X176405619Y-90633048D01*
X176429810Y-90681429D01*
X176429810Y-90826572D01*
X176405619Y-90874953D01*
X176381429Y-90899144D01*
X175921810Y-90270191D02*
X175921810Y-90221810D01*
X175946000Y-90173429D01*
X175970190Y-90149238D01*
X176018571Y-90125048D01*
X176115333Y-90100857D01*
X176236286Y-90100857D01*
X176333048Y-90125048D01*
X176381429Y-90149238D01*
X176405619Y-90173429D01*
X176429810Y-90221810D01*
X176429810Y-90270191D01*
X176405619Y-90318572D01*
X176381429Y-90342762D01*
X176333048Y-90366953D01*
X176236286Y-90391143D01*
X176115333Y-90391143D01*
X176018571Y-90366953D01*
X175970190Y-90342762D01*
X175946000Y-90318572D01*
X175921810Y-90270191D01*
X176139524Y-89810571D02*
X176115333Y-89858952D01*
X176091143Y-89883143D01*
X176042762Y-89907333D01*
X176018571Y-89907333D01*
X175970190Y-89883143D01*
X175946000Y-89858952D01*
X175921810Y-89810571D01*
X175921810Y-89713809D01*
X175946000Y-89665428D01*
X175970190Y-89641238D01*
X176018571Y-89617047D01*
X176042762Y-89617047D01*
X176091143Y-89641238D01*
X176115333Y-89665428D01*
X176139524Y-89713809D01*
X176139524Y-89810571D01*
X176163714Y-89858952D01*
X176187905Y-89883143D01*
X176236286Y-89907333D01*
X176333048Y-89907333D01*
X176381429Y-89883143D01*
X176405619Y-89858952D01*
X176429810Y-89810571D01*
X176429810Y-89713809D01*
X176405619Y-89665428D01*
X176381429Y-89641238D01*
X176333048Y-89617047D01*
X176236286Y-89617047D01*
X176187905Y-89641238D01*
X176163714Y-89665428D01*
X176139524Y-89713809D01*
X191582523Y-79048429D02*
X191558333Y-79072619D01*
X191485761Y-79096810D01*
X191437380Y-79096810D01*
X191364809Y-79072619D01*
X191316428Y-79024238D01*
X191292237Y-78975857D01*
X191268047Y-78879095D01*
X191268047Y-78806524D01*
X191292237Y-78709762D01*
X191316428Y-78661381D01*
X191364809Y-78613000D01*
X191437380Y-78588810D01*
X191485761Y-78588810D01*
X191558333Y-78613000D01*
X191582523Y-78637190D01*
X191751856Y-78588810D02*
X192066333Y-78588810D01*
X191896999Y-78782333D01*
X191969571Y-78782333D01*
X192017952Y-78806524D01*
X192042142Y-78830714D01*
X192066333Y-78879095D01*
X192066333Y-79000048D01*
X192042142Y-79048429D01*
X192017952Y-79072619D01*
X191969571Y-79096810D01*
X191824428Y-79096810D01*
X191776047Y-79072619D01*
X191751856Y-79048429D01*
X192550143Y-79096810D02*
X192259857Y-79096810D01*
X192405000Y-79096810D02*
X192405000Y-78588810D01*
X192356619Y-78661381D01*
X192308238Y-78709762D01*
X192259857Y-78733952D01*
X192864619Y-78588810D02*
X192913000Y-78588810D01*
X192961381Y-78613000D01*
X192985572Y-78637190D01*
X193009762Y-78685571D01*
X193033953Y-78782333D01*
X193033953Y-78903286D01*
X193009762Y-79000048D01*
X192985572Y-79048429D01*
X192961381Y-79072619D01*
X192913000Y-79096810D01*
X192864619Y-79096810D01*
X192816238Y-79072619D01*
X192792048Y-79048429D01*
X192767857Y-79000048D01*
X192743667Y-78903286D01*
X192743667Y-78782333D01*
X192767857Y-78685571D01*
X192792048Y-78637190D01*
X192816238Y-78613000D01*
X192864619Y-78588810D01*
X186781429Y-80868477D02*
X186805619Y-80892667D01*
X186829810Y-80965239D01*
X186829810Y-81013620D01*
X186805619Y-81086191D01*
X186757238Y-81134572D01*
X186708857Y-81158763D01*
X186612095Y-81182953D01*
X186539524Y-81182953D01*
X186442762Y-81158763D01*
X186394381Y-81134572D01*
X186346000Y-81086191D01*
X186321810Y-81013620D01*
X186321810Y-80965239D01*
X186346000Y-80892667D01*
X186370190Y-80868477D01*
X186321810Y-80699144D02*
X186321810Y-80384667D01*
X186515333Y-80554001D01*
X186515333Y-80481429D01*
X186539524Y-80433048D01*
X186563714Y-80408858D01*
X186612095Y-80384667D01*
X186733048Y-80384667D01*
X186781429Y-80408858D01*
X186805619Y-80433048D01*
X186829810Y-80481429D01*
X186829810Y-80626572D01*
X186805619Y-80674953D01*
X186781429Y-80699144D01*
X186829810Y-79900857D02*
X186829810Y-80191143D01*
X186829810Y-80046000D02*
X186321810Y-80046000D01*
X186394381Y-80094381D01*
X186442762Y-80142762D01*
X186466952Y-80191143D01*
X186829810Y-79417047D02*
X186829810Y-79707333D01*
X186829810Y-79562190D02*
X186321810Y-79562190D01*
X186394381Y-79610571D01*
X186442762Y-79658952D01*
X186466952Y-79707333D01*
X198809429Y-85404477D02*
X198833619Y-85428667D01*
X198857810Y-85501239D01*
X198857810Y-85549620D01*
X198833619Y-85622191D01*
X198785238Y-85670572D01*
X198736857Y-85694763D01*
X198640095Y-85718953D01*
X198567524Y-85718953D01*
X198470762Y-85694763D01*
X198422381Y-85670572D01*
X198374000Y-85622191D01*
X198349810Y-85549620D01*
X198349810Y-85501239D01*
X198374000Y-85428667D01*
X198398190Y-85404477D01*
X198349810Y-85235144D02*
X198349810Y-84920667D01*
X198543333Y-85090001D01*
X198543333Y-85017429D01*
X198567524Y-84969048D01*
X198591714Y-84944858D01*
X198640095Y-84920667D01*
X198761048Y-84920667D01*
X198809429Y-84944858D01*
X198833619Y-84969048D01*
X198857810Y-85017429D01*
X198857810Y-85162572D01*
X198833619Y-85210953D01*
X198809429Y-85235144D01*
X198857810Y-84436857D02*
X198857810Y-84727143D01*
X198857810Y-84582000D02*
X198349810Y-84582000D01*
X198422381Y-84630381D01*
X198470762Y-84678762D01*
X198494952Y-84727143D01*
X198349810Y-84267524D02*
X198349810Y-83953047D01*
X198543333Y-84122381D01*
X198543333Y-84049809D01*
X198567524Y-84001428D01*
X198591714Y-83977238D01*
X198640095Y-83953047D01*
X198761048Y-83953047D01*
X198809429Y-83977238D01*
X198833619Y-84001428D01*
X198857810Y-84049809D01*
X198857810Y-84194952D01*
X198833619Y-84243333D01*
X198809429Y-84267524D01*
X203012523Y-81842429D02*
X202988333Y-81866619D01*
X202915761Y-81890810D01*
X202867380Y-81890810D01*
X202794809Y-81866619D01*
X202746428Y-81818238D01*
X202722237Y-81769857D01*
X202698047Y-81673095D01*
X202698047Y-81600524D01*
X202722237Y-81503762D01*
X202746428Y-81455381D01*
X202794809Y-81407000D01*
X202867380Y-81382810D01*
X202915761Y-81382810D01*
X202988333Y-81407000D01*
X203012523Y-81431190D01*
X203181856Y-81382810D02*
X203496333Y-81382810D01*
X203326999Y-81576333D01*
X203399571Y-81576333D01*
X203447952Y-81600524D01*
X203472142Y-81624714D01*
X203496333Y-81673095D01*
X203496333Y-81794048D01*
X203472142Y-81842429D01*
X203447952Y-81866619D01*
X203399571Y-81890810D01*
X203254428Y-81890810D01*
X203206047Y-81866619D01*
X203181856Y-81842429D01*
X203980143Y-81890810D02*
X203689857Y-81890810D01*
X203835000Y-81890810D02*
X203835000Y-81382810D01*
X203786619Y-81455381D01*
X203738238Y-81503762D01*
X203689857Y-81527952D01*
X204415572Y-81382810D02*
X204318810Y-81382810D01*
X204270429Y-81407000D01*
X204246238Y-81431190D01*
X204197857Y-81503762D01*
X204173667Y-81600524D01*
X204173667Y-81794048D01*
X204197857Y-81842429D01*
X204222048Y-81866619D01*
X204270429Y-81890810D01*
X204367191Y-81890810D01*
X204415572Y-81866619D01*
X204439762Y-81842429D01*
X204463953Y-81794048D01*
X204463953Y-81673095D01*
X204439762Y-81624714D01*
X204415572Y-81600524D01*
X204367191Y-81576333D01*
X204270429Y-81576333D01*
X204222048Y-81600524D01*
X204197857Y-81624714D01*
X204173667Y-81673095D01*
X188181429Y-89568477D02*
X188205619Y-89592667D01*
X188229810Y-89665239D01*
X188229810Y-89713620D01*
X188205619Y-89786191D01*
X188157238Y-89834572D01*
X188108857Y-89858763D01*
X188012095Y-89882953D01*
X187939524Y-89882953D01*
X187842762Y-89858763D01*
X187794381Y-89834572D01*
X187746000Y-89786191D01*
X187721810Y-89713620D01*
X187721810Y-89665239D01*
X187746000Y-89592667D01*
X187770190Y-89568477D01*
X187721810Y-89399144D02*
X187721810Y-89084667D01*
X187915333Y-89254001D01*
X187915333Y-89181429D01*
X187939524Y-89133048D01*
X187963714Y-89108858D01*
X188012095Y-89084667D01*
X188133048Y-89084667D01*
X188181429Y-89108858D01*
X188205619Y-89133048D01*
X188229810Y-89181429D01*
X188229810Y-89326572D01*
X188205619Y-89374953D01*
X188181429Y-89399144D01*
X188229810Y-88600857D02*
X188229810Y-88891143D01*
X188229810Y-88746000D02*
X187721810Y-88746000D01*
X187794381Y-88794381D01*
X187842762Y-88842762D01*
X187866952Y-88891143D01*
X187721810Y-88431524D02*
X187721810Y-88092857D01*
X188229810Y-88310571D01*
X194762361Y-84354610D02*
X195101028Y-84862610D01*
X195101028Y-84354610D02*
X194762361Y-84862610D01*
X195560648Y-84862610D02*
X195270362Y-84862610D01*
X195415505Y-84862610D02*
X195415505Y-84354610D01*
X195367124Y-84427181D01*
X195318743Y-84475562D01*
X195270362Y-84499752D01*
X179517523Y-76127429D02*
X179493333Y-76151619D01*
X179420761Y-76175810D01*
X179372380Y-76175810D01*
X179299809Y-76151619D01*
X179251428Y-76103238D01*
X179227237Y-76054857D01*
X179203047Y-75958095D01*
X179203047Y-75885524D01*
X179227237Y-75788762D01*
X179251428Y-75740381D01*
X179299809Y-75692000D01*
X179372380Y-75667810D01*
X179420761Y-75667810D01*
X179493333Y-75692000D01*
X179517523Y-75716190D01*
X179686856Y-75667810D02*
X180001333Y-75667810D01*
X179831999Y-75861333D01*
X179904571Y-75861333D01*
X179952952Y-75885524D01*
X179977142Y-75909714D01*
X180001333Y-75958095D01*
X180001333Y-76079048D01*
X179977142Y-76127429D01*
X179952952Y-76151619D01*
X179904571Y-76175810D01*
X179759428Y-76175810D01*
X179711047Y-76151619D01*
X179686856Y-76127429D01*
X180315809Y-75667810D02*
X180364190Y-75667810D01*
X180412571Y-75692000D01*
X180436762Y-75716190D01*
X180460952Y-75764571D01*
X180485143Y-75861333D01*
X180485143Y-75982286D01*
X180460952Y-76079048D01*
X180436762Y-76127429D01*
X180412571Y-76151619D01*
X180364190Y-76175810D01*
X180315809Y-76175810D01*
X180267428Y-76151619D01*
X180243238Y-76127429D01*
X180219047Y-76079048D01*
X180194857Y-75982286D01*
X180194857Y-75861333D01*
X180219047Y-75764571D01*
X180243238Y-75716190D01*
X180267428Y-75692000D01*
X180315809Y-75667810D01*
X180678667Y-75716190D02*
X180702857Y-75692000D01*
X180751238Y-75667810D01*
X180872191Y-75667810D01*
X180920572Y-75692000D01*
X180944762Y-75716190D01*
X180968953Y-75764571D01*
X180968953Y-75812952D01*
X180944762Y-75885524D01*
X180654476Y-76175810D01*
X180968953Y-76175810D01*
X182231523Y-83581429D02*
X182207333Y-83605619D01*
X182134761Y-83629810D01*
X182086380Y-83629810D01*
X182013809Y-83605619D01*
X181965428Y-83557238D01*
X181941237Y-83508857D01*
X181917047Y-83412095D01*
X181917047Y-83339524D01*
X181941237Y-83242762D01*
X181965428Y-83194381D01*
X182013809Y-83146000D01*
X182086380Y-83121810D01*
X182134761Y-83121810D01*
X182207333Y-83146000D01*
X182231523Y-83170190D01*
X182400856Y-83121810D02*
X182715333Y-83121810D01*
X182545999Y-83315333D01*
X182618571Y-83315333D01*
X182666952Y-83339524D01*
X182691142Y-83363714D01*
X182715333Y-83412095D01*
X182715333Y-83533048D01*
X182691142Y-83581429D01*
X182666952Y-83605619D01*
X182618571Y-83629810D01*
X182473428Y-83629810D01*
X182425047Y-83605619D01*
X182400856Y-83581429D01*
X183029809Y-83121810D02*
X183078190Y-83121810D01*
X183126571Y-83146000D01*
X183150762Y-83170190D01*
X183174952Y-83218571D01*
X183199143Y-83315333D01*
X183199143Y-83436286D01*
X183174952Y-83533048D01*
X183150762Y-83581429D01*
X183126571Y-83605619D01*
X183078190Y-83629810D01*
X183029809Y-83629810D01*
X182981428Y-83605619D01*
X182957238Y-83581429D01*
X182933047Y-83533048D01*
X182908857Y-83436286D01*
X182908857Y-83315333D01*
X182933047Y-83218571D01*
X182957238Y-83170190D01*
X182981428Y-83146000D01*
X183029809Y-83121810D01*
X183634572Y-83291143D02*
X183634572Y-83629810D01*
X183513619Y-83097619D02*
X183392667Y-83460476D01*
X183707143Y-83460476D01*
X192344523Y-77778429D02*
X192320333Y-77802619D01*
X192247761Y-77826810D01*
X192199380Y-77826810D01*
X192126809Y-77802619D01*
X192078428Y-77754238D01*
X192054237Y-77705857D01*
X192030047Y-77609095D01*
X192030047Y-77536524D01*
X192054237Y-77439762D01*
X192078428Y-77391381D01*
X192126809Y-77343000D01*
X192199380Y-77318810D01*
X192247761Y-77318810D01*
X192320333Y-77343000D01*
X192344523Y-77367190D01*
X192513856Y-77318810D02*
X192828333Y-77318810D01*
X192658999Y-77512333D01*
X192731571Y-77512333D01*
X192779952Y-77536524D01*
X192804142Y-77560714D01*
X192828333Y-77609095D01*
X192828333Y-77730048D01*
X192804142Y-77778429D01*
X192779952Y-77802619D01*
X192731571Y-77826810D01*
X192586428Y-77826810D01*
X192538047Y-77802619D01*
X192513856Y-77778429D01*
X193142809Y-77318810D02*
X193191190Y-77318810D01*
X193239571Y-77343000D01*
X193263762Y-77367190D01*
X193287952Y-77415571D01*
X193312143Y-77512333D01*
X193312143Y-77633286D01*
X193287952Y-77730048D01*
X193263762Y-77778429D01*
X193239571Y-77802619D01*
X193191190Y-77826810D01*
X193142809Y-77826810D01*
X193094428Y-77802619D01*
X193070238Y-77778429D01*
X193046047Y-77730048D01*
X193021857Y-77633286D01*
X193021857Y-77512333D01*
X193046047Y-77415571D01*
X193070238Y-77367190D01*
X193094428Y-77343000D01*
X193142809Y-77318810D01*
X193554048Y-77826810D02*
X193650810Y-77826810D01*
X193699191Y-77802619D01*
X193723381Y-77778429D01*
X193771762Y-77705857D01*
X193795953Y-77609095D01*
X193795953Y-77415571D01*
X193771762Y-77367190D01*
X193747572Y-77343000D01*
X193699191Y-77318810D01*
X193602429Y-77318810D01*
X193554048Y-77343000D01*
X193529857Y-77367190D01*
X193505667Y-77415571D01*
X193505667Y-77536524D01*
X193529857Y-77584905D01*
X193554048Y-77609095D01*
X193602429Y-77633286D01*
X193699191Y-77633286D01*
X193747572Y-77609095D01*
X193771762Y-77584905D01*
X193795953Y-77536524D01*
X199825429Y-80832477D02*
X199849619Y-80856667D01*
X199873810Y-80929239D01*
X199873810Y-80977620D01*
X199849619Y-81050191D01*
X199801238Y-81098572D01*
X199752857Y-81122763D01*
X199656095Y-81146953D01*
X199583524Y-81146953D01*
X199486762Y-81122763D01*
X199438381Y-81098572D01*
X199390000Y-81050191D01*
X199365810Y-80977620D01*
X199365810Y-80929239D01*
X199390000Y-80856667D01*
X199414190Y-80832477D01*
X199365810Y-80663144D02*
X199365810Y-80348667D01*
X199559333Y-80518001D01*
X199559333Y-80445429D01*
X199583524Y-80397048D01*
X199607714Y-80372858D01*
X199656095Y-80348667D01*
X199777048Y-80348667D01*
X199825429Y-80372858D01*
X199849619Y-80397048D01*
X199873810Y-80445429D01*
X199873810Y-80590572D01*
X199849619Y-80638953D01*
X199825429Y-80663144D01*
X199873810Y-79864857D02*
X199873810Y-80155143D01*
X199873810Y-80010000D02*
X199365810Y-80010000D01*
X199438381Y-80058381D01*
X199486762Y-80106762D01*
X199510952Y-80155143D01*
X199535143Y-79429428D02*
X199873810Y-79429428D01*
X199341619Y-79550381D02*
X199704476Y-79671333D01*
X199704476Y-79356857D01*
X203266523Y-80445429D02*
X203242333Y-80469619D01*
X203169761Y-80493810D01*
X203121380Y-80493810D01*
X203048809Y-80469619D01*
X203000428Y-80421238D01*
X202976237Y-80372857D01*
X202952047Y-80276095D01*
X202952047Y-80203524D01*
X202976237Y-80106762D01*
X203000428Y-80058381D01*
X203048809Y-80010000D01*
X203121380Y-79985810D01*
X203169761Y-79985810D01*
X203242333Y-80010000D01*
X203266523Y-80034190D01*
X203435856Y-79985810D02*
X203750333Y-79985810D01*
X203580999Y-80179333D01*
X203653571Y-80179333D01*
X203701952Y-80203524D01*
X203726142Y-80227714D01*
X203750333Y-80276095D01*
X203750333Y-80397048D01*
X203726142Y-80445429D01*
X203701952Y-80469619D01*
X203653571Y-80493810D01*
X203508428Y-80493810D01*
X203460047Y-80469619D01*
X203435856Y-80445429D01*
X204234143Y-80493810D02*
X203943857Y-80493810D01*
X204089000Y-80493810D02*
X204089000Y-79985810D01*
X204040619Y-80058381D01*
X203992238Y-80106762D01*
X203943857Y-80130952D01*
X204693762Y-79985810D02*
X204451857Y-79985810D01*
X204427667Y-80227714D01*
X204451857Y-80203524D01*
X204500238Y-80179333D01*
X204621191Y-80179333D01*
X204669572Y-80203524D01*
X204693762Y-80227714D01*
X204717953Y-80276095D01*
X204717953Y-80397048D01*
X204693762Y-80445429D01*
X204669572Y-80469619D01*
X204621191Y-80493810D01*
X204500238Y-80493810D01*
X204451857Y-80469619D01*
X204427667Y-80445429D01*
X194249523Y-79048429D02*
X194225333Y-79072619D01*
X194152761Y-79096810D01*
X194104380Y-79096810D01*
X194031809Y-79072619D01*
X193983428Y-79024238D01*
X193959237Y-78975857D01*
X193935047Y-78879095D01*
X193935047Y-78806524D01*
X193959237Y-78709762D01*
X193983428Y-78661381D01*
X194031809Y-78613000D01*
X194104380Y-78588810D01*
X194152761Y-78588810D01*
X194225333Y-78613000D01*
X194249523Y-78637190D01*
X194418856Y-78588810D02*
X194733333Y-78588810D01*
X194563999Y-78782333D01*
X194636571Y-78782333D01*
X194684952Y-78806524D01*
X194709142Y-78830714D01*
X194733333Y-78879095D01*
X194733333Y-79000048D01*
X194709142Y-79048429D01*
X194684952Y-79072619D01*
X194636571Y-79096810D01*
X194491428Y-79096810D01*
X194443047Y-79072619D01*
X194418856Y-79048429D01*
X195217143Y-79096810D02*
X194926857Y-79096810D01*
X195072000Y-79096810D02*
X195072000Y-78588810D01*
X195023619Y-78661381D01*
X194975238Y-78709762D01*
X194926857Y-78733952D01*
X195459048Y-79096810D02*
X195555810Y-79096810D01*
X195604191Y-79072619D01*
X195628381Y-79048429D01*
X195676762Y-78975857D01*
X195700953Y-78879095D01*
X195700953Y-78685571D01*
X195676762Y-78637190D01*
X195652572Y-78613000D01*
X195604191Y-78588810D01*
X195507429Y-78588810D01*
X195459048Y-78613000D01*
X195434857Y-78637190D01*
X195410667Y-78685571D01*
X195410667Y-78806524D01*
X195434857Y-78854905D01*
X195459048Y-78879095D01*
X195507429Y-78903286D01*
X195604191Y-78903286D01*
X195652572Y-78879095D01*
X195676762Y-78854905D01*
X195700953Y-78806524D01*
X188195857Y-76290714D02*
X188026523Y-76290714D01*
X188026523Y-76556810D02*
X188026523Y-76048810D01*
X188268428Y-76048810D01*
X188631286Y-76290714D02*
X188703857Y-76314905D01*
X188728048Y-76339095D01*
X188752238Y-76387476D01*
X188752238Y-76460048D01*
X188728048Y-76508429D01*
X188703857Y-76532619D01*
X188655476Y-76556810D01*
X188461952Y-76556810D01*
X188461952Y-76048810D01*
X188631286Y-76048810D01*
X188679667Y-76073000D01*
X188703857Y-76097190D01*
X188728048Y-76145571D01*
X188728048Y-76193952D01*
X188703857Y-76242333D01*
X188679667Y-76266524D01*
X188631286Y-76290714D01*
X188461952Y-76290714D01*
X189187667Y-76218143D02*
X189187667Y-76556810D01*
X189066714Y-76024619D02*
X188945762Y-76387476D01*
X189260238Y-76387476D01*
X189550524Y-76048810D02*
X189598905Y-76048810D01*
X189647286Y-76073000D01*
X189671477Y-76097190D01*
X189695667Y-76145571D01*
X189719858Y-76242333D01*
X189719858Y-76363286D01*
X189695667Y-76460048D01*
X189671477Y-76508429D01*
X189647286Y-76532619D01*
X189598905Y-76556810D01*
X189550524Y-76556810D01*
X189502143Y-76532619D01*
X189477953Y-76508429D01*
X189453762Y-76460048D01*
X189429572Y-76363286D01*
X189429572Y-76242333D01*
X189453762Y-76145571D01*
X189477953Y-76097190D01*
X189502143Y-76073000D01*
X189550524Y-76048810D01*
X189913382Y-76097190D02*
X189937572Y-76073000D01*
X189985953Y-76048810D01*
X190106906Y-76048810D01*
X190155287Y-76073000D01*
X190179477Y-76097190D01*
X190203668Y-76145571D01*
X190203668Y-76193952D01*
X190179477Y-76266524D01*
X189889191Y-76556810D01*
X190203668Y-76556810D01*
X201234523Y-77699810D02*
X201065190Y-77457905D01*
X200944237Y-77699810D02*
X200944237Y-77191810D01*
X201137761Y-77191810D01*
X201186142Y-77216000D01*
X201210333Y-77240190D01*
X201234523Y-77288571D01*
X201234523Y-77361143D01*
X201210333Y-77409524D01*
X201186142Y-77433714D01*
X201137761Y-77457905D01*
X200944237Y-77457905D01*
X201403856Y-77191810D02*
X201718333Y-77191810D01*
X201548999Y-77385333D01*
X201621571Y-77385333D01*
X201669952Y-77409524D01*
X201694142Y-77433714D01*
X201718333Y-77482095D01*
X201718333Y-77603048D01*
X201694142Y-77651429D01*
X201669952Y-77675619D01*
X201621571Y-77699810D01*
X201476428Y-77699810D01*
X201428047Y-77675619D01*
X201403856Y-77651429D01*
X202202143Y-77699810D02*
X201911857Y-77699810D01*
X202057000Y-77699810D02*
X202057000Y-77191810D01*
X202008619Y-77264381D01*
X201960238Y-77312762D01*
X201911857Y-77336952D01*
X202637572Y-77191810D02*
X202540810Y-77191810D01*
X202492429Y-77216000D01*
X202468238Y-77240190D01*
X202419857Y-77312762D01*
X202395667Y-77409524D01*
X202395667Y-77603048D01*
X202419857Y-77651429D01*
X202444048Y-77675619D01*
X202492429Y-77699810D01*
X202589191Y-77699810D01*
X202637572Y-77675619D01*
X202661762Y-77651429D01*
X202685953Y-77603048D01*
X202685953Y-77482095D01*
X202661762Y-77433714D01*
X202637572Y-77409524D01*
X202589191Y-77385333D01*
X202492429Y-77385333D01*
X202444048Y-77409524D01*
X202419857Y-77433714D01*
X202395667Y-77482095D01*
X195301810Y-88706477D02*
X195059905Y-88875810D01*
X195301810Y-88996763D02*
X194793810Y-88996763D01*
X194793810Y-88803239D01*
X194818000Y-88754858D01*
X194842190Y-88730667D01*
X194890571Y-88706477D01*
X194963143Y-88706477D01*
X195011524Y-88730667D01*
X195035714Y-88754858D01*
X195059905Y-88803239D01*
X195059905Y-88996763D01*
X194793810Y-88537144D02*
X194793810Y-88222667D01*
X194987333Y-88392001D01*
X194987333Y-88319429D01*
X195011524Y-88271048D01*
X195035714Y-88246858D01*
X195084095Y-88222667D01*
X195205048Y-88222667D01*
X195253429Y-88246858D01*
X195277619Y-88271048D01*
X195301810Y-88319429D01*
X195301810Y-88464572D01*
X195277619Y-88512953D01*
X195253429Y-88537144D01*
X195301810Y-87738857D02*
X195301810Y-88029143D01*
X195301810Y-87884000D02*
X194793810Y-87884000D01*
X194866381Y-87932381D01*
X194914762Y-87980762D01*
X194938952Y-88029143D01*
X194793810Y-87569524D02*
X194793810Y-87230857D01*
X195301810Y-87448571D01*
X193650810Y-88706477D02*
X193408905Y-88875810D01*
X193650810Y-88996763D02*
X193142810Y-88996763D01*
X193142810Y-88803239D01*
X193167000Y-88754858D01*
X193191190Y-88730667D01*
X193239571Y-88706477D01*
X193312143Y-88706477D01*
X193360524Y-88730667D01*
X193384714Y-88754858D01*
X193408905Y-88803239D01*
X193408905Y-88996763D01*
X193142810Y-88537144D02*
X193142810Y-88222667D01*
X193336333Y-88392001D01*
X193336333Y-88319429D01*
X193360524Y-88271048D01*
X193384714Y-88246858D01*
X193433095Y-88222667D01*
X193554048Y-88222667D01*
X193602429Y-88246858D01*
X193626619Y-88271048D01*
X193650810Y-88319429D01*
X193650810Y-88464572D01*
X193626619Y-88512953D01*
X193602429Y-88537144D01*
X193650810Y-87738857D02*
X193650810Y-88029143D01*
X193650810Y-87884000D02*
X193142810Y-87884000D01*
X193215381Y-87932381D01*
X193263762Y-87980762D01*
X193287952Y-88029143D01*
X193360524Y-87448571D02*
X193336333Y-87496952D01*
X193312143Y-87521143D01*
X193263762Y-87545333D01*
X193239571Y-87545333D01*
X193191190Y-87521143D01*
X193167000Y-87496952D01*
X193142810Y-87448571D01*
X193142810Y-87351809D01*
X193167000Y-87303428D01*
X193191190Y-87279238D01*
X193239571Y-87255047D01*
X193263762Y-87255047D01*
X193312143Y-87279238D01*
X193336333Y-87303428D01*
X193360524Y-87351809D01*
X193360524Y-87448571D01*
X193384714Y-87496952D01*
X193408905Y-87521143D01*
X193457286Y-87545333D01*
X193554048Y-87545333D01*
X193602429Y-87521143D01*
X193626619Y-87496952D01*
X193650810Y-87448571D01*
X193650810Y-87351809D01*
X193626619Y-87303428D01*
X193602429Y-87279238D01*
X193554048Y-87255047D01*
X193457286Y-87255047D01*
X193408905Y-87279238D01*
X193384714Y-87303428D01*
X193360524Y-87351809D01*
X198821523Y-77699810D02*
X198652190Y-77457905D01*
X198531237Y-77699810D02*
X198531237Y-77191810D01*
X198724761Y-77191810D01*
X198773142Y-77216000D01*
X198797333Y-77240190D01*
X198821523Y-77288571D01*
X198821523Y-77361143D01*
X198797333Y-77409524D01*
X198773142Y-77433714D01*
X198724761Y-77457905D01*
X198531237Y-77457905D01*
X198990856Y-77191810D02*
X199305333Y-77191810D01*
X199135999Y-77385333D01*
X199208571Y-77385333D01*
X199256952Y-77409524D01*
X199281142Y-77433714D01*
X199305333Y-77482095D01*
X199305333Y-77603048D01*
X199281142Y-77651429D01*
X199256952Y-77675619D01*
X199208571Y-77699810D01*
X199063428Y-77699810D01*
X199015047Y-77675619D01*
X198990856Y-77651429D01*
X199789143Y-77699810D02*
X199498857Y-77699810D01*
X199644000Y-77699810D02*
X199644000Y-77191810D01*
X199595619Y-77264381D01*
X199547238Y-77312762D01*
X199498857Y-77336952D01*
X200031048Y-77699810D02*
X200127810Y-77699810D01*
X200176191Y-77675619D01*
X200200381Y-77651429D01*
X200248762Y-77578857D01*
X200272953Y-77482095D01*
X200272953Y-77288571D01*
X200248762Y-77240190D01*
X200224572Y-77216000D01*
X200176191Y-77191810D01*
X200079429Y-77191810D01*
X200031048Y-77216000D01*
X200006857Y-77240190D01*
X199982667Y-77288571D01*
X199982667Y-77409524D01*
X200006857Y-77457905D01*
X200031048Y-77482095D01*
X200079429Y-77506286D01*
X200176191Y-77506286D01*
X200224572Y-77482095D01*
X200248762Y-77457905D01*
X200272953Y-77409524D01*
X196535523Y-77699810D02*
X196366190Y-77457905D01*
X196245237Y-77699810D02*
X196245237Y-77191810D01*
X196438761Y-77191810D01*
X196487142Y-77216000D01*
X196511333Y-77240190D01*
X196535523Y-77288571D01*
X196535523Y-77361143D01*
X196511333Y-77409524D01*
X196487142Y-77433714D01*
X196438761Y-77457905D01*
X196245237Y-77457905D01*
X196704856Y-77191810D02*
X197019333Y-77191810D01*
X196849999Y-77385333D01*
X196922571Y-77385333D01*
X196970952Y-77409524D01*
X196995142Y-77433714D01*
X197019333Y-77482095D01*
X197019333Y-77603048D01*
X196995142Y-77651429D01*
X196970952Y-77675619D01*
X196922571Y-77699810D01*
X196777428Y-77699810D01*
X196729047Y-77675619D01*
X196704856Y-77651429D01*
X197212857Y-77240190D02*
X197237047Y-77216000D01*
X197285428Y-77191810D01*
X197406381Y-77191810D01*
X197454762Y-77216000D01*
X197478952Y-77240190D01*
X197503143Y-77288571D01*
X197503143Y-77336952D01*
X197478952Y-77409524D01*
X197188666Y-77699810D01*
X197503143Y-77699810D01*
X197696667Y-77240190D02*
X197720857Y-77216000D01*
X197769238Y-77191810D01*
X197890191Y-77191810D01*
X197938572Y-77216000D01*
X197962762Y-77240190D01*
X197986953Y-77288571D01*
X197986953Y-77336952D01*
X197962762Y-77409524D01*
X197672476Y-77699810D01*
X197986953Y-77699810D01*
X193233523Y-76508429D02*
X193209333Y-76532619D01*
X193136761Y-76556810D01*
X193088380Y-76556810D01*
X193015809Y-76532619D01*
X192967428Y-76484238D01*
X192943237Y-76435857D01*
X192919047Y-76339095D01*
X192919047Y-76266524D01*
X192943237Y-76169762D01*
X192967428Y-76121381D01*
X193015809Y-76073000D01*
X193088380Y-76048810D01*
X193136761Y-76048810D01*
X193209333Y-76073000D01*
X193233523Y-76097190D01*
X193668952Y-76218143D02*
X193668952Y-76556810D01*
X193547999Y-76024619D02*
X193427047Y-76387476D01*
X193741523Y-76387476D01*
X194031809Y-76048810D02*
X194080190Y-76048810D01*
X194128571Y-76073000D01*
X194152762Y-76097190D01*
X194176952Y-76145571D01*
X194201143Y-76242333D01*
X194201143Y-76363286D01*
X194176952Y-76460048D01*
X194152762Y-76508429D01*
X194128571Y-76532619D01*
X194080190Y-76556810D01*
X194031809Y-76556810D01*
X193983428Y-76532619D01*
X193959238Y-76508429D01*
X193935047Y-76460048D01*
X193910857Y-76363286D01*
X193910857Y-76242333D01*
X193935047Y-76145571D01*
X193959238Y-76097190D01*
X193983428Y-76073000D01*
X194031809Y-76048810D01*
X194684953Y-76556810D02*
X194394667Y-76556810D01*
X194539810Y-76556810D02*
X194539810Y-76048810D01*
X194491429Y-76121381D01*
X194443048Y-76169762D01*
X194394667Y-76193952D01*
X186121523Y-76762429D02*
X186097333Y-76786619D01*
X186024761Y-76810810D01*
X185976380Y-76810810D01*
X185903809Y-76786619D01*
X185855428Y-76738238D01*
X185831237Y-76689857D01*
X185807047Y-76593095D01*
X185807047Y-76520524D01*
X185831237Y-76423762D01*
X185855428Y-76375381D01*
X185903809Y-76327000D01*
X185976380Y-76302810D01*
X186024761Y-76302810D01*
X186097333Y-76327000D01*
X186121523Y-76351190D01*
X186290856Y-76302810D02*
X186605333Y-76302810D01*
X186435999Y-76496333D01*
X186508571Y-76496333D01*
X186556952Y-76520524D01*
X186581142Y-76544714D01*
X186605333Y-76593095D01*
X186605333Y-76714048D01*
X186581142Y-76762429D01*
X186556952Y-76786619D01*
X186508571Y-76810810D01*
X186363428Y-76810810D01*
X186315047Y-76786619D01*
X186290856Y-76762429D01*
X187089143Y-76810810D02*
X186798857Y-76810810D01*
X186944000Y-76810810D02*
X186944000Y-76302810D01*
X186895619Y-76375381D01*
X186847238Y-76423762D01*
X186798857Y-76447952D01*
X187282667Y-76351190D02*
X187306857Y-76327000D01*
X187355238Y-76302810D01*
X187476191Y-76302810D01*
X187524572Y-76327000D01*
X187548762Y-76351190D01*
X187572953Y-76399571D01*
X187572953Y-76447952D01*
X187548762Y-76520524D01*
X187258476Y-76810810D01*
X187572953Y-76810810D01*
X182131523Y-78781429D02*
X182107333Y-78805619D01*
X182034761Y-78829810D01*
X181986380Y-78829810D01*
X181913809Y-78805619D01*
X181865428Y-78757238D01*
X181841237Y-78708857D01*
X181817047Y-78612095D01*
X181817047Y-78539524D01*
X181841237Y-78442762D01*
X181865428Y-78394381D01*
X181913809Y-78346000D01*
X181986380Y-78321810D01*
X182034761Y-78321810D01*
X182107333Y-78346000D01*
X182131523Y-78370190D01*
X182300856Y-78321810D02*
X182615333Y-78321810D01*
X182445999Y-78515333D01*
X182518571Y-78515333D01*
X182566952Y-78539524D01*
X182591142Y-78563714D01*
X182615333Y-78612095D01*
X182615333Y-78733048D01*
X182591142Y-78781429D01*
X182566952Y-78805619D01*
X182518571Y-78829810D01*
X182373428Y-78829810D01*
X182325047Y-78805619D01*
X182300856Y-78781429D01*
X182929809Y-78321810D02*
X182978190Y-78321810D01*
X183026571Y-78346000D01*
X183050762Y-78370190D01*
X183074952Y-78418571D01*
X183099143Y-78515333D01*
X183099143Y-78636286D01*
X183074952Y-78733048D01*
X183050762Y-78781429D01*
X183026571Y-78805619D01*
X182978190Y-78829810D01*
X182929809Y-78829810D01*
X182881428Y-78805619D01*
X182857238Y-78781429D01*
X182833047Y-78733048D01*
X182808857Y-78636286D01*
X182808857Y-78515333D01*
X182833047Y-78418571D01*
X182857238Y-78370190D01*
X182881428Y-78346000D01*
X182929809Y-78321810D01*
X183558762Y-78321810D02*
X183316857Y-78321810D01*
X183292667Y-78563714D01*
X183316857Y-78539524D01*
X183365238Y-78515333D01*
X183486191Y-78515333D01*
X183534572Y-78539524D01*
X183558762Y-78563714D01*
X183582953Y-78612095D01*
X183582953Y-78733048D01*
X183558762Y-78781429D01*
X183534572Y-78805619D01*
X183486191Y-78829810D01*
X183365238Y-78829810D01*
X183316857Y-78805619D01*
X183292667Y-78781429D01*
X173929523Y-78207810D02*
X173760190Y-77965905D01*
X173639237Y-78207810D02*
X173639237Y-77699810D01*
X173832761Y-77699810D01*
X173881142Y-77724000D01*
X173905333Y-77748190D01*
X173929523Y-77796571D01*
X173929523Y-77869143D01*
X173905333Y-77917524D01*
X173881142Y-77941714D01*
X173832761Y-77965905D01*
X173639237Y-77965905D01*
X174098856Y-77699810D02*
X174413333Y-77699810D01*
X174243999Y-77893333D01*
X174316571Y-77893333D01*
X174364952Y-77917524D01*
X174389142Y-77941714D01*
X174413333Y-77990095D01*
X174413333Y-78111048D01*
X174389142Y-78159429D01*
X174364952Y-78183619D01*
X174316571Y-78207810D01*
X174171428Y-78207810D01*
X174123047Y-78183619D01*
X174098856Y-78159429D01*
X174727809Y-77699810D02*
X174776190Y-77699810D01*
X174824571Y-77724000D01*
X174848762Y-77748190D01*
X174872952Y-77796571D01*
X174897143Y-77893333D01*
X174897143Y-78014286D01*
X174872952Y-78111048D01*
X174848762Y-78159429D01*
X174824571Y-78183619D01*
X174776190Y-78207810D01*
X174727809Y-78207810D01*
X174679428Y-78183619D01*
X174655238Y-78159429D01*
X174631047Y-78111048D01*
X174606857Y-78014286D01*
X174606857Y-77893333D01*
X174631047Y-77796571D01*
X174655238Y-77748190D01*
X174679428Y-77724000D01*
X174727809Y-77699810D01*
X175380953Y-78207810D02*
X175090667Y-78207810D01*
X175235810Y-78207810D02*
X175235810Y-77699810D01*
X175187429Y-77772381D01*
X175139048Y-77820762D01*
X175090667Y-77844952D01*
X172829810Y-91568477D02*
X172587905Y-91737810D01*
X172829810Y-91858763D02*
X172321810Y-91858763D01*
X172321810Y-91665239D01*
X172346000Y-91616858D01*
X172370190Y-91592667D01*
X172418571Y-91568477D01*
X172491143Y-91568477D01*
X172539524Y-91592667D01*
X172563714Y-91616858D01*
X172587905Y-91665239D01*
X172587905Y-91858763D01*
X172321810Y-91399144D02*
X172321810Y-91084667D01*
X172515333Y-91254001D01*
X172515333Y-91181429D01*
X172539524Y-91133048D01*
X172563714Y-91108858D01*
X172612095Y-91084667D01*
X172733048Y-91084667D01*
X172781429Y-91108858D01*
X172805619Y-91133048D01*
X172829810Y-91181429D01*
X172829810Y-91326572D01*
X172805619Y-91374953D01*
X172781429Y-91399144D01*
X172321810Y-90770191D02*
X172321810Y-90721810D01*
X172346000Y-90673429D01*
X172370190Y-90649238D01*
X172418571Y-90625048D01*
X172515333Y-90600857D01*
X172636286Y-90600857D01*
X172733048Y-90625048D01*
X172781429Y-90649238D01*
X172805619Y-90673429D01*
X172829810Y-90721810D01*
X172829810Y-90770191D01*
X172805619Y-90818572D01*
X172781429Y-90842762D01*
X172733048Y-90866953D01*
X172636286Y-90891143D01*
X172515333Y-90891143D01*
X172418571Y-90866953D01*
X172370190Y-90842762D01*
X172346000Y-90818572D01*
X172321810Y-90770191D01*
X172370190Y-90407333D02*
X172346000Y-90383143D01*
X172321810Y-90334762D01*
X172321810Y-90213809D01*
X172346000Y-90165428D01*
X172370190Y-90141238D01*
X172418571Y-90117047D01*
X172466952Y-90117047D01*
X172539524Y-90141238D01*
X172829810Y-90431524D01*
X172829810Y-90117047D01*
X183429810Y-82568477D02*
X183187905Y-82737810D01*
X183429810Y-82858763D02*
X182921810Y-82858763D01*
X182921810Y-82665239D01*
X182946000Y-82616858D01*
X182970190Y-82592667D01*
X183018571Y-82568477D01*
X183091143Y-82568477D01*
X183139524Y-82592667D01*
X183163714Y-82616858D01*
X183187905Y-82665239D01*
X183187905Y-82858763D01*
X182921810Y-82399144D02*
X182921810Y-82084667D01*
X183115333Y-82254001D01*
X183115333Y-82181429D01*
X183139524Y-82133048D01*
X183163714Y-82108858D01*
X183212095Y-82084667D01*
X183333048Y-82084667D01*
X183381429Y-82108858D01*
X183405619Y-82133048D01*
X183429810Y-82181429D01*
X183429810Y-82326572D01*
X183405619Y-82374953D01*
X183381429Y-82399144D01*
X182921810Y-81770191D02*
X182921810Y-81721810D01*
X182946000Y-81673429D01*
X182970190Y-81649238D01*
X183018571Y-81625048D01*
X183115333Y-81600857D01*
X183236286Y-81600857D01*
X183333048Y-81625048D01*
X183381429Y-81649238D01*
X183405619Y-81673429D01*
X183429810Y-81721810D01*
X183429810Y-81770191D01*
X183405619Y-81818572D01*
X183381429Y-81842762D01*
X183333048Y-81866953D01*
X183236286Y-81891143D01*
X183115333Y-81891143D01*
X183018571Y-81866953D01*
X182970190Y-81842762D01*
X182946000Y-81818572D01*
X182921810Y-81770191D01*
X182921810Y-81431524D02*
X182921810Y-81117047D01*
X183115333Y-81286381D01*
X183115333Y-81213809D01*
X183139524Y-81165428D01*
X183163714Y-81141238D01*
X183212095Y-81117047D01*
X183333048Y-81117047D01*
X183381429Y-81141238D01*
X183405619Y-81165428D01*
X183429810Y-81213809D01*
X183429810Y-81358952D01*
X183405619Y-81407333D01*
X183381429Y-81431524D01*
X184629810Y-80668477D02*
X184387905Y-80837810D01*
X184629810Y-80958763D02*
X184121810Y-80958763D01*
X184121810Y-80765239D01*
X184146000Y-80716858D01*
X184170190Y-80692667D01*
X184218571Y-80668477D01*
X184291143Y-80668477D01*
X184339524Y-80692667D01*
X184363714Y-80716858D01*
X184387905Y-80765239D01*
X184387905Y-80958763D01*
X184121810Y-80499144D02*
X184121810Y-80184667D01*
X184315333Y-80354001D01*
X184315333Y-80281429D01*
X184339524Y-80233048D01*
X184363714Y-80208858D01*
X184412095Y-80184667D01*
X184533048Y-80184667D01*
X184581429Y-80208858D01*
X184605619Y-80233048D01*
X184629810Y-80281429D01*
X184629810Y-80426572D01*
X184605619Y-80474953D01*
X184581429Y-80499144D01*
X184121810Y-79870191D02*
X184121810Y-79821810D01*
X184146000Y-79773429D01*
X184170190Y-79749238D01*
X184218571Y-79725048D01*
X184315333Y-79700857D01*
X184436286Y-79700857D01*
X184533048Y-79725048D01*
X184581429Y-79749238D01*
X184605619Y-79773429D01*
X184629810Y-79821810D01*
X184629810Y-79870191D01*
X184605619Y-79918572D01*
X184581429Y-79942762D01*
X184533048Y-79966953D01*
X184436286Y-79991143D01*
X184315333Y-79991143D01*
X184218571Y-79966953D01*
X184170190Y-79942762D01*
X184146000Y-79918572D01*
X184121810Y-79870191D01*
X184291143Y-79265428D02*
X184629810Y-79265428D01*
X184097619Y-79386381D02*
X184460476Y-79507333D01*
X184460476Y-79192857D01*
X183729810Y-87868477D02*
X183487905Y-88037810D01*
X183729810Y-88158763D02*
X183221810Y-88158763D01*
X183221810Y-87965239D01*
X183246000Y-87916858D01*
X183270190Y-87892667D01*
X183318571Y-87868477D01*
X183391143Y-87868477D01*
X183439524Y-87892667D01*
X183463714Y-87916858D01*
X183487905Y-87965239D01*
X183487905Y-88158763D01*
X183221810Y-87699144D02*
X183221810Y-87384667D01*
X183415333Y-87554001D01*
X183415333Y-87481429D01*
X183439524Y-87433048D01*
X183463714Y-87408858D01*
X183512095Y-87384667D01*
X183633048Y-87384667D01*
X183681429Y-87408858D01*
X183705619Y-87433048D01*
X183729810Y-87481429D01*
X183729810Y-87626572D01*
X183705619Y-87674953D01*
X183681429Y-87699144D01*
X183221810Y-87070191D02*
X183221810Y-87021810D01*
X183246000Y-86973429D01*
X183270190Y-86949238D01*
X183318571Y-86925048D01*
X183415333Y-86900857D01*
X183536286Y-86900857D01*
X183633048Y-86925048D01*
X183681429Y-86949238D01*
X183705619Y-86973429D01*
X183729810Y-87021810D01*
X183729810Y-87070191D01*
X183705619Y-87118572D01*
X183681429Y-87142762D01*
X183633048Y-87166953D01*
X183536286Y-87191143D01*
X183415333Y-87191143D01*
X183318571Y-87166953D01*
X183270190Y-87142762D01*
X183246000Y-87118572D01*
X183221810Y-87070191D01*
X183221810Y-86441238D02*
X183221810Y-86683143D01*
X183463714Y-86707333D01*
X183439524Y-86683143D01*
X183415333Y-86634762D01*
X183415333Y-86513809D01*
X183439524Y-86465428D01*
X183463714Y-86441238D01*
X183512095Y-86417047D01*
X183633048Y-86417047D01*
X183681429Y-86441238D01*
X183705619Y-86465428D01*
X183729810Y-86513809D01*
X183729810Y-86634762D01*
X183705619Y-86683143D01*
X183681429Y-86707333D01*
X182729810Y-91068477D02*
X182487905Y-91237810D01*
X182729810Y-91358763D02*
X182221810Y-91358763D01*
X182221810Y-91165239D01*
X182246000Y-91116858D01*
X182270190Y-91092667D01*
X182318571Y-91068477D01*
X182391143Y-91068477D01*
X182439524Y-91092667D01*
X182463714Y-91116858D01*
X182487905Y-91165239D01*
X182487905Y-91358763D01*
X182221810Y-90899144D02*
X182221810Y-90584667D01*
X182415333Y-90754001D01*
X182415333Y-90681429D01*
X182439524Y-90633048D01*
X182463714Y-90608858D01*
X182512095Y-90584667D01*
X182633048Y-90584667D01*
X182681429Y-90608858D01*
X182705619Y-90633048D01*
X182729810Y-90681429D01*
X182729810Y-90826572D01*
X182705619Y-90874953D01*
X182681429Y-90899144D01*
X182221810Y-90270191D02*
X182221810Y-90221810D01*
X182246000Y-90173429D01*
X182270190Y-90149238D01*
X182318571Y-90125048D01*
X182415333Y-90100857D01*
X182536286Y-90100857D01*
X182633048Y-90125048D01*
X182681429Y-90149238D01*
X182705619Y-90173429D01*
X182729810Y-90221810D01*
X182729810Y-90270191D01*
X182705619Y-90318572D01*
X182681429Y-90342762D01*
X182633048Y-90366953D01*
X182536286Y-90391143D01*
X182415333Y-90391143D01*
X182318571Y-90366953D01*
X182270190Y-90342762D01*
X182246000Y-90318572D01*
X182221810Y-90270191D01*
X182221810Y-89665428D02*
X182221810Y-89762190D01*
X182246000Y-89810571D01*
X182270190Y-89834762D01*
X182342762Y-89883143D01*
X182439524Y-89907333D01*
X182633048Y-89907333D01*
X182681429Y-89883143D01*
X182705619Y-89858952D01*
X182729810Y-89810571D01*
X182729810Y-89713809D01*
X182705619Y-89665428D01*
X182681429Y-89641238D01*
X182633048Y-89617047D01*
X182512095Y-89617047D01*
X182463714Y-89641238D01*
X182439524Y-89665428D01*
X182415333Y-89713809D01*
X182415333Y-89810571D01*
X182439524Y-89858952D01*
X182463714Y-89883143D01*
X182512095Y-89907333D01*
X172929810Y-86968477D02*
X172687905Y-87137810D01*
X172929810Y-87258763D02*
X172421810Y-87258763D01*
X172421810Y-87065239D01*
X172446000Y-87016858D01*
X172470190Y-86992667D01*
X172518571Y-86968477D01*
X172591143Y-86968477D01*
X172639524Y-86992667D01*
X172663714Y-87016858D01*
X172687905Y-87065239D01*
X172687905Y-87258763D01*
X172421810Y-86799144D02*
X172421810Y-86484667D01*
X172615333Y-86654001D01*
X172615333Y-86581429D01*
X172639524Y-86533048D01*
X172663714Y-86508858D01*
X172712095Y-86484667D01*
X172833048Y-86484667D01*
X172881429Y-86508858D01*
X172905619Y-86533048D01*
X172929810Y-86581429D01*
X172929810Y-86726572D01*
X172905619Y-86774953D01*
X172881429Y-86799144D01*
X172421810Y-86170191D02*
X172421810Y-86121810D01*
X172446000Y-86073429D01*
X172470190Y-86049238D01*
X172518571Y-86025048D01*
X172615333Y-86000857D01*
X172736286Y-86000857D01*
X172833048Y-86025048D01*
X172881429Y-86049238D01*
X172905619Y-86073429D01*
X172929810Y-86121810D01*
X172929810Y-86170191D01*
X172905619Y-86218572D01*
X172881429Y-86242762D01*
X172833048Y-86266953D01*
X172736286Y-86291143D01*
X172615333Y-86291143D01*
X172518571Y-86266953D01*
X172470190Y-86242762D01*
X172446000Y-86218572D01*
X172421810Y-86170191D01*
X172421810Y-85831524D02*
X172421810Y-85492857D01*
X172929810Y-85710571D01*
X179807810Y-80959477D02*
X179565905Y-81128810D01*
X179807810Y-81249763D02*
X179299810Y-81249763D01*
X179299810Y-81056239D01*
X179324000Y-81007858D01*
X179348190Y-80983667D01*
X179396571Y-80959477D01*
X179469143Y-80959477D01*
X179517524Y-80983667D01*
X179541714Y-81007858D01*
X179565905Y-81056239D01*
X179565905Y-81249763D01*
X179299810Y-80790144D02*
X179299810Y-80475667D01*
X179493333Y-80645001D01*
X179493333Y-80572429D01*
X179517524Y-80524048D01*
X179541714Y-80499858D01*
X179590095Y-80475667D01*
X179711048Y-80475667D01*
X179759429Y-80499858D01*
X179783619Y-80524048D01*
X179807810Y-80572429D01*
X179807810Y-80717572D01*
X179783619Y-80765953D01*
X179759429Y-80790144D01*
X179299810Y-80161191D02*
X179299810Y-80112810D01*
X179324000Y-80064429D01*
X179348190Y-80040238D01*
X179396571Y-80016048D01*
X179493333Y-79991857D01*
X179614286Y-79991857D01*
X179711048Y-80016048D01*
X179759429Y-80040238D01*
X179783619Y-80064429D01*
X179807810Y-80112810D01*
X179807810Y-80161191D01*
X179783619Y-80209572D01*
X179759429Y-80233762D01*
X179711048Y-80257953D01*
X179614286Y-80282143D01*
X179493333Y-80282143D01*
X179396571Y-80257953D01*
X179348190Y-80233762D01*
X179324000Y-80209572D01*
X179299810Y-80161191D01*
X179517524Y-79701571D02*
X179493333Y-79749952D01*
X179469143Y-79774143D01*
X179420762Y-79798333D01*
X179396571Y-79798333D01*
X179348190Y-79774143D01*
X179324000Y-79749952D01*
X179299810Y-79701571D01*
X179299810Y-79604809D01*
X179324000Y-79556428D01*
X179348190Y-79532238D01*
X179396571Y-79508047D01*
X179420762Y-79508047D01*
X179469143Y-79532238D01*
X179493333Y-79556428D01*
X179517524Y-79604809D01*
X179517524Y-79701571D01*
X179541714Y-79749952D01*
X179565905Y-79774143D01*
X179614286Y-79798333D01*
X179711048Y-79798333D01*
X179759429Y-79774143D01*
X179783619Y-79749952D01*
X179807810Y-79701571D01*
X179807810Y-79604809D01*
X179783619Y-79556428D01*
X179759429Y-79532238D01*
X179711048Y-79508047D01*
X179614286Y-79508047D01*
X179565905Y-79532238D01*
X179541714Y-79556428D01*
X179517524Y-79604809D01*
X173829810Y-83968477D02*
X173587905Y-84137810D01*
X173829810Y-84258763D02*
X173321810Y-84258763D01*
X173321810Y-84065239D01*
X173346000Y-84016858D01*
X173370190Y-83992667D01*
X173418571Y-83968477D01*
X173491143Y-83968477D01*
X173539524Y-83992667D01*
X173563714Y-84016858D01*
X173587905Y-84065239D01*
X173587905Y-84258763D01*
X173321810Y-83799144D02*
X173321810Y-83484667D01*
X173515333Y-83654001D01*
X173515333Y-83581429D01*
X173539524Y-83533048D01*
X173563714Y-83508858D01*
X173612095Y-83484667D01*
X173733048Y-83484667D01*
X173781429Y-83508858D01*
X173805619Y-83533048D01*
X173829810Y-83581429D01*
X173829810Y-83726572D01*
X173805619Y-83774953D01*
X173781429Y-83799144D01*
X173829810Y-83000857D02*
X173829810Y-83291143D01*
X173829810Y-83146000D02*
X173321810Y-83146000D01*
X173394381Y-83194381D01*
X173442762Y-83242762D01*
X173466952Y-83291143D01*
X173321810Y-82686381D02*
X173321810Y-82638000D01*
X173346000Y-82589619D01*
X173370190Y-82565428D01*
X173418571Y-82541238D01*
X173515333Y-82517047D01*
X173636286Y-82517047D01*
X173733048Y-82541238D01*
X173781429Y-82565428D01*
X173805619Y-82589619D01*
X173829810Y-82638000D01*
X173829810Y-82686381D01*
X173805619Y-82734762D01*
X173781429Y-82758952D01*
X173733048Y-82783143D01*
X173636286Y-82807333D01*
X173515333Y-82807333D01*
X173418571Y-82783143D01*
X173370190Y-82758952D01*
X173346000Y-82734762D01*
X173321810Y-82686381D01*
X177150625Y-76175810D02*
X176981292Y-75933905D01*
X176860339Y-76175810D02*
X176860339Y-75667810D01*
X177053863Y-75667810D01*
X177102244Y-75692000D01*
X177126435Y-75716190D01*
X177150625Y-75764571D01*
X177150625Y-75837143D01*
X177126435Y-75885524D01*
X177102244Y-75909714D01*
X177053863Y-75933905D01*
X176860339Y-75933905D01*
X177319958Y-75667810D02*
X177634435Y-75667810D01*
X177465101Y-75861333D01*
X177537673Y-75861333D01*
X177586054Y-75885524D01*
X177610244Y-75909714D01*
X177634435Y-75958095D01*
X177634435Y-76079048D01*
X177610244Y-76127429D01*
X177586054Y-76151619D01*
X177537673Y-76175810D01*
X177392530Y-76175810D01*
X177344149Y-76151619D01*
X177319958Y-76127429D01*
X178118245Y-76175810D02*
X177827959Y-76175810D01*
X177973102Y-76175810D02*
X177973102Y-75667810D01*
X177924721Y-75740381D01*
X177876340Y-75788762D01*
X177827959Y-75812952D01*
X178602055Y-76175810D02*
X178311769Y-76175810D01*
X178456912Y-76175810D02*
X178456912Y-75667810D01*
X178408531Y-75740381D01*
X178360150Y-75788762D01*
X178311769Y-75812952D01*
X174629810Y-89968477D02*
X174387905Y-90137810D01*
X174629810Y-90258763D02*
X174121810Y-90258763D01*
X174121810Y-90065239D01*
X174146000Y-90016858D01*
X174170190Y-89992667D01*
X174218571Y-89968477D01*
X174291143Y-89968477D01*
X174339524Y-89992667D01*
X174363714Y-90016858D01*
X174387905Y-90065239D01*
X174387905Y-90258763D01*
X174121810Y-89799144D02*
X174121810Y-89484667D01*
X174315333Y-89654001D01*
X174315333Y-89581429D01*
X174339524Y-89533048D01*
X174363714Y-89508858D01*
X174412095Y-89484667D01*
X174533048Y-89484667D01*
X174581429Y-89508858D01*
X174605619Y-89533048D01*
X174629810Y-89581429D01*
X174629810Y-89726572D01*
X174605619Y-89774953D01*
X174581429Y-89799144D01*
X174629810Y-89000857D02*
X174629810Y-89291143D01*
X174629810Y-89146000D02*
X174121810Y-89146000D01*
X174194381Y-89194381D01*
X174242762Y-89242762D01*
X174266952Y-89291143D01*
X174170190Y-88807333D02*
X174146000Y-88783143D01*
X174121810Y-88734762D01*
X174121810Y-88613809D01*
X174146000Y-88565428D01*
X174170190Y-88541238D01*
X174218571Y-88517047D01*
X174266952Y-88517047D01*
X174339524Y-88541238D01*
X174629810Y-88831524D01*
X174629810Y-88517047D01*
X177775810Y-81975477D02*
X177533905Y-82144810D01*
X177775810Y-82265763D02*
X177267810Y-82265763D01*
X177267810Y-82072239D01*
X177292000Y-82023858D01*
X177316190Y-81999667D01*
X177364571Y-81975477D01*
X177437143Y-81975477D01*
X177485524Y-81999667D01*
X177509714Y-82023858D01*
X177533905Y-82072239D01*
X177533905Y-82265763D01*
X177267810Y-81806144D02*
X177267810Y-81491667D01*
X177461333Y-81661001D01*
X177461333Y-81588429D01*
X177485524Y-81540048D01*
X177509714Y-81515858D01*
X177558095Y-81491667D01*
X177679048Y-81491667D01*
X177727429Y-81515858D01*
X177751619Y-81540048D01*
X177775810Y-81588429D01*
X177775810Y-81733572D01*
X177751619Y-81781953D01*
X177727429Y-81806144D01*
X177775810Y-81007857D02*
X177775810Y-81298143D01*
X177775810Y-81153000D02*
X177267810Y-81153000D01*
X177340381Y-81201381D01*
X177388762Y-81249762D01*
X177412952Y-81298143D01*
X177267810Y-80838524D02*
X177267810Y-80524047D01*
X177461333Y-80693381D01*
X177461333Y-80620809D01*
X177485524Y-80572428D01*
X177509714Y-80548238D01*
X177558095Y-80524047D01*
X177679048Y-80524047D01*
X177727429Y-80548238D01*
X177751619Y-80572428D01*
X177775810Y-80620809D01*
X177775810Y-80765952D01*
X177751619Y-80814333D01*
X177727429Y-80838524D01*
X169321237Y-81489810D02*
X169321237Y-80981810D01*
X169514761Y-80981810D01*
X169563142Y-81006000D01*
X169587333Y-81030190D01*
X169611523Y-81078571D01*
X169611523Y-81151143D01*
X169587333Y-81199524D01*
X169563142Y-81223714D01*
X169514761Y-81247905D01*
X169321237Y-81247905D01*
X170046952Y-81151143D02*
X170046952Y-81489810D01*
X169925999Y-80957619D02*
X169805047Y-81320476D01*
X170119523Y-81320476D01*
X170409809Y-80981810D02*
X170458190Y-80981810D01*
X170506571Y-81006000D01*
X170530762Y-81030190D01*
X170554952Y-81078571D01*
X170579143Y-81175333D01*
X170579143Y-81296286D01*
X170554952Y-81393048D01*
X170530762Y-81441429D01*
X170506571Y-81465619D01*
X170458190Y-81489810D01*
X170409809Y-81489810D01*
X170361428Y-81465619D01*
X170337238Y-81441429D01*
X170313047Y-81393048D01*
X170288857Y-81296286D01*
X170288857Y-81175333D01*
X170313047Y-81078571D01*
X170337238Y-81030190D01*
X170361428Y-81006000D01*
X170409809Y-80981810D01*
X171014572Y-81151143D02*
X171014572Y-81489810D01*
X170893619Y-80957619D02*
X170772667Y-81320476D01*
X171087143Y-81320476D01*
X195138523Y-72873810D02*
X194969190Y-72631905D01*
X194848237Y-72873810D02*
X194848237Y-72365810D01*
X195041761Y-72365810D01*
X195090142Y-72390000D01*
X195114333Y-72414190D01*
X195138523Y-72462571D01*
X195138523Y-72535143D01*
X195114333Y-72583524D01*
X195090142Y-72607714D01*
X195041761Y-72631905D01*
X194848237Y-72631905D01*
X195307856Y-72365810D02*
X195622333Y-72365810D01*
X195452999Y-72559333D01*
X195525571Y-72559333D01*
X195573952Y-72583524D01*
X195598142Y-72607714D01*
X195622333Y-72656095D01*
X195622333Y-72777048D01*
X195598142Y-72825429D01*
X195573952Y-72849619D01*
X195525571Y-72873810D01*
X195380428Y-72873810D01*
X195332047Y-72849619D01*
X195307856Y-72825429D01*
X195815857Y-72414190D02*
X195840047Y-72390000D01*
X195888428Y-72365810D01*
X196009381Y-72365810D01*
X196057762Y-72390000D01*
X196081952Y-72414190D01*
X196106143Y-72462571D01*
X196106143Y-72510952D01*
X196081952Y-72583524D01*
X195791666Y-72873810D01*
X196106143Y-72873810D01*
X196275476Y-72365810D02*
X196589953Y-72365810D01*
X196420619Y-72559333D01*
X196493191Y-72559333D01*
X196541572Y-72583524D01*
X196565762Y-72607714D01*
X196589953Y-72656095D01*
X196589953Y-72777048D01*
X196565762Y-72825429D01*
X196541572Y-72849619D01*
X196493191Y-72873810D01*
X196348048Y-72873810D01*
X196299667Y-72849619D01*
X196275476Y-72825429D01*
X172786523Y-81010687D02*
X172762333Y-81034877D01*
X172689761Y-81059068D01*
X172641380Y-81059068D01*
X172568809Y-81034877D01*
X172520428Y-80986496D01*
X172496237Y-80938115D01*
X172472047Y-80841353D01*
X172472047Y-80768782D01*
X172496237Y-80672020D01*
X172520428Y-80623639D01*
X172568809Y-80575258D01*
X172641380Y-80551068D01*
X172689761Y-80551068D01*
X172762333Y-80575258D01*
X172786523Y-80599448D01*
X172955856Y-80551068D02*
X173270333Y-80551068D01*
X173100999Y-80744591D01*
X173173571Y-80744591D01*
X173221952Y-80768782D01*
X173246142Y-80792972D01*
X173270333Y-80841353D01*
X173270333Y-80962306D01*
X173246142Y-81010687D01*
X173221952Y-81034877D01*
X173173571Y-81059068D01*
X173028428Y-81059068D01*
X172980047Y-81034877D01*
X172955856Y-81010687D01*
X173463857Y-80599448D02*
X173488047Y-80575258D01*
X173536428Y-80551068D01*
X173657381Y-80551068D01*
X173705762Y-80575258D01*
X173729952Y-80599448D01*
X173754143Y-80647829D01*
X173754143Y-80696210D01*
X173729952Y-80768782D01*
X173439666Y-81059068D01*
X173754143Y-81059068D01*
X174068619Y-80551068D02*
X174117000Y-80551068D01*
X174165381Y-80575258D01*
X174189572Y-80599448D01*
X174213762Y-80647829D01*
X174237953Y-80744591D01*
X174237953Y-80865544D01*
X174213762Y-80962306D01*
X174189572Y-81010687D01*
X174165381Y-81034877D01*
X174117000Y-81059068D01*
X174068619Y-81059068D01*
X174020238Y-81034877D01*
X173996048Y-81010687D01*
X173971857Y-80962306D01*
X173947667Y-80865544D01*
X173947667Y-80744591D01*
X173971857Y-80647829D01*
X173996048Y-80599448D01*
X174020238Y-80575258D01*
X174068619Y-80551068D01*
X174781429Y-85068477D02*
X174805619Y-85092667D01*
X174829810Y-85165239D01*
X174829810Y-85213620D01*
X174805619Y-85286191D01*
X174757238Y-85334572D01*
X174708857Y-85358763D01*
X174612095Y-85382953D01*
X174539524Y-85382953D01*
X174442762Y-85358763D01*
X174394381Y-85334572D01*
X174346000Y-85286191D01*
X174321810Y-85213620D01*
X174321810Y-85165239D01*
X174346000Y-85092667D01*
X174370190Y-85068477D01*
X174321810Y-84899144D02*
X174321810Y-84584667D01*
X174515333Y-84754001D01*
X174515333Y-84681429D01*
X174539524Y-84633048D01*
X174563714Y-84608858D01*
X174612095Y-84584667D01*
X174733048Y-84584667D01*
X174781429Y-84608858D01*
X174805619Y-84633048D01*
X174829810Y-84681429D01*
X174829810Y-84826572D01*
X174805619Y-84874953D01*
X174781429Y-84899144D01*
X174370190Y-84391143D02*
X174346000Y-84366953D01*
X174321810Y-84318572D01*
X174321810Y-84197619D01*
X174346000Y-84149238D01*
X174370190Y-84125048D01*
X174418571Y-84100857D01*
X174466952Y-84100857D01*
X174539524Y-84125048D01*
X174829810Y-84415334D01*
X174829810Y-84100857D01*
X174829810Y-83617047D02*
X174829810Y-83907333D01*
X174829810Y-83762190D02*
X174321810Y-83762190D01*
X174394381Y-83810571D01*
X174442762Y-83858952D01*
X174466952Y-83907333D01*
X206831523Y-86481429D02*
X206807333Y-86505619D01*
X206734761Y-86529810D01*
X206686380Y-86529810D01*
X206613809Y-86505619D01*
X206565428Y-86457238D01*
X206541237Y-86408857D01*
X206517047Y-86312095D01*
X206517047Y-86239524D01*
X206541237Y-86142762D01*
X206565428Y-86094381D01*
X206613809Y-86046000D01*
X206686380Y-86021810D01*
X206734761Y-86021810D01*
X206807333Y-86046000D01*
X206831523Y-86070190D01*
X207025047Y-86070190D02*
X207049237Y-86046000D01*
X207097618Y-86021810D01*
X207218571Y-86021810D01*
X207266952Y-86046000D01*
X207291142Y-86070190D01*
X207315333Y-86118571D01*
X207315333Y-86166952D01*
X207291142Y-86239524D01*
X207000856Y-86529810D01*
X207315333Y-86529810D01*
X207799143Y-86529810D02*
X207508857Y-86529810D01*
X207654000Y-86529810D02*
X207654000Y-86021810D01*
X207605619Y-86094381D01*
X207557238Y-86142762D01*
X207508857Y-86166952D01*
X208282953Y-86529810D02*
X207992667Y-86529810D01*
X208137810Y-86529810D02*
X208137810Y-86021810D01*
X208089429Y-86094381D01*
X208041048Y-86142762D01*
X207992667Y-86166952D01*
X207931523Y-84729810D02*
X207762190Y-84487905D01*
X207641237Y-84729810D02*
X207641237Y-84221810D01*
X207834761Y-84221810D01*
X207883142Y-84246000D01*
X207907333Y-84270190D01*
X207931523Y-84318571D01*
X207931523Y-84391143D01*
X207907333Y-84439524D01*
X207883142Y-84463714D01*
X207834761Y-84487905D01*
X207641237Y-84487905D01*
X208125047Y-84270190D02*
X208149237Y-84246000D01*
X208197618Y-84221810D01*
X208318571Y-84221810D01*
X208366952Y-84246000D01*
X208391142Y-84270190D01*
X208415333Y-84318571D01*
X208415333Y-84366952D01*
X208391142Y-84439524D01*
X208100856Y-84729810D01*
X208415333Y-84729810D01*
X208729809Y-84221810D02*
X208778190Y-84221810D01*
X208826571Y-84246000D01*
X208850762Y-84270190D01*
X208874952Y-84318571D01*
X208899143Y-84415333D01*
X208899143Y-84536286D01*
X208874952Y-84633048D01*
X208850762Y-84681429D01*
X208826571Y-84705619D01*
X208778190Y-84729810D01*
X208729809Y-84729810D01*
X208681428Y-84705619D01*
X208657238Y-84681429D01*
X208633047Y-84633048D01*
X208608857Y-84536286D01*
X208608857Y-84415333D01*
X208633047Y-84318571D01*
X208657238Y-84270190D01*
X208681428Y-84246000D01*
X208729809Y-84221810D01*
X209092667Y-84270190D02*
X209116857Y-84246000D01*
X209165238Y-84221810D01*
X209286191Y-84221810D01*
X209334572Y-84246000D01*
X209358762Y-84270190D01*
X209382953Y-84318571D01*
X209382953Y-84366952D01*
X209358762Y-84439524D01*
X209068476Y-84729810D01*
X209382953Y-84729810D01*
X212156523Y-82017810D02*
X211987190Y-81775905D01*
X211866237Y-82017810D02*
X211866237Y-81509810D01*
X212059761Y-81509810D01*
X212108142Y-81534000D01*
X212132333Y-81558190D01*
X212156523Y-81606571D01*
X212156523Y-81679143D01*
X212132333Y-81727524D01*
X212108142Y-81751714D01*
X212059761Y-81775905D01*
X211866237Y-81775905D01*
X212350047Y-81558190D02*
X212374237Y-81534000D01*
X212422618Y-81509810D01*
X212543571Y-81509810D01*
X212591952Y-81534000D01*
X212616142Y-81558190D01*
X212640333Y-81606571D01*
X212640333Y-81654952D01*
X212616142Y-81727524D01*
X212325856Y-82017810D01*
X212640333Y-82017810D01*
X212954809Y-81509810D02*
X213003190Y-81509810D01*
X213051571Y-81534000D01*
X213075762Y-81558190D01*
X213099952Y-81606571D01*
X213124143Y-81703333D01*
X213124143Y-81824286D01*
X213099952Y-81921048D01*
X213075762Y-81969429D01*
X213051571Y-81993619D01*
X213003190Y-82017810D01*
X212954809Y-82017810D01*
X212906428Y-81993619D01*
X212882238Y-81969429D01*
X212858047Y-81921048D01*
X212833857Y-81824286D01*
X212833857Y-81703333D01*
X212858047Y-81606571D01*
X212882238Y-81558190D01*
X212906428Y-81534000D01*
X212954809Y-81509810D01*
X213414429Y-81727524D02*
X213366048Y-81703333D01*
X213341857Y-81679143D01*
X213317667Y-81630762D01*
X213317667Y-81606571D01*
X213341857Y-81558190D01*
X213366048Y-81534000D01*
X213414429Y-81509810D01*
X213511191Y-81509810D01*
X213559572Y-81534000D01*
X213583762Y-81558190D01*
X213607953Y-81606571D01*
X213607953Y-81630762D01*
X213583762Y-81679143D01*
X213559572Y-81703333D01*
X213511191Y-81727524D01*
X213414429Y-81727524D01*
X213366048Y-81751714D01*
X213341857Y-81775905D01*
X213317667Y-81824286D01*
X213317667Y-81921048D01*
X213341857Y-81969429D01*
X213366048Y-81993619D01*
X213414429Y-82017810D01*
X213511191Y-82017810D01*
X213559572Y-81993619D01*
X213583762Y-81969429D01*
X213607953Y-81921048D01*
X213607953Y-81824286D01*
X213583762Y-81775905D01*
X213559572Y-81751714D01*
X213511191Y-81727524D01*
X211394523Y-80747810D02*
X211225190Y-80505905D01*
X211104237Y-80747810D02*
X211104237Y-80239810D01*
X211297761Y-80239810D01*
X211346142Y-80264000D01*
X211370333Y-80288190D01*
X211394523Y-80336571D01*
X211394523Y-80409143D01*
X211370333Y-80457524D01*
X211346142Y-80481714D01*
X211297761Y-80505905D01*
X211104237Y-80505905D01*
X211588047Y-80288190D02*
X211612237Y-80264000D01*
X211660618Y-80239810D01*
X211781571Y-80239810D01*
X211829952Y-80264000D01*
X211854142Y-80288190D01*
X211878333Y-80336571D01*
X211878333Y-80384952D01*
X211854142Y-80457524D01*
X211563856Y-80747810D01*
X211878333Y-80747810D01*
X212362143Y-80747810D02*
X212071857Y-80747810D01*
X212217000Y-80747810D02*
X212217000Y-80239810D01*
X212168619Y-80312381D01*
X212120238Y-80360762D01*
X212071857Y-80384952D01*
X212676619Y-80239810D02*
X212725000Y-80239810D01*
X212773381Y-80264000D01*
X212797572Y-80288190D01*
X212821762Y-80336571D01*
X212845953Y-80433333D01*
X212845953Y-80554286D01*
X212821762Y-80651048D01*
X212797572Y-80699429D01*
X212773381Y-80723619D01*
X212725000Y-80747810D01*
X212676619Y-80747810D01*
X212628238Y-80723619D01*
X212604048Y-80699429D01*
X212579857Y-80651048D01*
X212555667Y-80554286D01*
X212555667Y-80433333D01*
X212579857Y-80336571D01*
X212604048Y-80288190D01*
X212628238Y-80264000D01*
X212676619Y-80239810D01*
X206774142Y-78080810D02*
X206774142Y-78492048D01*
X206798333Y-78540429D01*
X206822523Y-78564619D01*
X206870904Y-78588810D01*
X206967666Y-78588810D01*
X207016047Y-78564619D01*
X207040238Y-78540429D01*
X207064428Y-78492048D01*
X207064428Y-78080810D01*
X207282142Y-78129190D02*
X207306332Y-78105000D01*
X207354713Y-78080810D01*
X207475666Y-78080810D01*
X207524047Y-78105000D01*
X207548237Y-78129190D01*
X207572428Y-78177571D01*
X207572428Y-78225952D01*
X207548237Y-78298524D01*
X207257951Y-78588810D01*
X207572428Y-78588810D01*
X207886904Y-78080810D02*
X207935285Y-78080810D01*
X207983666Y-78105000D01*
X208007857Y-78129190D01*
X208032047Y-78177571D01*
X208056238Y-78274333D01*
X208056238Y-78395286D01*
X208032047Y-78492048D01*
X208007857Y-78540429D01*
X207983666Y-78564619D01*
X207935285Y-78588810D01*
X207886904Y-78588810D01*
X207838523Y-78564619D01*
X207814333Y-78540429D01*
X207790142Y-78492048D01*
X207765952Y-78395286D01*
X207765952Y-78274333D01*
X207790142Y-78177571D01*
X207814333Y-78129190D01*
X207838523Y-78105000D01*
X207886904Y-78080810D01*
X208249762Y-78129190D02*
X208273952Y-78105000D01*
X208322333Y-78080810D01*
X208443286Y-78080810D01*
X208491667Y-78105000D01*
X208515857Y-78129190D01*
X208540048Y-78177571D01*
X208540048Y-78225952D01*
X208515857Y-78298524D01*
X208225571Y-78588810D01*
X208540048Y-78588810D01*
X212235142Y-91415810D02*
X212235142Y-91827048D01*
X212259333Y-91875429D01*
X212283523Y-91899619D01*
X212331904Y-91923810D01*
X212428666Y-91923810D01*
X212477047Y-91899619D01*
X212501238Y-91875429D01*
X212525428Y-91827048D01*
X212525428Y-91415810D01*
X212743142Y-91464190D02*
X212767332Y-91440000D01*
X212815713Y-91415810D01*
X212936666Y-91415810D01*
X212985047Y-91440000D01*
X213009237Y-91464190D01*
X213033428Y-91512571D01*
X213033428Y-91560952D01*
X213009237Y-91633524D01*
X212718951Y-91923810D01*
X213033428Y-91923810D01*
X213347904Y-91415810D02*
X213396285Y-91415810D01*
X213444666Y-91440000D01*
X213468857Y-91464190D01*
X213493047Y-91512571D01*
X213517238Y-91609333D01*
X213517238Y-91730286D01*
X213493047Y-91827048D01*
X213468857Y-91875429D01*
X213444666Y-91899619D01*
X213396285Y-91923810D01*
X213347904Y-91923810D01*
X213299523Y-91899619D01*
X213275333Y-91875429D01*
X213251142Y-91827048D01*
X213226952Y-91730286D01*
X213226952Y-91609333D01*
X213251142Y-91512571D01*
X213275333Y-91464190D01*
X213299523Y-91440000D01*
X213347904Y-91415810D01*
X213686571Y-91415810D02*
X214001048Y-91415810D01*
X213831714Y-91609333D01*
X213904286Y-91609333D01*
X213952667Y-91633524D01*
X213976857Y-91657714D01*
X214001048Y-91706095D01*
X214001048Y-91827048D01*
X213976857Y-91875429D01*
X213952667Y-91899619D01*
X213904286Y-91923810D01*
X213759143Y-91923810D01*
X213710762Y-91899619D01*
X213686571Y-91875429D01*
X208931523Y-77651429D02*
X208907333Y-77675619D01*
X208834761Y-77699810D01*
X208786380Y-77699810D01*
X208713809Y-77675619D01*
X208665428Y-77627238D01*
X208641237Y-77578857D01*
X208617047Y-77482095D01*
X208617047Y-77409524D01*
X208641237Y-77312762D01*
X208665428Y-77264381D01*
X208713809Y-77216000D01*
X208786380Y-77191810D01*
X208834761Y-77191810D01*
X208907333Y-77216000D01*
X208931523Y-77240190D01*
X209125047Y-77240190D02*
X209149237Y-77216000D01*
X209197618Y-77191810D01*
X209318571Y-77191810D01*
X209366952Y-77216000D01*
X209391142Y-77240190D01*
X209415333Y-77288571D01*
X209415333Y-77336952D01*
X209391142Y-77409524D01*
X209100856Y-77699810D01*
X209415333Y-77699810D01*
X209899143Y-77699810D02*
X209608857Y-77699810D01*
X209754000Y-77699810D02*
X209754000Y-77191810D01*
X209705619Y-77264381D01*
X209657238Y-77312762D01*
X209608857Y-77336952D01*
X210092667Y-77240190D02*
X210116857Y-77216000D01*
X210165238Y-77191810D01*
X210286191Y-77191810D01*
X210334572Y-77216000D01*
X210358762Y-77240190D01*
X210382953Y-77288571D01*
X210382953Y-77336952D01*
X210358762Y-77409524D01*
X210068476Y-77699810D01*
X210382953Y-77699810D01*
X215481523Y-93129810D02*
X215312190Y-92887905D01*
X215191237Y-93129810D02*
X215191237Y-92621810D01*
X215384761Y-92621810D01*
X215433142Y-92646000D01*
X215457333Y-92670190D01*
X215481523Y-92718571D01*
X215481523Y-92791143D01*
X215457333Y-92839524D01*
X215433142Y-92863714D01*
X215384761Y-92887905D01*
X215191237Y-92887905D01*
X215675047Y-92670190D02*
X215699237Y-92646000D01*
X215747618Y-92621810D01*
X215868571Y-92621810D01*
X215916952Y-92646000D01*
X215941142Y-92670190D01*
X215965333Y-92718571D01*
X215965333Y-92766952D01*
X215941142Y-92839524D01*
X215650856Y-93129810D01*
X215965333Y-93129810D01*
X216449143Y-93129810D02*
X216158857Y-93129810D01*
X216304000Y-93129810D02*
X216304000Y-92621810D01*
X216255619Y-92694381D01*
X216207238Y-92742762D01*
X216158857Y-92766952D01*
X216932953Y-93129810D02*
X216642667Y-93129810D01*
X216787810Y-93129810D02*
X216787810Y-92621810D01*
X216739429Y-92694381D01*
X216691048Y-92742762D01*
X216642667Y-92766952D01*
X208031523Y-91979810D02*
X207862190Y-91737905D01*
X207741237Y-91979810D02*
X207741237Y-91471810D01*
X207934761Y-91471810D01*
X207983142Y-91496000D01*
X208007333Y-91520190D01*
X208031523Y-91568571D01*
X208031523Y-91641143D01*
X208007333Y-91689524D01*
X207983142Y-91713714D01*
X207934761Y-91737905D01*
X207741237Y-91737905D01*
X208225047Y-91520190D02*
X208249237Y-91496000D01*
X208297618Y-91471810D01*
X208418571Y-91471810D01*
X208466952Y-91496000D01*
X208491142Y-91520190D01*
X208515333Y-91568571D01*
X208515333Y-91616952D01*
X208491142Y-91689524D01*
X208200856Y-91979810D01*
X208515333Y-91979810D01*
X208999143Y-91979810D02*
X208708857Y-91979810D01*
X208854000Y-91979810D02*
X208854000Y-91471810D01*
X208805619Y-91544381D01*
X208757238Y-91592762D01*
X208708857Y-91616952D01*
X209192667Y-91520190D02*
X209216857Y-91496000D01*
X209265238Y-91471810D01*
X209386191Y-91471810D01*
X209434572Y-91496000D01*
X209458762Y-91520190D01*
X209482953Y-91568571D01*
X209482953Y-91616952D01*
X209458762Y-91689524D01*
X209168476Y-91979810D01*
X209482953Y-91979810D01*
X189329810Y-90068477D02*
X189087905Y-90237810D01*
X189329810Y-90358763D02*
X188821810Y-90358763D01*
X188821810Y-90165239D01*
X188846000Y-90116858D01*
X188870190Y-90092667D01*
X188918571Y-90068477D01*
X188991143Y-90068477D01*
X189039524Y-90092667D01*
X189063714Y-90116858D01*
X189087905Y-90165239D01*
X189087905Y-90358763D01*
X188821810Y-89899144D02*
X188821810Y-89584667D01*
X189015333Y-89754001D01*
X189015333Y-89681429D01*
X189039524Y-89633048D01*
X189063714Y-89608858D01*
X189112095Y-89584667D01*
X189233048Y-89584667D01*
X189281429Y-89608858D01*
X189305619Y-89633048D01*
X189329810Y-89681429D01*
X189329810Y-89826572D01*
X189305619Y-89874953D01*
X189281429Y-89899144D01*
X188870190Y-89391143D02*
X188846000Y-89366953D01*
X188821810Y-89318572D01*
X188821810Y-89197619D01*
X188846000Y-89149238D01*
X188870190Y-89125048D01*
X188918571Y-89100857D01*
X188966952Y-89100857D01*
X189039524Y-89125048D01*
X189329810Y-89415334D01*
X189329810Y-89100857D01*
X188991143Y-88665428D02*
X189329810Y-88665428D01*
X188797619Y-88786381D02*
X189160476Y-88907333D01*
X189160476Y-88592857D01*
X190331523Y-86981429D02*
X190307333Y-87005619D01*
X190234761Y-87029810D01*
X190186380Y-87029810D01*
X190113809Y-87005619D01*
X190065428Y-86957238D01*
X190041237Y-86908857D01*
X190017047Y-86812095D01*
X190017047Y-86739524D01*
X190041237Y-86642762D01*
X190065428Y-86594381D01*
X190113809Y-86546000D01*
X190186380Y-86521810D01*
X190234761Y-86521810D01*
X190307333Y-86546000D01*
X190331523Y-86570190D01*
X190500856Y-86521810D02*
X190815333Y-86521810D01*
X190645999Y-86715333D01*
X190718571Y-86715333D01*
X190766952Y-86739524D01*
X190791142Y-86763714D01*
X190815333Y-86812095D01*
X190815333Y-86933048D01*
X190791142Y-86981429D01*
X190766952Y-87005619D01*
X190718571Y-87029810D01*
X190573428Y-87029810D01*
X190525047Y-87005619D01*
X190500856Y-86981429D01*
X191008857Y-86570190D02*
X191033047Y-86546000D01*
X191081428Y-86521810D01*
X191202381Y-86521810D01*
X191250762Y-86546000D01*
X191274952Y-86570190D01*
X191299143Y-86618571D01*
X191299143Y-86666952D01*
X191274952Y-86739524D01*
X190984666Y-87029810D01*
X191299143Y-87029810D01*
X191492667Y-86570190D02*
X191516857Y-86546000D01*
X191565238Y-86521810D01*
X191686191Y-86521810D01*
X191734572Y-86546000D01*
X191758762Y-86570190D01*
X191782953Y-86618571D01*
X191782953Y-86666952D01*
X191758762Y-86739524D01*
X191468476Y-87029810D01*
X191782953Y-87029810D01*
X201059142Y-87605810D02*
X201059142Y-88017048D01*
X201083333Y-88065429D01*
X201107523Y-88089619D01*
X201155904Y-88113810D01*
X201252666Y-88113810D01*
X201301047Y-88089619D01*
X201325238Y-88065429D01*
X201349428Y-88017048D01*
X201349428Y-87605810D01*
X201542951Y-87605810D02*
X201857428Y-87605810D01*
X201688094Y-87799333D01*
X201760666Y-87799333D01*
X201809047Y-87823524D01*
X201833237Y-87847714D01*
X201857428Y-87896095D01*
X201857428Y-88017048D01*
X201833237Y-88065429D01*
X201809047Y-88089619D01*
X201760666Y-88113810D01*
X201615523Y-88113810D01*
X201567142Y-88089619D01*
X201542951Y-88065429D01*
X202171904Y-87605810D02*
X202220285Y-87605810D01*
X202268666Y-87630000D01*
X202292857Y-87654190D01*
X202317047Y-87702571D01*
X202341238Y-87799333D01*
X202341238Y-87920286D01*
X202317047Y-88017048D01*
X202292857Y-88065429D01*
X202268666Y-88089619D01*
X202220285Y-88113810D01*
X202171904Y-88113810D01*
X202123523Y-88089619D01*
X202099333Y-88065429D01*
X202075142Y-88017048D01*
X202050952Y-87920286D01*
X202050952Y-87799333D01*
X202075142Y-87702571D01*
X202099333Y-87654190D01*
X202123523Y-87630000D01*
X202171904Y-87605810D01*
X202510571Y-87605810D02*
X202825048Y-87605810D01*
X202655714Y-87799333D01*
X202728286Y-87799333D01*
X202776667Y-87823524D01*
X202800857Y-87847714D01*
X202825048Y-87896095D01*
X202825048Y-88017048D01*
X202800857Y-88065429D01*
X202776667Y-88089619D01*
X202728286Y-88113810D01*
X202583143Y-88113810D01*
X202534762Y-88089619D01*
X202510571Y-88065429D01*
X185881429Y-82868477D02*
X185905619Y-82892667D01*
X185929810Y-82965239D01*
X185929810Y-83013620D01*
X185905619Y-83086191D01*
X185857238Y-83134572D01*
X185808857Y-83158763D01*
X185712095Y-83182953D01*
X185639524Y-83182953D01*
X185542762Y-83158763D01*
X185494381Y-83134572D01*
X185446000Y-83086191D01*
X185421810Y-83013620D01*
X185421810Y-82965239D01*
X185446000Y-82892667D01*
X185470190Y-82868477D01*
X185421810Y-82699144D02*
X185421810Y-82384667D01*
X185615333Y-82554001D01*
X185615333Y-82481429D01*
X185639524Y-82433048D01*
X185663714Y-82408858D01*
X185712095Y-82384667D01*
X185833048Y-82384667D01*
X185881429Y-82408858D01*
X185905619Y-82433048D01*
X185929810Y-82481429D01*
X185929810Y-82626572D01*
X185905619Y-82674953D01*
X185881429Y-82699144D01*
X185470190Y-82191143D02*
X185446000Y-82166953D01*
X185421810Y-82118572D01*
X185421810Y-81997619D01*
X185446000Y-81949238D01*
X185470190Y-81925048D01*
X185518571Y-81900857D01*
X185566952Y-81900857D01*
X185639524Y-81925048D01*
X185929810Y-82215334D01*
X185929810Y-81900857D01*
X185421810Y-81731524D02*
X185421810Y-81417047D01*
X185615333Y-81586381D01*
X185615333Y-81513809D01*
X185639524Y-81465428D01*
X185663714Y-81441238D01*
X185712095Y-81417047D01*
X185833048Y-81417047D01*
X185881429Y-81441238D01*
X185905619Y-81465428D01*
X185929810Y-81513809D01*
X185929810Y-81658952D01*
X185905619Y-81707333D01*
X185881429Y-81731524D01*
X186781429Y-86968477D02*
X186805619Y-86992667D01*
X186829810Y-87065239D01*
X186829810Y-87113620D01*
X186805619Y-87186191D01*
X186757238Y-87234572D01*
X186708857Y-87258763D01*
X186612095Y-87282953D01*
X186539524Y-87282953D01*
X186442762Y-87258763D01*
X186394381Y-87234572D01*
X186346000Y-87186191D01*
X186321810Y-87113620D01*
X186321810Y-87065239D01*
X186346000Y-86992667D01*
X186370190Y-86968477D01*
X186321810Y-86799144D02*
X186321810Y-86484667D01*
X186515333Y-86654001D01*
X186515333Y-86581429D01*
X186539524Y-86533048D01*
X186563714Y-86508858D01*
X186612095Y-86484667D01*
X186733048Y-86484667D01*
X186781429Y-86508858D01*
X186805619Y-86533048D01*
X186829810Y-86581429D01*
X186829810Y-86726572D01*
X186805619Y-86774953D01*
X186781429Y-86799144D01*
X186370190Y-86291143D02*
X186346000Y-86266953D01*
X186321810Y-86218572D01*
X186321810Y-86097619D01*
X186346000Y-86049238D01*
X186370190Y-86025048D01*
X186418571Y-86000857D01*
X186466952Y-86000857D01*
X186539524Y-86025048D01*
X186829810Y-86315334D01*
X186829810Y-86000857D01*
X186491143Y-85565428D02*
X186829810Y-85565428D01*
X186297619Y-85686381D02*
X186660476Y-85807333D01*
X186660476Y-85492857D01*
X184729810Y-84868477D02*
X184487905Y-85037810D01*
X184729810Y-85158763D02*
X184221810Y-85158763D01*
X184221810Y-84965239D01*
X184246000Y-84916858D01*
X184270190Y-84892667D01*
X184318571Y-84868477D01*
X184391143Y-84868477D01*
X184439524Y-84892667D01*
X184463714Y-84916858D01*
X184487905Y-84965239D01*
X184487905Y-85158763D01*
X184221810Y-84699144D02*
X184221810Y-84384667D01*
X184415333Y-84554001D01*
X184415333Y-84481429D01*
X184439524Y-84433048D01*
X184463714Y-84408858D01*
X184512095Y-84384667D01*
X184633048Y-84384667D01*
X184681429Y-84408858D01*
X184705619Y-84433048D01*
X184729810Y-84481429D01*
X184729810Y-84626572D01*
X184705619Y-84674953D01*
X184681429Y-84699144D01*
X184270190Y-84191143D02*
X184246000Y-84166953D01*
X184221810Y-84118572D01*
X184221810Y-83997619D01*
X184246000Y-83949238D01*
X184270190Y-83925048D01*
X184318571Y-83900857D01*
X184366952Y-83900857D01*
X184439524Y-83925048D01*
X184729810Y-84215334D01*
X184729810Y-83900857D01*
X184221810Y-83441238D02*
X184221810Y-83683143D01*
X184463714Y-83707333D01*
X184439524Y-83683143D01*
X184415333Y-83634762D01*
X184415333Y-83513809D01*
X184439524Y-83465428D01*
X184463714Y-83441238D01*
X184512095Y-83417047D01*
X184633048Y-83417047D01*
X184681429Y-83441238D01*
X184705619Y-83465428D01*
X184729810Y-83513809D01*
X184729810Y-83634762D01*
X184705619Y-83683143D01*
X184681429Y-83707333D01*
X184531523Y-87429810D02*
X184362190Y-87187905D01*
X184241237Y-87429810D02*
X184241237Y-86921810D01*
X184434761Y-86921810D01*
X184483142Y-86946000D01*
X184507333Y-86970190D01*
X184531523Y-87018571D01*
X184531523Y-87091143D01*
X184507333Y-87139524D01*
X184483142Y-87163714D01*
X184434761Y-87187905D01*
X184241237Y-87187905D01*
X184700856Y-86921810D02*
X185015333Y-86921810D01*
X184845999Y-87115333D01*
X184918571Y-87115333D01*
X184966952Y-87139524D01*
X184991142Y-87163714D01*
X185015333Y-87212095D01*
X185015333Y-87333048D01*
X184991142Y-87381429D01*
X184966952Y-87405619D01*
X184918571Y-87429810D01*
X184773428Y-87429810D01*
X184725047Y-87405619D01*
X184700856Y-87381429D01*
X185208857Y-86970190D02*
X185233047Y-86946000D01*
X185281428Y-86921810D01*
X185402381Y-86921810D01*
X185450762Y-86946000D01*
X185474952Y-86970190D01*
X185499143Y-87018571D01*
X185499143Y-87066952D01*
X185474952Y-87139524D01*
X185184666Y-87429810D01*
X185499143Y-87429810D01*
X185934572Y-86921810D02*
X185837810Y-86921810D01*
X185789429Y-86946000D01*
X185765238Y-86970190D01*
X185716857Y-87042762D01*
X185692667Y-87139524D01*
X185692667Y-87333048D01*
X185716857Y-87381429D01*
X185741048Y-87405619D01*
X185789429Y-87429810D01*
X185886191Y-87429810D01*
X185934572Y-87405619D01*
X185958762Y-87381429D01*
X185982953Y-87333048D01*
X185982953Y-87212095D01*
X185958762Y-87163714D01*
X185934572Y-87139524D01*
X185886191Y-87115333D01*
X185789429Y-87115333D01*
X185741048Y-87139524D01*
X185716857Y-87163714D01*
X185692667Y-87212095D01*
X172231523Y-88029810D02*
X172062190Y-87787905D01*
X171941237Y-88029810D02*
X171941237Y-87521810D01*
X172134761Y-87521810D01*
X172183142Y-87546000D01*
X172207333Y-87570190D01*
X172231523Y-87618571D01*
X172231523Y-87691143D01*
X172207333Y-87739524D01*
X172183142Y-87763714D01*
X172134761Y-87787905D01*
X171941237Y-87787905D01*
X172400856Y-87521810D02*
X172715333Y-87521810D01*
X172545999Y-87715333D01*
X172618571Y-87715333D01*
X172666952Y-87739524D01*
X172691142Y-87763714D01*
X172715333Y-87812095D01*
X172715333Y-87933048D01*
X172691142Y-87981429D01*
X172666952Y-88005619D01*
X172618571Y-88029810D01*
X172473428Y-88029810D01*
X172425047Y-88005619D01*
X172400856Y-87981429D01*
X172908857Y-87570190D02*
X172933047Y-87546000D01*
X172981428Y-87521810D01*
X173102381Y-87521810D01*
X173150762Y-87546000D01*
X173174952Y-87570190D01*
X173199143Y-87618571D01*
X173199143Y-87666952D01*
X173174952Y-87739524D01*
X172884666Y-88029810D01*
X173199143Y-88029810D01*
X173368476Y-87521810D02*
X173707143Y-87521810D01*
X173489429Y-88029810D01*
X177629142Y-89461810D02*
X177629142Y-89873048D01*
X177653333Y-89921429D01*
X177677523Y-89945619D01*
X177725904Y-89969810D01*
X177822666Y-89969810D01*
X177871047Y-89945619D01*
X177895238Y-89921429D01*
X177919428Y-89873048D01*
X177919428Y-89461810D01*
X178112951Y-89461810D02*
X178427428Y-89461810D01*
X178258094Y-89655333D01*
X178330666Y-89655333D01*
X178379047Y-89679524D01*
X178403237Y-89703714D01*
X178427428Y-89752095D01*
X178427428Y-89873048D01*
X178403237Y-89921429D01*
X178379047Y-89945619D01*
X178330666Y-89969810D01*
X178185523Y-89969810D01*
X178137142Y-89945619D01*
X178112951Y-89921429D01*
X178741904Y-89461810D02*
X178790285Y-89461810D01*
X178838666Y-89486000D01*
X178862857Y-89510190D01*
X178887047Y-89558571D01*
X178911238Y-89655333D01*
X178911238Y-89776286D01*
X178887047Y-89873048D01*
X178862857Y-89921429D01*
X178838666Y-89945619D01*
X178790285Y-89969810D01*
X178741904Y-89969810D01*
X178693523Y-89945619D01*
X178669333Y-89921429D01*
X178645142Y-89873048D01*
X178620952Y-89776286D01*
X178620952Y-89655333D01*
X178645142Y-89558571D01*
X178669333Y-89510190D01*
X178693523Y-89486000D01*
X178741904Y-89461810D01*
X179104762Y-89510190D02*
X179128952Y-89486000D01*
X179177333Y-89461810D01*
X179298286Y-89461810D01*
X179346667Y-89486000D01*
X179370857Y-89510190D01*
X179395048Y-89558571D01*
X179395048Y-89606952D01*
X179370857Y-89679524D01*
X179080571Y-89969810D01*
X179395048Y-89969810D01*
X178031523Y-87229810D02*
X177862190Y-86987905D01*
X177741237Y-87229810D02*
X177741237Y-86721810D01*
X177934761Y-86721810D01*
X177983142Y-86746000D01*
X178007333Y-86770190D01*
X178031523Y-86818571D01*
X178031523Y-86891143D01*
X178007333Y-86939524D01*
X177983142Y-86963714D01*
X177934761Y-86987905D01*
X177741237Y-86987905D01*
X178200856Y-86721810D02*
X178515333Y-86721810D01*
X178345999Y-86915333D01*
X178418571Y-86915333D01*
X178466952Y-86939524D01*
X178491142Y-86963714D01*
X178515333Y-87012095D01*
X178515333Y-87133048D01*
X178491142Y-87181429D01*
X178466952Y-87205619D01*
X178418571Y-87229810D01*
X178273428Y-87229810D01*
X178225047Y-87205619D01*
X178200856Y-87181429D01*
X178829809Y-86721810D02*
X178878190Y-86721810D01*
X178926571Y-86746000D01*
X178950762Y-86770190D01*
X178974952Y-86818571D01*
X178999143Y-86915333D01*
X178999143Y-87036286D01*
X178974952Y-87133048D01*
X178950762Y-87181429D01*
X178926571Y-87205619D01*
X178878190Y-87229810D01*
X178829809Y-87229810D01*
X178781428Y-87205619D01*
X178757238Y-87181429D01*
X178733047Y-87133048D01*
X178708857Y-87036286D01*
X178708857Y-86915333D01*
X178733047Y-86818571D01*
X178757238Y-86770190D01*
X178781428Y-86746000D01*
X178829809Y-86721810D01*
X179241048Y-87229810D02*
X179337810Y-87229810D01*
X179386191Y-87205619D01*
X179410381Y-87181429D01*
X179458762Y-87108857D01*
X179482953Y-87012095D01*
X179482953Y-86818571D01*
X179458762Y-86770190D01*
X179434572Y-86746000D01*
X179386191Y-86721810D01*
X179289429Y-86721810D01*
X179241048Y-86746000D01*
X179216857Y-86770190D01*
X179192667Y-86818571D01*
X179192667Y-86939524D01*
X179216857Y-86987905D01*
X179241048Y-87012095D01*
X179289429Y-87036286D01*
X179386191Y-87036286D01*
X179434572Y-87012095D01*
X179458762Y-86987905D01*
X179482953Y-86939524D01*
X178131523Y-88729810D02*
X177962190Y-88487905D01*
X177841237Y-88729810D02*
X177841237Y-88221810D01*
X178034761Y-88221810D01*
X178083142Y-88246000D01*
X178107333Y-88270190D01*
X178131523Y-88318571D01*
X178131523Y-88391143D01*
X178107333Y-88439524D01*
X178083142Y-88463714D01*
X178034761Y-88487905D01*
X177841237Y-88487905D01*
X178300856Y-88221810D02*
X178615333Y-88221810D01*
X178445999Y-88415333D01*
X178518571Y-88415333D01*
X178566952Y-88439524D01*
X178591142Y-88463714D01*
X178615333Y-88512095D01*
X178615333Y-88633048D01*
X178591142Y-88681429D01*
X178566952Y-88705619D01*
X178518571Y-88729810D01*
X178373428Y-88729810D01*
X178325047Y-88705619D01*
X178300856Y-88681429D01*
X179099143Y-88729810D02*
X178808857Y-88729810D01*
X178954000Y-88729810D02*
X178954000Y-88221810D01*
X178905619Y-88294381D01*
X178857238Y-88342762D01*
X178808857Y-88366952D01*
X179534572Y-88391143D02*
X179534572Y-88729810D01*
X179413619Y-88197619D02*
X179292667Y-88560476D01*
X179607143Y-88560476D01*
%LPC*%
D14*
X206900000Y-83200000D03*
X205400000Y-83200000D03*
D15*
X197100000Y-82950000D03*
X197100000Y-81850000D03*
D16*
X213360000Y-96520000D03*
D17*
X213360000Y-99060000D03*
X210820000Y-96520000D03*
X210820000Y-99060000D03*
X208280000Y-96520000D03*
X208280000Y-99060000D03*
X205740000Y-96520000D03*
X205740000Y-99060000D03*
X203200000Y-96520000D03*
X203200000Y-99060000D03*
X200660000Y-96520000D03*
X200660000Y-99060000D03*
X198120000Y-96520000D03*
X198120000Y-99060000D03*
X195580000Y-96520000D03*
X195580000Y-99060000D03*
X193040000Y-96520000D03*
X193040000Y-99060000D03*
X190500000Y-96520000D03*
X190500000Y-99060000D03*
X187960000Y-96520000D03*
X187960000Y-99060000D03*
X185420000Y-96520000D03*
X185420000Y-99060000D03*
X182880000Y-96520000D03*
X182880000Y-99060000D03*
X180340000Y-96520000D03*
X180340000Y-99060000D03*
X177800000Y-96520000D03*
X177800000Y-99060000D03*
X175260000Y-96520000D03*
X175260000Y-99060000D03*
D18*
X213360000Y-93980000D03*
D19*
X210820000Y-93980000D03*
X208280000Y-93980000D03*
X205740000Y-93980000D03*
X203200000Y-93980000D03*
X200660000Y-93980000D03*
X198120000Y-93980000D03*
X195580000Y-93980000D03*
X193040000Y-93980000D03*
X190500000Y-93980000D03*
X187960000Y-93980000D03*
X185420000Y-93980000D03*
X182880000Y-93980000D03*
X180340000Y-93980000D03*
X177800000Y-93980000D03*
X175260000Y-93980000D03*
D18*
X193040000Y-71120000D03*
D19*
X190500000Y-71120000D03*
X187960000Y-71120000D03*
X185420000Y-71120000D03*
D16*
X198120000Y-73660000D03*
D17*
X198120000Y-71120000D03*
X200660000Y-73660000D03*
X200660000Y-71120000D03*
X203200000Y-73660000D03*
X203200000Y-71120000D03*
X205740000Y-73660000D03*
X205740000Y-71120000D03*
X208280000Y-73660000D03*
X208280000Y-71120000D03*
X210820000Y-73660000D03*
X210820000Y-71120000D03*
X213360000Y-73660000D03*
X213360000Y-71120000D03*
D20*
X176319102Y-79829258D03*
X176319102Y-80479258D03*
X176319102Y-81129258D03*
X176319102Y-81779258D03*
X180719102Y-81779258D03*
X180719102Y-81129258D03*
X180719102Y-80479258D03*
X180719102Y-79829258D03*
D21*
X188027000Y-81804000D03*
X188027000Y-82304000D03*
X188027000Y-82804000D03*
X188027000Y-83304000D03*
X188027000Y-83804000D03*
D22*
X188992000Y-84769000D03*
X189492000Y-84769000D03*
X189992000Y-84769000D03*
X190492000Y-84769000D03*
X190992000Y-84769000D03*
D21*
X191957000Y-83804000D03*
X191957000Y-83304000D03*
X191957000Y-82804000D03*
X191957000Y-82304000D03*
X191957000Y-81804000D03*
D22*
X190992000Y-80839000D03*
X190492000Y-80839000D03*
X189992000Y-80839000D03*
X189492000Y-80839000D03*
X188992000Y-80839000D03*
D23*
X190617000Y-83429000D03*
X190617000Y-82179000D03*
X189367000Y-83429000D03*
X189367000Y-82179000D03*
D24*
X180969102Y-78329258D03*
X179869102Y-78329258D03*
D15*
X182400000Y-85950000D03*
X182400000Y-84850000D03*
D24*
X177519102Y-78329258D03*
X178619102Y-78329258D03*
D15*
X175300000Y-91050000D03*
X175300000Y-89950000D03*
D24*
X189750000Y-78900000D03*
X190850000Y-78900000D03*
D15*
X187500000Y-79750000D03*
X187500000Y-80850000D03*
X198500000Y-83300000D03*
X198500000Y-82200000D03*
D24*
X201150000Y-81600000D03*
X202250000Y-81600000D03*
D15*
X187960000Y-86572000D03*
X187960000Y-87672000D03*
D25*
X195800000Y-83500000D03*
X195800000Y-81300000D03*
X194200000Y-83500000D03*
X194200000Y-81300000D03*
D26*
X180869102Y-77029258D03*
X179369102Y-77029258D03*
D27*
X183400000Y-85850000D03*
X183400000Y-84350000D03*
D26*
X189950000Y-77600000D03*
X191450000Y-77600000D03*
D27*
X198500000Y-79350000D03*
X198500000Y-80850000D03*
D26*
X201000000Y-80250000D03*
X202500000Y-80250000D03*
D24*
X194350000Y-80000000D03*
X195450000Y-80000000D03*
D28*
X187653000Y-74422000D03*
X190553000Y-74422000D03*
D29*
X200900000Y-76750000D03*
X200900000Y-75250000D03*
X195000000Y-85250000D03*
X195000000Y-86750000D03*
X193400000Y-85250000D03*
X193400000Y-86750000D03*
X199400000Y-76750000D03*
X199400000Y-75250000D03*
X197900000Y-76750000D03*
X197900000Y-75250000D03*
D30*
X195302000Y-74422000D03*
X192302000Y-74422000D03*
D31*
X188300000Y-77900000D03*
X186300000Y-77900000D03*
D15*
X182384102Y-80579258D03*
X182384102Y-79479258D03*
D32*
X176119102Y-77479258D03*
X176119102Y-78379258D03*
X173500000Y-90550000D03*
X173500000Y-91450000D03*
X182219102Y-81779258D03*
X182219102Y-82679258D03*
X183419102Y-80579258D03*
X183419102Y-79679258D03*
X182500000Y-87750000D03*
X182500000Y-86850000D03*
X182500000Y-88350000D03*
X182500000Y-89250000D03*
X173600000Y-86350000D03*
X173600000Y-87250000D03*
D33*
X178069102Y-80529258D03*
X178969102Y-80529258D03*
D32*
X173600000Y-84650000D03*
X173600000Y-85550000D03*
D33*
X177269102Y-76929258D03*
X178169102Y-76929258D03*
D32*
X174400000Y-91450000D03*
X174400000Y-90550000D03*
D33*
X178069102Y-81829258D03*
X178969102Y-81829258D03*
D34*
X170180000Y-78740000D03*
D35*
X170180000Y-81280000D03*
X170180000Y-83820000D03*
D34*
X170180000Y-86360000D03*
D35*
X170180000Y-88900000D03*
X170180000Y-91440000D03*
D29*
X195500000Y-70550000D03*
X195500000Y-72050000D03*
D15*
X174919102Y-81379258D03*
X174919102Y-80279258D03*
X174600000Y-87250000D03*
X174600000Y-86150000D03*
X209000000Y-86850000D03*
X209000000Y-85750000D03*
D14*
X209150000Y-83200000D03*
X207650000Y-83200000D03*
D33*
X214000000Y-81800000D03*
X214900000Y-81800000D03*
X214100000Y-80600000D03*
X213200000Y-80600000D03*
D20*
X205500000Y-79500000D03*
X205500000Y-80150000D03*
X205500000Y-80800000D03*
X205500000Y-81450000D03*
X209900000Y-81450000D03*
X209900000Y-80800000D03*
X209900000Y-80150000D03*
X209900000Y-79500000D03*
D36*
X215800000Y-90610000D03*
X215800000Y-89340000D03*
X215800000Y-88070000D03*
X215800000Y-86800000D03*
X215800000Y-85530000D03*
X215800000Y-84260000D03*
X215800000Y-82990000D03*
X210400000Y-82990000D03*
X210400000Y-84260000D03*
X210400000Y-85530000D03*
X210400000Y-86800000D03*
X210400000Y-88070000D03*
X210400000Y-89340000D03*
X210400000Y-90610000D03*
D34*
X218440000Y-76200000D03*
D35*
X218440000Y-78740000D03*
X218440000Y-81280000D03*
X218440000Y-83820000D03*
X218440000Y-86360000D03*
X218440000Y-88900000D03*
X218440000Y-91440000D03*
X218440000Y-93980000D03*
D24*
X210050000Y-78600000D03*
X208950000Y-78600000D03*
D33*
X215600000Y-91900000D03*
X216500000Y-91900000D03*
X210850000Y-91750000D03*
X209950000Y-91750000D03*
D29*
X189103000Y-88126000D03*
X189103000Y-86626000D03*
D24*
X188200000Y-85750000D03*
X189300000Y-85750000D03*
D37*
X199930000Y-83890000D03*
X199930000Y-84290000D03*
X199930000Y-84690000D03*
X199930000Y-85090000D03*
X199930000Y-85490000D03*
X199930000Y-85890000D03*
X199930000Y-86290000D03*
D38*
X200730000Y-87090000D03*
X201130000Y-87090000D03*
X201530000Y-87090000D03*
X201930000Y-87090000D03*
X202330000Y-87090000D03*
X202730000Y-87090000D03*
X203130000Y-87090000D03*
D37*
X203930000Y-86290000D03*
X203930000Y-85890000D03*
X203930000Y-85490000D03*
X203930000Y-85090000D03*
X203930000Y-84690000D03*
X203930000Y-84290000D03*
X203930000Y-83890000D03*
D38*
X203130000Y-83090000D03*
X202730000Y-83090000D03*
X202330000Y-83090000D03*
X201930000Y-83090000D03*
X201530000Y-83090000D03*
X201130000Y-83090000D03*
X200730000Y-83090000D03*
D39*
X202530000Y-85690000D03*
X202530000Y-84490000D03*
X201330000Y-85690000D03*
X201330000Y-84490000D03*
D15*
X186600000Y-82850000D03*
X186600000Y-81750000D03*
X186600000Y-83850000D03*
X186600000Y-84950000D03*
D18*
X175260000Y-71120000D03*
D19*
X177800000Y-71120000D03*
X180340000Y-71120000D03*
X182880000Y-71120000D03*
D14*
X184250000Y-86100000D03*
X185750000Y-86100000D03*
D29*
X185600000Y-85150000D03*
X185600000Y-83650000D03*
D14*
X173550000Y-88900000D03*
X172050000Y-88900000D03*
D40*
X175800000Y-84795000D03*
X175800000Y-86065000D03*
X175800000Y-87335000D03*
X175800000Y-88605000D03*
X181200000Y-88605000D03*
X181200000Y-87335000D03*
X181200000Y-86065000D03*
X181200000Y-84795000D03*
D14*
X177850000Y-87000000D03*
X179350000Y-87000000D03*
X177850000Y-88500000D03*
X179350000Y-88500000D03*
M02*
